<?xml version="1.0" encoding="UTF-8"?>
<svg width="20px" height="20px" viewBox="0 0 20 20" version="1.1" xmlns="http://www.w3.org/2000/svg" xmlns:xlink="http://www.w3.org/1999/xlink">
    <title>编组 4</title>
    <g id="页面-1" stroke="none" stroke-width="1" fill="none" fill-rule="evenodd">
        <g id="空调管理-手动控制" transform="translate(-1397.000000, -257.000000)">
            <g id="编组-9备份-22" transform="translate(1216.000000, 244.000000)">
                <g id="编组-4" transform="translate(181.000000, 13.000000)">
                    <rect id="矩形" x="0" y="0" width="20" height="20"></rect>
                    <g id="中央空调" transform="translate(11.000000, 9.000000) scale(-1, 1) translate(-11.000000, -9.000000) translate(2.000000, 0.000000)" fill="#000000" opacity="0.400000006">
                        <path d="M15.5892857,-1.0658141e-14 C16.9185536,-1.0658141e-14 18,1.08144643 18,2.41071428 L18,2.41071428 L18,15.5892857 C18,16.9185536 16.9185536,18 15.5892857,18 L15.5892857,18 L2.41071428,18 C1.08144643,18 -1.0658141e-14,16.9185536 -1.0658141e-14,15.5892857 L-1.0658141e-14,15.5892857 L-1.0658141e-14,2.41071428 C-1.0658141e-14,1.08144643 1.08144643,-1.0658141e-14 2.41071428,-1.0658141e-14 L2.41071428,-1.0658141e-14 Z M6.510375,12.8571429 L4.09789287,12.8571429 C3.91226787,12.8571429 3.79639287,13.0580357 3.88912501,13.21875 L5.09544644,15.3080357 C5.18817857,15.46875 5.42025002,15.46875 5.51298215,15.3080357 L6.71930358,13.21875 C6.81203572,13.0580357 6.69600001,12.8571429 6.510375,12.8571429 Z M11.25,9.64285714 C9.65491073,9.64285714 8.35714286,10.940625 8.35714286,12.5357143 C8.35714286,14.1308036 9.65491073,15.4285714 11.25,15.4285714 C12.8450893,15.4285714 14.1428571,14.1308036 14.1428571,12.5357143 C14.1428571,10.940625 12.8450893,9.64285714 11.25,9.64285714 Z M11.25,10.9285714 C12.1361786,10.9285714 12.8571429,11.6495357 12.8571429,12.5357143 C12.8571429,13.4218928 12.1361786,14.1428571 11.25,14.1428571 C10.3638214,14.1428571 9.64285714,13.4218929 9.64285714,12.5357143 C9.64285714,11.6495357 10.3638214,10.9285714 11.25,10.9285714 Z M5.09544644,9.76339285 L3.88912501,11.8526786 C3.79639287,12.0133929 3.91226787,12.2142857 4.09789287,12.2142857 L6.510375,12.2142857 C6.696,12.2142857 6.81187499,12.0133929 6.71914285,11.8526786 L5.51298215,9.76339285 C5.42025002,9.60267857 5.18817857,9.60267857 5.09544644,9.76339285 Z M13.1785714,2.57142858 L4.82142857,2.57142858 C3.93525,2.57142858 3.21428572,3.29239286 3.21428572,4.17857143 L3.21428572,6.10714286 C3.21428572,6.99332143 3.93525,7.71428571 4.82142857,7.71428571 L13.1785714,7.71428571 C14.06475,7.71428571 14.7857143,6.99332143 14.7857143,6.10714286 L14.7857143,4.17857143 C14.7857143,3.29239286 14.06475,2.57142858 13.1785714,2.57142858 Z M13.1785714,3.85714285 C13.3558393,3.85714285 13.5,4.00130357 13.5,4.17857143 L13.5,6.10714286 C13.5,6.28441072 13.3558393,6.42857144 13.1785714,6.42857144 L4.82142857,6.42857144 C4.6441607,6.42857144 4.50000001,6.28441072 4.50000001,6.10714286 L4.50000001,4.17857143 C4.50000001,4.00130357 4.64416072,3.85714285 4.82142857,3.85714285 L13.1785714,3.85714285 Z" id="形状结合"></path>
                    </g>
                </g>
            </g>
        </g>
    </g>
</svg>