<?xml version="1.0" encoding="UTF-8"?>
<svg width="213px" height="136px" viewBox="0 0 213 136" version="1.1" xmlns="http://www.w3.org/2000/svg"
    xmlns:xlink="http://www.w3.org/1999/xlink">
    <title>编组 15</title>
    <defs>
        <linearGradient x1="50%" y1="0%" x2="50%" y2="99.2734342%" id="linearGradient-1">
            <stop stop-color="#FFFFFF" stop-opacity="0" offset="0%"></stop>
            <stop stop-color="#B6E7FF" stop-opacity="0.796948304" offset="79.5354895%"></stop>
            <stop stop-color="#6ECEFE" offset="100%"></stop>
        </linearGradient>
    </defs>
    <g id="页面-1" stroke="none" stroke-width="1" fill="none" fill-rule="evenodd">
        <g id="空调管理-手动控制" transform="translate(-535.000000, -308.000000)">
            <g id="编组-9备份-12" transform="translate(535.000000, 244.000000)">
                <g id="编组-15" transform="translate(0.000000, 64.000000)">
                    <path
                        d="M0,0 L213,0 L213,120 C213,128.836556 205.836556,136 197,136 L16,136 C7.163444,136 1.082166e-15,128.836556 0,120 L0,0 L0,0 Z"
                        id="矩形" fill="url(#linearGradient-1)"></path>
                    <g id="制冷-(2)备份" opacity="0.900000036" transform="translate(34.000000, 6.000000)" fill="#5FCAFF"
                        fill-rule="nonzero">
                        <polygon id="路径"
                            points="0.000612 1.60944863 12.4043816 3.39704738e-16 13.4948902 1.64249434 10.9797442 3.32293005 10.9797442 8.48418089 15.4347959 5.9017196 15.6306224 2.88109663 17.5888868 3.00348816 17.4028517 5.89804786 19.9926565 7.18315893 19.1212288 8.95294046 16.4151521 7.60663362 11.9674439 10.1976623 16.4224956 12.7801236 19.1285723 11.4338168 20 13.2035983 17.4101952 14.4887094 17.5962303 17.3832691 15.6379659 17.5056606 15.4433633 14.4813659 10.9797442 11.9111437 10.9797442 17.0760663 13.4912184 18.7565021 12.4007099 20.3989964 10.000612 18.785876 7.59561838 20.3953246 6.50510985 18.7528303 9.02147971 17.0723946 9.02147971 11.9111437 4.56520409 14.493605 4.37060155 17.514228 2.41233707 17.3918365 2.59837219 14.4972768 0.00856740714 13.2121657 0.879995104 11.4423842 3.58607184 12.788691 8.03378006 10.1976623 3.57872835 7.61520103 0.872651613 8.96150786 0 7.18805459 2.58980479 5.90294352 2.40499357 3.00838382 4.36325806 2.88599229 4.5578606 5.91028701 9.02147971 8.48418089 9.02147971 3.32293005 6.50510985 1.64249434 7.59561838 0">
                        </polygon>
                    </g>
                    <polygon id="路径" fill="#C5E9FD" fill-rule="nonzero" opacity="0.5"
                        points="168.984055 45.4515241 171.14053 44.0076524 172.118849 45.4811702 169.862456 46.9887259 169.862456 51.6189973 173.859181 49.3022146 174.034861 46.5923475 175.791663 46.7021476 175.624767 49.2989206 177.948138 50.451822 177.166361 52.0395318 174.73868 50.8317304 170.748543 53.1561991 174.745268 55.4729819 177.172949 54.2651804 177.954726 55.8528903 175.631355 57.0057917 175.798251 59.6025647 174.041449 59.7123648 173.866867 56.9992036 169.862456 54.6934009 169.862456 59.3269664 172.115555 60.8345221 171.137236 62.3080399 168.984055 60.8608742 166.826483 62.3047459 165.848163 60.8312281 168.105654 59.3236724 168.105654 54.6934009 164.107831 57.0101837 163.933249 59.7200508 162.176447 59.6102507 162.343343 57.0134777 160.019973 55.8605763 160.80175 54.2728665 163.22943 55.4806679 167.219567 53.1561991 163.222842 50.8394164 160.795162 52.0472178 160.012287 50.456214 162.335657 49.3033126 162.169859 46.7065396 163.926661 46.5967395 164.101243 49.3099006 168.105654 51.6189973 168.105654 46.9887259 165.848163 45.4811702 166.826483 44.0076524">
                    </polygon>
                </g>
            </g>
        </g>
    </g>
</svg>