<?xml version="1.0" encoding="UTF-8"?>
<svg width="503px" height="200px" viewBox="0 0 503 200" version="1.1" xmlns="http://www.w3.org/2000/svg" xmlns:xlink="http://www.w3.org/1999/xlink">
    <title>编组 15</title>
    <defs>
        <linearGradient x1="50%" y1="0%" x2="50%" y2="99.2734342%" id="linearGradient-1">
            <stop stop-color="#FFFFFF" stop-opacity="0" offset="0%"></stop>
            <stop stop-color="#B6E7FF" stop-opacity="0.796948304" offset="79.5354895%"></stop>
            <stop stop-color="#6ECEFE" offset="100%"></stop>
        </linearGradient>
    </defs>
    <g id="页面-1" stroke="none" stroke-width="1" fill="none" fill-rule="evenodd">
        <g id="空调管理-手动控制" transform="translate(-390.000000, -717.000000)">
            <g id="编组-15" transform="translate(390.000000, 717.000000)">
                <rect id="矩形" fill="#ECF3FD" x="0" y="0" width="503" height="199"></rect>
                <path d="M0,64 L503,64 L503,184 C503,192.836556 495.836556,200 487,200 L16,200 C7.163444,200 1.082166e-15,192.836556 0,184 L0,64 L0,64 Z" id="矩形" fill="url(#linearGradient-1)"></path>
                <g id="制冷-(2)备份" opacity="0.900000036" transform="translate(179.000000, 70.000000)" fill="#5FCAFF" fill-rule="nonzero">
                    <polygon id="路径" points="10.000612 1.60944863 12.4043816 3.39704738e-16 13.4948902 1.64249434 10.9797442 3.32293005 10.9797442 8.48418089 15.4347959 5.9017196 15.6306224 2.88109663 17.5888868 3.00348816 17.4028517 5.89804786 19.9926565 7.18315893 19.1212288 8.95294046 16.4151521 7.60663362 11.9674439 10.1976623 16.4224956 12.7801236 19.1285723 11.4338168 20 13.2035983 17.4101952 14.4887094 17.5962303 17.3832691 15.6379659 17.5056606 15.4433633 14.4813659 10.9797442 11.9111437 10.9797442 17.0760663 13.4912184 18.7565021 12.4007099 20.3989964 10.000612 18.785876 7.59561838 20.3953246 6.50510985 18.7528303 9.02147971 17.0723946 9.02147971 11.9111437 4.56520409 14.493605 4.37060155 17.514228 2.41233707 17.3918365 2.59837219 14.4972768 0.00856740714 13.2121657 0.879995104 11.4423842 3.58607184 12.788691 8.03378006 10.1976623 3.57872835 7.61520103 0.872651613 8.96150786 0 7.18805459 2.58980479 5.90294352 2.40499357 3.00838382 4.36325806 2.88599229 4.5578606 5.91028701 9.02147971 8.48418089 9.02147971 3.32293005 6.50510985 1.64249434 7.59561838 0"></polygon>
                </g>
                <polygon id="路径" fill="#C5E9FD" fill-rule="nonzero" opacity="0.5" points="313.984055 109.451524 316.14053 108.007652 317.118849 109.48117 314.862456 110.988726 314.862456 115.618997 318.859181 113.302215 319.034861 110.592347 320.791663 110.702148 320.624767 113.298921 322.948138 114.451822 322.166361 116.039532 319.73868 114.83173 315.748543 117.156199 319.745268 119.472982 322.172949 118.26518 322.954726 119.85289 320.631355 121.005792 320.798251 123.602565 319.041449 123.712365 318.866867 120.999204 314.862456 118.693401 314.862456 123.326966 317.115555 124.834522 316.137236 126.30804 313.984055 124.860874 311.826483 126.304746 310.848163 124.831228 313.105654 123.323672 313.105654 118.693401 309.107831 121.010184 308.933249 123.720051 307.176447 123.610251 307.343343 121.013478 305.019973 119.860576 305.80175 118.272866 308.22943 119.480668 312.219567 117.156199 308.222842 114.839416 305.795162 116.047218 305.012287 114.456214 307.335657 113.303313 307.169859 110.70654 308.926661 110.596739 309.101243 113.309901 313.105654 115.618997 313.105654 110.988726 310.848163 109.48117 311.826483 108.007652"></polygon>
            </g>
        </g>
    </g>
</svg>