<?xml version="1.0" encoding="UTF-8"?>
<svg width="503px" height="200px" viewBox="0 0 503 200" version="1.1" xmlns="http://www.w3.org/2000/svg" xmlns:xlink="http://www.w3.org/1999/xlink">
    <title>编组 23</title>
    <defs>
        <linearGradient x1="50%" y1="0%" x2="50%" y2="99.2734342%" id="linearGradient-1">
            <stop stop-color="#FFFFFF" stop-opacity="0" offset="0%"></stop>
            <stop stop-color="#FFFFFF" stop-opacity="0" offset="0%"></stop>
            <stop stop-color="#D2E6FE" stop-opacity="0.73367392" offset="60.8994999%"></stop>
            <stop stop-color="#9EB0FC" offset="100%"></stop>
        </linearGradient>
    </defs>
    <g id="页面-1" stroke="none" stroke-width="1" fill="none" fill-rule="evenodd">
        <g id="空调管理-手动控制" transform="translate(-1292.000000, -717.000000)">
            <g id="编组-23" transform="translate(1292.000000, 717.000000)">
                <rect id="矩形" fill="#ECF3FD" x="0" y="0" width="503" height="199"></rect>
                <path d="M0,64 L503,64 L503,184 C503,192.836556 495.836556,200 487,200 L16,200 C7.163444,200 1.082166e-15,192.836556 0,184 L0,64 L0,64 Z" id="矩形" fill="url(#linearGradient-1)"></path>
                <path d="M311.279955,115.353591 C310.782718,114.060773 309.88769,112.618785 310.384927,111.425414 C308.197082,112.718232 307.202607,115.005525 307.351778,116.596685 C307.600397,119.530387 312.523049,118.734807 311.279955,115.353591 L311.279955,115.353591 Z M315.058961,118.337017 C315.307579,121.41989 320.528574,120.574586 319.186032,116.994475 C318.688795,115.60221 317.69432,114.110497 318.241281,112.867403 C315.953988,114.259669 314.909789,116.646409 315.058961,118.337017 Z M321.523049,119.480663 C321.423602,120.574586 320.628021,121.469613 319.583823,121.469613 L308.29653,121.469613 C307.202607,121.469613 306.456751,120.524862 306.357303,119.480663 C306.257856,118.635359 305.014762,118.486188 305.014762,119.480663 C304.965038,121.370166 306.456751,122.911602 308.29653,122.911602 L319.583823,122.911602 C321.423602,122.911602 322.915314,121.370166 322.915314,119.480663 C322.815867,118.436464 321.572773,118.585635 321.523049,119.480663 L321.523049,119.480663 Z M316.003712,110.232044 C315.605922,109.187845 314.860066,107.994475 315.257856,107 C313.4678,108.093923 312.67222,109.933702 312.771668,111.226519 C312.970563,113.662983 317.047911,112.966851 316.003712,110.232044 Z" id="形状" fill="#A1B4FE" fill-rule="nonzero" opacity="0.699999988"></path>
                <path d="M186.000877,79.3327035 C185.445359,77.8883565 184.445427,76.2773541 185.000945,74.9441108 C182.556665,76.3884578 181.445629,78.9438409 181.612285,80.7214987 C181.890044,83.9990553 187.389672,83.1102263 186.000877,79.3327035 L186.000877,79.3327035 Z M190.222815,82.6658119 C190.500574,86.1100239 196.333513,85.1656432 194.833615,81.1659131 C194.278096,79.6104625 193.16706,77.9439083 193.77813,76.5551132 C191.222747,78.1105638 190.056159,80.7770505 190.222815,82.6658119 Z M197.444549,83.9435034 C197.333446,85.1656432 196.444617,86.1655757 195.278029,86.1655757 L182.667769,86.1655757 C181.445629,86.1655757 180.612352,85.1100914 180.501248,83.9435034 C180.390145,82.9991227 179.00135,82.8324673 179.00135,83.9435034 C178.945798,86.0544721 180.612352,87.7765781 182.667769,87.7765781 L195.278029,87.7765781 C197.333446,87.7765781 199,86.0544721 199,83.9435034 C198.888896,82.7769155 197.500101,82.9435709 197.444549,83.9435034 L197.444549,83.9435034 Z M191.278299,73.6108674 C190.833884,72.4442795 190.000607,71.1110361 190.445022,70 C188.445157,71.2221397 187.556328,73.2775566 187.667431,74.7219036 C187.889639,77.4439421 192.444887,76.6662168 191.278299,73.6108674 Z" id="形状" fill="#819AFD" fill-rule="nonzero"></path>
            </g>
        </g>
    </g>
</svg>