<?xml version="1.0" encoding="UTF-8"?>
<svg width="213px" height="136px" viewBox="0 0 213 136" version="1.1" xmlns="http://www.w3.org/2000/svg" xmlns:xlink="http://www.w3.org/1999/xlink">
    <title>编组 23</title>
    <defs>
        <linearGradient x1="50%" y1="0%" x2="50%" y2="99.2734342%" id="linearGradient-1">
            <stop stop-color="#FFFFFF" stop-opacity="0" offset="0%"></stop>
            <stop stop-color="#FFFFFF" stop-opacity="0" offset="0%"></stop>
            <stop stop-color="#D2E6FE" stop-opacity="0.73367392" offset="60.8994999%"></stop>
            <stop stop-color="#9EB0FC" offset="100%"></stop>
        </linearGradient>
    </defs>
    <g id="页面-1" stroke="none" stroke-width="1" fill="none" fill-rule="evenodd">
        <g id="空调管理-手动控制" transform="translate(-1216.000000, -308.000000)">
            <g id="编组-9备份-22" transform="translate(1216.000000, 244.000000)">
                <g id="编组-13" transform="translate(0.000000, 64.000000)">
                    <g id="编组-23">
                        <path d="M0,0 L213,0 L213,120 C213,128.836556 205.836556,136 197,136 L16,136 C7.163444,136 1.082166e-15,128.836556 0,120 L0,0 L0,0 Z" id="矩形" fill="url(#linearGradient-1)"></path>
                        <path d="M166.279955,51.3535912 C165.782718,50.0607735 164.88769,48.6187845 165.384927,47.4254144 C163.197082,48.718232 162.202607,51.0055249 162.351778,52.5966851 C162.600397,55.5303867 167.523049,54.7348066 166.279955,51.3535912 L166.279955,51.3535912 Z M170.058961,54.3370166 C170.307579,57.4198895 175.528574,56.5745856 174.186032,52.9944751 C173.688795,51.6022099 172.69432,50.1104972 173.241281,48.8674033 C170.953988,50.2596685 169.909789,52.6464088 170.058961,54.3370166 Z M176.523049,55.480663 C176.423602,56.5745856 175.628021,57.4696133 174.583823,57.4696133 L163.29653,57.4696133 C162.202607,57.4696133 161.456751,56.5248619 161.357303,55.480663 C161.257856,54.6353591 160.014762,54.4861878 160.014762,55.480663 C159.965038,57.3701657 161.456751,58.9116022 163.29653,58.9116022 L174.583823,58.9116022 C176.423602,58.9116022 177.915314,57.3701657 177.915314,55.480663 C177.815867,54.4364641 176.572773,54.5856354 176.523049,55.480663 L176.523049,55.480663 Z M171.003712,46.2320442 C170.605922,45.1878453 169.860066,43.9944751 170.257856,43 C168.4678,44.0939227 167.67222,45.9337017 167.771668,47.2265193 C167.970563,49.6629834 172.047911,48.9668508 171.003712,46.2320442 Z" id="形状" fill="#A1B4FE" fill-rule="nonzero" opacity="0.699999988"></path>
                        <path d="M41.0008773,15.3327035 C40.4453592,13.8883565 39.4454267,12.2773541 40.0009447,10.9441108 C37.5566653,12.3884578 36.4456291,14.9438409 36.6122846,16.7214987 C36.8900436,19.9990553 42.3896724,19.1102263 41.0008773,15.3327035 L41.0008773,15.3327035 Z M45.2228146,18.6658119 C45.5005736,22.1100239 51.3335133,21.1656432 49.8336145,17.1659131 C49.2780964,15.6104625 48.1670603,13.9439083 48.7781302,12.5551132 C46.2227471,14.1105638 45.0561591,16.7770505 45.2228146,18.6658119 Z M52.4445494,19.9435034 C52.3334458,21.1656432 51.4446169,22.1655757 50.278029,22.1655757 L37.6677689,22.1655757 C36.4456291,22.1655757 35.612352,21.1100914 35.5012484,19.9435034 C35.3901448,18.9991227 34.0013496,18.8324673 34.0013496,19.9435034 C33.9457978,22.0544721 35.612352,23.7765781 37.6677689,23.7765781 L50.278029,23.7765781 C52.3334458,23.7765781 54,22.0544721 54,19.9435034 C53.8888964,18.7769155 52.5001012,18.9435709 52.4445494,19.9435034 L52.4445494,19.9435034 Z M46.2782989,9.61086743 C45.8338844,8.44427949 45.0006073,7.11103613 45.4450218,6 C43.4451568,7.22213974 42.5563279,9.27755659 42.6674315,10.7219036 C42.8896387,13.4439421 47.4448868,12.6662168 46.2782989,9.61086743 Z" id="形状" fill="#819AFD" fill-rule="nonzero"></path>
                    </g>
                </g>
            </g>
        </g>
    </g>
</svg>