<?xml version="1.0" encoding="UTF-8"?>
<svg width="213px" height="136px" viewBox="0 0 213 136" version="1.1" xmlns="http://www.w3.org/2000/svg" xmlns:xlink="http://www.w3.org/1999/xlink">
    <title>编组 22</title>
    <defs>
        <linearGradient x1="50%" y1="0%" x2="50%" y2="99.2734342%" id="linearGradient-1">
            <stop stop-color="#FFFFFF" stop-opacity="0" offset="0%"></stop>
            <stop stop-color="#E0FFF1" stop-opacity="0.729940348" offset="64.1867637%"></stop>
            <stop stop-color="#70E8BD" offset="100%"></stop>
        </linearGradient>
    </defs>
    <g id="页面-1" stroke="none" stroke-width="1" fill="none" fill-rule="evenodd">
        <g id="空调管理-手动控制" transform="translate(-989.000000, -308.000000)">
            <g id="编组-9备份-21" transform="translate(989.000000, 244.000000)">
                <g id="编组-11" transform="translate(0.000000, 64.000000)">
                    <g id="编组-22">
                        <path d="M0,0 L213,0 L213,120 C213,128.836556 205.836556,136 197,136 L16,136 C7.163444,136 1.082166e-15,128.836556 0,120 L0,0 L0,0 Z" id="矩形" fill="url(#linearGradient-1)"></path>
                        <path d="M171.788176,54.212822 C173.719467,54.212822 174.969126,55.2352701 175.309942,56.8825477 C175.598944,58.3849036 174.757461,59.8755307 173.321849,60.4043136 L172.185795,60.5179189 C171.036002,60.5404479 169.966796,59.9294729 169.402464,58.927444 C169.288859,58.7002333 168.948043,58.1322066 169.516069,57.7913905 L169.913688,57.6777852 C170.229338,57.724551 170.4924,57.9437693 170.59532,58.2458119 C170.89992,58.7733944 171.46299,59.0982426 172.07219,59.097852 L172.413006,59.097852 C173.132844,59.0203171 173.725105,58.4963942 173.889875,57.7913905 C174.0287,57.2998901 173.923046,56.7716223 173.605862,56.3713236 C173.326054,55.9450274 172.864596,55.6723475 172.356203,55.6328888 L159.859614,55.6328888 L159.518798,55.5192835 C159.290049,55.4073649 159.123353,55.1989942 159.064377,54.9512567 C159.108604,54.6984115 159.251679,54.4735791 159.461996,54.3264273 C159.579573,54.2482982 159.718509,54.2086025 159.859614,54.212822 L171.788176,54.212822 Z M178.888511,47.5101063 C179.274329,49.4822219 178.01213,51.4007642 176.048377,51.8271096 C175.637437,51.9119558 175.218221,51.9500663 174.798718,51.9407149 L159.802812,51.9407149 L159.802812,51.9975176 L159.518798,51.9975176 C159.227457,51.9682404 159.006107,51.7222962 159.007574,51.4294909 C158.961717,51.1367407 159.127792,50.8520417 159.405193,50.7478588 L159.859614,50.6342534 L174.969126,50.6342534 C176.218785,50.6342534 177.127628,50.0662267 177.468444,48.9869758 C177.82041,47.8298992 177.228121,46.5959631 176.10518,46.1468421 C175.832378,46.0438916 175.544553,45.9863266 175.253139,45.976434 C174.356067,45.9587444 173.532596,46.4706318 173.15144,47.2828956 C173.090625,47.3666918 173.051587,47.4642875 173.037835,47.5669089 L172.92423,47.7941196 C172.857198,48.0646238 172.632249,48.2670777 172.356203,48.3053437 L172.015387,48.1917384 C171.759594,47.9834203 171.613123,47.6695543 171.617768,47.3396982 C171.986321,45.9109421 173.170139,44.8388053 174.62831,44.6131698 L175.139534,44.6131698 C176.918333,44.5667461 178.484706,45.7771255 178.888511,47.5101063 Z M167.527976,42.0002468 C169.240194,42.1216009 170.547314,43.5795426 170.481715,45.2948019 C170.423094,46.9639652 169.083534,48.3035257 167.41437,48.3621464 L163.778999,48.4189491 L159.916417,48.4189491 C159.657335,48.4651426 159.390623,48.4035936 159.177982,48.248541 C159.053372,48.1087731 158.991747,47.9238977 159.007574,47.737317 C159.007574,46.9988822 159.632404,46.9988822 160.030022,46.9988822 L167.300765,46.9988822 C168.273274,47.1243672 169.163374,46.4377187 169.288859,45.4652099 C169.414344,44.4927012 168.727695,43.6026013 167.755186,43.4771163 L167.357568,43.4771163 C166.793229,43.4814768 166.265174,43.7560655 165.937501,44.2155511 L165.823895,44.3859591 L165.71029,44.5563671 C165.574668,44.7419381 165.369825,44.8648441 165.142263,44.8971832 C165.007066,44.9020588 164.878665,44.8378585 164.801447,44.7267752 C164.57399,44.4833126 164.48811,44.1397909 164.574237,43.8179324 C165.073134,42.6993384 166.189662,41.9847606 167.41437,42.0002468 L167.527976,42.0002468 Z" id="形状结合备份" fill="#C5EFE1" fill-rule="nonzero" opacity="0.800000012"></path>
                        <path d="M48.0967,18.4624737 C50.2256063,18.4624737 51.6031339,19.5895418 51.9788233,21.4053736 C52.2973971,23.061455 51.369811,24.7046075 49.7873021,25.2874969 L48.5350042,25.4127267 C47.2675608,25.4375609 46.0889502,24.7640691 45.4668745,23.6595097 C45.3416448,23.4090502 44.9659554,22.7829013 45.5921043,22.4072119 L46.0304086,22.2819821 C46.3783573,22.3335332 46.6683364,22.5751825 46.7817873,22.908131 C47.1175545,23.4896973 47.7382397,23.847785 48.4097744,23.8473544 L48.7854638,23.8473544 C49.5789585,23.7618858 50.231821,23.1843536 50.413451,22.4072119 C50.5664804,21.8654197 50.450016,21.283098 50.1003765,20.8418396 C49.7919384,20.3719235 49.2832624,20.0713422 48.7228489,20.027846 L34.9475727,20.027846 L34.5718834,19.9026162 C34.3197278,19.7792458 34.1359744,19.5495541 34.0709643,19.2764673 C34.1197166,18.9977503 34.2774317,18.7499123 34.5092685,18.5877035 C34.6388771,18.50158 34.7920285,18.4578225 34.9475727,18.4624737 L48.0967,18.4624737 Z M55.9235615,11.0739165 C56.3488574,13.2478248 54.9575066,15.362678 52.7928169,15.8326483 C52.3398284,15.9261762 51.8777174,15.9681863 51.4152893,15.9578781 L34.8849578,15.9578781 L34.8849578,16.020493 L34.5718834,16.020493 C34.2507308,15.98822 34.0067319,15.7171101 34.0083494,15.394344 C33.9578002,15.0716389 34.1408679,14.7578085 34.4466536,14.6429653 L34.9475727,14.5177356 L51.6031339,14.5177356 C52.9806615,14.5177356 53.9824998,13.8915866 54.3581892,12.7019037 C54.7461696,11.4264316 54.0932755,10.0662356 52.8554318,9.57115911 C52.554716,9.45767443 52.2374402,9.39421928 51.9162084,9.38331444 C50.9273448,9.36381479 50.0196139,9.92807994 49.5994574,10.8234569 C49.5324195,10.9158275 49.4893868,11.0234094 49.4742276,11.1365314 L49.3489978,11.386991 C49.2751071,11.6851739 49.0271409,11.9083435 48.7228489,11.950525 L48.3471596,11.8252952 C48.0651928,11.5956614 47.9037347,11.2496798 47.9088553,10.8860718 C48.3151193,9.31112119 49.6200688,8.12928015 51.2274446,7.88055703 L51.7909786,7.88055703 C53.7517893,7.82938309 55.4784386,9.16361205 55.9235615,11.0739165 Z M43.4005831,5.00027201 C45.2880005,5.13404346 46.728869,6.74116599 46.6565575,8.63193573 C46.5919386,10.4718927 45.1153103,11.948521 43.2753533,12.0131399 L39.2680003,12.0757548 L35.0101876,12.0757548 C34.7245955,12.1266749 34.4305927,12.0588281 34.196194,11.8879101 C34.058833,11.7338406 33.9909022,11.5300482 34.0083494,11.3243761 C34.0083494,10.5582644 34.6184654,10.5131991 35.0556608,10.5105482 L43.1501236,10.5103825 C44.2221423,10.6487075 45.2033198,9.89179914 45.3416448,8.8197804 C45.4799698,7.74776165 44.7230614,6.76658419 43.6510427,6.62825919 L43.2127384,6.62825919 C42.5906553,6.63306581 42.0085679,6.93575126 41.6473662,7.44225279 L41.5221364,7.63009746 L41.3969066,7.81794213 C41.2474071,8.02250124 41.0216037,8.1579833 40.7707577,8.1936315 C40.6217264,8.19900594 40.4801875,8.12823653 40.3950683,8.0057868 C40.1443373,7.73741244 40.0496693,7.35874054 40.1446087,7.00394855 C40.6945547,5.77089675 41.9253289,4.98320127 43.2753533,5.00027201 L43.4005831,5.00027201 Z" id="形状结合" fill="#32DB9D" fill-rule="nonzero"></path>
                    </g>
                </g>
            </g>
        </g>
    </g>
</svg>