<?xml version="1.0" encoding="UTF-8"?>
<svg width="503px" height="200px" viewBox="0 0 503 200" version="1.1" xmlns="http://www.w3.org/2000/svg" xmlns:xlink="http://www.w3.org/1999/xlink">
    <title>编组 22</title>
    <defs>
        <linearGradient x1="50%" y1="0%" x2="50%" y2="99.2734342%" id="linearGradient-1">
            <stop stop-color="#FFFFFF" stop-opacity="0" offset="0%"></stop>
            <stop stop-color="#E0FFF1" stop-opacity="0.729940348" offset="64.1867637%"></stop>
            <stop stop-color="#70E8BD" offset="100%"></stop>
        </linearGradient>
    </defs>
    <g id="页面-1" stroke="none" stroke-width="1" fill="none" fill-rule="evenodd">
        <g id="空调管理-手动控制" transform="translate(-777.000000, -717.000000)">
            <g id="编组-22" transform="translate(777.000000, 717.000000)">
                <rect id="矩形" fill="#ECF3FD" x="0" y="0" width="503" height="199"></rect>
                <path d="M0,64 L503,64 L503,184 C503,192.836556 495.836556,200 487,200 L16,200 C7.163444,200 1.082166e-15,192.836556 0,184 L0,64 L0,64 Z" id="矩形" fill="url(#linearGradient-1)"></path>
                <path d="M316.788176,118.212822 C318.719467,118.212822 319.969126,119.23527 320.309942,120.882548 C320.598944,122.384904 319.757461,123.875531 318.321849,124.404314 L317.185795,124.517919 C316.036002,124.540448 314.966796,123.929473 314.402464,122.927444 C314.288859,122.700233 313.948043,122.132207 314.516069,121.791391 L314.913688,121.677785 C315.229338,121.724551 315.4924,121.943769 315.59532,122.245812 C315.89992,122.773394 316.46299,123.098243 317.07219,123.097852 L317.413006,123.097852 C318.132844,123.020317 318.725105,122.496394 318.889875,121.791391 C319.0287,121.29989 318.923046,120.771622 318.605862,120.371324 C318.326054,119.945027 317.864596,119.672348 317.356203,119.632889 L304.859614,119.632889 L304.518798,119.519283 C304.290049,119.407365 304.123353,119.198994 304.064377,118.951257 C304.108604,118.698412 304.251679,118.473579 304.461996,118.326427 C304.579573,118.248298 304.718509,118.208602 304.859614,118.212822 L316.788176,118.212822 Z M323.888511,111.510106 C324.274329,113.482222 323.01213,115.400764 321.048377,115.82711 C320.637437,115.911956 320.218221,115.950066 319.798718,115.940715 L304.802812,115.940715 L304.802812,115.997518 L304.518798,115.997518 C304.227457,115.96824 304.006107,115.722296 304.007574,115.429491 C303.961717,115.136741 304.127792,114.852042 304.405193,114.747859 L304.859614,114.634253 L319.969126,114.634253 C321.218785,114.634253 322.127628,114.066227 322.468444,112.986976 C322.82041,111.829899 322.228121,110.595963 321.10518,110.146842 C320.832378,110.043892 320.544553,109.986327 320.253139,109.976434 C319.356067,109.958744 318.532596,110.470632 318.15144,111.282896 C318.090625,111.366692 318.051587,111.464287 318.037835,111.566909 L317.92423,111.79412 C317.857198,112.064624 317.632249,112.267078 317.356203,112.305344 L317.015387,112.191738 C316.759594,111.98342 316.613123,111.669554 316.617768,111.339698 C316.986321,109.910942 318.170139,108.838805 319.62831,108.61317 L320.139534,108.61317 C321.918333,108.566746 323.484706,109.777125 323.888511,111.510106 Z M312.527976,106.000247 C314.240194,106.121601 315.547314,107.579543 315.481715,109.294802 C315.423094,110.963965 314.083534,112.303526 312.41437,112.362146 L308.778999,112.418949 L304.916417,112.418949 C304.657335,112.465143 304.390623,112.403594 304.177982,112.248541 C304.053372,112.108773 303.991747,111.923898 304.007574,111.737317 C304.007574,110.998882 304.632404,110.998882 305.030022,110.998882 L312.300765,110.998882 C313.273274,111.124367 314.163374,110.437719 314.288859,109.46521 C314.414344,108.492701 313.727695,107.602601 312.755186,107.477116 L312.357568,107.477116 C311.793229,107.481477 311.265174,107.756065 310.937501,108.215551 L310.823895,108.385959 L310.71029,108.556367 C310.574668,108.741938 310.369825,108.864844 310.142263,108.897183 C310.007066,108.902059 309.878665,108.837859 309.801447,108.726775 C309.57399,108.483313 309.48811,108.139791 309.574237,107.817932 C310.073134,106.699338 311.189662,105.984761 312.41437,106.000247 L312.527976,106.000247 Z" id="形状结合备份" fill="#C5EFE1" fill-rule="nonzero" opacity="0.800000012"></path>
                <path d="M193.0967,82.4624737 C195.225606,82.4624737 196.603134,83.5895418 196.978823,85.4053736 C197.297397,87.061455 196.369811,88.7046075 194.787302,89.2874969 L193.535004,89.4127267 C192.267561,89.4375609 191.08895,88.7640691 190.466875,87.6595097 C190.341645,87.4090502 189.965955,86.7829013 190.592104,86.4072119 L191.030409,86.2819821 C191.378357,86.3335332 191.668336,86.5751825 191.781787,86.908131 C192.117555,87.4896973 192.73824,87.847785 193.409774,87.8473544 L193.785464,87.8473544 C194.578958,87.7618858 195.231821,87.1843536 195.413451,86.4072119 C195.56648,85.8654197 195.450016,85.283098 195.100377,84.8418396 C194.791938,84.3719235 194.283262,84.0713422 193.722849,84.027846 L179.947573,84.027846 L179.571883,83.9026162 C179.319728,83.7792458 179.135974,83.5495541 179.070964,83.2764673 C179.119717,82.9977503 179.277432,82.7499123 179.509268,82.5877035 C179.638877,82.50158 179.792028,82.4578225 179.947573,82.4624737 L193.0967,82.4624737 Z M200.923561,75.0739165 C201.348857,77.2478248 199.957507,79.362678 197.792817,79.8326483 C197.339828,79.9261762 196.877717,79.9681863 196.415289,79.9578781 L179.884958,79.9578781 L179.884958,80.020493 L179.571883,80.020493 C179.250731,79.98822 179.006732,79.7171101 179.008349,79.394344 C178.9578,79.0716389 179.140868,78.7578085 179.446654,78.6429653 L179.947573,78.5177356 L196.603134,78.5177356 C197.980662,78.5177356 198.9825,77.8915866 199.358189,76.7019037 C199.74617,75.4264316 199.093276,74.0662356 197.855432,73.5711591 C197.554716,73.4576744 197.23744,73.3942193 196.916208,73.3833144 C195.927345,73.3638148 195.019614,73.9280799 194.599457,74.8234569 C194.53242,74.9158275 194.489387,75.0234094 194.474228,75.1365314 L194.348998,75.386991 C194.275107,75.6851739 194.027141,75.9083435 193.722849,75.950525 L193.34716,75.8252952 C193.065193,75.5956614 192.903735,75.2496798 192.908855,74.8860718 C193.315119,73.3111212 194.620069,72.1292801 196.227445,71.880557 L196.790979,71.880557 C198.751789,71.8293831 200.478439,73.163612 200.923561,75.0739165 Z M188.400583,69.000272 C190.288,69.1340435 191.728869,70.741166 191.656557,72.6319357 C191.591939,74.4718927 190.11531,75.948521 188.275353,76.0131399 L184.268,76.0757548 L180.010188,76.0757548 C179.724596,76.1266749 179.430593,76.0588281 179.196194,75.8879101 C179.058833,75.7338406 178.990902,75.5300482 179.008349,75.3243761 C179.008349,74.5582644 179.618465,74.5131991 180.055661,74.5105482 L188.150124,74.5103825 C189.222142,74.6487075 190.20332,73.8917991 190.341645,72.8197804 C190.47997,71.7477616 189.723061,70.7665842 188.651043,70.6282592 L188.212738,70.6282592 C187.590655,70.6330658 187.008568,70.9357513 186.647366,71.4422528 L186.522136,71.6300975 L186.396907,71.8179421 C186.247407,72.0225012 186.021604,72.1579833 185.770758,72.1936315 C185.621726,72.1990059 185.480188,72.1282365 185.395068,72.0057868 C185.144337,71.7374124 185.049669,71.3587405 185.144609,71.0039486 C185.694555,69.7708968 186.925329,68.9832013 188.275353,69.000272 L188.400583,69.000272 Z" id="形状结合" fill="#32DB9D" fill-rule="nonzero"></path>
            </g>
        </g>
    </g>
</svg>