<?xml version="1.0" encoding="UTF-8"?>
<svg width="213px" height="136px" viewBox="0 0 213 136" version="1.1" xmlns="http://www.w3.org/2000/svg" xmlns:xlink="http://www.w3.org/1999/xlink">
    <title>编组 24</title>
    <defs>
        <linearGradient x1="50%" y1="0%" x2="50%" y2="99.2734342%" id="linearGradient-1">
            <stop stop-color="#FFFFFF" stop-opacity="0" offset="0%"></stop>
            <stop stop-color="#FFE5BA" stop-opacity="0.729940348" offset="68.4286536%"></stop>
            <stop stop-color="#FFA75D" offset="100%"></stop>
        </linearGradient>
    </defs>
    <g id="页面-1" stroke="none" stroke-width="1" fill="none" fill-rule="evenodd">
        <g id="空调管理-手动控制" transform="translate(-535.000000, -526.000000)">
            <g id="编组-9备份-16" transform="translate(535.000000, 462.000000)">
                <g id="编组-10" transform="translate(0.000000, 64.000000)">
                    <g id="编组-24">
                        <path d="M0,0 L213,0 L213,120 C213,128.836556 205.836556,136 197,136 L16,136 C7.163444,136 1.082166e-15,128.836556 0,120 L0,0 L0,0 Z" id="矩形" fill="url(#linearGradient-1)"></path>
                        <path d="M46.0000195,22.7780063 C45.4460188,22.7780063 45.0000195,23.2220057 45.0000195,23.7680048 L45.0000195,26.0100015 C45.0000195,26.5590007 45.4480188,27 46.0000195,27 C46.5540171,27 47.0000195,26.5560007 47.0000195,26.0100015 L47.0000195,23.7680048 C47.0000195,23.2220057 46.5500172,22.7780063 46.0000195,22.7780063 Z M45.9490248,19.4510113 C43.4660218,19.4510113 41.4490248,17.4310143 41.4490248,14.9510181 C41.451778,12.4665577 43.4645592,10.452882 45.9490248,10.4490248 C48.4310143,10.4490248 50.4490113,12.4660218 50.4490113,14.9490248 C50.4468078,17.4337063 48.4337051,19.4477038 45.9490248,19.4510113 L45.9490248,19.4510113 Z M45.969018,8.47102776 C42.3810654,8.47598384 39.4735358,11.3830662 39.4680278,14.971018 C39.4718868,18.5596542 42.3803813,21.4677013 45.969018,21.4710083 C49.5576537,21.4665973 52.4652535,18.5576554 52.4680083,14.969018 C52.4647004,11.3810959 49.5569402,8.47333562 45.969018,8.47002776 L45.969018,8.47102776 Z M57.0090015,14.0000195 L54.7690048,14.0000195 C54.5048575,14.0008119 54.2518887,14.1067111 54.0659536,14.2943348 C53.8800186,14.4819584 53.7764107,14.7358743 53.7779882,15.0000195 C53.7779882,15.5540171 54.2220057,16.0000195 54.7680048,16.0000195 L57.0100015,16.0000195 C57.5580007,16.0000195 58,15.5520172 58,15.0000195 C58,14.4500188 57.5560007,14.0000195 57.0100015,14.0000195 L57.0090015,14.0000195 Z M38.2230296,15.0000195 C38.2230296,14.4460188 37.7790303,14.0000195 37.2330311,14.0000195 L34.9900345,14.0000195 C34.7260607,14.0010769 34.473349,14.107093 34.2876302,14.2946877 C34.1019114,14.4822825 33.9984404,14.7360469 34.0000178,15.0000195 C34.0000178,15.5540171 34.4440353,16.0000195 34.9900345,16.0000195 L37.2310311,16.0000195 C37.7780303,16.0000195 38.2220296,15.5540171 38.2220296,15.0000195 L38.2230296,15.0000195 Z M46.0000195,7.22202963 C46.5540171,7.22202963 47.0000195,6.7780303 47.0000195,6.23203111 L47.0000195,3.99003447 C46.998959,3.72606072 46.892943,3.47334896 46.7053482,3.28763017 C46.5177535,3.10191137 46.263989,2.99844042 46.0000195,3.00001777 C45.4460188,3.00001777 45.0000195,3.44403529 45.0000195,3.99003447 L45.0000195,6.23203111 C45.0000195,6.7780303 45.4460188,7.22202963 46.0000195,7.22202963 L46.0000195,7.22202963 Z M40.5000262,9.50002622 C40.6877571,9.31449486 40.7939901,9.06191646 40.7953155,8.7979789 C40.7966163,8.53404134 40.6929017,8.28041843 40.5070262,8.09302833 L38.9220286,6.5080307 C38.7346385,6.32215517 38.4810156,6.2184406 38.217078,6.21974141 C37.9531404,6.22106685 37.7005621,6.32729983 37.5150307,6.51503069 C37.3272998,6.70056205 37.2210668,6.95314045 37.2197414,7.21707801 C37.2184406,7.48101557 37.3221552,7.73463848 37.5080307,7.92202858 L39.0930283,9.50702621 C39.4839627,9.8924733 40.1129464,9.88934403 40.5000262,9.50002622 L40.5000262,9.50002622 Z M38.9220286,23.4920053 L40.5070262,21.9070076 C40.6929017,21.7196175 40.7966163,21.4659946 40.7953155,21.2020571 C40.7939901,20.9381195 40.6877571,20.6855411 40.5000262,20.5000097 C40.3144949,20.3122789 40.0619165,20.2060459 39.7979789,20.2047205 C39.5340413,20.2034197 39.2804184,20.3071342 39.0930283,20.4930097 L37.5080307,22.0780074 C37.3221552,22.2653975 37.2184406,22.5190204 37.2197414,22.7829579 C37.2210668,23.0468955 37.3272998,23.2994739 37.5150307,23.4850053 C37.9021105,23.8743231 38.5310942,23.8774524 38.9220286,23.4920053 Z M51.5000097,9.50002622 C51.6855411,9.68775707 51.9381195,9.79399006 52.2020571,9.7953155 C52.4659946,9.7966163 52.7196175,9.69290173 52.9070076,9.50702621 L54.4920053,7.92202858 C54.6778808,7.73463848 54.7815954,7.48101557 54.7802945,7.21707801 C54.7789691,6.95314045 54.6727361,6.70056205 54.4850053,6.51503069 C54.2994739,6.32729983 54.0468955,6.22106685 53.7829579,6.21974141 C53.5190204,6.2184406 53.2653975,6.32215517 53.0780074,6.5080307 L51.4930097,8.09302833 C51.3071342,8.28041843 51.2034197,8.53404134 51.2047205,8.7979789 C51.2060459,9.06191646 51.3122789,9.31449486 51.5000097,9.50002622 Z M51.5000097,20.5000097 C51.3122789,20.6855411 51.2060459,20.9381195 51.2047205,21.2020571 C51.2034197,21.4659946 51.3071342,21.7196175 51.4930097,21.9070076 L53.0780074,23.4920053 C53.2653975,23.6778808 53.5190204,23.7815954 53.7829579,23.7802945 C54.0468955,23.7789691 54.2994739,23.6727361 54.4850053,23.4850053 C54.6727361,23.2994739 54.7789691,23.0468955 54.7802945,22.7829579 C54.7815954,22.5190204 54.6778808,22.2653975 54.4920053,22.0780074 L52.9070076,20.4930097 C52.7196175,20.3071342 52.4659946,20.2034197 52.2020571,20.2047205 C51.9381195,20.2060459 51.6855411,20.3122789 51.5000097,20.5000097 Z" id="形状" fill="#F99E50" fill-rule="nonzero" opacity="0.900000036"></path>
                        <path d="M174.000015,59.4816719 C173.538349,59.4816719 173.166683,59.8516714 173.166683,60.3066707 L173.166683,62.1750012 C173.166683,62.6325006 173.540016,63 174.000015,63 C174.461681,63 174.833347,62.6300006 174.833347,62.1750012 L174.833347,60.3066707 C174.833347,59.8516714 174.458348,59.4816719 174.000015,59.4816719 Z M173.957515,56.7091761 C171.888351,56.7091761 170.207521,55.0258453 170.207521,52.9591817 C170.209815,50.8887981 171.887133,49.210735 173.957515,49.2075207 C176.025845,49.2075207 177.707509,50.8883515 177.707509,52.957515 C177.705673,55.0280886 176.028088,56.7064198 173.957515,56.7091761 L173.957515,56.7091761 Z M173.974182,47.5591898 C170.984221,47.5633199 168.56128,49.9858885 168.55669,52.9758484 C168.559906,55.9663785 170.983651,58.3897511 173.974182,58.3925069 C176.964711,58.3888311 179.387711,55.9647128 179.390007,52.9741817 C179.38725,49.9842466 176.964117,47.561113 173.974182,47.5583565 L173.974182,47.5591898 Z M183.174168,52.1666829 L181.307504,52.1666829 C181.087381,52.1673432 180.876574,52.2555926 180.721628,52.4119456 C180.566682,52.5682986 180.480342,52.7798952 180.481657,53.000015 C180.481657,53.461681 180.851671,53.8333471 181.306671,53.8333471 L183.175001,53.8333471 C183.631667,53.8333471 184,53.4600143 184,53.000015 C184,52.5416823 183.630001,52.1666829 183.175001,52.1666829 L183.174168,52.1666829 Z M167.519191,53.000015 C167.519191,52.538349 167.149192,52.1666829 166.694193,52.1666829 L164.825029,52.1666829 C164.605051,52.1675641 164.394457,52.2559108 164.239692,52.4122398 C164.084926,52.5685687 163.9987,52.7800391 164.000015,53.000015 C164.000015,53.461681 164.370029,53.8333471 164.825029,53.8333471 L166.692526,53.8333471 C167.148359,53.8333471 167.518358,53.461681 167.518358,53.000015 L167.519191,53.000015 Z M174.000015,46.518358 C174.461681,46.518358 174.833347,46.1483586 174.833347,45.6933593 L174.833347,43.8250287 C174.832466,43.6050506 174.744119,43.3944575 174.58779,43.2396918 C174.431461,43.0849261 174.219991,42.9987004 174.000015,43.0000148 C173.538349,43.0000148 173.166683,43.3700294 173.166683,43.8250287 L173.166683,45.6933593 C173.166683,46.1483586 173.538349,46.518358 174.000015,46.518358 L174.000015,46.518358 Z M169.416689,48.4166885 C169.573131,48.262079 169.661658,48.0515971 169.662763,47.8316491 C169.663847,47.6117011 169.577418,47.4003487 169.422522,47.2441903 L168.10169,45.9233589 C167.945532,45.7684626 167.73418,45.6820338 167.514232,45.6831178 C167.294284,45.6842224 167.083802,45.7727499 166.929192,45.9291922 C166.77275,46.0838017 166.684222,46.2942837 166.683118,46.5142317 C166.682034,46.7341796 166.768463,46.9455321 166.923359,47.1016905 L168.24419,48.4225218 C168.569969,48.7437278 169.094122,48.74112 169.416689,48.4166885 L169.416689,48.4166885 Z M168.10169,60.076671 L169.422522,58.7558397 C169.577418,58.5996813 169.663847,58.3883288 169.662763,58.1683809 C169.661658,57.9484329 169.573131,57.7379509 169.416689,57.5833414 C169.262079,57.4268991 169.051597,57.3383716 168.831649,57.337267 C168.611701,57.336183 168.400349,57.4226119 168.24419,57.5775081 L166.923359,58.8983395 C166.768463,59.0544979 166.682034,59.2658503 166.683118,59.4857983 C166.684222,59.7057463 166.77275,59.9162283 166.929192,60.0708377 C167.251759,60.3952692 167.775912,60.397877 168.10169,60.076671 Z M178.583341,48.4166885 C178.737951,48.5731309 178.948433,48.6616584 179.168381,48.6627629 C179.388329,48.6638469 179.599681,48.5774181 179.75584,48.4225218 L181.076671,47.1016905 C181.231567,46.9455321 181.317996,46.7341796 181.316912,46.5142317 C181.315808,46.2942837 181.22728,46.0838017 181.070838,45.9291922 C180.916228,45.7727499 180.705746,45.6842224 180.485798,45.6831178 C180.26585,45.6820338 180.054498,45.7684626 179.898339,45.9233589 L178.577508,47.2441903 C178.422612,47.4003487 178.336183,47.6117011 178.337267,47.8316491 C178.338372,48.0515971 178.426899,48.262079 178.583341,48.4166885 Z M178.583341,57.5833414 C178.426899,57.7379509 178.338372,57.9484329 178.337267,58.1683809 C178.336183,58.3883288 178.422612,58.5996813 178.577508,58.7558397 L179.898339,60.076671 C180.054498,60.2315673 180.26585,60.3179961 180.485798,60.3169121 C180.705746,60.3158076 180.916228,60.2272801 181.070838,60.0708377 C181.22728,59.9162283 181.315808,59.7057463 181.316912,59.4857983 C181.317996,59.2658503 181.231567,59.0544979 181.076671,58.8983395 L179.75584,57.5775081 C179.599681,57.4226119 179.388329,57.336183 179.168381,57.337267 C178.948433,57.3383716 178.737951,57.4268991 178.583341,57.5833414 Z" id="形状备份" fill="#FFB77A" fill-rule="nonzero" opacity="0.300000012"></path>
                    </g>
                </g>
            </g>
        </g>
    </g>
</svg>