<?xml version="1.0" encoding="UTF-8"?>
<svg width="503px" height="200px" viewBox="0 0 503 200" version="1.1" xmlns="http://www.w3.org/2000/svg" xmlns:xlink="http://www.w3.org/1999/xlink">
    <title>编组 24</title>
    <defs>
        <linearGradient x1="50%" y1="0%" x2="50%" y2="99.2734342%" id="linearGradient-1">
            <stop stop-color="#FFFFFF" stop-opacity="0" offset="0%"></stop>
            <stop stop-color="#FFE5BA" stop-opacity="0.729940348" offset="68.4286536%"></stop>
            <stop stop-color="#FFA75D" offset="100%"></stop>
        </linearGradient>
    </defs>
    <g id="页面-1" stroke="none" stroke-width="1" fill="none" fill-rule="evenodd">
        <g id="空调管理-手动控制" transform="translate(-1220.000000, -503.000000)">
            <g id="编组-24" transform="translate(1220.000000, 503.000000)">
                <rect id="矩形" fill="#ECF3FD" x="0" y="0" width="503" height="200"></rect>
                <path d="M0,64 L503,64 L503,184 C503,192.836556 495.836556,200 487,200 L16,200 C7.163444,200 1.082166e-15,192.836556 0,184 L0,64 L0,64 Z" id="矩形" fill="url(#linearGradient-1)"></path>
                <path d="M188.000019,87.7780063 C187.446019,87.7780063 187.000019,88.2220057 187.000019,88.7680048 L187.000019,91.0100015 C187.000019,91.5590007 187.448019,92 188.000019,92 C188.554017,92 189.000019,91.5560007 189.000019,91.0100015 L189.000019,88.7680048 C189.000019,88.2220057 188.550017,87.7780063 188.000019,87.7780063 Z M187.949025,84.4510113 C185.466022,84.4510113 183.449025,82.4310143 183.449025,79.9510181 C183.451778,77.4665577 185.464559,75.452882 187.949025,75.4490248 C190.431014,75.4490248 192.449011,77.4660218 192.449011,79.9490248 C192.446808,82.4337063 190.433705,84.4477038 187.949025,84.4510113 L187.949025,84.4510113 Z M187.969018,73.4710278 C184.381065,73.4759838 181.473536,76.3830662 181.468028,79.971018 C181.471887,83.5596542 184.380381,86.4677013 187.969018,86.4710083 C191.557654,86.4665973 194.465253,83.5576554 194.468008,79.969018 C194.4647,76.3810959 191.55694,73.4733356 187.969018,73.4700278 L187.969018,73.4710278 Z M199.009001,79.0000195 L196.769005,79.0000195 C196.504857,79.0008119 196.251889,79.1067111 196.065954,79.2943348 C195.880019,79.4819584 195.776411,79.7358743 195.777988,80.0000195 C195.777988,80.5540171 196.222006,81.0000195 196.768005,81.0000195 L199.010001,81.0000195 C199.558001,81.0000195 200,80.5520172 200,80.0000195 C200,79.4500188 199.556001,79.0000195 199.010001,79.0000195 L199.009001,79.0000195 Z M180.22303,80.0000195 C180.22303,79.4460188 179.77903,79.0000195 179.233031,79.0000195 L176.990034,79.0000195 C176.726061,79.0010769 176.473349,79.107093 176.28763,79.2946877 C176.101911,79.4822825 175.99844,79.7360469 176.000018,80.0000195 C176.000018,80.5540171 176.444035,81.0000195 176.990034,81.0000195 L179.231031,81.0000195 C179.77803,81.0000195 180.22203,80.5540171 180.22203,80.0000195 L180.22303,80.0000195 Z M188.000019,72.2220296 C188.554017,72.2220296 189.000019,71.7780303 189.000019,71.2320311 L189.000019,68.9900345 C188.998959,68.7260607 188.892943,68.473349 188.705348,68.2876302 C188.517753,68.1019114 188.263989,67.9984404 188.000019,68.0000178 C187.446019,68.0000178 187.000019,68.4440353 187.000019,68.9900345 L187.000019,71.2320311 C187.000019,71.7780303 187.446019,72.2220296 188.000019,72.2220296 L188.000019,72.2220296 Z M182.500026,74.5000262 C182.687757,74.3144949 182.79399,74.0619165 182.795315,73.7979789 C182.796616,73.5340413 182.692902,73.2804184 182.507026,73.0930283 L180.922029,71.5080307 C180.734638,71.3221552 180.481016,71.2184406 180.217078,71.2197414 C179.95314,71.2210668 179.700562,71.3272998 179.515031,71.5150307 C179.3273,71.7005621 179.221067,71.9531404 179.219741,72.217078 C179.218441,72.4810156 179.322155,72.7346385 179.508031,72.9220286 L181.093028,74.5070262 C181.483963,74.8924733 182.112946,74.889344 182.500026,74.5000262 L182.500026,74.5000262 Z M180.922029,88.4920053 L182.507026,86.9070076 C182.692902,86.7196175 182.796616,86.4659946 182.795315,86.2020571 C182.79399,85.9381195 182.687757,85.6855411 182.500026,85.5000097 C182.314495,85.3122789 182.061916,85.2060459 181.797979,85.2047205 C181.534041,85.2034197 181.280418,85.3071342 181.093028,85.4930097 L179.508031,87.0780074 C179.322155,87.2653975 179.218441,87.5190204 179.219741,87.7829579 C179.221067,88.0468955 179.3273,88.2994739 179.515031,88.4850053 C179.90211,88.8743231 180.531094,88.8774524 180.922029,88.4920053 Z M193.50001,74.5000262 C193.685541,74.6877571 193.938119,74.7939901 194.202057,74.7953155 C194.465995,74.7966163 194.719618,74.6929017 194.907008,74.5070262 L196.492005,72.9220286 C196.677881,72.7346385 196.781595,72.4810156 196.780295,72.217078 C196.778969,71.9531404 196.672736,71.7005621 196.485005,71.5150307 C196.299474,71.3272998 196.046896,71.2210668 195.782958,71.2197414 C195.51902,71.2184406 195.265397,71.3221552 195.078007,71.5080307 L193.49301,73.0930283 C193.307134,73.2804184 193.20342,73.5340413 193.20472,73.7979789 C193.206046,74.0619165 193.312279,74.3144949 193.50001,74.5000262 Z M193.50001,85.5000097 C193.312279,85.6855411 193.206046,85.9381195 193.20472,86.2020571 C193.20342,86.4659946 193.307134,86.7196175 193.49301,86.9070076 L195.078007,88.4920053 C195.265397,88.6778808 195.51902,88.7815954 195.782958,88.7802945 C196.046896,88.7789691 196.299474,88.6727361 196.485005,88.4850053 C196.672736,88.2994739 196.778969,88.0468955 196.780295,87.7829579 C196.781595,87.5190204 196.677881,87.2653975 196.492005,87.0780074 L194.907008,85.4930097 C194.719618,85.3071342 194.465995,85.2034197 194.202057,85.2047205 C193.938119,85.2060459 193.685541,85.3122789 193.50001,85.5000097 Z" id="形状" fill="#F99E50" fill-rule="nonzero" opacity="0.900000036"></path>
                <path d="M313.000015,124.481672 C312.538349,124.481672 312.166683,124.851671 312.166683,125.306671 L312.166683,127.175001 C312.166683,127.632501 312.540016,128 313.000015,128 C313.461681,128 313.833347,127.630001 313.833347,127.175001 L313.833347,125.306671 C313.833347,124.851671 313.458348,124.481672 313.000015,124.481672 Z M312.957515,121.709176 C310.888351,121.709176 309.207521,120.025845 309.207521,117.959182 C309.209815,115.888798 310.887133,114.210735 312.957515,114.207521 C315.025845,114.207521 316.707509,115.888351 316.707509,117.957515 C316.705673,120.028089 315.028088,121.70642 312.957515,121.709176 L312.957515,121.709176 Z M312.974182,112.55919 C309.984221,112.56332 307.56128,114.985889 307.55669,117.975848 C307.559906,120.966379 309.983651,123.389751 312.974182,123.392507 C315.964711,123.388831 318.387711,120.964713 318.390007,117.974182 C318.38725,114.984247 315.964117,112.561113 312.974182,112.558356 L312.974182,112.55919 Z M322.174168,117.166683 L320.307504,117.166683 C320.087381,117.167343 319.876574,117.255593 319.721628,117.411946 C319.566682,117.568299 319.480342,117.779895 319.481657,118.000015 C319.481657,118.461681 319.851671,118.833347 320.306671,118.833347 L322.175001,118.833347 C322.631667,118.833347 323,118.460014 323,118.000015 C323,117.541682 322.630001,117.166683 322.175001,117.166683 L322.174168,117.166683 Z M306.519191,118.000015 C306.519191,117.538349 306.149192,117.166683 305.694193,117.166683 L303.825029,117.166683 C303.605051,117.167564 303.394457,117.255911 303.239692,117.41224 C303.084926,117.568569 302.9987,117.780039 303.000015,118.000015 C303.000015,118.461681 303.370029,118.833347 303.825029,118.833347 L305.692526,118.833347 C306.148359,118.833347 306.518358,118.461681 306.518358,118.000015 L306.519191,118.000015 Z M313.000015,111.518358 C313.461681,111.518358 313.833347,111.148359 313.833347,110.693359 L313.833347,108.825029 C313.832466,108.605051 313.744119,108.394457 313.58779,108.239692 C313.431461,108.084926 313.219991,107.9987 313.000015,108.000015 C312.538349,108.000015 312.166683,108.370029 312.166683,108.825029 L312.166683,110.693359 C312.166683,111.148359 312.538349,111.518358 313.000015,111.518358 L313.000015,111.518358 Z M308.416689,113.416689 C308.573131,113.262079 308.661658,113.051597 308.662763,112.831649 C308.663847,112.611701 308.577418,112.400349 308.422522,112.24419 L307.10169,110.923359 C306.945532,110.768463 306.73418,110.682034 306.514232,110.683118 C306.294284,110.684222 306.083802,110.77275 305.929192,110.929192 C305.77275,111.083802 305.684222,111.294284 305.683118,111.514232 C305.682034,111.73418 305.768463,111.945532 305.923359,112.10169 L307.24419,113.422522 C307.569969,113.743728 308.094122,113.74112 308.416689,113.416689 L308.416689,113.416689 Z M307.10169,125.076671 L308.422522,123.75584 C308.577418,123.599681 308.663847,123.388329 308.662763,123.168381 C308.661658,122.948433 308.573131,122.737951 308.416689,122.583341 C308.262079,122.426899 308.051597,122.338372 307.831649,122.337267 C307.611701,122.336183 307.400349,122.422612 307.24419,122.577508 L305.923359,123.898339 C305.768463,124.054498 305.682034,124.26585 305.683118,124.485798 C305.684222,124.705746 305.77275,124.916228 305.929192,125.070838 C306.251759,125.395269 306.775912,125.397877 307.10169,125.076671 Z M317.583341,113.416689 C317.737951,113.573131 317.948433,113.661658 318.168381,113.662763 C318.388329,113.663847 318.599681,113.577418 318.75584,113.422522 L320.076671,112.10169 C320.231567,111.945532 320.317996,111.73418 320.316912,111.514232 C320.315808,111.294284 320.22728,111.083802 320.070838,110.929192 C319.916228,110.77275 319.705746,110.684222 319.485798,110.683118 C319.26585,110.682034 319.054498,110.768463 318.898339,110.923359 L317.577508,112.24419 C317.422612,112.400349 317.336183,112.611701 317.337267,112.831649 C317.338372,113.051597 317.426899,113.262079 317.583341,113.416689 Z M317.583341,122.583341 C317.426899,122.737951 317.338372,122.948433 317.337267,123.168381 C317.336183,123.388329 317.422612,123.599681 317.577508,123.75584 L318.898339,125.076671 C319.054498,125.231567 319.26585,125.317996 319.485798,125.316912 C319.705746,125.315808 319.916228,125.22728 320.070838,125.070838 C320.22728,124.916228 320.315808,124.705746 320.316912,124.485798 C320.317996,124.26585 320.231567,124.054498 320.076671,123.898339 L318.75584,122.577508 C318.599681,122.422612 318.388329,122.336183 318.168381,122.337267 C317.948433,122.338372 317.737951,122.426899 317.583341,122.583341 Z" id="形状备份" fill="#FFB77A" fill-rule="nonzero" opacity="0.300000012"></path>
            </g>
        </g>
    </g>
</svg>