<?xml version="1.0" encoding="UTF-8"?>
<svg width="20px" height="20px" viewBox="0 0 20 20" version="1.1" xmlns="http://www.w3.org/2000/svg" xmlns:xlink="http://www.w3.org/1999/xlink">
    <title>编组 4</title>
    <g id="页面-1" stroke="none" stroke-width="1" fill="none" fill-rule="evenodd">
        <g id="空调管理-手动控制" transform="translate(-716.000000, -257.000000)">
            <g id="编组-9备份-12" transform="translate(535.000000, 244.000000)">
                <g id="编组-4" transform="translate(181.000000, 13.000000)">
                    <rect id="矩形" x="0" y="0" width="20" height="20"></rect>
                    <path d="M6.58342459,13.3840013 C6.69202909,13.3339861 6.81609262,13.3293348 6.92813723,13.3710776 C6.96011325,13.3817363 7.7640817,13.6908378 8.07622854,14.5222143 C8.31224201,15.1617347 8.19423528,15.9070804 7.72220834,16.7597742 C6.78881315,18.3905511 7.83945374,19.0833649 7.96888048,19.1579756 C8.07222655,19.2186011 8.1471798,19.3178813 8.17717966,19.4338807 C8.20717951,19.5498802 8.18975665,19.6730508 8.12876057,19.7761786 C8.04422129,19.9140638 7.89459952,19.9986577 7.73286702,20.0000107 C7.65292697,19.998488 7.57603226,19.9764094 7.50751222,19.9360587 C7.48619488,19.9254 5.52347644,18.7742634 6.91747856,16.3128713 C7.25018141,15.7159856 7.35752947,15.2256867 7.21820539,14.8419745 C7.06746131,14.3943102 6.60685438,14.2131128 6.60685438,14.2131128 C6.3782258,14.123791 6.26363366,13.8674843 6.34952357,13.6375445 C6.39063813,13.5252678 6.47482008,13.4340165 6.58342459,13.3840013 Z M3.44278605,12.9205678 C3.57318669,12.8164726 3.75054195,12.7932351 3.9033582,12.8602227 C3.98938891,12.8914374 4.69742931,13.1685629 4.98673614,13.946646 C5.21209093,14.5541903 5.10474287,15.2576627 4.67611196,16.0464045 C3.82874749,17.5271986 4.78346002,18.1560603 4.89004675,18.2200124 C4.99365002,18.2803843 5.0689252,18.379552 5.09921637,18.4955729 C5.12950754,18.6115938 5.11231739,18.7349027 5.05144951,18.8382154 C4.96662462,18.9765585 4.81630892,19.061219 4.65403328,19.0620475 C4.57409324,19.0605248 4.49795986,19.0384462 4.42943982,18.9980955 C3.77469279,18.6250419 2.82074159,17.4426906 3.87138218,15.5987402 C4.17134768,15.0551479 4.2687984,14.596825 4.13937166,14.2557475 C3.98862758,13.8613766 3.59273402,13.7014965 3.59273402,13.7014965 C3.43305319,13.6531005 3.31335552,13.520182 3.28189232,13.3563217 C3.25042911,13.1924613 3.31238542,13.024663 3.44278605,12.9205678 Z M9.45042469,12.9216134 C9.58029422,12.8177447 9.75692274,12.7941257 9.90952024,12.8602227 C9.99631229,12.8914374 10.7043527,13.1685629 10.9936595,13.946646 C11.218253,14.5541903 11.1109049,15.2576627 10.6815127,16.0464045 C9.8341482,17.5271986 10.7888607,18.1560603 10.8969701,18.2200124 C11.0003162,18.2806379 11.0752695,18.3799181 11.1052693,18.4959176 C11.1352692,18.611917 11.1178463,18.7350876 11.0568502,18.8382154 C10.972168,18.9763293 10.8221995,19.0609564 10.6601953,19.0620475 C10.5810166,19.0605248 10.5033606,19.0392075 10.4348405,18.9980955 C9.78085484,18.6250419 8.8261423,17.4426906 9.87678289,15.5987402 C10.1775097,15.0551479 10.2741991,14.596825 10.146295,14.2557475 C9.99478962,13.8613766 9.59813473,13.7014965 9.59813473,13.7014965 C9.43927703,13.6523128 9.32059115,13.5193874 9.28964457,13.3559949 C9.25869798,13.1926024 9.32055516,13.0254821 9.45042469,12.9216134 Z M15.6583515,12.88154 C15.7951151,12.8793872 15.9269309,12.9326628 16.0237917,13.0292388 C16.1359574,13.1392695 16.1895064,13.2958485 16.16821,13.4515224 C16.1469135,13.6071964 16.0532786,13.7436403 15.9156823,13.8195032 C15.9156823,13.8301619 15.9050236,13.8301619 15.9050236,13.8408206 L15.9050236,13.8408206 L15.9050236,14.7247291 L16.6556987,14.2877235 C16.6524916,14.1080758 16.7469099,13.9408039 16.9023708,13.8507179 C17.0183086,13.7794296 17.1582899,13.7584629 17.2900265,13.7926541 C17.4217632,13.8268453 17.5338793,13.9132418 17.6005139,14.0319153 C17.6719118,14.1471055 17.6927799,14.2865942 17.6582193,14.4176362 C17.6236588,14.5486781 17.5367134,14.6597326 17.4177938,14.7254904 C17.256391,14.8214185 17.0637736,14.8001011 16.9137908,14.7468078 L16.9137908,14.7468078 L16.1197197,15.194472 L16.9145522,15.6421363 C17.0637736,15.5675255 17.2571524,15.5462082 17.4170325,15.6421363 C17.6564764,15.7847577 17.7377163,16.0927924 17.5997526,16.33495 C17.4604285,16.5694408 17.149043,16.6547102 16.9023708,16.5161474 C16.7417294,16.4202194 16.6556987,16.2496806 16.6556987,16.0791418 L16.6556987,16.0791418 L15.9050236,15.6421363 L15.9050236,16.5268061 C16.0694559,16.6104551 16.1730141,16.7793255 16.1730131,16.9638117 C16.1730131,17.2515958 15.9476583,17.475428 15.6583515,17.475428 C15.3690446,17.475428 15.1436899,17.2515958 15.1436899,16.9638117 C15.1424553,16.7589307 15.2651882,16.5736281 15.454314,16.4948301 L15.454314,16.4948301 L15.454314,15.5675255 L14.5749735,16.0684832 C14.5781806,16.2481308 14.4837623,16.4154028 14.3283014,16.5054887 C14.2124264,16.5765267 14.0726322,16.5973514 13.9410832,16.5631717 C13.8095342,16.5289919 13.6975584,16.4427509 13.6309197,16.3242913 C13.5595218,16.2091012 13.5386537,16.0696124 13.5732142,15.9385705 C13.6077747,15.8075285 13.6947202,15.6964741 13.8136398,15.6314776 C13.9694515,15.5409723 14.1618309,15.5409723 14.3176427,15.6314776 L14.3176427,15.6314776 L15.1117138,15.1838133 L14.3176427,14.7361491 C14.16766,14.8107598 13.9742812,14.8320771 13.8136398,14.7361491 C13.5741958,14.5935276 13.4929559,14.2854929 13.6309197,14.0433354 C13.7765753,13.8048837 14.0849929,13.724749 14.3283014,13.8621379 C14.4817843,13.9541651 14.5754965,14.1201862 14.5749735,14.2991435 L14.5749735,14.2991435 L15.454314,14.8001011 L15.454314,13.8621379 C15.2731166,13.7875272 15.1436899,13.6063298 15.1436899,13.3931563 C15.1422324,13.2564953 15.1960872,13.1250498 15.293013,13.0286976 C15.3899387,12.9323453 15.5217015,12.8792716 15.6583515,12.88154 Z M17.4898826,0.3 C18.873226,0.3 19.9893413,1.40850234 20,2.77205111 L20,9.30098735 C20,10.6744335 18.873226,11.7829354 17.5005413,11.7829354 L2.49945874,11.7829354 C1.11535396,11.7829354 0,10.6637748 0,9.30098735 L0,2.77205111 C0,1.40850234 1.12601263,0.3 2.49945874,0.3 L17.4898826,0.3 Z M16.8145795,8.17040672 L2.72329087,8.17040672 C2.47632029,8.17164741 2.27618324,8.37110604 2.27410395,8.61807097 C2.27410395,8.86322044 2.47738006,9.06573522 2.72329087,9.06573522 L16.8145795,9.06573522 C17.0618472,9.06491004 17.2624443,8.8653312 17.2645278,8.61807097 C17.2624443,8.37081074 17.0618472,8.1712319 16.8145795,8.17040672 Z M16.8145795,6.36985237 L2.72329087,6.36985237 C2.47632029,6.37109306 2.27618324,6.57055169 2.27410395,6.81751662 C2.27410395,7.0626661 2.47738006,7.26518088 2.72329087,7.26518088 L16.8145795,7.26518088 C17.0618472,7.26435569 17.2624443,7.06477686 17.2645278,6.81751662 C17.2624443,6.57025639 17.0618472,6.37067755 16.8145795,6.36985237 Z" id="形状结合" fill="#000000" opacity="0.400000006"></path>
                </g>
            </g>
        </g>
    </g>
</svg>