<?xml version="1.0" encoding="UTF-8"?>
<svg width="20px" height="20px" viewBox="0 0 20 20" version="1.1" xmlns="http://www.w3.org/2000/svg" xmlns:xlink="http://www.w3.org/1999/xlink">
    <title>空调 (9)</title>
    <g id="页面-1" stroke="none" stroke-width="1" fill="none" fill-rule="evenodd">
        <g id="空调管理-手动控制" transform="translate(-1170.000000, -257.000000)">
            <g id="编组-9备份-21" transform="translate(989.000000, 244.000000)">
                <g id="空调-(9)" transform="translate(181.000000, 13.000000)">
                    <path d="M0,2 L0,14 C1.3527075e-16,15.1045695 0.8954305,16 2,16 L18,16 C19.1045695,16 20,15.1045695 20,14 L20,2 C20,0.8954305 19.1045695,-2.02906125e-16 18,0 L2,0 C0.8954305,2.02906125e-16 -1.3527075e-16,0.8954305 0,2 Z M5.46,12.4871006 L1.46,12.4871006 L1.46,11.5871006 L5.46,11.5871006 L5.46,12.4871006 Z M5.46,10.5975413 L1.46,10.5975413 L1.46,9.69754127 L5.46,9.69754127 L5.46,10.5975413 Z M5.46,8.70798194 L1.46,8.70798194 L1.46,7.80798194 L5.46,7.80798194 L5.46,8.70798194 Z M5.46,6.81842261 L1.46,6.81842261 L1.46,5.91842261 L5.46,5.91842261 L5.46,6.81842261 Z M5.46,4.92966504 L1.46,4.92966504 L1.46,4.02966504 L5.46,4.02966504 L5.46,4.92966504 Z M11.9737855,2.605 C14.8456435,2.605 17.1737855,4.93314196 17.1737855,7.805 C17.1737855,10.676858 14.8458977,13.005 11.9737855,13.005 C9.10141906,13.005 6.77378548,10.676858 6.77378548,7.805 C6.77378548,4.93314197 9.10192744,2.605 11.9737855,2.605 Z M13.310854,8.03300208 C13.2766253,8.33021402 13.1443005,8.60753611 12.9348026,8.82111794 C12.8900915,8.86687553 12.8422166,8.90943097 12.7915326,8.94846913 C13.0858437,9.24176538 13.4581416,9.78275656 13.7151608,10.1856483 L13.7151608,10.1856483 L13.9979762,10.6398193 C14.018201,10.6681014 14.0381649,10.6923712 14.0493864,10.6964162 C14.4302357,11.1262703 15.0751953,11.1967645 15.5399093,10.8593305 C16.0046234,10.5218965 16.1372418,9.88679451 15.845873,9.3921105 L15.845873,9.3921105 L15.7936507,9.31078792 C15.7565391,9.25815519 15.7149078,9.20878269 15.6691994,9.16324374 L15.6691994,9.16324374 L15.5261368,9.00618302 C14.7958803,8.25895642 13.8549671,8.07361482 13.310854,8.03300208 Z M10.6283894,8.05283546 L10.4422161,8.09590264 C10.0438173,8.17541873 9.50420074,8.2161315 9.09507983,8.23435613 L9.09507983,8.23435613 L8.56079217,8.25211525 C8.52618162,8.25560566 8.49512672,8.26095545 8.48586244,8.26839297 C8.08891765,8.35194489 7.76860321,8.64436964 7.64933648,9.03208286 C7.53006975,9.41979608 7.63064726,9.84169387 7.91200244,10.1339016 C8.19335761,10.4261093 8.61114866,10.5425748 9.00309611,10.4380603 C10.1372523,10.2313756 10.8332473,9.44169395 11.161281,8.96073451 C11.1127925,8.92460088 11.066761,8.88528229 11.0234912,8.84303906 C10.8065889,8.63162713 10.6673775,8.35320444 10.6283894,8.05283546 L10.6283894,8.05283546 Z M11.9687083,6.85865724 C11.4066119,6.85865724 10.9509428,7.31432638 10.9509428,7.87642277 C10.9509428,8.43851915 11.4066119,8.8941883 11.9687083,8.8941883 C12.5308047,8.8941883 12.9864738,8.43851915 12.9864738,7.87642277 C12.9864738,7.31432638 12.5308047,6.85865724 11.9687083,6.85865724 Z M13.1262205,3.56071223 C12.8503868,3.26425368 12.4355718,3.14053335 12.0424091,3.23746097 C11.6492464,3.33438859 11.3394731,3.63674393 11.2330465,4.0274423 C10.8449907,5.11279791 11.1808534,6.10994716 11.433207,6.63448785 C11.48881,6.61097864 11.5459132,6.59118869 11.6041395,6.57524868 C11.8955695,6.49289698 12.2062613,6.51128654 12.4859419,6.62744178 C12.6232098,6.11125197 13.0509323,5.278511 13.2633582,4.89567459 L13.2633582,4.89567459 L13.3242651,4.78487434 C13.3471282,4.73984555 13.3735509,4.68259624 13.3706151,4.66498107 C13.495593,4.27981569 13.4020541,3.85717079 13.1262205,3.56071223 Z" id="形状结合" fill="#000000" opacity="0.400000006"></path>
                    <rect id="矩形" x="0" y="0" width="20" height="20"></rect>
                </g>
            </g>
        </g>
    </g>
</svg>