<svg t="1723595783673" class="icon" viewBox="0 0 1024 1024" version="1.1" xmlns="http://www.w3.org/2000/svg" p-id="4513" width="32" height="32"><path d="M545.856 769.92a47.872 47.872 0 0 1-67.84 0 49.472 49.472 0 0 1-10.176-15.36 45.888 45.888 0 0 1-3.84-18.56 48.192 48.192 0 0 1 3.84-18.56 47.68 47.68 0 0 1 78.016-15.36 48.896 48.896 0 0 1 14.144 33.92 47.744 47.744 0 0 1-14.144 33.92m14.144-177.92a48 48 0 0 1-96 0v-192a48 48 0 0 1 96 0z m-75.904-480L69.184 848.96a32 32 0 0 0 27.904 47.744h829.76a32 32 0 0 0 27.904-47.744L539.84 112.32a32 32 0 0 0-55.744 0" fill="#d81e06" p-id="4514"></path></svg>