<?xml version="1.0" encoding="UTF-8"?>
<svg width="54px" height="54px" viewBox="0 0 54 54" version="1.1" xmlns="http://www.w3.org/2000/svg" xmlns:xlink="http://www.w3.org/1999/xlink">
    <title>编组 5</title>
    <defs>
        <linearGradient x1="3.45787667%" y1="95.3392565%" x2="100%" y2="0%" id="linearGradient-1">
            <stop stop-color="#1355FD" offset="0%"></stop>
            <stop stop-color="#03A0FF" offset="100%"></stop>
        </linearGradient>
    </defs>
    <g id="页面-1" stroke="none" stroke-width="1" fill="none" fill-rule="evenodd">
        <g id="园区概述-能源管理" transform="translate(-1613.000000, -286.000000)">
            <g id="编组" transform="translate(1592.000000, 119.000000)">
                <g id="编组-6备份-3" transform="translate(7.000000, 149.000000)">
                    <g id="编组-5" transform="translate(14.000000, 18.000000)">
                        <g id="编组-2">
                            <circle id="椭圆形备份-2" fill-opacity="0.9" fill="url(#linearGradient-1)" cx="27" cy="27" r="27"></circle>
                            <path d="M40.79,32.756 L40.79,42.948 C40.79,43.806 40.348,44.235 39.464,44.235 L39.464,44.235 L37.8,44.235 L37.436,42.909 C38.008,42.948 38.541,42.974 39.022,42.974 C39.282,42.974 39.412,42.792 39.412,42.454 L39.412,42.454 L39.412,40.322 L34.199,40.322 C34.017,41.96 33.523,43.338 32.717,44.443 L32.717,44.443 L31.677,43.494 C32.483,42.363 32.886,40.907 32.912,39.139 L32.912,39.139 L32.912,32.756 L40.79,32.756 Z M33.1764217,12 C33.6663901,12 33.9930358,12.1656837 34.1563586,12.497051 C34.3196814,12.8284184 34.4830043,13.3254694 34.3196814,13.6568367 L30.3999335,22.7694387 L37.7494609,22.7694387 C38.2394294,22.7694387 38.7293979,23.100806 38.8927207,23.4321733 C39.0560435,23.9292243 39.0560435,24.4262754 38.7293979,24.7576427 L20.7638866,43.9769486 C20.4372409,44.4739996 19.7839496,44.4739996 19.2939811,44.3083159 C18.8040126,44.1426323 18.477367,43.6455813 18.6406898,42.9828466 L21.9071464,31.0536222 L15.2109103,31.0536222 C14.7209418,31.0536222 14.3942962,30.8879386 14.2309734,30.5565712 C14.0676505,30.2252039 13.9043277,29.7281529 14.0676505,29.3967855 L20.7638866,12.8284184 C20.9272094,12.3313674 21.4171779,12 21.9071464,12 L33.1764217,12 Z M39.412,37.137 L34.277,37.137 L34.277,39.061 L39.412,39.061 L39.412,37.137 Z M39.412,34.056 L34.277,34.056 L34.277,35.876 L39.412,35.876 L39.412,34.056 Z" id="形状结合" fill="#FFFFFF" fill-rule="nonzero"></path>
                        </g>
                    </g>
                </g>
            </g>
        </g>
    </g>
</svg>