<?xml version="1.0" encoding="UTF-8"?>
<svg width="18px" height="18px" viewBox="0 0 18 18" version="1.1" xmlns="http://www.w3.org/2000/svg" xmlns:xlink="http://www.w3.org/1999/xlink">
    <title>streetLightAutoControl</title>
    <g id="页面-1" stroke="none" stroke-width="1" fill="none" fill-rule="evenodd">
        <g id="画板" transform="translate(-3595.000000, -231.000000)">
            <g id="streetLightAutoControl" transform="translate(3595.000000, 231.000000)">
                <path d="M8.99037433,7.10542736e-15 C13.9552941,7.10542736e-15 17.9807487,4.02545455 17.9807487,8.99037433 C17.9807487,13.9552941 13.9552941,17.9807487 8.99037433,17.9807487 C4.02545455,17.9807487 -1.79767312e-12,13.9552941 -1.79767312e-12,8.99037433 C-1.79767312e-12,4.02545455 4.02545455,7.10542736e-15 8.99037433,7.10542736e-15 Z M8.99037433,1.26481283 C4.94951872,1.26481283 1.62481283,4.38352941 1.29368984,8.34160428 L1.29368984,8.34160428 L2.14652406,8.34160428 C2.49497326,8.34160428 2.77796791,8.62459893 2.77796791,8.97304813 C2.77796791,9.32149733 2.4968984,9.60449198 2.14652406,9.60449198 L2.14652406,9.60449198 L1.29176471,9.60449198 C1.58823529,13.3604278 4.58181818,16.3694118 8.33582888,16.6870588 L8.33582888,16.6870588 L8.33582888,15.8438503 C8.33582888,15.4954011 8.6168984,15.2124064 8.96727273,15.2124064 C9.31572193,15.2124064 9.59871658,15.4934759 9.59871658,15.8438503 L9.59871658,15.8438503 L9.59871658,16.688984 C13.3719786,16.3925134 16.3905882,13.3758289 16.688984,9.60256684 L16.688984,9.60256684 L15.8149733,9.60256684 C15.4665241,9.60256684 15.1835294,9.31957219 15.1835294,8.97112299 C15.1835294,8.6226738 15.4645989,8.33967914 15.8149733,8.33967914 L15.8149733,8.33967914 L16.6870588,8.33967914 C16.3520856,4.38352941 13.0312299,1.26481283 8.99037433,1.26481283 Z M8.96727273,2.35058824 C9.31572193,2.35058824 9.59871658,2.63165775 9.59871658,2.98203209 L9.59871658,2.98203209 L9.59871658,8.33967914 L12.5826738,8.33967914 C12.9330481,8.33967914 13.2179679,8.62459893 13.2179679,8.97304813 C13.2179679,9.32149733 12.9368984,9.60449198 12.5865241,9.60449198 L12.5865241,9.60449198 L8.97304813,9.60449198 C8.62459893,9.60449198 8.34160428,9.32342246 8.34160428,8.97304813 L8.34160428,8.97304813 L8.34160428,8.96149733 C8.33775401,8.94609626 8.33582888,8.92877005 8.33582888,8.91336898 L8.33582888,8.91336898 L8.33582888,2.98203209 C8.33582888,2.63358289 8.6168984,2.35058824 8.96727273,2.35058824 Z" id="形状结合" fill="#FFFFFF" fill-rule="nonzero"></path>
                <rect id="矩形" x="0" y="0" width="18" height="18"></rect>
            </g>
        </g>
    </g>
</svg>