<?xml version="1.0" encoding="UTF-8"?>
<svg width="18px" height="18px" viewBox="0 0 18 18" version="1.1" xmlns="http://www.w3.org/2000/svg" xmlns:xlink="http://www.w3.org/1999/xlink">
    <title>数据报表 (1)</title>
    <g id="页面-1" stroke="none" stroke-width="1" fill="none" fill-rule="evenodd">
        <g id="画板" transform="translate(-3607.000000, -375.000000)">
            <g id="数据报表-(1)" transform="translate(3607.000000, 375.000000)">
                <path d="M2.18747637,10.1601045 C1.88858227,10.1601045 1.64062147,10.3781759 1.59401825,10.6638944 L1.58614788,10.761433 L1.585946,16.098929 L1.59268389,16.1933603 C1.63607992,16.4860652 1.88850475,16.7056531 2.18747638,16.7056531 C2.48633813,16.7056531 2.73428364,16.4876272 2.78092118,16.2019523 L2.78880488,16.1044281 L2.78900595,10.7669212 L2.78228115,10.672479 C2.73892106,10.3797378 2.48647979,10.1601045 2.18747637,10.1601045 Z M6.69633306,8.15366324 C6.53685083,8.15366324 6.38390057,8.21701731 6.2711296,8.32978828 C6.18091282,8.42000506 6.12232286,8.53593658 6.10249555,8.66035542 L6.09500456,8.75499175 L6.09480268,16.098929 L6.10154056,16.1933603 C6.1449366,16.4860652 6.39736143,16.7056531 6.69633306,16.7056531 C6.99519481,16.7056531 7.24314031,16.4876272 7.28977786,16.2019523 L7.29766155,16.1044281 L7.29786263,8.76047999 L7.29113783,8.6660378 C7.24777774,8.37329654 6.99533648,8.15366324 6.69633306,8.15366324 Z M15.7140464,6.48538627 C15.4151523,6.48538627 15.1671915,6.70345766 15.1205883,6.98917616 L15.1127179,7.08671477 L15.112516,16.098929 L15.1192539,16.1933603 C15.16265,16.4860652 15.4150748,16.7056531 15.7140464,16.7056531 C16.0129082,16.7056531 16.2608537,16.4876272 16.3074912,16.2019523 L16.3153749,16.1044281 L16.315576,7.09220301 L16.3088512,6.99776082 C16.2654911,6.70501957 16.0130498,6.48538627 15.7140464,6.48538627 Z M11.2051897,9.15913828 C10.9062956,9.15913828 10.6583348,9.37720967 10.6117316,9.66292818 L10.6038612,9.76046679 L10.6036594,16.098929 L10.6103973,16.1933603 C10.6537933,16.4860652 10.9062181,16.7056531 11.2051897,16.7056531 C11.5040515,16.7056531 11.751997,16.4876272 11.7986345,16.2019523 L11.8065182,16.1044281 L11.8067193,9.76595503 L11.7999945,9.67151284 C11.7566344,9.37877157 11.5041932,9.15913828 11.2051897,9.15913828 Z M12.3514187,1.3 L12.2569765,1.3067248 C11.9642353,1.35008489 11.744602,1.60252616 11.744602,1.90152958 C11.744602,2.20042369 11.9626734,2.4483845 12.2483919,2.49498772 L12.3459305,2.50285809 L13.9105038,2.50285809 L13.9597092,2.63446043 L9.89347599,6.08371105 L7.4233673,3.93398569 L7.35820811,3.86862751 C7.2924635,3.81195928 7.21526502,3.77060313 7.13627328,3.74745136 L7.05704159,3.73047483 L6.88270667,3.72895195 L6.79225058,3.7472579 C6.70872039,3.77084493 6.6316457,3.81243135 6.5631659,3.87195326 L6.49763029,3.93745131 L1.79012522,8.04101282 L1.72063261,8.11151697 C1.58105849,8.27777906 1.54160476,8.5074716 1.61926931,8.71172936 C1.70870706,8.94695066 1.93515523,9.10160222 2.1889328,9.09932956 C2.3065692,9.10161438 2.42142243,9.06828075 2.51921699,9.00442947 L2.58914135,8.95089866 L7.01610273,5.1860186 L9.5503028,7.3918962 L9.62483169,7.44794634 C9.72340264,7.51114764 9.83833688,7.54452049 9.95693154,7.54376308 C10.0750449,7.54485781 10.1900272,7.51036009 10.2877885,7.44539812 L10.3576605,7.39104472 L14.9882563,3.32856484 L15.1127179,3.38494343 L15.112516,4.82678728 L15.1192539,4.9212186 C15.16265,5.21392354 15.4150748,5.43351139 15.7140464,5.43351139 C16.0129251,5.43351139 16.2608982,5.21547224 16.3075041,4.92980665 L16.3153749,4.83228643 L16.315576,1.90701783 L16.3088512,1.81257563 C16.2703089,1.55236118 16.0665667,1.34991104 15.8117668,1.30813465 L15.7140464,1.30020107 L12.3514187,1.3 Z" id="形状结合" fill="#FFFFFF" fill-rule="nonzero"></path>
                <rect id="矩形" x="0" y="0" width="18" height="18"></rect>
            </g>
        </g>
    </g>
</svg>