<?xml version="1.0" encoding="UTF-8"?>
<svg width="18px" height="18px" viewBox="0 0 18 18" version="1.1" xmlns="http://www.w3.org/2000/svg" xmlns:xlink="http://www.w3.org/1999/xlink">
    <title>streetLightAutoControl</title>
    <g id="页面-1" stroke="none" stroke-width="1" fill="none" fill-rule="evenodd">
        <g id="画板" transform="translate(-3594.000000, -272.000000)">
            <g id="streetLightAutoControl" transform="translate(3594.000000, 272.000000)">
                <path d="M12.6594311,1.00623752 C13.0107285,1.00623752 13.2981537,1.29366267 13.2981537,1.64496009 L13.2977445,2.60223752 L16.0127246,2.60304392 C16.5094454,2.60304392 16.9097876,2.97479022 16.964445,3.44979939 L16.9708084,3.56112775 L16.9708084,16.0162176 C16.9708084,16.5431637 16.5396707,16.9743014 16.0127246,16.9743014 L16.0127246,16.9743014 L1.96082835,16.9743014 C1.43388224,16.9743014 1.00274452,16.5431637 1.00274452,16.0162176 L1.00274452,16.0162176 L1.00274452,3.56112775 C1.00274452,3.03418164 1.43388224,2.60304392 1.96082835,2.60304392 L1.96082835,2.60304392 L4.67474452,2.60223752 L4.6753992,1.64496009 C4.6753992,1.29366269 4.96282435,1.00623752 5.31412176,1.00623752 C5.66541918,1.00623752 5.95284431,1.29366267 5.95284431,1.64496009 L5.95274452,2.60223752 L12.0197445,2.60223752 L12.0207086,1.64496009 C12.0207086,1.29366269 12.3081337,1.00623752 12.6594311,1.00623752 Z M15.6933633,3.88048902 L13.2977445,3.88023752 L13.2981537,4.51921158 C13.2981537,4.87050898 13.0187126,5.15793413 12.6594311,5.15793413 C12.3081337,5.15793413 12.0207086,4.87050898 12.0207086,4.51921158 L12.0197445,3.88023752 L5.95274452,3.88023752 L5.95284431,4.51921158 C5.95284431,4.87050898 5.6734032,5.15793413 5.31412176,5.15793413 C4.96282436,5.15793413 4.6753992,4.87050898 4.6753992,4.51921158 L4.67474452,3.88023752 L2.28018961,3.88048902 L2.28018961,15.6968563 L15.6933633,15.6968563 L15.6933633,3.88048902 Z M13.1624251,11.2337824 C13.5057385,11.2337824 13.7771956,11.5132235 13.7771956,11.8485529 L13.7771956,11.8884731 C13.7771956,12.2238024 13.5057385,12.5032435 13.1624251,12.5032435 L5.45783434,12.5032435 C5.11452096,12.5032435 4.84306387,12.2238024 4.84306387,11.8884731 L4.84306387,11.8485529 C4.84306387,11.5052395 5.12250498,11.2337824 5.45783434,11.2337824 L13.1624251,11.2337824 Z M13.1384731,8.35154691 C13.4897705,8.35154691 13.7771956,8.63897206 13.7771956,8.99026946 C13.7771956,9.34156686 13.4977545,9.62899201 13.1384731,9.62899201 L8.98677644,9.62899201 C8.63547904,9.62899201 8.34805389,9.34156686 8.34805389,8.99026946 C8.34805389,8.63897206 8.63547904,8.35154691 8.98677644,8.35154691 L13.1384731,8.35154691 Z" id="形状结合" fill="#FFFFFF" fill-rule="nonzero"></path>
                <rect id="矩形" x="0" y="0" width="18" height="18"></rect>
            </g>
        </g>
    </g>
</svg>