<svg xmlns="http://www.w3.org/2000/svg" width="752" height="696" viewBox="0 0 752 696">
  <g id="组_11" data-name="组 11" transform="translate(799 -179)">
    <rect id="矩形_5" data-name="矩形 5" width="752" height="696" transform="translate(-799 179)" fill="none"/>
    <line id="直线_10" data-name="直线 10" y2="74" transform="translate(-423.5 266.5)" fill="none" stroke="#9a0000" stroke-width="2" stroke-dasharray="4 2"/>
    <line id="直线_8" data-name="直线 8" y2="86" transform="translate(-632.197 447.5)" fill="none" stroke="#9a0000" stroke-width="2" stroke-dasharray="4 2"/>
    <line id="直线_13" data-name="直线 13" y2="86" transform="translate(-229.197 447.5)" fill="none" stroke="#9a0000" stroke-width="2" stroke-dasharray="4 2"/>
    <line id="直线_14" data-name="直线 14" y2="163" transform="translate(-229.197 580.5)" fill="none" stroke="#9a0000" stroke-width="2" stroke-dasharray="4 2"/>
    <line id="直线_11" data-name="直线 11" y2="94" transform="translate(-632.197 580.5)" fill="none" stroke="#9a0000" stroke-width="2" stroke-dasharray="4 2"/>
    <line id="直线_12" data-name="直线 12" y2="57.685" transform="translate(-423.5 389.815)" fill="none" stroke="#9a0000" stroke-width="2" stroke-dasharray="4 2"/>
    <line id="直线_9" data-name="直线 9" x1="695" transform="translate(-771.5 446.5)" fill="none" stroke="#9a0000" stroke-width="2" stroke-dasharray="4 2"/>
    <path id="路径_21" data-name="路径 21" d="M125.744,52.364a2.225,2.225,0,0,1,2.225,2.225V97.007a2.225,2.225,0,0,1-2.225,2.225H86.588a2.225,2.225,0,0,1-2.225-2.225V54.588a2.225,2.225,0,0,1,2.225-2.225Zm0,1.187H86.588a1.038,1.038,0,0,0-1.038,1.038V97.007a1.039,1.039,0,0,0,1.038,1.038h39.156a1.038,1.038,0,0,0,1.038-1.038V54.588a1.038,1.038,0,0,0-1.038-1.038ZM110.914,74.166l-4.747,6.971,8.157,1.335L101.941,95.048l4.225-9.375-8.157-2.243,6.017-9.264h6.888ZM87.627,55.806l37.079.017V69.865H87.627Zm1.187,1.187V68.677h34.706V57.008l-34.706-.015Zm9.6,2.491v6.526H95.154V59.483Zm9.789,0v6.526h-3.263V59.483Zm9.789,0v6.526h-3.263V59.483Z" transform="translate(-738.364 481.005)" fill="#4a4a4a"/>
    <path id="路径_23" data-name="路径 23" d="M125.744,52.364a2.225,2.225,0,0,1,2.225,2.225V97.007a2.225,2.225,0,0,1-2.225,2.225H86.588a2.225,2.225,0,0,1-2.225-2.225V54.588a2.225,2.225,0,0,1,2.225-2.225Zm0,1.187H86.588a1.038,1.038,0,0,0-1.038,1.038V97.007a1.039,1.039,0,0,0,1.038,1.038h39.156a1.038,1.038,0,0,0,1.038-1.038V54.588a1.038,1.038,0,0,0-1.038-1.038ZM110.914,74.166l-4.747,6.971,8.157,1.335L101.941,95.048l4.225-9.375-8.157-2.243,6.017-9.264h6.888ZM87.627,55.806l37.079.017V69.865H87.627Zm1.187,1.187V68.677h34.706V57.008l-34.706-.015Zm9.6,2.491v6.526H95.154V59.483Zm9.789,0v6.526h-3.263V59.483Zm9.789,0v6.526h-3.263V59.483Z" transform="translate(-335.364 481.005)" fill="#4a4a4a"/>
    <path id="路径_22" data-name="路径 22" d="M125.744,52.364a2.225,2.225,0,0,1,2.225,2.225V97.007a2.225,2.225,0,0,1-2.225,2.225H86.588a2.225,2.225,0,0,1-2.225-2.225V54.588a2.225,2.225,0,0,1,2.225-2.225Zm0,1.187H86.588a1.038,1.038,0,0,0-1.038,1.038V97.007a1.039,1.039,0,0,0,1.038,1.038h39.156a1.038,1.038,0,0,0,1.038-1.038V54.588a1.038,1.038,0,0,0-1.038-1.038ZM110.914,74.166l-4.747,6.971,8.157,1.335L101.941,95.048l4.225-9.375-8.157-2.243,6.017-9.264h6.888ZM87.627,55.806l37.079.017V69.865H87.627Zm1.187,1.187V68.677h34.706V57.008l-34.706-.015Zm9.6,2.491v6.526H95.154V59.483Zm9.789,0v6.526h-3.263V59.483Zm9.789,0v6.526h-3.263V59.483Z" transform="translate(-530.364 288.576)" fill="#4a4a4a"/>
    <g id="组_9" data-name="组 9" transform="translate(-959.451 -23.781)">
      <g id="组_2" data-name="组 2" transform="translate(44.869 696.905)">
        <path id="路径_10" data-name="路径 10" d="M249.513,104.592H193.256a1.126,1.126,0,0,1-1.126-1.126V2.5a1.126,1.126,0,0,1,1.126-1.126h56.257A1.126,1.126,0,0,1,250.638,2.5V103.467a1.125,1.125,0,0,1-1.126,1.126Zm-55.131-2.251h54.006V3.628H194.382v98.713Z" fill="#6a6a6a"/>
        <path id="路径_11" data-name="路径 11" d="M256.48,178.2H200.3a.763.763,0,0,1-.779-.746V117.223a.763.763,0,0,1,.779-.746H256.48a.763.763,0,0,1,.779.746v60.235a.764.764,0,0,1-.779.747Zm-55.4-1.492H255.7V117.969H201.075Zm14.8,12.49h-6.547a1.02,1.02,0,0,1-1.019-1.019v-3.818h8.585v3.818a1.019,1.019,0,0,1-1.019,1.019Zm30.665,0h-6.548a1.02,1.02,0,0,1-1.019-1.019v-3.818h8.585v3.818a1.021,1.021,0,0,1-1.019,1.019ZM207.476,93.756h4.941V98.7h-4.941Zm19.555-.09h4.941v4.942h-4.941ZM218.939,96.229Zm-2.384,0a2.384,2.384,0,1,0,2.384-2.384,2.384,2.384,0,0,0-2.384,2.384M239.856,96.229Zm-2.384,0a2.384,2.384,0,1,0,2.384-2.384,2.384,2.384,0,0,0-2.384,2.384M218.939,109.913Zm-1.8,0a1.8,1.8,0,1,0,1.8-1.8,1.8,1.8,0,0,0-1.8,1.8M229.5,109.913Zm-1.8,0a1.8,1.8,0,1,0,1.8-1.8,1.8,1.8,0,0,0-1.8,1.8M239.856,109.913Zm-1.8,0a1.8,1.8,0,1,0,1.8-1.8,1.8,1.8,0,0,0-1.8,1.8M209.946,109.913Zm-1.8,0a1.8,1.8,0,1,0,1.8-1.8,1.8,1.8,0,0,0-1.8,1.8M204.4,92.787ZM249.527,105.5Zm-1.8,0a1.8,1.8,0,1,0,1.8-1.8,1.8,1.8,0,0,0-1.8,1.8" transform="translate(-6.62 -81.917)" fill="#6a6a6a"/>
        <path id="路径_12" data-name="路径 12" d="M331.3,155.118h2.539v12.006H331.3Zm-38.778,33.293H300.5v.732h-7.979Zm0,1.336H300.5v.732h-7.979Zm9.727-1.336h7.979v.732h-7.979Zm0,1.336h7.979v.732h-7.979Zm10.411-1.336h7.979v.732h-7.979Zm0,1.336h7.979v.732h-7.979Zm9.539-1.336h7.979v.732H322.2Zm0,1.232h7.979v.732H322.2Zm-29.677,1.522H300.5v.732h-7.979Zm9.727,0h7.979v.732h-7.979Zm10.411,0h7.979v.732h-7.979Zm9.539-.1h7.979v.732H322.2ZM302.281,105.36Zm-2.384,0a2.384,2.384,0,1,0,2.384-2.384,2.384,2.384,0,0,0-2.384,2.384" transform="translate(-89.962 -91.048)" fill="#6a6a6a"/>
        <path id="路径_13" data-name="路径 13" d="M672.756,617.666h1.126v9h-1.126Z" transform="translate(-430.709 -552.283)" fill="#6a6a6a"/>
        <path id="路径_14" data-name="路径 14" d="M248.95,35.142h1.126v4.69H248.95ZM199.519,13.475h55.49v3.564h-55.49Z" transform="translate(-6.621 -10.842)" fill="#6a6a6a"/>
        <path id="路径_15" data-name="路径 15" d="M235.123,15.168a1.18,1.18,0,1,0,1.18-1.18,1.18,1.18,0,0,0-1.18,1.18m5.55,0a1.18,1.18,0,1,0,1.18-1.18,1.18,1.18,0,0,0-1.18,1.18m41.388,0a1.18,1.18,0,1,0,1.18-1.18,1.18,1.18,0,0,0-1.18,1.18" transform="translate(-38.527 -11.301)" fill="#6a6a6a"/>
        <path id="路径_16" data-name="路径 16" d="M273.826,797.655h-2.548l.884-3.327-3.883,4.438h2.548l-.886,3.328Z" transform="translate(-68.24 -710.597)" fill="#6a6a6a"/>
        <path id="路径_17" data-name="路径 17" d="M249.166,792.162a5.185,5.185,0,1,1,5.185-5.185A5.191,5.191,0,0,1,249.166,792.162Zm0-9.884a4.7,4.7,0,1,0,4.7,4.7A4.7,4.7,0,0,0,249.166,782.277Z" transform="translate(-46.466 -699.363)" fill="#6a6a6a"/>
      </g>
      <g id="组_3" data-name="组 3" transform="translate(105.869 696.905)">
        <path id="路径_10-2" data-name="路径 10" d="M249.513,104.592H193.256a1.126,1.126,0,0,1-1.126-1.126V2.5a1.126,1.126,0,0,1,1.126-1.126h56.257A1.126,1.126,0,0,1,250.638,2.5V103.467a1.125,1.125,0,0,1-1.126,1.126Zm-55.131-2.251h54.006V3.628H194.382v98.713Z" fill="#6a6a6a"/>
        <path id="路径_11-2" data-name="路径 11" d="M256.48,178.2H200.3a.763.763,0,0,1-.779-.746V117.223a.763.763,0,0,1,.779-.746H256.48a.763.763,0,0,1,.779.746v60.235a.764.764,0,0,1-.779.747Zm-55.4-1.492H255.7V117.969H201.075Zm14.8,12.49h-6.547a1.02,1.02,0,0,1-1.019-1.019v-3.818h8.585v3.818a1.019,1.019,0,0,1-1.019,1.019Zm30.665,0h-6.548a1.02,1.02,0,0,1-1.019-1.019v-3.818h8.585v3.818a1.021,1.021,0,0,1-1.019,1.019ZM207.476,93.756h4.941V98.7h-4.941Zm19.555-.09h4.941v4.942h-4.941ZM218.939,96.229Zm-2.384,0a2.384,2.384,0,1,0,2.384-2.384,2.384,2.384,0,0,0-2.384,2.384M239.856,96.229Zm-2.384,0a2.384,2.384,0,1,0,2.384-2.384,2.384,2.384,0,0,0-2.384,2.384M218.939,109.913Zm-1.8,0a1.8,1.8,0,1,0,1.8-1.8,1.8,1.8,0,0,0-1.8,1.8M229.5,109.913Zm-1.8,0a1.8,1.8,0,1,0,1.8-1.8,1.8,1.8,0,0,0-1.8,1.8M239.856,109.913Zm-1.8,0a1.8,1.8,0,1,0,1.8-1.8,1.8,1.8,0,0,0-1.8,1.8M209.946,109.913Zm-1.8,0a1.8,1.8,0,1,0,1.8-1.8,1.8,1.8,0,0,0-1.8,1.8M204.4,92.787ZM249.527,105.5Zm-1.8,0a1.8,1.8,0,1,0,1.8-1.8,1.8,1.8,0,0,0-1.8,1.8" transform="translate(-6.62 -81.917)" fill="#6a6a6a"/>
        <path id="路径_12-2" data-name="路径 12" d="M331.3,155.118h2.539v12.006H331.3Zm-38.778,33.293H300.5v.732h-7.979Zm0,1.336H300.5v.732h-7.979Zm9.727-1.336h7.979v.732h-7.979Zm0,1.336h7.979v.732h-7.979Zm10.411-1.336h7.979v.732h-7.979Zm0,1.336h7.979v.732h-7.979Zm9.539-1.336h7.979v.732H322.2Zm0,1.232h7.979v.732H322.2Zm-29.677,1.522H300.5v.732h-7.979Zm9.727,0h7.979v.732h-7.979Zm10.411,0h7.979v.732h-7.979Zm9.539-.1h7.979v.732H322.2ZM302.281,105.36Zm-2.384,0a2.384,2.384,0,1,0,2.384-2.384,2.384,2.384,0,0,0-2.384,2.384" transform="translate(-89.962 -91.048)" fill="#6a6a6a"/>
        <path id="路径_13-2" data-name="路径 13" d="M672.756,617.666h1.126v9h-1.126Z" transform="translate(-430.709 -552.283)" fill="#6a6a6a"/>
        <path id="路径_14-2" data-name="路径 14" d="M248.95,35.142h1.126v4.69H248.95ZM199.519,13.475h55.49v3.564h-55.49Z" transform="translate(-6.621 -10.842)" fill="#6a6a6a"/>
        <path id="路径_15-2" data-name="路径 15" d="M235.123,15.168a1.18,1.18,0,1,0,1.18-1.18,1.18,1.18,0,0,0-1.18,1.18m5.55,0a1.18,1.18,0,1,0,1.18-1.18,1.18,1.18,0,0,0-1.18,1.18m41.388,0a1.18,1.18,0,1,0,1.18-1.18,1.18,1.18,0,0,0-1.18,1.18" transform="translate(-38.527 -11.301)" fill="#6a6a6a"/>
        <path id="路径_16-2" data-name="路径 16" d="M273.826,797.655h-2.548l.884-3.327-3.883,4.438h2.548l-.886,3.328Z" transform="translate(-68.24 -710.597)" fill="#6a6a6a"/>
        <path id="路径_17-2" data-name="路径 17" d="M249.166,792.162a5.185,5.185,0,1,1,5.185-5.185A5.191,5.191,0,0,1,249.166,792.162Zm0-9.884a4.7,4.7,0,1,0,4.7,4.7A4.7,4.7,0,0,0,249.166,782.277Z" transform="translate(-46.466 -699.363)" fill="#6a6a6a"/>
      </g>
      <g id="组_4" data-name="组 4" transform="translate(166.869 696.905)">
        <path id="路径_10-3" data-name="路径 10" d="M249.513,104.592H193.256a1.126,1.126,0,0,1-1.126-1.126V2.5a1.126,1.126,0,0,1,1.126-1.126h56.257A1.126,1.126,0,0,1,250.638,2.5V103.467a1.125,1.125,0,0,1-1.126,1.126Zm-55.131-2.251h54.006V3.628H194.382v98.713Z" fill="#6a6a6a"/>
        <path id="路径_11-3" data-name="路径 11" d="M256.48,178.2H200.3a.763.763,0,0,1-.779-.746V117.223a.763.763,0,0,1,.779-.746H256.48a.763.763,0,0,1,.779.746v60.235a.764.764,0,0,1-.779.747Zm-55.4-1.492H255.7V117.969H201.075Zm14.8,12.49h-6.547a1.02,1.02,0,0,1-1.019-1.019v-3.818h8.585v3.818a1.019,1.019,0,0,1-1.019,1.019Zm30.665,0h-6.548a1.02,1.02,0,0,1-1.019-1.019v-3.818h8.585v3.818a1.021,1.021,0,0,1-1.019,1.019ZM207.476,93.756h4.941V98.7h-4.941Zm19.555-.09h4.941v4.942h-4.941ZM218.939,96.229Zm-2.384,0a2.384,2.384,0,1,0,2.384-2.384,2.384,2.384,0,0,0-2.384,2.384M239.856,96.229Zm-2.384,0a2.384,2.384,0,1,0,2.384-2.384,2.384,2.384,0,0,0-2.384,2.384M218.939,109.913Zm-1.8,0a1.8,1.8,0,1,0,1.8-1.8,1.8,1.8,0,0,0-1.8,1.8M229.5,109.913Zm-1.8,0a1.8,1.8,0,1,0,1.8-1.8,1.8,1.8,0,0,0-1.8,1.8M239.856,109.913Zm-1.8,0a1.8,1.8,0,1,0,1.8-1.8,1.8,1.8,0,0,0-1.8,1.8M209.946,109.913Zm-1.8,0a1.8,1.8,0,1,0,1.8-1.8,1.8,1.8,0,0,0-1.8,1.8M204.4,92.787ZM249.527,105.5Zm-1.8,0a1.8,1.8,0,1,0,1.8-1.8,1.8,1.8,0,0,0-1.8,1.8" transform="translate(-6.62 -81.917)" fill="#6a6a6a"/>
        <path id="路径_12-3" data-name="路径 12" d="M331.3,155.118h2.539v12.006H331.3Zm-38.778,33.293H300.5v.732h-7.979Zm0,1.336H300.5v.732h-7.979Zm9.727-1.336h7.979v.732h-7.979Zm0,1.336h7.979v.732h-7.979Zm10.411-1.336h7.979v.732h-7.979Zm0,1.336h7.979v.732h-7.979Zm9.539-1.336h7.979v.732H322.2Zm0,1.232h7.979v.732H322.2Zm-29.677,1.522H300.5v.732h-7.979Zm9.727,0h7.979v.732h-7.979Zm10.411,0h7.979v.732h-7.979Zm9.539-.1h7.979v.732H322.2ZM302.281,105.36Zm-2.384,0a2.384,2.384,0,1,0,2.384-2.384,2.384,2.384,0,0,0-2.384,2.384" transform="translate(-89.962 -91.048)" fill="#6a6a6a"/>
        <path id="路径_13-3" data-name="路径 13" d="M672.756,617.666h1.126v9h-1.126Z" transform="translate(-430.709 -552.283)" fill="#6a6a6a"/>
        <path id="路径_14-3" data-name="路径 14" d="M248.95,35.142h1.126v4.69H248.95ZM199.519,13.475h55.49v3.564h-55.49Z" transform="translate(-6.621 -10.842)" fill="#6a6a6a"/>
        <path id="路径_15-3" data-name="路径 15" d="M235.123,15.168a1.18,1.18,0,1,0,1.18-1.18,1.18,1.18,0,0,0-1.18,1.18m5.55,0a1.18,1.18,0,1,0,1.18-1.18,1.18,1.18,0,0,0-1.18,1.18m41.388,0a1.18,1.18,0,1,0,1.18-1.18,1.18,1.18,0,0,0-1.18,1.18" transform="translate(-38.527 -11.301)" fill="#6a6a6a"/>
        <path id="路径_16-3" data-name="路径 16" d="M273.826,797.655h-2.548l.884-3.327-3.883,4.438h2.548l-.886,3.328Z" transform="translate(-68.24 -710.597)" fill="#6a6a6a"/>
        <path id="路径_17-3" data-name="路径 17" d="M249.166,792.162a5.185,5.185,0,1,1,5.185-5.185A5.191,5.191,0,0,1,249.166,792.162Zm0-9.884a4.7,4.7,0,1,0,4.7,4.7A4.7,4.7,0,0,0,249.166,782.277Z" transform="translate(-46.466 -699.363)" fill="#6a6a6a"/>
      </g>
    </g>
    <g id="组_10" data-name="组 10" transform="translate(-273.345 687.561)">
      <path id="路径_19" data-name="路径 19" d="M56.019,71.866A16.975,16.975,0,1,0,34.812,98.209a2.566,2.566,0,0,1,1.153,2.114v9.435a4.339,4.339,0,0,0,4.336,4.336h1.286c.072,1.005,1.392,1.754,3.134,1.754s3.065-.749,3.134-1.754h.691a4.339,4.339,0,0,0,4.333-4.336v-9.68a2.533,2.533,0,0,1,1.1-2.062,16.969,16.969,0,0,0,2.041-26.15Zm-11.3,42.775a2.741,2.741,0,0,1-1.89-.547h3.78A2.735,2.735,0,0,1,44.721,114.64Zm3.825-1.754H40.313a3.131,3.131,0,0,1-3.128-3.128v-1.434h3.282a.6.6,0,1,0,0-1.208H37.185V103.11H51.677v4.007H43.069a.6.6,0,1,0,0,1.208h8.6v1.434a3.131,3.131,0,0,1-3.125,3.128ZM41.194,84.58H37.164V83.037H51.354V84.58H47.339a1.836,1.836,0,0,0-1.833,1.833v15.275h-2.5V86.413a1.836,1.836,0,0,0-1.812-1.833ZM53.3,97.029a3.738,3.738,0,0,0-1.615,3.05v1.812H46.717V86.413a.625.625,0,0,1,.625-.625h4.62a.6.6,0,0,0,.6-.6V82.433a.6.6,0,0,0-.6-.6h-15.4a.6.6,0,0,0-.6.6v2.751a.6.6,0,0,0,.6.6h4.632a.625.625,0,0,1,.6.625V101.9H37.185v-1.57A3.771,3.771,0,0,0,35.5,97.207,15.764,15.764,0,0,1,43.61,68.354h.652a15.764,15.764,0,0,1,9.019,28.683ZM72.792,83.161H65.4a.6.6,0,0,0,0,1.208h7.388a.6.6,0,0,0,0-1.208Zm-49.3.6a.6.6,0,0,0-.6-.6H15.5a.6.6,0,0,0,0,1.208h7.388a.6.6,0,0,0,.6-.6ZM59.177,69.339a.6.6,0,0,0,.435-.19l5.223-5.223a.6.6,0,1,0-.854-.854l-5.223,5.223a.6.6,0,0,0,.426,1.033ZM28.691,98.366l-5.226,5.226a.6.6,0,0,0,.854.854l5.226-5.226a.6.6,0,0,0-.854-.854Zm30.921,0a.6.6,0,0,0-.854.854l5.223,5.226a.6.6,0,1,0,.854-.854ZM28.691,69.148a.6.6,0,1,0,.854-.854l-5.226-5.211a.6.6,0,1,0-.854.854Zm34.275,7.334a.6.6,0,0,0,.571.383.586.586,0,0,0,.223-.042l3.862-1.51a.61.61,0,1,0-.462-1.129L63.3,75.694a.6.6,0,0,0-.332.788ZM25.874,91.044a.6.6,0,0,0-.782-.341l-3.862,1.51a.6.6,0,0,0,.22,1.168.634.634,0,0,0,.22-.042l3.862-1.51a.6.6,0,0,0,.341-.785ZM21.231,75.308l3.862,1.51a.571.571,0,0,0,.22.042.6.6,0,0,0,.22-1.165l-3.862-1.51a.6.6,0,1,0-.441,1.123ZM67.613,92.219l-3.862-1.51a.6.6,0,1,0-.444,1.123l3.862,1.51a.634.634,0,0,0,.22.042.6.6,0,0,0,.223-1.168Z" transform="translate(0 0)" fill="#6a6a6a"/>
      <path id="路径_20" data-name="路径 20" d="M516.51,207.3a12.82,12.82,0,0,0-12.3-9.058.6.6,0,0,0,0,1.208,11.618,11.618,0,0,1,11.15,8.2.6.6,0,0,0,.577.426.543.543,0,0,0,.181-.03.6.6,0,0,0,.4-.749Z" transform="translate(-459.884 -127.369)" fill="#6a6a6a"/>
    </g>
    <g id="组_8" data-name="组 8" transform="translate(-881)">
      <rect id="矩形_2" data-name="矩形 2" width="69" height="22" rx="2" transform="translate(422 304)" fill="#9a0000"/>
      <text id="并网总表" transform="translate(429 320)" fill="#fff" font-size="14" font-family="SourceHanSansCN-Normal, Source Han Sans CN"><tspan x="0" y="0">并网总表</tspan></text>
    </g>
    <path id="路径_24" data-name="路径 24" d="M2,0H67a2,2,0,0,1,2,2V20a2,2,0,0,1-2,2H2a2,2,0,0,1-2-2V2A2,2,0,0,1,2,0Z" transform="translate(-667 483)" fill="#9a0000"/>
    <path id="路径_25" data-name="路径 25" d="M2,0H67a2,2,0,0,1,2,2V20a2,2,0,0,1-2,2H2a2,2,0,0,1-2-2V2A2,2,0,0,1,2,0Z" transform="translate(-264 483)" fill="#9a0000"/>
    <path id="路径_26" data-name="路径 26" d="M2,0H67a2,2,0,0,1,2,2V20a2,2,0,0,1-2,2H2a2,2,0,0,1-2-2V2A2,2,0,0,1,2,0Z" transform="translate(-667 630)" fill="#9a0000"/>
    <text id="储能总表" transform="translate(-660 499)" fill="#fff" font-size="14" font-family="SourceHanSansCN-Normal, Source Han Sans CN"><tspan x="0" y="0">储能总表</tspan></text>
    <text id="负载总表" transform="translate(-257 499)" fill="#fff" font-size="14" font-family="SourceHanSansCN-Normal, Source Han Sans CN"><tspan x="0" y="0">负载总表</tspan></text>
    <text id="储能柜" transform="translate(-653 646)" fill="#fff" font-size="14" font-family="SourceHanSansCN-Normal, Source Han Sans CN"><tspan x="0" y="0">储能柜</tspan></text>
    <path id="路径_27" data-name="路径 27" d="M160.632,64.446l-8.8-26.889h15.93v.459h-.56c-.334,0-.642.189-.642.441s.308.441.642.441h.56v.057h-.56c-.334,0-.642.189-.642.441s.308.441.642.441h.56v.057h-.56c-.334,0-.642.189-.642.441s.308.441.642.441h.56v.057h-.56c-.334,0-.642.189-.642.441s.308.441.642.441h.56v.271h.617v-.271H169c.365,0,.642-.189.642-.441s-.283-.441-.642-.441h-.623v-.057h.617c.365,0,.642-.189.642-.441s-.283-.441-.642-.441h-.617v-.057h.617c.365,0,.642-.189.642-.441s-.283-.441-.642-.441h-.617V38.9h.617c.365,0,.642-.189.642-.441s-.283-.441-.642-.441h-.617v-.478a.416.416,0,0,0,.365-.233c.113-.17-.025-.384-.308-.441L150.769,32.44l-1.315-6.993h14.162v.459h-.535c-.365,0-.673.189-.673.441s.308.441.673.441h.535v.038h-.535c-.365,0-.673.208-.673.441,0,.252.308.459.673.459h.535v.038h-.535c-.365,0-.673.208-.673.441,0,.252.308.459.673.459h.535V28.7h-.535c-.365,0-.673.208-.673.441,0,.252.308.459.673.459h.535v.271h.617V29.6h.617c.365,0,.642-.208.642-.459,0-.233-.283-.441-.642-.441h-.629v-.038h.617c.365,0,.642-.208.642-.459,0-.233-.283-.441-.642-.441h-.617v-.038h.617c.365,0,.642-.208.642-.459,0-.233-.283-.441-.642-.441h-.617v-.038h.617c.365,0,.642-.189.642-.441s-.283-.441-.642-.441h-.617v-.5a.373.373,0,0,0,.252-.208c.113-.17-.025-.365-.308-.441L148.6,21.029l-1.624-8.447h9.227v.478h-.535c-.365,0-.642.208-.642.441,0,.252.283.459.642.459h.535V14h-.535c-.365,0-.642.189-.642.441s.283.441.642.441h.535v.057h-.535c-.365,0-.642.189-.642.441s.283.441.642.441h.535v.057h-.535c-.365,0-.642.189-.642.441s.283.441.642.441h.535v.271h.617v-.277h.642c.334,0,.642-.189.642-.441s-.308-.441-.642-.441h-.642v-.057h.642c.334,0,.642-.189.642-.441s-.308-.441-.642-.441h-.642v-.057h.642c.334,0,.642-.189.642-.441s-.308-.441-.642-.441h-.642v-.038h.642c.334,0,.642-.208.642-.459,0-.233-.308-.441-.642-.441h-.642V12.5a.312.312,0,0,0,.2-.271c0-.17-.17-.308-.365-.346L146.363,9.334l-.308-1.649,13.463-2.738V5.3h-.535c-.365,0-.642.208-.642.441,0,.252.283.459.642.459h.535v.044h-.535c-.365,0-.642.189-.642.441s.283.441.642.441h.535v.057h-.535c-.365,0-.642.189-.642.441s.283.441.642.441h.535v.057h-.535c-.365,0-.642.189-.642.441s.283.441.642.441h.535v.271h.617V9h.642c.365,0,.642-.189.642-.441s-.283-.441-.642-.441h-.648V8.063h.642c.365,0,.642-.189.642-.441s-.283-.441-.642-.441h-.642V7.125h.642c.365,0,.642-.189.642-.441s-.283-.441-.642-.441h-.642V6.206h.642c.365,0,.642-.208.642-.459,0-.233-.283-.441-.642-.441h-.642V4.828c.2-.057.308-.17.308-.327,0-.189-.227-.346-.5-.346l-14.552.019V4.079c-.334-1.36-.642-2.719-.982-4.079h-2.744c-.308,1.36-.642,2.719-.982,4.079v.094l-13.627.019a.538.538,0,0,0-.535.252.259.259,0,0,0,.025.233v.692H125.9c-.365,0-.642.208-.642.459,0,.233.283.441.642.441h.642v.038H125.9c-.365,0-.642.189-.642.441s.283.441.642.441h.642v.057H125.9c-.365,0-.642.189-.642.441s.283.441.642.441h.642v.057H125.9c-.365,0-.642.189-.642.441s.283.441.642.441h.642v.29h.592v-.29h.56c.365,0,.642-.189.642-.441s-.283-.441-.642-.441h-.56V8.126h.56c.365,0,.642-.189.642-.441s-.283-.441-.642-.441h-.56V7.188h.56c.365,0,.642-.189.642-.441s-.283-.441-.642-.441h-.56V6.269h.56c.365,0,.642-.208.642-.441,0-.252-.283-.459-.642-.459h-.56V4.947L140.006,7.7,139.7,9.353l-9.926,2.511c-.252.076-.39.271-.308.459a.557.557,0,0,0,.39.208v.592h-.642c-.365,0-.642.208-.642.459,0,.233.283.441.642.441h.642v.038h-.642c-.365,0-.642.189-.642.441s.283.441.642.441h.642V15h-.642c-.365,0-.642.189-.642.441s.283.441.642.441h.642v.057h-.642c-.365,0-.642.189-.642.441s.283.441.642.441h.642v.29h.617v-.3h.535c.365,0,.642-.189.642-.441s-.283-.441-.642-.441h-.535v-.057h.535c.365,0,.642-.189.642-.441s-.283-.441-.642-.441h-.535v-.057h.535c.365,0,.642-.189.642-.441s-.283-.441-.642-.441h-.535v-.038h.535c.365,0,.642-.208.642-.441,0-.252-.283-.459-.642-.459h-.535v-.573l8.61.019-1.6,8.422-14.64,3.776c-.227.038-.365.17-.365.327,0,.038,0,.076.025.094h-.057v.787h-.617c-.365,0-.642.189-.642.441s.283.441.642.441h.617v.038h-.617c-.365,0-.642.208-.642.459,0,.233.283.441.642.441h.617v.038h-.617c-.365,0-.642.208-.642.459,0,.233.283.441.642.441h.617v.038h-.617c-.365,0-.642.208-.642.459,0,.233.283.441.642.441h.617v.271h.617v-.271h.535c.365,0,.673-.208.673-.441,0-.252-.308-.459-.673-.459h-.522v-.038h.535c.365,0,.673-.208.673-.441,0-.252-.308-.459-.673-.459h-.535v-.038h.535c.365,0,.673-.208.673-.441,0-.252-.308-.459-.673-.459h-.535v-.038h.535c.365,0,.673-.189.673-.441s-.308-.441-.673-.441h-.535v-.516h13.57l-1.347,6.993-15.477,4.425a.368.368,0,0,0-.334.327c0,.189.227.346.5.365v.478h-.642c-.365,0-.642.189-.642.441s.283.441.642.441h.642v.038h-.642c-.365,0-.642.208-.642.441,0,.252.283.459.642.459h.642V39.9h-.642c-.365,0-.642.208-.642.441,0,.252.283.459.642.459h.642v.038h-.642c-.365,0-.642.208-.642.441,0,.252.283.459.642.459h.642v.271h.617v-.271h.535c.365,0,.642-.208.642-.459,0-.233-.283-.441-.642-.441H120.6v-.044h.535c.365,0,.642-.208.642-.459,0-.233-.283-.441-.642-.441H120.6v-.038h.535c.365,0,.642-.208.642-.459,0-.233-.283-.441-.642-.441H120.6v-.038h.535c.365,0,.642-.189.642-.441s-.283-.441-.642-.441H120.6v-.478h13.627l-8.806,26.889h4.2l.422-1.857,12.481-4.135,13.539,4.425.365,1.574h4.2Zm-9.026-27.6-.7-3.619,14.47,3.619Zm-16.459-3.6-.7,3.6H122.533Zm1.542-.189h12.758l.617,3.8H136.072Zm12.645-.692L136.8,32.346l.138-.9,5.64-2.316,6.735,3.16ZM135.9,37.557h14.332l.252,1.07-7.742,3.122-7.15-2.832Zm13.407-12.815-.56-2.933L161,24.742Zm-12-2.971-.56,2.971H125.812l11.5-2.971Zm1.234-.151,9.032.038.5,3.084H138.036Zm8.919-.673-8.805-.019.422-2.568L143.027,17l4.041,1.592Zm-9.536,4.5h10.266l.139.787-5.721,2.335-4.821-2.278.139-.843Zm8.944-13.558-.334-1.762L153.6,11.89Zm-7.345-1.762-.308,1.743-6.477-.019Zm3.141,2.448h3.424l.447,2.7-3.474,1.19-3.474-1.36.422-2.53h2.656Zm2.889-3.292h-5.023l.252-1.529,4.513.019Zm.422,2.606h-3.311l-2.549-.019.308-1.895h2.549l2.694.019Zm-.057-4.9-.39-2.127h10.883L145.916,6.986Zm-5.388-2.109-.39,2.109-9.819-2.109h10.209Zm4.658,2.184h-4.293l.334-2.184,3.588-.019Zm-.478-2.9H141.34l.025-.038.082-.422,1.574-1.876,1.6,1.951.057.346ZM142.158.8l.673.806L141.623,3.04Zm2.3,2.316-1.234-1.511.673-.8.56,2.316ZM143.782.459l-.755.919-.755-.919h1.511ZM130.432,61l1.4-6.017,8.805,2.87Zm1.6-6.842.082-.365,11.248-3.562,10.543,3.2.057.327L142.46,57.3l-10.429-3.147Zm.227-1.07,1.372-5.822,8.579,2.625Zm1.542-6.533.082-.4,8.862-3.581,9.5,3.751.057.29-8.919,2.9L133.8,46.551Zm.308-1.3,1.29-5.589,6.338,2.511-7.628,3.084Zm2.914-14.4.673-4.022,4.261,2.014ZM139.156,17.8l.334-2.2,2.832,1.114Zm7.459-2.033.365,2.241-3.223-1.265Zm1.794,10.958.812,4.941-6-2.813,5.186-2.127Zm2.247,12.645,1.4,6.074-8.3-3.292Zm1.819,7.968,1.234,5.325-9.171-2.813Zm1.687,7.238,1.542,6.7-11.386-3.43Z" transform="translate(-567.669 200.041)" fill="#4a4a4a"/>
  </g>
</svg>
