<?xml version="1.0" encoding="utf-8"?>
<svg version="1.1" xmlns:xlink="http://www.w3.org/1999/xlink" width="48px" height="48px" xmlns="http://www.w3.org/2000/svg">
  <g transform="matrix(1 0 0 1 -64 -104 )">
    <path d="M 0 24  C 0 10.7451428571429  10.7451428571428 0  24 0  C 37.2548571428572 0  48 10.7451428571429  48 24  C 48 37.2548571428571  37.2548571428572 48  24 48  C 10.7451428571428 48  0 37.2548571428571  0 24  Z M 25.7817143035714 30.9634285714286  C 25.3451428928571 30.5268571607143  24.7851428571429 30.3405714107143  24.1302857142857 30.3405714107143  C 23.5074285535715 30.3405714107143  22.9462857321429 30.5268571071429  22.5108571607143 30.9634285714286  C 22.0742857499999 31.368  21.8560000178571 31.8982857321429  21.8560000178571 32.5519999821429  C 21.8560000178571 33.1748571428571  22.0742857499999 33.7051428214286  22.5108571607143 34.1405714464286  C 22.9462857321429 34.5771428571429  23.5074286071429 34.7954285892857  24.1302857142857 34.7954285892857  C 24.7531428214286 34.7954285892857  25.3142856964286 34.57828575  25.7508571607143 34.1725714285714  C 26.1862857321429 33.7360000178571  26.4365714464286 33.206857125  26.4365714464286 32.5519999821429  C 26.4365714464286 31.8982856785714  26.217142875 31.368  25.7817143035714 30.9634285714286  Z M 24.6914285892857 12.1154285892857  L 24.6902856964285 12.1154285892857  C 22.3862856964286 12.1154285892857  20.5782857142857 12.7691428928571  19.2708571607143 14.1097142678572  C 17.9622857142857 15.4171428214286  17.3074285714285 17.1931428214286  17.3074285714285 19.4674285714286  C 17.3074285714285 20.8388571428571  20.2445714464286 21.3062856964286  20.5782857142857 19.4674285714286  C 20.5782857142857 18.096  20.8594285714286 17.0377142678572  21.4194285535714 16.2902856964286  C 22.0434285535714 15.3874285714286  23.0708571428571 14.9508571071428  24.4731428571429 14.9508571607143  C 25.5942857142857 14.9508571607143  26.4982857321429 15.2617143214286  27.1211428392858 15.8845714285714  C 27.7131428571429 16.5085714285714  28.0239999642857 17.3497142678572  28.0240000178571 18.4399999821429  C 28.0240000178571 19.2491428392857  27.7131428571429 19.99771425  27.1519999821429 20.7142857321429  L 26.6228571428571 21.3062856964286  L 26.3234285892858 21.5725714285715  C 24.5691428571429 23.1520000178571  23.4857142857143 24.3428571428572  23.102857125 25.1691428571428  C 22.6662857142857 25.9782857142857  22.478857125 26.9748571607143  22.478857125 28.1291428392857  L 22.478857125 28.6582857321429  L 25.8125714464286 28.6582857321429  L 25.8125714464286 28.128  L 25.8205714285714 27.8514285535714  C 25.8548571428571 27.2114285357143  26.0114285892857 26.6171428392857  26.3119999821429 26.0719999821429  C 26.592 25.512  27.0274285714286 24.950857125  27.6194285892857 24.4525714285714  C 29.0834285892857 23.174857125  29.9565714642857 22.3645714285714  30.2365714285714 22.022857125  C 31.0148571428572 21.0251428392857  31.4205714107143 19.7485714285714  31.4205714107143 18.2217143035714  C 31.4205714107143 16.3520000357143  30.79771425 14.8571428928572  29.5508571428571 13.766857125  C 28.305142875 12.6445714285714  26.6845714285714 12.1154285357143  24.6914285892857 12.1154285892857  Z " fill-rule="nonzero" fill="#237ae4" stroke="none" transform="matrix(1 0 0 1 64 104 )" />
  </g>
</svg>