<?xml version="1.0" encoding="UTF-8"?>
<svg width="18px" height="18px" viewBox="0 0 18 18" version="1.1" xmlns="http://www.w3.org/2000/svg" xmlns:xlink="http://www.w3.org/1999/xlink">
    <title>空调点位</title>
    <g id="页面-1" stroke="none" stroke-width="1" fill="none" fill-rule="evenodd">
        <g id="图标组1" transform="translate(-3373.000000, -489.000000)">
            <g id="空调点位" transform="translate(3373.000000, 489.000000)">
                <path d="M16.4418605,1 C16.7501124,1 17,1.24988758 17,1.55813953 L17,16.4418605 C17,16.7501124 16.7501124,17 16.4418605,17 L1.55813953,17 C1.24988758,17 1,16.7501124 1,16.4418605 L1,8.25581395 C1,7.947562 1.24988758,7.69767441 1.55813953,7.69767441 L7.69767441,7.69767441 L7.69767441,1.55813953 C7.69767441,1.24988758 7.947562,1 8.25581395,1 L16.4418605,1 Z M15.8837209,2.11627907 L8.81395348,2.11627907 L8.81395348,8.25581395 C8.81395348,8.5640659 8.5640659,8.81395348 8.25581395,8.81395348 L2.11627907,8.81395348 L2.11627907,15.8837209 L7.608,15.883 L7.60869565,12.4191037 C7.60869565,12.1125366 7.8572174,11.8640148 8.16378452,11.8640148 C8.47035164,11.8640148 8.71887339,12.1125366 8.71887339,12.4191037 L8.718,15.883 L15.8837209,15.8837209 L15.883,8.718 L12.4186785,8.71877891 C12.1121375,8.71877891 11.8636369,8.47027831 11.8636369,8.16373728 C11.8636369,7.85719625 12.1121375,7.60869565 12.4186785,7.60869565 L15.883,7.608 L15.8837209,2.11627907 Z M12,10 C12.5522847,10 13,10.4477153 13,11 C13,11.5522847 12.5522847,12 12,12 L11,12 C10.4477153,12 10,11.5522847 10,11 C10,10.4477153 10.4477153,10 11,10 L12,10 Z" id="形状结合" fill="#FFFFFF" fill-rule="nonzero"></path>
                <rect id="矩形" x="0" y="0" width="18" height="18"></rect>
            </g>
        </g>
    </g>
</svg>