<?xml version="1.0" encoding="UTF-8"?>
<svg width="18px" height="18px" viewBox="0 0 18 18" version="1.1" xmlns="http://www.w3.org/2000/svg" xmlns:xlink="http://www.w3.org/1999/xlink">
    <title>airConditioningAutoControl</title>
    <g id="页面-1" stroke="none" stroke-width="1" fill="none" fill-rule="evenodd">
        <g id="画板" transform="translate(-3377.000000, -431.000000)">
            <g id="airConditioningAutoControl" transform="translate(3377.000000, 431.000000)">
                <path d="M9.00526404,0.0148897059 C13.9701838,0.0148897059 17.9956384,4.04034425 17.9956384,9.00526404 C17.9956384,13.9701838 13.9701838,17.9956384 9.00526404,17.9956384 C4.04034425,17.9956384 0.0148897059,13.9701838 0.0148897059,9.00526404 C0.0148897059,4.04034425 4.04034425,0.0148897059 9.00526404,0.0148897059 Z M9.00526404,1.27970254 C4.96440842,1.27970254 1.63970254,4.39841912 1.30857955,8.35649398 L1.30857955,8.35649398 L2.16141377,8.35649398 C2.50986297,8.35649398 2.79285762,8.63948864 2.79285762,8.98793783 C2.79285762,9.33638703 2.5117881,9.61938168 2.16141377,9.61938168 L2.16141377,9.61938168 L1.30665441,9.61938168 C1.603125,13.3753175 4.59670789,16.3843015 8.35071858,16.7019485 L8.35071858,16.7019485 L8.35071858,15.85874 C8.35071858,15.5102908 8.6317881,15.2272961 8.98216243,15.2272961 C9.33061163,15.2272961 9.61360628,15.5083656 9.61360628,15.85874 L9.61360628,15.85874 L9.61360628,16.7038737 C13.3868683,16.4074031 16.4054779,13.3907186 16.7038737,9.61745655 L16.7038737,9.61745655 L15.829863,9.61745655 C15.4814138,9.61745655 15.1984191,9.3344619 15.1984191,8.9860127 C15.1984191,8.6375635 15.4794886,8.35456885 15.829863,8.35456885 L15.829863,8.35456885 L16.7019485,8.35456885 C16.3669753,4.39841912 13.0461197,1.27970254 9.00526404,1.27970254 Z M8.98216243,2.36547794 C9.33061163,2.36547794 9.61360628,2.64654746 9.61360628,2.99692179 L9.61360628,2.99692179 L9.61360628,8.35456885 L12.5975635,8.35456885 C12.9479378,8.35456885 13.2328576,8.63948864 13.2328576,8.98793783 C13.2328576,9.33638703 12.9517881,9.61938168 12.6014138,9.61938168 L12.6014138,9.61938168 L8.98793783,9.61938168 C8.63948864,9.61938168 8.35649398,9.33831217 8.35649398,8.98793783 L8.35649398,8.98793783 L8.35649398,8.97638703 C8.35264372,8.96098596 8.35071858,8.94365976 8.35071858,8.92825869 L8.35071858,8.92825869 L8.35071858,2.99692179 C8.35071858,2.64847259 8.6317881,2.36547794 8.98216243,2.36547794 Z" id="形状结合" fill="#FFFFFF" fill-rule="nonzero"></path>
                <rect id="矩形" x="0" y="0" width="18" height="18"></rect>
            </g>
        </g>
    </g>
</svg>