<?xml version="1.0" encoding="UTF-8"?>
<svg width="18px" height="18px" viewBox="0 0 18 18" version="1.1" xmlns="http://www.w3.org/2000/svg" xmlns:xlink="http://www.w3.org/1999/xlink">
    <title>airConditioningManualControl</title>
    <g id="页面-1" stroke="none" stroke-width="1" fill="none" fill-rule="evenodd">
        <g id="画板" transform="translate(-3373.000000, -393.000000)">
            <g id="airConditioningManualControl" transform="translate(3373.000000, 393.000000)">
                <g id="编组-55">
                    <path d="M7.92817557,1.24344979e-14 C6.75118914,1.24344979e-14 5.799904,0.900111821 5.71940848,2.05524712 L5.71388985,2.21428571 L5.71388985,8.51428571 L5.52444714,8.55900707 C5.30167381,8.11346042 4.85972286,7.84828985 4.17999253,7.71234378 C3.605039,7.59735308 2.86349914,7.80922161 2.33611185,8.20449709 C1.50149092,8.91988646 1.26200034,10.0657298 1.75268931,11.006104 L1.84125488,11.1608215 L5.831904,17.4695644 C5.92153983,17.648836 6.09028329,17.7635539 6.28565595,17.7926718 L6.38531843,17.8 L14.4853184,17.8 C15.4099942,17.8 16.2280717,17.0281563 16.3075678,16.116452 L16.3138899,15.9714286 L16.3138899,7.61428571 C16.3138899,6.89634139 15.7449664,6.25171985 15.0082573,6.17833411 L14.868256,6.17139001 L10.2396846,6.04281858 L10.1424613,5.94285714 L10.1424613,2.21428571 C10.1424613,0.983799904 9.15866138,1.24344979e-14 7.92817557,1.24344979e-14 Z M7.92817557,1.08571429 C8.45972215,1.08571429 8.98215956,1.57271526 9.04945545,2.10068485 L9.056747,2.21428571 L9.056747,6.07142857 C9.056747,6.64733467 9.37553214,7.06521691 9.87063062,7.12200378 L9.98794909,7.12860604 L14.8710327,7.25714286 C15.0318576,7.25714286 15.1846764,7.38985856 15.2203683,7.54616906 L15.2281756,7.61428571 L15.2281756,15.9714286 C15.2281756,16.3756261 14.9744836,16.6630012 14.5925634,16.7080901 L14.4853184,16.7142857 L6.55735768,16.6667964 L2.82444714,10.6161499 C2.53436617,10.035988 2.57094984,9.48723295 2.97175061,9.08643218 C3.10440764,8.95377515 3.27249169,8.87415639 3.47284967,8.83408479 C3.61331937,8.80599085 3.72714552,8.8 3.97408406,8.80513167 C4.38641456,8.94257517 4.61665517,9.07311299 4.75541067,9.28578739 L4.80333257,9.36956435 L5.68460053,11.143575 C5.94048757,11.3994621 6.14914874,11.47771 6.34059707,11.3819859 C6.56719153,11.2686886 6.74867297,11.0758431 6.7905028,10.9017487 L6.79960414,10.8285714 L6.79960414,2.21428571 C6.79960414,1.64477153 7.35866138,1.08571429 7.92817557,1.08571429 Z" id="形状" fill="#FFFFFF" fill-rule="nonzero"></path>
                    <rect id="矩形" x="0" y="0" width="18" height="18"></rect>
                </g>
            </g>
        </g>
    </g>
</svg>