<svg t="1732006730132" class="icon" viewBox="0 0 1024 1024" version="1.1" xmlns="http://www.w3.org/2000/svg" p-id="61964" width="48" height="48"><path d="M512 926.72c-5.12 0-10.24 0-10.24-5.12l-337.92-194.56c-10.24 0-15.36-10.24-15.36-20.48V317.44c0-10.24 5.12-20.48 10.24-20.48L496.64 102.4c5.12-5.12 15.36-5.12 25.6 0l337.92 194.56c10.24 0 15.36 10.24 15.36 20.48v394.24c0 10.24-5.12 15.36-10.24 20.48l-337.92 194.56H512z m-317.44-230.4l317.44 184.32 317.44-184.32V327.68L512 148.48 194.56 327.68v368.64z m655.36 10.24z" fill="#237AE4" p-id="61965"></path><path d="M465.92 808.96H460.8c-10.24-5.12-20.48-15.36-15.36-25.6l30.72-199.68H384c-10.24 0-15.36-5.12-20.48-10.24-5.12-10.24-5.12-20.48 0-25.6l158.72-307.2c5.12-10.24 15.36-15.36 30.72-10.24 10.24 0 20.48 15.36 15.36 25.6l-25.6 184.32h92.16c10.24 0 15.36 5.12 20.48 10.24 5.12 5.12 5.12 15.36 0 25.6l-168.96 322.56c0 5.12-10.24 10.24-20.48 10.24z m-40.96-276.48h76.8c5.12 0 15.36 5.12 20.48 10.24 5.12 5.12 5.12 10.24 5.12 20.48l-15.36 87.04 81.92-158.72H512c-5.12 0-15.36-5.12-20.48-10.24V460.8l10.24-66.56-76.8 138.24z" fill="#237AE4" p-id="61966"></path></svg>