<svg t="1732165626621" class="icon" viewBox="0 0 1024 1024" version="1.1" xmlns="http://www.w3.org/2000/svg" p-id="3854" width="48" height="48"><path d="M960 640v80h-40V640a406.528 406.528 0 0 0-119.488-288.512 407.36 407.36 0 0 0-129.728-87.488A404.8 404.8 0 0 0 512 232a406.592 406.592 0 0 0-288.512 119.488A407.36 407.36 0 0 0 136 481.28c-21.312 50.304-32 103.68-32 158.784v80H64V640a448 448 0 0 1 896 0zM491.968 300.16h40v-59.968h-39.936v60.032zM215.168 371.456l42.368 42.432 28.352-28.352-42.432-42.368-28.288 28.288z m-103.04 288.64h60.032v-40.064h-59.968v40.064z m739.84-40.064v40.064h59.968v-40.064h-59.968z m-113.728-234.368l28.352 28.288 42.368-42.368-28.288-28.288-42.432 42.368z m-223.872 329.6a20.032 20.032 0 0 0-20.032 20.032 20.032 20.032 0 0 0 40 0 20.032 20.032 0 0 0-19.968-20.032z m0-40a60.032 60.032 0 1 1-0.128 120.064 60.032 60.032 0 0 1 0.128-120.064zM442.88 597.12l54.208 154.24 32.704 13.248 7.936-34.304L442.88 597.12zM311.296 343.296l269.44 378.432-22.4 97.6-93.056-37.824-153.984-438.208z m480.704 501.888h-560v40h560v-40z" p-id="3855" fill="#237AE4"></path></svg>