<svg t="1732166001017" class="icon" viewBox="0 0 1024 1024" version="1.1" xmlns="http://www.w3.org/2000/svg" p-id="29534" width="24" height="24"><path d="M512 1001.73913c-270.469565 0-489.73913-219.269565-489.73913-489.73913s219.269565-489.73913 489.73913-489.73913 489.73913 219.269565 489.73913 489.73913-219.269565 489.73913-489.73913 489.73913z m0-69.943652a419.795478 419.795478 0 1 0 0-839.590956 419.795478 419.795478 0 0 0 0 839.590956z m-98.927304-291.884521L734.608696 318.374957a34.905043 34.905043 0 0 1 59.748174 24.754086 34.905043 34.905043 0 0 1-10.24 24.709566L437.782261 714.128696a34.949565 34.949565 0 0 1-49.419131 0.044521l-148.569043-148.569043a34.860522 34.860522 0 0 1 0.089043-49.374609 35.08313 35.08313 0 0 1 49.419131-0.089043l123.725913 123.770435z" fill="#237AE4" p-id="29535"></path></svg>