<svg t="1732165955895" class="icon" viewBox="0 0 1024 1024" version="1.1" xmlns="http://www.w3.org/2000/svg" p-id="26684" width="48" height="48"><path d="M855.552 243.2l-282.624-162.816c-36.864-21.504-82.944-21.504-120.32 0L170.496 243.2C133.12 264.192 110.592 304.128 110.592 347.136v326.144c0 43.008 23.04 82.432 59.904 103.936l282.624 162.816c18.432 10.752 39.424 16.384 59.904 16.384 20.992 0 41.472-5.632 59.904-16.384l282.624-162.816c36.864-21.504 59.904-61.44 59.904-103.936V347.136c0-43.008-23.04-82.944-59.904-103.936z m20.992 430.08c0 29.184-15.36 55.808-40.96 70.656L552.96 906.752c-25.088 14.336-56.32 14.336-81.408 0l-282.624-163.328c-25.088-14.336-40.96-41.472-40.96-70.656V347.136c0-29.184 15.36-55.808 40.96-70.656l282.624-162.816c12.288-7.168 26.624-10.752 40.96-10.752s28.16 3.584 40.448 10.752L836.096 276.48c25.088 14.336 40.96 41.472 40.96 70.656v326.144z" p-id="26685" fill="#237AE4"></path><path d="M755.2 329.216h-445.44c-10.752 0-19.456 8.704-19.456 19.456 0 10.752 8.704 19.456 19.456 19.456h445.44c10.752 0 19.456-8.704 19.456-19.456 0-10.752-8.704-19.456-19.456-19.456z m9.216 179.712c-0.512 0-1.536-0.512-2.048-0.512H680.96l20.48-101.376c1.536-5.12 0.512-10.752-3.584-14.336-1.024-1.024-2.048-1.536-3.072-2.048-0.512-0.512-1.024-0.512-2.048-1.024h-4.096l-1.536 0.512h-0.512c-0.512 0-1.024 0.512-1.536 0.512-2.048 1.024-3.584 2.56-4.608 4.096l-140.8 182.784c-2.56 2.048-4.096 5.632-4.096 9.216v3.072c0 5.12 3.584 9.728 8.192 11.264 0.512 0 1.024 0.512 2.048 0.512h81.408l-20.48 99.328c-2.56 5.632-2.048 12.288 2.56 16.384 2.048 2.048 5.12 3.072 7.68 3.072h1.024c4.096 0 8.192-3.072 10.24-7.168l139.776-181.76c2.56-2.048 4.096-5.632 4.096-9.216v-3.072c0.512-4.608-3.072-8.704-7.68-10.24z m-123.904 148.48l12.8-63.488c0.512-1.536 1.024-3.072 1.024-4.608v-3.072c0-6.656-5.12-11.776-11.776-11.776H573.44l94.72-122.88-12.8 63.488c-0.512 1.536-1.024 3.072-1.024 4.608v3.072c0 6.656 5.12 11.776 11.776 11.776h69.12l-94.72 122.88zM527.36 577.536c0 10.752-8.704 19.456-19.456 19.456H309.76c-10.752 0-19.456-8.704-19.456-19.456 0-10.752 8.704-19.456 19.456-19.456h198.144c10.752 0.512 19.456 9.216 19.456 19.456z" p-id="26686" fill="#237AE4"></path><path d="M764.416 508.928c-0.512 0-1.536-0.512-2.048-0.512H680.96l20.48-101.376c1.536-5.12 0.512-10.752-3.584-14.336-1.024-1.024-2.048-1.536-3.072-2.048-0.512-0.512-1.024-0.512-2.048-1.024h-4.096l-1.536 0.512h-0.512c-0.512 0-1.024 0.512-1.536 0.512-2.048 1.024-3.584 2.56-4.608 4.096l-140.8 182.784c-2.56 2.048-4.096 5.632-4.096 9.216v3.072c0 5.12 3.584 9.728 8.192 11.264 0.512 0 1.024 0.512 2.048 0.512h81.408l-20.48 99.328c-2.56 5.632-2.048 12.288 2.56 16.384 2.048 2.048 5.12 3.072 7.68 3.072h1.024c4.096 0 8.192-3.072 10.24-7.168l139.776-181.76c2.56-2.048 4.096-5.632 4.096-9.216v-3.072c0.512-4.608-3.072-8.704-7.68-10.24z m-123.904 148.48l12.8-63.488c0.512-1.536 1.024-3.072 1.024-4.608v-3.072c0-6.656-5.12-11.776-11.776-11.776H573.44l94.72-122.88-12.8 63.488c-0.512 1.536-1.024 3.072-1.024 4.608v3.072c0 6.656 5.12 11.776 11.776 11.776h69.12l-94.72 122.88zM588.288 692.224c0 10.752-8.704 19.456-19.456 19.456H309.76c-10.752 0-19.456-8.704-19.456-19.456 0-10.752 8.704-19.456 19.456-19.456h259.584c10.24 0.512 18.944 8.704 18.944 19.456zM588.288 463.36c0 10.752-8.704 19.456-19.456 19.456H309.76c-10.752 0-19.456-8.704-19.456-19.456 0-10.752 8.704-19.456 19.456-19.456h259.584c10.24 0 18.944 8.704 18.944 19.456zM774.656 348.672c0 10.752-8.704 19.456-19.456 19.456h-445.44c-10.752 0-19.456-8.704-19.456-19.456 0-10.752 8.704-19.456 19.456-19.456h445.44c10.752 0 19.456 8.704 19.456 19.456z" p-id="26687" fill="#237AE4"></path></svg>