<svg t="1732165860910" class="icon" viewBox="0 0 1024 1024" version="1.1" xmlns="http://www.w3.org/2000/svg" p-id="23736" width="48" height="48"><path d="M595.408 827.8c11.392 2.8 24.064 4.2 38.024 4.2 9.184 0 17.824-0.744 25.904-2.24 8.08-1.496 14.968-3.456 20.664-5.88v-36.416c-7.344 2.616-14.696 4.576-22.04 5.88-7.168 1.12-14.696 1.68-22.6 1.68-8.448 0-15.792-0.936-22.04-2.8a32.128 32.128 0 0 1-15.152-9.808c-4.04-4.848-7.072-11.296-9.096-19.32-1.84-8.224-2.752-18.68-2.752-31.376 0-11.952 0.912-21.944 2.752-29.968 2.024-8.032 5.056-14.48 9.096-19.328a32.264 32.264 0 0 1 15.424-10.648c6.248-2.24 13.688-3.36 22.32-3.36 8.08 0 15.616 0.648 22.6 1.96 6.976 1.12 13.408 2.704 19.28 4.76v-36.696c-11.76-4.296-26.632-6.44-44.64-6.44-14.136 0-26.904 1.68-38.296 5.04-11.2 3.36-20.848 8.96-28.928 16.808-8.08 7.84-14.328 18.208-18.736 31.096-4.224 12.696-6.336 28.384-6.336 47.056 0 20.352 2.2 37.064 6.608 50.136 4.408 12.888 10.656 23.064 18.736 30.536 8.08 7.28 17.824 12.328 29.208 15.128zM396.064 781.016h77.704l16.256 48.184h44.36l-70.808-194.4H407.36L336 829.2h43.536l16.528-48.184z m40.784-108.96l24.8 73.672h-53.456l25.352-73.672h3.304z" fill="#237AE4" p-id="23737"></path><path d="M512 960c247.424 0 448-200.576 448-448S759.424 64 512 64 64 264.576 64 512s200.576 448 448 448z m0-48c-216.896 0-393.48-172.64-399.824-388h49.632a32 32 0 0 0 29-18.472l64.96-139.184L340.608 554.24c10.72 23.728 43.76 25.408 56.84 2.896L512 359.864l114.544 197.28c13.072 22.504 46.128 20.824 56.84-2.904L768.576 365.6l68.664 140.456a32 32 0 0 0 28.744 17.944h45.84C905.48 739.36 728.904 912 512 912z m353.984-420l-68.664-140.448c-11.896-24.336-46.76-23.808-57.912 0.88l-85.192 188.64-114.544-197.28c-12.336-21.24-43.008-21.24-55.344 0l-114.544 197.28-84.856-187.896c-11.264-24.936-46.592-25.152-58.16-0.36L161.808 492h-49.32C122.912 280.376 297.792 112 512 112s389.088 168.376 399.512 380h-45.528z" fill="#237AE4" p-id="23738"></path></svg>