<?xml version="1.0" encoding="UTF-8"?>
<svg width="18px" height="18px" viewBox="0 0 18 18" version="1.1" xmlns="http://www.w3.org/2000/svg" xmlns:xlink="http://www.w3.org/1999/xlink">
    <title>waterNetworkTopology</title>
    <g id="页面-1" stroke="none" stroke-width="1" fill="none" fill-rule="evenodd">
        <g id="画板" transform="translate(-3371.000000, -140.000000)">
            <g id="waterNetworkTopology" transform="translate(3371.000000, 140.000000)">
                <path d="M13.3566406,5.278125 L15.5109375,5.278125 C16.3175781,5.278125 16.971875,4.621875 16.971875,3.81523437 L16.971875,1.66289062 C16.971875,0.85625 16.315625,0.2 15.5109375,0.2 L13.3566406,0.2 C12.55,0.2 11.8957031,0.85625 11.8957031,1.66289062 L11.8957031,2.10039062 L9.28046875,2.10039062 C8.24726562,2.10039062 7.40742187,2.8640625 7.40742187,3.8015625 L7.40742187,8.34648437 L5.878125,8.34648437 L5.878125,7.8640625 C5.878125,7.05742187 5.221875,6.40117187 4.41523437,6.40117187 L2.26289062,6.40117187 C1.45625,6.40117187 0.8,7.05742187 0.8,7.8640625 L0.8,10.0164062 C0.8,10.8230469 1.45625,11.4792969 2.26289062,11.4792969 L4.41523437,11.4792969 C5.221875,11.4792969 5.878125,10.8230469 5.878125,10.0164062 L5.878125,9.53398437 L7.40742187,9.53398437 L7.40742187,14.0789062 C7.40742187,15.0164062 8.24726562,15.7800781 9.28046875,15.7800781 L11.89375,15.7800781 L11.89375,16.2175781 C11.89375,17.0242187 12.55,17.6804687 13.3546875,17.6804687 L15.5089844,17.6804687 C16.315625,17.6804687 16.9699219,17.0242187 16.9699219,16.2175781 L16.9699219,14.0652344 C16.9699219,13.2585937 16.3136719,12.6023437 15.5089844,12.6023437 L13.3566406,12.6023437 C12.55,12.6023437 11.8957031,13.2585937 11.8957031,14.0652344 L11.8957031,14.5925781 L9.28046875,14.5925781 C8.91132812,14.5925781 8.596875,14.3582031 8.596875,14.0808594 L8.596875,9.5359375 L11.89375,9.5359375 L11.89375,10.0183594 C11.89375,10.825 12.55,11.48125 13.3546875,11.48125 L15.5089844,11.48125 C16.315625,11.48125 16.9699219,10.825 16.9699219,10.0183594 L16.9699219,7.8640625 C16.9699219,7.05742187 16.3136719,6.40117187 15.5089844,6.40117187 L13.3566406,6.40117187 C12.55,6.40117187 11.8957031,7.05742187 11.8957031,7.8640625 L11.8957031,8.34648437 L8.596875,8.34648437 L8.596875,3.8015625 C8.596875,3.52421875 8.91132812,3.28984375 9.28046875,3.28984375 L11.89375,3.28984375 L11.89375,3.8171875 C11.89375,4.621875 12.55,5.278125 13.3566406,5.278125 Z M4.690625,10.0164062 C4.690625,10.1648437 4.565625,10.2898437 4.4171875,10.2898437 L2.26289062,10.2898437 C2.11445312,10.2898437 1.98945312,10.1648437 1.98945312,10.0164062 L1.98945312,7.8640625 C1.98945312,7.715625 2.11445312,7.590625 2.26289062,7.590625 L4.41523437,7.590625 C4.56367187,7.590625 4.68867187,7.715625 4.68867187,7.8640625 L4.68867187,10.0164062 L4.690625,10.0164062 Z M13.0832031,14.0652344 C13.0832031,13.9167969 13.2082031,13.7917969 13.3566406,13.7917969 L15.5109375,13.7917969 C15.659375,13.7917969 15.784375,13.9167969 15.784375,14.0652344 L15.784375,16.2175781 C15.784375,16.3660156 15.659375,16.4910156 15.5109375,16.4910156 L13.3566406,16.4910156 C13.2082031,16.4910156 13.0832031,16.3660156 13.0832031,16.2175781 L13.0832031,14.0652344 L13.0832031,14.0652344 Z M13.0832031,7.8640625 C13.0832031,7.715625 13.2082031,7.590625 13.3566406,7.590625 L15.5109375,7.590625 C15.659375,7.590625 15.784375,7.715625 15.784375,7.8640625 L15.784375,10.0164062 C15.784375,10.1648437 15.659375,10.2898437 15.5109375,10.2898437 L13.3566406,10.2898437 C13.2082031,10.2898437 13.0832031,10.1648437 13.0832031,10.0164062 L13.0832031,7.8640625 L13.0832031,7.8640625 Z M13.0832031,1.66289062 C13.0832031,1.51445312 13.2082031,1.38945312 13.3566406,1.38945312 L15.5109375,1.38945312 C15.659375,1.38945312 15.784375,1.51445312 15.784375,1.66289062 L15.784375,3.81523437 C15.784375,3.96367187 15.659375,4.08867187 15.5109375,4.08867187 L13.3566406,4.08867187 C13.2082031,4.08867187 13.0832031,3.96367187 13.0832031,3.81523437 L13.0832031,1.66289062 L13.0832031,1.66289062 Z" id="形状" fill="#FFFFFF" fill-rule="nonzero"></path>
                <rect id="矩形" x="0" y="0" width="18" height="18"></rect>
            </g>
        </g>
    </g>
</svg>