<?xml version="1.0" encoding="UTF-8"?>
<svg width="18px" height="18px" viewBox="0 0 18 18" version="1.1" xmlns="http://www.w3.org/2000/svg" xmlns:xlink="http://www.w3.org/1999/xlink">
    <title>dmaPartitionLeakControl</title>
    <g id="页面-1" stroke="none" stroke-width="1" fill="none" fill-rule="evenodd">
        <g id="画板" transform="translate(-3399.000000, -105.000000)">
            <g id="dmaPartitionLeakControl" transform="translate(3399.000000, 105.000000)">
                <path d="M16.8881059,2.00672847 L1.14606303,2.00672847 C0.516980444,2.00672847 0.0129654736,2.48153605 0.0129654736,3.07467105 L0.0129654736,14.7359151 C0.0129654736,15.3290501 0.516231549,15.7866328 1.12808924,15.7866328 L16.8701321,15.7866328 C17.5014614,15.7866328 17.9860048,15.3118252 17.9860048,14.7359151 L17.9860048,3.07467105 C18.0047275,2.48003822 17.5014614,2.00672847 16.8903526,2.00672847 L16.8881059,2.00672847 Z M16.8881059,4.15983852 L12.0306896,6.51515369 L10.4115509,3.07467105 L16.9060797,3.07467105 L16.9060797,4.15983852 L16.8881059,4.15983852 L16.8881059,4.15983852 Z M6.30978261,9.2771258 L3.37780841,3.07467105 L9.15188787,3.07467105 L11.0054348,6.98996125 L6.30978261,9.27787471 L6.30978261,9.2771258 Z M11.4727533,7.97177943 L14.6758321,14.7344173 L8.88302996,14.7344173 L6.75912732,10.2447147 L11.4727533,7.97252835 L11.4727533,7.97177943 L11.4727533,7.97177943 Z M2.15334408,3.07467105 L5.30250156,9.75268229 L1.14606303,11.7694911 L1.14606303,3.07467105 L2.15334408,3.07467105 Z M1.14681195,12.9557611 L5.76982005,10.7187734 L7.65856563,14.7186902 L1.14606303,14.7186902 L1.14606303,12.9557611 L1.14681195,12.9557611 Z M15.8987986,14.7186902 L12.4815321,7.46476883 L16.8881059,5.32888366 L16.8881059,14.7007164 L15.8995475,14.7007164 L15.8995475,14.7179413 L15.8987986,14.7186902 Z" id="形状" fill="#FFFFFF" fill-rule="nonzero"></path>
                <rect id="矩形" x="0" y="0" width="18" height="18"></rect>
            </g>
        </g>
    </g>
</svg>