<?xml version="1.0" encoding="UTF-8"?>
<svg width="18px" height="18px" viewBox="0 0 18 18" version="1.1" xmlns="http://www.w3.org/2000/svg" xmlns:xlink="http://www.w3.org/1999/xlink">
    <title>aerograph</title>
    <g id="页面-1" stroke="none" stroke-width="1" fill="none" fill-rule="evenodd">
        <g id="图标3" transform="translate(-504.000000, -353.000000)">
            <g id="aerograph" transform="translate(504.000000, 353.000000)">
                <path d="M14.4972,8.633 C13.5867682,7.05273447 11.9037593,6.07680881 10.08,6.0716 C9.639,6.0716 9.2097,6.1274 8.7795,6.239 C8.16519755,5.50553202 7.25763547,5.08173942 6.3009,5.0816 C4.5162,5.0816 3.0519,6.5504 3.0519,8.3648 C3.0519,9.2549 3.4038,10.0892 4.0212,10.7012 C3.28747344,11.3168536 2.8638,12.2255983 2.8638,13.1834 C2.8638,14.7188 3.9654,16.0544 5.4531,16.3433 L5.4531,16.4 L14.1444,16.4 C16.2702,16.4 18,14.6531 18,12.5048 C17.9892,10.5023 16.4691,8.822 14.4972,8.6321 L14.4972,8.633 Z M6.0912,11.0585 L6.147,10.658 C6.28253259,9.71073114 6.75128323,8.84279259 7.4691,8.21 C8.1908673,7.57542143 9.11804638,7.22373282 10.0791,7.22 C11.2914,7.22 12.4479,7.787 13.1967,8.732 C12.3381,8.9552 11.5776,9.4673 11.0376,10.19 C10.9479873,10.3116441 10.908666,10.463128 10.9278,10.613 C10.9572471,10.8418778 11.1237063,11.0294464 11.3474632,11.0858825 C11.5712202,11.1423185 11.8067256,11.0561335 11.9412,10.8686 C12.4480814,10.1695782 13.2593417,9.75591577 14.1228,9.7562 C15.6204,9.7562 16.8435,10.9919 16.8435,12.5048 C16.8435,14.0186 15.6204,15.2543 14.1228,15.2543 L6.0372,15.2543 C4.9131,15.2426 4.0095,14.3084 4.0095,13.1843 C4.0095,12.1826 4.7151,11.3258 5.6952,11.1476 L6.0912,11.0585 L6.0912,11.0585 Z M4.18677746,8.3657 C4.18677746,7.1858 5.1453,6.2174 6.3126,6.2174 C6.8085,6.2174 7.2828,6.3956 7.6455,6.6962 C7.31509899,6.87789803 7.0049554,7.09421413 6.7203,7.3415 C5.9045993,8.07088901 5.33514888,9.03527577 5.0904,10.1018 C5.0796,10.1018 5.0796,10.1018 5.0679,10.1126 C4.51127494,9.70510297 4.18364748,9.05553719 4.18677746,8.3657 L4.18677746,8.3657 Z M9.7056,5.4722 L9.7173,5.4722 C9.86682338,5.47383481 10.0102867,5.41318897 10.1133,5.3048 L10.8189,4.6262 C11.0478426,4.40116104 11.0526623,4.03366558 10.8297,3.8027 C10.723826,3.69164905 10.5776897,3.6279161 10.4242704,3.62588406 C10.2708511,3.62385202 10.1230781,3.68369213 10.0143,3.7919 L9.3096,4.4705 C9.14226441,4.63524035 9.08965137,4.88407294 9.17598121,5.10244818 C9.26231104,5.32082341 9.47085095,5.46641494 9.7056,5.4722 L9.7056,5.4722 Z M6.1596,4.14740078 C6.3126,4.14740078 6.4566,4.0925 6.5664,3.9809 C6.67466561,3.87128147 6.7343366,3.7227526 6.732,3.5687 L6.732,2.5787 C6.73200961,2.26084196 6.47564843,2.00247168 6.1578,2 C5.84065583,2.00345278 5.58538121,2.26153704 5.5854,2.5787 L5.5854,3.5687 C5.58347244,3.72167102 5.6429557,3.86902872 5.75053748,3.97779458 C5.85811926,4.08656043 6.00481704,4.14765306 6.1578,4.14740078 L6.1596,4.14740078 Z M1.5633,7.5422 L0.5949,7.508 C0.27411101,7.50045303 0.00785867285,7.75421849 0,8.075 C0,8.2307 0.0549,8.3756 0.1539,8.4872 C0.260267627,8.59906488 0.407251523,8.66330949 0.5616,8.6654 L1.5642,8.69871141 C1.71560517,8.69965751 1.86116372,8.64030574 1.96873088,8.53375177 C2.07629803,8.42719781 2.13702464,8.28220745 2.1375,8.1308 C2.1375,7.8194 1.8837,7.5413 1.5642,7.5413 L1.5633,7.5422 Z M3.1608,4.8818 C3.15883851,4.72673873 3.09539021,4.57880059 2.9844,4.4705 L2.2797,3.7919 C2.17222769,3.68296651 2.02501269,3.62252061 1.872,3.6245 C1.71765152,3.62659051 1.57066763,3.69083512 1.4643,3.8027 C1.24133775,4.03366558 1.24615736,4.40116104 1.4751,4.6262 L2.1807,5.3048 C2.28492636,5.41142299 2.42759809,5.47173422 2.5767,5.4722 C2.7315,5.4722 2.8737,5.4164 2.9952,5.294 C3.10346561,5.18438147 3.1631366,5.0358526 3.1608,4.8818 Z" id="形状" fill="#FFFFFF" fill-rule="nonzero"></path>
                <rect id="矩形" x="0" y="0" width="18" height="18"></rect>
            </g>
        </g>
    </g>
</svg>