<?xml version="1.0" encoding="UTF-8"?>
<svg width="18px" height="18px" viewBox="0 0 18 18" version="1.1" xmlns="http://www.w3.org/2000/svg" xmlns:xlink="http://www.w3.org/1999/xlink">
    <title>data</title>
    <g id="页面-1" stroke="none" stroke-width="1" fill="none" fill-rule="evenodd">
        <g id="图标3" transform="translate(-505.000000, -276.000000)">
            <g id="data" transform="translate(505.000000, 276.000000)">
                <path d="M0.644578029,2 C0.967951773,2 1.23608239,2.23582162 1.2821609,2.54386001 L1.28915608,2.63827443 L1.23921765,14.836231 L17.355422,14.836231 C17.7111331,14.836231 18,15.1215752 18,15.4745055 C18,15.796295 17.7621367,16.0622487 17.4508472,16.1079446 L17.355422,16.1148811 L0.80426923,16.1148811 C0.678957987,16.1148811 0.55602463,16.0784129 0.4647567,16.0162737 C0.221387362,15.9461503 0.0434594546,15.7427262 0.00692447926,15.4970121 L3.99680289e-13,15.4030647 L3.99680289e-13,2.63827443 C3.99680289e-13,2.28674809 0.289573187,2 0.644578029,2 Z M9.85049204,4.00000773 C9.9551137,3.65657575 10.2888308,3.47157265 10.5970496,3.58976198 C10.766213,3.65512055 10.8952554,3.80061267 10.9529419,3.9746836 L10.9756941,4.06386195 L12.9513067,8.64819692 L14.7930795,8.66669789 C15.0424404,8.35892808 15.4413382,8.17332571 15.8740759,8.17332571 C16.6123291,8.17332571 17.2141512,8.71083608 17.2141512,9.37472177 C17.2141512,10.0399987 16.6131299,10.5761178 15.8740759,10.5761178 C15.4225586,10.5761178 15.012009,10.3755648 14.7972476,10.0686737 L14.7331243,9.96256741 L12.6718471,9.96256741 C12.5967163,9.96256741 12.5231317,9.94589591 12.4615753,9.91770371 C12.2748008,9.88522118 12.1148153,9.7556965 12.0312392,9.57429879 L11.9960484,9.4794863 L10.6987751,6.4205806 L8.94168843,13.0725857 C8.87115793,13.3057282 8.69062792,13.4717369 8.47958402,13.5095962 L8.34757738,13.5198991 C8.15669794,13.5198991 7.97793734,13.4148014 7.86896694,13.2415297 L7.82056459,13.1493836 L6.15001531,9.08815909 L5.02478211,10.8831104 C4.9407489,11.0671832 4.78319956,11.1948911 4.60006261,11.2276224 L4.50658372,11.2358946 L2.68274207,11.2358946 C2.35798058,11.2358946 2.09716562,10.9398344 2.09489644,10.5766082 C2.09489644,10.2472109 2.31000776,9.97358948 2.59364163,9.92656242 L2.68064087,9.91942295 L4.18060683,9.94284162 L5.70816459,7.50547296 C5.89562287,7.20599697 6.26376384,7.13522813 6.53036049,7.34851424 C6.57448398,7.38503024 6.61341274,7.42657655 6.64516302,7.47051519 L6.72002894,7.59212698 L8.26703594,10.8948734 L9.85049204,4.00000773 Z" id="形状" fill="#FFFFFF" fill-rule="nonzero"></path>
                <rect id="矩形" x="0" y="0" width="18" height="18"></rect>
            </g>
        </g>
    </g>
</svg>