<?xml version="1.0" encoding="UTF-8"?>
<svg width="18px" height="18px" viewBox="0 0 18 18" version="1.1" xmlns="http://www.w3.org/2000/svg" xmlns:xlink="http://www.w3.org/1999/xlink">
    <title>device</title>
    <g id="页面-1" stroke="none" stroke-width="1" fill="none" fill-rule="evenodd">
        <g id="图标3" transform="translate(-513.000000, -242.000000)">
            <g id="device" transform="translate(513.000000, 242.000000)">
                <path d="M13.4610999,7.05665098 C14.4817558,7.05665098 15.3302529,7.31488921 15.994294,7.8559598 C16.6337411,8.37243626 17.027247,9.08566567 17.1625146,9.9710539 L17.1625146,9.9710539 L15.8590264,9.9710539 C15.7114617,9.38079508 15.4286293,8.93810097 15.0105293,8.65526861 C14.5924293,8.37243626 14.0759529,8.23716862 13.4365058,8.23716862 C12.4896323,8.23716862 11.7764029,8.55689214 11.2968176,9.20863626 C10.8418264,9.79889508 10.6204794,10.610501 10.6204794,11.6311568 C10.6204794,12.6887039 10.8418264,13.5003098 11.2845205,14.0782715 C11.7518088,14.6931245 12.4773352,15.0005509 13.4610999,15.0005509 C14.100547,15.0005509 14.6416176,14.8406892 15.0597176,14.5209656 C15.5024117,14.176648 15.8098382,13.6601715 15.981997,12.9715362 L15.981997,12.9715362 L17.2854852,12.9715362 C17.0887323,13.9921921 16.6337411,14.7915009 15.9082146,15.3694627 C15.2318764,15.9105333 14.4202705,16.1810686 13.473397,16.1810686 C12.0346411,16.1810686 10.9524999,15.7137803 10.2269735,14.803798 C9.58752642,14.0167862 9.28009995,12.9592392 9.28009995,11.6311568 C9.28009995,10.3276686 9.59982348,9.27012155 10.2638647,8.44621862 C11.0016882,7.51164215 12.0592352,7.05665098 13.4610999,7.05665098 Z M5.40652644,7.2288098 L8.7882176,16.0089098 L7.34946173,16.0089098 L6.52555879,13.7462509 L2.75036175,13.7462509 L1.92645882,16.0089098 L0.5,16.0089098 L3.88169116,7.2288098 L5.40652644,7.2288098 Z M4.66870292,8.66756567 L4.61951468,8.66756567 L3.15616469,12.6395157 L6.11975585,12.6395157 L4.66870292,8.66756567 Z M10.164609,3.23171247 C11.2001295,4.33459792 12.5278109,4.61912146 14.1093471,4.07603089 C14.9261264,3.78201394 15.732163,3.03173262 16.4084114,2.48743248 C16.5413742,2.37304776 16.7144751,2.31643262 16.8893324,2.33014039 C17.0641897,2.34384815 17.2263536,2.42674607 17.3398675,2.56045309 C17.5780181,2.84068489 17.5470272,3.26021514 17.2702844,3.50241142 C16.4762131,4.14598841 15.5369353,4.97566135 14.576744,5.32605157 C14.0340277,5.52183974 13.4656794,5.63750509 12.8896117,5.66944378 C12.579991,5.68691533 12.2694044,5.67442792 11.9621913,5.63211492 C10.8965897,5.47248792 9.92052673,4.94612079 9.20192122,4.14382359 C8.15813586,3.03473092 6.80204025,2.75617153 5.16940322,3.31305556 C4.34436834,3.6049456 3.25501565,4.62219701 2.57197299,5.16931224 C2.29041861,5.40259277 1.87316546,5.36395173 1.63923933,5.08293351 C1.40588847,4.79987476 1.4432809,4.38184851 1.72316442,4.14469857 C2.53371258,3.49806229 3.76577702,2.40250838 4.74324053,2.05654322 C6.87733289,1.31992898 8.75297568,1.7309174 10.164609,3.23171247 Z" id="形状结合" fill="#FFFFFF" fill-rule="nonzero"></path>
                <rect id="矩形" x="0" y="0" width="18" height="18"></rect>
            </g>
        </g>
    </g>
</svg>