<?xml version="1.0" encoding="UTF-8"?>
<svg width="18px" height="18px" viewBox="0 0 18 18" version="1.1" xmlns="http://www.w3.org/2000/svg" xmlns:xlink="http://www.w3.org/1999/xlink">
    <title>propare</title>
    <g id="页面-1" stroke="none" stroke-width="1" fill="none" fill-rule="evenodd">
        <g id="图标3" transform="translate(-504.000000, -317.000000)">
            <g id="propare" transform="translate(504.000000, 317.000000)">
                <rect id="矩形" x="0" y="0" width="18" height="18"></rect>
                <path d="M11.5478248,2 C12.1503054,2 12.7273362,2.24258845 13.148599,2.67314381 C13.5231213,3.05592762 13.7464725,3.5585182 13.7822452,4.07973893 L13.7867962,4.27587238 L13.786,5.074 L14.5023048,5.0746962 C15.6854588,5.0790101 16.6533121,5.9956098 16.7391835,7.15961855 L16.7453638,7.3198181 L16.7446076,7.59779239 L16.8639695,7.61540858 C17.4248315,7.72330069 17.8668182,8.16528743 17.9747104,8.72614948 L17.99358,8.85759144 L18,8.99266572 L18,9.83524001 C18,10.2108038 17.8494259,10.5706822 17.5819381,10.8342933 C17.4290772,10.9849388 17.24534,11.0969548 17.0474095,11.1642797 L16.896561,11.2062991 L16.7322552,11.2302419 L16.73306,11.5101505 C16.7289457,12.6395248 15.8935929,13.5727266 14.8052744,13.7299156 L14.6481419,13.7470295 L14.4879419,13.7532095 L13.786,13.753 L13.786,15.396 L16.952381,15.3965771 L16.952381,16.5288229 L1,16.5288229 L1,15.3965771 L3.853,15.396 L3.853,13.753 L3.2906781,13.7532095 C2.10752404,13.7488956 1.1396708,12.8322968 1.05379935,11.6682881 L1.04761905,11.5080886 L1.04761905,7.31775524 C1.05193295,6.13460119 1.96853178,5.16674795 3.13254045,5.0808765 L3.29274,5.07469619 L3.853,5.074 L3.85364667,4.23897143 C3.85364667,3.05618489 4.77079549,2.0876097 5.93271898,2.00562166 L6.09261714,2 L11.5478248,2 Z M11.5478248,3.13224571 L6.09261714,3.13224571 C5.52213809,3.13224571 5.05247303,3.56387963 4.99238649,4.11838149 L4.98589238,4.23897143 L4.98561619,15.3842257 L12.6540067,15.3842257 L12.6546876,4.26338381 C12.6593799,4.05072052 12.6027135,3.84311649 12.4940503,3.66427235 L12.4226876,3.56060666 L12.3392952,3.46498095 C12.1310867,3.25217956 11.8458058,3.13224571 11.5478248,3.13224571 Z M3.82763714,6.20616 L3.29480286,6.2069381 C2.76194572,6.20887931 2.31694428,6.58309122 2.2062947,7.08173896 L2.18680762,7.19890762 L2.17986095,7.3198181 L2.17986095,11.5060257 C2.18195149,12.0798719 2.61578782,12.5518256 3.17183034,12.6140204 L3.29274,12.6209638 L3.82763714,12.6208457 L3.82763714,6.20616 Z M14.5002429,6.20694191 L13.835659,6.20616001 L13.835659,12.6208457 L14.48588,12.6209676 C15.0597261,12.6188771 15.5316799,12.1850408 15.5938747,11.6289982 L15.6008181,11.5080886 L15.6008181,10.1055419 L16.5934781,10.1056029 C16.6658527,10.1066673 16.7356304,10.0786595 16.7871848,10.0278524 C16.8215466,9.99398855 16.8459013,9.95186705 16.8583198,9.90608466 L16.8677543,9.83524001 L16.8677543,8.99266572 C16.8677543,8.86470861 16.7788434,8.75751809 16.6594309,8.7295036 L16.5974533,8.72236477 L15.6131181,8.72236477 L15.6131219,7.32188001 C15.610882,6.70704485 15.1130156,6.20917801 14.5002429,6.20694191 Z M9.68247619,5.90476191 L9.36514286,8.72656096 L10.952381,8.72656096 L8.4127619,12.2539686 L8.73009524,9.43216953 L7.14285714,9.43216953 L9.68247619,5.90476191 Z" id="形状结合" fill="#FFFFFF" fill-rule="nonzero"></path>
            </g>
        </g>
    </g>
</svg>