<svg xmlns="http://www.w3.org/2000/svg" width="36" height="36" viewBox="0 0 36 36">
  <g id="组_18" data-name="组 18" transform="translate(-175 -71)">
    <rect id="矩形_5" data-name="矩形 5" width="36" height="36" transform="translate(175 71)" fill="none"/>
    <g id="组_3" data-name="组 3" transform="translate(48.928 38.88)">
      <path id="路径_10" data-name="路径 10" d="M155.505,61.992h-.427V50.56a2.308,2.308,0,0,0-2.048-2.3V46.208h.427a.313.313,0,0,0,.256-.085h.085a.084.084,0,0,0,.085-.085.084.084,0,0,1,.085-.085l.085-.085v-.512l-.939-2.048h.341a.313.313,0,0,0,.256-.085h.085a.084.084,0,0,0,.085-.085.084.084,0,0,1,.085-.085l.085-.085v-.512l-.939-2.133h.341a.313.313,0,0,0,.256-.085h.085a.084.084,0,0,0,.085-.085.084.084,0,0,1,.085-.085l.085-.085v-.512l-1.365-2.9v-.085c-.085-.085-.085-.085-.085-.171l-.085-.085-.085-.085h-.768v-.512a.583.583,0,0,0-.6-.6.659.659,0,0,0-.683.6v.512h-.768a2698.984,2698.984,0,0,0-.171.171l-.085.085v.085L148,39.383v.512a899.42,899.42,0,0,1,.171.171l.085.085h.085c.085,0,.171.085.256.085h.427L148,42.454v.512a899.42,899.42,0,0,1,.171.171l.085.085h.085c.085,0,.171.085.256.085h.427l-.939,2.133v.512a539.657,539.657,0,0,0,.171.171l.085.085h.085c.085,0,.171.085.256.085h.341v2.048h-2.816V46.294h.427a.313.313,0,0,0,.256-.085h.085a.084.084,0,0,0,.085-.085.084.084,0,0,1,.085-.085l.085-.085V45.44l-1.109-2.133h.427a.313.313,0,0,0,.256-.085h.085a.084.084,0,0,0,.085-.085.084.084,0,0,1,.085-.085l.085-.085v-.512l-.939-2.133h.427a.313.313,0,0,0,.256-.085h.085a.084.084,0,0,0,.085-.085.084.084,0,0,1,.085-.085l.085-.085v-.512l-1.45-2.9v-.085a.084.084,0,0,0-.085-.085.084.084,0,0,1-.085-.085l-.085-.085h-.768v-.6a.583.583,0,0,0-.6-.6.659.659,0,0,0-.683.6v.512h-.768a2698.984,2698.984,0,0,0-.171.171l-.085.085-.085.085L141,39.383v.512a2698.984,2698.984,0,0,0,.171.171l.085.085h.085c.085,0,.171.085.256.085h.427l-.939,2.218v.512a899.42,899.42,0,0,1,.171.171l.085.085h.085c.085,0,.171.085.256.085h.427l-.939,2.133v.512a539.657,539.657,0,0,0,.171.171l.085.085h.085c.085,0,.171.085.256.085h.341v2.048h-2.816V46.294h.427a.313.313,0,0,0,.256-.085h.085a.084.084,0,0,0,.085-.085.084.084,0,0,1,.085-.085l.085-.085V45.44l-1.109-2.133h.427a.313.313,0,0,0,.256-.085h.085a.084.084,0,0,0,.085-.085.084.084,0,0,1,.085-.085l.085-.085v-.512l-.939-2.133h.427a.313.313,0,0,0,.256-.085h.085a.084.084,0,0,0,.085-.085.084.084,0,0,1,.085-.085l.085-.085v-.512l-1.365-2.9v-.085a.084.084,0,0,0-.085-.085l-.085-.085-.085-.085h-.768v-.6a.583.583,0,0,0-.6-.6c-.341,0-.768.256-.768.6v.512H135.8a539.691,539.691,0,0,0-.171.171l-.171.171v.085l-1.365,2.9v.512a899.407,899.407,0,0,0,.171.171l.085.085h.085c.085,0,.171.085.256.085h.427l-1.024,2.133v.512a539.691,539.691,0,0,0,.171.171l.085.085h.085c.085,0,.171.085.256.085h.427l-.939,2.133v.512a2698.622,2698.622,0,0,0,.171.171l.085.085h.085c.085,0,.171.085.256.085h.341v2.048a2.306,2.306,0,0,0-1.962,2.3V62.078h-.512a.583.583,0,0,0-.6.6v1.962a.583.583,0,0,0,.6.6h22.866a.583.583,0,0,0,.6-.6V62.59a.583.583,0,0,0-.6-.6Zm-6.058-16.979.768-1.792h1.536l.768,1.792Zm.427-2.9h-.427l.768-1.792h1.536l.768,1.792Zm0-2.986h-.427l.853-1.792h1.45l.768,1.792Zm.256,7.082h1.792v2.048H150.13Zm-7.593-1.194.768-1.792h1.45l.768,1.792Zm.427-2.9h-.427l.768-1.792h1.45l.768,1.792Zm0-2.986h-.427l.768-1.792h1.45l.768,1.792Zm.171,7.082h1.792v2.048h-1.792V46.208Zm-7.508-1.194.768-1.706h1.45l.768,1.792h-2.986Zm.341-2.9h-.341l.768-1.792h1.45l.768,1.792Zm0-2.986h-.341l.768-1.792h1.45l.768,1.792h-2.645Zm2.048,7.082v2.048h-1.792V46.208Zm-3.754,4.351a1.129,1.129,0,0,1,1.109-1.109h17.405a1.129,1.129,0,0,1,1.109,1.109V61.993H134.261Zm20.647,13.48H133.237v-.853h21.671v.853Z" transform="translate(0)" fill="#101010"/>
      <path id="路径_11" data-name="路径 11" d="M479.528,628.077v-.171a.084.084,0,0,0-.085-.085.084.084,0,0,0-.085-.085l-.085-.085-.085-.085h-.768l.427-1.024a.538.538,0,0,0-.256-.768.562.562,0,0,0-.768.256l-.853,1.877v.427a337.215,337.215,0,0,0,.171.171l.085.085.085.085c.085,0,.171.085.256.085h.6l-.427,1.024a.538.538,0,0,0,.256.768c.085,0,.171.085.256.085a.576.576,0,0,0,.512-.341l.853-1.877v-.171Z" transform="translate(-334.005 -571.972)" fill="#101010"/>
      <path id="路径_12" data-name="路径 12" d="M354.361,537.106a1.756,1.756,0,0,0-1.621-.853,1.737,1.737,0,0,0-1.365.768v.085l-3.5,6.143a1.55,1.55,0,0,0,0,1.706,1.76,1.76,0,0,0,1.45.853h7.081a1.671,1.671,0,0,0,1.45-2.56l-3.5-6.143Zm2.56,7.252a.532.532,0,0,1-.427.256h-7.081c-.256,0-.427-.171-.427-.256s-.085-.171-.085-.256a.313.313,0,0,1,.085-.256l3.5-6.143a.464.464,0,0,1,.427-.256.405.405,0,0,1,.427.256l3.5,6.143a.313.313,0,0,1,.085.256c.085.171,0,.256,0,.256Z" transform="translate(-208.753 -485.352)" fill="#101010"/>
    </g>
  </g>
</svg>
