<svg xmlns="http://www.w3.org/2000/svg" width="36" height="36" viewBox="0 0 36 36">
  <g id="组_19" data-name="组 19" transform="translate(-216 -71)">
    <rect id="矩形_6" data-name="矩形 6" width="36" height="36" transform="translate(216 71)" fill="none"/>
    <path id="路径_13" data-name="路径 13" d="M20.235,34.1a.615.615,0,0,1,.616.616v.645l7.557,4.729a.616.616,0,0,1-.326,1.137h-.364v.732h.365a.616.616,0,1,1,0,1.233h-.365v.238h.365a.617.617,0,0,1,0,1.233H27.7a.616.616,0,0,1-1.2,0H26.12a.616.616,0,1,1,0-1.232h.368v-.239H26.12a.615.615,0,1,1,0-1.231h.368v-.733H20.85v1.99l7.558,4.73a.615.615,0,0,1-.326,1.136h-.364v.733h.365a.617.617,0,0,1,0,1.232h-.365v.238h.365a.616.616,0,1,1,0,1.232h-.378a.615.615,0,0,1-1.2,0H26.12a.616.616,0,0,1,0-1.232h.368v-.238H26.12a.616.616,0,0,1,0-1.232h.368v-.733H21l3.155,13.988h6.872a.616.616,0,0,1,0,1.233H.616a.616.616,0,1,1,0-1.232H7.479l3.154-13.989H5.152v.733H5.52a.617.617,0,0,1,0,1.232H5.152v.238H5.52a.616.616,0,1,1,0,1.232H5.14a.615.615,0,1,1-1.206,0H3.557a.616.616,0,1,1,0-1.232h.365v-.238H3.557a.616.616,0,1,1,0-1.232h.365v-.733H3.557a.613.613,0,0,1-.572-.835.619.619,0,0,1,.247-.3l7.557-4.729V41.227H5.152v.732H5.52a.616.616,0,1,1,0,1.233H5.152v.238H5.52a.616.616,0,0,1,0,1.233H5.14a.615.615,0,1,1-1.2,0H3.557a.616.616,0,1,1,0-1.232h.365v-.239H3.557a.615.615,0,1,1,0-1.231h.365v-.733H3.557a.615.615,0,0,1-.325-1.136l7.557-4.729v-.646A.618.618,0,0,1,11.4,34.1h8.831Zm-4.418,24.35-6.6,2.519-.475,2.1H22.9l-.472-2.1-6.61-2.52Zm5.564-2.12-3.835,1.462L22.1,59.527l-.721-3.2Zm-11.12,0-.721,3.193,4.549-1.733-3.828-1.459Zm5.559-3.77-5.152,1.964-.134.593,5.283,2.014,5.289-2.015-.133-.591L15.82,52.563Zm4.337-1.655-2.612,1,3.1,1.184Zm-8.672,0-.492,2.179,3.1-1.182-2.61-1Zm8.26-1.826H11.9l-.14.615,4.061,1.55L19.885,49.7l-.139-.615h0Zm1.1-4.418V47.85h5.092l-5.091-3.185Zm-10.061,0L5.7,47.85H10.79Zm5.033,1.1L12.7,47.851h6.237l-3.116-2.082Zm-3.8-2.54v3.6l2.692-1.8-2.692-1.8Zm7.6.006-2.686,1.792,2.686,1.791V43.236Zm-.677-1.029H12.707l3.117,2.08,3.118-2.08Zm-3.122-3.311L12.7,40.974h6.235l-3.117-2.08Zm5.029-2.086V40h5.092l-5.091-3.186Zm-10.061,0L5.7,40H10.79V36.808Zm1.23-.451V39.95l2.693-1.794-2.691-1.8Zm7.6,0-2.688,1.793,2.688,1.794V36.361Zm-.677-1.029H12.7l3.122,2.082,3.121-2.082Z" transform="translate(218.179 39.812)"/>
  </g>
</svg>
