<svg xmlns="http://www.w3.org/2000/svg" width="36" height="36" viewBox="0 0 36 36">
  <g id="组_22" data-name="组 22" transform="translate(-356 -71)">
    <rect id="矩形_9" data-name="矩形 9" width="36" height="36" transform="translate(356 71)" fill="none"/>
    <path id="路径_21" data-name="路径 21" d="M65.567,43.6a1.537,1.537,0,1,0-1.537-1.537A1.488,1.488,0,0,0,65.567,43.6Zm11.62-5.146a1.537,1.537,0,1,0-1.537-1.537A1.547,1.547,0,0,0,77.187,38.456ZM70.179,38.2a1.262,1.262,0,1,0-1.262-1.262A1.308,1.308,0,0,0,70.179,38.2Zm12.672-1.068a1.262,1.262,0,1,0,1.262-1.262A1.3,1.3,0,0,0,82.851,37.129Zm6.214.259a1.036,1.036,0,1,0-1-1.068A.969.969,0,0,0,89.065,37.388Zm-24.033.275a1,1,0,1,0-1-1A.95.95,0,0,0,65.033,37.663Zm12.154-4.936a1.09,1.09,0,0,0,1.068-1,1,1,0,1,0-2.007,0C76.118,32.322,76.588,32.727,77.187,32.727Zm-5.47.534a.8.8,0,0,0,.793-.793.774.774,0,0,0-.793-.793.793.793,0,1,0,0,1.586Zm10.341,0-.793,0a.793.793,0,1,0,.793-.793A.793.793,0,0,0,81.265,33.261Zm7.8,10.066a1.537,1.537,0,1,0-1.537-1.537A1.507,1.507,0,0,0,89.065,43.327Zm-1.813,2.007a6.211,6.211,0,0,0-6.2-5.875h-.34a6.255,6.255,0,0,0-3.269,1.133,5.972,5.972,0,0,0-3.609-1.133,6.188,6.188,0,0,0-5.065,2.606,6.012,6.012,0,0,0-1.133,3.075,6.474,6.474,0,0,0,1.8,12.688,3.283,3.283,0,0,0,.793-.065,8.684,8.684,0,0,0,6.943,3.4A8.453,8.453,0,0,0,82.511,59.3a9.381,9.381,0,0,0,1.6-1.6,3.283,3.283,0,0,0,.793.065,6.472,6.472,0,0,0,6.473-6.473A6.383,6.383,0,0,0,87.253,45.334Zm-2.33,11.134a2.543,2.543,0,0,1-.664-.065l-.728-.065-.469.6a12.841,12.841,0,0,1-1.327,1.327,7.452,7.452,0,0,1-10.406-1.327l-.469-.6-.728.065c-.194,0-.4.065-.6.065a5.088,5.088,0,0,1-4.871-3.674A5.1,5.1,0,0,1,68.14,46.45l.874-.259.065-.939a4.785,4.785,0,0,1,4.807-4.4,4.7,4.7,0,0,1,2.8.939l.793.534.793-.534a5.081,5.081,0,0,1,2.606-.939h.259a4.845,4.845,0,0,1,4.871,4.6l.065.874.793.34a5.055,5.055,0,0,1,3.269,4.807,5.232,5.232,0,0,1-5.211,5ZM79.517,46.4a3.932,3.932,0,0,0-1.473.259,2.635,2.635,0,0,0-.874.6,2.735,2.735,0,0,0-.6.939,5.15,5.15,0,0,0-.34,1.732,3.27,3.27,0,0,0,.874,2.476,3.348,3.348,0,0,0,2.33.939,2.8,2.8,0,0,0,2.33-.939,3.467,3.467,0,0,0,.874-2.541,3.4,3.4,0,0,0-.874-2.541,2.587,2.587,0,0,0-2.25-.922Zm1.343,5.13a1.809,1.809,0,0,1-2.541.129l-.129-.129a3.074,3.074,0,0,1,0-3.463A1.888,1.888,0,0,1,80.8,48l.065.065a2.361,2.361,0,0,1,.469,1.667,2.905,2.905,0,0,1-.469,1.8Zm-6.878.275a1.546,1.546,0,0,1-2.136-.194,2.6,2.6,0,0,1-.469-1.8,2.544,2.544,0,0,1,.469-1.732,1.52,1.52,0,0,1,1.2-.534,1.451,1.451,0,0,1,1.408,1.133l1.327-.34a2.643,2.643,0,0,0-.664-1.2,3.057,3.057,0,0,0-2.007-.728,2.926,2.926,0,0,0-2.266.939,3.528,3.528,0,0,0-.874,2.606,3.27,3.27,0,0,0,.874,2.476,2.916,2.916,0,0,0,2.2.939,2.657,2.657,0,0,0,1.732-.534,2.754,2.754,0,0,0,1-1.6l-1.262-.4A1.481,1.481,0,0,1,73.982,51.807ZM84.728,53a3.016,3.016,0,0,1,.4-.259,2.93,2.93,0,0,0,.664-.6,1.093,1.093,0,0,0,.194-.6,1.611,1.611,0,0,0-.129-.534,1.964,1.964,0,0,0-.4-.34,3.47,3.47,0,0,0-.728-.129,1.454,1.454,0,0,0-.728.129.665.665,0,0,0-.4.34,1.093,1.093,0,0,0-.194.6l.939.065a1.067,1.067,0,0,1,.129-.4.508.508,0,0,1,.6,0,.324.324,0,0,1,0,.518,1.861,1.861,0,0,1-.534.469,3.663,3.663,0,0,0-.939.874,1.444,1.444,0,0,0-.259.793h2.8V53.2H84.663c-.081-.129,0-.194.065-.194Z" transform="translate(296.822 43.059)"/>
  </g>
</svg>
