<svg t="1723613095933" class="icon" viewBox="0 0 1024 1024" version="1.1" xmlns="http://www.w3.org/2000/svg" p-id="28103" width="32" height="32"><path d="M667.0336 260.3008h-199.0656c-10.0352 0-18.0224-8.192-18.0224-18.0224 0-10.0352 8.192-18.0224 18.0224-18.0224h199.0656c6.5536 0 12.4928 3.4816 15.7696 9.0112 3.2768 5.5296 3.2768 12.4928 0 18.0224-3.2768 5.5296-9.4208 9.0112-15.7696 9.0112z m0 189.6448h-199.0656c-10.0352 0-18.0224-8.192-18.0224-18.0224 0-10.0352 8.192-18.0224 18.0224-18.0224h199.0656c6.5536 0 12.4928 3.4816 15.7696 9.0112 3.2768 5.5296 3.2768 12.4928 0 18.0224-3.2768 5.5296-9.4208 9.0112-15.7696 9.0112zM425.5744 666.8288H199.0656c-6.5536 0-12.4928-3.4816-15.7696-9.0112-3.2768-5.5296-3.2768-12.4928 0-18.0224 3.2768-5.5296 9.216-9.0112 15.7696-9.0112h226.304c6.5536 0 12.4928 3.4816 15.7696 9.0112 3.2768 5.5296 3.2768 12.4928 0 18.0224-3.072 5.5296-9.216 9.0112-15.5648 9.0112zM286.72 434.5856c-42.5984 0-80.896-25.6-97.28-64.9216s-7.3728-84.5824 22.7328-114.688c30.1056-30.1056 75.3664-39.1168 114.688-22.7328 39.3216 16.384 64.9216 54.6816 64.9216 97.28 0 57.9584-47.104 105.0624-105.0624 105.0624z m0-174.2848c-27.8528 0-53.248 16.7936-63.8976 42.5984-10.6496 25.8048-4.9152 55.5008 14.9504 75.3664 19.6608 19.8656 49.3568 25.6 75.3664 14.9504 25.8048-10.6496 42.5984-35.84 42.5984-63.8976-0.2048-38.0928-30.9248-68.8128-69.0176-69.0176z m318.8736 435.6096c2.4576 0.8192 4.9152 1.6384 7.5776 2.4576l-7.5776-2.4576z m0 0" p-id="28104" fill="#ffffff"></path><path d="M960.512 767.5904c0-21.9136-13.9264-41.984-39.936-58.368 26.0096-16.1792 39.936-36.2496 39.936-58.1632 0-64.512-116.736-99.328-226.304-99.328S507.904 586.5472 507.904 651.0592c0 21.9136 13.9264 41.984 39.936 58.1632-26.0096 16.384-39.936 36.2496-39.936 58.368 0 21.9136 13.9264 41.7792 39.936 58.1632-26.0096 16.384-39.936 36.2496-39.936 58.1632 0 64.7168 116.736 99.5328 226.304 99.5328s226.304-34.816 226.304-99.328c0-21.9136-13.9264-41.984-39.936-58.1632 26.0096-16.384 39.936-36.4544 39.936-58.368z m-417.3824-116.5312c0-25.6 74.3424-63.0784 190.6688-63.0784s190.464 37.2736 190.464 63.0784c0 13.312-20.2752 29.4912-51.4048 41.3696-44.6464 15.1552-91.5456 22.528-138.6496 21.7088-26.624 0-53.0432-2.048-79.2576-6.144-20.2752-3.2768-40.1408-8.3968-59.392-15.5648-31.5392-11.8784-51.6096-28.0576-51.6096-41.3696h-0.8192z m381.1328 233.0624c0 25.8048-74.3424 63.0784-190.464 63.0784s-190.6688-37.2736-190.6688-63.0784c0-10.0352 10.0352-18.432 17.408-23.7568 6.5536-4.5056 13.312-8.192 20.48-11.264 3.2768-2.048 6.9632-3.4816 10.6496-3.6864 6.3488 1.4336 12.288 3.8912 17.8176 7.168 20.2752 6.9632 41.5744 10.8544 63.0784 11.264 22.7328 1.8432 45.2608 3.4816 69.0176 3.2768 23.552-0.2048 47.104-2.048 70.2464-5.5296 22.7328-3.2768 45.056-8.8064 66.7648-15.9744 27.648 11.264 45.2608 26.624 45.2608 38.912l0.4096-0.4096zM872.8576 808.96c-44.6464 15.1552-91.5456 22.528-138.6496 21.7088-31.9488 0.2048-63.6928-2.8672-95.0272-9.216-14.9504-3.072-29.696-7.3728-44.032-12.4928-31.3344-11.264-51.6096-28.0576-51.6096-41.3696s17.6128-27.4432 45.2608-38.912c1.2288-0.6144 3.2768 0.8192 4.5056 1.4336 28.4672 9.6256 58.1632 15.5648 88.2688 17.8176 32.3584 3.072 64.7168 3.2768 97.0752 0.6144 27.8528-2.048 55.7056-6.9632 82.7392-14.336 5.5296-2.048 11.264-3.8912 16.9984-5.12 2.6624 0 6.144 2.048 8.6016 3.072 2.4576 1.024 6.3488 3.072 9.4208 4.9152 5.3248 3.072 10.4448 6.3488 15.36 10.24 6.9632 4.7104 11.6736 12.0832 12.9024 20.48 0 13.312-20.6848 29.2864-51.4048 41.1648h-0.4096z m0 0" p-id="28105" fill="#ffffff"></path><path d="M447.488 929.1776H200.4992c-77.0048 0-139.4688-62.464-139.4688-139.4688V176.9472c0-77.0048 62.464-139.4688 139.4688-139.4688h499.712c77.0048 0 139.4688 62.464 139.6736 139.4688v318.8736c0 10.0352-8.192 18.0224-18.0224 18.0224s-18.0224-8.192-18.0224-18.0224V176.9472c0-56.9344-46.2848-103.2192-103.2192-103.2192h-499.712c-56.9344 0-103.2192 46.08-103.2192 103.2192v612.9664c0 56.9344 46.08 103.2192 103.2192 103.2192h246.9888c6.7584-0.6144 13.312 2.8672 16.7936 8.6016 3.4816 5.7344 3.4816 13.1072 0 18.8416-3.8912 5.9392-10.4448 9.216-17.2032 8.6016z m0 0" p-id="28106" fill="#ffffff"></path></svg>