<svg xmlns="http://www.w3.org/2000/svg" width="36" height="36" viewBox="0 0 36 36">
  <g id="组_29" data-name="组 29" transform="translate(-678 -71)">
    <rect id="矩形_46" data-name="矩形 46" width="36" height="36" transform="translate(678 71)" fill="none"/>
    <path id="路径_77" data-name="路径 77" d="M75.376,64H65.422A1.424,1.424,0,0,0,64,65.422v9.954A1.424,1.424,0,0,0,65.422,76.8h9.954A1.424,1.424,0,0,0,76.8,75.376V65.422A1.424,1.424,0,0,0,75.376,64Zm0,11.376H65.422V65.422h9.954Zm0,4.266H65.422A1.424,1.424,0,0,0,64,81.064v9.954a1.424,1.424,0,0,0,1.422,1.422h9.954A1.424,1.424,0,0,0,76.8,91.018V81.064A1.424,1.424,0,0,0,75.376,79.642Zm0,11.376H65.422V81.064h9.954ZM91.018,64H81.064a1.424,1.424,0,0,0-1.422,1.422v9.954A1.424,1.424,0,0,0,81.064,76.8h9.954a1.424,1.424,0,0,0,1.422-1.422V65.422A1.424,1.424,0,0,0,91.018,64Zm0,11.376H81.064V65.422h9.954ZM81.064,85.33a.71.71,0,0,0-.711.711v5.688a.711.711,0,0,0,1.422,0V86.041A.71.71,0,0,0,81.064,85.33Zm3.555,0a.71.71,0,0,0-.711.711v5.688a.711.711,0,0,0,1.422,0V86.041A.71.71,0,0,0,84.619,85.33Zm3.555-2.844a.71.71,0,0,0-.711.711v8.532a.711.711,0,0,0,1.422,0V83.2A.71.71,0,0,0,88.174,82.486Zm3.555-1.422a.71.71,0,0,0-.711.711v9.954a.711.711,0,0,0,1.422,0V81.775A.71.71,0,0,0,91.729,81.064Z" transform="translate(617.78 10.78)"/>
  </g>
</svg>
