<svg xmlns="http://www.w3.org/2000/svg" width="36" height="36" viewBox="0 0 36 36">
  <g id="组_15" data-name="组 15" transform="translate(-44 -71)">
    <g id="组_10" data-name="组 10">
      <rect id="矩形_1" data-name="矩形 1" width="36" height="36" transform="translate(44 71)" fill="none"/>
      <g id="组_1" data-name="组 1" transform="translate(-32.644 5.733)">
        <path id="路径_1" data-name="路径 1" d="M94.644,98.267a15,15,0,1,1,15-15A15.019,15.019,0,0,1,94.644,98.267Zm0-28.718a13.718,13.718,0,1,0,13.718,13.718A13.734,13.734,0,0,0,94.644,69.549Z" transform="translate(0)"/>
        <path id="路径_2" data-name="路径 2" d="M305.354,98.267c-4.3,0-7.635-6.6-7.635-15s3.336-15,7.635-15,7.635,6.6,7.635,15S309.589,98.267,305.354,98.267Zm0-28.718c-3.465,0-6.352,6.282-6.352,13.718s2.887,13.718,6.352,13.718,6.352-6.282,6.352-13.718S308.755,69.549,305.354,69.549Z" transform="translate(-210.71)"/>
        <path id="路径_3" data-name="路径 3" d="M185.507,231.038a24.069,24.069,0,0,1-11.477-2.95.66.66,0,0,1,.641-1.154,22.674,22.674,0,0,0,10.836,2.758,22.268,22.268,0,0,0,10.9-2.822.66.66,0,0,1,.641,1.154,23.485,23.485,0,0,1-11.541,3.014Zm-11.028,15.328a.673.673,0,0,1-.577-.321.649.649,0,0,1,.256-.9,23.738,23.738,0,0,1,22.57-.064.66.66,0,0,1-.641,1.154,22.055,22.055,0,0,0-10.644-2.694,23.053,23.053,0,0,0-10.708,2.694c-.064.128-.128.128-.256.128Z" transform="translate(-90.863 -153.159)"/>
        <path id="路径_4" data-name="路径 4" d="M109,498.111H80.285a.64.64,0,1,1,0-1.281H109a.605.605,0,0,1,.641.64A.642.642,0,0,1,109,498.111Z" transform="translate(0 -414.075)"/>
      </g>
    </g>
  </g>
</svg>
