<svg xmlns="http://www.w3.org/2000/svg" width="36" height="36" viewBox="0 0 36 36">
  <g id="组_16" data-name="组 16" transform="translate(-90 -71)">
    <rect id="矩形_2" data-name="矩形 2" width="36" height="36" transform="translate(90 71)" fill="none"/>
    <path id="路径_36" data-name="路径 36" d="M84.416,59.9H63.946A4.042,4.042,0,0,0,59.9,63.946V80.132a4.042,4.042,0,0,0,4.042,4.042h9.427v2.668H64.981a.808.808,0,0,0,0,1.617H83.365a.808.808,0,0,0,0-1.617H74.99V84.174h9.427a4.042,4.042,0,0,0,4.042-4.042V63.946A4.042,4.042,0,0,0,84.416,59.9Zm2.425,20.228a2.422,2.422,0,0,1-2.425,2.425H63.946a2.422,2.422,0,0,1-2.425-2.425V63.946a2.422,2.422,0,0,1,2.425-2.425H84.432a2.422,2.422,0,0,1,2.425,2.425V80.132ZM79.76,68.021l-3.67,3.622a3.671,3.671,0,1,0,1.132,1.148l3.67-3.606a.815.815,0,0,0-.032-1.148.8.8,0,0,0-1.1,0Zm-5.578,8.65a1.989,1.989,0,1,1,1.989-1.989A1.989,1.989,0,0,1,74.181,76.671Zm-5.546-7.535a7.83,7.83,0,0,1,8.6-1.682.815.815,0,1,0,.631-1.5A9.478,9.478,0,0,0,65.45,78.369a.815.815,0,0,0,1.5-.631A7.829,7.829,0,0,1,68.635,69.137Zm13.21,1.423a.823.823,0,0,0-.437,1.051,7.858,7.858,0,0,1,0,6.112.815.815,0,0,0,1.5.631,9.556,9.556,0,0,0,0-7.373.8.8,0,0,0-1.051-.42Z" transform="translate(33.819 14.819)"/>
  </g>
</svg>
