<svg xmlns="http://www.w3.org/2000/svg" width="36" height="36" viewBox="0 0 36 36">
  <g id="组_17" data-name="组 17" transform="translate(-135 -71)">
    <rect id="矩形_4" data-name="矩形 4" width="36" height="36" transform="translate(135 71)" fill="none"/>
    <g id="组_2" data-name="组 2" transform="translate(60.867 30.77)">
      <path id="路径_8" data-name="路径 8" d="M254.771,55.19c.087,0,.087-.087,0,0a.269.269,0,0,0,.087-.174v-.174c0-.087,0-.087-.087-.087v-.087l-.087-.087L254.6,54.5h-.087a.085.085,0,0,1-.087-.087h-.174l-6.167.782,2.085-11.466V43.55a799.28,799.28,0,0,1-.174-.174c0-.087-.087-.087-.174-.174h-.087a.783.783,0,0,0-.434-.087.3.3,0,0,0-.174.087l-.174.174L237.224,61.184v.087a.085.085,0,0,1-.087.087v.261a2796.994,2796.994,0,0,1,.174.174l.087.087h.434L244,61.1,241.915,72.65V73a.085.085,0,0,0,.087.087c0,.087.087.087.174.174a.3.3,0,0,1,.174.087h.087a.319.319,0,0,0,.261-.087h.087c.087,0,.087-.087.174-.174L254.771,55.19ZM245.3,60.663v-.174a.085.085,0,0,0-.087-.087l-.087-.087-.087-.087a932.509,932.509,0,0,1-.174-.174h-.174l-5.646.782,9.295-14.506-1.65,9.381v.261a799.293,799.293,0,0,0,.174.174l.087.087a621.669,621.669,0,0,1,.174.174h.261l5.733-.782-9.468,14.506,1.65-9.381v-.087Z" transform="translate(-153.864)" fill="#101010"/>
      <path id="路径_9" data-name="路径 9" d="M85.705,105.772a12.761,12.761,0,0,1,5.038-23.714.557.557,0,0,0,.521-.695c0-.347-.261-.521-.608-.521A13.971,13.971,0,0,0,85.1,106.814c.087.087.174.087.347.087a.619.619,0,0,0,.521-.261.6.6,0,0,0-.261-.869Zm13.117-23.28a.62.62,0,0,0-.869.261.515.515,0,0,0,.261.782A12.836,12.836,0,0,1,104.9,94.74a12.685,12.685,0,0,1-10.424,12.509.661.661,0,0,0-.521.695.745.745,0,0,0,.608.521h.087a13.939,13.939,0,0,0,4.169-25.973Z" transform="translate(0 -36.51)" fill="#101010"/>
    </g>
  </g>
</svg>
