<svg xmlns="http://www.w3.org/2000/svg" width="36" height="36" viewBox="0 0 36 36">
  <g id="组_28" data-name="组 28" transform="translate(-601 -9)">
    <rect id="矩形_45" data-name="矩形 45" width="36" height="36" transform="translate(601 9)" fill="none"/>
    <g id="组_27" data-name="组 27" transform="translate(478.1 -52.1)">
      <path id="路径_68" data-name="路径 68" d="M140.8,89.11H130.251a2.353,2.353,0,0,1-2.351-2.351V66.451a2.353,2.353,0,0,1,2.351-2.351h18.073l.484.2,4.7,4.869.188.467v9.533h-1.343V69.913l-4.315-4.469H130.251a1.01,1.01,0,0,0-1.007,1.007V86.759a1.01,1.01,0,0,0,1.007,1.007h8.267L137.134,86.6,138,85.574l2.8,2.351V89.11Z"/>
      <path id="路径_69" data-name="路径 69" d="M684.924,650.2l-2.824,4.107h2.119l-1.276,2.851h.85l2.713-4.211h-1.951l1.3-2.747Z" transform="translate(-535.59 -566.419)"/>
      <path id="路径_70" data-name="路径 70" d="M587.058,581.353h-6.316a.674.674,0,0,1-.672-.672v-2.515a2.339,2.339,0,0,0-.279-.326c-.054-.057-.111-.114-.165-.175a5.694,5.694,0,0,1,4.245-9.466h.01a5.689,5.689,0,0,1,4.13,9.6l-.034.037a2.045,2.045,0,0,0-.252.3v2.545A.666.666,0,0,1,587.058,581.353Zm-5.645-1.343h4.976v-1.84a1.754,1.754,0,0,1,.621-1.256l.034-.034a4.345,4.345,0,0,0-3.157-7.334h-.007a4.346,4.346,0,0,0-3.244,7.23c.034.037.081.084.128.134a1.8,1.8,0,0,1,.655,1.259v1.84ZM586.39,578.183Z" transform="translate(-435.172 -487.172)"/>
      <path id="路径_71" data-name="路径 71" d="M131.75,860.425l-3.15-2.2V857h12.874v1.343H131.115l1.4.981Z" transform="translate(-0.677 -766.275)"/>
      <path id="路径_72" data-name="路径 72" d="M491.12,345.293l1.343-.008.06,9.611-1.343.008Z" transform="translate(-351.023 -271.743)"/>
      <path id="路径_73" data-name="路径 73" d="M352,362.6h10.745v1.343H352Zm0,3.67h10.745v1.343H352Z" transform="translate(-216.575 -288.477)"/>
      <path id="路径_74" data-name="路径 74" d="M497.6,222.317l4.082-4.082.95.95-4.082,4.082Z" transform="translate(-357.289 -148.959)"/>
      <path id="路径_75" data-name="路径 75" d="M376.614,219.291l.95-.95,4.082,4.082-.95.95Z" transform="translate(-240.362 -149.062)"/>
    </g>
  </g>
</svg>
