<svg xmlns="http://www.w3.org/2000/svg" width="36" height="36" viewBox="0 0 36 36">
  <g id="组_20" data-name="组 20" transform="translate(-261 -71)">
    <rect id="矩形_7" data-name="矩形 7" width="36" height="36" transform="translate(261 71)" fill="none"/>
    <path id="路径_17" data-name="路径 17" d="M28.538,87.851a.735.735,0,0,1,0-1.47h3.723l-1.322-3.946a.736.736,0,0,1,1.4-.466l1.478,4.411h5.8l-1.322-3.946a.736.736,0,1,1,1.4-.466l1.478,4.411h5.785l-1.575-4.705A1.707,1.707,0,0,0,43.758,80.5h-18.6a.476.476,0,0,0-.392.2.486.486,0,0,0-.074.441l1.872,5.616a.705.705,0,0,1,.062.56l-1.961,7.352a.758.758,0,0,1-.711.539.539.539,0,0,1-.2-.025.722.722,0,0,1-.515-.907l1.9-7.124L23.295,81.6a1.975,1.975,0,0,1,.27-1.765,1.94,1.94,0,0,1,1.593-.809h18.6a3.164,3.164,0,0,1,3.014,2.181l1.843,5.541A.738.738,0,0,1,48.7,87l1.871,5.626a1.975,1.975,0,0,1-.27,1.765,1.9,1.9,0,0,1-1.568.809h-18.6a3.164,3.164,0,0,1-3.014-2.181l-.27-.784a.736.736,0,1,1,1.4-.466l.27.784a1.707,1.707,0,0,0,1.617,1.176h4.579L33.39,89.787a.736.736,0,0,1,1.4-.466l1.478,4.411h5.8l-1.322-3.946a.736.736,0,0,1,1.4-.466l1.478,4.411h5.116A.488.488,0,0,0,49.2,93.1l-1.756-5.244Zm13.8-17.89a.735.735,0,0,0,1.47,0V68.735a.735.735,0,0,0-1.47,0Zm-4.9,1.74a.739.739,0,0,0,.637.368.554.554,0,0,0,.368-.123.729.729,0,0,0,.27-1L38.1,69.887a.743.743,0,0,0-1-.245.729.729,0,0,0-.27,1Zm-3.259,3.872a.692.692,0,0,0,.368.1.739.739,0,0,0,.637-.368.723.723,0,0,0-.27-1l-1.078-.613A.736.736,0,0,0,33.1,74.96Zm13.356-3.7a.692.692,0,0,0,.368.1.8.8,0,0,0,.637-.368l.613-1.078a.7.7,0,0,0-.27-1,.744.744,0,0,0-1,.27l-.613,1.078A.723.723,0,0,0,47.53,71.872Zm3.333,3.259a.739.739,0,0,0,.637.368.516.516,0,0,0,.368-.123l1.054-.613a.729.729,0,0,0,.269-1,.743.743,0,0,0-1-.245l-1.054.613A.729.729,0,0,0,50.863,75.132ZM48.93,81.7a.311.311,0,0,0,.147.025.708.708,0,0,0,.711-.588,6.363,6.363,0,0,0,.147-1.372A6.857,6.857,0,0,0,36.75,77.117a.731.731,0,0,0,1.348.564,5.393,5.393,0,0,1,10.366,2.083,5.193,5.193,0,0,1-.1,1.078A.71.71,0,0,0,48.93,81.7Z" transform="translate(240.757 7.399)"/>
  </g>
</svg>
