<svg xmlns="http://www.w3.org/2000/svg" width="36" height="36" viewBox="0 0 36 36">
  <g id="组_21" data-name="组 21" transform="translate(-310 -71)">
    <rect id="矩形_8" data-name="矩形 8" width="36" height="36" transform="translate(310 71)" fill="none"/>
    <g id="组_5" data-name="组 5" transform="translate(275.1 28.466)">
      <path id="路径_18" data-name="路径 18" d="M210.506,80.533h-8.4l13.288-15.859-3.429,11.4h7.8l-13.63,17.06Z" transform="translate(-159.149 -18.369)" fill="none" stroke="#707070" stroke-width="1"/>
      <path id="路径_19" data-name="路径 19" d="M202.912,57.449a.7.7,0,0,0-.514-.343h-7.03l3.172-10.63a.54.54,0,0,0-.257-.686.558.558,0,0,0-.772.171l-13.2,15.859a.528.528,0,0,0-.086.6.7.7,0,0,0,.514.343h7.544l-4.115,11.83a.54.54,0,0,0,.257.686.315.315,0,0,0,.257.086.471.471,0,0,0,.429-.257l13.63-17.06a.452.452,0,0,0,.171-.6ZM190.482,71.68l3.258-9.258a.526.526,0,0,0-.086-.514.733.733,0,0,0-.514-.257h-7.115l10.544-12.687L194,57.535a.567.567,0,0,0,.086.514.518.518,0,0,0,.514.257h6.6Z" transform="translate(-141.782)"/>
      <path id="路径_20" data-name="路径 20" d="M44.5,260.994H39.784a.768.768,0,0,1-.772-.772V247.364a.768.768,0,0,1,.772-.772h4.8a.676.676,0,0,0,.686-.686c0-.429-.429-.6-.772-.6H39.784a2.086,2.086,0,0,0-2.057,2.057v12.859a2.086,2.086,0,0,0,2.057,2.057h4.8a.676.676,0,0,0,.686-.686c0-.429-.429-.6-.772-.6Zm21.517-10.63h-.257v-3.086a2.086,2.086,0,0,0-2.057-2.057H58.215a.676.676,0,0,0-.686.686.631.631,0,0,0,.686.686H63.7a.768.768,0,0,1,.772.772v12.859a.768.768,0,0,1-.772.772H58.215a.676.676,0,0,0-.686.686.631.631,0,0,0,.686.686H63.7a2.086,2.086,0,0,0,2.057-2.057v-3.172h.257a2.086,2.086,0,0,0,2.057-2.057v-2.658A2.031,2.031,0,0,0,66.016,250.364Zm.772,4.715a.768.768,0,0,1-.772.772h-.257v-4.2h.257a.768.768,0,0,1,.772.772Z" transform="translate(0 -193.172)"/>
    </g>
  </g>
</svg>
