<svg xmlns="http://www.w3.org/2000/svg" width="36" height="36" viewBox="0 0 36 36">
  <g id="组_26" data-name="组 26" transform="translate(-550 -71)">
    <rect id="矩形_14" data-name="矩形 14" width="36" height="36" transform="translate(550 71)" fill="none"/>
    <g id="组_8" data-name="组 8" transform="translate(504.973 24.973)">
      <path id="路径_32" data-name="路径 32" d="M63.027,49A15.027,15.027,0,1,0,78.053,64.027,15.028,15.028,0,0,0,63.027,49Zm0,28.98A13.953,13.953,0,1,1,76.98,64.027,13.953,13.953,0,0,1,63.027,77.98Z" transform="translate(0 0)"/>
      <path id="路径_33" data-name="路径 33" d="M243.864,242.1a3.621,3.621,0,0,0-1.672.377.541.541,0,0,0-.161.864l1.833,1.833-.649.649-1.833-1.833a.489.489,0,0,0-.377-.161.517.517,0,0,0-.484.323,3.794,3.794,0,0,0,.7,4.372,3.622,3.622,0,0,0,2.644,1.079,3.176,3.176,0,0,0,1.241-.215l5.991,5.989a3.822,3.822,0,0,0,.865,3.938,3.821,3.821,0,0,0,4.316.7.541.541,0,0,0,.161-.864l-1.833-1.833.649-.649,1.833,1.833a.489.489,0,0,0,.377.161.517.517,0,0,0,.484-.323,3.794,3.794,0,0,0-.7-4.372,3.844,3.844,0,0,0-3.939-.864l-5.995-5.989a3.822,3.822,0,0,0-.865-3.938A3.636,3.636,0,0,0,243.864,242.1Zm-.7,4.856a1.076,1.076,0,0,0,.757-.323l.649-.649a1.044,1.044,0,0,0,0-1.51l-1.241-1.241c.161,0,.323-.054.484-.054a2.531,2.531,0,0,1,1.891.81,2.716,2.716,0,0,1,.649,2.8,1.025,1.025,0,0,0,.269,1.133l5.991,5.989a1.065,1.065,0,0,0,.757.323.916.916,0,0,0,.377-.054,2.635,2.635,0,0,1,2.809.649,2.627,2.627,0,0,1,.757,2.374l-1.241-1.241a1.049,1.049,0,0,0-1.514,0l-.649.649a1.064,1.064,0,0,0-.323.757,1.076,1.076,0,0,0,.323.757l1.241,1.241c-.161,0-.323.054-.484.054a2.531,2.531,0,0,1-1.891-.81,2.716,2.716,0,0,1-.649-2.8,1.025,1.025,0,0,0-.269-1.133l-5.995-5.993a1.064,1.064,0,0,0-.757-.323,1.052,1.052,0,0,0-.377.054,2.635,2.635,0,0,1-2.809-.649,2.627,2.627,0,0,1-.757-2.374l1.241,1.241A1.089,1.089,0,0,0,243.161,246.956Z" transform="translate(-186.219 -187.168)"/>
      <path id="路径_34" data-name="路径 34" d="M252.276,252.378a1.078,1.078,0,0,0-.758.324l-3.894,3.893a1.047,1.047,0,0,0,0,1.514l1.514,1.514a1.067,1.067,0,0,0,.759.324,1.078,1.078,0,0,0,.758-.324l3.894-3.894a1.047,1.047,0,0,0,0-1.514l-1.514-1.514A.916.916,0,0,0,252.276,252.378Zm-2.326,6.489-1.514-1.514,3.894-3.9,1.514,1.514ZM263.093,243.4l.758.758-1.894,1.895-.381-.381-.378-.378,1.895-1.895m0-1.3a.49.49,0,0,0-.378.162l-2.65,2.65a.525.525,0,0,0,0,.758l.378.378-2.65,2.65a.525.525,0,0,0,0,.758.521.521,0,0,0,.755,0l2.65-2.65.378.378a.521.521,0,0,0,.755,0l2.65-2.65a.525.525,0,0,0,0-.758l-1.51-1.514A.42.42,0,0,0,263.093,242.1Z" transform="translate(-193.178 -187.168)"/>
    </g>
  </g>
</svg>
