<svg xmlns="http://www.w3.org/2000/svg" width="36" height="36" viewBox="0 0 36 36">
  <g id="组_23" data-name="组 23" transform="translate(-401 -71)">
    <rect id="矩形_10" data-name="矩形 10" width="36" height="36" transform="translate(401 71)" fill="none"/>
    <g id="组_7" data-name="组 7" transform="translate(-125 -54)">
      <g id="组_6" data-name="组 6" transform="translate(528.523 130.383)">
        <path id="路径_22" data-name="路径 22" d="M233.575,197.719h-2.292a.666.666,0,0,0,0,1.326h2.292a.666.666,0,0,0,0-1.326Zm4.925,0h-2.28a.666.666,0,0,0,0,1.326h2.28a.666.666,0,0,0,0-1.326Zm-4.925,5.9h-2.292a.666.666,0,0,0,0,1.329h2.292a.666.666,0,0,0,0-1.329Zm4.925,0h-2.28a.666.666,0,0,0,0,1.329h2.28a.666.666,0,0,0,0-1.329Zm-4.925,5.914h-2.292a.666.666,0,0,0,0,1.326h2.292a.666.666,0,0,0,0-1.326Zm4.925,0h-2.28a.666.666,0,0,0,0,1.326h2.28a.666.666,0,0,0,0-1.326Z" transform="translate(-224.978 -192.847)"/>
        <path id="路径_23" data-name="路径 23" d="M19.23,23.855H16.822V4.916a2.1,2.1,0,0,0,.432.044h7.058A2.349,2.349,0,0,1,26.654,7.3v3.481a.585.585,0,1,0,1.17,0V7.3A3.521,3.521,0,0,0,24.312,3.79H17.238a2.108,2.108,0,0,0-.432.041V1.983A1.9,1.9,0,0,0,14.992,0H4.672A1.9,1.9,0,0,0,2.858,1.983V23.855H.5c-.275,0-.5.313-.5.663s.225.663.5.663H19.23c.278,0,.5-.313.5-.663s-.238-.663-.5-.663Zm-3.621,0H4.078V1.983a.625.625,0,0,1,.6-.657H15a.625.625,0,0,1,.6.657Z"/>
        <path id="路径_24" data-name="路径 24" d="M725.664,486.936a6.617,6.617,0,1,0,6.617,6.633A6.617,6.617,0,0,0,725.664,486.936Zm5.479,6.633a5.479,5.479,0,1,1-5.479-5.495A5.479,5.479,0,0,1,731.143,493.569Z" transform="translate(-701.328 -474.937)"/>
      </g>
      <path id="路径_25" data-name="路径 25" d="M219.8,20.3h-.94c-.2,0-.772.1-.965-.021-.039-.137.086-.386.12-.506.1-.348.193-.691.292-1.043l.42-1.515a.17.17,0,0,0-.309-.133l-3.4,4.664a.174.174,0,0,0,.15.257h1.377c.094,0,.459-.06.519.03.056.073-.051.3-.073.382-.257.892-.506,1.785-.755,2.677a.17.17,0,0,0,.309.133l3.394-4.664A.171.171,0,0,0,219.8,20.3Z" transform="translate(335.504 127.992)"/>
    </g>
  </g>
</svg>
