<svg t="1739254254470" class="icon" viewBox="0 0 1024 1024" version="1.1" xmlns="http://www.w3.org/2000/svg" p-id="14708" width="36" height="36"><path d="M422.897086 953.92291H98.475028V73.169554h324.422058v880.753356z m-319.302084-5.119974h314.182109V78.289529H103.595002v870.513407z" fill="#ffffff" p-id="14709"></path><path d="M1003.635302 1023.99488H23.042445a15.359923 15.359923 0 0 1-15.359923-15.359923V18.442148a15.359923 15.359923 0 0 1 15.359923-15.359923h980.331738a15.359923 15.359923 0 0 1 15.359923 15.359923v988.185779c0.08704 0.660477 0.133119 1.331193 0.13312 2.01215a15.242164 15.242164 0 0 1-15.231924 15.354803zM38.402368 993.275034h949.611892V33.802071H38.402368V993.275034z" fill="#ffffff" p-id="14710"></path><path d="M420.357578 956.477778H101.060615a5.119974 5.119974 0 0 1-5.119975-5.119975V75.724421a5.119974 5.119974 0 0 1 5.119975-5.119974h319.296963a5.119974 5.119974 0 0 1 5.119975 5.119974v875.633382a5.119974 5.119974 0 0 1-5.119975 5.119975z m-314.176989-10.239949h309.057015V80.844396H106.180589v865.393433z" fill="#ffffff" p-id="14711"></path><path d="M378.844826 478.364328h-232.600437V210.507747h232.600437v267.856581z m-227.480463-5.119974h222.360488V215.627722h-222.360488v257.616632zM378.844826 902.656607h-232.600437v-267.856581h232.600437v267.856581z m-227.480463-5.119975h222.360488v-257.616632h-222.360488v257.616632z" fill="#ffffff" p-id="14712"></path><path d="M636.978575 105.435633m-19.225504 0a19.225504 19.225504 0 1 0 38.451008 0 19.225504 19.225504 0 1 0-38.451008 0Z" fill="#ffffff" p-id="14713"></path><path d="M636.978575 252.711696m-19.225504 0a19.225504 19.225504 0 1 0 38.451008 0 19.225504 19.225504 0 1 0-38.451008 0Z" fill="#ffffff" p-id="14714"></path><path d="M636.983695 407.334923m-19.225504 0a19.225504 19.225504 0 1 0 38.451008 0 19.225504 19.225504 0 1 0-38.451008 0Z" fill="#ffffff" p-id="14715"></path><path d="M636.978575 164.755656m-19.225504 0a19.225504 19.225504 0 1 0 38.451008 0 19.225504 19.225504 0 1 0-38.451008 0Z" fill="#ffffff" p-id="14716"></path><path d="M636.978575 333.822331c-12.01658 0-21.790611-9.774031-21.790611-21.785491s9.774031-21.785491 21.790611-21.785491c12.01146 0 21.785491 9.774031 21.785491 21.785491s-9.774031 21.785491-21.785491 21.785491z m0-38.451008c-9.190354 0-16.670637 7.475163-16.670637 16.665517s7.480283 16.665517 16.670637 16.665516 16.665517-7.475163 16.665517-16.665516-7.475163-16.665517-16.665517-16.665517zM636.983695 488.445558a21.811091 21.811091 0 0 1-21.790611-21.790611 21.811091 21.811091 0 0 1 21.790611-21.780371 21.800851 21.800851 0 0 1 21.780371 21.780371 21.811091 21.811091 0 0 1-21.780371 21.790611z m0-38.451008a16.680877 16.680877 0 0 0-16.670637 16.660397 16.691117 16.691117 0 0 0 16.670637 16.670636 16.680877 16.680877 0 0 0 16.660397-16.670636 16.680877 16.680877 0 0 0-16.660397-16.660397zM855.616842 119.495083h-139.324743v-28.12402h139.324743v28.12402z m-134.204769-5.119975h129.084795v-17.88407h-129.084795v17.88407zM855.616842 174.683287h-139.324743v-28.12402h139.324743v28.12402z m-134.204769-5.119975h129.084795v-17.88407h-129.084795v17.88407zM556.799776 218.796986H477.752491a2.559987 2.559987 0 0 1-2.559987-2.559987V142.780726a2.559987 2.559987 0 0 1 2.559987-2.559987h79.047285a2.559987 2.559987 0 0 1 2.559987 2.559987v73.456273a2.559987 2.559987 0 0 1-2.559987 2.559987z m-76.487298-5.119974h73.927311V145.340713H480.312478v68.336299z" fill="#ffffff" p-id="14717"></path><path d="M636.978575 565.178614m-19.230624 0a19.230624 19.230624 0 1 0 38.461248 0 19.230624 19.230624 0 1 0-38.461248 0Z" fill="#ffffff" p-id="14718"></path><path d="M636.978575 624.498638m-19.230624 0a19.230624 19.230624 0 1 0 38.461248 0 19.230624 19.230624 0 1 0-38.461248 0Z" fill="#ffffff" p-id="14719"></path><path d="M636.978575 706.955825m-19.230624 0a19.230624 19.230624 0 1 0 38.461248 0 19.230624 19.230624 0 1 0-38.461248 0Z" fill="#ffffff" p-id="14720"></path><path d="M636.978575 766.275849m-19.230624 0a19.230624 19.230624 0 1 0 38.461248 0 19.230624 19.230624 0 1 0-38.461248 0Z" fill="#ffffff" p-id="14721"></path><path d="M636.978575 870.211329m-19.225504 0a19.225504 19.225504 0 1 0 38.451008 0 19.225504 19.225504 0 1 0-38.451008 0Z" fill="#ffffff" p-id="14722"></path><path d="M636.978575 929.531352m-19.225504 0a19.225504 19.225504 0 1 0 38.451008 0 19.225504 19.225504 0 1 0-38.451008 0Z" fill="#ffffff" p-id="14723"></path><path d="M260.675817 188.783696m-9.272274 0a9.272274 9.272274 0 1 0 18.544547 0 9.272274 9.272274 0 1 0-18.544547 0Z" fill="#ffffff" p-id="14724"></path><path d="M210.904545 188.783696m-9.272273 0a9.272274 9.272274 0 1 0 18.544547 0 9.272274 9.272274 0 1 0-18.544547 0Z" fill="#ffffff" p-id="14725"></path><path d="M315.582422 188.783696m-9.272274 0a9.272274 9.272274 0 1 0 18.544548 0 9.272274 9.272274 0 1 0-18.544548 0Z" fill="#ffffff" p-id="14726"></path><path d="M210.904545 153.798911m-9.272273 0a9.272274 9.272274 0 1 0 18.544547 0 9.272274 9.272274 0 1 0-18.544547 0Z" fill="#ffffff" p-id="14727"></path><path d="M315.587542 153.798911m-9.272274 0a9.272274 9.272274 0 1 0 18.544548 0 9.272274 9.272274 0 1 0-18.544548 0Z" fill="#ffffff" p-id="14728"></path><path d="M178.505347 136.416598H137.422673a2.559987 2.559987 0 0 1-2.559987-2.559987v-47.267604a2.559987 2.559987 0 0 1 2.559987-2.559987h41.082674a2.559987 2.559987 0 0 1 2.559988 2.559987v47.267604a2.559987 2.559987 0 0 1-2.559988 2.559987z m-38.522687-5.119974h35.9627v-42.14763H139.98266v42.14763zM231.445883 136.416598H190.363208a2.559987 2.559987 0 0 1-2.559987-2.559987v-47.267604a2.559987 2.559987 0 0 1 2.559987-2.559987h41.082675a2.559987 2.559987 0 0 1 2.559987 2.559987v47.267604a2.559987 2.559987 0 0 1-2.559987 2.559987z m-38.522688-5.119974h35.962701v-42.14763H192.923195v42.14763zM283.085945 136.416598h-41.082675a2.559987 2.559987 0 0 1-2.559987-2.559987v-47.267604a2.559987 2.559987 0 0 1 2.559987-2.559987h41.082675a2.559987 2.559987 0 0 1 2.559987 2.559987v47.267604a2.559987 2.559987 0 0 1-2.559987 2.559987z m-38.522688-5.119974h35.9627v-42.14763h-35.9627v42.14763zM332.800896 136.416598h-41.082675a2.559987 2.559987 0 0 1-2.559987-2.559987v-47.267604a2.559987 2.559987 0 0 1 2.559987-2.559987H332.800896a2.559987 2.559987 0 0 1 2.559987 2.559987v47.267604a2.559987 2.559987 0 0 1-2.559987 2.559987z m-38.522687-5.119974H330.240909v-42.14763h-35.9627v42.14763zM384.00064 136.416598h-41.082675a2.559987 2.559987 0 0 1-2.559987-2.559987v-47.267604a2.559987 2.559987 0 0 1 2.559987-2.559987H384.00064a2.559987 2.559987 0 0 1 2.559987 2.559987v47.267604a2.559987 2.559987 0 0 1-2.559987 2.559987z m-38.522687-5.119974H381.440653v-42.14763h-35.9627v42.14763zM180.343418 567.308523h-41.082674a2.559987 2.559987 0 0 1-2.559988-2.559987v-47.267603a2.559987 2.559987 0 0 1 2.559988-2.559988h41.082674a2.559987 2.559987 0 0 1 2.559987 2.559988v47.267603a2.559987 2.559987 0 0 1-2.559987 2.559987z m-38.527807-5.119974h35.9627v-42.137389h-35.9627v42.137389zM233.283954 567.308523h-41.082675a2.559987 2.559987 0 0 1-2.559987-2.559987v-47.267603a2.559987 2.559987 0 0 1 2.559987-2.559988h41.082675a2.559987 2.559987 0 0 1 2.559987 2.559988v47.267603a2.559987 2.559987 0 0 1-2.559987 2.559987z m-38.527808-5.119974h35.9627v-42.137389h-35.9627v42.137389zM284.918895 567.308523h-41.082674a2.559987 2.559987 0 0 1-2.559987-2.559987v-47.267603a2.559987 2.559987 0 0 1 2.559987-2.559988h41.082674a2.559987 2.559987 0 0 1 2.559988 2.559988v47.267603c0 1.418233-1.141754 2.559987-2.559988 2.559987z m-38.522687-5.119974h35.9627v-42.137389h-35.9627v42.137389zM334.633847 567.308523h-41.082675a2.559987 2.559987 0 0 1-2.559987-2.559987v-47.267603a2.559987 2.559987 0 0 1 2.559987-2.559988h41.082675a2.559987 2.559987 0 0 1 2.559987 2.559988v47.267603c0 1.418233-1.141754 2.559987-2.559987 2.559987z m-38.522688-5.119974h35.962701v-42.137389h-35.962701v42.137389zM385.833591 567.308523h-41.082675a2.559987 2.559987 0 0 1-2.559987-2.559987v-47.267603a2.559987 2.559987 0 0 1 2.559987-2.559988h41.082675a2.559987 2.559987 0 0 1 2.559987 2.559988v47.267603c0 1.418233-1.141754 2.559987-2.559987 2.559987z m-38.522688-5.119974h35.962701v-42.137389h-35.962701v42.137389z" fill="#ffffff" p-id="14729"></path><path d="M259.9795 617.218034m-9.272274 0a9.272274 9.272274 0 1 0 18.544548 0 9.272274 9.272274 0 1 0-18.544548 0Z" fill="#ffffff" p-id="14730"></path><path d="M210.203109 617.218034m-9.272274 0a9.272274 9.272274 0 1 0 18.544548 0 9.272274 9.272274 0 1 0-18.544548 0Z" fill="#ffffff" p-id="14731"></path><path d="M314.886106 617.218034m-9.272274 0a9.272274 9.272274 0 1 0 18.544547 0 9.272274 9.272274 0 1 0-18.544547 0Z" fill="#ffffff" p-id="14732"></path><path d="M210.203109 582.238369m-9.272274 0a9.272274 9.272274 0 1 0 18.544548 0 9.272274 9.272274 0 1 0-18.544548 0Z" fill="#ffffff" p-id="14733"></path><path d="M314.886106 582.238369m-9.272274 0a9.272274 9.272274 0 1 0 18.544547 0 9.272274 9.272274 0 1 0-18.544547 0Z" fill="#ffffff" p-id="14734"></path><path d="M855.616842 265.660112h-139.324743v-28.12402h139.324743v28.12402z m-134.204769-5.119975h129.084795v-17.88407h-129.084795v17.88407zM855.616842 320.843196h-139.324743v-28.12402h139.324743v28.12402z m-134.204769-5.119975h129.084795v-17.88407h-129.084795v17.88407zM855.616842 426.836906h-139.324743v-28.12402h139.324743v28.12402z m-134.204769-5.119975h129.084795v-17.88407h-129.084795v17.88407zM855.616842 482.01999h-139.324743v-28.1189h139.324743v28.1189z m-134.204769-5.119975h129.084795v-17.87895h-129.084795v17.87895zM855.616842 577.487033h-139.324743v-28.1189h139.324743v28.1189z m-134.204769-5.119975h129.084795v-17.87895h-129.084795v17.87895zM855.616842 632.675237h-139.324743v-28.1189h139.324743v28.1189z m-134.204769-5.119975h129.084795v-17.87895h-129.084795v17.87895zM855.616842 718.654967h-139.324743v-28.12914h139.324743v28.12914z m-134.204769-5.119975h129.084795v-17.88919h-129.084795v17.88919zM855.616842 773.838051h-139.324743v-28.1189h139.324743v28.1189z m-134.204769-5.119975h129.084795v-17.87895h-129.084795v17.87895zM855.616842 885.243574h-139.324743v-28.12914h139.324743v28.12914z m-134.204769-5.119975h129.084795v-17.88919h-129.084795v17.88919zM855.616842 940.426658h-139.324743v-28.1189h139.324743v28.1189z m-134.204769-5.119975h129.084795v-17.87895h-129.084795v17.87895zM477.752491 176.951435h79.047285v5.119975H477.752491zM965.117734 218.796986h-79.047284a2.559987 2.559987 0 0 1-2.559988-2.559987V142.780726a2.559987 2.559987 0 0 1 2.559988-2.559987H965.117734a2.559987 2.559987 0 0 1 2.559988 2.559987v73.456273a2.559987 2.559987 0 0 1-2.559988 2.559987z m-76.487297-5.119974H962.557747V145.340713h-73.92731v68.336299z" fill="#ffffff" p-id="14735"></path><path d="M886.07045 176.951435H965.117734v5.119975h-79.047284z" fill="#ffffff" p-id="14736"></path></svg>