<?xml version="1.0" encoding="UTF-8"?>
<svg width="18px" height="18px" viewBox="0 0 18 18" version="1.1" xmlns="http://www.w3.org/2000/svg" xmlns:xlink="http://www.w3.org/1999/xlink">
    <title>账户管理</title>
    <g id="页面-1" stroke="none" stroke-width="1" fill="none" fill-rule="evenodd">
        <g id="账号管理页面" transform="translate(-485.000000, -145.000000)">
            <g id="账户管理" transform="translate(485.000000, 145.000000)">
                <path d="M8.99213369,1.2 C6.87368854,1.2 5.15803828,2.91617945 5.15803828,5.03409542 C5.15803828,6.22298833 5.70191325,7.3197017 6.61070835,8.0388661 L6.74299934,8.13900469 L6.72102543,8.28246198 C3.86569678,9.23653856 1.88393484,11.8821137 1.80260072,14.9240093 L1.8,15.1186987 L1.8,15.6623478 C1.8,16.2025837 2.21492231,16.6475191 2.74290188,16.6952889 L2.83718691,16.6995347 L8.43624813,16.6995347 C8.70060268,16.6995347 8.91405333,16.486084 8.91405333,16.2217295 C8.91405333,15.9794045 8.73469549,15.7798529 8.5011822,15.7482771 L8.43624813,15.7439243 L2.83718691,15.7439243 L2.75561041,15.6623478 L2.7556294,15.1169384 L2.76091578,14.8725587 C2.88831749,11.5845474 5.55111917,8.96165352 8.83154907,8.87063416 L9.13585941,8.86554597 C11.0888219,8.79355217 12.668957,7.26044125 12.8151823,5.32729576 L12.8235842,5.17782113 L12.8262291,5.03409542 C12.8262291,2.91678898 11.1094401,1.2 8.99213369,1.2 Z M11.2698803,15.59601 L11.1760313,15.6037446 C10.9513237,15.6444634 10.7850686,15.8421961 10.7850686,16.0741166 C10.7850686,16.3164417 10.9644264,16.5159932 11.1979397,16.547569 L11.2628738,16.5519219 L15.7151883,16.5522233 L15.8090373,16.5444887 C16.0337449,16.5037699 16.2,16.3060372 16.2,16.0741166 C16.2,15.8317916 16.0206422,15.6322401 15.7871289,15.6006643 L15.7221948,15.5963114 L11.2698803,15.59601 Z M15.7221948,13.320098 L11.2698803,13.3197966 L11.1760313,13.3275312 C10.9513237,13.36825 10.7850686,13.5659827 10.7850686,13.7979032 C10.7850686,14.0402283 10.9644264,14.2397798 11.1979397,14.2713556 L11.2628738,14.2757085 L15.7151883,14.2760099 L15.8090373,14.2682753 C16.0337449,14.2275565 16.2,14.0298238 16.2,13.7979032 C16.2,13.5555782 16.0206422,13.3560267 15.7871289,13.3244509 L15.7221948,13.320098 Z M11.2698803,11.0435832 L11.1760313,11.0513178 C10.9513237,11.0920366 10.7850686,11.2897693 10.7850686,11.5216898 C10.7850686,11.7640149 10.9644264,11.9635664 11.1979397,11.9951422 L11.2628738,11.9994951 L15.7151883,11.9997965 L15.8090373,11.9920619 C16.0337449,11.9513431 16.2,11.7536104 16.2,11.5216898 C16.2,11.2793648 16.0206422,11.0798133 15.7871289,11.0482375 L15.7221948,11.0438846 L11.2698803,11.0435832 Z M8.99213369,2.15561041 C10.581327,2.15561041 11.8706187,3.44434569 11.8706187,5.03409542 C11.8706187,6.62444082 10.5824791,7.91258042 8.99213369,7.91258042 C7.40178829,7.91258042 6.11364869,6.62444082 6.11364869,5.03409542 C6.11364869,3.44375001 7.40178829,2.15561041 8.99213369,2.15561041 Z" id="形状" fill="#606266" fill-rule="nonzero"></path>
                <rect id="矩形" x="0" y="0" width="18" height="18"></rect>
            </g>
        </g>
    </g>
</svg>