<?xml version="1.0" encoding="UTF-8"?>
<svg width="30px" height="30px" viewBox="0 0 30 30" version="1.1" xmlns="http://www.w3.org/2000/svg" xmlns:xlink="http://www.w3.org/1999/xlink">
    <title>编组 4</title>
    <g id="页面-1" stroke="none" stroke-width="1" fill="none" fill-rule="evenodd">
        <g id="顶部菜单图标" transform="translate(-1328.000000, -13.000000)">
            <g id="编组-4" transform="translate(1328.000000, 13.000000)">
                <path d="M22.2578889,21.2485947 C22.044735,21.2182885 21.8739228,21.2537636 21.674741,21.3825018 C21.5072033,21.4497757 21.304197,21.6456655 21.0810544,21.9760426 C20.7780266,22.4241368 20.6276987,22.9131025 20.6276987,23.4501036 C20.6276987,23.790328 20.7555574,24.157005 21.0176736,24.5496964 L21.1649631,24.7547333 C21.3092637,24.8996326 21.3830417,24.9898112 21.403626,25.1012343 L21.4084647,25.1648446 L21.4344045,25.259563 C21.4987524,25.5935643 21.3515963,25.9853132 21.0180646,26.4488411 L20.9000191,26.6060281 L20.7808989,26.7536365 C20.6657125,26.9065807 20.6249877,27.0839356 20.6569047,27.3076899 C20.682443,27.4867271 20.7442544,27.6242033 20.8412242,27.7269921 L20.9239621,27.7998213 C21.0885105,27.881944 21.2197861,27.9292574 21.3113973,27.9448979 L21.3711356,27.9501664 C21.5820152,27.9500862 21.7709907,27.8826123 21.9470171,27.7414362 L22.0511507,27.6478359 L22.192214,27.442635 C22.7935935,26.5404549 23.0461745,25.7388436 22.9678313,25.0438735 L22.9438859,24.8853916 L22.9031601,24.7154114 C22.8326404,24.5384405 22.7142924,24.3210594 22.5475312,24.0644197 L22.3637056,23.7894125 L22.2956274,23.7425742 L22.2364572,23.6951132 L22.1898026,23.6477681 L22.1530118,23.5965025 L22.180889,23.0830319 L22.1891762,23.0608314 C22.2359895,22.9408846 22.3060284,22.8313376 22.3989312,22.7332896 L22.4994419,22.6391153 L22.5972458,22.5653502 C22.7509617,22.4501413 22.8393104,22.2914552 22.8710031,22.0669199 C22.9032476,21.8435591 22.8628255,21.6661683 22.7518174,21.5177407 C22.662779,21.3991896 22.5431456,21.3186881 22.3841275,21.2746924 L22.2578889,21.2485947 Z M7.76588931,21.2389954 C7.59844238,21.2326921 7.45204748,21.2751959 7.28643953,21.3823237 C7.11858851,21.4500473 6.9154484,21.6460663 6.69240958,21.9758957 C6.38977434,22.4240054 6.23962302,22.9132468 6.23962302,23.450772 C6.23962302,23.7912496 6.36791993,24.1582279 6.63147567,24.5519427 L6.78996703,24.7763163 C6.80285424,24.799627 6.82229998,24.8280899 6.84860697,24.8614098 L6.93866877,24.9680763 C6.94001644,24.9653489 6.94102719,24.9633033 6.94298726,24.9651142 L7.00136355,25.117944 L7.01974198,25.1603467 C7.14968206,25.551915 6.96543169,26.0255783 6.50570137,26.6131512 L6.38878417,26.757551 L6.33226411,26.8479415 C6.2807542,26.9465193 6.25608832,27.0551494 6.25774671,27.1788204 L6.2681606,27.3076899 C6.29369896,27.4867271 6.35551034,27.6242033 6.45248024,27.7269922 L6.53178249,27.7976873 L6.65039605,27.8534005 C6.79968994,27.9189874 6.91305407,27.9500702 6.98449303,27.9500702 C7.19396156,27.9500702 7.38263606,27.8826384 7.55841996,27.7414502 L7.66240666,27.6478359 L7.80368954,27.4425317 C8.40561267,26.540381 8.65802589,25.7383221 8.57667432,25.0356305 L8.55198323,24.8752345 L8.51548551,24.7183643 C8.44335174,24.5380183 8.32407678,24.3187768 8.15693382,24.0611814 L7.97287614,23.7874982 L7.90683646,23.742338 C7.87159939,23.7566324 7.83721708,23.7164302 7.80368954,23.6217314 C7.75339824,23.4796832 7.75772963,23.4737197 7.76493618,23.3415396 C7.76974055,23.2534196 7.77907214,23.1672503 7.79293095,23.0830319 L7.80110055,23.0608315 C7.84791375,22.9408847 7.91795263,22.8313377 8.01085531,22.7332897 L8.11136586,22.6391155 L8.20917071,22.5653497 C8.36300465,22.4500524 8.45160419,22.291195 8.48352713,22.0673984 C8.51544404,21.8436441 8.47471925,21.6662892 8.36307334,21.5177407 C8.27400757,21.3991531 8.15449179,21.3186575 7.99575214,21.274674 L7.86920583,21.2485077 L7.76588931,21.2389954 Z M14.9600689,21.2389984 C14.7927952,21.2327039 14.64625,21.2752401 14.4800348,21.3825018 C14.312497,21.4497757 14.1094908,21.6456655 13.8864474,21.9758957 C13.5838122,22.4240054 13.4336609,22.9132468 13.4336609,23.450772 C13.4336609,23.7909037 13.5618158,24.1577092 13.8263331,24.5530783 L13.9682917,24.7519089 C14.1144225,24.8993975 14.1883451,24.9900687 14.2089267,25.1013696 L14.2135285,25.1600588 L14.2397672,25.2596466 C14.311614,25.6314891 14.1216311,26.074519 13.6998466,26.6131484 L13.5790899,26.7624359 C13.4716747,26.9065806 13.4309499,27.0839355 13.4629262,27.3081083 C13.4881643,27.4869229 13.5498281,27.6241977 13.6490395,27.7284647 L13.7305057,27.8006094 L13.8464926,27.8541407 C13.994665,27.9191309 14.1077162,27.9500702 14.1791993,27.9500702 C14.3886678,27.9500702 14.5773423,27.8826384 14.7531262,27.7414502 L14.8571129,27.6478359 L14.9981937,27.4426728 C15.5994965,26.5407609 15.8515673,25.7381008 15.7682208,25.0271458 L15.7430391,24.8647037 L15.7066907,24.711153 L15.6610203,24.6046968 C15.6070361,24.4887321 15.535925,24.3583682 15.4476569,24.2139858 L15.3536686,24.0649446 L15.1668552,23.7874982 L15.1017321,23.7429577 L15.042193,23.6954361 L14.9952831,23.6479799 C14.9572429,23.5828458 14.9369545,23.473487 14.934418,23.3199033 C14.9318815,23.1663196 14.9490598,23.0873625 14.9859528,23.0830319 L14.9941117,23.0610107 C15.0404706,22.9414129 15.1095049,22.832638 15.2002064,22.736186 L15.298093,22.6438973 L15.4032086,22.5653497 C15.5569239,22.4501413 15.6452726,22.2914552 15.6769652,22.0669199 C15.7092098,21.8435591 15.6687877,21.6661683 15.5580121,21.5180499 C15.4685788,21.3993064 15.3487767,21.3187165 15.1898814,21.2746934 L15.0632437,21.2485077 L14.9600689,21.2389984 Z M26.690395,3 L3.30960497,3 C2.65101592,3 2.10800464,3.2196781 1.66384137,3.66384137 C1.26409442,4.06358832 1.04618047,4.54340214 1.00659515,5.11547886 L1,5.30960497 L1,17.3522492 C1,18.0108035 1.21965059,18.5535505 1.66393203,18.9974351 C2.06367853,19.3975388 2.54346221,19.6156353 3.11549427,19.6552535 L3.30960497,19.6618542 L26.6128601,19.6618542 C27.2568773,19.6618542 27.8033405,19.4332438 28.2679814,18.968603 C28.668489,18.5680954 28.904424,18.1004325 28.9794154,17.5696267 L29,17.3676225 L29,5.30960497 C29,4.65101592 28.7803219,4.10800464 28.3361586,3.66384137 C27.9364117,3.26409442 27.4565979,3.04618047 26.8845211,3.00659515 L26.690395,3 Z M27.5089232,13.5626629 L27.5089232,17.3522492 C27.5089232,17.825641 27.2484561,18.1225228 26.8050208,18.1653958 L26.690395,18.1707774 L3.30960497,18.1707774 C2.83621321,18.1707774 2.53933135,17.9103102 2.49645835,17.466875 L2.4910768,17.3522492 L2.4910768,13.5626629 L27.5089232,13.5626629 Z M26.6910634,4.4910768 C27.1641186,4.4910768 27.4607157,4.7516128 27.5035469,5.19499507 L27.5089232,5.30960497 L27.5089232,12.0709177 L2.4910768,12.0709177 L2.4910768,5.30960497 C2.4910768,4.83621321 2.75154392,4.53933135 3.19497917,4.49645835 L3.30960497,4.4910768 L26.6910634,4.4910768 Z M25.2052002,6.04992982 L19.1835439,6.04992982 C18.9536742,6.04992982 18.7793032,6.1176102 18.6424175,6.25481242 C18.5056858,6.39122759 18.4380055,6.56559857 18.4380055,6.79546822 C18.4380055,7.02533787 18.5056858,7.19970884 18.6428881,7.33659456 C18.7520202,7.4459799 18.8854441,7.51117241 19.0521416,7.532874 L19.1835439,7.54100662 L25.2052002,7.54100662 C25.4024996,7.54100662 25.5687474,7.47466432 25.717938,7.3353541 C25.8756004,7.18841923 25.9507386,7.01459441 25.9507386,6.79546822 C25.9507386,6.56559857 25.8830582,6.39122759 25.745856,6.25434187 C25.6367238,6.14495653 25.5033,6.07976402 25.3366025,6.05806243 L25.2052002,6.04992982 Z" id="形状" fill="#5A789D" fill-rule="nonzero"></path>
                <rect id="矩形" x="0" y="0" width="30" height="30"></rect>
            </g>
        </g>
    </g>
</svg>