<?xml version="1.0" encoding="UTF-8"?>
<svg width="30px" height="30px" viewBox="0 0 30 30" version="1.1" xmlns="http://www.w3.org/2000/svg" xmlns:xlink="http://www.w3.org/1999/xlink">
    <title>返回 (2)</title>
    <g id="页面-1" stroke="none" stroke-width="1" fill="none" fill-rule="evenodd">
        <g id="顶部菜单图标" transform="translate(-1532.000000, -11.000000)">
            <g id="返回-(2)" transform="translate(1532.000000, 11.000000)">
                <path d="M18.8240489,9.37092391 L6.21467391,9.37092391 L9.96467391,5.62092391 C10.3396739,5.24592391 10.3396739,4.68342391 9.96467391,4.30842391 C9.58967391,3.93342391 9.02717391,3.93342391 8.65217391,4.30842391 L3.30842391,9.60529891 C3.12092391,9.79279891 3.02717391,10.0271739 3.02717391,10.2615489 C3.02717391,10.4959239 3.12092391,10.7302989 3.30842391,10.9177989 L8.60529891,16.2146739 C8.98029891,16.5896739 9.54279891,16.5896739 9.91779891,16.2146739 C10.2927989,15.8396739 10.2927989,15.2771739 9.91779891,14.9021739 L6.26154891,11.2459239 L18.8240489,11.2459239 C22.3396739,11.2459239 25.1521739,14.0584239 25.1521739,17.5740489 C25.1521739,21.0896739 22.3396739,23.9021739 18.8240489,23.9021739 L9.21467391,23.9021739 C8.69904891,23.9021739 8.27717391,24.3240489 8.27717391,24.8396739 C8.27717391,25.3552989 8.69904891,25.7771739 9.21467391,25.7771739 L18.8240489,25.7771739 C23.3709239,25.7771739 27.0271739,22.1209239 27.0271739,17.5740489 C27.0271739,13.0271739 23.3709239,9.37092391 18.8240489,9.37092391 Z" id="路径" fill="#FFFFFF" fill-rule="nonzero"></path>
                <rect id="矩形" x="0" y="0" width="30" height="30"></rect>
            </g>
        </g>
    </g>
</svg>