<svg xmlns="http://www.w3.org/2000/svg" width="36" height="36" viewBox="0 0 36 36">
  <g id="组_50" data-name="组 50" transform="translate(-939 -71)">
    <g id="组_45" data-name="组 45" transform="translate(261)">
      <rect id="矩形_46" data-name="矩形 46" width="36" height="36" transform="translate(678 71)" fill="none"/>
    </g>
    <path id="路径_89" data-name="路径 89" d="M151.588,112.009h-5.422V108.82c0-.638-.638-.957-1.276-.638l-6.059,3.827a.9.9,0,0,0,0,1.435l6.059,3.986a.834.834,0,0,0,1.276-.638V113.6h5.262c6.059,0,10.843,3.624,10.843,9.365s-4.943,9.365-10.843,9.365h-6.119a.8.8,0,0,0,0,1.595h6.278c6.857,0,12.438-4.422,12.438-10.959s-5.581-10.959-12.438-10.959Z" transform="translate(805.528 -32.057)" fill="#2c2c2c"/>
  </g>
</svg>
