<?xml version="1.0" encoding="UTF-8"?>
<svg width="30px" height="30px" viewBox="0 0 30 30" version="1.1" xmlns="http://www.w3.org/2000/svg" xmlns:xlink="http://www.w3.org/1999/xlink">
    <title>cabinets</title>
    <g id="页面-1" stroke="none" stroke-width="1" fill="none" fill-rule="evenodd">
        <g id="顶部菜单图标" transform="translate(-1178.000000, -9.000000)">
            <g id="cabinets" transform="translate(1178.000000, 9.000000)">
                <path d="M24.2547253,2.85 C25.2975718,2.85 26.170515,3.6155279 26.3240587,4.63110587 L26.341626,4.78525351 L26.3475824,4.94285714 L26.3475824,25.0571429 C26.3475824,26.0999894 25.5820545,26.9729326 24.5664765,27.1264763 L24.4123289,27.1440436 L24.2547253,27.15 L6.86571429,27.15 C5.82286773,27.15 4.94992455,26.3844721 4.79638088,25.3688941 L4.77881352,25.2147465 L4.77285717,25.0572294 L4.772,23.72 L4.58,23.7214286 C4.1769178,23.7214286 3.82821689,23.4690744 3.69100467,23.1030754 L3.65634277,22.9900051 L3.63652166,22.881078 L3.63,22.7714286 L3.63,18.6571429 C3.63,18.2137524 3.93534853,17.8361634 4.36142352,17.7334856 L4.47035056,17.7136645 L4.57993734,17.7071429 L4.772,17.707 L4.772,12.291 L4.58,12.2928571 C4.1769178,12.2928571 3.82821689,12.040503 3.69100467,11.674504 L3.65634277,11.5614336 L3.63652166,11.4525066 L3.63,11.3428571 L3.63,7.22857143 C3.63,6.785181 3.93534853,6.40759195 4.36142352,6.3049142 L4.47035056,6.28509309 L4.57974937,6.27857164 L4.772,6.278 L4.77285714,4.94285714 C4.77285714,3.95489725 5.45992373,3.11942681 6.39576173,2.90366575 L6.55396302,2.87352374 L6.70811065,2.85595637 L6.86571429,2.85 L24.2547253,2.85 Z M24.2547253,4.29285714 L6.86571429,4.29285714 C6.5699731,4.29285714 6.31691677,4.49152824 6.24043089,4.75993218 L6.2216589,4.85180599 L6.21571427,4.94292929 L6.214,6.278 L6.52285714,6.27857143 C6.56455283,6.27857143 6.60592698,6.28126685 6.64715717,6.28670099 L6.79387724,6.31799503 L6.85883563,6.33982657 L6.92766131,6.36914246 L6.99193682,6.40229855 L7.06745675,6.45012584 L7.12832695,6.49648048 L7.20509837,6.56748344 L7.27721229,6.65122102 L7.33929319,6.74272039 L7.40230545,6.86902856 C7.42278805,6.91899375 7.43895549,6.97064731 7.45090246,7.02644002 L7.4656694,7.11353979 L7.47285714,7.22857143 L7.47285714,11.3428571 C7.47285714,11.4262485 7.46207544,11.5083537 7.44038502,11.5898247 L7.40060254,11.706765 L7.35058076,11.8093774 L7.29223823,11.9002275 L7.22059986,11.987576 L7.16505018,12.0428848 L7.10437475,12.0940896 L7.00865062,12.159328 L6.90185295,12.2141068 L6.82650459,12.2431648 L6.71404299,12.2734952 L6.6392532,12.2851168 L6.58096962,12.2910357 L6.215,12.292 L6.214,17.707 L6.52285714,17.7071429 C6.56455283,17.7071429 6.60592698,17.7098383 6.64706112,17.715245 L6.76982508,17.7396151 L6.88676538,17.7793976 L6.9893779,17.8294195 L7.08022788,17.8877621 L7.16757631,17.9594004 L7.22288454,18.0149497 L7.27408951,18.0756253 L7.33932801,18.1713494 L7.39413105,18.2782066 L7.40412858,18.3020894 C7.42405193,18.3512698 7.43979736,18.4022389 7.45144047,18.4573435 L7.46583784,18.5433954 L7.47285714,18.6571429 L7.47285714,22.7714286 C7.47285714,22.8273079 7.468016,22.8826093 7.45827862,22.9375853 L7.43169361,23.0482508 L7.3902542,23.1591096 L7.34799879,23.2424015 L7.26300593,23.3670188 L7.2150053,23.4220481 L7.13632857,23.4967632 L7.04732416,23.5635744 L6.92545643,23.6321079 L6.85869345,23.6601264 L6.77251498,23.6881518 L6.69723037,23.7052175 L6.62543974,23.7146363 L6.53329688,23.7210648 L6.215,23.721 L6.21571429,25.0571429 C6.21571429,25.3188412 6.3717541,25.5497706 6.59596719,25.6502375 L6.68307111,25.6816025 L6.76722752,25.7001781 L6.86571429,25.7071429 L24.2547253,25.7071429 C24.5504665,25.7071429 24.8035228,25.5084718 24.8800087,25.2400678 L24.8987807,25.148194 L24.9047253,25.0571429 L24.9047253,4.94285714 C24.9047253,4.64711596 24.7060542,4.39405963 24.4376502,4.31757374 L24.3457764,4.29880175 L24.2547253,4.29285714 Z M20.2030769,21.9714286 C20.4792193,21.9714286 20.7030769,22.1952862 20.7030769,22.4714286 L20.7030769,22.8428571 C20.7030769,23.1189995 20.4792193,23.3428571 20.2030769,23.3428571 L10.9173626,23.3428571 C10.6412203,23.3428571 10.4173626,23.1189995 10.4173626,22.8428571 L10.4173626,22.4714286 C10.4173626,22.1952862 10.6412203,21.9714286 10.9173626,21.9714286 L20.2030769,21.9714286 Z M6.03,19.15 L5.072,19.15 L5.072,22.278 L6.03,22.278 L6.03,19.15 Z M20.2030769,19 C20.4792193,19 20.7030769,19.2238576 20.7030769,19.5 L20.7030769,19.8714286 C20.7030769,20.1475709 20.4792193,20.3714286 20.2030769,20.3714286 L10.9173626,20.3714286 C10.6412203,20.3714286 10.4173626,20.1475709 10.4173626,19.8714286 L10.4173626,19.5 C10.4173626,19.2238576 10.6412203,19 10.9173626,19 L20.2030769,19 Z M16.3426956,6.87796915 C16.4350447,6.93568734 16.5166257,7.00861065 16.5841109,7.0934113 L16.6467742,7.1820478 L21.9762004,15.7091297 C22.2560971,16.1569644 22.1199565,16.7469072 21.6721218,17.0268039 C21.5581411,17.0980418 21.4308663,17.1441809 21.2987462,17.1627981 L21.165324,17.1721516 L10.5064716,17.1721516 C9.97836365,17.1721516 9.55024754,16.7440355 9.55024754,16.2159275 C9.55024754,16.081516 9.57857718,15.9491335 9.63281332,15.8272288 L9.69559523,15.7091297 L15.0250214,7.1820478 C15.3049181,6.73421313 15.8948609,6.59807247 16.3426956,6.87796915 Z M15.8358978,8.1394197 L10.9364446,15.9768714 L20.7341558,15.9768714 L15.8358978,8.1394197 Z M15.9469644,10.6571429 L16.0093426,12.3217488 L17.6204815,12.3217488 L15.9469644,15.2285714 L15.9041908,13.2984127 L14.1887912,13.2984127 L15.9469644,10.6571429 Z M22.6743613,8.60318317 L22.6743613,12.2427486 L21.8459341,12.2427486 L21.8459341,8.60318317 L22.6743613,8.60318317 Z M6.03,7.721 L5.072,7.721 L5.072,10.85 L6.03,10.85 L6.03,7.721 Z M22.6743613,6.94507539 L22.6743613,7.77350262 L21.8459341,7.77350262 L21.8459341,6.94507539 L22.6743613,6.94507539 Z M22.6743613,5.28571429 L22.6743613,6.11539484 L21.8459341,6.11539484 L21.8459341,5.28571429 L22.6743613,5.28571429 Z" id="形状结合" fill="#FFFFFF" fill-rule="nonzero"></path>
                <rect id="矩形备份-14" x="0" y="0" width="30" height="30"></rect>
            </g>
        </g>
    </g>
</svg>