<?xml version="1.0" encoding="UTF-8"?>
<svg width="30px" height="30px" viewBox="0 0 30 30" version="1.1" xmlns="http://www.w3.org/2000/svg" xmlns:xlink="http://www.w3.org/1999/xlink">
    <title>视频监控系统 (1)</title>
    <g id="页面-1" stroke="none" stroke-width="1" fill="none" fill-rule="evenodd">
        <g id="顶部菜单图标" transform="translate(-498.000000, -88.000000)">
            <g id="视频监控系统-(1)" transform="translate(498.000000, 88.000000)">
                <path d="M14.6613191,4.53377758e-07 C19.7990504,-0.00142326588 24.3360645,3.3503857 25.844397,8.26172144 C27.3527294,13.1730572 25.4791177,18.4936492 21.2262175,21.3762046 L23.1598217,26.8235308 L27.6559715,26.8235308 L27.6559715,29.4224613 L1.66666667,29.4224613 L1.66666667,26.8235308 L5.4935918,26.8235308 L7.53375223,20.9681725 C3.56230411,17.9159587 1.97543022,12.6735762 3.58746061,7.93123853 C5.19949099,3.18890082 9.652486,-0.000390390741 14.6613191,4.53377758e-07 Z M8.18478431,26.8235308 L20.4673298,26.8235308 L18.8676881,22.6106965 C17.5256079,23.1276373 16.0995139,23.3919735 14.6613191,23.3903757 C13.0035001,23.3923557 11.3643382,23.0406004 9.85329768,22.3586003 L8.18478431,26.8235308 Z M6.78372955,7.14706013 C5.15883975,9.96145177 5.15883975,13.4289253 6.78372955,16.2433169 C8.40861934,19.0577086 11.4115395,20.7914452 14.6613191,20.7914452 C19.6850429,20.7914452 23.7575756,16.7189123 23.7575756,11.6951885 C23.7575756,6.67146473 19.6850429,2.59893184 14.6613191,2.59893184 C11.4115395,2.59893184 8.40861934,4.33266849 6.78372955,7.14706013 Z M14.6613191,7.7967928 C17.5320184,7.7967928 19.85918,10.1239544 19.85918,12.9946538 C19.85918,15.8653531 17.5320184,18.1925147 14.6613191,18.1925147 C11.7906197,18.1925147 9.46345811,15.8653531 9.46345811,12.9946538 C9.46345811,10.1239544 11.7906197,7.7967928 14.6613191,7.7967928 Z M14.6613191,10.3957233 C13.2259694,10.3957233 12.0623886,11.5593041 12.0623886,12.9946538 C12.0623886,14.4300034 13.2259694,15.5935842 14.6613191,15.5935842 C16.0966687,15.5935842 17.2602496,14.4300034 17.2602496,12.9946538 C17.2602496,11.5593041 16.0966687,10.3957233 14.6613191,10.3957233 Z M14.6613191,3.89839708 C15.3789939,3.89839708 15.9607843,4.48018749 15.9607843,5.19786232 C15.9607843,5.91553716 15.3789939,6.49732756 14.6613191,6.49732756 C13.9436442,6.49732756 13.3618538,5.91553716 13.3618538,5.19786232 C13.3618538,4.48018749 13.9436442,3.89839708 14.6613191,3.89839708 Z" id="形状" fill="#FFFFFF" fill-rule="nonzero"></path>
                <rect id="矩形" x="0" y="0" width="30" height="30"></rect>
            </g>
        </g>
    </g>
</svg>