<?xml version="1.0" encoding="UTF-8"?>
<svg width="30px" height="30px" viewBox="0 0 30 30" version="1.1" xmlns="http://www.w3.org/2000/svg" xmlns:xlink="http://www.w3.org/1999/xlink">
    <title>designerProject</title>
    <g id="页面-1" stroke="none" stroke-width="1" fill="none" fill-rule="evenodd">
        <g id="顶部菜单图标" transform="translate(-250.000000, -9.000000)">
            <g id="编组" transform="translate(229.000000, 2.000000)">
                <g id="designerProject" transform="translate(21.000000, 7.000000)">
                    <path d="M15,2 C18.8142291,2 22.358347,3.652877 24.8077506,6.46689188 L25.0295619,6.72952381 L25.0621112,6.7522654 C25.1094456,6.78972907 25.1507911,6.83218079 25.184065,6.87637367 L25.2276618,6.943563 L25.252419,6.99893333 L25.57732,7.39386391 L25.5119238,7.3495619 L25.7004437,7.61386908 C27.0373383,9.54762101 27.8296885,11.8103829 27.9754862,14.1959688 L27.9944828,14.6181875 L28,15.0001565 C27.9909277,22.1760106 22.1760106,27.9909277 15,28 C11.2083316,28 7.68051197,26.3674123 5.27644656,23.6072057 C5.13401659,23.5532351 5.01320003,23.4531817 4.93116847,23.3194419 C4.89161633,23.2516179 4.86420748,23.1776912 4.87526795,23.1559694 C3.13173031,20.9933748 2.11971567,18.3333289 2.00997068,15.5130666 L2.00061407,15.127524 L2,15 C2,7.82029825 7.82029825,2 15,2 Z M14.9455238,21.2310857 L14.3903404,21.2418314 C13.2806264,21.2783293 12.1768197,21.4087132 11.0905781,21.6312204 L10.6815238,21.720381 L10.7380436,21.8914916 C11.7179419,24.7520231 13.2319045,26.530527 14.8339728,26.6459156 L15,26.6518959 C16.6608038,26.6518959 18.244349,24.855489 19.2588981,21.9031733 L19.3155048,21.7322667 L18.8934933,21.6365441 C17.7829853,21.4017255 16.6522751,21.2682277 15.5147713,21.2379459 L14.9455238,21.2310857 Z M21.0126001,22.2133591 L20.6209524,22.0878476 L20.6027893,22.1446172 C20.087438,23.6880847 19.4081961,24.9954833 18.6113894,25.9804274 L18.4944,26.1180952 L18.8381448,26.0053347 C20.456701,25.4404823 21.9292222,24.5232382 23.1530561,23.3243403 L23.3110857,23.1635048 L22.9866826,23.0057358 C22.3448922,22.7043625 21.6859313,22.4399586 21.0126001,22.2133591 Z M9.3592381,22.070019 L9.03834635,22.1683924 C8.33992879,22.3920899 7.65440634,22.6547328 6.98498608,22.955164 L6.6423619,23.113981 L6.80002092,23.2762176 C8.02322458,24.4896768 9.49953496,25.4189391 11.1248927,25.9920196 L11.4699429,26.1062095 L11.3701785,25.9881337 C10.6036511,25.0423863 9.94853559,23.7963614 9.44411064,22.3261875 L9.3592381,22.070019 Z M26.6232381,15.7834667 L21.6639238,15.7834667 L21.6470098,16.2778687 C21.5778447,17.7038828 21.3929722,19.076527 21.1013672,20.355305 L20.9973333,20.7824 L21.3919691,20.9067599 C22.2328894,21.1824288 23.0571506,21.5134927 23.8595972,21.8983501 L24.2441143,22.0888381 L24.4215367,21.8558765 C25.6563365,20.1633751 26.4157018,18.1676634 26.6050765,16.0516311 L26.6232381,15.7834667 Z M8.33409524,15.7834667 L3.37577143,15.7834667 L3.39490474,16.0514231 C3.58414267,18.1663754 4.34277964,20.1614883 5.57623843,21.8541296 L5.75192381,22.0868571 L6.1358597,21.8973049 C6.93522415,21.5135074 7.75735195,21.1829677 8.59767935,20.9068687 L8.99177143,20.7824 L8.89000881,20.3557212 C8.60259144,19.0791017 8.42052972,17.7064015 8.35246801,16.2786552 L8.33409524,15.7834667 Z M20.3148952,15.7834667 L9.68411429,15.7834667 L9.70198606,16.2267136 C9.76876078,17.5513024 9.94306308,18.8376258 10.2146765,20.0367947 L10.3081143,20.426819 L10.6882579,20.341326 C13.5292408,19.7303622 16.4700346,19.730689 19.3112789,20.3422527 L19.6899048,20.4278095 L19.7849645,20.0379285 C20.0567383,18.8389692 20.2311802,17.5521782 20.2980004,16.2269813 L20.3148952,15.7834667 Z M5.54392381,8.19146667 L5.37372799,8.43278146 C4.2162019,10.1258874 3.5224398,12.0964749 3.37690605,14.1744051 L3.36289524,14.436419 L8.32815238,14.436419 L8.3421364,13.9611399 C8.39563085,12.5745012 8.55624038,11.2367791 8.81665124,9.98416649 L8.9095619,9.56426667 L8.49418187,9.43330448 C7.62301242,9.14447154 6.77051408,8.79680158 5.94222022,8.39254828 L5.54392381,8.19146667 Z M10.63741,10.0229838 L10.2239238,9.92678095 L10.2101109,9.98345145 C9.92751835,11.2373074 9.75159106,12.5834541 9.69297696,13.9675489 L9.67817143,14.436419 L20.3208381,14.436419 L20.3055613,13.944786 C20.2511192,12.7129405 20.1018813,11.5100749 19.8659337,10.3748063 L19.7671619,9.93272381 L19.3573014,10.0293827 C18.1080917,10.3038012 16.8334383,10.458778 15.5501199,10.4919477 L14.9996447,10.4986988 C13.5310156,10.4944847 12.0689187,10.3346629 10.63741,10.0229838 Z M24.4392381,8.17958095 L24.1282358,8.34193936 C23.2846639,8.76551463 22.4132423,9.12933835 21.5203799,9.43107235 L21.0904381,9.56921905 L21.1838648,9.98851604 C21.4439854,11.2391062 21.6044282,12.5756709 21.6578762,13.9614779 L21.6708571,14.436419 L26.6361143,14.436419 L26.6220489,14.1729693 C26.4732811,12.0855932 25.7719241,10.107017 24.6037994,8.40947973 L24.4392381,8.17958095 Z M14.9970286,3.3480381 L14.8388632,3.35373996 C13.178441,3.46986213 11.61394,5.37330094 10.6398523,8.40109666 L10.5834667,8.57973333 L11.0137974,8.67865103 C12.1346685,8.91600796 13.2761341,9.05273711 14.4251828,9.08703501 L15.0002789,9.09568786 C16.3378268,9.09865238 17.6700498,8.96037753 18.9752025,8.68415567 L19.4036571,8.58666667 L19.3472735,8.40736616 C18.3962308,5.48149633 16.8912197,3.58827809 15.3128128,3.36961549 L15.1492872,3.35299498 L14.9970286,3.3480381 Z M11.4709333,3.89180952 L11.1129055,4.01221155 C9.39981694,4.61832422 7.85293721,5.62001006 6.59452425,6.93060015 L6.44129524,7.09500952 L6.79275789,7.26639479 C7.46350599,7.58130785 8.151929,7.85712757 8.85475456,8.09274904 L9.26712381,8.22415238 L9.35406917,7.94616307 C9.86487701,6.37097013 10.5454,5.03820065 11.3507096,4.03641424 L11.4709333,3.89180952 Z M18.534019,3.89775238 L18.6874916,4.08429448 C19.4766953,5.0811828 20.1442898,6.39770196 20.6472993,7.9484361 L20.7318857,8.22019048 L21.1405397,8.08908952 C21.8382719,7.85345071 22.5229785,7.5762518 23.1910863,7.25895016 L23.5408762,7.08510476 L23.3875901,6.92122659 C22.1264817,5.61155136 20.5776598,4.61173421 18.8627649,4.00765853 L18.534019,3.89775238 Z" id="形状结合" fill="#F6F6F8" fill-rule="nonzero"></path>
                    <rect id="矩形" x="0" y="0" width="30" height="30"></rect>
                </g>
            </g>
        </g>
    </g>
</svg>