<?xml version="1.0" encoding="UTF-8"?>
<svg width="30px" height="30px" viewBox="0 0 30 30" version="1.1" xmlns="http://www.w3.org/2000/svg" xmlns:xlink="http://www.w3.org/1999/xlink">
    <title>designerDistribution</title>
    <g id="页面-1" stroke="none" stroke-width="1" fill="none" fill-rule="evenodd">
        <g id="顶部菜单图标" transform="translate(-483.000000, -9.000000)">
            <g id="designerDistribution" transform="translate(483.000000, 9.000000)">
                <path d="M14.8257775,1.00048793 C14.9692543,0.996239494 15.1081283,1.05136938 15.2096262,1.15286723 C15.311124,1.25436508 15.3662539,1.39323914 15.3620055,1.53671589 L15.3620055,1.53671589 L15.3620055,2.07294386 L16.0483773,2.07294386 L16.1243429,2.14890949 C16.1241007,2.1691301 16.1320264,2.18859329 16.1463256,2.20289244 C16.1606247,2.2171916 16.1800879,2.2251173 16.2003085,2.22487512 C16.2205291,2.22463293 16.2399923,2.23255863 16.2542915,2.24685779 C16.2685906,2.26115694 16.2765163,2.28062013 16.2762741,2.30084074 L16.2762741,2.30084074 L16.2762741,2.37680637 L17.5721584,4.96857488 L17.5721584,5.42615607 L17.4961928,5.5021217 C17.4759722,5.50187951 17.456509,5.50980522 17.4422098,5.52410437 C17.4279107,5.53840353 17.419985,5.55786672 17.4202271,5.57808733 C17.4204693,5.59830794 17.4125436,5.61777113 17.3982445,5.63207029 C17.3839453,5.64636945 17.3644821,5.65429515 17.3442615,5.65405296 L17.3442615,5.65405296 L17.2682959,5.65405296 C17.2074159,5.7126235 17.1233272,5.74054358 17.0395053,5.73001859 L16.6578897,5.73001859 L17.4970865,7.63630901 L17.4970865,8.09389021 L17.4211209,8.16985583 C17.4009002,8.16961365 17.3814371,8.17753935 17.3671379,8.19183851 C17.3528387,8.20613766 17.344913,8.22560085 17.3451552,8.24582146 C17.3453974,8.26604207 17.3374717,8.28550526 17.3231726,8.29980442 C17.3088734,8.31410358 17.2894102,8.32202928 17.2691896,8.32178709 L17.2691896,8.32178709 L17.193224,8.32178709 C17.132344,8.38035764 17.0482553,8.40827771 16.9644334,8.39775272 L16.9644334,8.39775272 L16.5828178,8.39775272 L17.5739458,10.3040431 L17.5739458,10.7634118 L17.4979802,10.8393774 C17.4777596,10.8391352 17.4582964,10.8470609 17.4439972,10.8613601 C17.4296981,10.8756592 17.4217724,10.8951224 17.4220146,10.915343 C17.4222568,10.9355636 17.4143311,10.9550268 17.4000319,10.969326 C17.3857327,10.9836251 17.3662696,10.9915508 17.3460489,10.9913087 L17.3460489,10.9913087 L17.2700833,10.9913087 C17.2092033,11.0498792 17.1251146,11.0777993 17.0412927,11.0672743 L17.0412927,11.0672743 L16.6596771,11.0672743 L16.6596771,12.8967054 L19.1763737,12.8967054 L19.1763737,11.0663806 L18.8716175,11.0663806 C18.7956519,11.0663806 18.7187925,10.9904149 18.6428269,10.9904149 L18.6428269,10.9904149 L18.5668613,10.9904149 L18.4144746,10.8380454 L18.4144746,10.8380454 L18.3380707,10.7616243 L18.3380707,10.3040431 L19.1772674,8.39775272 L18.7956519,8.39775272 C18.7196862,8.39775272 18.6428269,8.32178709 18.5668613,8.32178709 L18.5668613,8.32178709 L18.4908957,8.32178709 L18.3385227,8.16940384 L18.3385227,8.16940384 L18.2621051,8.09299649 L18.2621051,7.63541529 L19.1772674,5.65315925 L18.7956519,5.65315925 C18.7196862,5.65315925 18.6428269,5.57719362 18.5668613,5.57719362 L18.5668613,5.57719362 L18.4908957,5.57719362 L18.41493,5.50122799 C18.3639952,5.45027948 18.3130536,5.39933783 18.2621051,5.34840302 L18.2621051,5.34840302 L18.2621051,4.89082182 L19.4721928,2.30173446 L19.4721928,2.22576883 L19.6245692,2.073389 L19.6245692,2.073389 L19.7009834,1.99697823 L20.3873552,1.99697823 L20.3873552,1.53939703 C20.4152277,1.22645434 20.6838359,0.990488154 20.9977614,1.00316907 C21.1412381,0.998920633 21.2801122,1.05405051 21.3816101,1.15554837 C21.4831079,1.25704622 21.5382378,1.39592028 21.5339894,1.53939703 L21.5339894,1.53939703 L21.5339894,1.99697823 L22.2203612,1.99697823 L22.3722924,2.14890949 C22.3722924,2.22576883 22.3722924,2.22576883 22.448258,2.30173446 L22.448258,2.30173446 L22.448258,2.37770009 L23.6681767,4.96946859 L23.6681767,5.42704979 L23.592211,5.50301542 C23.5719904,5.50277323 23.5525272,5.51069893 23.5382281,5.52499809 C23.5239289,5.53929724 23.5160032,5.55876043 23.5162454,5.57898104 C23.5164876,5.59920166 23.5085619,5.61866485 23.4942627,5.632964 C23.4799636,5.64726316 23.4605004,5.65518886 23.4402798,5.65494667 L23.4402798,5.65494667 L23.3643141,5.65494667 C23.3034341,5.71351722 23.2193454,5.74143729 23.1355236,5.7309123 L23.1355236,5.7309123 L22.8307673,5.7309123 L23.6699641,7.63720272 L23.6699641,8.09478392 L23.5939985,8.17074955 C23.5737779,8.17050736 23.5543147,8.17843306 23.5400155,8.19273222 C23.5257163,8.20703137 23.5177906,8.22649457 23.5180328,8.24671518 C23.518275,8.26693579 23.5103493,8.28639898 23.4960502,8.30069813 C23.481751,8.31499729 23.4622878,8.32292299 23.4420672,8.3226808 L23.4420672,8.3226808 L23.3661016,8.3226808 C23.3052216,8.38125135 23.2211329,8.40917142 23.137311,8.39864643 L23.137311,8.39864643 L22.8325547,8.39864643 L23.6717515,10.2289712 L23.6717515,10.6865524 L23.5957859,10.7625181 C23.5755653,10.7622759 23.5561021,10.7702016 23.5418029,10.7845007 C23.5275038,10.7987999 23.5195781,10.8182631 23.5198203,10.8384837 C23.5200624,10.8587043 23.5121367,10.8781675 23.4978376,10.8924666 C23.4835384,10.9067658 23.4640752,10.9146915 23.4438546,10.9144493 L23.4438546,10.9144493 L23.367889,10.9144493 C23.307009,10.9730199 23.2229203,11.0009399 23.1390984,10.9904149 L23.1390984,10.9904149 L22.7574828,10.9904149 L22.7574828,12.8243146 C23.802359,12.9427712 24.5908559,13.8282902 24.5878076,14.8798551 L24.5878076,14.8798551 L24.5878076,25.0967853 L24.9694232,25.0967853 C25.1155811,25.0907494 25.2544551,25.1458793 25.355953,25.2473772 C25.4574509,25.348875 25.5125807,25.4877491 25.5083323,25.6312258 L25.5083323,25.6312258 L25.5083323,27.4633381 C25.5125807,27.6068148 25.4574509,27.7456889 25.355953,27.8471867 C25.2544551,27.9486846 25.1155811,28.0038145 24.9721043,27.9997946 L24.9721043,27.9997946 L4.53645654,27.9997946 C4.39297979,28.0038145 4.25410573,27.9486846 4.15260788,27.8471867 C4.05111003,27.7456889 3.99598014,27.6068148 4.00022858,27.4633381 L4.00022858,27.4633381 L4.00022858,25.7098726 C3.99598014,25.5663959 4.05111003,25.4275218 4.15260788,25.3260239 C4.25410573,25.2245261 4.39297979,25.1693962 4.53645654,25.1736446 L4.53645654,25.1736446 L4.99403774,25.1736446 L4.99403774,14.9531396 C4.98523083,13.9269568 5.7327596,13.0506488 6.74750319,12.8975991 L6.74750319,12.8975991 L6.74750319,11.0672743 L6.44274696,11.0672743 C6.36678133,11.0672743 6.28992199,10.9913087 6.21395636,10.9913087 L6.21395636,10.9913087 L6.13799073,10.9913087 L6.06202511,10.915343 L6.06202511,10.915343 L5.90920014,10.7625181 L5.90920014,10.3049369 L6.7483969,8.39864643 L6.36678133,8.39864643 C6.29081571,8.39864643 6.21395636,8.3226808 6.13799073,8.3226808 L6.13799073,8.3226808 L6.06202511,8.3226808 L5.98605948,8.24671518 C5.93510641,8.19578493 5.88416475,8.14484328 5.83323451,8.09389021 L5.83323451,8.09389021 L5.83323451,7.63630901 L6.7483969,5.73001859 L6.36678133,5.73001859 C6.29081571,5.73001859 6.21395636,5.65405296 6.13799073,5.65405296 L6.13799073,5.65405296 L6.06202511,5.65405296 L5.83323451,5.42526236 L5.83323451,4.96768116 L7.05315313,2.37591266 L7.05315313,2.29994703 L7.35880307,1.99429709 L8.03534402,1.99429709 L8.03534402,1.53671589 C8.03534402,1.22927853 8.41695959,1.00048793 8.72171582,1.00048793 C8.86519258,0.996239494 9.00406663,1.05136938 9.10556448,1.15286723 C9.20706234,1.25436508 9.26219222,1.39323914 9.25794378,1.53671589 L9.25794378,1.53671589 L9.25794378,2.07294386 L9.94431558,2.07294386 L10.0962468,2.22487512 C10.1164674,2.22463293 10.1359306,2.23255863 10.1502298,2.24685779 C10.164529,2.26115694 10.1724547,2.28062013 10.1722125,2.30084074 L10.1722125,2.30084074 L10.1722125,2.37680637 L11.3921311,4.96857488 L11.3921311,5.42615607 L11.3161655,5.5021217 C11.2959449,5.50187951 11.2764817,5.50980522 11.2621825,5.52410437 C11.2478833,5.53840353 11.2399576,5.55786672 11.2401998,5.57808733 C11.240442,5.59830794 11.2325163,5.61777113 11.2182172,5.63207029 C11.203918,5.64636945 11.1844548,5.65429515 11.1642342,5.65405296 L11.1642342,5.65405296 L11.0882686,5.65405296 C11.0273886,5.7126235 10.9432999,5.74054358 10.859478,5.73001859 L10.4778624,5.73001859 L11.3170592,7.63630901 L11.3170592,8.09389021 L11.2410935,8.16985583 C11.2208729,8.16961365 11.2014097,8.17753935 11.1871106,8.19183851 C11.1728114,8.20613766 11.1648857,8.22560085 11.1651279,8.24582146 C11.1653701,8.26604207 11.1574444,8.28550526 11.1431452,8.29980442 C11.1288461,8.31410358 11.1093829,8.32202928 11.0891623,8.32178709 L11.0891623,8.32178709 L11.0131967,8.32178709 C10.9523166,8.38035764 10.868228,8.40827771 10.7844061,8.39775272 L10.7844061,8.39775272 L10.4027905,8.39775272 L11.3939185,10.3040431 L11.3939185,10.7634118 L11.3179529,10.8393774 C11.2977323,10.8391352 11.2782691,10.8470609 11.2639699,10.8613601 C11.2496708,10.8756592 11.2417451,10.8951224 11.2419873,10.915343 C11.2422294,10.9355636 11.2343037,10.9550268 11.2200046,10.969326 C11.2057054,10.9836251 11.1862422,10.9915508 11.1660216,10.9913087 L11.1660216,10.9913087 L11.090056,10.9913087 C11.029176,11.0498792 10.9450873,11.0777993 10.8612654,11.0672743 L10.8612654,11.0672743 L10.4796498,11.0672743 L10.4796498,12.8967054 L12.9963464,12.8967054 L12.9963464,11.0663806 L12.6915902,11.0663806 C12.6156246,11.0663806 12.5387652,10.9904149 12.4627996,10.9904149 L12.4627996,10.9904149 L12.386834,10.9904149 L12.2344473,10.8380454 L12.2344473,10.8380454 L12.1580434,10.7616243 L12.1580434,10.3040431 L12.9972401,8.39775272 L12.6156246,8.39775272 C12.5396589,8.39775272 12.4627996,8.32178709 12.386834,8.32178709 L12.386834,8.32178709 L12.3108683,8.32178709 L12.1584954,8.16940384 L12.1584954,8.16940384 L12.0820777,8.09299649 L12.0820777,7.63541529 L12.9212745,5.65315925 L12.5396589,5.65315925 C12.4636933,5.65315925 12.386834,5.57719362 12.3108683,5.57719362 L12.3108683,5.57719362 L12.2349027,5.57719362 L12.1589371,5.50122799 C12.1079931,5.45028861 12.0570515,5.39934696 12.0061121,5.34840302 L12.0061121,5.34840302 L12.0061121,4.89082182 L13.2242433,2.29905332 L13.3761746,2.14712206 C13.4271139,2.09617812 13.4780556,2.04523646 13.5289995,1.99429709 L13.5289995,1.99429709 L14.2153713,1.99429709 L14.2153713,1.53671589 C14.2432439,1.2237732 14.511852,0.987807014 14.8257775,1.00048793 Z M24.4358764,26.1683475 L5.06821594,26.1683475 L5.06821594,26.9306849 L24.4358764,26.9306849 L24.4358764,26.1683475 Z M22.5304797,13.8923019 L6.97540008,13.8923019 C6.43201736,13.9018455 5.99381565,14.3400473 5.98427205,14.88343 L5.98427205,14.88343 L5.98337834,25.097679 L23.5216077,25.097679 L23.5216077,14.88343 C23.5120641,14.3400473 23.0738624,13.9018455 22.5304797,13.8923019 L22.5304797,13.8923019 Z M14.6756337,15.1846113 C15.2633211,15.1467816 15.8227232,15.4411493 16.1243429,15.9469488 L16.1243429,15.9469488 L16.1198743,15.9460551 L19.2478708,21.4361357 C19.5402067,21.9011316 19.5537002,22.4890694 19.2830046,22.9669872 C19.012309,23.444905 18.5011191,23.7356588 17.9519865,23.7240417 L17.9519865,23.7240417 L11.6236028,23.7240417 C11.0902962,23.7061883 10.6024085,23.4191757 10.3277186,22.9617043 C10.0228739,22.4991925 10.0228739,21.8995412 10.3277186,21.4370294 L10.3277186,21.4370294 L13.455715,15.9469488 L13.455715,15.8709831 C13.7302786,15.4614425 14.1830676,15.2066865 14.6756337,15.1846113 Z M14.9000742,16.2499146 L14.8302461,16.251705 C14.6694312,16.2474916 14.5206895,16.3366669 14.4486305,16.4804956 L14.4486305,16.4804956 L11.320634,21.9705763 C11.2620635,22.0314563 11.2341434,22.115545 11.2446684,22.1993669 C11.2446684,22.2753325 11.320634,22.3521918 11.320634,22.4281575 C11.320634,22.5041231 11.473459,22.6569481 11.7022496,22.6569481 L11.7022496,22.6569481 L18.0306333,22.6569481 C18.1878766,22.6485833 18.3307785,22.5629091 18.4122489,22.4281575 L18.4122489,22.4281575 C18.4158237,22.4281575 18.4917894,22.3521918 18.4158237,22.1993669 C18.4263487,22.115545 18.3984287,22.0314563 18.3398581,21.9705763 L18.3398581,21.9705763 L15.2118616,16.4804956 C15.1520839,16.3258194 14.9948419,16.2315479 14.8302461,16.251705 Z M14.7963717,18.10616 L14.8522959,19.58682 L16.2289073,19.58682 L14.7129467,22.1964965 L14.6779715,20.4892841 L13.212625,20.489496 L14.7963717,18.10616 Z M7.7377375,10.9904149 L7.7377375,12.8252083 L9.33927169,12.8252083 L9.33927169,10.9948835 L7.7377375,10.9904149 Z M15.5157242,10.9930961 L13.91419,10.9930961 L13.91419,12.8234209 L15.5157242,12.8234209 L15.5157242,10.9930961 Z M21.7672485,10.9913087 L20.1657143,10.9913087 L20.1657143,12.8216334 L21.7672485,12.8216334 L21.7672485,10.9913087 Z M9.18644672,8.40132757 L7.89056247,8.40132757 L7.20419067,9.92600242 L7.20419067,10.0028618 L9.87281852,10.0028618 L9.18644672,8.40132757 Z M15.3620055,8.3226808 L14.0661212,8.3226808 L13.3797494,9.924215 L16.0483773,9.924215 L15.3620055,8.3226808 Z M21.6144236,8.32089338 L20.24168,8.32089338 L19.5553082,9.92242757 L22.3007954,9.92242757 L21.6144236,8.32089338 Z M9.18644672,5.73269973 L7.89056247,5.73269973 L7.20419067,7.33423392 L9.87281852,7.33423392 L9.18644672,5.73269973 Z M15.3620055,5.7309123 L14.0661212,5.7309123 L13.3797494,7.33244649 L16.0483773,7.33244649 L15.3620055,5.7309123 Z M21.6144236,5.72912487 L20.24168,5.72912487 L19.5553082,7.33065907 L22.3007954,7.33065907 L21.6144236,5.72912487 Z M9.18644672,3.06407188 L7.89056247,3.06407188 L7.20419067,4.66560608 L9.87281852,4.66560608 L9.18644672,3.06407188 Z M15.3620055,3.06228446 L14.0661212,3.06228446 L13.3797494,4.66381865 L16.0483773,4.66381865 L15.3620055,3.06228446 Z M21.6135298,3.06049703 L20.3176456,3.06049703 L19.5553082,4.66203122 L22.2999016,4.66203122 L21.6135298,3.06049703 Z" id="形状结合" fill="#FFFFFF" fill-rule="nonzero"></path>
                <rect id="矩形备份-2" x="0" y="0" width="30" height="30"></rect>
            </g>
        </g>
    </g>
</svg>