<?xml version="1.0" encoding="UTF-8"?>
<svg width="30px" height="30px" viewBox="0 0 30 30" version="1.1" xmlns="http://www.w3.org/2000/svg" xmlns:xlink="http://www.w3.org/1999/xlink">
    <title>增城区水务局</title>
    <g id="页面-1" stroke="none" stroke-width="1" fill="none" fill-rule="evenodd">
        <g id="顶部菜单图标" transform="translate(-1249.000000, -13.000000)">
            <g id="增城区水务局" transform="translate(1249.000000, 13.000000)">
                <path d="M3.85594658,19.9281293 C4.44489859,19.6165466 5.1151729,19.5327708 5.74512048,19.6727781 L5.74512048,19.6727781 L5.85988235,19.7023529 L5.65051444,19.8324469 C4.46503102,20.5937692 3.78098529,21.4709711 3.78098529,22.3148199 C3.78098529,24.739934 8.94092207,27.0963603 15.1546213,27.0963603 C21.3683519,27.0963603 26.5282831,24.7399318 26.5282831,22.3147941 L26.5282831,22.3147941 L26.5232123,22.1885637 L26.5058003,22.0477647 C26.3723541,21.2485643 25.6507867,20.4291052 24.4999214,19.7173246 L24.4999214,19.7173246 L24.4823529,19.7064706 L24.6211805,19.6726593 L24.7966223,19.6413236 C25.3839915,19.5561157 25.9937121,19.6633952 26.5274286,19.9645198 L26.5274286,19.9645198 L26.672929,20.0529326 L26.8118066,20.1492842 C27.4440851,20.6168525 27.8523888,21.3312378 27.9299464,22.1172388 L27.9299464,22.1172388 L27.9312941,22.1441176 L27.9207589,22.170756 L27.9034749,22.241313 L27.8975037,22.3184228 L27.893619,22.4690151 C27.7256015,25.7240311 22.1281953,28.4595588 15.1546213,28.4595588 C8.07378331,28.4595588 2.41176471,25.6392117 2.41176471,22.3184228 L2.41176471,22.3184228 L2.41176471,22.1878676 L2.42316179,22.0216188 C2.5121304,21.1400298 3.04838007,20.3456212 3.85594658,19.9281293 Z M20.998,22.4054118 L21.1952738,22.4706038 L21.5634945,22.6060165 C21.8072632,22.7006991 22.04753,22.8041627 22.2838235,22.9162044 L22.2838235,22.9162044 L22.4869412,23.0172941 L22.415279,23.079161 L22.2340737,23.2211094 C20.6818145,24.3836781 18.0876401,25.0365867 15.4617905,25.08342 L15.4617905,25.08342 L15.3234734,25.0825274 L14.8506524,25.0798164 L14.5354114,25.0712981 C11.9112644,24.9761953 9.37218497,24.2794787 7.93402307,23.0786306 L7.93402307,23.0786306 L7.86270588,23.0164706 L8.07134931,22.914128 L8.42813732,22.753132 C8.66789313,22.6501088 8.9113651,22.5557338 9.15808462,22.4702084 L9.15808462,22.4702084 L9.35082353,22.4062353 L9.50982607,22.5018243 L9.69800964,22.604976 C10.9853345,23.2810265 12.9221184,23.7211287 15.1546213,23.7211287 C17.5917618,23.7211287 19.6694273,23.1992196 20.998,22.4054118 L20.998,22.4054118 Z M15.1552064,1.29362507 L17.1810452,4.29856486 C21.1858014,10.2833726 22.1576505,12.242171 22.2814312,14.7783428 L22.2814312,14.7783428 L22.2922128,15.0796573 L22.2953417,15.3574863 C22.2941715,17.2443745 21.538635,19.0528141 20.1962644,20.3824135 C18.855677,21.7102782 17.0392594,22.4521184 15.1614346,22.4426109 C13.2709472,22.45211 11.4542676,21.7109421 10.1130039,20.3824391 C8.77058527,19.0527603 8.01509687,17.244318 8.01392647,15.3566949 C8.01392647,12.7481524 8.77345542,10.9091205 12.0577009,5.90637197 L12.0577009,5.90637197 L12.9728926,4.52695424 L15.1552064,1.29362507 Z M15.155,3.795 L14.1348212,5.30792463 C10.3804092,10.9171355 9.48369166,12.7439735 9.41796119,15.063451 L9.41796119,15.063451 L9.41392634,15.3562608 C9.414865,16.8699697 10.0209165,18.3206991 11.0982164,19.3877752 C12.1754163,20.4547267 13.6350479,21.0502264 15.1614482,21.0425189 C16.6749838,21.0502267 18.134391,20.4541925 19.2110519,19.3877496 C20.2883145,18.3207359 20.8944034,16.8700117 20.8953876,15.3650634 L20.8953876,15.3650634 L20.8924508,15.1040712 C20.8399784,12.8653742 20.0820043,11.1894807 16.4448872,5.71778902 L16.4448872,5.71778902 L15.155,3.795 Z M2.41604062,14.6753001 C2.50107903,13.5603117 3.84009605,12.8833039 5.13724392,13.5790479 L5.13724392,13.5790479 L5.26619824,13.653721 L5.3978965,13.7423167 C6.21969282,14.3358722 6.80522302,15.5401117 7.00027842,17.0210681 L7.00027842,17.0210681 L7.00705882,17.0810588 L6.87498499,17.0159905 L6.68647261,16.9366163 C6.36698846,16.814399 6.02001528,16.7415484 5.63048231,16.7030774 C5.55176352,16.695303 5.48058471,16.6893144 5.39960389,16.6838456 L5.39960389,16.6838456 L4.78255621,16.6514359 C3.82145083,16.5956122 3.41074359,16.4697604 2.94212485,16.0197482 C2.64778272,15.731267 2.46365277,15.3468766 2.42100835,14.9364855 L2.42100835,14.9364855 L2.41176471,14.7882243 Z M25.2929563,13.4757188 C26.5921642,12.8691856 27.8883934,13.6029865 27.8883934,14.750136 C27.8808266,15.2112062 27.6891862,15.6571407 27.3550541,15.9846009 C26.860019,16.4629723 26.4263192,16.5742832 25.3184089,16.6251007 L25.3184089,16.6251007 L24.9039418,16.6469831 L24.674718,16.6659154 L24.4772832,16.6886881 L24.249734,16.7246494 C23.9528276,16.7791983 23.6811848,16.8608507 23.4263258,16.978019 L23.4263258,16.978019 L23.2972941,17.0407059 L23.3402851,16.7569794 C23.5822732,15.3263196 24.200419,14.1674313 25.0428385,13.6148768 L25.0428385,13.6148768 L25.1630735,13.5408742 Z M15.1109485,7.36048162 L15.1109485,7.36228309 C15.5784287,8.07806949 15.8368229,8.91011656 15.8570404,9.76477574 C15.8570404,12.6042537 12.9200515,13.0847574 12.9200515,11.3368162 C12.9618971,10.201761 14.4085551,8.41395588 15.1109485,7.36048162 Z M5.02828413,10.4311361 C4.62488372,9.58661611 5.65786545,8.8639903 6.44973945,9.62396914 L6.44973945,9.62396914 L6.53752001,9.70997939 L6.62488245,9.81386448 C6.90142138,10.1772423 7.03093567,10.7095059 7.00345233,11.3489773 L7.00345233,11.3489773 L6.99223529,11.5098824 L6.96959781,11.4950402 L6.83247278,11.4151488 C6.64269254,11.3134552 6.42406361,11.22984 6.16385174,11.1494839 L6.16385174,11.1494839 L5.9044941,11.0690004 C5.47847165,10.9304774 5.28550208,10.8179728 5.11778278,10.5816853 L5.11778278,10.5816853 L5.07347424,10.515944 Z M23.8892231,9.57138985 C24.7237243,8.93351567 25.6946243,9.69992415 25.1971821,10.5159594 C25.0095689,10.834221 24.8072441,10.947592 24.2258609,11.1223341 L24.2258609,11.1223341 L23.914746,11.2201437 L23.7601665,11.2762846 C23.6107962,11.3339522 23.476681,11.3966611 23.3544707,11.4685626 L23.3544707,11.4685626 L23.2956471,11.5049412 L23.2880429,11.3030253 C23.2774743,10.6195622 23.4293663,10.0662907 23.7289996,9.72136609 L23.7289996,9.72136609 L23.8062871,9.63990838 Z" id="形状结合" fill="#5A789D" fill-rule="nonzero"></path>
                <rect id="矩形" x="0" y="0" width="30" height="30"></rect>
            </g>
        </g>
    </g>
</svg>