<?xml version="1.0" encoding="UTF-8"?>
<svg width="30px" height="30px" viewBox="0 0 30 30" version="1.1" xmlns="http://www.w3.org/2000/svg" xmlns:xlink="http://www.w3.org/1999/xlink">
    <title>designerMonitor</title>
    <g id="页面-1" stroke="none" stroke-width="1" fill="none" fill-rule="evenodd">
        <g id="顶部菜单图标" transform="translate(-327.000000, -9.000000)">
            <g id="designerMonitor" transform="translate(327.000000, 9.000000)">
                <path d="M23.4081768,3.30577592 L6.20589617,3.30577592 C5.30385515,3.30488448 4.43850268,3.66282342 3.80066305,4.30066305 C3.16282342,4.93850268 2.80488448,5.80385515 2.80577592,6.70589617 L2.80577592,20.3080512 C2.80577592,21.2089272 3.16364918,22.0729057 3.80066471,22.7099212 C4.43768024,23.3469367 5.3016587,23.7048083 6.2025347,23.7048083 L14.1246597,23.7048083 L14.1246597,25.9469033 L7.0756744,25.9469033 C6.70043256,25.9469033 6.39623894,26.251097 6.39623894,26.6263388 C6.39623894,27.0015806 6.70043256,27.3057759 7.0756744,27.3057759 L22.5249527,27.3057759 C22.9001945,27.3057759 23.2043882,27.0015806 23.2043882,26.6263388 C23.2043882,26.251097 22.9001945,25.9469033 22.5249527,25.9469033 L15.4868921,25.9469033 L15.4868921,23.7048083 L23.4090171,23.7048083 C25.2849943,23.7048083 26.8057759,22.1840284 26.8057759,20.3080512 L26.8057759,6.70589617 C26.8066665,5.80429227 26.4490735,4.93932251 25.8117794,4.30155556 C25.1744854,3.66378862 24.3097811,3.30577592 23.4081768,3.30577592 L23.4081768,3.30577592 Z M25.446063,20.3046898 C25.4467331,20.8453759 25.2322431,21.3641097 24.8499199,21.7464329 C24.4675967,22.128756 23.948863,22.3432461 23.4081768,22.3425775 L6.20589617,22.3425775 C5.66520998,22.3432461 5.1464762,22.128756 4.76415304,21.7464329 C4.38182988,21.3641097 4.16733983,20.8453759 4.1680084,20.3046898 L4.1680084,6.70589617 C4.16733983,6.16520998 4.38182988,5.6464762 4.76415304,5.26415304 C5.1464762,4.88182988 5.66520998,4.66733983 6.20589617,4.6680084 L23.4216226,4.6680084 C23.9623088,4.66733983 24.4810426,4.88182988 24.8633657,5.26415304 C25.2456889,5.6464762 25.460179,6.16520998 25.4595104,6.70589617 L25.4595104,20.3080512 L25.446063,20.3046898 Z M19.4954353,10.1303853 L16.4112941,13.174189 C15.0887739,12.3245916 13.3389287,12.6052387 12.3484299,13.8258072 C11.3579311,15.0463758 11.4435514,16.8165143 12.5472267,17.9357892 C13.6509019,19.0550641 15.4196645,19.1655188 16.6540139,18.1922475 C17.8883632,17.2189762 18.1935407,15.473242 17.3625878,14.1389285 L20.446729,11.1085707 C20.7043437,10.8342195 20.6923349,10.4034058 20.4198373,10.1438312 C20.160581,9.89838566 19.7546916,9.89838566 19.4954353,10.1438312 L19.4954353,10.1303853 Z M14.8078768,17.3995466 C13.8847401,17.3995466 13.13639,16.6511963 13.13639,15.7280596 C13.13639,14.8049229 13.8847401,14.0565727 14.8078768,14.0565727 C15.7310135,14.0565727 16.4793637,14.8049229 16.4793637,15.7280596 C16.4793637,16.1715111 16.3031458,16.5967877 15.9894995,16.9102765 C15.6758531,17.2237652 15.2504879,17.3997694 14.8070365,17.3995466 L14.8078768,17.3995466 Z M10.1472101,11.0673928 C12.0423734,9.16608783 14.9025167,8.60669701 17.3743529,9.65389814 C17.6025145,9.76568647 17.8738112,9.74198318 18.0791298,9.59232154 C18.2844484,9.44265991 18.3900458,9.19163605 18.3534515,8.94020973 C18.3168573,8.68878342 18.1440854,8.47827527 17.9046235,8.39334997 C14.9193099,7.13418972 11.4687597,7.80885018 9.17755123,10.0996897 C6.88634271,12.3905291 6.21112643,15.8409705 7.46980579,18.8264869 C7.62951889,19.1524637 8.01582144,19.2972132 8.35042136,19.1564582 C8.68502129,19.0157032 8.85168757,18.638338 8.73035396,18.2962163 C7.68316693,15.8236718 8.24362065,12.9628632 10.1463697,11.0682332 L10.1472101,11.0673928 Z M21.2484376,12.2632328 C20.9093524,12.4118882 20.7474744,12.8012104 20.8811979,13.1464569 C21.5743224,14.7884107 21.5743224,16.6408167 20.8811979,18.2827705 C20.7598643,18.6248922 20.9265306,19.0022573 21.2611305,19.1430124 C21.5957304,19.2837674 21.982033,19.1390178 22.1417461,18.8130411 C22.970589,16.8308589 22.970589,14.5992089 22.1417461,12.6170267 C22.0714835,12.4530522 21.93893,12.3237266 21.7732735,12.2575271 C21.607617,12.1913275 21.4224415,12.1936824 21.258522,12.2640732 L21.2484376,12.2632328 Z" id="路径_36" fill="#FFFFFF" fill-rule="nonzero"></path>
                <rect id="矩形" x="0" y="0" width="30" height="30"></rect>
            </g>
        </g>
    </g>
</svg>