<?xml version="1.0" encoding="UTF-8"?>
<svg width="30px" height="30px" viewBox="0 0 30 30" version="1.1" xmlns="http://www.w3.org/2000/svg" xmlns:xlink="http://www.w3.org/1999/xlink">
    <title>designCarbonEmissionManage</title>
    <g id="页面-1" stroke="none" stroke-width="1" fill="none" fill-rule="evenodd">
        <g id="顶部菜单图标" transform="translate(-873.000000, -9.000000)">
            <g id="designCarbonEmissionManage" transform="translate(873.000000, 9.000000)">
                <path d="M18.5198347,7.8336513 C21.4824969,7.8336513 23.9440864,10.080978 24.2335369,13.0315232 L24.2464852,13.1993908 L24.4198846,13.2701878 C26.4272015,14.1312106 27.8059302,16.0433298 27.9811823,18.1831184 L27.9960302,18.4309806 L28,18.6805824 C28,21.9178591 25.4372405,24.5381971 22.2467822,24.6583225 L22.0178509,24.6626254 C21.873629,24.6626254 21.7920195,24.6618198 21.7121016,24.6582829 L21.6515286,24.6550879 C21.558245,24.6494344 21.4723571,24.640021 21.3912014,24.6258081 L21.3370831,24.6144669 L21.1128178,24.8874229 C20.9307811,25.0980234 20.7392772,25.2990639 20.5384309,25.4904428 L20.2301702,25.770252 L19.9079896,26.0354924 C18.5464933,27.1533524 16.7827365,27.7491103 14.9924234,27.7491103 C12.5952813,27.7491103 10.3299191,26.7195282 8.79352977,24.8590363 L8.6455378,24.6731907 L8.5318497,24.6943743 L8.46802973,24.702448 L8.33331822,24.7138781 C8.22971881,24.7201569 8.14727327,24.7214156 7.96699586,24.7214156 C5.33006194,24.7214156 2.97475613,22.9374895 2.23899004,20.3998449 C1.3366708,17.3290488 3.06943561,14.0822864 6.08857405,13.0655087 L6.2388936,13.0180683 L6.25969302,12.7957165 C6.34390158,12.110496 6.57635462,11.4256072 6.938926,10.782419 L7.10222732,10.5094407 L7.28114442,10.2422922 C8.41520458,8.68659425 10.1131561,7.8336513 11.9647287,7.8336513 C13.1140724,7.8336513 14.1809581,8.12946921 15.0819506,8.72708873 L15.2432045,8.84043893 L15.4268294,8.71816327 C16.0882926,8.3000037 16.8337334,8.01929226 17.6143398,7.89622657 L17.9086203,7.85750603 L18.2056255,7.8336513 L18.5198347,7.8336513 Z M18.5933224,9.30368865 L18.36525,9.30344452 C17.6263914,9.35440029 16.8851853,9.59782341 16.2727689,9.98622188 L15.3292261,10.6235933 L15.2141275,10.6235933 L14.4894143,10.1353398 C13.7843272,9.602927 12.8941878,9.30368865 12.0088213,9.30368865 C10.6461536,9.30368865 9.35362765,9.96353674 8.5214279,11.0826532 C8.13502852,11.6289419 7.86675982,12.2935397 7.77321039,12.9569821 L7.74642985,13.2054856 L7.68763966,14.0579433 L7.6141276,14.1496344 L6.82090488,14.3846623 C5.63593307,14.7415815 4.68304904,15.5120776 4.09080574,16.5808143 C3.52747199,17.7074818 3.38739629,18.8944391 3.7304202,20.019648 C4.26450923,21.9250467 6.05389996,23.2807733 8.05518115,23.2807733 C8.10477608,23.2807733 8.14935489,23.2768727 8.22435538,23.2659927 L8.44316058,23.2329084 C8.47919039,23.2282069 8.50866072,23.2252687 8.53615539,23.223725 L9.34146578,23.2026634 L9.76769465,23.7464726 C11.0381646,25.367417 12.9551203,26.308468 15.0218185,26.308468 C16.5007013,26.308468 17.8773814,25.8385612 19.0700844,24.9370034 C19.3961341,24.6575323 19.7317847,24.3311974 20.0378527,23.9975046 L20.7776811,23.1635976 L21.4549361,23.2250592 C21.639608,23.2712272 21.7684811,23.2807733 22.0325485,23.2807733 C24.5101257,23.2807733 26.590064,21.2767125 26.6621345,18.8422554 C26.6621345,16.9906048 25.6034264,15.3426686 23.9561403,14.6502355 L23.7556709,14.5717781 L23.0354911,14.2631296 L22.9733316,14.176046 L22.9143885,13.3799127 C22.7997065,11.0862721 20.9078961,9.30368865 18.5933224,9.30368865 Z M21.8561779,18.0044952 C22.0325485,18.0044952 22.2824068,18.0632854 22.5175675,18.1220756 C22.6498454,18.1955633 22.7674258,18.3131437 22.8850062,18.4307241 C22.9437964,18.6070947 23.0025866,18.7393726 23.0025866,18.9157432 C23.0025866,19.0921137 22.9437964,19.2831818 22.826216,19.4595524 C22.6498454,19.635923 22.4587773,19.8857813 22.2236166,20.0033616 C22.0325485,20.120942 21.9149681,20.1797322 21.8561779,20.2385224 C21.8071861,20.2385224 21.7479876,20.2793489 21.7721433,20.361002 L21.7973877,20.414893 L23.1348645,20.414893 L23.1348645,21.0762826 L20.5921888,21.0762826 C20.5921888,20.7823316 20.7097692,20.5324733 20.8273496,20.3561028 C21.0772079,20.0474543 21.3711588,19.7388058 21.6798073,19.5624352 C21.8561779,19.4448548 22.047246,19.3125769 22.1648264,19.1362064 C22.2236166,19.0774162 22.2824068,19.018626 22.2824068,18.9010456 C22.2824068,18.7834652 22.2236166,18.724675 22.1648264,18.6658849 C21.9884558,18.5483045 21.7385975,18.5483045 21.6210171,18.6658849 C21.5769245,18.7650933 21.5328319,18.8560344 21.5135413,18.9449086 L21.5034368,19.0333235 L20.650979,18.9745333 C20.650979,18.7981628 20.7097692,18.6070947 20.8273496,18.4307241 C20.8861398,18.2984462 21.0184177,18.1808658 21.1947883,18.1220756 C21.429949,18.0044952 21.6210171,18.0044952 21.8561779,18.0044952 Z M11.1065127,14.2506583 L11.3033391,14.2566207 C11.9794262,14.2566207 12.6408158,14.4917815 13.1258349,14.9180103 C13.3777929,15.1699683 13.5541634,15.4759172 13.6734578,15.8266016 L13.7284343,16.0056288 L12.5232355,16.3142773 C12.3909575,15.7116779 11.8471483,15.285449 11.2445489,15.285449 C10.81832,15.285449 10.3920911,15.4618196 10.1569304,15.7704681 C9.8482819,16.1379067 9.73070152,16.6229258 9.73070152,17.3431056 C9.73070152,18.1220756 9.86297944,18.6658849 10.1569304,18.9745333 C10.4508813,19.2831818 10.81832,19.4595524 11.2445489,19.4595524 C11.5531974,19.4595524 11.8618459,19.3272745 12.0970066,19.1509039 C12.367074,18.8808365 12.5358662,18.6220219 12.5738444,18.37446 L12.5820257,18.2690511 L13.7284343,18.6364898 C13.610854,19.180299 13.3022055,19.7241082 12.8171864,20.0915469 C12.3909575,20.4589856 11.7883581,20.576566 11.2445489,20.576566 C10.4508813,20.576566 9.73070152,20.2679175 9.24568246,19.7241082 C8.68717567,19.1656015 8.45201492,18.4454216 8.45201492,17.4753835 C8.45201492,16.4465552 8.70187322,15.6528877 9.24568246,15.1090784 C9.69885683,14.6559041 10.2745108,14.3252093 10.9131056,14.2615879 L11.1065127,14.2506583 Z M19.1665268,15.0796834 C19.7250336,15.6234926 19.9601943,16.4171601 19.9601943,17.3871983 C19.9601943,18.3572364 19.710336,19.1509039 19.1665268,19.6947132 C18.6227175,20.3120101 17.8437475,20.6059611 17.05008,20.5471709 C16.27111,20.5471709 15.4774424,20.2385224 14.9336332,19.6947132 C14.3751264,19.1362064 14.1399657,18.4160266 14.1399657,17.4459884 C14.1399657,16.9021792 14.2722436,16.35837 14.4486141,15.8733509 C14.5661945,15.5647024 14.7572626,15.2560539 14.9924234,15.0208932 C15.2422817,14.7857324 15.4774424,14.5946643 15.7860909,14.4770839 C16.2123198,14.3007134 16.6973389,14.2419232 17.1235677,14.2419232 C17.9172353,14.183133 18.6962053,14.4770839 19.1665268,15.0796834 Z M15.9183689,15.7557705 C15.6097204,16.1232092 15.4333498,16.6082283 15.4333498,17.3284081 C15.4333498,17.9765699 15.57621,18.4342515 15.8297867,18.787169 L15.9183689,18.9010456 L16.0359492,19.018626 C16.7120364,19.6212254 17.7408647,19.5624352 18.3434641,18.9010456 C18.6374151,18.5483045 18.7549955,17.9897977 18.769693,17.2696179 C18.769693,16.6743672 18.6744529,16.1743567 18.4304001,15.8553023 L18.3434641,15.7557705 L18.2846739,15.6969803 C17.6085868,15.0943809 16.5797585,15.0943809 15.9183689,15.7557705 Z M4.4542821,8.90671356 C5.24794964,8.90671356 5.85054908,9.50931299 5.85054908,10.3029805 C5.85054908,11.0966481 5.24794964,11.6992475 4.4542821,11.6992475 C3.6753121,11.6992475 2.99922493,11.0819505 3.05801512,10.3029805 C3.05801512,9.50931299 3.66061455,8.90671356 4.4542821,8.90671356 Z M25.7951205,8.75987941 C26.5318894,8.75987941 27.0883634,9.31635336 27.0883634,10.0531222 C27.0883634,10.7898911 26.5318894,11.3463651 25.7951205,11.3463651 C25.0583517,11.3463651 24.5018777,10.7898911 24.5018777,10.0531222 C24.5018777,9.31635336 25.0583517,8.75987941 25.7951205,8.75987941 Z M15.0071209,4.23289357 C15.8007885,4.23289357 16.4033879,4.835493 16.4033879,5.62916055 C16.4033879,6.42282809 15.8007885,7.02542753 15.0071209,7.02542753 C14.2134534,7.02542753 13.610854,6.36403791 13.610854,5.62916055 C13.610854,4.835493 14.2134534,4.23289357 15.0071209,4.23289357 Z M21.2976711,4.67381999 C21.9002705,4.67381999 22.4440798,5.15883904 22.4440798,5.82022866 C22.4440798,6.42282809 21.9590607,6.96663734 21.2976711,6.96663734 C20.6950717,6.96663734 20.1512624,6.48161828 20.1512624,5.82022866 C20.1512624,5.21762923 20.6950717,4.65912244 21.2976711,4.67381999 Z M8.64308303,4.49744942 C9.24568246,4.49744942 9.78949171,4.98246848 9.78949171,5.6438581 C9.78949171,6.24645753 9.30447265,6.79026677 8.64308303,6.79026677 C8.0404836,6.79026677 7.49667435,6.24645753 7.49667435,5.6438581 C7.49667435,5.04125866 7.98169341,4.49744942 8.64308303,4.49744942 Z M3.96926304,4.48275187 C4.4542821,4.48275187 4.88051097,4.85019055 4.88051097,5.3939998 C4.88051097,5.87901885 4.51307229,6.30524772 3.96926304,6.30524772 C3.4254538,6.30524772 2.99922493,5.87901885 3.05801512,5.3939998 C3.05801512,4.90898074 3.4254538,4.48275187 3.96926304,4.48275187 Z M25.8539107,4.17410338 C26.3389298,4.23289357 26.7651586,4.60033225 26.7651586,5.14414149 C26.7063684,5.62916055 26.3389298,6.05538942 25.7951205,6.05538942 C25.2513113,6.05538942 24.8250824,5.62916055 24.8838726,5.08535131 C24.9426628,4.60033225 25.3101015,4.17410338 25.8539107,4.17410338 Z M19.4310826,1.58733509 C19.8288269,1.58733509 20.1512624,1.90977057 20.1512624,2.3075149 C20.1512624,2.70525922 19.8288269,3.02769471 19.4310826,3.02769471 C19.0333383,3.02769471 18.7109028,2.70525922 18.7109028,2.3075149 C18.7109028,1.90977057 19.0333383,1.58733509 19.4310826,1.58733509 Z M10.03935,0.867155281 C10.4508813,0.867155281 10.7595298,1.17580377 10.7595298,1.58733509 C10.7595298,1.99886641 10.4067887,2.3075149 10.03935,2.3075149 C9.67191133,2.3075149 9.3191702,1.99886641 9.3191702,1.58733509 C9.3191702,1.17580377 9.67191133,0.867155281 10.03935,0.867155281 Z M15.0659111,-1.77635684e-14 C15.5509302,-1.77635684e-14 15.977159,0.367438678 15.977159,0.911247922 C15.9183689,1.39626698 15.5509302,1.82249584 15.0071209,1.82249584 C14.4633117,1.82249584 14.0370828,1.45505717 14.1546632,0.911247922 C14.1546632,0.426228867 14.5221019,-1.77635684e-14 15.0659111,-1.77635684e-14 Z" id="形状结合" fill="#FFFFFF" fill-rule="nonzero"></path>
                <rect id="矩形备份-14" x="0" y="0" width="30" height="30"></rect>
            </g>
        </g>
    </g>
</svg>