<?xml version="1.0" encoding="UTF-8"?>
<svg width="30px" height="30px" viewBox="0 0 30 30" version="1.1" xmlns="http://www.w3.org/2000/svg" xmlns:xlink="http://www.w3.org/1999/xlink">
    <title>designerEnergy</title>
    <g id="页面-1" stroke="none" stroke-width="1" fill="none" fill-rule="evenodd">
        <g id="顶部菜单图标" transform="translate(-639.000000, -9.000000)">
            <g id="designerEnergy" transform="translate(639.000000, 9.000000)">
                <path d="M16.9236,0 L13.1141185,0 C12.4122909,0 11.8002827,0.463639744 11.6025741,1.12388487 L11.5666676,1.26827792 L10.8053927,5.09018843 L10.6469665,5.22017045 L7.18860358,5.22017045 C6.79619594,5.22017045 6.48011364,5.53625276 6.48011364,5.9286604 C6.48011364,6.28539462 6.74133868,6.57905005 7.08365581,6.62949373 L7.18860358,6.63715035 L10.4927782,6.63715035 L9.41334066,12.0504489 L9.25492106,12.1803977 L3.70848995,12.1803977 C3.31608231,12.1803977 3,12.49648 3,12.8888877 C3,13.2456219 3.26122505,13.5392773 3.60354218,13.589721 L3.70848995,13.5973776 L9.10387113,13.5973776 L6.49375422,26.6756737 L6.49598279,26.719162 L6.49484817,26.750842 C6.48955565,26.8037673 6.49013267,26.8493518 6.49765066,26.9023287 C6.50202865,26.9395415 6.51070165,26.9777028 6.52372754,27.022802 L6.56065876,27.1167264 C6.56652542,27.1292971 6.57260121,27.1410871 6.5794162,27.1532383 L6.61455964,27.2095391 L6.68941483,27.304256 L6.70178187,27.3250151 L6.72846462,27.3407601 L6.75085226,27.3565936 C6.7814515,27.3806358 6.81598715,27.4025084 6.86645817,27.4309586 L6.93093489,27.4612755 L7.03159746,27.4958255 L7.05784615,27.5078462 L7.12254693,27.5063912 L7.18643865,27.5197149 L7.23044434,27.5083539 L7.26087473,27.503284 C7.31203827,27.4975991 7.35464022,27.4895727 7.38920743,27.4795131 C7.44015604,27.4625303 7.48239855,27.4445151 7.51956379,27.4236096 L7.58064184,27.3858601 L7.69974384,27.2999326 L14.9016757,19.7099621 L15.1360213,19.7099394 L22.3102937,27.2731175 L22.3696546,27.3164577 C22.3976116,27.3428616 22.4297411,27.3672407 22.4669631,27.3900646 L22.5848013,27.4583513 C22.6799215,27.4966731 22.7645782,27.5147249 22.8491149,27.5147249 L22.9346944,27.5085593 L22.9693846,27.5024615 L23.036765,27.4760466 L23.1019506,27.454205 L23.2176202,27.3944245 L23.3158176,27.3275006 L23.3289173,27.3205616 L23.354834,27.2826595 L23.3758799,27.2573039 C23.4090013,27.2186622 23.4361355,27.1808005 23.4571679,27.1434097 C23.4800519,27.102727 23.4966272,27.0642485 23.5082385,27.02477 L23.530986,26.9347499 C23.5334675,26.9219009 23.5353554,26.9098276 23.5367418,26.8980779 L23.5409607,26.8274617 L23.538757,26.7037978 L23.5408497,26.675947 L20.933894,13.5973776 L26.3292286,13.5973776 C26.7216362,13.5973776 27.0377185,13.2812953 27.0377185,12.8888877 C27.0377185,12.5321535 26.7764935,12.238498 26.4341764,12.1880543 L26.3292286,12.1803977 L20.7827975,12.1803977 L20.6243779,12.0504489 L19.5449404,6.63715035 L22.8491149,6.63715035 C23.2415226,6.63715035 23.5576049,6.32106804 23.5576049,5.9286604 C23.5576049,5.57192618 23.2963798,5.27827075 22.9540627,5.22782707 L22.8491149,5.22017045 L19.3938593,5.22017045 L19.2354578,5.09031229 L18.4710524,1.26828504 C18.3341836,0.581309205 17.7598394,0.0718710716 17.0724986,0.00699921308 L16.9236,0 Z M8.36498491,24.5395686 L10.3446981,14.6648138 L13.9366166,18.4483894 L13.9366166,18.6708295 L8.36498491,24.5395686 Z M16.1010721,18.4452821 L19.6930379,14.6616882 L21.6727443,24.5398109 L16.1010721,18.667689 L16.1010721,18.4452821 Z M11.2870257,13.5973776 L18.7506929,13.5973776 L15.1360311,17.4061601 L14.9016874,17.4061601 L11.2870257,13.5973776 Z M17.9520979,6.63715035 L18.1104812,6.76691787 L19.1963995,12.1803977 L10.841319,12.1803977 L11.9272373,6.76691787 L12.0856206,6.63715035 L17.9520979,6.63715035 Z M16.9080638,1.4169799 L17.0664653,1.54683806 L17.8011318,5.22017045 L12.2364142,5.22017045 L12.9743877,1.5467021 L13.132762,1.4169799 L16.9080638,1.4169799 Z" id="形状" fill="#FFFFFF" fill-rule="nonzero"></path>
                <rect id="矩形备份-11" x="0" y="0" width="30" height="30"></rect>
            </g>
        </g>
    </g>
</svg>