<?xml version="1.0" encoding="UTF-8"?>
<svg width="30px" height="30px" viewBox="0 0 30 30" version="1.1" xmlns="http://www.w3.org/2000/svg" xmlns:xlink="http://www.w3.org/1999/xlink">
    <title>公共模块</title>
    <g id="页面-1" stroke="none" stroke-width="1" fill="none" fill-rule="evenodd">
        <g id="顶部菜单图标" transform="translate(-167.000000, -17.000000)">
            <g id="公共模块" transform="translate(167.000000, 17.000000)">
                <path d="M10.6816849,16.2504496 C12.3786758,16.2504496 13.7543588,17.6261326 13.7543588,19.3231236 L13.7543588,23.9321345 C13.7543588,25.6291254 12.3786758,27.0048084 10.6816849,27.0048084 L6.07267394,27.0048084 C4.37568298,27.0048084 3,25.6291254 3,23.9321345 L3,19.3231236 C3,17.6261326 4.37568298,16.2504496 6.07267394,16.2504496 L10.6816849,16.2504496 Z M22.9723806,16.2504496 C24.6693716,16.2504496 26.0450546,17.6261326 26.0450546,19.3231236 L26.0450546,23.9321345 C26.0450546,25.6291254 24.6693716,27.0048084 22.9723806,27.0048084 L18.3633697,27.0048084 C16.6663787,27.0048084 15.2906958,25.6291254 15.2906958,23.9321345 L15.2906958,19.3231236 C15.2906958,17.6261326 16.6663787,16.2504496 18.3633697,16.2504496 L22.9723806,16.2504496 Z M10.6816849,17.7867866 L6.07267394,17.7867866 C5.29378977,17.7868893 4.63822077,18.3698374 4.54709133,19.1433721 L4.53633697,19.3231236 L4.53633697,23.9321345 C4.53643972,24.7110187 5.11938778,25.3665876 5.89292252,25.4577171 L6.07267394,25.4684714 L10.6816849,25.4684714 C11.460569,25.4683687 12.116138,24.8854206 12.2072675,24.1118859 L12.2180218,23.9321345 L12.2180218,19.3231236 C12.2179191,18.5442394 11.634971,17.8886704 10.8614363,17.797541 L10.6816849,17.7867866 Z M22.9723806,17.7867866 L18.3633697,17.7867866 C17.5844855,17.7868893 16.9289165,18.3698374 16.8377871,19.1433721 L16.8270327,19.3231236 L16.8270327,23.9321345 C16.8271355,24.7110187 17.4100835,25.3665876 18.1836183,25.4577171 L18.3633697,25.4684714 L22.9723806,25.4684714 C23.7512648,25.4683687 24.4068338,24.8854206 24.4979632,24.1118859 L24.5087176,23.9321345 L24.5087176,19.3231236 C24.5086148,18.5442394 23.9256668,17.8886704 23.152132,17.797541 L22.9723806,17.7867866 Z M22.8402556,3.90444573 L26.1003627,7.16455278 C27.2998791,8.3644315 27.2998791,10.309435 26.1003627,11.5093137 L22.8402556,14.7694208 C21.6403769,15.9689372 19.6953734,15.9689372 18.4954947,14.7694208 L15.2353876,11.5093137 C14.0358712,10.309435 14.0358712,8.3644315 15.2353876,7.16455278 L18.4954947,3.90444573 C19.6953734,2.70492932 21.6403769,2.70492932 22.8402556,3.90444573 Z M10.6816849,3.95975386 C12.3786758,3.95975386 13.7543588,5.33543684 13.7543588,7.0324278 L13.7543588,11.6414387 C13.7543588,13.3384297 12.3786758,14.7141127 10.6816849,14.7141127 L6.07267394,14.7141127 C4.37568298,14.7141127 3,13.3384297 3,11.6414387 L3,7.0324278 C3,5.33543684 4.37568298,3.95975386 6.07267394,3.95975386 L10.6816849,3.95975386 Z M19.7153462,4.87233802 L19.5816849,4.9921723 L16.3231142,8.24920668 C15.7710125,8.80025328 15.7194832,9.67757214 16.2032799,10.2894622 L16.3231142,10.4231235 L19.5801486,13.6816942 C20.1311952,14.233796 21.008514,14.2853252 21.6204041,13.8015285 L21.7540654,13.6816942 L25.0126361,10.4246598 C25.5647379,9.87361323 25.6162671,8.99629437 25.1324704,8.38440433 L25.0126361,8.25074302 L21.7556017,4.9921723 C21.2045551,4.44007056 20.3272363,4.38854129 19.7153462,4.87233802 Z M10.6816849,5.49609083 L6.07267394,5.49609083 C5.29378977,5.49619358 4.63822077,6.07914164 4.54709133,6.85267637 L4.53633697,7.0324278 L4.53633697,11.6414387 C4.53643972,12.4203229 5.11938778,13.0758919 5.89292252,13.1670213 L6.07267394,13.1777757 L10.6816849,13.1777757 C11.460569,13.1776729 12.116138,12.5947249 12.2072675,11.8211901 L12.2180218,11.6414387 L12.2180218,7.0324278 C12.2179191,6.25354363 11.634971,5.59797463 10.8614363,5.50684519 L10.6816849,5.49609083 Z" id="形状" fill="#FFFFFF" fill-rule="nonzero"></path>
                <rect id="矩形" x="0" y="0" width="30" height="30"></rect>
            </g>
        </g>
    </g>
</svg>