<?xml version="1.0" encoding="UTF-8"?>
<svg width="30px" height="30px" viewBox="0 0 30 30" version="1.1" xmlns="http://www.w3.org/2000/svg" xmlns:xlink="http://www.w3.org/1999/xlink">
    <title>designerSafe</title>
    <g id="页面-1" stroke="none" stroke-width="1" fill="none" fill-rule="evenodd">
        <g id="顶部菜单图标" transform="translate(-403.000000, -9.000000)">
            <g id="designerSafe" transform="translate(403.000000, 9.000000)">
                <path d="M15.1156237,2 L24.6298016,4.12627462 C25.2574731,4.17432602 25.75,4.67586255 25.75,5.28851795 L25.75,17.9770918 C25.75,20.2174885 23.9841109,22.4999302 20.5063906,24.7583461 C18.0227336,26.3710714 15.5811217,27.3711412 15.4790124,27.4131862 L15.3438679,27.467244 L14.6591354,27.467244 L14.5239908,27.4131862 C14.4218815,27.3711412 11.9772664,26.3710714 9.49661266,24.7583461 C6.01588909,22.4969269 4.25,20.2144853 4.25,17.9770918 L4.25,5.28851795 C4.25,4.67886576 4.74252689,4.17732924 5.36719514,4.12627462 L14.4999651,2 L15.1156237,2 Z M14.950447,3.50160637 L14.6711482,3.50160637 L5.75160637,5.57982959 L5.75160637,17.9770918 C5.75160637,20.0883503 8.22325045,22.1395446 10.2954672,23.4879871 C12.3406551,24.8184104 14.4218815,25.7373935 14.9564534,25.9656377 L15.0465498,25.9656377 C15.5811217,25.7373935 17.6623481,24.8184104 19.707536,23.4849839 C21.7797528,22.1365414 24.2513968,20.0883503 24.2513968,17.9770918 L24.2513968,5.57982959 L14.950447,3.50160637 Z M20.9116042,10.5974678 C21.2848481,10.9705468 21.2893926,11.5741854 20.9218081,11.9528416 L14.9187986,17.9558512 C14.7379712,18.1367975 14.4927252,18.2385854 14.2369127,18.238864 L14.2230336,18.238864 C13.9624001,18.2352736 13.7142912,18.126454 13.5351134,17.9371446 L9.96094514,14.1553934 C9.59434806,13.7678003 9.6113687,13.1564084 9.99896178,12.7898113 C10.3865549,12.4232142 10.9979468,12.4402349 11.3645439,12.827828 L14.2562228,15.8878663 L19.5562261,10.587863 C19.9347198,10.2201112 20.5383604,10.2243889 20.9116042,10.5974678 Z" id="形状结合" fill="#FFFFFF" fill-rule="nonzero"></path>
                <rect id="矩形" x="0" y="0" width="30" height="30"></rect>
            </g>
        </g>
    </g>
</svg>