<?xml version="1.0" encoding="UTF-8"?>
<svg width="30px" height="30px" viewBox="0 0 30 30" version="1.1" xmlns="http://www.w3.org/2000/svg" xmlns:xlink="http://www.w3.org/1999/xlink">
    <title>数字孪生</title>
    <g id="页面-1" stroke="none" stroke-width="1" fill="none" fill-rule="evenodd">
        <g id="顶部菜单图标" transform="translate(-1443.000000, -13.000000)">
            <g id="数字孪生" transform="translate(1443.000000, 13.000000)">
                <path d="M15.0435808,1.1508817 L14.845462,1.16068157 C14.7897616,1.16735233 14.7351607,1.18170365 14.6830543,1.20341847 L14.6069398,1.24147369 L3.85079133,7.43788439 C3.82050817,7.45117657 3.7913895,7.46691419 3.75878611,7.48824548 L3.70668635,7.5248312 L3.43244029,7.68368379 C3.32245139,7.74768255 3.23442602,7.84232322 3.18222097,7.93136807 L3.14999928,7.99653627 L3.14999928,21.1706348 C3.15049545,21.3311993 3.21286605,21.4853933 3.3297088,21.6072716 C3.35905661,21.6413829 3.39184498,21.67229 3.42656885,21.6989574 L3.47991815,21.7356494 L14.6220547,28.182132 L14.6939134,28.195938 L14.6505548,28.191132 L14.7298582,28.2078425 C14.8897719,28.2903891 15.0754141,28.3009734 15.2410414,28.2407772 L15.33765,28.1961753 L26.4872113,21.7698529 C26.6667194,21.6820636 26.7943839,21.5148411 26.8328158,21.3134753 C26.8431281,21.2679294 26.8488671,21.2232335 26.8496658,21.1757851 L26.8471129,21.1020979 L26.8471145,8.28683521 C26.8473182,8.24335259 26.8432242,8.19995627 26.8332337,8.14683991 C26.8129571,7.98190745 26.7287562,7.83303048 26.6006587,7.73061552 L26.5186929,7.67498523 L15.3436403,1.2324549 C15.2544604,1.18181908 15.1541284,1.15377009 15.0435808,1.1508817 Z M25.5496054,8.96850793 L25.5496054,20.7765964 L25.4751357,20.9061926 L15.6493696,26.6327719 L15.6540603,20.2049843 L15.7284766,20.0755286 L19.7489859,17.7301119 C19.8621627,17.6628984 19.9509887,17.5613829 20.0193718,17.4107158 C20.0786464,17.3294099 20.1173458,17.2355306 20.1328736,17.1369436 L20.1405813,17.0370788 L20.1405813,12.2070561 L20.2150527,12.0774589 L25.5496054,8.96850793 Z M4.45050752,20.8035577 L4.45357496,8.96935145 L9.79071404,12.0607577 L9.86553157,12.190556 L9.86552838,17.0665578 C9.86465512,17.200375 9.90703159,17.3308945 10.0029721,17.4674954 C10.0429442,17.5589274 10.1033891,17.6394105 10.1780991,17.7024156 L10.2573343,17.759353 L14.2758532,20.0918639 L14.3505527,20.2215938 L14.3505527,26.6320269 L4.52524981,20.9333512 L4.45050752,20.8035577 Z M6.2843744,18.9794304 C5.93852627,18.9952614 5.66551173,19.2817028 5.66551173,19.6289124 C5.66582781,19.8944285 5.82772388,20.1330168 6.07433817,20.2314052 C6.32095246,20.3297935 6.60262074,20.2681681 6.78561819,20.0757862 C6.96861565,19.8834042 7.01608948,19.5990085 6.90550101,19.3576186 C6.80879667,19.1465347 6.60815512,19.0053684 6.38275239,18.9820471 L6.2843744,18.9794304 Z M23.6855263,18.7506766 C23.3694288,18.7457206 23.087812,18.984372 23.0416029,19.3096845 C22.991121,19.6650767 23.2382997,19.9941026 23.5936919,20.0445844 C23.8235903,20.0772405 24.053447,19.9847665 24.1966772,19.8019966 C24.3399073,19.6192268 24.3747509,19.3739281 24.2880826,19.1585022 C24.2137955,18.9738514 24.0599081,18.8351933 23.8785041,18.779424 L23.7857501,18.7586176 L23.6855263,18.7506766 Z M21.6290166,17.8356723 C21.3129192,17.8307163 21.0313024,18.0693677 20.9850932,18.3946802 C20.9346114,18.7500723 21.18179,19.0790982 21.5371822,19.1295801 C21.7670806,19.1622361 21.9969373,19.0697622 22.1401675,18.8869923 C22.2833977,18.7042225 22.3182412,18.4589237 22.231573,18.2434978 C22.1572859,18.0588471 22.0033985,17.920189 21.8219944,17.8644197 L21.7292404,17.8436133 L21.6290166,17.8356723 Z M8.33992567,17.8364658 L8.24247937,17.8435369 C7.92484589,17.8900146 7.68452131,18.1599847 7.68452131,18.4860856 C7.68452131,18.8447967 7.97531405,19.1355894 8.34037848,19.135724 C8.57892222,19.1458369 8.80378258,19.0242575 8.92594139,18.8191171 C9.04810021,18.6139766 9.04786019,18.3583525 8.92531635,18.1534419 C8.82042236,17.9780442 8.64002301,17.863568 8.44082733,17.8403371 L8.33992567,17.8364658 Z M18.9210742,12.85529 L18.9210742,16.6665771 L18.8457424,16.7966719 L15.6495602,18.6311288 L15.6495602,14.8740686 L15.6887209,14.7730011 L15.7847936,14.6585301 L18.9210742,12.85529 Z M11.0775387,16.6904513 L11.0807544,12.8589992 L14.2744047,14.6655084 L14.3505527,14.7960683 L14.3505527,18.6276406 L11.1537431,16.821169 L11.0775387,16.6904513 Z M14.8982743,10.0121657 L15.0447722,10.0121287 L18.16452,11.7568526 L15.1019442,13.4748829 L14.9552371,13.4749211 L11.8355886,11.7270099 L14.8982743,10.0121657 Z M15.0200214,2.47230388 L15.1690292,2.47230388 L24.7879206,7.9738611 L19.580701,10.9601702 L19.4316408,10.9602769 L15.4925061,8.70869989 C15.3747373,8.64124474 15.2383337,8.61362409 15.0688615,8.63010657 C14.9672866,8.61873037 14.8649668,8.6317029 14.7702916,8.66725813 L14.6784754,8.71027551 L10.7934571,10.9302859 L10.6445816,10.9302666 L5.44297963,7.95612985 L15.0200214,2.47230388 Z M14.8788567,6.41873723 L14.7802036,6.44613962 C14.4952935,6.54988277 14.3142939,6.84112126 14.3578485,7.14898519 C14.4124922,7.50838324 14.7474714,7.75592904 15.1045678,7.7030482 C15.2758996,7.67469582 15.4288611,7.57921431 15.5295834,7.43774528 C15.6101613,7.32457005 15.6519873,7.1894331 15.6505074,7.05226262 L15.6412064,6.94931486 L15.6170667,6.85642495 C15.5255489,6.58620083 15.2687737,6.40507497 14.9858901,6.40858118 L14.8788567,6.41873723 Z M14.87285,3.90860802 L14.7805205,3.93584135 C14.4841922,4.04759364 14.3065052,4.36245173 14.3756445,4.68122648 C14.4516977,5.0318787 14.7976107,5.25448521 15.1482629,5.17843204 C15.3750952,5.12923427 15.5584501,4.9627601 15.6292597,4.74171875 C15.7000692,4.5206774 15.6475758,4.27865031 15.4915532,4.10680674 C15.3578195,3.95951225 15.1654384,3.88296191 14.9703568,3.89507808 L14.87285,3.90860802 Z" id="形状" fill="#5A789D" fill-rule="nonzero"></path>
                <rect id="矩形" x="0" y="0" width="30" height="30"></rect>
            </g>
        </g>
    </g>
</svg>