<?xml version="1.0" encoding="UTF-8"?>
<svg width="30px" height="30px" viewBox="0 0 30 30" version="1.1" xmlns="http://www.w3.org/2000/svg" xmlns:xlink="http://www.w3.org/1999/xlink">
    <title>数字孪生</title>
    <g id="页面-1" stroke="none" stroke-width="1" fill="none" fill-rule="evenodd">
        <g id="顶部菜单图标" transform="translate(-549.000000, -86.000000)">
            <g id="数字孪生" transform="translate(549.000000, 86.000000)">
                <path d="M15.0206291,0.0448325291 C15.2048317,0.0209905407 15.3917919,0.0576943895 15.5533088,0.149407667 L27.7265115,7.16738155 C27.9600215,7.30055484 28.1169131,7.53619508 28.149714,7.80300245 C28.1608529,7.86005744 28.1663262,7.91807357 28.1660539,7.97620508 L28.1660539,21.9353554 C28.1742238,22.0252247 28.1660539,22.1150939 28.1464461,22.2016953 C28.0961063,22.4660782 27.9241626,22.6913002 27.6823938,22.8095384 L15.5467729,29.8046365 C15.2941891,29.9480628 14.9862513,29.9542092 14.7281454,29.8209763 L14.7167075,29.8209763 L14.6954657,29.8111724 L14.6856618,29.8111724 L2.46670753,22.7670547 C2.389374,22.7198807 2.31990499,22.6608872 2.26082518,22.5922181 C2.11047498,22.4358122 2.02620147,22.2274694 2.02553106,22.0105188 L2.02553106,7.65921159 C2.09144741,7.45616612 2.22990525,7.28454822 2.41441992,7.17718547 L2.71343953,7.00398284 C2.7667427,6.96270922 2.82491215,6.92813681 2.88664216,6.90104167 L14.5876225,0.159211589 C14.7196705,0.0814706673 14.8706927,0.0418768462 15.0238971,0.0448325291 L15.0206291,0.0448325291 Z M26.4258578,9.00234884 L20.8604984,12.2458129 L20.8604984,17.5072508 C20.8608727,17.6881045 20.803641,17.864378 20.6970997,18.0105188 C20.6272875,18.1743726 20.5070991,18.3117308 20.3539624,18.4026757 L15.9732435,20.9582312 L15.9683415,27.6755515 L26.4258578,21.5807802 L26.4258578,9.00234884 Z M3.77226306,9.00234884 L3.7689951,21.610192 L14.2265115,27.6755515 L14.2265115,20.9762051 L9.84906047,18.4353554 C9.69627218,18.3427929 9.57584708,18.2052458 9.50428922,18.0415645 C9.39702105,17.8957958 9.33970948,17.7192761 9.34089051,17.5382966 L9.34089051,12.227839 L3.77226306,9.00234884 Z M5.59415851,19.4598652 C5.94976355,19.4424982 6.28013276,19.6433262 6.42842006,19.9670042 C6.57670736,20.2906822 6.51305004,20.6720265 6.26767003,20.9299901 C6.02229003,21.1879537 5.64460301,21.2705868 5.31391964,21.1386585 C4.98323627,21.0067302 4.76615097,20.6868088 4.76572714,20.3307802 C4.76572714,19.8650939 5.1317402,19.481107 5.59579247,19.4598652 L5.59415851,19.4598652 Z M24.5238971,19.2098652 L24.6807598,19.2196691 C24.988989,19.2634517 25.2504467,19.4683467 25.3666445,19.7571722 C25.4828423,20.0459978 25.4361269,20.3748744 25.2440955,20.6199173 C25.0520641,20.8649603 24.7438909,20.9889419 24.4356618,20.9451593 C23.9591808,20.8774773 23.6277838,20.4363461 23.6954657,19.9598652 C23.7631477,19.4833843 24.2042789,19.1519872 24.6807598,19.2196691 L24.5238971,19.2098652 Z M22.285335,18.2164012 L22.4405637,18.2229371 C22.7487929,18.2667196 23.0102506,18.4716146 23.1264484,18.7604402 C23.2426462,19.0492657 23.1959308,19.3781423 23.0038994,19.6231853 C22.811868,19.8682283 22.5036948,19.9922098 22.1954657,19.9484273 C21.7189847,19.8807453 21.3875877,19.4396141 21.4552696,18.9631332 C21.5229516,18.4866522 21.9640828,18.1552551 22.4405637,18.2229371 L22.283701,18.2164012 L22.285335,18.2164012 Z M7.83435459,18.2164012 C8.15419018,18.2022403 8.45600947,18.3646986 8.62032764,18.639462 C8.7846458,18.9142253 8.78496764,19.2569898 8.62116574,19.5320612 C8.45736385,19.8071326 8.15585017,19.9701575 7.83598855,19.9565972 C7.35499545,19.9565972 6.96507351,19.5666753 6.96507351,19.0856822 C6.96507351,18.6046891 7.35499545,18.2147672 7.83598855,18.2147672 L7.83435459,18.2147672 L7.83435459,18.2164012 Z M19.2069036,13.234375 L16.033701,15.0579044 C16.0159642,15.0916035 15.9940004,15.122902 15.9683415,15.1510417 L15.9683415,18.9614992 L19.2052696,17.1036561 L19.2052696,13.234375 L19.2069036,13.234375 Z M10.9879493,13.234375 L10.9879493,17.1297998 L14.2265115,18.9598652 L14.2265115,15.0660743 L10.9912173,13.236009 L10.9895833,13.236009 L10.9879493,13.234375 Z M15.0663807,9.99908088 L11.9846814,11.7229371 L15.1284722,13.484375 L18.2101716,11.7556168 L15.0663807,9.99744688 L15.0663807,9.99908088 Z M15.1970997,1.78012665 L5.01572714,7.61509394 L10.4340278,10.7131332 L14.6660539,8.29483253 C14.8251074,8.20437682 15.0087246,8.16662375 15.1905637,8.18698939 C15.3722764,8.16497173 15.5562411,8.20222315 15.7150735,8.29319853 L20.0059232,10.7458129 L25.4307598,7.63470178 L15.2003676,1.78339461 L15.1970997,1.78012665 Z M14.9340278,5.78012665 C15.4125627,5.69487009 15.8699253,6.01268594 15.9569036,6.49091096 C15.9961204,6.72024321 15.9422996,6.95574773 15.8073583,7.14527893 C15.672417,7.33481013 15.4674889,7.46273017 15.2379493,7.50071488 C14.7571986,7.57193638 14.309368,7.24099471 14.2363154,6.7605188 C14.1711789,6.30018137 14.4777554,5.86939479 14.9340278,5.78012665 L14.9340278,5.78012665 Z M14.9242238,3.04646649 C15.2283666,2.98050078 15.5445984,3.08180418 15.7537978,3.31221669 C15.9629971,3.5426292 16.0333817,3.86714568 15.9384383,4.1635239 C15.8434949,4.45990212 15.5976477,4.68311518 15.2935049,4.74908088 C14.8233409,4.85105503 14.3595313,4.5525782 14.2575572,4.08241422 C14.155583,3.61225023 14.4540599,3.14844064 14.9242238,3.04646649 L14.9242238,3.04646649 Z" id="形状" fill="#FFFFFF" fill-rule="nonzero"></path>
                <rect id="矩形" x="0" y="0" width="30" height="30"></rect>
            </g>
        </g>
    </g>
</svg>