<?xml version="1.0" encoding="UTF-8"?>
<svg width="27px" height="28px" viewBox="0 0 27 28" version="1.1" xmlns="http://www.w3.org/2000/svg" xmlns:xlink="http://www.w3.org/1999/xlink">
    <title>编组 5</title>
    <g id="页面-1" stroke="none" stroke-width="1" fill="none" fill-rule="evenodd">
        <g id="图标组1" transform="translate(-4318.000000, -52.000000)" fill="#5A789D" fill-rule="nonzero">
            <g id="编组-5" transform="translate(4318.000000, 52.000000)">
                <g id="效率-(1)" transform="translate(5.500000, 6.600000)">
                    <path d="M14.2965125,0.10051658 L14.1643688,0.1 C11.1422668,0.1 8.24185194,0.883704143 6.02294793,2.88440417 C5.76372018,2.82156879 5.48710978,2.78537341 5.19926358,2.78537341 C4.43742256,2.78537341 3.71923462,3.0457782 3.12229349,3.53873323 C1.90751319,4.54061325 0.936584764,6.15001844 0.198491236,8.04542523 C0.0446981525,8.44035322 0.0876982924,8.87151905 0.312196419,9.19908872 C0.508101133,9.48603909 0.809002506,9.65763609 1.18405442,9.69222616 L1.32811445,9.69873295 L2.76536734,9.64969988 L2.86609224,9.72661131 L2.88544442,9.80401768 L2.90703777,9.88202697 C3.10545375,10.6071206 3.52955482,11.3535208 4.2518227,12.0534265 C4.90045107,12.6815698 5.57974711,13.0688037 6.23501277,13.2660303 L6.53350419,13.3441587 L6.61506244,13.3611711 L6.6960538,13.4596753 L6.69135335,14.8954984 C6.68895964,15.2199481 6.80815104,15.5193007 7.02699679,15.7405653 C7.24716604,15.9627095 7.54589295,16.0849711 7.86954335,16.0849711 C8.04169129,16.0849711 8.21307002,16.0497687 8.38356169,15.979072 C10.1816184,15.2147786 11.8096608,14.1855081 12.7961471,12.9175431 C13.5178337,11.9861586 13.6261324,10.9674009 13.3817551,9.90638404 C15.3171929,7.69014353 16.0037126,4.71805472 15.8853462,1.64063271 C15.8499354,0.781756656 15.1512038,0.104939799 14.2965125,0.10051658 Z M14.1651721,1.34954804 L14.2879839,1.3505811 C14.475117,1.35130602 14.6284583,1.50152205 14.6371976,1.69070111 C14.7493236,4.62446811 14.080179,7.40716189 12.1800763,9.36698432 C11.9995654,9.55284343 11.9544961,9.83877788 12.0670356,10.0765508 C12.3294655,10.6287777 12.3852403,11.4082039 11.8091474,12.1511455 C11.0606336,13.1143652 9.83555165,13.9340155 8.41372728,14.5977052 L8.08224886,14.7480901 L7.9418999,14.6562827 L7.94763384,12.802005 C7.94806641,12.6301224 7.86785407,12.4592711 7.73131637,12.3362314 C7.61811732,12.2336194 7.4616377,12.1751353 7.3025563,12.1751324 C7.28143141,12.1749732 7.26031731,12.1761388 7.22758266,12.1793156 C7.10662383,12.1793156 6.94555814,12.1604044 6.75158283,12.1107943 C6.22668345,11.9860775 5.66806934,11.685882 5.12134899,11.156576 C4.57304987,10.625243 4.25589532,10.0762808 4.11014503,9.54518186 C4.06157771,9.37509513 4.04083592,9.25015644 4.03287454,9.13954763 L4.02953523,9.05987139 L4.12898382,9.15544509 L4.02923749,9.04832679 C4.04186348,8.87140314 3.97898878,8.69721852 3.85642316,8.57013699 C3.75946467,8.46960608 3.63519516,8.4074142 3.49391773,8.3865288 L3.38493166,8.37865609 L1.53633051,8.44184221 L1.44021269,8.3043988 C2.08190607,6.71817799 2.91015187,5.33341078 3.91791998,4.50291571 C4.29262228,4.19284936 4.72506624,4.03491792 5.19926358,4.03491792 C5.39391975,4.03491792 5.58022378,4.06113103 5.7522511,4.10486832 C5.83752843,4.12654977 5.89937329,4.14604829 5.94248768,4.16243583 L5.97953273,4.17775199 C6.22052825,4.28825344 6.50497842,4.23522642 6.68979326,4.04549524 C8.49086015,2.18706765 11.0649532,1.41223284 13.8191607,1.35321954 L14.1651721,1.34954804 Z" id="形状"></path>
                    <path d="M10.5350509,3.66565087 C11.5863635,3.66565087 12.4386208,4.51790816 12.4386208,5.56922081 C12.4386208,6.62053346 11.5863635,7.47279075 10.5350509,7.47279075 C9.48373822,7.47279075 8.63148092,6.62053346 8.63148092,5.56922081 C8.63148092,4.51790816 9.48373822,3.66565087 10.5350509,3.66565087 Z" id="路径"></path>
                    <path d="M5.73471792,13.6177572 L4.0996474,15.3045087 C4.02643584,15.3800139 3.8980289,15.3253734 3.90350405,15.219052 L4.0119341,13.9916948 C4.01777919,13.913637 3.94608439,13.8581087 3.87194798,13.8769387 L2.16473873,14.3427699 C2.08013295,14.3652994 2.00821618,14.2956023 2.02808208,14.2102936 L2.44053064,12.4893595 C2.45710405,12.4147422 2.39931908,12.3447491 2.32155723,12.3531098 L1.0909815,12.492689 C0.988433526,12.5049341 0.929797688,12.3782659 1.00300925,12.3027607 L2.63807977,10.6160092 C2.77329364,11.1098451 3.08866936,11.7991954 3.81516185,12.5034173 C4.5380659,13.2041618 5.23696069,13.4980069 5.73471792,13.6177572 Z" id="路径"></path>
                </g>
                <g id="综合设备效率备份">
                    <path d="M13.5,0.7 C6.15461283,0.7 0.2,6.65461283 0.2,14 C0.2,21.3453872 6.15461283,27.3 13.5,27.3 C20.8453872,27.3 26.8,21.3453872 26.8,14 C26.8,6.65461283 20.8453872,0.7 13.5,0.7 Z M13.5,2.02709924 C20.1124505,2.02709924 25.4729008,7.3875495 25.4729008,14 C25.4729008,20.6124505 20.1124505,25.9729008 13.5,25.9729008 C6.8875495,25.9729008 1.52709924,20.6124505 1.52709924,14 C1.52709924,7.3875495 6.8875495,2.02709924 13.5,2.02709924 Z" id="椭圆形"></path>
                </g>
            </g>
        </g>
    </g>
</svg>