<?xml version="1.0" encoding="UTF-8"?>
<svg width="29px" height="29px" viewBox="0 0 29 29" version="1.1" xmlns="http://www.w3.org/2000/svg" xmlns:xlink="http://www.w3.org/1999/xlink">
    <title>形状结合 3</title>
    <g id="页面-1" stroke="none" stroke-width="1" fill="none" fill-rule="evenodd">
        <g id="图标组1" transform="translate(-4318.000000, -51.000000)">
            <g id="形状结合-3" transform="translate(4318.200000, 51.700000)">
                <path d="M14,0.7 C21.3453872,0.7 27.3,6.65461283 27.3,14 C27.3,21.3453872 21.3453872,27.3 14,27.3 C6.65461283,27.3 0.7,21.3453872 0.7,14 C0.7,6.65461283 6.65461283,0.7 14,0.7 Z M14,2.02709924 C7.3875495,2.02709924 2.02709924,7.3875495 2.02709924,14 C2.02709924,20.6124505 7.3875495,25.9729008 14,25.9729008 C20.6124505,25.9729008 25.9729008,20.6124505 25.9729008,14 C25.9729008,7.3875495 20.6124505,2.02709924 14,2.02709924 Z M20.2965125,6.70051658 C21.1512038,6.7049398 21.8499354,7.38175666 21.8853462,8.24063271 C22.0037126,11.3180547 21.3171929,14.2901435 19.3817551,16.506384 C19.6261324,17.5674009 19.5178337,18.5861586 18.7961471,19.5175431 C17.8096608,20.7855081 16.1816184,21.8147786 14.3835617,22.579072 C14.21307,22.6497687 14.0416913,22.6849711 13.8695434,22.6849711 C13.5458929,22.6849711 13.247166,22.5627095 13.0269968,22.3405653 C12.808151,22.1193007 12.6889596,21.8199481 12.6913533,21.4954984 L12.6913533,21.4954984 L12.6960538,20.0596753 L12.6150624,19.9611711 L12.5335042,19.9441587 L12.2350128,19.8660303 C11.5797471,19.6688037 10.9004511,19.2815698 10.2518227,18.6534265 C9.52955482,17.9535208 9.10545375,17.2071206 8.90703777,16.482027 L8.90703777,16.482027 L8.88544442,16.4040177 L8.86609224,16.3266113 L8.76536734,16.2496999 L7.32811445,16.2987329 L7.18405442,16.2922262 C6.80900251,16.2576361 6.50810113,16.0860391 6.31219642,15.7990887 C6.08769829,15.4715191 6.04469815,15.0403532 6.19849124,14.6454252 C6.93658476,12.7500184 7.90751319,11.1406133 9.12229349,10.1387332 C9.71923462,9.6457782 10.4374226,9.38537341 11.1992636,9.38537341 C11.4871098,9.38537341 11.7637202,9.42156879 12.0229479,9.48440417 C14.2418519,7.48370414 17.1422668,6.7 20.1643688,6.7 L20.1643688,6.7 Z M8.63807977,17.2160092 C8.77329364,17.7098451 9.08866936,18.3991954 9.81516185,19.1034173 C10.5380659,19.8041618 11.2369607,20.0980069 11.7347179,20.2177572 L10.0996474,21.9045087 C10.0264358,21.9800139 9.8980289,21.9253734 9.90350405,21.819052 L10.0119341,20.5916948 C10.0177792,20.513637 9.94608439,20.4581087 9.87194798,20.4769387 L8.16473873,20.9427699 C8.08013295,20.9652994 8.00821618,20.8956023 8.02808208,20.8102936 L8.44053064,19.0893595 C8.45710405,19.0147422 8.39931908,18.9447491 8.32155723,18.9531098 L7.0909815,19.092689 C6.98843353,19.1049341 6.92979769,18.9782659 7.00300925,18.9027607 L8.63807977,17.2160092 Z M20.1651721,7.94954804 L19.8191607,7.95321954 C17.0649532,8.01223284 14.4908601,8.78706765 12.6897933,10.6454952 C12.5049784,10.8352264 12.2205282,10.8882534 11.9795327,10.777752 L11.9795327,10.777752 L11.9424877,10.7624358 C11.8993733,10.7460483 11.8375284,10.7265498 11.7522511,10.7048683 C11.5802238,10.661131 11.3939198,10.6349179 11.1992636,10.6349179 C10.7250662,10.6349179 10.2926223,10.7928494 9.91791998,11.1029157 C8.91015187,11.9334108 8.08190607,13.318178 7.44021269,14.9043988 L7.44021269,14.9043988 L7.53633051,15.0418422 L9.38493166,14.9786561 L9.49391773,14.9865288 C9.63519516,15.0074142 9.75946467,15.0696061 9.85642316,15.170137 C9.97898878,15.2972185 10.0418635,15.4714031 10.0292375,15.6483268 L10.0292375,15.6483268 L10.1289838,15.7554451 L10.0295352,15.6598714 L10.0328745,15.7395476 C10.0408359,15.8501564 10.0615777,15.9750951 10.110145,16.1451819 C10.2558953,16.6762808 10.5730499,17.225243 11.121349,17.756576 C11.6680693,18.285882 12.2266835,18.5860775 12.7515828,18.7107943 C12.9455581,18.7604044 13.1066238,18.7793156 13.2275827,18.7793156 C13.2603173,18.7761388 13.2814314,18.7749732 13.3025563,18.7751324 C13.4616377,18.7751353 13.6181173,18.8336194 13.7313164,18.9362314 C13.8678541,19.0592711 13.9480664,19.2301224 13.9476338,19.402005 L13.9476338,19.402005 L13.9418999,21.2562827 L14.0822489,21.3480901 L14.4137273,21.1977052 C15.8355516,20.5340155 17.0606336,19.7143652 17.8091474,18.7511455 C18.3852403,18.0082039 18.3294655,17.2287777 18.0670356,16.6765508 C17.9544961,16.4387779 17.9995654,16.1528434 18.1800763,15.9669843 C20.080179,14.0071619 20.7493236,11.2244681 20.6371976,8.29070111 C20.6284583,8.10152205 20.475117,7.95130602 20.2879839,7.9505811 L20.2879839,7.9505811 L20.1651721,7.94954804 Z M16.5350509,10.2656509 C17.5863635,10.2656509 18.4386208,11.1179082 18.4386208,12.1692208 C18.4386208,13.2205335 17.5863635,14.0727908 16.5350509,14.0727908 C15.4837382,14.0727908 14.6314809,13.2205335 14.6314809,12.1692208 C14.6314809,11.1179082 15.4837382,10.2656509 16.5350509,10.2656509 Z" id="形状结合" fill="#5A789D" fill-rule="nonzero"></path>
                <rect id="矩形" x="0" y="0" width="28" height="28"></rect>
            </g>
        </g>
    </g>
</svg>