<?xml version="1.0" encoding="UTF-8"?>
<svg width="30px" height="30px" viewBox="0 0 30 30" version="1.1" xmlns="http://www.w3.org/2000/svg" xmlns:xlink="http://www.w3.org/1999/xlink">
    <title>energy</title>
    <g id="页面-1" stroke="none" stroke-width="1" fill="none" fill-rule="evenodd">
        <g id="顶部菜单图标" transform="translate(-1029.000000, -9.000000)">
            <g id="energy" transform="translate(1029.000000, 9.000000)">
                <path d="M15.7591654,24.6805239 L15.8591654,24.7805239 L15.8591654,25.9890566 L15.7591654,26.0890566 L7.023,26.089 L8.0801197,27.2323661 L8.06279293,27.3829959 L6.85133055,28.2044468 L6.72316863,28.1910352 L4.51890344,25.8611206 L4.51890344,24.7805239 L4.61890344,24.6805239 L15.7591654,24.6805239 Z M22.8019267,16.5110324 L23.074325,16.5181672 C25.0869289,16.6227393 26.8699111,17.8618 27.6683042,19.7176291 C28.4376701,21.5059857 28.1622934,23.5635603 26.9706858,25.0837137 L26.8100732,25.2788806 L26.6491653,25.4568196 L26.4927548,25.6255915 L26.3947207,25.7224407 L26.3711656,27.1228968 L26.3609851,27.2307193 C26.3388468,27.3466856 26.2827981,27.4533171 26.1995034,27.5372362 C26.1328951,27.6043438 26.0516369,27.6541303 25.9594858,27.6835418 L25.8638428,27.7060487 L25.7779489,27.7124569 L19.8462844,27.711925 L19.736017,27.6999928 C19.5271867,27.6567381 19.3585267,27.5052697 19.2897089,27.3012823 L19.2665024,27.210806 L19.2580773,27.1135571 L19.2722914,25.8748258 L19.1966695,25.7484409 L19.1294049,25.6532876 L19.0601999,25.570578 L18.8785018,25.381555 L18.6438077,25.1054733 C17.4204422,23.5564137 17.1573253,21.4518802 17.9670972,19.6461556 C18.7127931,17.9833154 20.2545015,16.8285499 22.0459628,16.5669512 L22.2810031,16.5379265 L22.5176744,16.5194033 L22.8019267,16.5110324 Z M22.805,17.71 L22.5449043,17.7190501 C21.0270021,17.8151431 19.6834907,18.7443534 19.0591511,20.1358377 C18.461306,21.468273 18.6187098,23.0107641 19.4534331,24.1884533 L19.5908488,24.3712888 L19.7311953,24.5385463 L19.8449365,24.6587821 C20.1156437,24.8814695 20.3072284,25.1720704 20.4008579,25.4992604 L20.4394224,25.6657594 L20.4601451,25.8360899 L20.4597991,26.4906088 L20.4627854,26.5052699 L20.4856385,26.5163771 L25.1346452,26.517653 L25.1605419,26.5147933 L25.17235,26.5091138 L25.1766244,26.5105296 L25.1820516,26.4848942 L25.1826404,25.8163523 L25.2026079,25.6348094 C25.2476833,25.3694806 25.3597304,25.1190074 25.5288225,24.9054793 L25.6370437,24.7819727 L25.7827926,24.644436 L25.9659641,24.4380688 C26.9509014,23.2513343 27.1894352,21.6117399 26.5785874,20.1926846 C25.9580249,18.7510609 24.5732873,17.7953979 23.0180331,17.7161313 L22.805,17.71 Z M22.8331558,19.0368168 L23.0163296,19.0884837 L23.093,21.146 L25.0824089,21.146704 L25.1690725,21.296598 L23.0030634,25.0588567 L22.8164243,25.0111782 L22.763,22.61 L20.6408214,22.610786 L20.5575775,22.4553743 L22.8331558,19.0368168 Z M18.9072332,2.4 L18.9446741,2.40727361 L19.419639,2.60789497 L23.7259702,6.97770016 L23.9049101,7.43182647 L23.9049101,14.6866319 L23.8049101,14.7866319 L22.5804909,14.7866319 L22.4804909,14.6866319 L22.5093592,7.74888312 L18.6464857,3.79732203 L6.14370722,3.79732161 C5.72653936,3.79853062 5.38334867,4.10261325 5.33197009,4.49469366 L5.32533092,4.59442269 L5.32533046,21.4479908 C5.32656138,21.8535254 5.63775692,22.1887101 6.04085457,22.2389071 L6.14341741,22.2453949 L13.401,22.245 L12.355123,21.3838513 L12.3430037,21.2412778 L13.1325398,20.3272507 L13.2716448,20.31531 L15.8609888,22.4870424 L15.8609888,23.542717 L15.7609888,23.642717 L6.14333439,23.642717 C4.95914862,23.6417338 3.98882338,22.7438552 3.90576352,21.6050217 L3.9,21.4482943 L3.9,4.59433575 C3.90100804,3.43503564 4.81989077,2.48679541 5.98331599,2.40563172 L6.14341741,2.4 L18.9072332,2.4 Z M16.4298318,7.82706955 C16.639576,7.61732537 16.9457266,7.54833774 17.219286,7.63557985 L17.3270522,7.67933763 L17.4326898,7.74240962 L17.5334447,7.82706955 C17.7791633,8.0727881 17.8281989,8.43545956 17.6683562,8.7413953 L17.6073223,8.8410343 L17.5278569,8.93638508 L15.685,10.777 L17.0517762,10.7783735 C17.3319291,10.7783735 17.5752023,10.9133396 17.7156463,11.1337662 L17.7693487,11.2333227 L17.809306,11.3424778 L17.8322276,11.4550615 L17.8396564,11.5662537 C17.8396564,11.9325445 17.6095053,12.2319755 17.2684822,12.3250973 L17.1629684,12.3467051 L17.0517362,12.3541339 L14.566,12.353 L14.566,14.175 L17.0517762,14.1761649 C17.3319291,14.1761649 17.5752023,14.311131 17.7156463,14.5315576 L17.7693487,14.6311141 L17.809306,14.7402692 L17.8322276,14.8528529 L17.8396564,14.9640451 C17.8396564,15.3303359 17.6095053,15.6297669 17.2684822,15.7228887 L17.1629684,15.7444965 L17.0517589,15.7519253 L14.566,15.751 L14.5665546,18.1124573 C14.5665546,18.3926102 14.4315885,18.6358835 14.2111619,18.7763275 L14.1116054,18.8300298 L14.0024503,18.8699872 L13.8898666,18.8929087 L13.7786744,18.9003375 C13.4123836,18.9003375 13.1129526,18.6701864 13.0198308,18.3291634 L12.998223,18.2236495 L12.9907942,18.1124612 L12.99,15.751 L10.5055725,15.7519253 C10.2254196,15.7519253 9.98214637,15.6169593 9.84170238,15.3965326 L9.78800005,15.2969761 L9.74804269,15.1878211 L9.72512115,15.0752374 L9.71769234,14.9640451 C9.71769234,14.5977544 9.94784344,14.2983234 10.2888665,14.2052016 L10.3943803,14.1835937 L10.5055609,14.1761649 L12.99,14.175 L12.99,12.353 L10.5055725,12.3541339 C10.2254196,12.3541339 9.98214637,12.2191678 9.84170238,11.9987412 L9.78800005,11.8991847 L9.74804269,11.7900296 L9.72512115,11.6774459 L9.71769234,11.5662537 C9.71769234,11.199963 9.94784344,10.9005319 10.2888665,10.8074101 L10.3943803,10.7858023 L10.5055179,10.7783735 L11.885,10.777 L10.0364346,8.92756304 C9.8541553,8.73759292 9.77936652,8.48271428 9.82394333,8.23779442 L9.8503904,8.13365676 L9.89166139,8.03204817 L9.9547854,7.92742338 L10.0394902,7.82706955 C10.2834628,7.58309694 10.6542958,7.53225665 10.9554021,7.68973197 L11.0529188,7.74995997 L11.1429015,7.82686852 L13.793,10.461 L16.4298318,7.82706955 Z" id="形状结合" fill="#FFFFFF" fill-rule="nonzero"></path>
                <rect id="矩形备份-14" x="0" y="0" width="30" height="30"></rect>
            </g>
        </g>
    </g>
</svg>