<?xml version="1.0" encoding="UTF-8"?>
<svg width="18px" height="18px" viewBox="0 0 18 18" version="1.1" xmlns="http://www.w3.org/2000/svg" xmlns:xlink="http://www.w3.org/1999/xlink">
    <title>退出系统 (1)</title>
    <g id="页面-1" stroke="none" stroke-width="1" fill="none" fill-rule="evenodd">
        <g id="账号管理页面" transform="translate(-485.000000, -187.000000)">
            <g id="退出系统-(1)" transform="translate(485.000000, 187.000000)">
                <path d="M9.13362339,15.1409308 L3.47655055,15.1409308 C3.31932016,15.1431163 3.16764912,15.0828141 3.05484238,14.9732659 C2.94062968,14.8663806 2.87395849,14.7182219 2.8697077,14.5618539 L2.8697077,3.43696424 C2.87372586,3.28053909 2.94043531,3.13229024 3.05484238,3.0255382 C3.16833545,2.91693209 3.31946514,2.85647719 3.47655055,2.8568465 L9.16448385,2.8568465 C9.35873464,2.86541348 9.54201087,2.76666133 9.64169398,2.5997181 C9.74137708,2.43277487 9.74137708,2.22458706 9.64169398,2.05764382 C9.54201087,1.89070059 9.35873464,1.79194844 9.16448385,1.80051542 L3.47655055,1.80051542 C2.56150165,1.79193833 1.81185404,2.52503234 1.8,3.44004466 L1.8,14.5608412 C1.81186172,15.475848 2.56150707,16.2089335 3.47655055,16.2003564 L9.13362339,16.2003564 C9.32787418,16.2089233 9.51115041,16.1101712 9.61083352,15.943228 C9.71051662,15.7762847 9.71051662,15.5680969 9.61083352,15.4011537 C9.51115041,15.2342105 9.32787418,15.1354583 9.13362339,15.1440253 L9.13362339,15.1409308 Z M12.7027337,5.36447764 C12.4907898,5.15858467 12.1535324,5.15858467 11.9415885,5.36447764 C11.8387225,5.46162929 11.7804275,5.59687038 11.7804275,5.73836193 C11.7804275,5.87985348 11.8387225,6.01509457 11.9415885,6.11224622 L14.3484238,8.45941417 L5.18050065,8.45941417 C4.90018615,8.47685942 4.68177118,8.70928991 4.68177118,8.99014673 C4.68177118,9.27100355 4.90018615,9.50343404 5.18050065,9.52087928 L14.3484238,9.52087928 L11.9415885,11.8670345 C11.7844216,12.0149959 11.738929,12.2466162 11.8284569,12.443031 C11.9122394,12.6413132 12.1069132,12.7698755 12.3221681,12.7690773 C12.465267,12.7745324 12.6038339,12.7183548 12.7027337,12.614789 L16.0455386,9.36145696 C16.2514871,9.15474763 16.2514871,8.82041179 16.0455386,8.61370246 L12.7027337,5.36447764 Z" id="形状" fill="#606266" fill-rule="nonzero"></path>
                <rect id="矩形" x="0" y="0" width="18" height="18"></rect>
            </g>
        </g>
    </g>
</svg>