<?xml version="1.0" encoding="UTF-8"?>
<svg width="17px" height="17px" viewBox="0 0 17 17" version="1.1" xmlns="http://www.w3.org/2000/svg" xmlns:xlink="http://www.w3.org/1999/xlink">
    <title>语言切换 (1)</title>
    <g id="页面-1" stroke="none" stroke-width="1" fill="none" fill-rule="evenodd">
        <g id="账号管理页面" transform="translate(-362.000000, -156.000000)">
            <g id="语言切换-(1)" transform="translate(362.000000, 156.000000)">
                <path d="M13.65625,2.875 C13.9375,2.875 14.125,3.0625 14.125,3.34375 L14.125,15.53125 C14.125,15.8125 13.9375,16 13.65625,16 L1.46875,16 C1.1875,16 1,15.8125 1,15.53125 L1,3.34375 C1,3.0625 1.1875,2.875 1.46875,2.875 L13.65625,2.875 Z M13.1875,3.8125 L1.9375,3.8125 L1.9375,15.0625 L13.1875,15.0625 L13.1875,3.8125 Z M15.53125,1 C15.8125,1 16,1.1875 16,1.46875 L16,12.71875 C16,13 15.8125,13.1875 15.53125,13.1875 C15.25,13.1875 15.0625,13 15.0625,12.71875 L15.0625,1.9375 L4.28125,1.9375 C4,1.9375 3.8125,1.75 3.8125,1.46875 C3.8125,1.1875 4,1 4.28125,1 L15.53125,1 Z M7.5625,5.6875 C7.75,5.6875 7.9375,5.78125 8.03125,5.96875 L10.375,11.59375 C10.46875,11.875 10.375,12.0625 10.09375,12.25 C9.8125,12.34375 9.625,12.25 9.4375,11.96875 L8.595,9.906 L6.529,9.906 L5.6875,11.96875 C5.59375,12.15625 5.40625,12.25 5.21875,12.25 L5.03125,12.25 C4.75,12.15625 4.65625,11.875 4.75,11.59375 L7.09375,5.96875 C7.1875,5.78125 7.375,5.6875 7.5625,5.6875 Z M7.5625,7.375 L6.912,8.968 L8.212,8.968 L7.5625,7.375 Z" id="形状结合" fill="#606266" fill-rule="nonzero"></path>
                <rect id="矩形" x="0" y="0" width="17" height="17"></rect>
            </g>
        </g>
    </g>
</svg>