<svg xmlns="http://www.w3.org/2000/svg" width="22" height="22" viewBox="0 0 22 22">
  <defs>
    <style>
      .cls-1 {
        fill: #fff;
      }
    </style>
  </defs>
  <path id="路径_2" data-name="路径 2" class="cls-1" d="M56.869,42.451a11.035,11.035,0,1,0,.865,4.282,10.963,10.963,0,0,0-.865-4.282Zm.051,3.9H53.635a12.23,12.23,0,0,0-1.348-5.147,12.138,12.138,0,0,0,2-1.29A10.131,10.131,0,0,1,56.919,46.352Zm-9.78-9.436a11.229,11.229,0,0,1,4.026,3.913,11.365,11.365,0,0,1-4.026.9Zm-.787,4.815a11.4,11.4,0,0,1-4.178-.942,11.189,11.189,0,0,1,4.178-3.973v4.915Zm-3.909.044a12.139,12.139,0,0,0,3.909.763v3.815H40.461a11.429,11.429,0,0,1,1.293-4.846c.224.1.457.182.688.269Zm3.909,5.365v3.7a12.168,12.168,0,0,0-3.925.769q-.386.145-.762.315a11.389,11.389,0,0,1-1.207-4.78Zm0,4.5V56.77a11.274,11.274,0,0,1-4.281-4.141A11.346,11.346,0,0,1,46.352,51.641Zm.787,0a11.43,11.43,0,0,1,4.129.944,11.314,11.314,0,0,1-4.129,4.082V51.644Zm3.875-.032a12.153,12.153,0,0,0-3.875-.775v-3.7h5.693a11.32,11.32,0,0,1-1.18,4.736c-.21-.093-.422-.183-.638-.264Zm-3.875-5.26V42.535A12.121,12.121,0,0,0,51,41.767c.191-.072.378-.138.564-.218a11.36,11.36,0,0,1,1.265,4.8Zm6.584-7.032a11.369,11.369,0,0,1-1.832,1.168l-.087-.143a12.257,12.257,0,0,0-3.574-3.7,10.169,10.169,0,0,1,5.493,2.671ZM45,36.686a12.257,12.257,0,0,0-3.519,3.66l-.059.1a11.37,11.37,0,0,1-1.71-1.1A10.173,10.173,0,0,1,45,36.686Zm-5.852,3.251a12.208,12.208,0,0,0,1.876,1.225,12.18,12.18,0,0,0-1.373,5.19H36.547a10.171,10.171,0,0,1,2.6-6.415Zm-2.6,7.2h3.1a12.166,12.166,0,0,0,1.291,5.134,12.186,12.186,0,0,0-1.84,1.214A10.135,10.135,0,0,1,36.547,47.139Zm3.115,6.93a11.367,11.367,0,0,1,1.667-1.088q.083.142.17.281a12.256,12.256,0,0,0,3.273,3.475,10.179,10.179,0,0,1-5.11-2.668Zm8.793,2.712a12.257,12.257,0,0,0,3.335-3.519q.1-.163.2-.329a11.371,11.371,0,0,1,1.789,1.161,10.174,10.174,0,0,1-5.323,2.687Zm5.885-3.268a12.166,12.166,0,0,0-1.968-1.289,12.1,12.1,0,0,0,1.267-5.085h3.281a10.107,10.107,0,0,1-2.579,6.375Z" transform="translate(-35.733 -35.733)"/>
</svg>
