<?xml version="1.0" encoding="UTF-8"?>
<svg width="30px" height="30px" viewBox="0 0 30 30" version="1.1" xmlns="http://www.w3.org/2000/svg" xmlns:xlink="http://www.w3.org/1999/xlink">
    <title>ledger</title>
    <g id="页面-1" stroke="none" stroke-width="1" fill="none" fill-rule="evenodd">
        <g id="顶部菜单图标" transform="translate(-1105.000000, -9.000000)">
            <g id="ledger" transform="translate(1105.000000, 9.000000)">
                <path d="M24.0126256,3.00810302 C24.8538317,3.00810302 25.4342337,3.64277638 25.4342337,4.46589196 L25.4342337,17.9206658 C26.368907,17.9206658 26.9282035,18.5945352 26.9282035,19.4161432 L26.9282035,25.3965452 C26.9282035,26.2196608 26.3312186,26.9282035 25.508103,26.9282035 L4.57744975,26.9282035 C3.75584171,26.9282035 3.00810302,26.2196608 3.00810302,25.3965452 L3.00810302,19.4161432 C3.00810302,18.5945352 3.75584171,17.9206658 4.50207286,17.9206658 L4.50207286,4.46589196 C4.50207286,3.64277638 5.2513191,3.00810302 6.07292714,3.00810302 L24.0126256,3.00810302 Z M11.6236809,19.4538317 L4.50207286,19.4538317 L4.50207286,25.4342337 L25.4342337,25.4342337 L25.4342337,19.4538317 L18.4633794,19.4538317 C17.8662897,20.812207 16.5250706,21.691385 15.0412688,21.6970477 C13.5588773,21.6903746 12.2194885,20.8112346 11.6236809,19.4538317 Z M23.9387563,4.50207286 L5.99755025,4.50207286 L5.99755025,17.9583543 L12.3141332,17.9583543 C12.5764447,17.9583543 12.8010678,18.1452889 12.8372487,18.3895101 C13.0610009,19.4274681 13.9809851,20.1669769 15.0427764,20.1623957 C16.1282035,20.1623957 17.0432789,19.4146357 17.248304,18.386495 C17.3025487,18.131527 17.5304056,17.9511403 17.7910176,17.9568467 L23.9387563,17.9568467 L23.9387563,4.50207286 Z M18.7799623,14.968907 C19.192585,14.968907 19.5275481,15.3025189 19.5292085,15.7151382 L19.5292085,15.7151382 C19.5301537,15.9141926 19.4521622,16.1058112 19.3113988,16.2465746 C19.1706354,16.387338 18.9790167,16.4653296 18.7799623,16.4628769 L18.7799623,16.4628769 L11.3040829,16.4628769 C10.8925251,16.4613693 10.5578518,16.1282035 10.5578518,15.7166457 C10.5586775,15.3046114 10.8920511,14.9705643 11.3040829,14.968907 L11.3040829,14.968907 Z M18.7799623,11.9779523 C19.192583,11.9787817 19.5268716,12.3130703 19.527701,12.725691 C19.5268716,13.1383116 19.192583,13.4726003 18.7799623,13.4734296 L18.7799623,13.4734296 L11.3040829,13.4734296 C10.8925251,13.4719221 10.5578518,13.1387563 10.5578518,12.725691 C10.5586775,12.3136567 10.8920511,11.9796095 11.3040829,11.9779523 L11.3040829,11.9779523 Z M16.6875,5.51212312 C16.8870743,5.32468668 17.1979759,5.32468668 17.3975503,5.51212312 C17.5849867,5.71169745 17.5849867,6.02259903 17.3975503,6.22217337 L17.3975503,6.22217337 L16.0890075,7.49302764 L16.7809673,7.49302764 C17.0613693,7.49302764 17.2859925,7.77342965 17.2859925,8.05383166 C17.2859925,8.33423367 17.0613693,8.61463568 16.7809673,8.61463568 L16.7809673,8.61463568 L15.5297111,8.61463568 L15.5297111,8.98850503 L16.7809673,8.98850503 C17.0613693,8.98850503 17.2859925,9.26890704 17.2859925,9.54780151 C17.2859925,9.82971106 17.0613693,10.1101131 16.7794598,10.1101131 L16.7794598,10.1101131 L15.5282035,10.1101131 L15.5282035,10.8759422 C15.5282035,11.1563442 15.249309,11.3794598 14.968907,11.3794598 C14.6869975,11.3794598 14.408103,11.1563442 14.408103,10.8759422 L14.408103,10.8759422 L14.408103,10.1086055 L13.3241834,10.1086055 C13.0422739,10.1086055 12.8191583,9.82971106 12.8191583,9.54780151 C12.8191583,9.26890704 13.0437814,8.98850503 13.3226759,8.98850503 L13.3226759,8.98850503 L14.408103,8.98850503 L14.408103,8.61463568 L13.3241834,8.61463568 C13.0422739,8.61463568 12.8191583,8.33423367 12.8191583,8.05383166 C12.8191583,7.77342965 13.0437814,7.49302764 13.3241834,7.49302764 L13.3241834,7.49302764 L14.0146357,7.49302764 L12.7271985,6.20408291 C12.5387496,6.0113352 12.5387496,5.70336329 12.7271985,5.51061558 C12.9268554,5.32486004 13.2360843,5.32486004 13.4357412,5.51061558 L13.4357412,5.51061558 L15.0608668,7.13724874 Z" id="形状结合" fill="#FFFFFF" fill-rule="nonzero"></path>
                <rect id="矩形备份-13" x="0" y="0" width="30" height="30"></rect>
            </g>
        </g>
    </g>
</svg>