<?xml version="1.0" encoding="UTF-8"?>
<svg width="30px" height="30px" viewBox="0 0 30 30" version="1.1" xmlns="http://www.w3.org/2000/svg" xmlns:xlink="http://www.w3.org/1999/xlink">
    <title>更多 (3)</title>
    <g id="页面-1" stroke="none" stroke-width="1" fill="none" fill-rule="evenodd">
        <g id="账号管理页面" transform="translate(-185.000000, -465.000000)">
            <g id="更多-(3)" transform="translate(185.000000, 465.000000)">
                <path d="M15,3 C21.6274262,3 27,8.37257384 27,15 C27,21.6274262 21.6274262,27 15,27 C8.37257384,27 3,21.6274262 3,15 C3,8.37257384 8.37257384,3 15,3 Z M15.0068561,4.70468636 C9.31712408,4.70468636 4.70468636,9.31712408 4.70468636,15.0068561 C4.70468636,20.6965881 9.31712408,25.3090258 15.0068561,25.3090258 C20.6965881,25.3090258 25.3090258,20.6965881 25.3090258,15.0068561 C25.3090258,9.31712408 20.6965881,4.70468636 15.0068561,4.70468636 Z M10.2,13.3705043 C11.0999325,13.3705043 11.8294957,14.1000675 11.8294957,15 C11.8294957,15.8999325 11.0999325,16.6294957 10.2,16.6294957 C9.30006753,16.6294957 8.57050432,15.8999325 8.57050432,15 C8.57050432,14.1000675 9.30006753,13.3705043 10.2,13.3705043 Z M15,13.3705043 C15.8999325,13.3705043 16.6294957,14.1000675 16.6294957,15 C16.6294957,15.8999325 15.8999325,16.6294957 15,16.6294957 C14.1000675,16.6294957 13.3705043,15.8999325 13.3705043,15 C13.3705043,14.1000675 14.1000675,13.3705043 15,13.3705043 Z M19.8,13.3705043 C20.6999325,13.3705043 21.4294957,14.1000675 21.4294957,15 C21.4294957,15.8999325 20.6999325,16.6294957 19.8,16.6294957 C18.9000675,16.6294957 18.1705043,15.8999325 18.1705043,15 C18.1705043,14.1000675 18.9000675,13.3705043 19.8,13.3705043 Z" id="形状结合" fill="#5A789D" fill-rule="nonzero"></path>
                <rect id="矩形" x="0" y="0" width="30" height="30"></rect>
            </g>
        </g>
    </g>
</svg>