<?xml version="1.0" encoding="UTF-8"?>
<svg width="30px" height="30px" viewBox="0 0 30 30" version="1.1" xmlns="http://www.w3.org/2000/svg" xmlns:xlink="http://www.w3.org/1999/xlink">
    <title>平台设置</title>
    <g id="页面-1" stroke="none" stroke-width="1" fill="none" fill-rule="evenodd">
        <g id="顶部菜单图标" transform="translate(-1786.000000, -9.000000)">
            <g id="平台设置" transform="translate(1786.000000, 9.000000)">
                <path d="M15.0775557,1.50046718 C18.5158389,1.46127455 21.7275462,3.89207645 22.9616478,7.26884961 L23.0549363,7.5373745 L23.1521142,7.73198743 L23.23416,7.73510324 C25.8188428,8.42805314 27.7089394,10.6083673 28.0560936,13.2337192 L28.0856344,13.4976993 L28.1047005,13.7644146 L28.1047005,14.0464207 C28.0660908,16.9587367 26.1208916,19.4880997 23.3413918,20.2866151 L23.2070393,20.3225028 L23.2070393,24.0510699 L24.1692842,25.0133148 L24.2821041,24.9242652 C24.4494114,24.804691 24.6404135,24.7226483 24.841229,24.6838401 L24.9934637,24.6629295 L25.1480771,24.6587665 C26.0569938,24.6587665 26.7342067,25.283886 26.5660941,25.9371287 C26.5644768,26.7967365 25.8680297,27.4931836 25.0081238,27.4948012 C24.9389395,27.4948012 24.8875941,27.4820327 24.8122422,27.4486469 L24.6362235,27.3661125 C24.6254832,27.3620163 24.6165411,27.3592002 24.6087601,27.3574081 L24.5882639,27.3548479 L24.4762315,27.3084426 L24.3741012,27.1964407 C24.0946484,27.0482949 23.8588015,26.831206 23.7036411,26.5883981 L23.6329565,26.465051 L21.5345372,24.2266785 L21.4916872,24.1183179 L21.4916872,19.9390836 L18.3102583,19.9390836 L18.3102583,23.0518562 L18.3624556,23.0878279 C18.6838409,23.3299895 18.9026054,23.6818893 18.9796663,24.0743498 L19.0039028,24.2448288 L19.010327,24.3995569 C18.9891317,25.2445151 18.2980702,25.9184591 17.4528463,25.9184591 C16.6076223,25.9184591 15.9165608,25.2445151 15.8953181,24.3964501 C15.8924918,23.8795116 16.1351282,23.3953091 16.5432369,23.0878255 L16.5949062,23.0518562 L16.5949062,19.9390836 L13.4134773,19.9390836 L13.4134773,21.096735 L13.4658507,21.1319966 C13.787236,21.3741112 14.0060004,21.7255938 14.0830614,22.1143512 L14.1072979,22.2830335 L14.1137221,22.4357855 C14.1279135,23.0015335 13.8342023,23.5304868 13.3464786,23.817537 C12.8587549,24.1045872 12.2537278,24.1045872 11.7660041,23.817537 C11.2782804,23.5304868 10.9845691,23.0015335 10.9987131,22.4406248 C10.9958868,21.9236863 11.2385233,21.4394837 11.646632,21.1320002 L11.6981252,21.096735 L11.6981252,19.9390836 L9.07650946,19.9390836 L9.07721363,24.1200783 L9.03436354,24.2284389 L6.9603405,26.4326603 C6.81219464,26.712113 6.59510581,26.9479599 6.35461016,27.1008814 L6.23262258,27.1702497 L6.09056375,27.3122697 C5.9736842,27.4248754 5.82113355,27.4904547 5.67371459,27.5 L5.5647501,27.4965118 C4.99900207,27.5107033 4.47004882,27.216992 4.18299861,26.7292683 C3.8959484,26.2415446 3.8959484,25.6365175 4.18299861,25.1487938 C4.47004882,24.6610701 4.99900207,24.3673589 5.55632697,24.381563 C5.81805633,24.3742089 6.07355893,24.4388886 6.29680894,24.5644481 L6.42668043,24.6470002 L6.5383376,24.736577 L7.50163878,23.7732758 L7.50163878,20.1978652 L7.39762311,20.1844576 C4.41374085,19.7183099 2.15257345,17.2569694 1.91979241,14.266192 L1.90483768,14.0085773 L1.9,13.7623151 C1.93859574,10.8499991 3.88379494,8.3206361 6.69773214,7.517968 L6.95590895,7.4497923 L7.12878207,7.44891209 L7.18381827,7.28527354 C8.26707888,4.18649855 11.0213381,1.85979029 14.1004374,1.53669837 L14.381213,1.51288025 L14.655467,1.50050827 L15.0775557,1.50046718 Z M15.0749606,3.14680057 L14.8144232,3.15626326 C11.8593943,3.31358913 9.33856337,5.36033244 8.57310441,8.23290351 L8.50838973,8.49629175 L8.36843643,8.91615164 L8.21812924,9.02448693 L7.81542783,9.02355508 C5.40499759,9.28614422 3.58852979,11.3370425 3.61903377,13.764175 C3.61379601,15.0595955 4.12608262,16.3034714 5.04209073,17.2194795 C5.89703163,18.0744204 7.0375818,18.577675 8.2396011,18.6367164 L8.49803583,18.6425352 L21.6519174,18.6425453 C22.9608955,18.6573558 24.2166199,18.1250043 25.1161217,17.1739315 C26.0156235,16.2228587 26.4772151,14.9394355 26.3891726,13.6229832 C26.3850955,11.3344992 24.7710583,9.37773075 22.5717365,8.92397553 L22.3498913,8.88365343 L21.9300314,8.88365343 L21.7797243,8.77531813 L21.6358508,8.34163834 C20.9400415,5.38393538 18.3556353,3.2693194 15.3412213,3.15242695 L15.0749606,3.14680057 Z M20.8104051,14.5847698 L20.9688428,14.7432075 L20.9688428,16.1427404 L20.8104051,16.3011781 L15.0740803,16.3011781 L14.9156426,16.1427404 L14.9156426,14.7432075 L15.0740803,14.5847698 L20.8104051,14.5847698 Z M12.8357078,14.5847698 L12.9941455,14.7432075 L12.9941455,16.1427404 L12.8357078,16.3011781 L11.2962216,16.3011781 L11.1377839,16.1427404 L11.1377839,14.7432075 L11.2962216,14.5847698 L12.8357078,14.5847698 Z" id="形状结合" fill="#FFFFFF" fill-rule="nonzero"></path>
                <rect id="矩形" x="0" y="0" width="30" height="30"></rect>
            </g>
        </g>
    </g>
</svg>