<svg xmlns="http://www.w3.org/2000/svg" width="36" height="36" viewBox="0 0 36 36">
  <g id="组_48" data-name="组 48" transform="translate(-849 -71)">
    <g id="组_42" data-name="组 42" transform="translate(171)">
      <rect id="矩形_46" data-name="矩形 46" width="36" height="36" transform="translate(678 71)" fill="none"/>
    </g>
    <g id="组_43" data-name="组 43" transform="translate(816.16 23.8)">
      <path id="路径_86" data-name="路径 86" d="M378.052,517.12h6.517v1.59h-6.517Zm-4.292,0h1.749v1.59H373.76Z" transform="translate(-327.429 -451.455)"/>
      <path id="路径_87" data-name="路径 87" d="M62.068,77.11a1.443,1.443,0,0,0-1.113.477l-1.272-1.272V71.865a7.3,7.3,0,0,0,5.564-6.994v-.318a7.3,7.3,0,0,0-5.4-6.676h-.159l-.159-.318a9.261,9.261,0,0,0-8.9-6.358h-.477a9.07,9.07,0,0,0-8.425,6.358H41.4a7.3,7.3,0,0,0-5.564,6.994A7.21,7.21,0,0,0,42.2,71.706V76l-1.272,1.272a1.443,1.443,0,0,0-1.113-.477,1.59,1.59,0,1,0,0,3.179.584.584,0,0,0,.477-.159l.159-.159a1.915,1.915,0,0,0,.795-.795l2.384-2.543V71.388h3.338v1.59a1.669,1.669,0,0,0-.795,1.431,1.59,1.59,0,1,0,3.179,0,1.669,1.669,0,0,0-.795-1.431v-1.59h3.974V75.2a1.669,1.669,0,0,0-.795,1.431,1.59,1.59,0,0,0,3.179,0A1.669,1.669,0,0,0,54.12,75.2V71.388h3.974v4.928l2.384,2.543a1.915,1.915,0,0,0,.795.795l.159.159c.159,0,.318.159.477.159a1.593,1.593,0,0,0,1.59-1.59C63.658,77.746,63.022,77.11,62.068,77.11Zm-3.974-6.835H43.152a5.7,5.7,0,0,1-5.723-5.723,5.527,5.527,0,0,1,4.928-5.564h.477l.159-.477a7.944,7.944,0,0,1,7.63-6.2,7.834,7.834,0,0,1,7.63,6.04l.159.477h.477a5.642,5.642,0,0,1,4.769,5.564A5.514,5.514,0,0,1,58.094,70.275Z"/>
    </g>
  </g>
</svg>
