<?xml version="1.0" encoding="UTF-8"?>
<svg width="30px" height="30px" viewBox="0 0 30 30" version="1.1" xmlns="http://www.w3.org/2000/svg" xmlns:xlink="http://www.w3.org/1999/xlink">
    <title>projectSet</title>
    <g id="页面-1" stroke="none" stroke-width="1" fill="none" fill-rule="evenodd">
        <g id="顶部菜单图标" transform="translate(-1707.000000, -9.000000)">
            <g id="projectSet" transform="translate(1707.000000, 9.000000)">
                <path d="M11.1153846,2.75 L4.39675385,2.74970514 L4.13169231,2.76230689 C2.83717598,2.8871571 1.83646312,3.93476895 1.7553178,5.2162025 L1.75,5.38461541 L1.74970514,23.6417077 L1.76230687,23.9067693 C1.88715708,25.2012856 2.93476893,26.2019984 4.21620248,26.2831438 L4.38461538,26.2884616 L14,26.2884616 C14.3929718,26.2884616 14.7115385,25.9698949 14.7115385,25.5769231 C14.7115385,25.2166989 14.443854,24.9189958 14.0965516,24.8718801 L14,24.8653846 L4.36248044,24.8644028 L4.16653848,24.8459167 C3.63205561,24.7481123 3.23340843,24.3085625 3.17934197,23.777828 L3.17307692,23.6538462 L3.17405876,5.36248046 L3.19254488,5.1665385 C3.29034924,4.63205564 3.72989907,4.23340845 4.26063358,4.17934199 L4.38461538,4.17307694 L11.1394657,4.17423944 L11.3406105,4.19472447 C11.5951919,4.24278853 11.8264928,4.37093183 12.001787,4.55884749 L12.0846154,4.65769233 L13.8074399,6.95533854 L13.9909953,7.17615387 C14.4442953,7.66492602 15.0641341,7.96185278 15.7240322,8.01173324 L15.9230769,8.01923079 L23.6375196,8.02021263 L23.8334615,8.03869875 C24.3679444,8.13650311 24.7665916,8.57605294 24.820658,9.10678744 L24.8269231,9.23076925 L24.8269231,10.1923077 C24.8269231,10.5852796 25.1454897,10.9038462 25.5384615,10.9038462 C25.8986857,10.9038462 26.1963889,10.6361617 26.2435045,10.2888593 L26.25,10.1923077 L26.2502949,9.2429077 L26.2376931,8.97784617 C26.1128454,7.68335507 25.065253,6.68267891 23.7838002,6.60147928 L23.6153846,6.59615387 L15.8989959,6.59499137 L15.697851,6.57450634 C15.4432697,6.52644228 15.2119688,6.39829898 15.0366745,6.21038332 L14.9538462,6.11153848 L13.2310216,3.81389227 L13.0474662,3.59307694 C12.5942152,3.10435767 11.9743944,2.80746109 11.3144464,2.7575189 L11.1153846,2.75 Z M23.9598173,11.5262099 C23.3694121,11.3034289 22.7095193,11.4078491 22.2276423,11.7832732 L22.111025,11.8827427 L21.961025,12.0423581 L21.8171302,12.1603574 C21.4994394,12.3841345 21.119855,12.5043712 20.7307692,12.5038462 C20.3173464,12.5038462 19.9230187,12.3782229 19.6056574,12.1431395 L19.4745263,12.0357349 L19.3513234,11.9085842 C18.9249529,11.5054673 18.3308947,11.3394065 17.7796596,11.4502863 L17.6305427,11.4874225 L17.3772013,11.5898549 L17.0163424,11.7588331 L16.5536678,11.9965523 L16.0867686,12.2598118 L15.7360354,12.4799261 C15.1461043,12.8328351 14.849985,13.5174486 14.9840312,14.1784986 L15.0193892,14.319662 L15.0925068,14.5571366 C15.1750522,14.941607 15.1018985,15.343121 14.8899371,15.6724041 C14.6811461,16.0014549 14.3688205,16.2494081 13.9979846,16.380458 L13.8356039,16.4293605 L13.659239,16.465957 C13.0741971,16.6086502 12.5774434,17.071377 12.4248037,17.6027572 L12.3939608,17.7368871 L12.3569744,18.0343175 L12.3459911,18.1970528 L12.3307508,18.5453439 L12.3269152,18.8598964 L12.3304555,19.1554086 L12.3415115,19.4454483 L12.3704167,19.8136265 L12.3980343,20.0022303 C12.4921676,20.5296758 12.9537715,21.0237605 13.5058744,21.2088199 L13.6456252,21.2484871 L13.9075435,21.3083724 C14.3179957,21.429956 14.6701285,21.696844 14.9010479,22.0639111 C15.0828296,22.3676098 15.1535531,22.7232614 15.1011841,23.0812297 L15.0711688,23.2346417 L15.0191913,23.3995749 C14.8543366,23.9754295 15.020309,24.5908591 15.4292791,24.9958185 L15.5365333,25.0925289 L15.7511909,25.2415103 L16.0840902,25.4485759 L16.5486463,25.7064577 L16.7811278,25.8283855 L17.0126864,25.94517 L17.3584686,26.1091409 L17.585981,26.2036483 C18.1518035,26.3801395 18.7645546,26.2653661 19.221768,25.9090454 L19.3424541,25.8059156 L19.5357995,25.6146662 C19.8751996,25.3421908 20.2988197,25.1962772 20.7308701,25.2019231 C21.1322572,25.2020851 21.5219297,25.3282909 21.8558861,25.5698388 L21.9954708,25.6803899 L22.110215,25.7971851 C22.5365856,26.2003019 23.1306437,26.3663628 23.6857342,26.2539666 L23.8360012,26.2163781 L23.9463181,26.1746458 L24.247812,26.0437009 L24.6610244,25.8371973 L25.1571088,25.5722932 L25.5505457,25.3440702 L25.8206615,25.169226 C26.3462568,24.7960818 26.597477,24.1509186 26.4733742,23.5298908 L26.4380267,23.3871399 L26.3693999,23.161858 C26.2857142,22.7847837 26.3569781,22.3898978 26.5667266,22.0665811 C26.7788756,21.7370977 27.0927379,21.4880466 27.4655039,21.3539043 L27.6287423,21.3035505 L27.8022994,21.2667353 C28.3873413,21.1240422 28.884095,20.6613153 29.0367348,20.1299351 L29.0675776,19.9958052 L29.0900336,19.8277774 L29.1047097,19.6984694 C29.1145016,19.5809662 29.1219781,19.4535981 29.1270659,19.3180411 L29.1350903,18.8884797 L29.0879833,18.1210701 L29.0461249,17.7281358 C28.9458876,17.1611219 28.488934,16.6594619 27.9348672,16.4714612 L27.7944776,16.4311393 L27.4969527,16.3669745 C27.1005932,16.2402674 26.7607468,15.9794551 26.530999,15.6215431 C26.3519364,15.3189312 26.2828404,14.9654756 26.3418759,14.5927199 L26.3750746,14.4318777 L26.4160602,14.3420437 C26.6040227,13.762998 26.4330848,13.0975445 26.0223006,12.6933367 L25.9146766,12.5979285 L25.8229182,12.5323946 L25.5505723,12.3541824 L25.1552552,12.1224181 L24.6590776,11.8571166 L24.2481956,11.6552559 L23.9598173,11.5262099 Z M23.4082323,12.8371116 L23.415,12.845 L23.4175238,12.8410476 L23.6286945,12.9358008 L24.0481905,13.1446761 L24.4460461,13.3565084 L24.7666909,13.541582 L25.1113742,13.7560516 L25.0138196,14.0250937 C24.8100541,14.7528989 24.8879889,15.5281108 25.2194149,16.1857029 L25.3160675,16.3620061 L25.4957245,16.6180674 C25.8736277,17.1059726 26.3813744,17.4751391 26.9466038,17.6817449 L27.161118,17.7515164 L27.6378897,17.8518894 L27.7133458,18.928759 L27.699094,19.3847257 L27.672171,19.7001103 L27.6287423,19.8482924 L27.4760842,19.8804292 L27.2760332,19.9250931 C26.5006651,20.1454434 25.8685198,20.5779714 25.4594758,21.1602294 L25.3535098,21.3226924 L25.2056209,21.5900474 C24.9406839,22.1351843 24.8552641,22.7481474 24.9568094,23.3364381 L25.0036674,23.5557099 L25.11107,23.9280389 L24.8793283,24.0881767 L24.6213854,24.2407643 L24.0218182,24.5666699 L23.554452,24.7959005 L23.449,24.839 L23.4315522,24.8527087 L23.4092618,24.8612999 L23.38098,24.8679401 L23.373,24.848 L23.2896889,24.8587516 C23.2808129,24.8593093 23.2736451,24.8592423 23.2669907,24.8585396 L23.2236698,24.846605 C23.195525,24.8394563 23.1781021,24.8350309 23.1628563,24.8195369 L23.137,24.78 L23.1213002,24.7960075 L22.9676186,24.6396747 C22.3307334,24.0797166 21.545773,23.7788462 20.7300312,23.7788451 C19.9985869,23.7766859 19.2891455,24.016544 18.7200873,24.4490028 L18.5536998,24.584469 L18.3383152,24.7998536 L18.308,24.77 L18.2756379,24.8217308 L18.2220906,24.8492158 L18.1922444,24.8570132 C18.1744142,24.8622445 18.1672822,24.8643371 18.1379269,24.8571059 L18.059,24.834 L18.0491796,24.8580253 L18.035,24.844 L17.8200231,24.7558641 L17.2165807,24.4509698 L16.8298709,24.2348507 L16.3376517,23.9360034 L16.4420483,23.6164152 C16.6241518,22.8863898 16.5434616,22.152656 16.2230173,21.5169038 L16.1197144,21.3292193 L15.9383592,21.067782 C15.5544805,20.5685818 15.0360855,20.1944855 14.4592728,19.991139 L14.2403784,19.9229771 L13.7998252,19.8257963 L13.7636051,19.4123159 L13.7519231,19.0634616 L13.7519231,18.6755936 L13.7622929,18.3517464 L13.7867544,18.0375925 L13.8074399,17.8518894 L13.9860793,17.8497802 L14.186591,17.8072933 C14.96294,17.5904453 15.5931566,17.1601694 16.0010028,16.5771721 L16.1066631,16.4144319 L16.2552789,16.1381996 C16.5207189,15.5837598 16.6047478,14.9767999 16.5049724,14.3858926 L16.4589361,14.1651887 L16.3425522,13.7833042 L16.7032145,13.5492442 L17.0178305,13.3665194 L17.4381966,13.1398548 L17.7798203,12.9693646 L18.008,12.868 L18.0309953,12.8543684 L18.0718345,12.8409177 L18.082,12.866 L18.0875281,12.8590439 L18.1745354,12.849063 C18.1837981,12.848618 18.191272,12.8488028 18.1982027,12.8496482 L18.2432339,12.8628939 C18.2758034,12.8732882 18.2944145,12.8792277 18.3108227,12.9000101 L18.326,12.925 L18.3402382,12.9116849 L18.4963516,13.0682608 C19.1158198,13.6273797 19.9002056,13.9269231 20.7307692,13.9269231 C21.4621368,13.9269231 22.1668098,13.6856674 22.7332823,13.252489 L22.8989665,13.1168271 L22.9637079,13.0561568 L23.1353046,12.8688973 L23.2236698,12.74785 L23.414,12.848 L23.404,12.846 L23.4082323,12.8371116 Z M20.7192308,15.2596154 C18.6339516,15.2596154 16.9423077,16.8571864 16.9423077,18.8326923 C16.9423077,20.809249 18.6331402,22.4076923 20.7192308,22.4076923 C22.8043993,22.4076923 24.4942308,20.8102257 24.4942308,18.8326923 C24.4942308,16.8574493 22.8028651,15.2596154 20.7192308,15.2596154 Z M20.7192308,16.6826923 C22.0170265,16.6826923 23.0711538,17.6451273 23.0711538,18.8326923 C23.0711538,20.0218437 22.0173905,20.9846154 20.7192308,20.9846154 C19.4201689,20.9846154 18.3653846,20.0208531 18.3653846,18.8326923 C18.3653846,17.64482 19.4198444,16.6826923 20.7192308,16.6826923 Z" id="形状" fill="#FFFFFF" fill-rule="nonzero"></path>
                <rect id="矩形" x="0" y="0" width="30" height="30"></rect>
            </g>
        </g>
    </g>
</svg>