<?xml version="1.0" encoding="UTF-8"?>
<svg width="30px" height="30px" viewBox="0 0 30 30" version="1.1" xmlns="http://www.w3.org/2000/svg" xmlns:xlink="http://www.w3.org/1999/xlink">
    <title>远程控制</title>
    <g id="页面-1" stroke="none" stroke-width="1" fill="none" fill-rule="evenodd">
        <g id="顶部菜单图标" transform="translate(-598.000000, -86.000000)">
            <g id="远程控制" transform="translate(598.000000, 86.000000)">
                <path d="M11.8461907,23.3150334 L2.40399469,23.3150334 C1.07166028,23.3150334 0.0289637914,22.2144093 0.0289637914,20.9400025 L0.0289637914,15.9003028 C0.0289637914,14.5679684 1.12958786,13.5252719 2.40399469,13.5252719 L11.8461907,13.5252719 C13.1785251,13.5252719 14.2212216,14.6258959 14.2212216,15.9003028 L14.2212216,20.9400025 C14.2791492,22.2723369 13.1785251,23.3150334 11.8461907,23.3150334 Z M2.40399469,15.2051718 C2.05642919,15.2051718 1.76679128,15.4948097 1.76679128,15.8423752 L1.76679128,20.8820749 C1.76679128,21.2296404 2.05642919,21.5192783 2.40399469,21.5192783 L11.8461907,21.5192783 C12.1937562,21.5192783 12.4833941,21.2296404 12.4833941,20.8820749 L12.4833941,15.8423752 C12.4833941,15.4948097 12.1937562,15.2051718 11.8461907,15.2051718 L2.40399469,15.2051718 L2.40399469,15.2051718 Z" id="形状" fill="#FFFFFF" fill-rule="nonzero"></path>
                <path d="M7.15405648,26.7327608 C6.69063581,26.7327608 6.28514273,26.3272677 6.28514273,25.863847 L6.28514273,22.5619748 C6.28514273,22.0985541 6.69063581,21.693061 7.15405648,21.693061 C7.61747714,21.693061 8.02297022,22.0985541 8.02297022,22.5619748 L8.02297022,25.863847 C8.02297022,26.3272677 7.61747714,26.7327608 7.15405648,26.7327608 Z" id="路径" fill="#FFFFFF" fill-rule="nonzero"></path>
                <path d="M26.460078,2 C27.9471897,2 29.136879,3.18968936 29.136879,4.67680106 L29.136879,8.3945803 C29.136879,9.80733642 27.9471897,11.0713814 26.460078,11.0713814 L23.2625849,11.071 L23.2627878,13.5251157 L28.3933232,13.5251157 C28.8394567,13.5251157 29.136879,13.822538 29.136879,14.2686715 C29.136879,14.714805 28.8394567,15.0122274 28.3933232,15.0122274 L16.6451407,15.0122274 C16.1990072,15.0122274 15.9015849,14.714805 15.9015849,14.2686715 C15.9015849,13.822538 16.1990072,13.5251157 16.6451407,13.5251157 L21.7756761,13.5251157 L21.7756761,13.5251157 L21.7755849,11.071 L18.6527415,11.0713814 C17.1656298,11.0713814 15.9759405,9.881692 15.9759405,8.3945803 L15.9759405,4.67680106 C15.9759405,3.18968936 17.1656298,2 18.6527415,2 L26.460078,2 Z M26.460078,3.41275611 L18.6527415,3.41275611 C17.9835413,3.41275611 17.4630522,3.93324521 17.4630522,4.60244547 L17.4630522,8.32022472 C17.4630522,8.98942498 17.9835413,9.50991408 18.6527415,9.50991408 L26.460078,9.50991408 C27.1292782,9.50991408 27.6497673,8.98942498 27.6497673,8.32022472 L27.6497673,4.60244547 C27.6497673,3.93324521 27.1292782,3.41275611 26.460078,3.41275611 Z" id="形状结合" fill="#FFFFFF" fill-rule="nonzero"></path>
                <path d="M13.4102354,27.7754572 L0.897877533,27.7754572 C0.434456871,27.7754572 0.0289637914,27.3699642 0.0289637914,26.9065435 C0.0289637914,26.4431228 0.434456871,26.0376298 0.897877533,26.0376298 L13.4102354,26.0376298 C13.8736561,26.0376298 14.2791492,26.4431228 14.2791492,26.9065435 C14.2791492,27.3699642 13.8736561,27.7754572 13.4102354,27.7754572 L13.4102354,27.7754572 Z" id="路径" fill="#FFFFFF" fill-rule="nonzero"></path>
                <path d="M6.811199,11.8880685 C6.63741625,11.8880685 6.521561,11.7722133 6.521561,11.5984305 L6.521561,8.42764459 C6.521561,6.57396194 8.02767835,5.06784478 9.881361,5.06784478 L14.0479022,5.06784478 C14.221685,5.06784478 14.3375402,5.18369995 14.3375402,5.3574827 C14.3375402,5.53126545 14.221685,5.64712061 14.0479022,5.64712061 L9.881361,5.64712061 C8.37524385,5.64712061 7.100837,6.86359985 7.100837,8.42764459 L7.100837,11.5984305 C7.100837,11.7722133 6.98498175,11.8880685 6.811199,11.8880685 Z M19.577734,27.1961814 L15.5844816,27.1961814 C15.4106988,27.1961814 15.2948437,27.0803262 15.2948437,26.9065435 C15.2948437,26.7327608 15.4106988,26.6169056 15.5844816,26.6169056 L19.577734,26.6169056 C21.0838512,26.6169056 22.358258,25.4004263 22.358258,23.8363816 L22.358258,16.5375062 C22.358258,16.3637234 22.4741133,16.2478683 22.647896,16.2478683 C22.8216787,16.2478683 22.937534,16.3637234 22.937534,16.5375062 L22.937534,23.8363816 C22.937534,25.6900643 21.4314166,27.1961814 19.577734,27.1961814 Z" id="形状" fill="#FFFFFF" fill-rule="nonzero"></path>
                <rect id="矩形" x="0" y="0" width="30" height="30"></rect>
            </g>
        </g>
    </g>
</svg>