<?xml version="1.0" encoding="UTF-8"?>
<svg width="30px" height="30px" viewBox="0 0 30 30" version="1.1" xmlns="http://www.w3.org/2000/svg" xmlns:xlink="http://www.w3.org/1999/xlink">
    <title>runtimePrepay</title>
    <g id="页面-1" stroke="none" stroke-width="1" fill="none" fill-rule="evenodd">
        <g id="顶部菜单图标" transform="translate(-559.000000, -9.000000)">
            <g id="runtimePrepay" transform="translate(559.000000, 9.000000)">
                <path d="M7.96659043,4.06688013 C8.36639055,2.87997361 9.64075337,2.24279219 10.8276599,2.63009854 L10.8276599,2.63009854 L24.1959757,5.59111802 C25.3828823,5.99091812 26.0325574,7.27777468 25.6327573,8.46468123 L25.6327573,8.46468123 L25.2704385,9.52665024 C26.5572951,9.91395659 27.4443516,11.1258506 27.4568453,12.4626822 L27.4568453,12.4626822 L27.4568453,24.2068102 C27.4568453,25.9059606 26.0825324,27.2677797 24.383382,27.2802734 L24.383382,27.2802734 L5.59277734,27.2802734 C3.8936269,27.2802734 2.51931406,25.8934668 2.51931406,24.2068102 L2.51931406,24.2068102 L2.51931406,12.4626822 C2.51931406,11.2882694 3.16898923,10.2512879 4.193477,9.71405654 L4.193477,9.71405654 L5.03055845,6.30326194 C5.16798975,5.72854929 5.54280234,5.20381167 6.05504622,4.9039616 C6.56729009,4.59161775 7.17948398,4.5041615 7.76669038,4.64159277 L7.76669038,4.64159277 L7.81666541,4.65408652 C7.84165291,4.50416147 7.95409668,4.11685515 7.96659043,4.06688013 Z M24.383382,10.8759756 L5.59277734,10.8759756 C4.71821462,10.8759756 4.01856445,11.5881195 4.01856445,12.4501885 L4.01856445,12.4501885 L4.01856445,24.1943164 C4.0310582,25.0563854 4.73070837,25.7560356 5.59277734,25.7685293 L5.59277734,25.7685293 L24.383382,25.7685293 C25.245451,25.7685293 25.9451012,25.0563854 25.9451012,24.1943164 L25.9451012,24.1943164 L25.9575949,12.4501885 C25.9451012,11.5881195 25.245451,10.8759756 24.383382,10.8759756 L24.383382,10.8759756 Z M11.8771352,14.4866702 C12.1769852,14.1868202 12.6642416,14.1868202 12.9640917,14.4866702 L12.9640917,14.4866702 L14.9880797,16.4981645 L16.999574,14.4866702 C17.299424,14.1868202 17.7866804,14.1868202 18.0865305,14.4866702 C18.3863805,14.7865203 18.3863805,15.2612829 18.0865305,15.5736268 L18.0865305,15.5736268 L16.8496489,16.8105083 L17.5992741,16.8105083 C18.0365555,16.8105083 18.3738868,17.1478396 18.3738868,17.585121 C18.3738868,18.0224024 18.0365554,18.3597337 17.5992741,18.3597337 L17.5992741,18.3597337 L15.7501986,18.3597337 L15.7501986,19.5341465 L17.5992741,19.5341465 C18.0365555,19.5341465 18.3738868,19.8714778 18.3738868,20.3087592 C18.3738868,20.7460406 18.0365554,21.0833719 17.5992741,21.0833719 L17.5992741,21.0833719 L15.7501986,21.0833719 L15.7501986,22.8324973 C15.7501986,23.2697787 15.4128673,23.60711 14.9755859,23.60711 C14.5383046,23.60711 14.2009732,23.2697787 14.2009732,22.8324973 L14.2009732,22.8324973 L14.2009732,21.0833719 L12.3518978,21.0833719 C11.9146164,21.0833719 11.5772851,20.7460406 11.5772851,20.3087592 C11.5772851,19.8714778 11.9146164,19.5341465 12.3518978,19.5341465 L12.3518978,19.5341465 L14.2009732,19.5341465 L14.2009732,18.3597337 L12.3518978,18.3597337 C11.9146164,18.3597337 11.5772851,18.0224024 11.5772851,17.585121 C11.5772851,17.1478396 11.9146164,16.8105083 12.3518978,16.8105083 L12.3518978,16.8105083 L13.1140167,16.8105083 L11.8771352,15.5736268 C11.5772851,15.2612829 11.5772851,14.7865203 11.8771352,14.4866702 Z M7.41686531,6.11585564 C7.00457144,6.01590562 6.59227759,6.26578069 6.47983381,6.67807454 L6.47983381,6.67807454 L6.46734006,6.70306204 L5.81766489,9.41420647 L21.5223126,9.41420647 C21.5348063,9.36423147 21.5348063,9.3267502 21.5473001,9.28926895 C21.5972751,9.07687515 21.5597938,8.86448135 21.4598438,8.70206255 C21.3598938,8.51465625 21.1849812,8.38971873 20.9850812,8.3397437 L20.9850812,8.3397437 Z M10.3279098,4.06688013 C9.94060344,3.9419426 9.50332207,4.1543364 9.37838455,4.5541365 L9.37838455,4.5541365 L9.26594077,4.89146785 L9.2284595,5.00391162 L21.3474,6.86548083 C22.4718378,7.14034341 23.2089693,8.22729993 23.0465505,9.37672522 L23.0465505,9.37672522 L23.7337069,9.37672522 L24.2084695,7.9649311 C24.2709383,7.76503105 24.2584445,7.56513101 24.1709882,7.37772471 C24.0710382,7.20281216 23.9086194,7.06538088 23.7212131,7.00291211 L23.7212131,7.00291211 L10.3404035,4.06688013 Z" id="形状结合" fill="#FFFFFF" fill-rule="nonzero"></path>
                <rect id="矩形备份-10" x="0" y="0" width="30" height="30"></rect>
            </g>
        </g>
    </g>
</svg>