<?xml version="1.0" encoding="UTF-8"?>
<svg width="30px" height="30px" viewBox="0 0 30 30" version="1.1" xmlns="http://www.w3.org/2000/svg" xmlns:xlink="http://www.w3.org/1999/xlink">
    <title>runtimeMaintenance</title>
    <g id="页面-1" stroke="none" stroke-width="1" fill="none" fill-rule="evenodd">
        <g id="顶部菜单图标" transform="translate(-949.000000, -9.000000)">
            <g id="runtimeMaintenance" transform="translate(949.000000, 9.000000)">
                <path d="M19.0315217,14.4885093 L20.5406056,12.9768634 C21.2528727,13.1024068 21.9856366,13.0767857 22.6876553,12.8948758 C23.5536491,12.6694099 24.3453416,12.2184783 24.9807453,11.5830745 C25.6084627,10.9553571 26.0619565,10.1687888 26.2874224,9.31304348 C26.5052019,8.48291925 26.507764,7.60667702 26.2951087,6.77399068 C26.2310559,6.5177795 26.0286491,6.31537267 25.775,6.24363354 C25.5187888,6.17445652 25.2446429,6.24619565 25.0550466,6.43322981 L23.4588509,8.03198758 C23.1872671,8.30357143 22.8260093,8.45217391 22.4416925,8.45217391 C22.0573758,8.45217391 21.696118,8.30100932 21.4245342,8.03198758 C21.1529503,7.76040373 21.0043478,7.39914596 21.0043478,7.01482919 C21.0043478,6.63051242 21.1555124,6.26925466 21.4245342,5.99767081 L23.0181677,4.40403727 C23.2052019,4.21444099 23.2795031,3.94285714 23.207764,3.68664596 C23.1411491,3.43043478 22.9387422,3.23059006 22.6799689,3.16653727 C21.8472826,2.95131988 20.9684783,2.95388199 20.138354,3.1742236 C19.2826087,3.39968944 18.4960404,3.85318323 17.8657609,4.48346273 C17.2303571,5.12142857 16.7768634,5.91312112 16.5565217,6.7765528 C16.3746118,7.47600932 16.3489907,8.20877329 16.4745342,8.91847826 L13.4486801,11.9494565 L10.3997671,8.90054348 C10.3920807,8.84930124 10.3792702,8.79549689 10.3638975,8.74425466 C10.3587733,8.73400621 10.3562112,8.72119565 10.3536491,8.71350932 L9.19557453,5.71840062 C9.15970497,5.62360248 9.10333851,5.54161491 9.03416149,5.46987578 L6.81024845,3.24596273 C6.53097826,2.96669255 6.07492236,2.96669255 5.79309006,3.24596273 L3.7613354,5.27771739 C3.48206522,5.55698758 3.48206522,6.01304348 3.7613354,6.29487578 L5.98524845,8.51878882 C6.05442547,8.58796584 6.13641304,8.64177019 6.22608696,8.67763975 L9.19045031,9.86645963 C9.20326087,9.87158385 9.21863354,9.87670807 9.2314441,9.8818323 C9.28268634,9.89976708 9.33649068,9.91001553 9.38773292,9.92026398 L12.436646,12.969177 L4.34549689,21.0526398 C3.80232919,21.5958075 3.50512422,22.3157609 3.50512422,23.0818323 C3.50512422,23.8479037 3.80232919,24.5678571 4.34549689,25.1110248 C4.90659938,25.6721273 5.63936335,25.9488354 6.37468944,25.9488354 C7.11001553,25.9488354 7.84534161,25.6695652 8.40388199,25.1110248 L14.9705745,18.5443323 L21.511646,25.0854037 C22.0727484,25.6465062 22.8055124,25.9232143 23.5408385,25.9232143 C24.2761646,25.9232143 25.0114907,25.6439441 25.5700311,25.0854037 C26.6896739,23.9657609 26.6896739,22.1440994 25.5700311,21.0244565 L19.0315217,14.4885093 Z M6.89736025,7.39914596 L5.28322981,5.78501553 L6.3003882,4.76785714 L7.91195652,6.37942547 L8.56529503,8.06785714 L6.89736025,7.39914596 L6.89736025,7.39914596 Z M7.38928571,24.0989907 C6.82818323,24.6600932 5.91863354,24.6600932 5.36009317,24.0989907 C4.79899068,23.5378882 4.79899068,22.6283385 5.36009317,22.0697981 L18.0656056,9.36428571 L17.9579969,8.96203416 C17.7965839,8.36506211 17.7940217,7.7322205 17.9477484,7.13268634 C18.1065994,6.51521739 18.4294255,5.9515528 18.8854814,5.49549689 C19.3338509,5.04456522 19.8949534,4.72173913 20.5072981,4.56032609 C20.6430901,4.52445652 20.7814441,4.49627329 20.9197981,4.47833851 L20.4125,4.98563665 C19.8693323,5.52880435 19.5721273,6.24875776 19.5721273,7.01482919 C19.5721273,7.78090062 19.8693323,8.50085404 20.4125,9.04402174 C20.9736025,9.60512422 21.7063665,9.8818323 22.4416925,9.8818323 C23.1770186,9.8818323 23.9123447,9.60256211 24.4708851,9.04402174 L24.9781832,8.5367236 C24.9576863,8.67251553 24.9320652,8.81343168 24.8961957,8.94666149 C24.7347826,9.5564441 24.4145186,10.1175466 23.963587,10.5659161 C23.5100932,11.0194099 22.9464286,11.3447981 22.3289596,11.5036491 C21.7294255,11.6573758 21.0940217,11.6573758 20.4970497,11.4959627 L20.0973602,11.388354 L7.38928571,24.0989907 Z M24.5554348,24.0708075 C24.2761646,24.3500776 23.9072205,24.4909938 23.5382764,24.4909938 C23.1693323,24.4909938 22.8029503,24.3526398 22.521118,24.0708075 L15.9851708,17.5322981 L18.0143634,15.5031056 L24.5528727,22.0416149 C25.1139752,22.6001553 25.1139752,23.509705 24.5554348,24.0708075 L24.5554348,24.0708075 Z" id="形状" fill="#FFFFFF" fill-rule="nonzero"></path>
                <rect id="矩形备份-13" x="0" y="0" width="30" height="30"></rect>
            </g>
        </g>
    </g>
</svg>