<?xml version="1.0" encoding="UTF-8"?>
<svg width="30px" height="30px" viewBox="0 0 30 30" version="1.1" xmlns="http://www.w3.org/2000/svg" xmlns:xlink="http://www.w3.org/1999/xlink">
    <title>runtimeSolar</title>
    <g id="页面-1" stroke="none" stroke-width="1" fill="none" fill-rule="evenodd">
        <g id="顶部菜单图标" transform="translate(-715.000000, -9.000000)">
            <g id="runtimeSolar" transform="translate(715.000000, 9.000000)">
                <path d="M19.5862871,5.08100275 L19.3492193,5.08636207 C16.9887367,5.19318679 14.9476547,6.88610896 14.4442305,9.1887251 L14.4324404,9.26211191 L14.4276433,9.34726401 L14.3239676,9.44526923 L5.33824845,9.44578962 C4.35192807,9.44578962 3.50909248,10.0448985 3.28942523,10.8711674 L3.25722694,11.0192619 L1.62681055,20.6141814 C1.53714247,21.1419928 1.71264678,21.6786349 2.10923249,22.0851408 C2.46432772,22.4491184 2.96511578,22.6762924 3.50412238,22.7222889 L3.70783144,22.7309582 L10.7906348,22.7309582 L10.8944809,22.8348044 L10.8944809,26.1330593 L10.7906348,26.2369054 L4.95080769,26.2361538 L4.95080769,27.528 L18.3303462,27.528 L18.3303462,26.2361538 L12.4889858,26.2369054 L12.3851397,26.1330593 L12.3851397,22.8348044 L12.4889858,22.7309582 L19.5745048,22.7309582 C20.1897487,22.7309484 20.7736233,22.4946156 21.1731054,22.0851408 C21.5300326,21.7192855 21.7078838,21.2480199 21.6745158,20.7726456 L21.6555262,20.6141743 L20.7835387,15.4792482 L20.8607915,15.3611022 C23.1775026,14.78336 24.8458286,12.6850872 24.8458286,10.2993079 C24.8458286,7.49815707 22.6087589,5.20460762 19.8140721,5.08583434 L19.5862871,5.08100275 Z M10.7906348,16.7341312 L10.8944809,16.8379773 L10.8944809,21.3355976 L10.7906348,21.4394438 L3.70783144,21.4394438 C3.53219251,21.4394438 3.36444248,21.3716469 3.24772488,21.2522303 C3.15202523,21.1543176 3.09828138,21.0294344 3.0946153,20.900027 L3.10138223,20.8024738 L3.77800531,16.8205806 L3.88038391,16.7341312 L10.7906348,16.7341312 Z M19.4005953,16.7341312 L19.5029739,16.8205806 L20.1796299,20.8026685 C20.2069047,20.9650485 20.1530525,21.129333 20.0337963,21.2516767 C19.9406981,21.3471852 19.8149868,21.4098013 19.678526,21.4312272 L19.5745065,21.4394438 L12.4889858,21.4394438 L12.3851397,21.3355976 L12.3851397,16.8379773 L12.4889858,16.7341312 L19.4005953,16.7341312 Z M24.8884643,14.342318 C24.5881476,14.0440198 24.1033755,14.0440198 23.803065,14.3423119 C23.6600603,14.4843792 23.5796418,14.6776273 23.5796418,14.8792047 C23.5796418,15.0404666 23.6311096,15.1963978 23.7248857,15.325029 L23.8030073,15.4160403 L24.7872995,16.3923518 C25.0879406,16.6900726 25.5722863,16.6900726 25.872925,16.3923542 C26.0161895,16.250472 26.0967919,16.0572069 26.0967919,15.8555754 C26.0967919,15.6942701 26.0452064,15.5383194 25.9511914,15.4097186 L25.8728677,15.3187398 L24.8884643,14.342318 Z M10.7919934,10.7373041 L10.8958396,10.8411502 L10.8958396,15.3387706 L10.7919934,15.4426167 L4.13445723,15.4426167 L4.03208701,15.3213246 L4.73312493,11.207746 C4.77378901,10.9656423 4.98260989,10.7827665 5.2397781,10.7446466 L5.33824845,10.7373041 L10.7919934,10.7373041 Z M17.9440895,10.7373041 C18.2118076,10.7373041 18.4465606,10.8933857 18.527595,11.1196119 L18.5505414,11.2075669 L19.2489034,15.3213903 L19.146522,15.4426167 L12.4889858,15.4426167 L12.3851397,15.3387706 L12.3851397,10.8411502 L12.4889858,10.7373041 L17.9440895,10.7373041 Z M19.5847637,6.60124257 C21.6339364,6.59802231 23.2996454,8.25088051 23.310952,10.2993079 C23.310952,11.8161511 22.359721,13.1749488 20.960373,13.7314986 L20.7668225,13.8023586 L20.6226751,13.8451001 L20.4907718,13.762915 L20.0251014,11.0192052 C19.8808543,10.1674646 19.0844708,9.52111951 18.1165584,9.45193222 L17.9440676,9.44578962 L16.0971768,9.4454004 L15.9973339,9.31307539 C16.4538588,7.71221182 17.9168096,6.60434994 19.5847637,6.60124257 Z M27.6266538,9.47019231 L26.2373135,9.47068017 C25.8135566,9.47068017 25.4698741,9.81218644 25.4698741,10.2309907 C25.4708036,10.4334703 25.5521308,10.6272874 25.6959643,10.7698033 C25.81103,10.8838149 25.9585602,10.9575246 26.1168847,10.9819735 L26.2373135,10.9909338 L27.627378,10.9909338 C28.0517416,10.9909338 28.3948163,10.651473 28.3948163,10.2327977 C28.3948163,9.84690616 28.1068474,9.52920976 27.7317012,9.47894016 L27.6266538,9.47019231 Z M14.4849288,4.1915215 C14.1846122,3.89322335 13.69984,3.89322335 13.3995295,4.19151537 C13.2565248,4.33358267 13.1761063,4.52683077 13.1761063,4.72840821 C13.1761063,4.88967016 13.2275741,5.04560134 13.3213759,5.17425798 L13.399522,5.26529362 L14.3836514,6.24277415 C14.5783802,6.43502412 14.8602612,6.50995451 15.1258649,6.43948566 C15.3904189,6.37242143 15.5982331,6.16788139 15.6694898,5.90442564 C15.7305669,5.67860642 15.6831758,5.43959927 15.545569,5.25524936 L15.4693322,5.16794327 L14.4849288,4.1915215 Z M25.7864641,4.10649866 C25.513154,3.83584334 25.0880219,3.81123832 24.7871078,4.03268358 L24.7022261,4.10643946 L23.7178734,5.08281095 C23.5738956,5.22561814 23.4931848,5.41856924 23.4931848,5.6185894 C23.4963246,5.92723886 23.6837621,6.20408233 23.969173,6.32161949 C24.2189075,6.4244645 24.5012759,6.38788904 24.7149358,6.23194456 L24.8020023,6.15786136 L25.7864617,5.18005387 C25.9297262,5.03817168 26.0103286,4.84490661 26.0103286,4.64327507 C26.0103286,4.48196985 25.9587431,4.32601915 25.8647574,4.1974474 L25.7864641,4.10649866 Z M19.5754615,1.60384615 L19.4721214,1.61109348 C19.1342778,1.65733066 18.8667821,1.91961768 18.8166614,2.25159425 L18.8082066,2.36463343 L18.8082066,3.74373886 C18.8088262,3.94642174 18.8900169,4.14053956 19.033884,4.2833085 C19.1777498,4.42607611 19.3724848,4.50577933 19.5756454,4.50486078 C19.963313,4.50486078 20.2840003,4.21859851 20.3347561,3.8483068 L20.3417535,3.74538651 L20.3417535,2.36463343 C20.3417535,1.97934647 20.0532258,1.6611463 19.6795233,1.61078854 L19.5754615,1.60384615 Z" id="形状结合" fill="#FFFFFF" fill-rule="nonzero"></path>
                <rect id="矩形备份-12" x="0" y="0" width="30" height="30"></rect>
            </g>
        </g>
    </g>
</svg>