<?xml version="1.0" encoding="UTF-8"?>
<svg width="30px" height="30px" viewBox="0 0 30 30" version="1.1" xmlns="http://www.w3.org/2000/svg" xmlns:xlink="http://www.w3.org/1999/xlink">
    <title>编组 6</title>
    <g id="页面-1" stroke="none" stroke-width="1" fill="none" fill-rule="evenodd">
        <g id="顶部菜单图标" transform="translate(-1629.000000, -9.000000)">
            <g id="编组-6" transform="translate(1629.000000, 9.000000)">
                <path d="M24.3796071,25.21475 L5.61942857,25.21475 L5.61942857,26.7036071 L24.3796071,26.7036071 L24.3796071,25.21475 Z M26.7492187,3.60433873 L3.25078125,3.60433873 C2.3869868,3.60433873 1.67506253,4.27080013 1.60251592,5.11621546 L1.59642857,5.25869141 L1.59642857,21.4850586 C1.59642857,22.3467207 2.26323675,23.0581864 3.10836006,23.1306906 L3.25078125,23.1367746 L26.7492187,23.1367746 C27.6126472,23.1367746 28.3248989,22.4706595 28.397481,21.6271944 L28.4035714,21.4850586 L28.4035714,5.25869141 C28.4035714,4.39489695 27.73711,3.68297269 26.8916947,3.61042607 L26.7492187,3.60433873 Z M3.25106175,5.09370856 L26.8180539,5.16226324 L26.914202,5.25869141 L26.914202,21.4824219 C26.914202,21.5545579 26.8663216,21.6168656 26.8008587,21.638903 L26.7489382,21.6474047 L3.18194606,21.57885 L3.08579884,21.4820161 L3.15435353,5.18973097 L3.25106175,5.09370856 Z M20.7849609,8.80922154 C23.3209627,8.80922154 25.3818917,10.8701506 25.3818917,13.4061523 C25.3818917,15.9421541 23.3209627,18.0030831 20.7849609,18.0030831 C18.2489592,18.0030831 16.1880301,15.9421541 16.1880301,13.4061523 C16.1880301,10.8701506 18.2489592,8.80922154 20.7849609,8.80922154 Z M19.8465,10.6472857 L19.8043301,10.6609117 C18.6595132,11.0701541 17.8702567,12.1621675 17.8702567,13.4061523 C17.8702567,15.0131064 19.1787976,16.3208566 20.7849609,16.3208566 C22.0273844,16.3208566 23.1202695,15.531117 23.5299517,14.3866839 L23.5426071,14.3433929 L19.943833,14.3436942 L19.8474191,14.2472802 L19.8465,10.6472857 Z M8.70128571,14.41475 L4.86825,14.41475 L4.86825,15.9036071 L8.70128571,15.9036071 L8.70128571,14.41475 Z M11.4331071,11.9625714 L4.86825,11.9625714 L4.86825,13.4514286 L11.4331071,13.4514286 L11.4331071,11.9625714 Z M21.723,10.6472857 L21.7220357,12.4678571 L23.5435714,12.4678571 L23.5263839,12.4150561 C23.2323211,11.6035365 22.5875768,10.9587922 21.7760572,10.6647293 L21.723,10.6472857 Z M13.6557857,9.37057143 L4.86825,9.37057143 L4.86825,10.8594286 L13.6557857,10.8594286 L13.6557857,9.37057143 Z" id="形状结合" fill="#FFFFFF" fill-rule="nonzero"></path>
                <rect id="dataScreen" x="0" y="0" width="30" height="30"></rect>
            </g>
        </g>
    </g>
</svg>