<svg xmlns="http://www.w3.org/2000/svg" width="36" height="36" viewBox="0 0 36 36">
  <g id="组_46" data-name="组 46" transform="translate(-762 -71)">
    <g id="组_39" data-name="组 39" transform="translate(84)">
      <rect id="矩形_46" data-name="矩形 46" width="36" height="36" transform="translate(678 71)" fill="none"/>
    </g>
    <g id="组_40" data-name="组 40" transform="translate(766 49.4)">
      <path id="路径_80" data-name="路径 80" d="M26.1,27.073a1.572,1.572,0,0,1,1.45,1.473V45.98a1.572,1.572,0,0,1-1.45,1.473H2.9A1.572,1.572,0,0,1,1.45,45.98V28.546A1.572,1.572,0,0,1,2.9,27.073H26.1m0-1.473H2.9A2.886,2.886,0,0,0,0,28.546V45.98a2.815,2.815,0,0,0,2.9,2.946H26.1A2.815,2.815,0,0,0,29,45.98V28.546A2.963,2.963,0,0,0,26.1,25.6Z" transform="translate(0 0)"/>
      <path id="路径_81" data-name="路径 81" d="M0,640H29v1.476H0Zm13.775,4.674h1.45v4.92h-1.45Z" transform="translate(0 -596.732)"/>
      <path id="路径_82" data-name="路径 82" d="M125.135,119.129a.523.523,0,0,1-.481-.491v-2.456h-2.406a.491.491,0,0,1,0-.982h2.887c.12,0,.241,0,.241.123a.384.384,0,0,1,.12.246v2.947C125.5,119.006,125.256,119.129,125.135,119.129Zm-22.254,0a.523.523,0,0,1-.481-.491v-2.947a.523.523,0,0,1,.481-.491h2.887a.491.491,0,0,1,0,.982h-2.406v2.456a.445.445,0,0,1-.481.491Z" transform="translate(-99.448 -87.017)"/>
      <path id="路径_83" data-name="路径 83" d="M125.138,119.136a.523.523,0,0,1-.481-.492v-2.46h-2.406a.492.492,0,0,1,0-.984h2.887c.12,0,.241,0,.241.123a.385.385,0,0,1,.12.246v2.952C125.5,119.013,125.258,119.136,125.138,119.136Zm-19.369,10.086h-2.887a.523.523,0,0,1-.481-.492v-2.952a.481.481,0,1,1,.962,0v2.46h2.406a.492.492,0,0,1,0,.984Zm19.369,0h-2.887a.492.492,0,0,1,0-.984h2.406v-2.46a.481.481,0,1,1,.962,0v2.952c0,.123,0,.246-.12.246C125.258,129.222,125.258,129.222,125.138,129.222Z" transform="translate(-99.448 -87.017)"/>
      <path id="路径_84" data-name="路径 84" d="M322.829,272.282h-2.337a.529.529,0,0,1-.492-.492v-3.813a.529.529,0,0,1,.492-.492h2.214a.529.529,0,0,1,.492.492v3.69A.491.491,0,0,1,322.829,272.282Zm-1.845-.984h1.23v-2.829h-1.23Zm5.781.984h-2.214a.529.529,0,0,1-.492-.492v-6.765a.529.529,0,0,1,.492-.492h2.214a.529.529,0,0,1,.492.492v6.765A.529.529,0,0,1,326.765,272.282Zm-1.845-.984h1.23v-5.781h-1.23Zm5.781,1.23h-2.214a.529.529,0,0,1-.492-.492v-3.321a.529.529,0,0,1,.492-.492H330.7a.529.529,0,0,1,.492.492v3.321A.529.529,0,0,1,330.7,272.528Zm-1.845-.984h1.23v-2.337h-1.23Z" transform="translate(-311.037 -232.06)"/>
      <line id="直线_19" data-name="直线 19" x2="12" transform="translate(8.562 53.1)" fill="none" stroke="#000" stroke-linecap="round" stroke-width="1"/>
    </g>
  </g>
</svg>
