<svg xmlns="http://www.w3.org/2000/svg" width="36" height="36" viewBox="0 0 36 36">
  <g id="组_47" data-name="组 47" transform="translate(-804 -71)">
    <g id="组_41" data-name="组 41" transform="translate(126)">
      <rect id="矩形_46" data-name="矩形 46" width="36" height="36" transform="translate(678 71)" fill="none"/>
    </g>
    <path id="路径_85" data-name="路径 85" d="M39.434,33.435l-1.06,0-1.6-2.409a.746.746,0,0,0-.752-.44v-.019h-11l-.719-1a.78.78,0,0,0-.08-.126.683.683,0,0,0-.56-.3l-.026,0H13.552a.778.778,0,0,0-.752.766V54.734a2.318,2.318,0,0,0,2.207,2.4H39.385a2.392,2.392,0,0,0,2.257-2.4v-18.9a2.318,2.318,0,0,0-2.207-2.4Zm-3.742-1.341.883,1.33-9.528-.036v0l-.926-1.29h9.574ZM14.3,30.665h8.971l1.95,2.716L14.3,33.338V30.665ZM40.137,54.683a.8.8,0,0,1-.7.868H15.007a.8.8,0,0,1-.7-.868V34.864l23.628.1c.016,0,.03.006.047.006s.027,0,.039-.006l1.415.006a.8.8,0,0,1,.7.868V54.683ZM35.229,42.775h-.054a2.12,2.12,0,0,1-2.1-2.139,3.411,3.411,0,0,1,.161-.823,1.343,1.343,0,0,0-.484-1.591l-2.311-1.317a1.876,1.876,0,0,0-.537-.109,1.453,1.453,0,0,0-1.021.439,2.813,2.813,0,0,1-1.666.988,2.99,2.99,0,0,1-1.666-.988,1.453,1.453,0,0,0-1.021-.439,1.043,1.043,0,0,0-.537.11l-2.365,1.317a1.4,1.4,0,0,0-.43,1.591,3.408,3.408,0,0,1,.161.823,2.121,2.121,0,0,1-2.1,2.139h-.108c-.484,0-.86.439-.967,1.042a2.712,2.712,0,0,0-.214,1.156,9.053,9.053,0,0,0,.215,1.865c.108.658.484,1.042.967,1.042h.054a2.12,2.12,0,0,1,2.1,2.139,3.411,3.411,0,0,1-.161.823,1.343,1.343,0,0,0,.484,1.591L23.888,53.7a1.868,1.868,0,0,0,.538.11,1.453,1.453,0,0,0,1.021-.439,3.279,3.279,0,0,1,1.72-1.042c.645,0,1.451.768,1.72,1.042a1.453,1.453,0,0,0,1.021.439H30.5l2.311-1.317a1.4,1.4,0,0,0,.43-1.591,2.836,2.836,0,0,1-.161-.823,2.121,2.121,0,0,1,2.1-2.139h.108c.484,0,.86-.439.967-1.042a12.119,12.119,0,0,0,.215-1.865,4,4,0,0,0-.215-1.211c-.161-.658-.537-1.042-1.021-1.042Zm-.43,3.57a3.7,3.7,0,0,0-3.225,3.675,3.456,3.456,0,0,0,.215,1.207l-1.881,1.042c-.161-.164-.43-.384-.752-.658a3.241,3.241,0,0,0-1.989-.823,3.041,3.041,0,0,0-1.989.877,5.531,5.531,0,0,0-.752.658l-1.773-1.042a6.012,6.012,0,0,0,.215-1.262,3.661,3.661,0,0,0-3.225-3.675c0-.329-.108-.933-.108-1.371a1.961,1.961,0,0,1,.108-.717,3.706,3.706,0,0,0,3.225-3.675,3.456,3.456,0,0,0-.215-1.207l1.935-1.1c.161.109.43.384.752.6a3.351,3.351,0,0,0,1.935.768,3.489,3.489,0,0,0,1.935-.768,3.328,3.328,0,0,0,.752-.6l1.827,1.042a5.99,5.99,0,0,0-.215,1.262A3.661,3.661,0,0,0,34.8,44.256c.054.274.161.223.161.717A7.942,7.942,0,0,1,34.8,46.345ZM27.221,41.6a3.7,3.7,0,1,0,3.7,3.7A3.716,3.716,0,0,0,27.221,41.6Zm0,5.725A2.028,2.028,0,1,1,29.249,45.3,2.011,2.011,0,0,1,27.221,47.328Z" transform="translate(795.2 45.867)"/>
  </g>
</svg>
