<?xml version="1.0" encoding="UTF-8"?>
<svg width="30px" height="30px" viewBox="0 0 30 30" version="1.1" xmlns="http://www.w3.org/2000/svg" xmlns:xlink="http://www.w3.org/1999/xlink">
    <title>编组 10</title>
    <g id="页面-1" stroke="none" stroke-width="1" fill="none" fill-rule="evenodd">
        <g id="图标7-30" transform="translate(-26.000000, -111.000000)">
            <g id="编组-10" transform="translate(26.000000, 111.000000)">
                <path d="M14.9914458,1.70138416 L14.9914458,28.2500463 C14.6973223,28.268961 14.3388889,28.2784184 14.0485484,28.2784184 C10.6212061,28.2784184 7.43313474,27.039506 4.99219369,24.7413709 C2.35359411,22.2559803 0.9,18.8598473 0.9,15.1781025 C0.9,11.5824194 2.30347017,8.19952672 4.85222497,5.65077192 C7.43786341,3.06513348 11.3409102,1.64936875 14.9914458,1.70138416 L14.9914458,1.70138416 Z M19.8405489,2.75218567 C20.0027504,2.75218567 20.1571426,2.77513729 20.3017916,2.82041303 L20.3017916,2.82041303 L20.4832423,2.89069632 L23.7565446,4.71029268 L23.8802577,4.80645555 C24.3204673,5.1830624 24.4999098,5.81904999 24.3121268,6.37393834 L24.3121268,6.37393834 L24.1782059,6.72298082 L24.1053917,6.95048127 C24.0166496,7.25299859 23.9628522,7.55088424 23.9628522,7.82775529 C23.9628522,9.68179123 25.4189891,11.2137629 27.2629579,11.3138039 L27.2629579,11.3138039 L27.447546,11.3188879 L27.5889137,11.3187494 L27.6923654,11.3253594 C28.101054,11.3780243 28.4447479,11.7428136 28.5946815,12.3270256 L28.5946815,12.3270256 L28.63845,12.5343161 L28.6675495,12.7008175 C28.6873597,12.8177176 28.7078494,12.9459328 28.7281702,13.0825637 L28.7281702,13.0825637 L28.7877771,13.514804 C28.858748,14.0732538 28.9,14.5908458 28.9,15.0275988 C28.9,15.5151445 28.8492583,16.0977584 28.7644776,16.7186246 C28.7388176,16.9065376 28.7131165,17.0769094 28.6894611,17.2232271 L28.6894611,17.2232271 L28.6267185,17.5835048 C28.500606,18.2504711 28.1303806,18.6794264 27.681671,18.7311486 L27.681671,18.7311486 L27.5730434,18.7369539 L27.4544164,18.7363725 L27.2692313,18.7412204 C25.4294167,18.8377745 23.9628524,20.3644165 23.9628524,22.2275554 C23.9628524,22.6015183 24.0611475,23.0124255 24.2040432,23.4041805 L24.2040432,23.4041805 L24.3124473,23.6837655 C24.4969397,24.2401684 24.3210143,24.8765872 23.8729792,25.254052 L23.8729792,25.254052 L23.7337145,25.3581353 L20.4061505,27.1957812 L20.2471441,27.2546318 C20.1530324,27.2838951 20.0549212,27.3035779 19.9533702,27.3134814 L19.9533702,27.3134814 L19.7857743,27.3212555 L19.6350593,27.3132814 L19.4892403,27.2930125 C19.1515734,27.2302748 18.8355433,27.0610601 18.6166476,26.8195425 L18.6166476,26.8195425 L18.4563526,26.6538749 L18.2789169,26.4843835 L18.0776281,26.3042866 C17.4653133,25.7753777 16.7823934,25.3555698 16.1755181,25.2247793 L16.1755181,25.2247793 L16.1496468,25.2201673 L16.1496468,23.8206744 L16.3074883,23.8423578 L16.5412961,23.8898698 C17.0909234,24.0209673 17.6687696,24.2937089 18.268313,24.707909 L18.268313,24.707909 L18.4942954,24.869938 L18.7585915,25.0744544 C19.0161982,25.2818804 19.252867,25.4964171 19.4607666,25.7034982 L19.4607666,25.7034982 L19.7359387,25.9858195 L23.0135727,24.1744122 L22.8710097,23.786599 L22.7882805,23.530629 C22.6597032,23.1001623 22.5797395,22.6530173 22.5797395,22.2277819 C22.5797395,19.6777966 24.5408723,17.5622054 27.0765347,17.3678388 L27.0765347,17.3678388 L27.2670131,17.353238 L27.3816622,16.6192177 L27.4208874,16.326157 C27.4813743,15.844963 27.5167362,15.4020031 27.5167362,15.0277497 C27.5167362,14.4088746 27.4228952,13.6300246 27.2958526,12.8875871 L27.2958526,12.8875871 L27.2641102,12.7020848 L27.0764623,12.6876985 L26.8605579,12.6663653 C24.4303223,12.372053 22.5797018,10.30487 22.5797018,7.82775522 C22.5797018,7.27653392 22.7130642,6.6938477 22.9089922,6.16299334 L22.9089922,6.16299334 L23.0157531,5.88118126 L19.7770376,4.0823773 L19.4959832,4.35500545 L19.2826645,4.54898314 C19.0601119,4.74468238 18.8107669,4.94395001 18.5428136,5.13241977 L18.5428136,5.13241977 L18.3101736,5.29007204 L18.0799574,5.43404164 C17.469361,5.7997094 16.8855987,6.0193372 16.3365158,6.09219278 L16.3365158,6.09219278 L16.150612,6.1098504 L16.1496468,4.7161485 L16.2663251,4.69993542 L16.4671139,4.65257831 C17.1431154,4.46349859 17.8806207,3.96925773 18.5130737,3.38182938 L18.5130737,3.38182938 L18.6687304,3.23048587 L18.7837276,3.12391586 C19.0670857,2.88900281 19.4511245,2.75218567 19.8405489,2.75218567 Z M7.77738214,21.833237 C6.74653141,22.246523 5.9350911,22.7714057 5.41682853,23.3605984 C7.20332123,25.322052 9.58940967,26.6451347 12.1920713,27.1246222 C10.2684471,25.4847183 8.78553524,23.707683 7.77738214,21.833237 Z M13.672146,20.8799365 C12.0587228,20.831704 10.475563,21.0047734 9.046558,21.3934704 C10.1076722,23.2735908 11.6454367,25.0402231 13.672146,26.6489176 L13.672146,26.6489176 Z M6.0797885,15.8429539 L2.24199742,15.8429539 C2.36683439,18.1959416 3.16503441,20.4316583 4.55904724,22.3297476 C5.20782118,21.662059 6.1043776,21.0747578 7.16832905,20.6226967 C6.51198922,19.0726376 6.14598992,17.4658345 6.0797885,15.8429539 L6.0797885,15.8429539 Z M13.672146,15.8429539 L7.42746033,15.8429539 C7.49933616,17.3400518 7.83790916,18.7945916 8.43372196,20.1696898 C9.98472674,19.7081713 11.7778396,19.4963267 13.672146,19.5502336 L13.672146,19.5502336 L13.672146,15.8429539 Z M16.150612,10.5631333 L16.3142148,10.578092 L16.5213434,10.6065152 C18.6458922,10.9491636 20.2692004,12.7967723 20.2692004,15.010502 L20.2692004,15.010502 L20.2643382,15.2198714 L20.249894,15.4268455 C20.0518665,17.5524433 18.3533386,19.2591082 16.2149203,19.4530862 L16.2149203,19.4530862 L16.1496468,19.457152 L16.150612,18.068276 L16.2652569,18.0544907 L16.4412378,18.0228856 C17.7771734,17.7424035 18.7992494,16.5928113 18.8807432,15.1909273 L18.8807432,15.1909273 L18.8858731,15.017494 L18.8810398,14.8432493 L18.8659201,14.6646628 C18.7045482,13.247464 17.582429,12.1156119 16.1607891,11.9528891 L16.1607891,11.9528891 L16.1496468,11.9510442 L16.150612,10.5631333 Z M8.51505514,10.1382827 C7.90789352,11.5966055 7.56459185,12.9934555 7.43786341,14.513251 L7.43786341,14.513251 L13.672146,14.513251 L13.672146,10.7653047 C13.4990766,10.7728706 13.3288443,10.778545 13.1576664,10.778545 C11.5527547,10.778545 9.95068029,10.5572431 8.51505514,10.1382827 Z M4.57512472,7.99524804 C3.18678631,9.89712036 2.38385762,12.1309455 2.24483463,14.4763674 L2.24483463,14.4763674 L6.10626907,14.4763674 C6.12140082,14.2777631 6.15544727,13.8124617 6.18003637,13.6138574 C6.34175699,12.3134723 6.69357027,11.0026841 7.23169327,9.70513623 C6.14220699,9.25402082 5.22957308,8.66671962 4.57512472,7.99524804 Z M13.672146,3.5956906 C11.8487697,4.8714866 10.2031914,6.79321934 9.0711471,8.92679664 C10.5001521,9.30792769 12.0691258,9.48194286 13.672146,9.42898172 L13.672146,9.42898172 Z M11.8686301,3.29872993 C9.40499142,3.82266691 7.14090274,5.10981172 5.43290602,6.96439731 C5.95022286,7.55264424 6.75977169,8.07658122 7.78683949,8.48892151 C8.79026392,6.51517336 10.2249433,4.69368849 11.8686301,3.29872993 Z" id="形状结合" fill="#5A789D" fill-rule="nonzero"></path>
                <rect id="矩形" x="0" y="0" width="30" height="30"></rect>
            </g>
        </g>
    </g>
</svg>