<?xml version="1.0" encoding="UTF-8"?>
<svg width="30px" height="30px" viewBox="0 0 30 30" version="1.1" xmlns="http://www.w3.org/2000/svg" xmlns:xlink="http://www.w3.org/1999/xlink">
    <title>storage</title>
    <g id="页面-1" stroke="none" stroke-width="1" fill="none" fill-rule="evenodd">
        <g id="顶部菜单图标" transform="translate(-797.000000, -9.000000)">
            <g id="storage" transform="translate(797.000000, 9.000000)">
                <path d="M16.8500636,3.4 L17.0358304,3.40665801 C17.8977396,3.46720497 18.6836688,3.93711422 19.1437642,4.67725386 C19.6367235,5.47026063 19.6859662,6.46140102 19.2740383,7.29936523 L19.2740383,7.29936523 L19.185314,7.4497471 L20.8246407,7.4497471 L20.7816393,7.32691794 L20.7588929,7.15161347 C20.7213952,6.68372799 20.8680492,6.21683775 21.1718499,5.85295075 C21.5136258,5.44357771 22.0191794,5.20662332 22.5524676,5.20585134 L22.5524676,5.20585134 L23.5109256,5.20585145 L23.6876451,5.21457251 C24.1551756,5.26075767 24.5889314,5.48850184 24.892887,5.85285536 C25.2348372,6.26275307 25.37724,6.80326982 25.2816407,7.32844293 L25.2816407,7.32844293 L25.239449,7.4497471 L25.3795243,7.4513691 L25.5475721,7.46457962 C26.8235588,7.60709691 27.8048785,8.68766547 27.8060677,9.98934388 C27.8039972,11.1717909 26.9880333,12.1937482 25.8424585,12.4620844 C25.8196476,12.4674275 25.7967061,12.4724719 25.7736377,12.4772127 L25.7736377,12.4772127 L25.6900869,12.4984104 L25.6893476,25.208 L26.8347826,25.2086959 C27.2381906,25.2086959 27.5652174,25.5357227 27.5652174,25.9391307 C27.5652174,26.3425387 27.2381906,26.6695655 26.8347826,26.6695655 L3.2521739,26.6695655 C2.84876591,26.6695655 2.52173912,26.3425387 2.52173912,25.9391307 C2.52173912,25.5357227 2.84876591,25.2086959 3.2521739,25.2086959 L4.22034763,25.208 L4.22185119,12.5794271 L4.22185119,12.4984104 L4.13844094,12.4771987 L3.96366439,12.4349779 C2.87336242,12.1307145 2.10650848,11.1354923 2.10434763,9.98905187 C2.10434763,8.58730725 3.24190796,7.4497471 4.64384926,7.4497471 L4.64384926,7.4497471 L4.95281924,7.4497471 L4.92488173,7.32691803 L4.9021279,7.15152008 C4.86463525,6.68338688 5.01148871,6.21626786 5.3156178,5.8523239 C5.65776303,5.44288695 6.16377248,5.20613929 6.69734711,5.20585143 L6.69734711,5.20585143 L7.65416833,5.20585145 L7.8308989,5.2144392 C8.29846984,5.26026687 8.73235709,5.48764135 9.0365843,5.85170272 C9.37884008,6.26127196 9.52170179,6.80160122 9.42659781,7.32680637 L9.42659781,7.32680637 L9.37744024,7.4513691 L9.52927581,7.4497471 L10.7183929,7.4497471 L10.636377,7.29936511 L10.5551823,7.11764283 C10.2338514,6.32113354 10.3088332,5.41423088 10.7662092,4.67795944 C11.2587679,3.88505175 12.1252434,3.40202783 13.0586846,3.4 L13.0586846,3.4 L16.8500636,3.4 Z M24.313028,12.5270186 L5.5947826,12.5270186 L5.59565603,12.6313664 L5.59434763,25.208 L24.3123476,25.208 L24.313028,12.5270186 Z M15.1278809,14.5072585 L15.2584348,17.9638263 L18.4721037,17.9638263 L14.933127,24.0560587 L14.8514782,20.0706089 L11.4306593,20.0711036 L15.1278809,14.5072585 Z M25.2725181,8.82710013 L4.64384926,8.82701474 L4.51747514,8.83401129 C3.93639624,8.89778689 3.48432441,9.38964062 3.48334698,9.98734652 C3.48334698,10.6300663 4.00244361,11.149751 4.64384926,11.149751 L4.64384926,11.149751 L25.2682976,11.149751 L25.391851,11.1383054 C25.9590358,11.0556205 26.3877428,10.5704065 26.3877428,9.98838285 C26.3877428,9.36478606 25.8956046,8.85232287 25.2725181,8.82710013 L25.2725181,8.82710013 Z M7.65930027,6.58313245 L6.6990222,6.58311909 L6.61435006,6.59237602 C6.42297465,6.63279058 6.27935953,6.80048954 6.27611009,7.00263615 C6.27611009,7.23457813 6.46947627,7.4272389 6.6990222,7.4272389 L6.6990222,7.4272389 L7.6576306,7.4272389 L7.74243878,7.41752017 C7.93397219,7.37606226 8.07667171,7.20758311 8.07881949,7.00542183 C8.07512897,6.77249688 7.88944711,6.5868155 7.65930027,6.58313245 L7.65930027,6.58313245 Z M16.8502261,4.77726789 L13.058458,4.77726789 L12.9275634,4.79061528 C12.2832475,4.88823234 11.7985097,5.44132522 11.7985097,6.10225339 C11.7985097,6.80754869 12.3503412,7.38956522 13.0546374,7.4270911 L13.0546374,7.4270911 L16.8502261,7.4272389 L16.9813747,7.41389887 C17.6268976,7.3163316 18.1119057,6.76346773 18.1119057,6.10225339 C18.1119057,5.3969581 17.5600743,4.81494157 16.8502261,4.77726789 L16.8502261,4.77726789 Z M23.5125953,6.58313245 L22.5523165,6.58311909 L22.4678133,6.59276719 C22.2769236,6.63393059 22.1343588,6.80126514 22.1311361,7.00264362 C22.1311361,7.23472365 22.3229193,7.4272389 22.5523165,7.4272389 L22.5523165,7.4272389 L23.5109256,7.4272389 L23.5957337,7.41752017 C23.787267,7.37606228 23.9299661,7.20758315 23.9321139,7.00542183 C23.9284234,6.77249683 23.7427421,6.5868155 23.5125953,6.58313245 L23.5125953,6.58313245 Z" id="形状结合" fill="#FFFFFF" fill-rule="nonzero"></path>
                <rect id="矩形备份-13" x="0" y="0" width="30" height="30"></rect>
            </g>
        </g>
    </g>
</svg>