<?xml version="1.0" encoding="UTF-8"?>
<svg width="30px" height="30px" viewBox="0 0 30 30" version="1.1" xmlns="http://www.w3.org/2000/svg" xmlns:xlink="http://www.w3.org/1999/xlink">
    <title>照明 (9)</title>
    <g id="页面-1" stroke="none" stroke-width="1" fill="none" fill-rule="evenodd">
        <g id="顶部菜单图标" transform="translate(-1407.000000, -13.000000)" fill="#5A789D" fill-rule="nonzero">
            <g id="照明-(9)" transform="translate(1407.000000, 13.000000)">
                <path d="M17.1755,28.157 L12.8235,28.157 C12.3974123,28.157 12.052,28.5024123 12.052,28.9285 C12.052,29.3545877 12.3974123,29.7 12.8235,29.7 L17.1755,29.7 C17.6015877,29.7 17.947,29.3545877 17.947,28.9285 C17.947,28.5024123 17.6015877,28.157 17.1755,28.157 Z M15,6.72857143 C10.4318127,6.72857143 6.72857143,10.4318127 6.72857143,15 C6.72857143,17.8877917 8.22064553,20.5153093 10.6137513,22.0140686 L10.8645039,22.1650506 L11.0142857,22.251695 L11.0142857,24.6428571 C11.0142857,25.0333979 11.3045043,25.3561616 11.6810368,25.4072434 L11.7857143,25.4142857 L18.2142857,25.4142857 C18.6048265,25.4142857 18.9275901,25.1240671 18.978672,24.7475346 L18.9857143,24.6428571 L18.9857143,22.251695 L19.1354961,22.1650506 C21.6746786,20.6962079 23.2714286,17.9873707 23.2714286,15 C23.2714286,10.4318127 19.5681873,6.72857143 15,6.72857143 Z M15,8.27142857 C18.7160984,8.27142857 21.7285714,11.2839016 21.7285714,15 C21.7285714,17.34324 20.5219352,19.4756265 18.5815543,20.697551 L18.3629609,20.829538 L17.442,21.362 L17.4428571,23.8714286 L12.5571429,23.8714286 L12.557,21.362 L11.6370359,20.8295362 C9.64295526,19.6760149 8.3651019,17.5861183 8.27637013,15.2594567 L8.27142857,15 C8.27142857,11.2839016 11.2839016,8.27142857 15,8.27142857 Z M28.9214995,14.2275811 L26.7785005,14.2264189 C26.3517663,14.2261875 26.0055524,14.5717661 26.005,14.9985 C26.0044481,15.4248192 26.3496007,15.7708665 26.7759199,15.7714184 C26.7761134,15.7714186 26.776307,15.7714188 26.7765005,15.7714189 L28.9194995,15.7725811 C29.3462337,15.7728125 29.6924476,15.4272339 29.693,15.0005 C29.6935519,14.5741808 29.3483993,14.2281335 28.9220801,14.2275816 C28.9218866,14.2275814 28.921693,14.2275812 28.9214995,14.2275811 Z M3.2135,14.228 L1.0705,14.228 C0.644412316,14.228 0.299,14.5734123 0.299,14.9995 C0.299,15.4255877 0.644412316,15.771 1.0705,15.771 L3.2135,15.771 C3.63958768,15.771 3.985,15.4255877 3.985,14.9995 C3.985,14.5734123 3.63958768,14.228 3.2135,14.228 Z M15.0178004,11.0142737 C14.4920731,11.0119642 13.9719809,11.1136526 13.4871924,11.3125475 L13.294,11.399 L14.0544493,12.7356073 C14.7670917,12.4398598 15.5710597,12.4935131 16.2333111,12.8784266 C16.8955578,13.2633865 17.34005,13.9355146 17.4350505,14.6956104 L17.4334438,14.6999199 L18.973,14.701 L18.9602979,14.5499078 C18.7498813,12.6867697 17.2662788,11.2294567 15.4188854,11.0360579 L15.2195997,11.0202121 L15.0178004,11.0142737 Z M25.4415,4.7525 C25.1406065,4.45050328 24.6518673,4.44960897 24.3498706,4.75050251 C24.3496419,4.75073038 24.3494133,4.7509584 24.3491849,4.75118656 L22.8325645,6.26606369 C22.5306348,6.56764643 22.5301583,7.05682966 22.8315,7.359 C23.1325888,7.6609167 23.6214213,7.66158787 23.923338,7.36049909 C23.9234485,7.36038894 23.9235589,7.36027876 23.9236693,7.36016855 L25.4400802,5.84608166 C25.7422296,5.54439524 25.7428651,5.05496999 25.4415,4.7525 Z M4.5525,4.7525 C4.25122867,5.05377133 4.25122867,5.54222867 4.5525,5.8435 L6.0675,7.3585 C6.36877133,7.65977133 6.85722867,7.65977133 7.1585,7.3585 C7.45977133,7.05722867 7.45977133,6.56877133 7.1585,6.2675 L5.6435,4.7525 C5.34222867,4.45122867 4.85377133,4.45122867 4.5525,4.7525 Z M14.9995,0.3 C14.5734123,0.3 14.228,0.645412316 14.228,1.0715 L14.228,3.2135 C14.228,3.63958768 14.5734123,3.985 14.9995,3.985 C15.4255877,3.985 15.771,3.63958768 15.771,3.2135 L15.771,1.0715 C15.771,0.645412316 15.4255877,0.3 14.9995,0.3 Z" id="形状结合"></path>
            </g>
        </g>
    </g>
</svg>