<?xml version="1.0" encoding="UTF-8"?>
<svg width="18px" height="18px" viewBox="0 0 18 18" version="1.1" xmlns="http://www.w3.org/2000/svg" xmlns:xlink="http://www.w3.org/1999/xlink">
    <title>主题色彩-themeColor-line</title>
    <g id="页面-1" stroke="none" stroke-width="1" fill="none" fill-rule="evenodd">
        <g id="账号管理页面" transform="translate(-485.000000, -229.000000)">
            <g id="主题色彩-themeColor-line" transform="translate(485.000000, 229.000000)">
                <path d="M9.02228571,1.278 C6.87945781,1.278 5.0609009,2.03117343 3.54603716,3.54603716 C2.03117343,5.0609009 1.278,6.87945781 1.278,9.02228571 C1.278,11.1651136 2.03117343,12.9836705 3.54603716,14.4985343 C5.0609009,16.013398 6.87945781,16.7665714 9.02228571,16.7665714 C11.1651136,16.7665714 12.9836705,16.013398 14.4985343,14.4985343 C16.013398,12.9836705 16.7665714,11.1651136 16.7665714,9.02228571 C16.7665714,7.71407631 16.2664876,6.84855253 15.2396191,6.36662124 C14.9364201,6.22397127 14.519136,6.13125085 13.9942047,6.09145844 L13.7923221,6.07902315 L13.6165978,6.07246183 C12.7784853,6.05040624 12.1889601,5.79945609 11.8658142,5.31034329 C11.5342231,4.80681615 11.4118872,4.19894053 11.4970774,3.49620717 L11.5204198,3.33235838 L11.5504186,3.16889762 C11.6912099,2.47262064 11.6055711,2.00248814 11.309106,1.73544631 C10.9801476,1.44047624 10.19724,1.278 9.02228571,1.278 Z M8.80016737,2.24758005 L9.02307294,2.24439068 L9.46726017,2.24853801 L9.72951355,2.25641259 C9.93239285,2.26472333 10.0965341,2.27745738 10.2251246,2.29500373 L10.2980382,2.30611212 L10.3622635,2.31839462 L10.6315593,2.37624333 L10.7083368,2.39517332 L10.6921675,2.46501453 L10.6479882,2.73688743 L10.6033761,2.97592087 C10.3766983,4.08908343 10.5285191,5.03773247 11.0583896,5.84179215 C11.5139619,6.53323238 12.2330101,6.92348612 13.2394859,7.01828384 L13.4200878,7.031947 L13.5910404,7.03911885 C14.1671817,7.05502973 14.5682109,7.1190745 14.8296927,7.24173325 C15.4715343,7.54298625 15.8001818,8.15503414 15.8001818,9.02228571 C15.8001818,10.8897032 15.1355478,12.4940684 13.8148081,13.8148081 C12.4940684,15.1355478 10.8897032,15.8001818 9.02228571,15.8001818 C7.15486818,15.8001818 5.55050305,15.1355478 4.22976335,13.8148081 C2.90902366,12.4940684 2.24438962,10.8897032 2.24438962,9.02228571 C2.24438962,7.15486818 2.90902366,5.55050305 4.22976336,4.22976335 C5.49774085,2.96178587 7.02706965,2.2986057 8.80016737,2.24758005 Z M7.39648207,11.5592509 C6.97077984,11.5592509 6.62567999,11.9043508 6.62567999,12.330053 C6.62567999,12.7557552 6.97077984,13.1008551 7.39648207,13.1008551 C7.82218431,13.1008551 8.16728416,12.7557552 8.16728416,12.330053 C8.16728416,11.9043508 7.82218431,11.5592509 7.39648207,11.5592509 Z M5.11944935,8.46534545 C4.69374711,8.46534545 4.34864726,8.8104453 4.34864726,9.23614754 C4.34864726,9.66184977 4.69374711,10.0069496 5.11944935,10.0069496 C5.39483043,10.0069496 5.64929303,9.86003558 5.78698357,9.62154859 C5.9246741,9.38306159 5.9246741,9.08923349 5.78698357,8.85074649 C5.64929303,8.6122595 5.39483043,8.46534545 5.11944935,8.46534545 Z M7.53262753,4.66915636 C6.91299503,4.66915636 6.41068364,5.17146775 6.41068364,5.79110026 C6.41068364,6.41073276 6.91299503,6.91304415 7.53262753,6.91304415 C8.15226004,6.91304415 8.65457143,6.41073276 8.65457143,5.79110026 C8.65457143,5.17146775 8.15226004,4.66915636 7.53262753,4.66915636 Z" id="形状" fill="#606266" fill-rule="nonzero"></path>
                <rect id="矩形" x="0" y="0" width="18" height="18"></rect>
            </g>
        </g>
    </g>
</svg>