<?xml version="1.0" encoding="UTF-8"?>
<svg width="30px" height="30px" viewBox="0 0 30 30" version="1.1" xmlns="http://www.w3.org/2000/svg" xmlns:xlink="http://www.w3.org/1999/xlink">
    <title>user备份</title>
    <g id="页面-1" stroke="none" stroke-width="1" fill="none" fill-rule="evenodd">
        <g id="账号管理页面" transform="translate(-507.000000, -67.000000)">
            <g id="user备份" transform="translate(507.000000, 67.000000)">
                <path d="M15.0014342,2 C22.1762119,2.01080391 27.9896881,7.82467889 28,14.9998098 C28,20.2578234 24.8326016,24.9980823 19.974796,27.0101536 C15.1169904,29.022225 9.52547035,27.9098529 5.80762085,24.1917484 C2.08977135,20.4736439 0.977782887,14.8820475 2.99018745,10.02438 C4.96152254,5.26584851 9.55071557,2.12961149 14.6798279,2.00392273 L15.0014342,2 Z M6.90180472,6.9011554 C3.62650349,10.1767016 2.64689464,15.1027313 4.41978123,19.3821791 C6.19266782,23.661627 10.3688979,26.4516994 15.0007901,26.4513532 C21.3228534,26.4442717 26.4459996,21.3207424 26.452608,14.998935 C26.452608,10.3667863 23.6622233,6.19076496 19.3826428,4.41819844 C15.1030623,2.64563192 10.1771059,3.62560919 6.90180472,6.9011554 Z M15.0015023,6.78080646 C17.0792823,6.78080646 18.9123314,8.14045877 19.5152406,10.1288426 C20.0526911,11.9013447 19.4997561,13.8012513 18.1493725,15.010323 L17.972833,15.1599207 L18.0677325,15.2037224 C20.3190482,16.2943765 21.8177741,18.5015764 22.0091789,20.9870553 L22.0246588,21.2543833 L22.029982,21.5236118 L22.0292202,21.5676438 L22.0181131,21.6983235 C21.9865521,21.895579 21.8932259,22.0781303 21.7510635,22.2194097 C21.5725368,22.3968276 21.3306174,22.4957141 21.0804399,22.4941821 C20.538289,22.4941821 20.3209701,22.1197877 20.2880166,21.6602403 L20.2840488,21.5251214 C20.2249532,18.6318911 17.8936604,16.3005983 15.0104433,16.2415028 C12.193253,16.2989905 9.90845768,18.5109217 9.73607253,21.2939896 L9.72688064,21.5402341 C9.72688064,22.0960784 9.45210012,22.4941821 8.93247302,22.4941821 C8.67927818,22.4944582 8.43635123,22.394093 8.25720868,22.2151714 C8.10791809,22.0660648 8.01313134,21.8725951 7.98568272,21.6657201 L7.9773968,21.5235837 C7.97769696,18.9028153 9.43342777,16.5243155 11.711825,15.3172556 L11.9504299,15.1966041 L12.0291365,15.1599207 C10.6671789,14.0539603 10.0310681,12.2820361 10.3776042,10.5659112 L10.4283983,10.3424446 L10.4877639,10.1288426 C11.0906731,8.14045877 12.9237223,6.78080646 15.0015023,6.78080646 Z M15.00019,8.36522437 C13.2691715,8.36522437 11.8659038,9.7684921 11.8659038,11.4995106 C11.8659038,13.230529 13.2691715,14.6337967 15.0001265,14.6337967 C16.7315775,14.6333487 18.1344762,13.2303377 18.1344762,11.4995106 C18.1344762,9.7684921 16.7312085,8.36522437 15.00019,8.36522437 Z" id="路径_88" fill="#FFFFFF" fill-rule="nonzero"></path>
                <rect id="矩形_46" x="0" y="0" width="30" height="30"></rect>
            </g>
        </g>
    </g>
</svg>