<svg xmlns="http://www.w3.org/2000/svg" width="36" height="36" viewBox="0 0 36 36">
  <g id="组_49" data-name="组 49" transform="translate(-894 -71)">
    <g id="组_44" data-name="组 44" transform="translate(216)">
      <rect id="矩形_46" data-name="矩形 46" width="36" height="36" transform="translate(678 71)" fill="none"/>
    </g>
    <path id="路径_88" data-name="路径 88" d="M21.661,7.083A14.579,14.579,0,1,0,36.239,21.662,14.6,14.6,0,0,0,21.661,7.083Zm0,27.949a13.371,13.371,0,1,1,13.37-13.371A13.385,13.385,0,0,1,21.661,35.032ZM24.5,21.909h0a5.111,5.111,0,1,0-5.677,0,7.75,7.75,0,0,0-4.91,7.21c0,.007,0,.013,0,.019s0,0,0,0a.81.81,0,0,0,.811.81c.447,0,.628-.362.628-.81,0-.01,0-.019,0-.029a6.447,6.447,0,0,1,6.314-6.308,6.447,6.447,0,0,1,6.314,6.314s-.042.833.63.833a.8.8,0,0,0,.805-.8s0,0,0-.006,0-.015,0-.023A7.754,7.754,0,0,0,24.5,21.909Zm-2.84-.385a3.863,3.863,0,1,1,3.863-3.863A3.863,3.863,0,0,1,21.661,21.524Z" transform="translate(889.918 66.917)"/>
  </g>
</svg>
