<svg xmlns="http://www.w3.org/2000/svg" width="36" height="36" viewBox="0 0 36 36">
  <g id="组_25" data-name="组 25" transform="translate(-499 -71)">
    <rect id="矩形_13" data-name="矩形 13" width="36" height="36" transform="translate(499 71)" fill="none"/>
    <g id="组_9" data-name="组 9">
      <path id="联合_15" data-name="联合 15" d="M24.5,28.526v-3h5v3Zm-12,0v-3h5v3Zm-12,0v-3h5v3Zm25.518-3.293v-2.3H15.707v2.3H14.3v-2.3H3.987v2.3h-1.4v-3a.7.7,0,0,1,.7-.7H14.294v-1.3h1.4v1.3H26.717a.7.7,0,0,1,.7.7v3ZM11.492,19.225a.4.4,0,0,1-.4-.4v-1H18.9v1a.4.4,0,0,1-.4.4Zm-.4-2.4V14.359a7.708,7.708,0,1,1,7.808,0v2.464ZM8.69,7.71a6.282,6.282,0,0,0,3.423,5.608l.382.2v1.9h5v-1.9l.382-.2A6.306,6.306,0,1,0,8.69,7.71Z" transform="translate(502 73.973)"/>
    </g>
  </g>
</svg>
