<svg xmlns="http://www.w3.org/2000/svg" width="36" height="36" viewBox="0 0 36 36">
  <g id="组_24" data-name="组 24" transform="translate(-450 -71)">
    <rect id="矩形_11" data-name="矩形 11" width="36" height="36" transform="translate(450 71)" fill="none"/>
    <path id="路径_27" data-name="路径 27" d="M75.01,21.017l-4.667-2.6,4.4-1.325a.674.674,0,0,0,.46-.851.707.707,0,0,0-.879-.444l-5.631,1.7L63.515,14.61,68.6,11.778,74.32,13.5a.7.7,0,0,0,.879-.445.674.674,0,0,0-.46-.849l-4.487-1.353,4.724-2.634a.665.665,0,0,0,.257-.926.717.717,0,0,0-.96-.247l-4.667,2.6,1.008-4.338a.678.678,0,0,0-.531-.81.7.7,0,0,0-.84.513l-1.292,5.556-5.137,2.864V7.782l4.374-3.889a.661.661,0,0,0,.04-.958.72.72,0,0,0-.993-.039L62.814,5.937V.686a.7.7,0,0,0-1.4,0V5.94L57.986,2.895a.72.72,0,0,0-.993.04.661.661,0,0,0,.042.958l4.374,3.889v5.655L56.29,10.585,55,5.027a.7.7,0,0,0-.838-.515.678.678,0,0,0-.533.809L54.636,9.66,49.949,7.047a.717.717,0,0,0-.96.248.665.665,0,0,0,.257.926l4.744,2.645L49.5,12.219a.674.674,0,0,0-.46.851.7.7,0,0,0,.879.444l5.723-1.725,5.062,2.82-5.153,2.873-5.631-1.7a.707.707,0,0,0-.88.445.674.674,0,0,0,.46.849L53.9,18.4l-4.688,2.613a.665.665,0,0,0-.257.926.718.718,0,0,0,.96.248l4.743-2.643-1.028,4.427a.677.677,0,0,0,.53.809A.7.7,0,0,0,55,24.27l1.313-5.645,5.1-2.841v5.755l-4.376,3.89a.661.661,0,0,0-.04.958.722.722,0,0,0,.993.04l3.423-3.045v5.239a.7.7,0,0,0,1.4,0V23.384l3.422,3.044a.72.72,0,0,0,.992-.04.661.661,0,0,0-.039-.957l-4.374-3.889V15.786l5.116,2.851,1.313,5.646a.7.7,0,0,0,.84.513.678.678,0,0,0,.531-.809l-1.029-4.429,4.724,2.632a.718.718,0,0,0,.958-.248.665.665,0,0,0-.257-.926Z" transform="translate(405.889 74.347)"/>
  </g>
</svg>
