<?xml version="1.0" encoding="UTF-8"?>
<svg width="204px" height="64px" viewBox="0 0 204 64" version="1.1" xmlns="http://www.w3.org/2000/svg" xmlns:xlink="http://www.w3.org/1999/xlink">
    <title>编组 59备份 2</title>
    <defs>
        <path d="M32.7030942,0.223633989 L37.4791894,0.223633989 C38.107623,0.223633989 38.6103699,0.726380859 38.6103699,1.35481441 L38.6103699,10.9698482 L59.2229913,10.9698482 C59.7257381,10.9698482 60.1027983,11.3469083 60.1027983,11.8496552 L60.1027983,27.8118681 C60.1027983,28.4403017 59.6000515,28.9430485 58.9716179,28.9430485 L54.1955227,28.9430485 C53.5670892,28.9430485 53.0643423,28.4403017 53.0643423,27.8118681 L53.0643423,16.6885938 L38.7360567,16.6885938 L38.7360567,27.8118681 C38.7360567,28.4403017 38.2333098,28.9430485 37.6048763,28.9430485 L32.8287811,28.9430485 C32.2003475,28.9430485 31.6976006,28.4403017 31.6976005,27.8118681 L31.6976005,1.41765775 C31.5090705,0.789224201 32.0118173,0.223633989 32.7030942,0.223633989 M21.76835,9.83866773 C21.76835,10.4671013 22.2710969,10.9698482 22.8995305,10.9698482 L27.6756257,10.9698482 C28.3040592,10.9698482 28.8068061,10.4671013 28.8068061,9.83866773 L28.8068061,7.57630688 C28.8068061,3.55433192 25.4132648,0.097947306 21.077073,0.097947306 L7.75428115,0.097947306 C3.6066195,0.097947306 0.0245482085,3.36580189 0.0245482085,7.57630688 L0.0245482085,21.464689 C0.0245482085,25.4866639 3.41808948,28.9430485 7.75428115,28.9430485 L21.2656032,28.9430485 C25.4132648,28.9430485 28.9953361,25.6751939 28.9953361,21.464689 L28.9953361,17.9454609 C28.9953361,17.3170273 28.4925892,16.8142804 27.8641557,16.8142804 L23.0880605,16.8142804 C22.4596269,16.8142804 21.9568801,17.3170273 21.9568801,17.9454609 L21.9568801,20.7105686 C21.9568801,22.0931225 20.8256996,23.0986161 19.5688325,23.0986162 L9.76526863,23.0986162 C8.3827147,23.0986162 7.3772211,21.9674358 7.3772211,20.7105686 L7.3772211,8.33042712 C7.3772211,6.94787319 8.50840153,5.94237959 9.76526863,5.94237959 L19.3803024,5.94237959 C20.6371695,5.94237959 21.7683499,7.07356001 21.76835,8.33042712 L21.76835,9.83866773 L21.76835,9.83866773 Z M65.0674236,0.223633989 L67.9582181,0.223633989 C69.5921454,0.223633989 71.100386,0.977754225 72.1058796,2.23462147 L85.3658281,18.322521 L85.3658281,1.35481441 C85.3658281,0.726380859 85.868575,0.223633989 86.4970085,0.223633989 L91.2731037,0.223633989 C91.9015373,0.223633989 92.4042843,0.726380859 92.4042843,1.35481441 L92.4042843,27.8118681 C92.4042843,28.4403017 91.9015374,28.9430485 91.2731037,28.9430485 L88.3823093,28.9430485 C86.748382,28.9430485 85.2401414,28.1889283 84.2346477,26.932061 L70.9746992,11.0326915 L70.9746992,28.0003981 C70.9746992,28.6288317 70.4719523,29.1315786 69.8435188,29.1315786 L65.0674236,29.1315786 C64.43899,29.1315786 63.9362431,28.6288317 63.9362431,28.0003981 L63.9362431,1.41765775 C63.8105564,0.789224201 64.43899,0.223633989 65.0674236,0.223633989 M123.700276,1.41765775 L123.700276,4.81119916 C123.700276,5.43963272 123.19753,5.94237959 122.569096,5.94237959 L112.954062,5.94237959 L112.954062,27.8118681 C112.954062,28.4403017 112.451315,28.9430485 111.822882,28.9430485 L107.046787,28.9430485 C106.418353,28.9430485 105.915606,28.4403017 105.915606,27.8118681 L105.915606,5.94237959 L96.3005724,5.94237959 C95.6721389,5.94237959 95.169392,5.43963272 95.169392,4.81119916 L95.169392,1.41765775 C95.169392,0.789224201 95.6721389,0.28647733 96.3005724,0.28647733 L122.631939,0.28647733 C123.19753,0.223633989 123.700276,0.789224201 123.700276,1.41765775" id="path-1"></path>
        <filter x="-2.8%" y="-8.6%" width="105.7%" height="124.1%" filterUnits="objectBoundingBox" id="filter-2">
            <feOffset dx="0" dy="1" in="SourceAlpha" result="shadowOffsetOuter1"></feOffset>
            <feGaussianBlur stdDeviation="1" in="shadowOffsetOuter1" result="shadowBlurOuter1"></feGaussianBlur>
            <feColorMatrix values="0 0 0 0 0   0 0 0 0 0   0 0 0 0 0  0 0 0 0.15 0" type="matrix" in="shadowBlurOuter1"></feColorMatrix>
        </filter>
    </defs>
    <g id="页面-1" stroke="none" stroke-width="1" fill="none" fill-rule="evenodd">
        <g id="顶部菜单图标" transform="translate(4.000000, -3.000000)">
            <g id="编组-59备份-2" transform="translate(-4.000000, 3.000000)">
                <rect id="矩形" opacity="0.5" x="0" y="0" width="204" height="64"></rect>
                <g id="正泰CHNT" transform="translate(40.000000, 17.000000)" fill-rule="nonzero">
                    <g id="形状">
                        <use fill="black" fill-opacity="1" filter="url(#filter-2)" xlink:href="#path-1"></use>
                        <use fill="#FFFFFF" xlink:href="#path-1"></use>
                    </g>
                    <path d="M54.1955227,0.223633989 L58.9716179,0.223633989 C59.6000515,0.223633989 60.1027983,0.726380859 60.1027983,1.35481441 L60.1027983,6.13090961 C60.1027983,6.75934317 59.6000515,7.26209004 58.9716179,7.26209004 L54.1955227,7.26209004 C53.5670892,7.26209004 53.0643423,6.75934317 53.0643423,6.13090961 L53.0643423,1.35481441 C53.0014989,0.789224201 53.5670892,0.223633989 54.1955227,0.223633989" id="路径" fill="#D71718"></path>
                </g>
            </g>
        </g>
    </g>
</svg>