<?xml version="1.0" encoding="UTF-8"?>
<svg width="18px" height="18px" viewBox="0 0 18 18" version="1.1" xmlns="http://www.w3.org/2000/svg" xmlns:xlink="http://www.w3.org/1999/xlink">
    <title>空调 (13)</title>
    <g id="页面-1" stroke="none" stroke-width="1" fill="none" fill-rule="evenodd">
        <g id="图标组1" transform="translate(-3965.000000, -299.000000)" fill="#FFFFFF" fill-rule="nonzero">
            <g id="空调-(13)" transform="translate(3965.000000, 299.000000)">
                <path d="M4.06001835,12.7285829 C4.27163373,12.5700532 4.63804742,12.6224837 4.79668171,12.8338748 C4.95552386,13.045422 4.90320872,13.4118679 4.69054653,13.5714049 C4.65512388,13.59502 4.6008459,13.6417542 4.54648256,13.7096928 C4.47876885,13.7943155 4.43148743,13.8887982 4.41207883,13.9925577 L4.40223679,14.1004084 L4.40539559,14.1361443 C4.41469954,14.1806847 4.44792267,14.2162841 4.54766956,14.2848088 L4.72302668,14.547994 C4.79632182,14.6652965 4.85433838,14.7752718 4.90104357,14.8925732 C5.05151073,15.4434827 4.85899454,16.0978789 4.34433514,16.817785 C4.20022617,16.9618939 4.04758217,17.0255393 3.87579172,17.0255393 C3.83303182,17.0255393 3.789688,17.0174419 3.74152553,17.0013814 L3.63801959,16.9589648 L3.5599189,16.9202459 C3.34847173,16.7615696 3.29612364,16.3947728 3.45581147,16.1825184 C3.7374745,15.8442904 3.89578159,15.5329298 3.8684862,15.2879172 L3.84942873,15.1992247 C3.84942873,15.1632246 3.83486489,15.1339649 3.79972513,15.091651 L3.76674929,15.053214 C3.73675251,15.0181374 3.71791519,14.9921509 3.70485726,14.9651849 L3.6110932,14.8388135 C3.43682225,14.5951046 3.34969039,14.38035 3.34969039,14.0993879 C3.34969039,13.4456158 3.76938923,12.8244938 4.06001835,12.7285829 Z M8.65939826,12.7285829 C8.87101365,12.5700532 9.23742733,12.6224837 9.39606164,12.8338748 C9.55464798,13.0455657 9.5024595,13.4119649 9.28991486,13.5714126 C9.25444969,13.595029 9.20010789,13.6417646 9.14568143,13.7097043 C9.07789096,13.794326 9.03055644,13.8888064 9.01112607,13.9925621 L9.00127301,14.1004083 L9.00443911,14.1361367 C9.01143348,14.1695366 9.03191532,14.1979147 9.08390835,14.2389435 L9.14707266,14.2848436 C9.12212579,14.2472513 9.27872105,14.4782735 9.32291878,14.5490197 C9.39606068,14.6660961 9.45388539,14.7756898 9.50042754,14.892588 C9.65060662,15.4437039 9.45815221,16.0981901 8.94371508,16.817785 C8.7996061,16.9618939 8.6469621,17.0255393 8.47517164,17.0255393 C8.42522056,17.0255393 8.37368009,17.0142372 8.31588107,16.9925377 L8.22828127,16.9546456 L8.15931623,16.920259 C7.94763267,16.7616782 7.89540739,16.3949006 8.05519141,16.1825184 C8.37206231,15.8020118 8.53281086,15.4555094 8.44880865,15.1992247 C8.44880865,15.1563693 8.43880688,15.1238413 8.41592306,15.089397 L8.37889761,15.0425701 C8.36221738,15.024089 8.33926466,15.0005149 8.30423719,14.9651849 L8.21004074,14.8382584 C8.03583185,14.594677 7.94872662,14.3800689 7.94872662,14.0993879 C7.94872662,13.4454994 8.36857208,12.8243313 8.65939826,12.7285829 Z M13.2587608,12.7285959 C13.470054,12.5700351 13.8368185,12.6224987 13.9954416,12.8338748 C14.1539844,13.0455076 14.1015539,13.4119213 13.8889627,13.5714049 C13.85354,13.59502 13.7992621,13.6417542 13.7448987,13.7096928 C13.677185,13.7943155 13.6299036,13.8887982 13.610495,13.9925577 L13.6006529,14.1004083 L13.603819,14.1361367 C13.6108134,14.1695366 13.6312952,14.1979147 13.6832883,14.2389435 L13.7464526,14.2848436 C13.7215057,14.2472512 13.878101,14.4782736 13.9222987,14.5490198 C13.9954406,14.6660961 14.0532653,14.7756898 14.0998075,14.892588 C14.2499257,15.4434805 14.0574132,16.0978642 13.5430736,16.8178063 C13.3985452,16.962004 13.2461652,17.0255393 13.0742079,17.0255393 C13.0213314,17.0255393 12.9755364,17.0163209 12.9143476,16.9924957 L12.7586962,16.920259 C12.5470126,16.7616782 12.4947873,16.3949006 12.6545599,16.1825322 C12.9715413,15.8013686 13.1321429,15.4553659 13.0481886,15.1992247 C13.0481886,15.1563576 13.0381805,15.1238368 13.015272,15.0894143 L12.9780616,15.0424712 C12.9613054,15.0239551 12.9382834,15.0003779 12.903256,14.9651617 L12.8087018,14.8374985 C12.6349751,14.5940902 12.5481065,14.3796831 12.5481065,14.0993879 C12.5481065,13.4454994 12.967952,12.8243313 13.2587608,12.7285959 Z M16.4737346,0.975 C17.2874075,0.975 17.9214468,1.56117614 17.9932242,2.35090022 L18,2.5012654 L18,10.2017624 C17.9506834,10.9923894 17.3414661,11.6453109 16.5702938,11.7193895 L16.4238983,11.7263882 L1.5262654,11.7263882 C0.71259247,11.7263882 0.0785532131,11.1402121 0.00677583659,10.350488 L0,10.2001228 L0,2.5012654 C0,1.68759247 0.586176144,1.05355321 1.37590022,0.981775837 L1.5262654,0.975 L16.4737346,0.975 Z M1.05241039,7.79984826 L1.05241039,10.2001228 C1.05241039,10.4538911 1.20127105,10.6308123 1.43482928,10.6669952 L1.5262654,10.6738419 L16.4737346,10.6738419 C16.7275029,10.6738419 16.9044241,10.5251172 16.940607,10.291559 L16.9474537,10.2001228 L16.9474537,7.82621273 L1.05241039,7.79984826 Z M16.4740783,2.02754635 L1.5262654,2.02754635 C1.27249709,2.02754635 1.09557591,2.17627105 1.05939303,2.40982986 L1.05254635,2.50126623 L1.02604812,6.77380234 L16.9474537,6.80059609 L16.9474537,2.5012654 C16.9474537,2.21582228 16.7592702,2.02754635 16.4740783,2.02754635 Z M15.5240943,2.92480439 C15.8387034,2.92480439 16.0505393,3.13664031 16.0505393,3.45124941 C16.0505393,3.71616177 15.8573209,3.92580382 15.616394,3.96912042 L15.5240943,3.97735074 L11.6746656,3.97735074 C11.3601085,3.97735074 11.1482205,3.76556681 11.1482205,3.45124941 C11.1482205,3.17159688 11.3155971,2.97314784 11.5737519,2.93250056 L11.6746656,2.92480439 L15.5240943,2.92480439 Z" id="形状结合"></path>
            </g>
        </g>
    </g>
</svg>