<?xml version="1.0" encoding="UTF-8"?>
<svg width="18px" height="18px" viewBox="0 0 18 18" version="1.1" xmlns="http://www.w3.org/2000/svg" xmlns:xlink="http://www.w3.org/1999/xlink">
    <title>形状结合 2</title>
    <g id="页面-1" stroke="none" stroke-width="1" fill="none" fill-rule="evenodd">
        <g id="图标组1" transform="translate(-3964.000000, -199.000000)" fill="#FFFFFF" fill-rule="nonzero">
            <g id="形状结合-2" transform="translate(3964.000000, 199.000000)">
                <path d="M9.98019906,2.06057393e-13 C11.0263628,2.06057393e-13 11.9040975,0.721130664 12.1434375,1.69342631 L13.5376254,1.69355437 C14.4763507,1.69418492 15.2372191,2.45523512 15.2376253,3.39396057 L15.2375305,5.73531171 C15.4408259,5.85600712 15.6315499,5.98991802 15.8097027,6.13704442 L15.9930551,6.27687492 C16.2750634,6.50279925 16.5337986,6.75663293 16.765205,7.03457508 L16.9335723,7.24749265 L17.0913111,7.46909457 C17.3192591,7.80664223 17.5073817,8.16943337 17.6507709,8.5472024 C17.8691825,9.11691734 17.9870344,9.72022384 17.9991035,10.3316117 C18.0178189,11.3513136 17.743155,12.3549211 17.2068108,13.2245909 C17.0464696,13.483466 16.8647201,13.7282329 16.6635567,13.9563566 L16.455996,14.1788388 L16.1884156,14.4491245 L16.2035443,14.5528045 C16.2674947,15.2160823 16.0860851,15.8775798 15.6965755,16.4146901 L15.5852141,16.5579987 C15.3243917,16.8705584 14.9973554,17.1212356 14.6271083,17.2921976 C14.4658469,17.3665161 14.2979878,17.4255885 14.1249533,17.4688352 C13.8610628,17.5345631 13.5889038,17.5609107 13.3231207,17.5473033 C13.0514129,17.5350279 12.7830177,17.482607 12.5324976,17.3937931 C12.3181308,17.3193339 12.113893,17.2184163 11.928813,17.0961994 C11.7380538,16.9716799 11.5638472,16.8234832 11.4127066,16.6577192 C11.2617059,16.4932936 11.1311123,16.311236 11.02346,16.1149494 C10.9675548,16.0128605 10.9184758,15.9075286 10.8764179,15.7996162 L6.03712744,15.7982335 L5.14894766,17.5505934 L1.16540604,17.5505934 L2.49326569,14.9427879 L2.4231729,14.899617 C1.5772217,14.3478034 0.907826375,13.5697047 0.488351,12.6592881 L0.388731278,12.4289818 L0.299779624,12.1934884 C0.144593491,11.7533299 0.0487014928,11.2944689 0.014755149,10.830675 C-0.0376005125,10.1318436 0.04967422,9.4295809 0.271787128,8.76393968 C0.419644288,8.32222952 0.62429895,7.9016159 0.882054542,7.51048151 C1.18305759,7.05636712 1.55078711,6.65021457 1.97523019,6.30377467 C2.21639439,6.10818114 2.47355058,5.9331753 2.74693919,5.77894334 C3.15524623,5.55044095 3.59092091,5.37472039 4.04629772,5.25527144 C4.22772171,5.20825104 4.4112362,5.17050055 4.59616175,5.14211112 L4.87452342,5.10655914 L5.03019665,5.09447005 L6.237,5.094 L6.23756914,4.44841674 C5.09058511,4.3575995 4.18811925,3.39805235 4.18811925,2.227723 C4.18811925,1.05087849 5.10066104,0.087169542 6.25674737,0.00559342238 L6.41584225,2.06057393e-13 L9.98019906,2.06057393e-13 Z M8.69575939,6.05805138 L5.43555811,6.05805138 L5.20436888,6.06403162 C4.89656523,6.07979978 4.59094772,6.12669592 4.29221468,6.2041198 C3.91990768,6.30178246 3.56151161,6.44633426 3.22562879,6.63430562 C3.00296047,6.75992923 2.79122949,6.90402126 2.59266561,7.06506427 C2.24690461,7.34728715 1.945656,7.68001238 1.69907055,8.05202855 C1.48951058,8.37003311 1.32218224,8.71393232 1.20129229,9.07508035 C1.02065093,9.61643827 0.94957716,10.1883387 0.99221395,10.7574449 C1.01993293,11.136141 1.0979487,11.5094609 1.22420498,11.8675649 C1.54292899,12.775582 2.15268394,13.5528786 2.95869589,14.0786399 C3.15964949,14.2105996 3.3707191,14.3262195 3.58986225,14.4244499 L3.81162093,14.5168451 L2.76508364,16.5703953 L4.54711841,16.5703953 L5.43613092,14.8181471 L10.782808,14.8181471 L10.7902273,14.6252951 C10.809774,14.3689863 10.8678018,14.1167006 10.9626727,13.8770082 C11.147736,13.4057268 11.4654988,12.9982264 11.877462,12.7038782 C12.7874014,12.0489088 14.0073281,12.0240635 14.9431804,12.6414411 C15.1240303,12.759943 15.2894988,12.9003987 15.4358033,13.0595978 C15.5170199,13.1477853 15.5921164,13.2413273 15.6605986,13.3395637 L15.7582995,13.4903564 L15.8259076,13.4203267 C16.0319392,13.2021872 16.2154208,12.9636924 16.3735053,12.7084608 C16.8102608,12.000269 17.034339,11.1814991 17.0190705,10.3495989 C17.0092665,9.85299636 16.9133273,9.3618652 16.7355259,8.89807979 C16.6178168,8.58797912 16.4646195,8.29254083 16.2789905,8.01765951 C15.9516716,7.53231552 15.5314734,7.11770969 15.0435289,6.79729566 L14.8303354,6.66581059 L14.8066339,6.64963999 C14.3778397,6.35709098 13.8820761,6.18047807 13.3674537,6.13503902 L13.1458869,6.12364062 L8.69575939,6.05805138 Z M13.4550009,13.0658988 C13.3090792,13.066348 13.1637216,13.084037 13.021951,13.118598 C12.8236012,13.1669571 12.6350618,13.2491161 12.4645998,13.3614725 C12.0743199,13.618002 11.8017666,14.0189006 11.7067624,14.4761751 C11.6787566,14.616978 11.6679849,14.7606651 11.6746846,14.9040697 C11.6823167,15.0622152 11.7118135,15.2180406 11.7619525,15.3672066 C11.7942818,15.4632111 11.8346984,15.5555986 11.8831902,15.6441497 C11.9525963,15.7707002 12.0370297,15.8884069 12.134657,15.9947139 C12.2323369,16.1018389 12.3432014,16.1961507 12.4645998,16.2753944 C12.5859273,16.355502 12.7167768,16.4201571 12.8541156,16.467861 C13.0193146,16.5264133 13.1922699,16.5601937 13.3673599,16.568104 C13.4257264,16.5710884 13.4841331,16.5711907 13.5423691,16.5684311 L13.7163544,16.5515877 L13.8880509,16.5176961 C14.0010178,16.4894619 14.1110962,16.4507235 14.216848,16.401987 C14.4545484,16.2922284 14.6648801,16.1310067 14.8326267,15.9299855 C15.1302446,15.5721209 15.2725401,15.1101761 15.2278706,14.6468747 C15.2054391,14.4172794 15.1368568,14.1945818 15.0262389,13.9921444 C14.9569927,13.865636 14.8727541,13.7479328 14.7753449,13.6415802 C14.5780621,13.4268567 14.330695,13.2643068 14.0553135,13.1684331 C13.9179017,13.1195515 13.7749311,13.0879941 13.6297102,13.0744911 C13.5716422,13.068869 13.5133404,13.0660017 13.4550009,13.0658988 Z M4.90095722,7.75247605 C4.97297067,7.75341917 5.04500533,7.77108434 5.11003554,7.80460244 C5.13609224,7.81749571 5.16051469,7.83345683 5.18278335,7.85214627 C5.2855144,7.9342542 5.34536737,8.05859664 5.34546347,8.19010851 C5.34515482,8.23336146 5.33879207,8.27635821 5.32656049,8.31784678 C5.31106384,8.36577992 5.28784578,8.41086165 5.25782241,8.45131322 C5.20098578,8.52771884 5.12072164,8.58344107 5.02926829,8.60998362 C4.98727192,8.6225782 4.94365578,8.62894693 4.89981158,8.62888659 C4.75989091,8.62940382 4.62084937,8.65103251 4.48738309,8.69304215 C4.39230998,8.72289984 4.30100771,8.76364948 4.21529485,8.81447941 C4.14655575,8.8540799 4.08172798,8.90011145 4.02168258,8.95195558 C3.85544843,9.09371312 3.72743103,9.27490698 3.6493513,9.47894754 C3.61435773,9.57100601 3.58976481,9.66668783 3.57603069,9.76421058 L3.5634287,9.94292959 L3.55082672,10.0425998 C3.51262287,10.1940434 3.39641098,10.313532 3.2460879,10.3559309 C3.22057099,10.364041 3.19426473,10.3694175 3.16761192,10.3719698 C3.1409385,10.3741935 3.11414354,10.3745763 3.08741749,10.3731154 C3.02066077,10.3678305 2.95581235,10.3482978 2.89724214,10.3158337 C2.86826315,10.3001001 2.84132945,10.2808617 2.8170477,10.258552 C2.76312701,10.2089811 2.7220446,10.1470626 2.69732887,10.0781145 C2.6822832,10.0345898 2.67416489,9.9889727 2.6732676,9.94292959 C2.67267863,9.32203892 2.93914718,8.73088355 3.4047583,8.32013806 C3.62203124,8.12604204 3.87547721,7.97673861 4.15056649,7.88078715 C4.39163509,7.79586723 4.64536875,7.75247605 4.90095722,7.75247605 Z M13.6574272,2.6732676 L12.1632427,2.67384272 C11.9674882,3.63689322 11.1504492,4.37421775 10.1487788,4.44916312 L9.98019906,4.45544601 L7.21711925,4.455 L7.217,5.094 L7.27916792,5.09447005 C7.26383992,5.07318263 8.83193435,5.07121881 13.021951,5.09447005 C13.3730682,5.09641847 13.8218576,5.16459643 14.2580665,5.29838521 L14.2574272,3.2732676 C14.2574272,2.94189676 13.9887981,2.6732676 13.6574272,2.6732676 Z M9.98019906,0.891089202 L6.41584225,0.891089202 C5.67763978,0.891089202 5.07920845,1.48952054 5.07920845,2.227723 C5.07920845,2.92250179 5.60930679,3.49346948 6.28711549,3.55823807 L6.41584225,3.56435681 L9.98019906,3.56435681 C10.7184015,3.56435681 11.3168329,2.96592547 11.3168329,2.227723 C11.3168329,1.48952054 10.7184015,0.891089202 9.98019906,0.891089202 Z" id="形状结合"></path>
            </g>
        </g>
    </g>
</svg>