<?xml version="1.0" encoding="UTF-8"?>
<svg width="18px" height="18px" viewBox="0 0 18 18" version="1.1" xmlns="http://www.w3.org/2000/svg" xmlns:xlink="http://www.w3.org/1999/xlink">
    <title>供热电锅炉</title>
    <g id="页面-1" stroke="none" stroke-width="1" fill="none" fill-rule="evenodd">
        <g id="图标组1" transform="translate(-3963.000000, -336.000000)">
            <g id="供热电锅炉" transform="translate(3963.000000, 336.000000)">
                <path d="M10.5104771,-6.37268016e-14 L10.5104771,1.16161796 L9.34885918,1.16161796 L9.348,1.998 L12.1329337,1.99855416 C13.1345634,1.99855416 13.9555757,2.77186975 14.0314961,3.75402659 L14.0372254,3.90284586 L14.037,7.938 L14.61613,7.93899214 C14.7423924,7.93899214 14.8634834,7.88883461 14.9527644,7.79955361 C15.0420454,7.71027262 15.092203,7.58918161 15.092203,7.46291922 L15.0902987,7.46291922 L15.0902987,4.75501641 L16.0424445,4.75501641 L16.0424445,7.46291922 C16.0424445,8.25170267 15.4030092,8.891138 14.6142258,8.891138 L14.037,8.891 L14.0372254,14.1761822 C14.0372254,14.6251152 13.8787028,15.057704 13.592656,15.3991121 L13.4794712,15.5227198 C13.1223473,15.8798438 12.6379832,16.080474 12.1329337,16.080474 L12.1329337,16.080474 L11.58,16.08 L11.5806891,16.5717812 C11.5806891,16.8054948 11.7491,16.999874 11.9711873,17.040184 L12.056762,17.0478541 L13.8087104,17.0478541 L13.8087104,18 L12.056762,18 C11.2679785,18 10.6285432,17.3605647 10.6285432,16.5717812 L10.6285432,16.5717812 L10.628,16.08 L5.981,16.08 L5.98111931,16.5717812 C5.98111931,17.3605647 5.34168396,18 4.55290051,18 L2.80095215,18 L2.80095215,17.0478541 L4.55194838,17.0478541 C4.81487619,17.0478541 5.0280213,16.834709 5.0280213,16.5717812 L5.028,16.08 L4.7042917,16.080474 C4.25535875,16.080474 3.82276992,15.9219514 3.48136187,15.6359045 L3.35775412,15.5227198 C3.00063015,15.1655959 2.8,14.6812318 2.8,14.1761822 L2.8,14.1761822 L2.8,3.90379802 C2.8,3.39874845 3.00063015,2.9143844 3.35775412,2.55726043 C3.71487809,2.20013645 4.19924214,1.99950629 4.7042917,1.99855416 L4.7042917,1.99855416 L7.412,1.998 L7.41219451,1.16161796 L6.25057657,1.16161796 L6.25057657,-6.37268016e-14 L10.5104771,-6.37268016e-14 Z M12.3586119,3.2092076 L4.49981467,3.2092076 C4.34990438,3.2092076 4.20613384,3.27057719 4.10013126,3.37981575 C3.99412868,3.48905431 3.93457706,3.6372136 3.93457706,3.79170025 L3.93457706,3.79170025 L3.93457706,14.2873278 C3.93457706,14.4418145 3.99412868,14.5899738 4.10013126,14.6992123 C4.20613384,14.8084509 4.34990438,14.8698205 4.49981467,14.8698205 L4.49981467,14.8698205 L12.3586119,14.8698205 C12.6707839,14.8698205 12.9238495,14.6090297 12.9238495,14.2873278 L12.9238495,14.2873278 L12.9238495,3.79267108 C12.9238495,3.47096927 12.6707839,3.21017843 12.3586119,3.2092076 L12.3586119,3.2092076 Z M7.29292352,5.61211929 C7.60868208,5.44814614 7.98947947,5.47367507 8.28052501,5.67832882 L8.28052501,5.67832882 L8.6523135,5.92911662 C9.04967192,6.20869695 9.41166114,6.53944315 9.73617144,6.92200705 C9.7896443,6.99132817 9.84081493,7.06233687 9.88960948,7.13491517 L9.88960948,7.13491517 L9.90581744,7.16134156 L10.0112103,7.12255634 C10.0500609,7.11053918 10.0898314,7.10096462 10.1303077,7.09396544 L10.1303077,7.09396544 L10.253639,7.08082677 C10.5870247,7.06710142 10.9033189,7.22869553 11.0822231,7.49901774 C11.3038422,7.81664451 11.4784157,8.16462001 11.5914726,8.50764622 L11.5914726,8.50764622 L11.6753512,8.73479608 C11.80218,9.11733205 11.8639557,9.51825251 11.8575558,9.91686136 C11.8581252,10.3445335 11.7591106,10.7664646 11.5681237,11.1496992 C11.3845073,11.5169372 11.1273081,11.8424769 10.8105797,12.10769 C10.1609614,12.6446151 9.34220259,12.9341663 8.5037311,12.9250314 C6.63730071,12.9250314 5.1490092,11.6334411 5.14942304,9.97980155 C5.12478911,9.44364978 5.26895645,8.91327695 5.56989877,8.45115962 C5.7273834,8.22788802 5.91080192,8.02408966 6.10873267,7.85085089 L6.10873267,7.85085089 L6.44837019,7.52834596 C6.49611063,7.47620308 6.53595284,7.42071457 6.5643674,7.36813917 C6.7003108,7.0812313 6.77350444,6.76863072 6.77900457,6.45806711 L6.77900457,6.45806711 L6.78623453,6.34074731 C6.82449564,6.03178965 7.01224925,5.7578732 7.29292352,5.61211929 Z M7.82875815,6.32080292 C7.77751908,6.28477328 7.71047905,6.28027887 7.65488922,6.30914662 C7.59929939,6.33801437 7.56441372,6.39543872 7.56435268,6.46494987 C7.5568364,6.89404855 7.45789593,7.31661046 7.26566318,7.72126215 C7.16899058,7.90230972 7.03969203,8.0639329 6.89791823,8.18565801 L6.89791823,8.18565801 L6.48120918,8.57943869 C6.38377392,8.67918557 6.29558981,8.78478801 6.21998959,8.89164855 C6.01693657,9.20379319 5.91691255,9.57176854 5.93441754,9.96177745 C5.93441754,11.1729765 7.04827835,12.1396231 8.50799838,12.1396462 C9.16516752,12.1467877 9.80363703,11.9209952 10.3082728,11.5039122 C10.5404721,11.309472 10.7301901,11.0693439 10.865401,10.7989189 C11.0017708,10.5252785 11.0725539,10.2236449 11.0721976,9.91112791 C11.0782392,9.53194627 11.0075062,9.15546158 10.8551918,8.77981106 C10.7569222,8.484049 10.6164431,8.20403363 10.4327613,7.94057772 C10.4003238,7.8916029 10.3446397,7.86315398 10.2859466,7.86557035 C10.2272535,7.86798672 10.1740963,7.9009166 10.1457943,7.95239203 L10.1457943,7.95239203 L9.78428306,8.60990668 L9.45007464,7.93810266 C9.35589556,7.74879 9.24343025,7.56914024 9.12593707,7.41610964 C8.79989031,7.03229905 8.41720424,6.70046967 7.97936667,6.424396 L7.97936667,6.424396 Z" id="形状结合" fill="#FFFFFF" fill-rule="nonzero"></path>
                <rect id="矩形" x="0" y="0" width="18" height="18"></rect>
            </g>
        </g>
    </g>
</svg>