<?xml version="1.0" encoding="UTF-8"?>
<svg width="18px" height="18px" viewBox="0 0 18 18" version="1.1" xmlns="http://www.w3.org/2000/svg" xmlns:xlink="http://www.w3.org/1999/xlink">
    <title>热泵</title>
    <g id="页面-1" stroke="none" stroke-width="1" fill="none" fill-rule="evenodd">
        <g id="图标组1" transform="translate(-3963.000000, -372.000000)">
            <g id="热泵" transform="translate(3963.000000, 372.000000)">
                <path d="M14.984375,1.00602679 C16.4247768,1.00602679 17.597991,2.18526786 17.597991,3.63370536 L17.597991,13.571875 C17.597991,15.0203125 16.4247768,16.1995536 14.984375,16.1995536 L14.743,16.1990268 L14.743304,16.6254464 C14.743304,16.9810268 14.4540174,17.2683036 14.100446,17.2683036 C13.7448656,17.2683036 13.457589,16.9810268 13.457589,16.6254464 L13.457,16.1990268 L4.586,16.1990268 L4.586607,16.6254464 C4.586607,16.9810268 4.29933036,17.2683036 3.94375,17.2683036 C3.58816964,17.2683036 3.300893,16.9810268 3.300893,16.6254464 L3.3,16.1990268 L3.013616,16.1995536 C1.57321421,16.1995536 0.4,15.0203125 0.4,13.571875 L0.4,3.63370536 C0.4,2.18526786 1.57321421,1.00602679 3.013616,1.00602679 L14.984375,1.00602679 Z M14.984375,2.28571429 L3.013616,2.28571429 C2.27834814,2.28571429 1.681696,2.89040179 1.681696,3.63370536 L1.681696,13.571875 C1.681696,14.3151786 2.28035707,14.9198661 3.013616,14.9198661 L14.984375,14.9198661 C15.7196429,14.9198661 16.316295,14.3151786 16.316295,13.571875 L16.316295,3.63370536 C16.316295,2.89040179 15.7176339,2.28571429 14.984375,2.28571429 Z M9.30245536,11.1872768 C9.56361607,12.1495536 8.99308036,13.1459821 8.03080357,13.4071429 C7.87611607,13.4513393 7.71540179,13.4714286 7.55669643,13.4714286 C7.2734375,13.4714286 6.9921875,13.4051339 6.73504464,13.2725446 C6.33796118,13.0700839 6.02962446,12.7281235 5.86919643,12.3122768 C5.74263393,11.9808036 5.90736607,11.6091518 6.23883929,11.4825893 C6.5703125,11.3560268 6.94196429,11.5207589 7.06852679,11.8522321 C7.16495536,12.1033482 7.43415179,12.2379464 7.69330357,12.1676339 C7.82790179,12.1314732 7.94040179,12.0450893 8.01071429,11.9225446 C8.08102679,11.8 8.09910714,11.6613839 8.0609375,11.5247768 C7.96852679,11.18125 8.16941964,10.8296875 8.51294643,10.7352679 C8.85647321,10.6428571 9.20803571,10.84375 9.30245536,11.1872768 Z M13.4408482,9.62232143 C13.5613839,10.05625 13.5151786,10.5183036 13.3122768,10.9200893 C13.1113839,11.3198661 12.7698661,11.6272321 12.3540179,11.7899554 C12.2796875,11.8200893 12.2013393,11.8341518 12.1229911,11.8341518 C11.8658482,11.8341518 11.6227679,11.6774554 11.5243304,11.4243304 C11.3957589,11.0928571 11.5604911,10.7212054 11.8899554,10.5926339 C12.1410714,10.4962054 12.2756696,10.2270089 12.2033482,9.96584821 C12.1270089,9.68861607 11.8377232,9.52388393 11.5604911,9.60022321 C11.2189732,9.69464286 10.8633929,9.49375 10.7689732,9.15223214 C10.6745536,8.81071429 10.8754464,8.45513393 11.2169643,8.36071429 C12.1772321,8.09553571 13.1756696,8.66205357 13.4408482,9.62232143 Z M8.85044643,7.1875 C9.75044643,7.1875 10.4837136,7.92075893 10.4837136,8.82075893 C10.4857143,9.72075893 9.75245536,10.4540179 8.85044643,10.4540179 C8.6971837,10.4540179 8.54875636,10.4327538 8.40796206,10.3930235 C7.72197432,10.1994463 7.2171875,9.5674962 7.2171875,8.82075893 C7.2171875,7.92075893 7.95044643,7.1875 8.85044643,7.1875 Z M6.18660714,6.20915179 C6.31316964,6.540625 6.1484375,6.91227679 5.81696429,7.03883929 C5.56584821,7.13526786 5.43125,7.40446429 5.5015625,7.66361607 C5.57790179,7.94084821 5.86517857,8.10758929 6.14241071,8.03125 C6.4859375,7.93883929 6.8375,8.13973214 6.93191964,8.48325893 C7.02433036,8.82678571 6.8234375,9.17834821 6.47991071,9.27276786 C6.32321429,9.31495536 6.16450893,9.33504464 6.0078125,9.33504464 C5.21227679,9.33504464 4.48102679,8.8046875 4.26205357,8.00111607 C4.14352679,7.56517857 4.19174107,7.10513393 4.39665179,6.70535714 C4.59955357,6.30758929 4.94107143,6.00022321 5.35691964,5.83950893 C5.68839286,5.71294643 6.06004464,5.87767857 6.18660714,6.20915179 Z M8.85044643,8.45111607 C8.64754464,8.45111607 8.4828125,8.61584821 8.4828125,8.81875 C8.4828125,9.02165179 8.64754464,9.18638393 8.85044643,9.18638393 C9.05334821,9.18638393 9.21808036,9.02165179 9.21808036,8.81875 C9.22008929,8.61584821 9.05535714,8.45111607 8.85044643,8.45111607 Z M10.9658482,4.34486607 C11.3636161,4.54776786 11.6709821,4.88928571 11.8316964,5.30513393 C11.9582589,5.63660714 11.7935268,6.00825893 11.4620536,6.13482143 C11.1305804,6.26138393 10.7589286,6.09665179 10.6323661,5.76517857 C10.5359375,5.5140625 10.2667411,5.37946429 10.0075893,5.44977679 C9.73035714,5.52611607 9.56361607,5.81339286 9.63995536,6.090625 C9.73236607,6.43415179 9.53147321,6.78571429 9.18794643,6.88013393 C9.13169643,6.89620536 9.07544643,6.90424107 9.01919643,6.90424107 C8.7359375,6.90424107 8.47678571,6.71540179 8.3984375,6.43013393 C8.13727679,5.46785714 8.7078125,4.47142857 9.67008929,4.21026786 C10.1060268,4.09174107 10.5660714,4.13995536 10.9658482,4.34486607 Z" id="形状结合" fill="#FFFFFF" fill-rule="nonzero"></path>
                <rect id="矩形" x="0" y="0" width="18" height="18"></rect>
            </g>
        </g>
    </g>
</svg>