<?xml version="1.0" encoding="UTF-8"?>
<svg width="18px" height="18px" viewBox="0 0 18 18" version="1.1" xmlns="http://www.w3.org/2000/svg" xmlns:xlink="http://www.w3.org/1999/xlink">
    <title>编组 6</title>
    <g id="页面-1" stroke="none" stroke-width="1" fill="none" fill-rule="evenodd">
        <g id="图标组1" transform="translate(-3965.000000, -247.000000)">
            <g id="编组-6" transform="translate(3965.000000, 247.000000)">
                <path d="M10.4136126,1.6 C14.6034587,1.6 18,4.99654135 18,9.18638743 C18,13.3762335 14.6034587,16.7727749 10.4136126,16.7727749 L10.4136126,16.7727749 L7.58638743,16.7727749 C3.39654135,16.7727749 0,13.3762335 0,9.18638743 C0,4.99654135 3.39654135,1.6 7.58638743,1.6 L7.58638743,1.6 Z M10.4136126,2.63664921 L7.58638743,2.63664921 C3.9690669,2.63664921 1.03664921,5.5690669 1.03664921,9.18638743 C1.03664921,12.803708 3.9690669,15.7361257 7.58638743,15.7361257 L7.58638743,15.7361257 L10.4136126,15.7361257 C14.0309331,15.7361257 16.9633508,12.803708 16.9633508,9.18638743 C16.9633508,5.5690669 14.0309331,2.63664921 10.4136126,2.63664921 L10.4136126,2.63664921 Z M8.99186104,4.2 C9.11014877,4.2 9.21203077,4.24744339 9.2717096,4.3299949 C9.30683927,4.37847612 9.32458243,4.43623104 9.32408647,4.49635442 L9.31747923,4.55701154 L9.31747923,5.0763981 L9.52742508,4.87725445 C9.60600618,4.79885424 9.70515388,4.75556214 9.80667923,4.75556214 C9.95395703,4.7557042 10.0865876,4.84451433 10.1425213,4.98044383 C10.1910648,5.09747087 10.1738104,5.22767663 10.0993577,5.33509419 L10.0478911,5.3965224 L9.31747923,6.12525293 L9.31747923,7.510007 C9.53653548,7.54896598 9.7451896,7.63054209 9.93177187,7.74951193 L10.0673878,7.84566901 L10.9636402,6.95136103 L10.985039,6.8963267 L10.985039,5.92290686 C10.985039,5.73360771 11.1347116,5.59068449 11.3331259,5.59068449 C11.5068424,5.59068449 11.6431501,5.70001927 11.6745127,5.85424806 L11.6813317,5.92290686 L11.6813317,6.23544022 L12.1828954,5.73503102 C12.2470918,5.65010734 12.3391066,5.6019523 12.438492,5.6019523 C12.5699757,5.6019523 12.6948019,5.68948536 12.7487744,5.81959887 C12.7984077,5.93919576 12.7814175,6.07172426 12.7061282,6.18066835 L12.6540254,6.24291255 L12.2015599,6.69433644 L12.4541845,6.69433644 C12.5935143,6.69433644 12.7162007,6.76289215 12.7827747,6.87770516 C12.8472088,6.98943436 12.8492298,7.13069706 12.7874111,7.23732609 C12.729991,7.33648278 12.6248992,7.39578703 12.5060171,7.39578703 L12.4703822,7.39403755 L12.4338556,7.38890773 L11.5056239,7.38890773 L10.5131958,8.37893276 C10.5609407,8.46971791 10.6003173,8.56452779 10.6308984,8.66218752 L10.6701202,8.81066765 L11.8881866,8.81066765 L12.5579686,8.14254605 C12.6365497,8.06402723 12.7356974,8.02085374 12.8371039,8.02085374 C12.9844112,8.02089911 13.1170907,8.10974202 13.1729459,8.24573543 C13.2215885,8.36266363 13.2043506,8.49285292 13.1299007,8.60033636 L13.0784346,8.661814 L12.9289997,8.81066765 L13.6665445,8.81066765 C13.7837623,8.81066765 13.8855254,8.87080215 13.9459176,8.97553344 C14.0157014,9.09592105 14.0181979,9.25367034 13.9519806,9.36670423 C13.9020326,9.45588066 13.8076913,9.51117575 13.7053001,9.51128797 L13.6734991,9.5096571 L13.6413415,9.50464589 L12.8684887,9.50464589 L13.0783157,9.71410848 C13.195058,9.83034479 13.2311981,9.98963599 13.1729459,10.1300684 C13.1171169,10.2660832 12.984421,10.354937 12.8371039,10.3549501 C12.7609598,10.3549501 12.6861533,10.3307318 12.6203576,10.2854974 L12.5578497,10.2333764 L11.827319,9.50464589 L10.6818895,9.50464589 C10.6528687,9.66626029 10.6004891,9.82251181 10.5266258,9.96858669 L10.4456707,10.1110911 L11.3238531,10.9871334 L12.2725326,10.9871334 C12.3897504,10.9871334 12.4913946,11.0471492 12.5519056,11.1517619 C12.6206195,11.2702518 12.623116,11.431678 12.5579686,11.5440002 C12.5162172,11.6163988 12.4488253,11.6654932 12.3713141,11.6822351 L12.3115259,11.6885839 L12.2797249,11.6868789 L12.2476862,11.6817046 L12.0200269,11.6817046 L12.6073047,12.2677492 L12.6180041,12.2838799 C12.6971796,12.4022512 12.7055013,12.5449372 12.6407106,12.6657992 C12.5740177,12.7899823 12.4431284,12.8700431 12.3068895,12.8700431 C12.2410777,12.8702237 12.177253,12.8507441 12.1232999,12.8148541 L12.0729295,12.7736144 L11.499442,12.201447 L11.499442,12.5137432 C11.499442,12.7032795 11.3400211,12.8462027 11.1286486,12.8462027 C11.0104798,12.8462027 10.9084789,12.798878 10.8488001,12.7162078 C10.8137596,12.6677266 10.7959718,12.6100384 10.7964399,12.5498483 L10.8030304,12.4890726 L10.8030304,11.5067571 L9.92520472,10.6308335 C9.78607998,10.7185574 9.63516502,10.7854847 9.47727633,10.829749 L9.31724146,10.8663899 L9.31724146,12.251144 L10.0477722,12.9798745 C10.1633256,13.095162 10.1995847,13.2425923 10.1448989,13.3743663 C10.0899754,13.5067334 9.94850562,13.5958084 9.7928889,13.5958084 C9.73692739,13.5956285 9.68183598,13.584435 9.63067518,13.563163 L9.54109653,13.5130197 L9.31759811,13.2900357 L9.31759811,13.8444118 C9.31759811,13.9757114 9.26481444,14.0575512 9.22070916,14.1029783 C9.15948486,14.1656035 9.0760296,14.2 8.98544141,14.2 C8.80974847,14.2 8.66263553,14.0777702 8.6286025,13.9159475 L8.62118653,13.8444118 L8.62118653,13.3504074 L8.45819912,13.5130197 L8.44203115,13.523813 C8.37129628,13.5709006 8.28962425,13.5958084 8.20664451,13.5958084 C8.05102779,13.5958084 7.90967693,13.5067334 7.85451561,13.3743663 C7.81076699,13.2691369 7.82522306,13.1536597 7.89179705,13.0525901 L7.95140456,12.9798745 L8.62118653,12.3117529 L8.62118653,10.8545291 C8.51110425,10.8306568 8.40379252,10.7960167 8.30078689,10.7511889 L8.14969997,10.6763791 L7.31728723,11.5067571 L7.31728723,12.514099 C7.31728723,12.7036354 7.15786628,12.8462027 6.94649383,12.8462027 C6.82844387,12.8462027 6.72644299,12.798878 6.66688304,12.7164451 C6.63184253,12.6678749 6.61398792,12.6102979 6.61447273,12.5501189 L6.62111342,12.4893098 L6.62111342,12.2015656 L5.97320575,12.8479819 L5.9569189,12.858538 C5.89478707,12.9010309 5.8213481,12.9240361 5.74602199,12.924603 C5.5968249,12.924603 5.45690062,12.8287673 5.3978162,12.6863185 C5.35387736,12.5807095 5.36198037,12.4684205 5.41676886,12.3780541 L5.46653007,12.3148367 L6.04001752,11.742788 L5.78739297,11.742788 C5.59765708,11.742788 5.45452298,11.583734 5.45452298,11.3728481 C5.45452298,11.1837862 5.58101358,11.0413374 5.74863739,11.0413374 L5.78079274,11.0430599 L5.81259598,11.0480981 L6.73631021,11.0480981 L7.60224771,10.1840353 C7.50350338,10.044756 7.42664235,9.89164413 7.37400635,9.73000894 L7.32953209,9.56572926 L5.99401013,9.56572926 L5.8757224,9.69252174 C5.70655311,9.87506019 5.53155861,10.0636477 5.32410927,10.232309 C5.26050733,10.311065 5.17182125,10.3556618 5.07624001,10.3556618 C4.94463748,10.3556618 4.81993012,10.2680101 4.76583874,10.1380152 C4.70639767,9.99461755 4.74265673,9.83224253 4.86082557,9.71458291 L5.00312749,9.56572926 L4.33286999,9.56572926 C4.14301521,9.56572926 4,9.40335425 4,9.18819846 C4,8.99962579 4.10949602,8.85182664 4.2640579,8.81782331 L4.33286999,8.81043043 L5.00990378,8.81043043 L4.86070669,8.66157678 C4.74265673,8.54391716 4.70627879,8.38154215 4.76595763,8.23814449 C4.81993012,8.10803098 4.94487525,8.02061653 5.07635889,8.02061653 C5.17205901,8.02061653 5.26050733,8.06509471 5.32422815,8.14396935 C5.4623692,8.25633112 5.58608588,8.377549 5.70330367,8.49985631 L5.99412901,8.81054904 L7.32893767,8.81054904 C7.36253807,8.65427172 7.41808259,8.50379206 7.49371506,8.36349649 L7.57597476,8.22675807 L6.493434,7.14682782 L5.42337586,7.14682782 C5.23352108,7.14682782 5.0902681,6.98777384 5.0902681,6.77700656 C5.0902681,6.7021646 5.10964589,6.63266003 5.14638047,6.576321 C5.20023408,6.49305785 5.28701804,6.44561445 5.38462028,6.44561445 L5.41677563,6.44733695 L5.44857887,6.45237513 L5.79726019,6.45237513 L5.40566242,6.06167878 C5.31471758,5.9710619 5.29010898,5.83810179 5.34134718,5.71486757 C5.39876726,5.57657008 5.53702718,5.48002277 5.6780214,5.48002277 C5.75407625,5.48002277 5.82551699,5.50737685 5.88386768,5.55708122 L5.93754111,5.61405036 L6.19670418,5.87237964 L6.19670418,5.62045522 C6.19670418,5.43115608 6.35600624,5.28823285 6.56737869,5.28823285 C6.68554754,5.28823285 6.78754841,5.33579485 6.84710836,5.41834636 C6.88214887,5.46673862 6.89993661,5.5244713 6.89946852,5.58463916 L6.89287799,5.645363 L6.89287799,6.56291824 C7.29588844,6.95966363 7.70115765,7.3521391 8.10404923,7.72765357 C8.22393196,7.65526722 8.35219051,7.59808125 8.48584448,7.55728095 L8.62118653,7.52198645 L8.62118653,6.00427228 L7.96257948,5.34729988 C7.85106803,5.26296924 7.80422847,5.13000913 7.84298405,5.00250501 C7.8872082,4.85649797 8.02951012,4.75449467 8.18904996,4.75449467 C8.29200189,4.75449467 8.3924573,4.79814259 8.47175168,4.87725445 L8.62118653,5.02029628 L8.62118653,4.53222237 C8.62118653,4.34292322 8.78060748,4.2 8.99186104,4.2 Z M8.99993775,8.2 C8.41107999,8.2 8,8.61130337 8,9.2 C8,9.78869663 8.41107999,10.2 8.99993775,10.2 C9.58867102,10.2 10,9.78869663 10,9.2 C10,8.6110544 9.58867102,8.2 8.99993775,8.2 Z" id="形状结合" fill="#FFFFFF" fill-rule="nonzero"></path>
                <rect id="矩形" x="0" y="0" width="18" height="18"></rect>
            </g>
        </g>
    </g>
</svg>