<?xml version="1.0" encoding="UTF-8"?>
<svg width="18px" height="18px" viewBox="0 0 18 18" version="1.1" xmlns="http://www.w3.org/2000/svg" xmlns:xlink="http://www.w3.org/1999/xlink">
    <title>14污水废水</title>
    <g id="页面-1" stroke="none" stroke-width="1" fill="none" fill-rule="evenodd">
        <g id="图标组1" transform="translate(-3966, -401)">
            <g id="14污水废水" transform="translate(3975, 410) scale(-1, 1) translate(-3975, -410)translate(3966, 401)">
                <path d="M12.5595735,0.5 C12.9325691,0.500250255 13.2349497,0.802427515 13.2354508,1.17542292 L13.235,1.381 L17.3244108,1.38171282 C17.696897,1.38182705 17.9990767,1.68328769 18.0000784,2.05577259 L18.0000784,11.2176727 C17.9997025,11.5906382 17.6973764,11.8928548 17.3244108,11.8930956 L13.235,11.893 L13.2354508,12.0982146 C13.2349593,12.4712168 12.9325759,12.7734047 12.5595735,12.773655 L10.0937765,12.773655 C9.7207222,12.7735298 9.4182656,12.4712688 9.41789919,12.0982146 L9.41743491,11.9310244 C9.19230417,12.21952 8.97391241,12.8463713 8.9188824,14.1722955 C9.17450866,14.0832023 9.49413155,14.0082829 9.96370061,13.9934036 C10.709448,13.9709291 11.1320942,14.1261883 11.500826,14.2630275 C11.8468562,14.3920024 12.1457004,14.5061399 12.7409073,14.4922113 C13.2817454,14.4825469 13.5484508,14.3827924 13.8571866,14.2675189 C14.2166735,14.1327069 14.3211826,13.9797022 15.1017602,14.008905 C15.6567541,14.0277794 15.550577,14.1327069 16.5250714,14.2904477 C17.0125233,14.3693513 17.3870011,14.4457069 17.6604523,14.5007572 C17.8743001,14.545559 18.0119616,14.7544834 17.9687558,14.9686593 C17.92555,15.1828352 17.717658,15.322051 17.5031659,15.2804435 C17.1345314,15.2054678 16.7646319,15.1368516 16.3936324,15.0746255 C15.4512594,14.9159934 15.5767652,14.8207302 15.0750215,14.8032015 C14.4481477,14.7856728 14.4661123,14.8878915 14.1358108,15.0121478 C13.8055093,15.1364041 13.432286,15.2748162 12.7543815,15.2878535 C12.0113254,15.2954906 11.5909162,15.1456141 11.2231106,15.0090021 C10.8779543,14.8804816 10.5786731,14.7710627 9.98729358,14.7883642 C9.4255538,14.8063298 9.15905815,14.9231761 8.87639694,15.0490053 C8.55890552,15.1883086 8.1931097,15.3296392 7.51901497,15.3420124 C6.80495202,15.3366123 6.35624876,15.1622515 5.96011413,15.0076564 C5.56397949,14.8530613 5.24963381,14.7312867 4.68789403,14.7984655 C4.33625398,14.8434144 4.14862873,14.9296948 3.93090935,15.0314766 C3.69721665,15.1404586 3.43231134,15.2640333 2.98853639,15.3249207 C2.83030165,15.345576 2.67087092,15.3557112 2.51129438,15.3552595 C1.75721077,15.3552595 0.980460427,15.1177569 0.195373906,14.6458976 C0.0725587469,14.5733003 -0.001939003,14.4404597 3.8408376e-05,14.297808 C0.00226562889,14.1551563 0.0806456263,14.0245687 0.205546775,13.9556221 C0.330447923,13.8866755 0.482716978,13.8899427 0.604545838,13.9641832 C1.27600418,14.3673656 1.92754395,14.5669886 2.54665441,14.5596498 C2.65313169,9.15783906 3.87144876,6.20524667 6.16816913,4.0166801 C7.43387158,2.80958092 8.70577963,2.44819966 9.41803186,2.34275302 L9.41789919,1.17542292 C9.41840031,0.802420697 9.72079149,0.500240621 10.093794,0.5 L12.5595735,0.5 Z M6.69530589,4.61300542 C5.23423434,6.01662684 3.50145043,8.10041056 3.34439102,14.418166 C3.43175938,14.3859251 3.51162092,14.3490977 3.59611643,14.3102134 C3.83900164,14.1978585 4.11516167,14.0677651 4.5919493,14.008905 C5.34624263,13.9149701 5.80663751,14.0933853 6.24974836,14.2661732 C6.61418104,14.4079582 6.95729267,14.5418789 7.5262152,14.5463703 C7.78123641,14.5435535 7.96208967,14.5209751 8.11344108,14.4840905 C8.1703019,11.5806518 8.91515709,11.0657548 9.41753658,10.9764026 L9.41822599,3.14673255 C8.80590042,3.25514755 7.7584162,3.5897741 6.69530589,4.61300542 Z M12.2020789,1.5333719 L10.4512536,1.5333719 L10.4512536,11.7400384 L12.2020789,11.7400384 L12.2020789,1.5333719 Z M16.9667065,2.41393129 L13.2370236,2.41393129 L13.2370236,10.859479 L16.9667065,10.859479 L16.9667065,2.41393129 Z M0.195373906,16.6458976 C0.0725587469,16.5733003 -0.00193900301,16.4404597 0.000119965465,16.297808 C0.00226562888,16.1551563 0.0806456263,16.0245687 0.205546775,15.9556221 C0.330447923,15.8866755 0.482716978,15.8899427 0.604545838,15.9641832 C1.39861516,16.4409883 2.16482731,16.633105 2.88249038,16.5349058 C3.20650044,16.4899743 3.38713518,16.4063853 3.59611643,16.3102134 C3.83900164,16.1978585 4.11516167,16.0677651 4.5919493,16.008905 C5.34624263,15.9149701 5.80663751,16.0933853 6.24974836,16.2661732 C6.61418104,16.4079582 6.95729267,16.5418789 7.5262152,16.5463703 C8.05627049,16.5405157 8.26591584,16.4492896 8.55621418,16.3216778 C8.88045143,16.17832 9.24782013,16.0160878 9.96370061,15.9934036 C10.709448,15.9709291 11.1320942,16.1261883 11.500826,16.2630275 C11.8468562,16.3920024 12.1457004,16.5061399 12.7409073,16.4922113 C13.2817454,16.4825469 13.5484508,16.3827924 13.8571866,16.2675189 C14.2166735,16.1327069 14.3211826,15.9797022 15.1017602,16.008905 C15.6567541,16.0277794 15.550577,16.1261883 16.5250714,16.2904477 C16.9969307,16.3699648 17.3870011,16.4457069 17.6604523,16.5007572 C17.8743001,16.545559 18.0119616,16.7544834 17.9687558,16.9686593 C17.92555,17.1828352 17.717658,17.322051 17.5031659,17.2804435 C17.1345314,17.2054678 16.7646319,17.1368516 16.3936324,17.0746255 C15.4512594,16.9159934 15.5767652,16.8207302 15.0750215,16.8032015 C14.4481477,16.7856728 14.4661123,16.8878915 14.1358108,17.0121478 C13.8055093,17.1364041 13.432286,17.2748162 12.7543815,17.2878535 C12.0113254,17.2954906 11.5909162,17.1456141 11.2231106,17.0090021 C10.8779543,16.8804816 10.5786731,16.7710627 9.98729358,16.7883642 C9.4255538,16.8063298 9.15905815,16.9231761 8.87639694,17.0490053 C8.55890552,17.1883086 8.1931097,17.3296392 7.51901497,17.3420124 C6.80495202,17.3366123 6.35624876,17.1622515 5.96011413,17.0076564 C5.56397949,16.8530613 5.2496338,16.7312867 4.68789403,16.7984655 C4.33625398,16.8434144 4.14862873,16.9296948 3.93090935,17.0314766 C3.69721665,17.1404586 3.43231134,17.2640333 2.98853639,17.3249207 C2.83030165,17.345576 2.67087092,17.3557112 2.51129438,17.3552739 C1.75721077,17.3552739 0.980460427,17.1177569 0.195373906,16.6458976 Z" id="形状结合" fill="#FFFFFF" fill-rule="nonzero"></path>
                <rect id="矩形" x="0" y="0" width="18" height="18"></rect>
            </g>
        </g>
    </g>
</svg>