<?xml version="1.0" encoding="UTF-8"?>
<svg width="18px" height="18px" viewBox="0 0 18 18" version="1.1" xmlns="http://www.w3.org/2000/svg" xmlns:xlink="http://www.w3.org/1999/xlink">
    <title>编组 36</title>
    <g id="页面-1" stroke="none" stroke-width="1" fill="none" fill-rule="evenodd">
        <g id="运行监控-图标" transform="translate(-132.000000, -252.000000)">
            <g id="编组-36" transform="translate(132.000000, 252.000000)">
                <path d="M0.605,1.5 C0.939132865,1.5 1.21000164,1.77086714 1.21000365,2.105 L1.21008403,15.4159664 L17.3944748,15.4150349 C17.7288779,15.4150156 17.9999808,15.6860873 18,16.0204904 L18,16.0205252 C18,16.3549475 17.7288971,16.6260504 17.3944748,16.6260504 L1.21008403,16.6260504 C0.541773076,16.6260504 0,16.0842773 0,15.4159664 L0,2.105 C-1.51941704e-16,1.77086773 0.270867726,1.5 0.605,1.5 Z M12.3913652,7.40088801 C12.6322466,7.41397939 12.8418598,7.57006964 12.9236709,7.79776792 L12.9236709,7.79776792 L14.27,11.63 L17.05898,11.630655 L17.103,11.674 L17.1562978,11.678505 C17.4096949,11.7198363 17.6097634,11.9199048 17.6510947,12.1733018 L17.6510947,12.1733018 L17.6589473,12.2706196 C17.6589473,12.6019724 17.3903328,12.8705869 17.05898,12.8705869 L17.05898,12.8705869 L13.8792115,12.8705869 C13.6266072,12.8704794 13.4011277,12.712164 13.3149465,12.4737791 L13.3149465,12.4737791 L12.304,9.595 L10.4093232,13.3844759 C10.326156,13.5545647 10.1686458,13.6736914 9.98354507,13.7096373 L9.98354507,13.7096373 L9.88891197,13.7205293 C9.67585698,13.7192433 9.47946573,13.6050624 9.37341573,13.4213605 L9.37341573,13.4213605 L7.473,10.199 L6.47139744,12.4706086 C6.38934603,12.6586154 6.21825136,12.7894124 6.02055293,12.8224217 L6.02055293,12.8224217 L5.91977581,12.8305895 L2.99996723,12.8305895 C2.66861448,12.8305895 2.4,12.561975 2.4,12.2306223 C2.4,11.8992695 2.66861448,11.630655 2.99996723,11.630655 L2.99996723,11.630655 L5.496,11.63 L6.85798543,8.65101821 C6.93533421,8.47292221 7.09300988,8.34518282 7.27991278,8.30410676 L7.27991278,8.30410676 L7.37556326,8.29095876 C7.60002038,8.28171039 7.81139344,8.39658705 7.92597287,8.59037636 L7.92597287,8.59037636 L9.832,11.848 L11.8194926,7.73709967 C11.9119769,7.54735671 12.0960288,7.42222879 12.3019684,7.40268175 L12.3019684,7.40268175 Z M7.88891197,2.40000182 L7.98635608,2.41097701 C8.16875327,2.44710542 8.32690859,2.5678263 8.41459111,2.74907404 L8.41459111,2.74907404 L9.646,6.534 L11.3152423,3.64592267 C11.390392,3.43806162 11.5724185,3.29086875 11.7860045,3.25724635 L11.7860045,3.25724635 L11.879254,3.24994429 L17.05898,3.24994429 C17.3903328,3.24994429 17.6589473,3.51855876 17.6589473,3.84991151 C17.6589473,4.18126426 17.3903328,4.44987874 17.05898,4.44987874 L17.1,4.446 L17.05898,4.48987611 L12.26,4.489 L10.2234325,8.32343476 C10.1520565,8.52208309 9.98264904,8.6664208 9.78004065,8.70817155 L9.78004065,8.70817155 L9.69136477,8.71964315 C9.45048342,8.73273453 9.22518875,8.60028062 9.11414287,8.3701019 L9.11414287,8.3701019 L7.813,4.303 L5.9257292,7.53056918 C5.82772712,7.69631911 5.65843233,7.80439686 5.46970196,7.8260197 L5.46970196,7.8260197 L5.37395723,7.82949329 C5.14779974,7.81652934 4.94822567,7.67729161 4.85876408,7.47125989 L4.85876408,7.47125989 L3.496,4.489 L2.99996723,4.48987611 C2.70174975,4.48987611 2.45435028,4.27229838 2.40785256,3.98722668 L2.40785256,3.98722668 L2.4,3.88990888 C2.4,3.55855613 2.66861448,3.28994166 2.99996723,3.28994166 L2.99996723,3.28994166 L3.91942759,3.28994226 C4.15874639,3.28910889 4.37567079,3.43058133 4.47124961,3.64958556 L4.47124961,3.64958556 L5.473,5.92 L7.37294017,2.69998543 C7.46424779,2.54182832 7.62157919,2.43534639 7.79883634,2.40734083 L7.79883634,2.40734083 L7.88891197,2.40000182 Z" id="形状结合" fill="#FFFFFF" fill-rule="nonzero"></path>
                <rect id="矩形" x="0" y="0" width="18" height="18"></rect>
            </g>
        </g>
    </g>
</svg>