<?xml version="1.0" encoding="UTF-8"?>
<svg width="18px" height="18px" viewBox="0 0 18 18" version="1.1" xmlns="http://www.w3.org/2000/svg" xmlns:xlink="http://www.w3.org/1999/xlink">
    <title>编组 2</title>
    <g id="页面-1" stroke="none" stroke-width="1" fill="none" fill-rule="evenodd">
        <g id="储能管理-图标" transform="translate(-124.000000, -231.000000)">
            <g id="编组-2" transform="translate(124.000000, 231.000000)">
                <path d="M14.1838235,16.3575735 L14.2821012,16.3641695 C14.6355535,16.4120161 14.9073529,16.7143761 14.9073529,17.0811029 C14.9073529,17.4811686 14.5838892,17.8046324 14.1838235,17.8046324 L14.1838235,17.8046324 L3.76029412,17.8046324 L3.66201644,17.7980364 C3.30856412,17.7501898 3.03676471,17.4478298 3.03676471,17.0811029 C3.03676471,16.6810373 3.36022847,16.3575735 3.76029412,16.3575735 L3.76029412,16.3575735 L14.1838235,16.3575735 Z M14.605,0.105808824 C15.0050656,0.105808824 15.3285294,0.429272593 15.3285294,0.829338235 L15.3285294,0.829338235 L15.3285294,2.04698529 L15.3254107,2.11557878 L15.425,2.22463235 L16.3897059,2.22463235 L16.4879836,2.23122832 C16.8414359,2.27907494 17.1132353,2.58143493 17.1132353,2.94816176 L17.1132353,2.94816176 L17.1132353,14.0493382 L17.1066393,14.1476159 C17.0587927,14.5010682 16.7564327,14.7728676 16.3897059,14.7728676 L16.3897059,14.7728676 L1.54617647,14.7728676 L1.44789879,14.7662717 C1.09444648,14.7184251 0.822647059,14.4160651 0.822647059,14.0493382 L0.822647059,14.0493382 L0.822647059,2.94816176 L0.829243027,2.84988409 C0.877089644,2.49643177 1.17944963,2.22463235 1.54617647,2.22463235 L1.54617647,2.22463235 L2.57205882,2.22463235 L2.67164814,2.11557878 L2.66979958,2.09016136 L2.66852941,0.829338235 L2.67512538,0.731060557 C2.722972,0.377608241 3.02533198,0.105808824 3.39205882,0.105808824 C3.79212447,0.105808824 4.11558824,0.429272593 4.11558824,0.829338235 L4.11558824,0.829338235 L4.11558824,2.04698529 L4.1124695,2.11557878 L4.21205882,2.22463235 L6.30970588,2.22463235 L6.4092952,2.11557878 L6.40744664,2.09016136 L6.40617647,0.829338235 L6.41277244,0.731060557 C6.46061906,0.377608241 6.76297904,0.105808824 7.12970588,0.105808824 C7.52977153,0.105808824 7.85323529,0.429272593 7.85323529,0.829338235 L7.85323529,0.829338235 L7.85323529,2.04698529 L7.85011656,2.11557878 L7.94970588,2.22463235 L10.0473529,2.22463235 L10.1469423,2.11557878 L10.1438235,0.829338235 L10.1504195,0.731060557 C10.1982661,0.377608241 10.5006261,0.105808824 10.8673529,0.105808824 C11.2674186,0.105808824 11.5908824,0.429272593 11.5908824,0.829338235 L11.5908824,0.829338235 L11.5908824,2.04698529 L11.5877636,2.11557878 L11.6873529,2.22463235 L13.785,2.22463235 L13.8845893,2.11557878 L13.8827408,2.09016136 L13.8814706,0.829338235 L13.8880666,0.731060557 C13.9359132,0.377608241 14.2382732,0.105808824 14.605,0.105808824 Z M15.8669655,3.49875 L2.07597573,3.49875 L1.97147059,3.60233274 L1.97147059,13.3951673 L2.07597573,13.49875 L15.8669655,13.49875 L15.9714706,13.3951673 L15.9714706,3.60233274 L15.8669655,3.49875 Z M10.925,5.38463235 C10.9885294,5.38463235 11.0344118,5.41404412 11.0661765,5.47639706 C11.0932353,5.53286765 11.0873529,5.59875 11.0508824,5.64816176 L11.0508824,5.64816176 L9.53676471,7.56933824 L11.5497059,7.56933824 C11.6132353,7.56933824 11.6755882,7.59992647 11.6908824,7.66110294 C11.7226471,7.72463235 11.7061765,7.78816176 11.6591176,7.83404412 L11.6591176,7.83404412 L7.91441176,11.8905147 C7.88617647,11.9211029 7.84617647,11.9375735 7.805,11.936456 C7.77441176,11.936456 7.75911765,11.936456 7.72735294,11.9211029 C7.66617647,11.8869853 7.63441176,11.8175735 7.64970588,11.7493382 L7.64970588,11.7493382 L8.38264706,8.97286765 L6.40147059,8.97286765 C6.34264706,8.97522059 6.28852941,8.94463235 6.25911765,8.89522059 C6.22735294,8.84816176 6.22735294,8.78698529 6.25911765,8.73992647 L6.25911765,8.73992647 L7.97558824,5.46345588 C8.005,5.41404412 8.05911765,5.38463235 8.11676471,5.38463235 L8.11676471,5.38463235 Z" id="形状结合" fill="#FFFFFF" fill-rule="nonzero"></path>
                <rect id="矩形" x="0" y="0" width="18" height="18"></rect>
            </g>
        </g>
    </g>
</svg>