<?xml version="1.0" encoding="UTF-8"?>
<svg width="18px" height="19px" viewBox="0 0 18 19" version="1.1" xmlns="http://www.w3.org/2000/svg" xmlns:xlink="http://www.w3.org/1999/xlink">
    <title>抄读</title>
    <g id="页面-1" stroke="none" stroke-width="1" fill="none" fill-rule="evenodd">
        <g id="运行监控-图标" transform="translate(-131.000000, -406.000000)" fill="#FFFFFF" fill-rule="nonzero">
            <g id="抄读" transform="translate(131.000000, 406.000000)">
                <g id="形状结合-2" transform="translate(0.007637, 0.017907)">
                    <path d="M1.76707661,0.00121247617 L1.89387685,0.0109122855 L13.3142397,0.0109122855 C13.4407156,-0.0036374268 13.5684426,-0.0036374268 13.6949185,0.0109122855 C14.3207006,0.141634786 14.8390637,0.577774794 15.074879,1.17198253 C15.1748767,1.40671685 15.2266599,1.65916007 15.2271505,1.91430611 L15.2271505,1.91430611 L15.2271505,5.67668121 L1.42754536,5.67668121 L1.42754536,15.1492378 C1.42754535,15.2754406 1.47767924,15.3964745 1.56691814,15.4857134 C1.65615703,15.5749523 1.77719095,15.6250862 1.90339381,15.6250862 L1.90339381,15.6250862 L13.3237567,15.6250862 C13.4499596,15.6250862 13.5709935,15.5749523 13.6602324,15.4857134 C13.7494713,15.3964745 13.7996052,15.2754406 13.7996052,15.1492378 L13.7996052,15.1492378 L13.7996052,14.0040291 C13.8047308,13.6119661 14.1213148,13.2953821 14.5133778,13.2902565 C14.9054409,13.2953821 15.2220249,13.6119661 15.2271505,14.0040291 L15.2271505,14.0040291 L15.2271505,15.1492378 C15.2271505,15.6540492 15.026615,16.1381849 14.6696594,16.4951404 C14.3127038,16.852096 13.8285681,17.0526316 13.3237567,17.0526316 L13.3237567,17.0526316 L1.90339381,17.0526316 C1.39858238,17.0526316 0.914446713,16.852096 0.557491131,16.4951404 C0.200535549,16.1381848 -6.712759e-14,15.6540492 -6.712759e-14,15.1492378 L-6.712759e-14,15.1492378 L-6.712759e-14,1.91430611 C0.000490571777,1.65916007 0.0522738006,1.40671685 0.152271513,1.17198253 C0.384447719,0.582611186 0.894614737,0.147363792 1.51319808,0.0109122855 C1.63967393,-0.00363742851 1.767401,-0.00363742851 1.89387685,0.0109122855 Z M9.9450403,10.5179845 L12.4418405,13.0147847 L10.7655436,14.6910817 C10.6524177,14.8098952 10.4971953,14.8795869 10.3332354,14.8851792 L10.3332354,14.8851792 L8.47166351,14.8851792 C8.2669576,14.8906745 8.09318838,14.736213 8.07464581,14.5322746 L8.07464581,14.5322746 L8.07464581,12.6707027 C8.08023813,12.5067428 8.14992983,12.3515204 8.26874336,12.2383945 L8.26874336,12.2383945 L9.9450403,10.5179845 Z M9.90092723,12.388379 L9.35392507,12.9353811 L9.35392507,13.5617869 L9.98033077,13.5617869 L10.5273329,13.0147847 L9.90092723,12.388379 Z M6.53068807,12.2383945 C6.89613278,12.2383945 7.19238424,12.534646 7.19238424,12.9000907 C7.19238424,13.2655354 6.89613278,13.5617869 6.53068807,13.5617869 L6.53068807,13.5617869 L3.44277263,13.5617869 C3.07732792,13.5617869 2.78107646,13.2655354 2.78107646,12.9000907 C2.78107646,12.534646 3.07732792,12.2383945 3.44277263,12.2383945 L3.44277263,12.2383945 Z M14.9386407,6.25666117 C15.405866,6.25863107 15.8532369,6.44582882 16.1826295,6.77719548 L16.1826295,6.77719548 L16.2090974,6.77719548 C16.5404343,7.10816401 16.7266085,7.55727483 16.7266085,8.02559559 C16.7266085,8.49391634 16.5404343,8.94302717 16.2090974,9.2739957 L16.2090974,9.2739957 L13.0947141,12.388379 L10.5979139,9.89157877 L13.7122972,6.77719548 C14.0373552,6.45010313 14.4775457,6.26325968 14.9386407,6.25666117 Z M14.9033503,7.58005351 C14.786359,7.57862729 14.6742096,7.62669131 14.5945587,7.71239274 L14.5945587,7.71239274 L12.4683084,9.89157877 L13.0947141,10.5179845 L15.2739001,8.33879844 L15.2121418,8.33879844 C15.2956534,8.25596881 15.3426275,8.14321761 15.3426275,8.02559559 C15.3426275,7.90797357 15.2956534,7.79522236 15.2121418,7.71239274 C15.1312622,7.62845342 15.019913,7.58073234 14.9033503,7.58005351 Z M9.17747275,8.70934829 C9.54093104,8.71409999 9.83441722,9.00758617 9.83916891,9.37104446 C9.83441722,9.73450275 9.54093104,10.0279889 9.17747275,10.0327406 L9.17747275,10.0327406 L3.44277263,10.0327406 C3.07732792,10.0327406 2.78107646,9.73648916 2.78107646,9.37104446 C2.78107646,9.00559976 3.07732792,8.70934829 3.44277263,8.70934829 L3.44277263,8.70934829 Z M13.3237567,1.43845765 L1.90339381,1.43845765 C1.77719095,1.43845765 1.65615703,1.48859154 1.56691814,1.57783044 C1.47767924,1.66706934 1.42754536,1.78810326 1.42754536,1.91430611 L1.42754536,1.91430611 L1.42754536,4.24913585 L13.7996052,4.24913585 L13.7996052,1.91430611 C13.7996052,1.78810325 13.7494713,1.66706933 13.6602324,1.57783043 C13.5709935,1.48859153 13.4499596,1.43845765 13.3237567,1.43845765 L13.3237567,1.43845765 Z" id="形状结合"></path>
                </g>
            </g>
        </g>
    </g>
</svg>