<?xml version="1.0" encoding="UTF-8"?>
<svg width="19px" height="19px" viewBox="0 0 19 19" version="1.1" xmlns="http://www.w3.org/2000/svg" xmlns:xlink="http://www.w3.org/1999/xlink">
    <title>编组</title>
    <g id="页面-1" stroke="none" stroke-width="1" fill="none" fill-rule="evenodd">
        <g id="储能管理-图标" transform="translate(-123.000000, -422.000000)">
            <g id="编组" transform="translate(123.500000, 422.500000)">
                <path d="M6.34873949,1.5 C6.79428013,1.5 7.15546218,1.86118205 7.15546218,2.3067227 L7.15546218,3.31512605 L10.7857143,3.31512605 L10.7857143,2.3067227 C10.7857143,1.86118205 11.1468963,1.5 11.592437,1.5 L13.6092437,1.5 C14.0547843,1.5 14.4159664,1.86118205 14.4159664,2.3067227 L14.4159664,3.31512605 L16.2310924,3.31512605 C16.8994034,3.31512605 17.4411765,3.85689913 17.4411765,4.52521008 L17.4411765,15.4159664 C17.4411765,16.0842773 16.8994034,16.6260504 16.2310924,16.6260504 L1.71008403,16.6260504 C1.04177308,16.6260504 0.5,16.0842773 0.5,15.4159664 L0.5,4.52521008 C0.5,3.85689913 1.04177308,3.31512605 1.71008403,3.31512605 L3.52521008,3.31512605 L3.52521008,2.3067227 C3.52521008,1.86118205 3.88639214,1.5 4.33193278,1.5 L6.34873949,1.5 Z M16.2310924,4.52521008 L1.71008403,4.52521008 L1.71008403,15.4159664 L16.2310924,15.4159664 L16.2310924,4.52521008 Z M12.6008403,6.94537815 C12.9349958,6.94537815 13.2058824,7.21626469 13.2058824,7.55042017 L13.2058824,8.15546218 L13.8109244,8.15546218 C14.1450798,8.15546218 14.4159664,8.42634872 14.4159664,8.7605042 C14.4159664,9.09465968 14.1450798,9.36554622 13.8109244,9.36554622 L13.2058824,9.36554622 L13.2058824,9.97058824 C13.2058824,10.3047437 12.9349958,10.5756303 12.6008403,10.5756303 C12.2666849,10.5756303 11.9957983,10.3047437 11.9957983,9.97058824 L11.9957983,9.36554622 L11.3907563,9.36554622 C11.0566008,9.36554622 10.7857143,9.09465968 10.7857143,8.7605042 C10.7857143,8.42634872 11.0566008,8.15546218 11.3907563,8.15546218 L11.9957983,8.15546218 L11.9957983,7.55042017 C11.9957983,7.21626469 12.2666849,6.94537815 12.6008403,6.94537815 Z M6.55042017,8.15546218 C6.88457565,8.15546218 7.15546218,8.42634872 7.15546218,8.7605042 C7.15546218,9.09465968 6.88457565,9.36554622 6.55042017,9.36554622 L4.1302521,9.36554622 C3.79609662,9.36554622 3.52521008,9.09465968 3.52521008,8.7605042 C3.52521008,8.42634872 3.79609662,8.15546218 4.1302521,8.15546218 L6.55042017,8.15546218 Z" id="形状结合" fill="#FFFFFF" fill-rule="nonzero"></path>
                <rect id="矩形" x="0" y="0" width="18" height="18"></rect>
            </g>
        </g>
    </g>
</svg>