<?xml version="1.0" encoding="UTF-8"?>
<svg width="18px" height="18px" viewBox="0 0 18 18" version="1.1" xmlns="http://www.w3.org/2000/svg" xmlns:xlink="http://www.w3.org/1999/xlink">
    <title>拓扑图 (1)</title>
    <g id="页面-1" stroke="none" stroke-width="1" fill="none" fill-rule="evenodd">
        <g id="图标2" transform="translate(-7.000000, -319.000000)">
            <g id="拓扑图-(1)" transform="translate(7.000000, 319.000000)">
                <path d="M17.0007051,13.9235046 C17.0003745,15.542713 15.7452124,16.8846224 14.1296352,16.9930012 C12.5140579,17.1013799 11.0909086,15.9391413 10.8743096,14.3344853 C10.6577107,12.7298293 11.7217814,11.2318619 13.3082751,10.9080202 L13.3082751,9.61566976 L4.69260535,9.61566976 L4.69260535,10.9080202 C6.24032625,11.2239474 7.29741127,12.6605082 7.1386437,14.2321452 C6.97987612,15.8037822 5.65683639,17 4.07720037,17 C2.49756434,17 1.17452461,15.8037822 1.01575704,14.2321452 C0.856989459,12.6605082 1.91407449,11.2239474 3.46179538,10.9080202 L3.46179538,8.38485979 L8.38503525,8.38485979 L8.38503525,7.15404983 L7.15422528,7.15404983 C5.79471013,7.15404983 4.69260535,6.05194504 4.69260535,4.6924299 L4.69260535,3.46161993 C4.69260535,2.10210478 5.79471013,1 7.15422528,1 L10.8466552,1 C12.2061703,1 13.3082751,2.10210478 13.3082751,3.46161993 L13.3082751,4.6924299 C13.3082751,6.05194504 12.2061703,7.15404983 10.8466552,7.15404983 L9.61584521,7.15404983 L9.61584521,8.38485979 L14.5390851,8.38485979 L14.5390851,10.9080202 C15.9719517,11.2005029 17.0010035,12.4610913 17.0007051,13.9235046 Z M4.07720037,12.0772897 C3.05756401,12.0772897 2.23098542,12.9038683 2.23098542,13.9235046 C2.23098542,14.943141 3.05756401,15.7697196 4.07720037,15.7697196 C5.09683673,15.7697196 5.92341532,14.943141 5.92341532,13.9235046 C5.92341532,12.9038683 5.09683673,12.0772897 4.07720037,12.0772897 Z M10.8466552,5.92323986 C11.5264128,5.92323986 12.0774651,5.37218747 12.0774651,4.6924299 L12.0774651,3.46161993 C12.0774651,2.78186236 11.5264128,2.23080997 10.8466552,2.23080997 L7.15422528,2.23080997 C6.47446771,2.23080997 5.92341532,2.78186236 5.92341532,3.46161993 L5.92341532,4.6924299 C5.92341532,5.37218747 6.47446771,5.92323986 7.15422528,5.92323986 L10.8466552,5.92323986 Z M13.9236801,12.0772897 C12.9040437,12.0772897 12.0774651,12.9038683 12.0774651,13.9235046 C12.0774651,14.943141 12.9040437,15.7697196 13.9236801,15.7697196 C14.9433165,15.7697196 15.769895,14.943141 15.769895,13.9235046 C15.769895,12.9038683 14.9433165,12.0772897 13.9236801,12.0772897 Z" id="形状" fill="#FFFFFF" fill-rule="nonzero"></path>
                <rect id="矩形" x="0" y="0" width="18" height="18"></rect>
            </g>
        </g>
    </g>
</svg>