<?xml version="1.0" encoding="UTF-8"?>
<svg width="19px" height="18px" viewBox="0 0 19 18" version="1.1" xmlns="http://www.w3.org/2000/svg" xmlns:xlink="http://www.w3.org/1999/xlink">
    <title>编组 41</title>
    <g id="页面-1" stroke="none" stroke-width="1" fill="none" fill-rule="evenodd">
        <g id="图标2" transform="translate(-949.000000, -158.000000)" fill="#FFFFFF" fill-rule="nonzero">
            <g id="编组-41" transform="translate(949.700000, 158.000000)">
                <path d="M9.18203125,0 L16.2695313,1.35 C16.6070313,1.4625 16.8320313,1.6875 16.7195313,2.025 L16.7195313,2.025 L16.7195313,10.35 C16.7195313,11.5875 16.2695313,12.825 15.4820313,13.95 C14.8070313,14.85 14.0195313,15.6375 12.8945313,16.3125 C11.0945313,17.4375 9.29453125,18 9.18203125,18 L9.18203125,18 L8.84453125,18 C8.73203125,18 6.93203125,17.4375 5.13203125,16.3125 C4.00703125,15.6375 3.21953125,14.85 2.54453125,13.95 C1.75703125,12.9375 1.30703125,11.7 1.30703125,10.35 L1.30703125,10.35 L1.30703125,2.025 C1.30703125,1.6875 1.53203125,1.35 1.86953125,1.35 L1.86953125,1.35 L8.95703125,0 L9.18203125,0 Z M9.18203125,1.4625 L9.06953125,1.4625 L2.76953125,2.5875 C2.65703125,2.5875 2.65703125,2.5875 2.65703125,2.7 L2.65703125,10.35 C2.65703125,13.05 4.79453125,15.1875 9.06953125,16.65 L9.06953125,16.65 L9.18203125,16.65 C10.4195313,16.2 11.4320313,15.75 12.3320313,15.1875 C14.3570313,13.8375 15.4820313,12.2625 15.4820313,10.35 L15.4820313,10.35 L15.4820313,2.7 C15.4820313,2.7 15.4820313,2.5875 15.3695313,2.5875 L15.3695313,2.5875 L9.18203125,1.4625 Z M12.4445313,6.525 C12.7820313,6.3 13.2320313,6.3 13.3445313,6.6375 C13.5695313,6.8625 13.5695313,7.3125 13.2320313,7.5375 L13.2320313,7.5375 L8.16953125,11.475 C8.05703125,11.5875 7.94453125,11.5875 7.71953125,11.5875 C7.60703125,11.5875 7.49453125,11.5875 7.38203125,11.475 L7.38203125,11.475 L4.90703125,9.5625 C4.56953125,9.3375 4.56953125,8.8875 4.79453125,8.6625 C5.01953125,8.325 5.35703125,8.325 5.69453125,8.55 L5.69453125,8.55 L7.83203125,10.125 Z" id="形状结合"></path>
            </g>
        </g>
    </g>
</svg>