<?xml version="1.0" encoding="UTF-8"?>
<svg width="18px" height="18px" viewBox="0 0 18 18" version="1.1" xmlns="http://www.w3.org/2000/svg" xmlns:xlink="http://www.w3.org/1999/xlink">
    <title>收益备份</title>
    <g id="页面-1" stroke="none" stroke-width="1" fill="none" fill-rule="evenodd">
        <g id="储能管理-图标" transform="translate(-124.000000, -376.000000)">
            <g id="收益备份" transform="translate(124.000000, 376.000000)">
                <path d="M7.28923593,1.66766875 C8.2255837,0.829883898 9.68895359,0.829883898 10.6494885,1.69054947 L10.6494885,1.69054947 L10.6857059,1.71841464 C10.7400136,1.74964881 10.8193171,1.75492633 10.9347105,1.70689879 L10.9347105,1.70689879 L11.107589,1.64349971 C11.7909009,1.41630517 12.3770675,1.50675905 12.9121962,1.94463479 C13.3170395,2.26850948 13.4477947,2.66077492 13.3558728,3.35018912 L13.3558728,3.35018912 L13.330346,3.46062754 L13.3059287,3.52829071 L13.2561579,3.75139609 C13.2341008,3.83819307 13.206219,3.92261703 13.1602517,4.03667341 C12.9639794,4.47828608 12.6399241,4.91408461 12.1243429,5.37371222 L12.1243429,5.37371222 L12.044,5.427 L12.0257364,5.46552529 C12.016985,5.49701324 12.0201086,5.53111968 12.0351381,5.56233333 L12.0351381,5.56233333 L12.0666156,5.60629532 L12.5226969,5.83454008 L13.238037,6.2141025 C15.1239334,7.25736438 16.0883029,8.57241369 16.7673541,10.9692224 C17.0869821,12.0479669 17.1378144,13.2171083 16.9342696,14.438092 C16.8536118,14.9623673 16.6943972,15.3763254 16.4174331,15.8169366 C15.8135095,16.6531385 15.0329412,17.0725483 14.0290919,17.0725483 L14.0290919,17.0725483 L3.96003108,17.0725483 C2.64098535,17.0725483 1.47096804,16.1778292 1.14435127,14.917665 C0.931514326,14.151452 0.859738049,13.3311517 0.937400389,12.4785098 C1.13877422,9.53845196 3.06190393,6.84151858 5.80624474,5.63077998 L5.80398128,5.6311613 L5.681,5.688 L5.71378567,5.66153096 L5.79874712,5.61044313 L5.825,5.601 L5.90882465,5.5494882 L5.9209494,5.54857554 L5.91902831,5.56738417 C5.92944119,5.53093909 5.92882263,5.52881831 5.88521452,5.4852102 L5.88521452,5.4852102 L5.53296117,5.13227884 C4.99254545,4.54682848 4.68322199,3.90608702 4.59246137,3.13044469 C4.53217799,2.34676081 5.12678418,1.73357319 5.80901056,1.6124848 L5.80901056,1.6124848 L5.97723066,1.57391168 C6.31437873,1.51539776 6.65573866,1.56781808 7.00067548,1.71569788 C7.10579472,1.76241754 7.19733323,1.74626368 7.29883802,1.65925957 L7.29883802,1.65925957 Z M9.82514753,2.56195832 C9.34436823,2.13178737 8.57016906,2.13178737 8.08938976,2.56195832 L8.08938976,2.56195832 L7.96621641,2.65951862 C7.53998131,2.96496708 7.01022237,3.03311712 6.52064082,2.81547182 L6.52064082,2.81547182 L6.43079048,2.78186554 C6.31512665,2.74576556 6.21252504,2.74460951 6.08117449,2.77972112 C5.89756205,2.8131052 5.7808538,2.93346058 5.78658442,3.01432205 C5.84443685,3.50606768 6.04124232,3.91373615 6.3981073,4.3010467 L6.3981073,4.3010467 L6.73374266,4.63668206 C7.0762249,4.97916431 7.20700189,5.42754257 7.06515266,5.92195351 C7.00417971,6.10487236 6.87260798,6.28942093 6.70065377,6.44303426 L6.70065377,6.44303426 L6.648,6.485 L6.64842887,6.5708214 L6.29061299,6.72868134 C3.950963,7.76087987 2.30526364,10.0687541 2.13353385,12.5738311 C2.06783721,13.2964941 2.12687101,13.9711661 2.30326016,14.6065014 C2.49463669,15.3446681 3.18494166,15.8725483 3.96003108,15.8725483 L3.96003108,15.8725483 L14.0290919,15.8725483 C14.6381569,15.8725483 15.0611915,15.6452461 15.4222266,15.1476429 C15.592792,14.8747382 15.6930972,14.6139448 15.7494102,14.2482183 C15.9253227,13.1927436 15.8824519,12.2067156 15.6147992,11.303237 C15.0169342,9.19312499 14.2475093,8.14390921 12.679272,7.27577924 L12.679272,7.27577924 L11.9760577,6.90291041 C11.8949276,6.86043861 11.8242959,6.82429204 11.7619779,6.79352128 L11.7619779,6.79352128 L11.5977803,6.71638698 L11.5286761,6.68104778 C11.4121436,6.61913991 11.3145364,6.55127238 11.2180875,6.45482346 C10.7454867,5.98222275 10.6851279,5.23779681 11.1435018,4.63668206 L11.1435018,4.63668206 L11.2553803,4.52480361 L11.3468242,4.4498375 L11.3879191,4.430518 C11.7133926,4.13463305 11.9374561,3.83330627 12.0548788,3.57015593 C12.0803244,3.5065418 12.0904135,3.47212587 12.1029369,3.41319221 L12.1029369,3.41319221 L12.1196217,3.33362861 L12.1546333,3.19303268 L12.174,3.132 L12.1960362,2.97582608 C12.2023315,2.91854358 12.1968324,2.90876656 12.1743109,2.89077574 L12.1743109,2.89077574 L12.0829842,2.82157224 C11.8876875,2.6889144 11.7114211,2.68864678 11.3883141,2.81783096 L11.3883141,2.81783096 L11.2467684,2.86976427 C10.68291,3.04891133 10.1517218,2.88973855 9.82514753,2.56195832 Z M7.83848412,8.23083564 L8.95726865,9.57337707 L10.0760532,8.23083564 C10.2625173,8.00707873 10.6354454,7.96978591 10.8592023,8.15625 C11.0829593,8.34271409 11.1202521,8.71564227 10.933788,8.93939917 L9.74998128,10.3191613 L11.2321305,10.3192334 C11.5304731,10.3192334 11.7915228,10.5802831 11.7915228,10.8786257 C11.7915228,11.1769682 11.5304731,11.438018 11.1948377,11.438018 L9.51598128,11.4371613 L9.51598128,12.0711613 L11.2321305,12.0719959 C11.5304731,12.0719959 11.7915228,12.3330456 11.7915228,12.6313881 C11.7915228,12.9297307 11.5304731,13.1907804 11.1948377,13.1907804 L9.51598128,13.1901613 L9.51666091,14.0485152 C9.51666091,14.3468577 9.25561119,14.6079075 8.95726865,14.6079075 C8.6589261,14.6079075 8.39787638,14.3468577 8.39787638,14.0485152 L8.39698128,13.1901613 L6.71969959,13.1907804 C6.42135704,13.1907804 6.16030732,12.9297307 6.16030732,12.6313881 C6.16030732,12.3330456 6.42135704,12.0719959 6.71969959,12.0719959 L8.39698128,12.0711613 L8.39698128,11.4371613 L6.71969959,11.438018 C6.42135704,11.438018 6.16030732,11.1769682 6.16030732,10.8786257 C6.16030732,10.5802831 6.42135704,10.3192334 6.71969959,10.3192334 L8.16398128,10.3191613 L6.98074931,8.93939917 C6.79428522,8.71564227 6.79428522,8.34271409 7.05533494,8.15625 C7.27909185,7.96978591 7.65202003,7.96978591 7.83848412,8.23083564 Z" id="形状结合" fill="#FFFFFF" fill-rule="nonzero"></path>
                <rect id="矩形" x="0" y="0" width="18" height="18"></rect>
            </g>
        </g>
    </g>
</svg>