<?xml version="1.0" encoding="UTF-8"?>
<svg width="18px" height="18px" viewBox="0 0 18 18" version="1.1" xmlns="http://www.w3.org/2000/svg" xmlns:xlink="http://www.w3.org/1999/xlink">
    <title>网关 (1)</title>
    <g id="页面-1" stroke="none" stroke-width="1" fill="none" fill-rule="evenodd">
        <g id="运行监控-图标" transform="translate(-132.000000, -145.000000)">
            <g id="网关-(1)" transform="translate(132.000000, 145.000000)">
                <path d="M15.6358929,1 C16.2944196,1 16.8464732,1.49755134 16.9146964,2.15252232 L17.9721964,12.3041406 C17.9907373,12.3920268 18,12.481608 18,12.5714286 L18,15.1428571 C18,15.852933 17.4243616,16.4285714 16.7142857,16.4285714 L1.28571429,16.4285714 C0.575638393,16.4285714 0,15.852933 0,15.1428571 L0,12.5714286 C0,12.4797009 0.00960267857,12.3902232 0.0278638393,12.3039397 L1.08530357,2.15250223 C1.15352679,1.49755134 1.70560045,1 2.36410714,1 L15.6358929,1 Z M16.7142857,12.5714286 L1.28571429,12.5714286 L1.28571429,15.1428571 L16.7142857,15.1428571 L16.7142857,12.5714286 Z M15.4285714,13.2142857 C15.8181818,13.2142857 16.0306966,13.3913813 16.0661157,13.7455726 L16.0714286,13.8571429 C16.0714286,14.2857143 15.8571429,14.5 15.4285714,14.5 L13.5,14.5 C13.1103896,14.5 12.8978749,14.3229044 12.8624557,13.9687131 L12.8571429,13.8571429 C12.8571429,13.4285714 13.0714286,13.2142857 13.5,13.2142857 L15.4285714,13.2142857 Z M11.7321429,13.2142857 C12.1217532,13.2142857 12.334268,13.3913813 12.3696871,13.7455726 L12.375,13.8571429 C12.375,14.2857143 12.1607143,14.5 11.7321429,14.5 L11.3303571,14.5 C10.9407468,14.5 10.728232,14.3229044 10.6928129,13.9687131 L10.6875,13.8571429 C10.6875,13.4285714 10.9017857,13.2142857 11.3303571,13.2142857 L11.7321429,13.2142857 Z M9.5625,13.2142857 C9.95211039,13.2142857 10.1646251,13.3913813 10.2000443,13.7455726 L10.2053571,13.8571429 C10.2053571,14.2857143 9.99107143,14.5 9.5625,14.5 L9.16071429,14.5 C8.7711039,14.5 8.55858914,14.3229044 8.52317001,13.9687131 L8.51785714,13.8571429 C8.51785714,13.4285714 8.73214286,13.2142857 9.16071429,13.2142857 L9.5625,13.2142857 Z M15.6358929,2.28571429 L2.36410714,2.28571429 L1.42658036,11.2857143 L16.5733996,11.2857143 L15.6358929,2.28571429 Z M10.5202857,4.00143653 C10.7543797,3.98556707 10.9776412,4.10214575 11.0984083,4.30331028 L12.4952775,6.63142569 L12.8749635,6.12486528 C13.0089289,5.94620872 13.2280348,5.8525993 13.4497369,5.87930276 C13.671439,5.90600623 13.8620509,6.04896514 13.9497628,6.25432218 C14.0374747,6.45967922 14.0089594,6.69623158 13.8749594,6.87486219 L12.9374632,8.12485704 C12.8126077,8.29133422 12.6130838,8.38475066 12.4052651,8.3740306 C12.1974463,8.36331053 12.0085934,8.24986019 11.90153,8.07141976 L10.6552851,5.99455332 L9.26185336,9.24610242 C9.16594031,9.46974078 8.94894553,9.61737835 8.70571129,9.62448693 C8.46247705,9.63159552 8.2372305,9.49688256 8.12842053,9.2792273 L6.90686306,6.83642485 L6.10249137,7.46204727 C5.99276177,7.54735014 5.85772916,7.5936439 5.71874296,7.59360924 L4.62499746,7.59360924 C4.40170738,7.59360925 4.19537883,7.47448541 4.08373378,7.28111053 C3.97208874,7.08773565 3.97208874,6.84948797 4.08373378,6.65611308 C4.19537883,6.4627382 4.40170738,6.34361437 4.62499746,6.34361438 L5.50436884,6.34361438 L6.74123874,5.38143084 C6.88907449,5.26645796 7.08067712,5.22383944 7.2633099,5.26530561 C7.44594267,5.30677179 7.60035535,5.42795195 7.68404736,5.59549246 L8.64373091,7.51517206 L9.98810037,4.37862247 C10.0806138,4.16295163 10.2861456,4.0172811 10.5202857,4.00143653 Z" id="形状结合" fill="#FFFFFF" fill-rule="nonzero"></path>
                <rect id="矩形" x="0" y="0" width="18" height="18"></rect>
            </g>
        </g>
    </g>
</svg>