<?xml version="1.0" encoding="UTF-8"?>
<svg width="18px" height="18px" viewBox="0 0 18 18" version="1.1" xmlns="http://www.w3.org/2000/svg" xmlns:xlink="http://www.w3.org/1999/xlink">
    <title>智能分析</title>
    <g id="页面-1" stroke="none" stroke-width="1" fill="none" fill-rule="evenodd">
        <g id="运行监控-图标" transform="translate(-132.000000, -217.000000)" fill="#FFFFFF" fill-rule="nonzero">
            <g id="智能分析" transform="translate(132.000000, 217.000000)">
                <path d="M8.21884356,0.207017209 C4.88168449,0.207017209 1.91421534,2.19553386 0.647042095,5.18810524 C0.496748545,5.54325689 0.662818853,5.95300119 1.01797051,6.10329474 C1.37312217,6.25358829 1.78286646,6.08751798 1.93317158,5.732339 C2.98282249,3.25298298 5.44551979,1.60342441 8.21929267,1.60342441 C11.9822121,1.60342441 15.0273765,4.61123444 15.0273765,8.31540045 C15.0273765,12.0194152 11.9819159,15.0273765 8.2199192,15.0273755 C5.90388265,15.0346309 3.74215585,13.8670197 2.47810878,11.9258262 C2.26625191,11.5989614 2.08371599,11.2552415 1.93272885,10.8980279 C1.7823347,10.5428663 1.37250081,10.3768695 1.01733924,10.5272637 C0.662177674,10.6776578 0.496180882,11.0874917 0.646564184,11.4426277 C0.829873408,11.8753518 1.05070256,12.2912027 1.30639922,12.6852285 C2.82725932,15.0229839 5.42944554,16.4304588 8.21925126,16.4237841 C9.98459001,16.4273828 11.7012922,15.8636214 13.1181801,14.8203301 L13.3802717,14.619115 L13.5200666,14.5072644 L16.5792269,17.5668932 C16.7557189,17.7432604 17.012895,17.8120731 17.2538794,17.7474102 C17.4948639,17.6827473 17.6830455,17.4944326 17.747538,17.2534025 C17.8028173,17.0468052 17.7600245,16.8283814 17.6354947,16.6590944 L17.5664941,16.5788278 L14.510891,13.5232248 L14.6244634,13.3832495 C15.782689,11.9557635 16.4237837,10.1857106 16.4237837,8.31540045 C16.4237837,3.8341156 12.7480222,0.207017209 8.21884356,0.207017209 Z M9.48833776,4.25090517 L9.39102957,4.25072252 C9.16216019,4.26621042 8.95775955,4.39273883 8.84101464,4.58549925 L8.79653201,4.67203524 L6.69460892,9.57603388 L5.12255945,6.43142302 C5.02906456,6.24425843 4.85656547,6.10888439 4.65254086,6.06256127 C4.48252034,6.02395867 4.30554115,6.05058771 4.15570894,6.13485553 L4.06934009,6.19227213 L2.29179519,7.57505655 L2.16899326,7.61719685 L0.9052208,7.61719685 C0.655776672,7.61719684 0.425280788,7.75027369 0.300558721,7.96629864 C0.175836654,8.18232359 0.175836654,8.44847731 0.300558721,8.66450226 C0.40746335,8.8496665 0.592079354,8.97388928 0.799729411,9.00560264 L0.905220808,9.01360405 L2.47712698,9.01360406 C2.59357625,9.01363309 2.70754115,8.98455001 2.80894389,8.92981679 L2.90578598,8.86666173 L4.25433494,7.81779033 L6.11899229,11.546628 C6.24054721,11.7897773 6.49217698,11.9402693 6.76390132,11.9323281 C7.00166013,11.9253795 7.21697625,11.7982361 7.33885588,11.5992246 L7.38516243,11.5096747 L9.54177698,6.47725169 L11.5340551,9.7973821 C11.6536589,9.99672332 11.8646321,10.1234621 12.0967928,10.1354379 C12.2957877,10.1457027 12.4879744,10.0704977 12.6266603,9.93168367 L12.6913286,9.85707709 L14.0386456,8.06065442 C14.1883411,7.86110073 14.2201965,7.59684092 14.1222108,7.36743034 C14.0242252,7.13801975 13.8112869,6.97831601 13.5636167,6.94848476 C13.351328,6.92291512 13.1411701,6.99609213 12.991228,7.14318631 L12.9215438,7.22277821 L12.1974329,8.18885532 L10.0368917,4.58795324 C9.9357072,4.41940799 9.77011676,4.30401529 9.5833095,4.2643328 L9.48833776,4.25090517 Z" id="形状"></path>
            </g>
        </g>
    </g>
</svg>