<?xml version="1.0" encoding="UTF-8"?>
<svg width="18px" height="18px" viewBox="0 0 18 18" version="1.1" xmlns="http://www.w3.org/2000/svg" xmlns:xlink="http://www.w3.org/1999/xlink">
    <title>形状结合 3</title>
    <g id="页面-1" stroke="none" stroke-width="1" fill="none" fill-rule="evenodd">
        <g id="运行监控-图标" transform="translate(-132.000000, -115.000000)" fill="#FFFFFF" fill-rule="nonzero">
            <g id="形状结合-3" transform="translate(132.000000, 115.000000)">
                <path d="M9,-1.07469589e-12 C13.970625,-1.07469589e-12 18,4.01369531 18,8.96484375 C18,13.9159922 13.970625,17.9296875 9,17.9296875 C4.029375,17.9296875 1.3500312e-13,13.9159922 1.3500312e-13,8.96484375 C1.3500312e-13,4.01369531 4.029375,-1.07469589e-12 9,-1.07469589e-12 Z M9,1.4296875 C4.85789063,1.4296875 1.5,4.78755469 1.5,8.9296875 C1.5,13.0718203 4.85789063,16.4296875 9,16.4296875 C13.1421094,16.4296875 16.5,13.0718203 16.5,8.9296875 C16.5,4.78755469 13.1421094,1.4296875 9,1.4296875 Z M9.421875,2.1328125 L9.42190346,2.92085434 C12.4304698,3.12985595 14.8283418,5.55696312 14.9911791,8.57811291 L15.7734375,8.578125 L15.7734375,9.4453125 L14.9760888,9.44557074 C14.7157356,12.3679615 12.3600373,14.6875369 9.42190346,14.8916457 L9.421875,15.796875 L8.5546875,15.796875 L8.5542161,14.8899392 C5.62720686,14.6749571 3.28355866,12.3600398 3.02391118,9.44557074 L2.3203125,9.4453125 L2.3203125,8.578125 L3.00882085,8.57811291 C3.17122718,5.56496087 5.55685035,3.14271045 8.5542161,2.92256079 L8.5546875,2.1328125 L9.421875,2.1328125 Z M9,4.40625 C6.5146875,4.40625 4.5,6.42096094 4.5,8.90625 C4.5,11.3915391 6.5146875,13.40625 9,13.40625 C11.4853125,13.40625 13.5,11.3915391 13.5,8.90625 C13.5,6.42096094 11.4853125,4.40625 9,4.40625 Z M11.5078125,6.26603906 L12.6698438,7.19955469 L9.67125,11.8392891 L9.266,11.563 L6.818,9.977 L6.40851562,10.7814609 L5.1,10.0011562 L6.28617187,7.76676562 L7.524375,8.59394531 L9.256,9.738 L11.5078125,6.26603906 Z" id="形状结合"></path>
            </g>
        </g>
    </g>
</svg>