<?xml version="1.0" encoding="UTF-8"?>
<svg width="18px" height="18px" viewBox="0 0 18 18" version="1.1" xmlns="http://www.w3.org/2000/svg" xmlns:xlink="http://www.w3.org/1999/xlink">
    <title>编组 42</title>
    <g id="页面-1" stroke="none" stroke-width="1" fill="none" fill-rule="evenodd">
        <g id="图标2" transform="translate(-7.000000, -173.000000)">
            <g id="编组-42" transform="translate(7.000000, 173.000000)">
                <path d="M15.0632979,4.13891144e-13 C16.0530585,4.13891144e-13 16.8585106,0.805452128 16.8585106,1.79521277 L16.8585106,1.79521277 L16.8585106,16.1569149 C16.8585106,17.1466755 16.0530585,17.9521277 15.0632979,17.9521277 L15.0632979,17.9521277 L3.09521277,17.9521277 C2.10545213,17.9521277 1.3,17.1466755 1.3,16.1569149 L1.3,16.1569149 L1.3,1.79521277 C1.3,0.805452128 2.10545213,4.13891144e-13 3.09521277,4.13891144e-13 L3.09521277,4.13891144e-13 Z M4.29202128,1.19680851 L3.09521277,1.19680851 C2.76549202,1.19680851 2.49680851,1.46549202 2.49680851,1.79521277 L2.49680851,1.79521277 L2.49680851,16.1569149 C2.49680851,16.487234 2.76549202,16.7553191 3.09521277,16.7553191 L3.09521277,16.7553191 L15.0632979,16.7553191 C15.3937874,16.7553191 15.6617021,16.4874044 15.6617021,16.1569149 L15.6617021,16.1569149 L15.6617021,1.79521277 C15.6617021,1.46549202 15.393617,1.19680851 15.0632979,1.19680851 L15.0632979,1.19680851 L13.8664894,1.19680851 L13.8664894,2.99202128 C13.8664894,3.65206117 13.3297207,4.18882979 12.6696809,4.18882979 L12.6696809,4.18882979 L5.48882979,4.18882979 C4.82878989,4.18882979 4.29202128,3.65206117 4.29202128,2.99202128 L4.29202128,2.99202128 L4.29202128,1.19680851 Z M9.14366197,6.36549296 C10.0309859,5.47816901 11.6788732,5.47816901 12.5661972,6.36549296 C12.9464789,6.74577465 13.2,7.37957746 13.2,8.01338028 C13.2,8.77394366 12.9464789,9.40774648 12.4394366,9.91478873 L12.4394366,9.91478873 L8.0028169,14.3514085 C7.87605634,14.478169 7.87605634,14.478169 7.74929577,14.478169 L7.74929577,14.478169 L4.96056338,14.6049296 L4.73254219,14.60456 C4.54406439,14.6023426 4.43541247,14.5868209 4.32676056,14.478169 C4.2,14.3514085 4.2,14.2246479 4.2,13.9711268 L4.2,13.9711268 L4.58028169,11.0556338 C4.58028169,10.9288732 4.70704225,10.9288732 4.70704225,10.8021127 L4.70704225,10.8021127 L8.50985915,6.87253521 Z M5.5943662,12.5767606 L5.46760563,13.4640845 L6.22816901,13.2105634 L5.5943662,12.5767606 Z M9.01690141,8.26690141 L5.97464789,11.3091549 L7.62253521,12.9570423 L10.6647887,9.91478873 L9.01690141,8.26690141 Z M11.8056338,7.12605634 C11.2985915,6.74577465 10.5380282,6.74577465 10.0309859,7.2528169 L10.0309859,7.2528169 L11.0450704,8.39366197 L11.5521127,9.02746479 L11.6788732,8.90070423 C11.9323944,8.6471831 12.0591549,8.26690141 12.0591549,7.88661972 C12.0591549,7.63309859 12.0591549,7.37957746 11.8056338,7.12605634 Z M12.6696809,1.19680851 L5.48882979,1.19680851 L5.48882979,2.99202128 L12.6696809,2.99202128 L12.6696809,1.19680851 Z" id="形状结合" fill="#FFFFFF" fill-rule="nonzero"></path>
                <rect id="矩形" x="0" y="0" width="18" height="18"></rect>
            </g>
        </g>
    </g>
</svg>