<?xml version="1.0" encoding="UTF-8"?>
<svg width="18px" height="18px" viewBox="0 0 18 18" version="1.1" xmlns="http://www.w3.org/2000/svg" xmlns:xlink="http://www.w3.org/1999/xlink">
    <title>icon_终末整改管理</title>
    <g id="页面-1" stroke="none" stroke-width="1" fill="none" fill-rule="evenodd">
        <g id="储能管理-图标" transform="translate(-124.000000, -183.000000)" fill="#FFFFFF" fill-rule="nonzero">
            <g id="icon_终末整改管理" transform="translate(124.000000, 183.000000)">
                <path d="M3.00974282,15.0969062 L6.67536142,15.0969062 C6.73482827,15.0969062 6.76468472,15.1395583 6.76468472,15.2248624 L6.76468472,16.2487585 C6.76468472,16.3340627 6.73482825,16.3767148 6.67536142,16.3767148 L3.00974282,16.3767148 C2.95027597,16.3767148 2.92041951,16.3340627 2.92041951,16.2487585 L2.92041951,15.2248624 C2.92041951,15.1395583 2.95027597,15.0969062 3.00974282,15.0969062 Z M8.89724796,9.71548445 L8.8678016,9.65536142 L6.96802033,5.76028281 L5.9757442,7.48625684 L5.97393968,7.48502649 L5.97393968,7.48884057 L2.80620216,7.48884057 L2.80620216,6.3800504 L5.32735048,6.3800504 L6.60793831,4.16226504 L6.99082279,4.16226504 L6.99184808,4.16349538 L7.429196,4.16349538 L9.37864234,8.17033065 L10.4097565,6.38304426 L10.4097565,6.37984536 L13.5777401,6.37984536 L13.5777401,7.48863551 L11.0545412,7.48863551 L9.77575786,9.71466422 L9.44733681,9.71466422 L9.44692669,9.71507433 L8.89724796,9.71548445 L8.89724796,9.71548445 Z" id="形状"></path>
                <path d="M6.76447967,12.5368789 L1.26072027,12.5368789 L1.26072027,2.28458903 L15.3612944,2.28458903 L15.3612944,8.02199164 L16.6392985,8.02199164 L16.6392985,1.98561432 C16.6392985,1.4459014 16.2085535,1.00855348 15.677494,1.00855348 L0.967364146,1.00855348 C0.436099621,1.00855348 0.00555964286,1.4459014 0.00555964286,1.98561432 L0.00555964286,12.8150196 C0.00555964286,13.3547326 0.436304682,13.7920805 0.967364146,13.7920805 L6.76452067,13.7920805 L6.76452067,12.5368789 L6.76447967,12.5368789 Z" id="路径"></path>
                <path d="M14.7207749,9.29302375 C14.8331058,9.2931878 14.9240695,9.38255212 14.9240695,9.49275034 L14.9240695,9.77167037 C14.9240695,10.3094147 15.3583006,10.7470497 15.8920258,10.7470497 C16.061937,10.7470497 16.2286902,10.702183 16.3748146,10.6172069 L16.623468,10.4724359 L16.6265849,10.4707134 C16.7242336,10.416168 16.8484578,10.4494284 16.9043156,10.5450675 L17.9395309,12.3237415 C17.9948556,12.4187244 17.9618823,12.5396676 17.865669,12.5949513 L17.6229622,12.7347599 C17.1532972,13.0058877 16.9922035,13.596414 17.2609937,14.0613628 C17.345965,14.207797 17.4682664,14.3290653 17.6154161,14.4127914 L17.8596813,14.5519028 C17.9564687,14.6068583 17.9898522,14.7281707 17.9344865,14.8234407 L16.9001324,16.6010894 L16.9001324,16.6021147 C16.8728718,16.6485683 16.8282516,16.6822695 16.7761133,16.6957852 C16.7237211,16.7095282 16.6680282,16.7021653 16.6210073,16.6752794 L16.3730511,16.5349786 L16.3632083,16.5294831 C16.1402759,16.4055808 15.877811,16.3735065 15.631602,16.4400778 C15.3853272,16.5066806 15.176086,16.6665439 15.0499342,16.8844797 C14.9652164,17.0311789 14.920869,17.1977011 14.9214038,17.3671044 L14.9214038,17.6465576 C14.9213715,17.6998472 14.8998251,17.7508666 14.8616499,17.7880477 C14.8230175,17.8256485 14.7711572,17.8465634 14.717248,17.8462869 L12.6450538,17.8462869 C12.5329281,17.8464892 12.4417182,17.7576991 12.441062,17.6477469 L12.4396676,17.3703853 C12.4396676,17.1125453 12.3361953,16.8650402 12.151602,16.6814721 C11.8467626,16.3746232 11.3677059,16.3115473 10.9911782,16.5287859 L10.7426888,16.6725316 L10.7402281,16.673926 C10.6425795,16.7285125 10.5182322,16.695129 10.4625385,16.5993669 L9.42802033,14.8222514 C9.37273666,14.7273915 9.40542293,14.6065302 9.50139012,14.5510415 L9.74319464,14.4112329 C10.2112603,14.1394489 10.3712876,13.5501119 10.1030306,13.0859834 C10.0174988,12.9387773 9.89424567,12.8170531 9.74598343,12.7333655 L9.50085696,12.5944181 C9.40365943,12.5395446 9.37002989,12.4178631 9.42572369,12.3223881 L10.4607749,10.5443703 L10.4620053,10.5423197 C10.5186424,10.4470908 10.6432767,10.4148556 10.7404332,10.4703443 L10.9878563,10.6115473 L11.0004469,10.6187654 C11.223486,10.7425976 11.4860331,10.7745406 11.7322582,10.7078016 C11.978574,10.6411167 12.1877333,10.4810894 12.313762,10.2630716 C12.4001468,10.115116 12.445031,9.94660186 12.4436868,9.77527939 L12.4413901,9.49430878 L12.4413901,9.49275034 C12.4413901,9.38242909 12.5325589,9.29302375 12.6450538,9.29302375 L14.7207749,9.29302375 Z M14.1388611,10.0933655 L13.2302486,10.0933655 C13.1939852,10.2930209 13.1231771,10.4848217 13.0210073,10.6601461 C12.5945275,11.3959356 11.6907544,11.7248077 10.8782322,11.4399 L10.4210347,12.226708 C10.5771957,12.3575609 10.7095375,12.5144479 10.8122035,12.6904264 C11.2390525,13.4286355 11.0753751,14.3595993 10.4211987,14.9149786 L10.8783963,15.7028119 C11.5265029,15.4756075 12.2501529,15.6389158 12.7319164,16.1210484 C12.9875829,16.3745002 13.1592575,16.6977538 13.224466,17.0484851 L14.135006,17.0484851 C14.1717844,16.851669 14.2419701,16.6625974 14.3425248,16.4894557 C14.7680613,15.7541994 15.670317,15.424671 16.4825111,15.7077743 L16.9412671,14.9191208 C16.7862645,14.7885505 16.6549835,14.6321843 16.5532151,14.4569198 C16.1187791,13.7106724 16.3033723,12.7733929 16.9473778,12.2299889 L16.489319,11.4442063 C16.2974753,11.5122813 16.0954255,11.5471351 15.8918618,11.5472684 C15.0191345,11.5472684 14.2906861,10.9193395 14.1388611,10.0933655 L14.1388611,10.0933655 Z" id="形状"></path>
                <path d="M13.7235364,12.0027435 C14.6180819,12.0037278 15.3430443,12.7286082 15.3441106,13.6231126 C15.3441935,14.2785923 14.9494059,14.8695754 14.3438454,15.1204741 C13.7382849,15.3713728 13.0412134,15.232774 12.5776899,14.7693092 C12.1141664,14.3058443 11.9754794,13.6087904 12.2263015,13.0031982 C12.4771236,12.3976059 13.0680567,12.0027435 13.7235364,12.0027435 L13.7235364,12.0027435 Z M13.7235364,12.7047394 C13.2158946,12.7047394 12.804384,13.11625 12.804384,13.6238918 C12.804384,14.1315337 13.2158946,14.5430443 13.7235364,14.5430443 C14.2311782,14.5430443 14.6426888,14.1315337 14.6426888,13.6238918 C14.6426888,13.11625 14.2311782,12.7047394 13.7235364,12.7047394 Z" id="形状"></path>
            </g>
        </g>
    </g>
</svg>