<?xml version="1.0" encoding="UTF-8"?>
<svg width="18px" height="18px" viewBox="0 0 18 18" version="1.1" xmlns="http://www.w3.org/2000/svg" xmlns:xlink="http://www.w3.org/1999/xlink">
    <title>编组 37</title>
    <g id="页面-1" stroke="none" stroke-width="1" fill="none" fill-rule="evenodd">
        <g id="运行监控-图标" transform="translate(-132.000000, -179.000000)">
            <g id="编组-37" transform="translate(132.000000, 179.000000)">
                <path d="M15.7625,15.75 C16.1490993,15.75 16.4625,16.0634007 16.4625,16.45 L16.4625,16.4578212 C16.4625,16.8444206 16.1490993,17.1578212 15.7625,17.1578212 L2.1625,17.1578212 C1.77590068,17.1578212 1.4625,16.8444206 1.4625,16.4578212 L1.4625,16.45 C1.4625,16.0634007 1.77590068,15.75 2.1625,15.75 L15.7625,15.75 Z M16.7932961,1 C17.4180875,1 17.9319746,1.47483766 17.9937699,2.08332545 L18,2.20670391 L18,12.2681564 C18,12.8929478 17.5251623,13.406835 16.9166746,13.4686303 L16.7932961,13.4748603 L1.20670391,13.4748603 C0.581912504,13.4748603 0.0680253758,13.0000227 0.00623007626,12.3915349 L0,12.2681564 L0,2.20670391 C0,1.5819125 0.474837665,1.06802538 1.08332545,1.00623008 L1.20670391,1 L16.7932961,1 Z M16.5921788,2.40782123 L1.40782123,2.40782123 L1.40782123,12.0670391 L16.5921788,12.0670391 L16.5921788,2.40782123 Z M9.0042779,3 C10.0647497,3 11.081725,3.42156277 11.8311905,4.17183069 C12.5806559,4.92209861 13.0011308,5.93952439 13.0000041,7 C13.0000041,9.20801726 11.2108669,10.99841 9.00284577,10.9999821 C6.79482467,11.001552 5.0031553,9.21370691 5.00000414,7.00568749 C4.99686128,4.79766807 6.78342707,3.00472304 8.99144368,3 L8.99144368,3 Z M8.99144368,3.85561404 C7.25582676,3.85797061 5.8494187,5.26437867 5.84706211,6.9999956 C5.84706211,8.27177923 6.61316608,9.41833486 7.78814094,9.90502539 C8.96311581,10.3917159 10.3155704,10.122696 11.2148572,9.22340915 C12.114144,8.32412232 12.383164,6.97166775 11.8964735,5.79669288 C11.4097829,4.62171801 10.2632273,3.85561404 8.99144368,3.85561404 Z M8.98288754,5.51550526 L8.982,6.999 L10.4673779,6.9999956 C10.4673779,7.72465564 9.94813918,8.32804097 9.26141469,8.45839873 C9.1711971,8.47552433 9.07808887,8.4844859 8.98288754,8.4844859 L8.90309496,8.480697 L8.90309496,8.480697 L8.98288754,8.48020787 C8.43429269,8.50968991 7.91427049,8.23378013 7.63110687,7.76298944 C7.34794325,7.29219876 7.34794325,6.70351438 7.63110687,6.23272369 C7.91427049,5.76193301 8.43429269,5.48602323 8.98288754,5.51550526 Z" id="形状结合" fill="#FFFFFF" fill-rule="nonzero"></path>
                <rect id="矩形" x="0" y="0" width="18" height="18"></rect>
            </g>
        </g>
    </g>
</svg>