<?xml version="1.0" encoding="UTF-8"?>
<svg width="19px" height="19px" viewBox="0 0 19 19" version="1.1" xmlns="http://www.w3.org/2000/svg" xmlns:xlink="http://www.w3.org/1999/xlink">
    <title>编组</title>
    <g id="页面-1" stroke="none" stroke-width="1" fill="none" fill-rule="evenodd">
        <g id="运行监控-图标" transform="translate(-131.000000, -326.000000)">
            <g id="编组" transform="translate(131.500000, 326.800000)">
                <path d="M14.0362973,0.2 C14.8081827,0.207206712 15.4300811,0.834999875 15.4300811,1.60691892 L15.4300811,1.60691892 L15.4300811,16.3586486 C15.4228744,17.1305341 14.7950812,17.7524324 14.0231622,17.7524324 L14.0231622,17.7524324 L3.91640541,17.7524324 C3.14730594,17.7508268 2.52422726,17.1277481 2.52262162,16.3586486 L2.52262162,16.3586486 L2.52262162,1.59378378 C2.52422726,0.824684315 3.14730594,0.201605641 3.91640541,0.2 L3.91640541,0.2 Z M14.3442432,13.3482703 L3.59381361,13.3482703 L3.59381361,16.3586486 C3.59307782,16.4444306 3.62680688,16.5269281 3.68746642,16.5875876 C3.74812595,16.6482472 3.83062348,16.6819762 3.91640541,16.6812027 L3.91640541,16.6812027 L14.0348378,16.6812027 C14.119356,16.6816848 14.2003627,16.6474206 14.2588722,16.5864272 C14.3173818,16.5254338 14.3482504,16.4430732 14.3442432,16.3586486 L14.3442432,16.3586486 L14.3442432,13.3482703 Z M14.2435405,5.84324324 L3.62013514,5.84324324 L3.62013514,12.2638919 L14.2479189,12.2638919 L14.2435405,5.84324324 Z M13.3649459,6.86194595 L13.3649459,8.54032432 L12.1769459,8.54032432 L12.1769459,11.0316216 L10.2927838,11.0316216 L10.2927838,8.54032432 L7.53002703,8.54032432 L7.53002703,11.0316216 L5.64586486,11.0316216 L5.64586486,8.54032432 L4.58775676,8.54032432 L4.58775676,6.86194595 L13.3649459,6.86194595 Z M14.0231622,1.28436491 L3.91640541,1.28436491 C3.83062348,1.28359134 3.74812595,1.3173204 3.68746642,1.37797993 C3.62680688,1.43863947 3.59307782,1.52113699 3.59383838,1.60691892 L3.59383838,1.60691892 L3.59383838,4.772 L14.3442696,4.772 L14.3442696,1.60691892 C14.3450253,1.5213918 14.3114955,1.43911938 14.2511535,1.37850306 C14.1908115,1.31788673 14.108692,1.28398425 14.0231622,1.28436491 L14.0231622,1.28436491 Z" id="形状结合" fill="#FFFFFF" fill-rule="nonzero"></path>
                <rect id="矩形" x="0" y="0" width="18" height="18"></rect>
            </g>
        </g>
    </g>
</svg>