<?xml version="1.0" encoding="UTF-8"?>
<svg width="18px" height="18px" viewBox="0 0 18 18" version="1.1" xmlns="http://www.w3.org/2000/svg" xmlns:xlink="http://www.w3.org/1999/xlink">
    <title>编组 35</title>
    <g id="页面-1" stroke="none" stroke-width="1" fill="none" fill-rule="evenodd">
        <g id="运行监控-图标" transform="translate(-131.000000, -439.000000)">
            <g id="编组-35" transform="translate(131.000000, 439.000000)">
                <path d="M11.6213497,0 C12.6235088,0 13.4776422,0.641444945 13.7950492,1.53077535 L15.355215,1.53055215 C16.1701843,1.53055215 16.8460124,2.16662577 16.885767,2.98159509 L16.885767,16.4694479 C16.885767,17.2844172 16.2397543,17.9602454 15.424785,18 L2.530552,18 C1.71558267,18 1.0397546,17.3639264 1,16.5489571 L1,3.06110429 C1,2.24613497 1.64601267,1.57030675 2.460982,1.53055215 L4.08077906,1.53077535 C4.39818597,0.641444945 5.25231937,0 6.25447853,0 L6.25447853,0 Z M4.08110535,3.0617947 L2.530552,3.06110429 L2.530552,16.4694479 L15.355215,16.4694479 L15.355215,3.06110429 L13.7947229,3.0617947 C13.4770572,3.95065077 12.6231656,4.59165644 11.6213497,4.59165644 L11.6213497,4.59165644 L6.25447853,4.59165644 C5.25266258,4.59165644 4.39877101,3.95065077 4.08110535,3.0617947 Z M12.6152147,7.87141104 L13.7084663,8.95472393 L8.7192638,13.9240491 C8.42110429,14.2222086 7.93411043,14.2222086 7.63595092,13.9240491 L4.56490798,10.8629448 L5.64822086,9.7796319 L8.17263804,12.2941104 L12.6152147,7.87141104 Z M11.6213497,1.53055215 L6.25447853,1.53055215 C5.82711656,1.53055215 5.48920245,1.87840491 5.48920245,2.29582822 C5.48920245,2.71325153 5.83705521,3.06110429 6.25447853,3.06110429 L6.25447853,3.06110429 L11.6213497,3.06110429 C12.038773,3.06110429 12.3866258,2.71325153 12.3866258,2.29582822 C12.3866258,1.87840491 12.038773,1.53055215 11.6213497,1.53055215 L11.6213497,1.53055215 Z" id="形状结合" fill="#FFFFFF" fill-rule="nonzero"></path>
                <rect id="矩形" x="0" y="0" width="18" height="18"></rect>
            </g>
        </g>
    </g>
</svg>