<?xml version="1.0" encoding="UTF-8"?>
<svg width="18px" height="18px" viewBox="0 0 18 18" version="1.1" xmlns="http://www.w3.org/2000/svg" xmlns:xlink="http://www.w3.org/1999/xlink">
    <title>报警备份 2</title>
    <g id="页面-1" stroke="none" stroke-width="1" fill="none" fill-rule="evenodd">
        <g id="图标3" transform="translate(-98.000000, -409.000000)" fill="#FFFFFF" fill-rule="nonzero">
            <g id="报警备份-2" transform="translate(98.000000, 409.000000)">
                <path d="M13.0646652,4.92689732 C11.9615625,3.82761161 10.4548661,3.21830357 8.89774554,3.23979911 C7.3828125,3.26069196 5.96169643,3.86055804 4.888125,4.93412946 C3.79506696,6.0271875 3.19319196,7.48024554 3.19319196,9.02591518 L3.19319196,15.8110268 L1.47053571,15.8110268 C1.35642857,15.8110268 1.26401786,15.9034375 1.26401786,16.0175446 L1.26401786,16.8902232 C1.26401786,17.0043304 1.35642857,17.0967411 1.47053571,17.0967411 L16.4892857,17.0967411 C16.6033929,17.0967411 16.6958036,17.0043304 16.6958036,16.8902232 L16.6958036,16.0175446 C16.6958036,15.9034375 16.6033929,15.8110268 16.4892857,15.8110268 L14.7666295,15.8110268 L14.7666295,9.02591518 C14.7668304,7.47683036 14.1623437,6.02075893 13.0646652,4.92689732 Z M9.06287946,10.6336607 C8.29988839,10.6824777 7.66848214,10.0508705 7.71709821,9.28787946 C7.75747768,8.65727679 8.26674107,8.14801339 8.89734375,8.10763393 C9.66033482,8.05881696 10.291942,8.69042411 10.243125,9.45341518 C10.2029464,10.083817 9.69348214,10.5932812 9.06287946,10.6336607 Z M9.62296875,11.8398214 C10.7057812,11.5577679 11.5111607,10.5802232 11.5310491,9.41504464 C11.5551563,8.0128125 10.402433,6.83015625 9,6.81930804 C7.58410714,6.80845982 6.42857143,7.95716518 6.42857143,9.37064732 C6.42857143,10.5555134 7.24037946,11.5541518 8.33705357,11.8400223 L8.33705357,15.8112277 L4.47910714,15.8112277 L4.47910714,9.06428571 C4.47910714,6.63368304 6.46654018,4.57011161 8.89674107,4.52591518 C11.4165402,4.48011161 13.4811161,6.5165625 13.4811161,9.02611607 L13.4811161,15.8112277 L9.62296875,15.8112277 L9.62296875,11.8398214 Z M9.41866071,0 L8.54598214,0 C8.431875,0 8.33946429,0.0924107143 8.33946429,0.206517857 L8.33946429,1.91189732 C8.33946429,2.02600446 8.431875,2.11841518 8.54598214,2.11841518 L9.41866071,2.11841518 C9.53276786,2.11841518 9.62517857,2.02600446 9.62517857,1.91189732 L9.62517857,0.206517857 C9.62497768,0.0924107143 9.53256696,0 9.41866071,0 Z M4.438125,3.52607143 L3.08631696,2.17426339 L2.323125,2.93745536 C2.24256696,3.01801339 2.24256696,3.14879464 2.323125,3.22935268 L3.52908482,4.4353125 C3.60964286,4.51587054 3.74042411,4.51587054 3.82098214,4.4353125 L4.438125,3.81816964 C4.51868304,3.73761161 4.51868304,3.60683036 4.438125,3.52607143 Z M1.91189732,8.33524554 L0.206517857,8.33524554 C0.0924107143,8.33524554 0,8.42765625 0,8.54176339 L0,9.41444196 C0,9.52854911 0.0924107143,9.62095982 0.206517857,9.62095982 L1.91189732,9.62095982 C2.02600446,9.62095982 2.11841518,9.52854911 2.11841518,9.41444196 L2.11841518,8.54176339 C2.11841518,8.42785714 2.02600446,8.33524554 1.91189732,8.33524554 Z M15.8420089,8.54578125 L15.8420089,9.41845982 C15.8420089,9.53256696 15.9344196,9.62497768 16.0485268,9.62497768 L17.7539062,9.62497768 C17.8680134,9.62497768 17.9604241,9.53256696 17.9604241,9.41845982 L17.9604241,8.54578125 C17.9604241,8.43167411 17.8680134,8.33926339 17.7539062,8.33926339 L16.0485268,8.33926339 C15.9344196,8.33926339 15.8420089,8.43167411 15.8420089,8.54578125 Z M15.6401116,2.94026786 L15.0229687,2.323125 C14.9424107,2.24256696 14.8116295,2.24256696 14.7310714,2.323125 L13.5251116,3.52888393 C13.4445536,3.60944196 13.4445536,3.74022321 13.5251116,3.82078125 L14.1422545,4.43792411 C14.2228125,4.51848214 14.3535937,4.51848214 14.4341518,4.43792411 L15.6401116,3.23216518 C15.7206696,3.15160714 15.7206696,3.02082589 15.6401116,2.94026786 Z" id="形状"></path>
            </g>
        </g>
    </g>
</svg>