<?xml version="1.0" encoding="UTF-8"?>
<svg width="18px" height="18px" viewBox="0 0 18 18" version="1.1" xmlns="http://www.w3.org/2000/svg" xmlns:xlink="http://www.w3.org/1999/xlink">
    <title>变压器 (6)</title>
    <g id="页面-1" stroke="none" stroke-width="1" fill="none" fill-rule="evenodd">
        <g id="图标3" transform="translate(-98.000000, -590.000000)">
            <g id="变压器-(6)" transform="translate(98.000000, 590.000000)">
                <path d="M13.5,0.8 C13.8063186,0.8 14.0706737,0.996985859 14.1658785,1.29079502 L14.1911741,1.39218006 L14.2,1.5 L14.2,1.8 L15,1.8 C15.5257204,1.8 15.9783427,2.14057103 16.1390027,2.62694191 L16.1729586,2.75145942 L16.192932,2.87193128 L16.2,3 L16.2,4.818 L16.2380208,4.82374934 C16.6582861,4.90879789 17.0023247,5.21505707 17.1384801,5.6253633 L17.1729586,5.75145942 L17.192932,5.87193128 L17.2,6 L17.2,12 C17.2,12.5695304 16.8003021,13.0532721 16.2485406,13.1729586 L16.2,13.18 L16.2,15 C16.2,15.5348883 15.8491849,15.9885665 15.3653127,16.1432768 L15.2416986,16.1755998 L15.184,16.184 L15.1762507,16.2380208 C15.0912021,16.6582861 14.7849429,17.0023247 14.3746367,17.1384801 L14.2485406,17.1729586 L14.1280687,17.192932 L14,17.2 L11,17.2 C10.4304696,17.2 9.9467279,16.8003021 9.82704144,16.2485406 L9.819,16.2 L9.181,16.2 L9.17625066,16.2380208 C9.09120211,16.6582861 8.78494293,17.0023247 8.3746367,17.1384801 L8.24854058,17.1729586 L8.12806872,17.192932 L8,17.2 L5,17.2 C4.4304696,17.2 3.9467279,16.8003021 3.82704144,16.2485406 L3.819,16.2 L3,16.2 C2.47427963,16.2 2.02165732,15.859429 1.86099725,15.3730581 L1.82704144,15.2485406 L1.80706802,15.1280687 L1.8,15 L1.8,13.182 L1.76197918,13.1762507 C1.34171391,13.0912021 0.997675291,12.7849429 0.8615199,12.3746367 L0.827041436,12.2485406 L0.807068019,12.1280687 L0.8,12 L0.8,6 C0.8,5.4304696 1.19969794,4.9467279 1.75145942,4.82704144 L1.8,4.819 L1.8,3 C1.8,2.47427963 2.14057103,2.02165732 2.62694191,1.86099725 L2.75145942,1.82704144 L2.87193128,1.80706802 L3,1.8 L3.8,1.8 L3.8,1.5 C3.8,1.1805248 4.01287046,0.911746181 4.30481793,0.827457591 L4.404879,0.806377889 L4.5,0.8 C4.80631865,0.8 5.07067371,0.996985859 5.16587846,1.29079502 L5.19117408,1.39218006 L5.2,1.5 L5.2,1.8 L6.8,1.8 L6.8,1.5 C6.8,1.1805248 7.01287046,0.911746181 7.30481793,0.827457591 L7.404879,0.806377889 L7.5,0.8 C7.80631865,0.8 8.07067371,0.996985859 8.16587846,1.29079502 L8.19117408,1.39218006 L8.2,1.5 L8.2,1.8 L9.8,1.8 L9.8,1.5 C9.8,1.1805248 10.0128705,0.911746181 10.3048179,0.827457591 L10.404879,0.806377889 L10.5,0.8 C10.8063186,0.8 11.0706737,0.996985859 11.1658785,1.29079502 L11.1911741,1.39218006 L11.2,1.5 L11.2,1.8 L12.8,1.8 L12.8,1.5 C12.8,1.1805248 13.0128705,0.911746181 13.3048179,0.827457591 L13.404879,0.806377889 L13.5,0.8 Z M14.9705882,3 L3.02941176,3 L3.02941176,6.0952381 L2,6.0952381 L2,11.8730159 L3.02941176,11.8730159 L3.02941176,14.968254 L5.08823529,14.968254 L5.08823529,16 L7.76470588,16 L7.76470588,14.968254 L11.2647059,14.968254 L11.2647059,16 L13.9411765,16 L13.9411765,14.968254 L14.9705882,14.968254 L14.9705882,11.8730159 L16,11.8730159 L16,6.0952381 L14.9705882,6.0952381 L14.9705882,3 Z M5.5,4.8 C5.80631865,4.8 6.07067371,4.99698586 6.16587846,5.29079502 L6.19117408,5.39218006 L6.2,5.5 L6.2,12.5 C6.2,12.8872427 5.88724266,13.2 5.5,13.2 C5.19368135,13.2 4.92932629,13.0030141 4.83412154,12.709205 L4.80882592,12.6078199 L4.8,12.5 L4.8,5.5 C4.8,5.11275734 5.11275734,4.8 5.5,4.8 Z M9,4.8 C9.30631865,4.8 9.57067371,4.99698586 9.66587846,5.29079502 L9.69117408,5.39218006 L9.7,5.5 L9.7,12.5 C9.7,12.8872427 9.38724266,13.2 9,13.2 C8.69368135,13.2 8.42932629,13.0030141 8.33412154,12.709205 L8.30882592,12.6078199 L8.3,12.5 L8.3,5.5 C8.3,5.11275734 8.61275734,4.8 9,4.8 Z M12.5,4.8 C12.8063186,4.8 13.0706737,4.99698586 13.1658785,5.29079502 L13.1911741,5.39218006 L13.2,5.5 L13.2,12.5 C13.2,12.8872427 12.8872427,13.2 12.5,13.2 C12.1936814,13.2 11.9293263,13.0030141 11.8341215,12.709205 L11.8088259,12.6078199 L11.8,12.5 L11.8,5.5 C11.8,5.11275734 12.1127573,4.8 12.5,4.8 Z" id="形状结合" fill="#FFFFFF" fill-rule="nonzero"></path>
                <rect id="矩形" x="0" y="0" width="18" height="18"></rect>
            </g>
        </g>
    </g>
</svg>