<?xml version="1.0" encoding="UTF-8"?>
<svg width="18px" height="18px" viewBox="0 0 18 18" version="1.1" xmlns="http://www.w3.org/2000/svg" xmlns:xlink="http://www.w3.org/1999/xlink">
    <title>编组 34备份</title>
    <g id="页面-1" stroke="none" stroke-width="1" fill="none" fill-rule="evenodd">
        <g id="图标3" transform="translate(-98.000000, -447.000000)">
            <g id="编组-34备份" transform="translate(98.000000, 447.000000)">
                <path d="M15.7625,15.75 C16.1490993,15.75 16.4625,16.0634007 16.4625,16.45 L16.4625,16.4578212 C16.4625,16.8444206 16.1490993,17.1578212 15.7625,17.1578212 L2.1625,17.1578212 C1.77590068,17.1578212 1.4625,16.8444206 1.4625,16.4578212 L1.4625,16.45 C1.4625,16.0634007 1.77590068,15.75 2.1625,15.75 L15.7625,15.75 Z M16.7932961,1 C17.4597403,1 18,1.54025974 18,2.20670391 L18,2.20670391 L18,12.2681564 C18,12.9346006 17.4597403,13.4748603 16.7932961,13.4748603 L16.7932961,13.4748603 L1.20670391,13.4748603 C0.540259743,13.4748603 0,12.9346006 0,12.2681564 L0,12.2681564 L0,2.20670391 C0,1.54025974 0.540259743,1 1.20670391,1 L1.20670391,1 Z M16.5921788,2.40782123 L1.40782123,2.40782123 L1.40782123,12.0670391 L16.5921788,12.0670391 L16.5921788,2.40782123 Z" id="形状结合" fill="#FFFFFF" fill-rule="nonzero"></path>
                <path d="M5.09045642,3.41199322 C5.77602086,3.56933589 6.32672016,4.70445077 6.98980706,6.97468052 C7.12467219,7.43546972 7.23705981,7.81758762 7.33820866,8.13227294 C7.4730738,7.69396125 7.60793893,7.16573946 7.75404284,6.55884635 C8.30474214,4.19870649 8.79924763,3.4119932 9.75454233,3.41199322 C10.0804664,3.41199322 10.383913,3.58057465 10.6761208,3.87278242 C10.9570898,3.54685835 11.2717751,3.41199322 11.6651317,3.41199322 C12.5417551,3.41199322 13.3397072,4.6370182 13.7892576,6.50265256 C14.0365104,7.49166355 14.2950019,8.35704817 14.5647321,8.98641879 C14.710836,9.3348204 14.8569399,9.5933119 14.9918051,9.76189331 C15.0479989,9.84056463 15.1041927,9.88551968 15.1491477,9.91923597 L15.182864,9.93047473 C15.4301168,9.93047473 15.6324145,10.1327724 15.6324145,10.3800252 C15.6324145,10.6272779 15.4301168,10.8295756 15.182864,10.8295756 C14.5872097,10.8295756 14.1601367,10.2901151 13.7555413,9.33482038 C13.4633335,8.64925595 13.1823645,7.73891628 12.923873,6.70495026 C12.7215753,5.89575945 12.4630838,5.24391129 12.1821148,4.80559961 C11.9573395,4.46843678 11.7550418,4.31109411 11.6763705,4.31109411 C11.5077891,4.31109411 11.4291178,4.35604916 11.2830139,4.58082437 C11.2605363,4.60330189 11.2492976,4.63701818 11.2268201,4.67073447 C11.4853116,5.16523997 11.7100868,5.78337184 11.889907,6.50265256 C12.1371597,7.49166355 12.3956512,8.35704817 12.6653815,8.98641879 C12.8114854,9.3348204 12.9575893,9.5933119 13.0924544,9.76189331 C13.1486482,9.84056463 13.204842,9.88551968 13.2497971,9.91923597 L13.2722746,9.93047473 C13.5195273,9.93047473 13.721825,10.1327724 13.721825,10.3800252 C13.721825,10.6272779 13.5195273,10.8295756 13.2722746,10.8295756 C12.6766202,10.8295756 12.2495473,10.2901151 11.8449519,9.33482038 C11.5527441,8.64925595 11.2717751,7.73891628 11.0132836,6.70495026 C10.945851,6.4015037 10.8559409,6.13177344 10.7660309,5.87328192 C10.6873595,6.13177342 10.619927,6.43521998 10.5412556,6.76114407 C9.88940746,9.58207315 9.30499188,10.8183369 8.2822646,10.8183369 C7.8214754,10.8183369 7.51802885,10.7059492 7.2707761,10.3800252 C7.00104584,10.672233 6.70883804,10.8183369 6.37167519,10.8183369 C5.80973713,10.8183369 5.48381306,10.6497554 5.19160526,10.1102949 C4.95559129,9.67198323 4.73081606,8.99765755 4.21383305,7.23317203 C3.66313375,5.34506013 3.10119569,4.36728792 2.73031657,4.29985535 C2.48306382,4.2549003 2.3144824,4.03012509 2.35943745,3.78287234 C2.4043925,3.5356196 2.62916771,3.36703817 2.87642046,3.41199322 C3.75304383,3.55809711 4.41613075,4.73816704 5.07921767,6.97468052 C5.57372316,8.6604947 5.78725962,9.32358162 5.97831855,9.68322198 C6.10194493,9.91923597 6.11318369,9.91923597 6.36043643,9.91923597 C6.48406281,9.93047473 6.64140547,9.7956096 6.82122565,9.45844675 C6.66388299,9.00889631 6.46158529,8.34580939 6.13566122,7.23317203 C5.84345342,6.22168352 5.5624844,5.45744775 5.31523164,4.94046474 C5.20284402,4.69321199 5.0904564,4.51339181 4.98930757,4.40100421 C4.95559127,4.35604916 4.921875,4.32233289 4.88815871,4.29985535 C4.87691995,4.2886166 4.87691995,4.2886166 4.88815871,4.2886166 C4.64090596,4.23242279 4.49480207,3.98517004 4.55099588,3.74915605 C4.60718969,3.5019033 4.85444243,3.35579941 5.09045642,3.41199322 Z M9.75454233,4.31109411 C9.58596091,4.31109411 9.50728958,4.35604916 9.36118569,4.58082437 C9.1251717,4.94046474 8.88915771,5.63726793 8.63066621,6.77238283 C8.36093595,7.95245275 8.10244442,8.85155366 7.81023664,9.5034018 C7.84395294,9.57083437 7.86643045,9.63826693 7.90014672,9.69446074 C8.0237731,9.91923597 8.03501186,9.93047473 8.29350338,9.93047473 C8.42836851,9.93047473 8.61942745,9.73941579 8.85544144,9.25614906 C9.1251717,8.694211 9.39490199,7.81758762 9.67587101,6.57008513 C9.84445243,5.79461059 10.0242726,5.1877175 10.2040928,4.72692828 C10.0017951,4.44595924 9.83321365,4.31109411 9.75454233,4.31109411 Z" id="形状结合" fill="#FFFFFF"></path>
                <rect id="矩形" x="0" y="0" width="18" height="18"></rect>
            </g>
        </g>
    </g>
</svg>