<?xml version="1.0" encoding="UTF-8"?>
<svg width="18px" height="18px" viewBox="0 0 18 18" version="1.1" xmlns="http://www.w3.org/2000/svg" xmlns:xlink="http://www.w3.org/1999/xlink">
    <title>编组 49</title>
    <g id="页面-1" stroke="none" stroke-width="1" fill="none" fill-rule="evenodd">
        <g id="图标3" transform="translate(-97.000000, -199.000000)">
            <g id="编组-49" transform="translate(97.000000, 199.000000)">
                <path d="M16.2644595,1.00878378 C16.8006757,1.00878378 17.2331081,1.44121622 17.1293243,1.98608108 L17.1293243,1.98608108 L17.1293243,13.0131081 C17.1293243,13.557973 16.6968919,13.9904054 16.152027,13.9904054 L16.152027,13.9904054 L9.605,13.9904054 L9.605,15.7201351 L13.5580884,15.7203145 C14.032224,15.7228258 14.3185135,15.7604955 14.3185135,16.3255405 C14.3185135,17.0001351 13.8860811,16.9309459 13.4536486,16.9309459 L4.58878378,16.9309459 C3.93148649,16.9309459 3.72391892,16.8704054 3.72391892,16.3255405 C3.72391892,15.7201351 4.15635135,15.7201351 4.58878378,15.7201351 L8.33364865,15.7201351 L8.33364865,13.9904054 L1.77797297,13.9904054 C1.23310811,13.9904054 0.800675676,13.557973 0.800675676,13.0131081 L0.800675676,13.0131081 L0.800675676,1.98608108 C0.800675676,1.44121622 1.23310811,1.00878378 1.77797297,1.00878378 L1.77797297,1.00878378 Z M15.9098649,11.6898649 L2.02878378,11.6898649 L2.02878378,12.6844595 L15.9098649,12.6844595 L15.9098649,11.6898649 Z M15.9098649,2.21959459 L2.02878378,2.21959459 L2.02878378,10.4790541 L15.9098649,10.4790541 L15.9098649,2.21959459 Z M12.3033784,4.03581081 C12.485,3.7677027 12.9001351,3.57743243 13.2547297,3.87148649 C13.6439189,4.18283784 13.5574324,4.55472973 13.3498649,4.7622973 L13.3498649,4.7622973 L9.98554054,8.37743243 C9.65689189,8.70608108 9.23310811,8.70608108 8.90445946,8.48986486 L8.90445946,8.48986486 L6.7422973,6.76013514 L5.66986486,7.84121622 C5.47094595,8.03148649 4.97797297,8.27364865 4.63202703,7.945 C4.38986486,7.72013514 4.33797297,7.34824324 4.54554054,7.08878378 L4.54554054,7.08878378 L5.98121622,5.55797297 C6.30986486,5.22932432 6.84608108,5.22932432 7.17472973,5.44554054 L7.17472973,5.44554054 L9.33689189,7.17527027 Z" id="形状结合" fill="#FFFFFF" fill-rule="nonzero"></path>
                <rect id="矩形" x="0" y="0" width="18" height="18"></rect>
            </g>
        </g>
    </g>
</svg>