<?xml version="1.0" encoding="UTF-8"?>
<svg width="18px" height="18px" viewBox="0 0 18 18" version="1.1" xmlns="http://www.w3.org/2000/svg" xmlns:xlink="http://www.w3.org/1999/xlink">
    <title>编组 27</title>
    <g id="页面-1" stroke="none" stroke-width="1" fill="none" fill-rule="evenodd">
        <g id="图标3" transform="translate(-98.000000, -159.000000)">
            <g id="编组-27" transform="translate(98.000000, 159.000000)">
                <path d="M15.6806873,0.5 C16.0366358,0.5 16.3780055,0.641399963 16.6296991,0.893093523 C16.8813926,1.14478708 17.0227926,1.48615681 17.0227926,1.84210526 L17.0227926,1.84210526 L17.0227926,16.1578947 C17.0227926,16.5138432 16.8813926,16.8552129 16.6296991,17.1069065 C16.3780055,17.3586 16.0366358,17.5 15.6806873,17.5 L15.6806873,17.5 L2.2596347,17.5 C1.90368625,17.5 1.56231652,17.3586 1.31062296,17.1069065 C1.0589294,16.8552129 0.917529424,16.5138432 0.917529424,16.1578947 L0.917529424,16.1578947 L0.917529424,1.84210526 C0.917529424,1.48615681 1.0589294,1.14478708 1.31062296,0.893093523 C1.56231652,0.641399963 1.90368625,0.5 2.2596347,0.5 L2.2596347,0.5 Z M15.532661,1.5 L2.40766102,1.5 C2.2916288,1.5 2.18034896,1.54648095 2.0983018,1.62921759 C2.01625463,1.71195423 1.97016101,1.82416919 1.97016101,1.94117646 L1.97016101,1.94117646 L1.97016101,16.0588235 C1.97016101,16.1758308 2.01625463,16.2880458 2.0983018,16.3707824 C2.18034896,16.453519 2.2916288,16.5 2.40766102,16.5 L2.40766102,16.5 L15.532661,16.5 C15.6486932,16.5 15.7599731,16.453519 15.8420202,16.3707824 C15.9240674,16.2880458 15.970161,16.1758308 15.970161,16.0588235 L15.970161,16.0588235 L15.970161,1.94117646 C15.970161,1.82416919 15.9240674,1.71195423 15.8420202,1.62921759 C15.7599731,1.54648095 15.6486932,1.5 15.532661,1.5 L15.532661,1.5 Z M14.3385821,2.28947369 C14.8327316,2.28947369 15.2333189,2.69006102 15.2333189,3.18421053 L15.2333189,3.18421053 L15.2333189,14.8157895 C15.2333189,15.309939 14.8327316,15.7105263 14.3385821,15.7105263 L14.3385821,15.7105263 L3.60173996,15.7105263 C3.10759044,15.7105263 2.70700311,15.309939 2.70700311,14.8157895 L2.70700311,14.8157895 L2.70700311,3.18421053 C2.70700311,2.69006102 3.10759044,2.28947369 3.60173996,2.28947369 L3.60173996,2.28947369 Z M14.3385821,11.4426316 L3.60173996,11.4426316 L3.60173996,14.8157895 L14.3385821,14.8157895 L14.3385821,11.4426316 Z M9.05739784,12.3343317 C9.3190046,12.1832929 9.64131742,12.1832929 9.90292418,12.3343317 C10.1645309,12.4853704 10.3256873,12.7645015 10.3256873,13.0665789 C10.3256873,13.3686564 10.1645309,13.6477875 9.90292418,13.7988262 C9.64131742,13.949865 9.3190046,13.949865 9.05739784,13.7988262 C8.79579109,13.6477875 8.6346347,13.3686564 8.6346347,13.0665789 C8.6346347,12.7645015 8.79579109,12.4853704 9.05739784,12.3343317 Z M12.1956873,12.2210526 C12.6626586,12.2210526 13.0412136,12.5996077 13.0412136,13.0665789 C13.0412136,13.5335502 12.6626586,13.9121053 12.1956873,13.9121053 C11.728716,13.9121053 11.350161,13.5335502 11.350161,13.0665789 C11.350161,12.5996077 11.728716,12.2210526 12.1956873,12.2210526 Z M14.3385821,3.18421053 L3.60173996,3.18421053 L3.60173996,10.5478947 L14.3385821,10.5478947 L14.3385821,3.18421053 Z M11.3814768,4.14605264 L9.78437154,6.20842105 L11.5962136,6.20842105 L6.78700311,9.97973684 L8.25437154,7.39394736 L6.78700311,7.39394736 L8.73305575,4.14605264 L11.3814768,4.14605264 Z" id="形状结合" fill="#FFFFFF" fill-rule="nonzero"></path>
                <rect id="矩形" x="0" y="0" width="18" height="18"></rect>
            </g>
        </g>
    </g>
</svg>