<?xml version="1.0" encoding="UTF-8"?>
<svg width="18px" height="18px" viewBox="0 0 18 18" version="1.1" xmlns="http://www.w3.org/2000/svg" xmlns:xlink="http://www.w3.org/1999/xlink">
    <title>编组 47</title>
    <g id="页面-1" stroke="none" stroke-width="1" fill="none" fill-rule="evenodd">
        <g id="图标3" transform="translate(-98.000000, -372.000000)">
            <g id="编组-47" transform="translate(98.000000, 372.000000)">
                <path d="M8.20846643,2.10715696 C8.20846643,0.94267548 9.156379,-1.50102153e-13 10.3273298,-1.50102153e-13 C11.4473697,-1.50102153e-13 12.3633444,0.862485694 12.4408771,1.95658519 L12.4461932,2.10715696 L12.4461932,7.85193223 C13.5056249,8.49516962 14.2304992,9.62638019 14.3085626,10.9350356 C14.0297648,10.8795841 13.7398151,10.8241326 13.4387134,10.7686811 C13.3383462,10.0367213 12.981485,9.3823936 12.4461932,8.90551071 C12.240998,8.72806591 12.0143911,8.57191449 11.7663726,8.44841292 L11.576344,8.36208602 L11.576344,2.10715696 C11.576344,1.41955837 11.0187484,0.865043382 10.3273298,0.865043382 C9.6791249,0.865043382 9.14853781,1.35241007 9.08474647,1.97989468 L9.07831561,2.10715696 L9.07831561,8.42862782 C8.75491015,8.58389202 8.45380851,8.79460771 8.20846643,9.04968461 C8.01888392,9.2382197 7.86275714,9.4489354 7.72893419,9.68183169 C7.45013638,9.6041996 7.18249048,9.5154772 6.90369266,9.4267548 C7.1671566,8.90273814 7.55015509,8.45514057 8.00786269,8.09882137 L8.20846643,7.95174493 L8.20809922,6.77617316 L8.11784435,6.87514733 L7.91868439,6.89454058 C7.21577833,6.96450571 6.55531741,7.05060544 5.90745779,7.17332542 C5.6861284,7.2149672 5.48165789,7.25827899 5.29343789,7.30308274 C4.22024836,7.55854399 3.82761755,7.80371753 3.79159427,7.8990994 C3.80531632,8.06234339 4.1908603,8.40477377 5.30497537,8.90335682 C5.81887794,9.13049608 6.3273514,9.32668274 6.82379632,9.4876748 L7.25896638,9.62767295 C7.32658396,9.64860912 7.39223018,9.66847758 7.45663106,9.68747441 L7.64682365,9.74204604 C7.91741961,9.82484634 8.21109711,9.90199293 8.52096798,9.97310655 L9.06209605,10.0932344 C9.59444983,10.206628 10.1244443,10.3045153 10.8677519,10.4291663 L13.2394342,10.8195931 L13.3342513,10.8372506 C13.6358128,10.8927868 13.9262295,10.9483276 14.2065874,11.0040956 C14.8457054,11.1385467 15.3637599,11.2857445 15.795902,11.4639386 C17.0112227,11.9542223 17.6299927,12.7184028 17.6648472,13.7814205 C17.6956409,14.5776348 17.2374924,15.3843966 16.124119,16.1094674 C13.9920099,17.4540666 12.1898078,18 9.2585441,18 C7.08827378,18 5.7541808,17.7375153 4.13179107,16.9869479 L3.82393999,16.8404418 L3.53556108,16.696486 L3.49123266,16.5626341 L3.89270151,15.7752228 L4.02721625,15.73155 C7.66742021,17.5722749 12.3144047,17.2243988 15.5265505,15.1872176 C16.1877431,14.7726818 16.6013591,14.2972474 16.5839755,13.8218266 C16.5560764,12.989478 15.903407,12.5183736 14.3483592,12.1489876 L14.1200409,12.0968821 C13.8827556,12.0455833 13.615377,11.9918659 13.2996025,11.9314443 L12.7183656,11.831226 L10.2062441,11.4147023 C9.60568554,11.3097065 9.14232033,11.2191005 8.67085203,11.1137122 L8.12936957,10.9873759 L7.93386374,10.9392194 C7.76966779,10.897431 7.58862824,10.8479658 7.28831343,10.764338 L7.03247212,10.6879527 L6.47239631,10.5087121 C5.96308028,10.3504302 5.4320703,10.1458352 4.86612003,9.89435867 C3.36004513,9.21356139 2.57178856,8.57029333 2.72353779,7.735274 C2.85561467,6.97107225 3.806463,6.46528886 5.71431299,6.10173337 C6.19477047,6.01214531 6.69886308,5.93839291 7.2056183,5.87890964 L7.68942267,5.82654662 L8.1001247,5.78981837 L8.20809922,5.88894917 L8.20846643,2.10715696 Z M2.21463351,16.0314144 C2.36023986,16.0237932 2.68059581,16.0935534 3.03674344,16.1884227 L3.20598838,16.2346054 L3.2747365,16.3589259 L3.24128077,16.4698289 L3.11802603,16.536874 L2.7371846,16.4293611 C2.7235683,16.4509623 2.70320834,16.4698833 2.6790529,16.4842965 L2.63455056,16.5057634 L2.5832337,16.5225808 L2.55096451,16.5293171 L1.53614047,16.6069492 L1.44164651,16.5571344 L1.4050303,16.4756291 C1.39221162,16.4363657 1.38783563,16.4021729 1.40014675,16.3654436 L1.41685385,16.3185561 C1.43607961,16.2869713 1.48653502,16.2786487 1.72472364,16.2643706 L2.06774174,16.2447514 L2.05104166,16.2147374 L2.04104522,16.1781192 L2.04373845,16.1401384 L2.0618704,16.1003524 C2.08480746,16.0653602 2.11787525,16.0472287 2.16300197,16.0380531 L2.21463351,16.0314144 Z M1.64559486,15.1996576 C1.87216021,15.1871401 2.64221564,15.5955673 2.59570146,15.7334126 C2.58704547,15.7678453 2.57024438,15.7959295 2.54703799,15.8198663 L2.50764191,15.8529359 L2.3989409,15.865145 L2.03674174,15.6888398 L2.02979145,15.6971845 C1.99782924,15.7263003 1.95304106,15.7453316 1.90592738,15.7460015 L1.85842744,15.7402443 L1.8117106,15.7204067 L1.47609233,15.6612934 L1.09229467,15.6083472 L1.00605875,15.5260167 L1,15.4635792 L1.00343349,15.3965277 L1.00768389,15.3746451 C1.03126157,15.2808554 1.04265668,15.2628064 1.24169328,15.2948567 L1.51674174,15.3447514 L1.51646204,15.3334112 C1.51803825,15.3117074 1.52328342,15.2944641 1.532711,15.2787527 L1.55005336,15.2559687 L1.58867235,15.2212965 L1.64559486,15.1996576 Z M2.84702956,13.5644612 L2.89771225,13.5769669 L2.92643958,13.5928482 L2.97432862,13.7059346 C2.96074624,13.7554615 3.24996205,14.2441027 3.55476594,14.7574662 C3.53437131,14.838594 3.47979458,14.8704901 3.39925203,14.8789998 L3.37074174,14.879337 L3.49594118,15.0329566 L3.7711803,15.393551 L3.76786751,15.5189358 L3.70095604,15.5965678 L3.54820825,15.595513 L3.41219425,15.4246566 C3.38645546,15.3908887 3.35956074,15.3548249 3.33207852,15.3169898 L3.21841988,15.1544901 C3.09822562,14.9751948 3.00684581,14.8076441 2.9619259,14.600551 L2.99655207,14.5520555 L3.02045957,14.5261625 C3.02368028,14.5236124 3.02813695,14.5202196 3.03482195,14.5151303 L3.08274174,14.5034254 L2.92631398,14.2225998 L2.67644547,13.7344366 L2.70231467,13.6144608 L2.73989165,13.5894603 L2.75873212,13.5804313 L2.81723165,13.5650823 L2.84702956,13.5644612 Z M6.60259103,10.6466878 C6.87023693,10.7465005 7.14903474,10.8241326 7.41668064,10.9017647 C7.36092108,11.1124804 7.33861725,11.3342864 7.33861725,11.5560924 C7.33861725,13.2307276 8.72145441,14.5948345 10.4053932,14.5948345 C11.9220533,14.5948345 13.1822194,13.4858045 13.4164096,12.0551558 C13.7063593,12.1106073 13.9851571,12.1660588 14.2416511,12.2215103 C13.9293976,14.0514098 12.3235222,15.4376973 10.3942413,15.4376973 C8.24192217,15.4376973 6.4910719,13.6965202 6.4910719,11.5560924 C6.4910719,11.245564 6.53567955,10.9350356 6.60259103,10.6466878 Z M1.82561582,13.725919 L1.95199989,13.7503968 L2.39796244,14.3179079 C2.49099296,14.4435394 2.48744319,14.4603162 2.4708845,14.5097179 L2.45523537,14.5501111 L2.44374174,14.5660773 L2.83770556,14.8947379 L2.94045732,14.977418 L2.96105727,15.1101289 L2.89414579,15.2099416 L2.74568845,15.2301363 L2.28969391,14.8430153 C2.16034342,14.7358187 1.83786614,14.3608515 1.86852708,14.2693769 L1.88615618,14.2330322 L1.91186451,14.2066926 L1.92974174,14.1961326 L1.69869641,13.9339501 L1.7252486,13.7813705 L1.82561582,13.725919 Z M8.25307408,11.1124804 C9.53554402,11.4230088 10.7957101,11.6226342 11.966661,11.8000789 C12.1673954,11.8333498 12.3681298,11.8666207 12.5577123,11.8998916 C12.3792817,12.9312895 11.4759768,13.7187008 10.3942413,13.7187008 C9.18983474,13.7187008 8.20846643,12.7427544 8.20846643,11.5450021 C8.20846643,11.4008282 8.21961834,11.2566543 8.25307408,11.1124804 Z M10.3384817,2.32896295 C10.586302,2.32896295 10.7988767,2.50421707 10.8430561,2.7456783 L10.8514697,2.83911674 L10.8514697,9.03859431 C11.6655593,9.2049488 12.3123702,9.82600559 12.5354085,10.6134169 C12.4015855,10.5912363 12.2566107,10.5690557 12.1227877,10.5468751 C11.0187484,10.3805206 9.83664566,10.1919855 8.63223911,9.90363769 C8.88594512,9.55429325 9.23357114,9.2813679 9.64523354,9.12943946 L9.82549375,9.07186521 L9.82549375,2.83911674 C9.82549375,2.56185925 10.0596839,2.32896295 10.3384817,2.32896295 Z M16.8177429,6.65417986 L16.8177429,7.51922324 L14.0743724,7.51922324 L14.0743724,6.65417986 L16.8177429,6.65417986 Z M15.9813495,5.21244089 L15.9813495,6.07748427 L14.0743724,6.07748427 L14.0743724,5.21244089 L15.9813495,5.21244089 Z M16.3605145,3.77070192 L16.3605145,4.6357453 L14.0743724,4.6357453 L14.0743724,3.77070192 L16.3605145,3.77070192 Z M15.9813495,2.32896295 L15.9813495,3.19400633 L14.0743724,3.19400633 L14.0743724,2.32896295 L15.9813495,2.32896295 Z M16.8177429,0.887223981 L16.8177429,1.75226736 L14.0743724,1.75226736 L14.0743724,0.887223981 L16.8177429,0.887223981 Z" id="形状结合" fill="#FFFFFF" fill-rule="nonzero"></path>
                <rect id="矩形" x="0" y="0" width="18" height="18"></rect>
            </g>
        </g>
    </g>
</svg>