<?xml version="1.0" encoding="UTF-8"?>
<svg width="18px" height="18px" viewBox="0 0 18 18" version="1.1" xmlns="http://www.w3.org/2000/svg" xmlns:xlink="http://www.w3.org/1999/xlink">
    <title>电能质量 (1)</title>
    <g id="页面-1" stroke="none" stroke-width="1" fill="none" fill-rule="evenodd">
        <g id="图标3" transform="translate(-98.000000, -554.000000)">
            <g id="电能质量-(1)" transform="translate(98.000000, 554.000000)">
                <path d="M15.8,1 C16.4627417,1 17,1.5372583 17,2.2 L17,15.8 C17,16.4627417 16.4627417,17 15.8,17 L2.2,17 C1.5372583,17 1,16.4627417 1,15.8 L1,2.2 C1,1.5372583 1.5372583,1 2.2,1 L15.8,1 Z M15.8,13 L2.2,13 L2.2,15.8 L15.8,15.8 L15.8,13 Z M15.8,2.2 L2.2,2.2 L2.2,11.8 L15.8,11.8 L15.8,2.2 Z M3.43596183,14.9230769 L9.56228026,14.9230769 C9.78026118,14.9230769 10,14.7115385 10,14.5 C10,14.2884615 9.78201909,14.0769231 9.56228026,14.0769231 L3.43596183,14.0769231 C3.21798091,14.0769231 3,14.2884615 3,14.5 C3,14.7115385 3.21798091,14.9230769 3.43596183,14.9230769 Z M11.3751883,14.9230769 L13.6248117,14.9230769 C13.8131592,14.9230769 14,14.7115385 14,14.5 C14,14.2461538 13.8131592,14.0769231 13.6248117,14.0769231 L11.3751883,14.0769231 C11.1883476,14.0769231 11,14.2461538 11,14.5 C11,14.7115385 11.1883476,14.9230769 11.3751883,14.9230769 Z M3.42875845,8.00462127 L5.14353607,8.00462127 C5.31398084,8.00462127 5.44310566,7.90415031 5.52918887,7.7032084 L6.85659203,4.58860871 L9.47180006,10.7173371 C9.55788328,10.8680436 9.68528643,11.01875 9.85745286,11.01875 C10.0296193,11.01875 10.1570224,10.918279 10.2431057,10.7173371 L12.0009249,6.59802786 L12.4726609,7.7032084 C12.5587441,7.85391484 12.6861473,8.00462127 12.8583137,8.00462127 L14.5730913,8.00462127 C14.8296193,8.00462127 15.0017857,7.80367936 15.0017857,7.50226648 C15.0017857,7.20085361 14.8296193,6.9999117 14.5730913,6.9999117 L13.1148417,6.9999117 L12.3865777,5.29190542 C12.2574529,4.94025706 11.7443969,4.94025706 11.6152721,5.29190542 L9.85745286,9.41121468 L7.24396649,3.28248626 C7.11484167,2.93083791 6.60178571,2.93083791 6.47266089,3.28248626 L4.8870081,6.9999117 L3.42875845,6.9999117 C3.17223048,6.9999117 3.00178571,7.20085361 3.00178571,7.50226648 C3.00178571,7.80367936 3.17223048,8.00462127 3.42875845,8.00462127 Z" id="形状" fill="#FFFFFF" fill-rule="nonzero"></path>
                <rect id="矩形" x="0" y="0" width="18" height="18"></rect>
            </g>
        </g>
    </g>
</svg>