<?xml version="1.0" encoding="UTF-8"?>
<svg width="18px" height="18px" viewBox="0 0 18 18" version="1.1" xmlns="http://www.w3.org/2000/svg" xmlns:xlink="http://www.w3.org/1999/xlink">
    <title>编组 30</title>
    <g id="页面-1" stroke="none" stroke-width="1" fill="none" fill-rule="evenodd">
        <g id="图标2" transform="translate(-1188.000000, -172.000000)" fill="#FFFFFF" fill-rule="nonzero">
            <g id="编组-30" transform="translate(1188.000000, 172.000000)">
                <path d="M16.2017984,16.7297124 C16.5605617,16.7480527 16.8414063,17.0271617 16.8411771,17.3651387 C16.8409691,17.669318 16.6131564,17.9255399 16.3000159,17.9869476 L16.1926702,18 L8.31649282,18 C7.94352594,18 7.64117624,17.7155881 7.64117624,17.3647482 C7.64117624,17.0458028 7.89105231,16.7817566 8.21669976,16.7363841 L8.31649282,16.7294963 L16.2017984,16.7297124 Z M15.0992835,0 L15.2444927,0.00559030559 C16.2028209,0.0796687307 16.9573745,0.880761924 16.9573745,1.85809058 L16.9573745,1.85809058 L16.9573745,8.89927596 L16.9511256,8.99216665 C16.9057965,9.32630075 16.6193806,9.58383565 16.2728147,9.58383565 C15.8947428,9.58383565 15.5882546,9.27734783 15.5882546,8.89927596 L15.5882546,8.89927596 L15.5882546,1.85809058 L15.5803769,1.77019739 C15.5389748,1.5420931 15.3393292,1.36911938 15.0992835,1.36911938 L15.0992835,1.36911938 L13.17,1.369 L13.1704364,7.49155931 L10.2401761,5.268 L7.30635188,7.52329474 L7.306,1.369 L2.85809024,1.36911938 L2.77019729,1.37699736 C2.542093,1.41839949 2.36911918,1.61804495 2.36911918,1.85809058 L2.36911918,1.85809058 L2.36911918,16.1360498 L2.37699788,16.223943 C2.41840001,16.4520473 2.6180446,16.625021 2.85809024,16.625021 L2.85809024,16.625021 L5.3603003,16.625021 L5.45319099,16.6312702 C5.78732509,16.6765994 6.04485999,16.9630148 6.04485999,17.3095807 C6.04485999,17.6876526 5.73837218,17.9941404 5.3603003,17.9941404 L5.3603003,17.9941404 L2.85809024,17.9941404 L2.71288212,17.9885501 C1.75455395,17.9144717 1,17.1133785 1,16.1360498 L1,16.1360498 L1,1.85809058 L1.00559059,1.7128819 C1.07966901,0.754553733 1.88076157,0 2.85809024,0 L2.85809024,0 L15.0992835,0 Z M8.31649282,14.1838184 L16.2017984,14.1840346 C16.5605617,14.2023749 16.8414063,14.4814838 16.8411771,14.8194609 C16.8409691,15.1236401 16.6131564,15.379862 16.3000159,15.4412697 L16.1926702,15.4543221 L8.31649282,15.4543221 C7.94352594,15.4543221 7.64117624,15.1699102 7.64117624,14.8190703 C7.64117624,14.5001249 7.89105231,14.2360787 8.21669976,14.1907062 L8.31649282,14.1838184 Z M16.2017984,11.6377309 C16.5605617,11.6560711 16.8414063,11.9351801 16.8411772,12.2731572 C16.8409691,12.5773364 16.6131564,12.8335583 16.3000159,12.894966 L16.1926702,12.9080184 L8.31649282,12.9080184 C7.94352595,12.9080184 7.64117624,12.6236065 7.64117624,12.2727666 C7.64117624,11.9538212 7.89105232,11.689775 8.21669976,11.6444025 L8.31649282,11.6375147 L16.2017984,11.6377309 Z M11.968,1.369 L8.534,1.369 L8.53417647,5.033 L10.1607305,3.7832588 L10.3125975,3.78287209 L10.9058225,4.23414617 L11.9681761,5.039 L11.968,1.369 Z" id="形状结合"></path>
            </g>
        </g>
    </g>
</svg>