<?xml version="1.0" encoding="UTF-8"?>
<svg width="19px" height="19px" viewBox="0 0 19 19" version="1.1" xmlns="http://www.w3.org/2000/svg" xmlns:xlink="http://www.w3.org/1999/xlink">
    <title>编组 40</title>
    <g id="页面-1" stroke="none" stroke-width="1" fill="none" fill-rule="evenodd">
        <g id="图标2" transform="translate(-446.000000, -182.000000)" fill="#FFFFFF" fill-rule="nonzero">
            <g id="编组-40" transform="translate(446.500000, 182.500000)">
                <path d="M14.862069,0.5 C16.318958,0.5 17.5,1.68104195 17.5,3.13793103 L17.5,3.13793103 L17.5,14.862069 C17.5,16.318958 16.318958,17.5 14.862069,17.5 L14.862069,17.5 L3.13793103,17.5 C1.68104195,17.5 0.5,16.318958 0.5,14.862069 L0.5,14.862069 L0.5,3.13793103 C0.5,1.68104195 1.68104195,0.5 3.13793103,0.5 L3.13793103,0.5 Z M14.862069,1.86781609 L3.13793103,1.86781609 C2.43646592,1.86781609 1.86781609,2.43646592 1.86781609,3.13793103 L1.86781609,3.13793103 L1.86781609,14.862069 C1.86781609,15.5635341 2.43646592,16.1321839 3.13793103,16.1321839 L3.13793103,16.1321839 L14.862069,16.1321839 C15.5635341,16.1321839 16.1321839,15.5635341 16.1321839,14.862069 L16.1321839,14.862069 L16.1321839,3.13793103 C16.1321839,2.43646592 15.5635341,1.86781609 14.862069,1.86781609 L14.862069,1.86781609 Z M12.5381479,11.765431 C12.8620272,11.765431 13.1277743,12.0311782 13.1277743,12.3550575 C13.1277743,12.6789368 12.8620272,12.9446839 12.5381479,12.9446839 L5.43771686,12.9446839 C5.11383755,12.9446839 4.84809043,12.6789368 4.84809043,12.3550575 C4.84809043,12.0311782 5.11383755,11.765431 5.43771686,11.765431 L12.5381479,11.765431 Z M12.5381479,8.39376437 C12.8620272,8.39376437 13.1277743,8.65951149 13.1277743,8.9833908 C13.1277743,9.30727011 12.8620272,9.57301724 12.5381479,9.57301724 L5.43771686,9.57301724 C5.11383755,9.57301724 4.84809043,9.30727011 4.84809043,8.9833908 C4.84809043,8.65951149 5.11383755,8.39376437 5.43771686,8.39376437 L12.5381479,8.39376437 Z M8.98378008,5.0137931 C9.30765939,5.0137931 9.57340652,5.27954023 9.57340652,5.60341954 C9.57340652,5.92729885 9.31596399,6.19304598 8.98378008,6.19304598 L5.43771686,6.19304598 C5.11383755,6.19304598 4.84809043,5.92729885 4.84809043,5.60341954 C4.84809043,5.27954023 5.11383755,5.0137931 5.43771686,5.0137931 L8.98378008,5.0137931 Z" id="形状结合"></path>
            </g>
        </g>
    </g>
</svg>