<?xml version="1.0" encoding="UTF-8"?>
<svg width="18px" height="18px" viewBox="0 0 18 18" version="1.1" xmlns="http://www.w3.org/2000/svg" xmlns:xlink="http://www.w3.org/1999/xlink">
    <title>工作</title>
    <g id="页面-1" stroke="none" stroke-width="1" fill="none" fill-rule="evenodd">
        <g id="图标3" transform="translate(-98.000000, -485.000000)">
            <g id="工作" transform="translate(98.000000, 485.000000)">
                <path d="M11.4383371,1.01883371 C12.3193359,1.01883371 13.0371204,1.73660714 13.0371204,2.61760603 L13.0367411,3.00883371 L15.4959542,3.00892857 C16.8498884,3.00892857 17.9506138,4.10965402 17.9506138,5.46358817 L17.9506138,14.0433873 C17.9506138,15.3973214 16.8498884,16.4980469 15.4959542,16.4980469 L2.47140067,16.4980469 C1.11746652,16.4980469 0.0167410714,15.3973214 0.0167410714,14.0433873 L0.0167410714,5.46358817 C0.0167410714,4.10965402 1.11746652,3.00892857 2.47140067,3.00892857 L4.92574107,3.00883371 L4.92606027,2.61760603 C4.92606027,1.73660714 5.64383371,1.01883371 6.52483259,1.01883371 L11.4383371,1.01883371 Z M8.98367746,11.4694475 C7.82135291,11.4694475 6.83212097,10.7189392 6.47480508,9.6767459 L1.34074107,9.67583371 L1.34137835,14.0433873 C1.34137835,14.6669922 1.84779576,15.1734096 2.47140067,15.1734096 L15.4959542,15.1734096 C16.1195592,15.1734096 16.6259766,14.6669922 16.6259766,14.0433873 L16.6257411,9.67583371 L11.492323,9.67659287 C11.1348154,10.7179359 10.1457561,11.4694475 8.98367746,11.4694475 Z M8.98367746,7.49135045 C8.25334821,7.49135045 7.65694754,8.08565848 7.65694754,8.81808036 C7.65694754,9.55050223 8.25125558,10.1448103 8.98367746,10.1448103 C9.7140067,10.1448103 10.3104074,9.55050223 10.3104074,8.81808036 C10.3104074,8.08565848 9.7140067,7.49135045 8.98367746,7.49135045 Z M15.4959542,4.33356585 L2.47140067,4.33356585 C1.84779576,4.33356585 1.34137835,4.83998326 1.34137835,5.46358817 L1.34074107,8.34883371 L6.37379947,8.34899418 C6.59569045,7.10945973 7.68096934,6.16671317 8.98367746,6.16671317 C10.2863856,6.16671317 11.3716645,7.10945973 11.5935554,8.34899418 L16.6257411,8.34883371 L16.6259766,5.46358817 C16.6259766,4.83998326 16.1195592,4.33356585 15.4959542,4.33356585 Z M11.4404297,2.34556362 L6.52692522,2.34556362 C6.37834821,2.34556362 6.25279018,2.47112165 6.25279018,2.61760603 L6.25274107,3.00883371 L11.7117411,3.00883371 L11.7124721,2.61760603 C11.7124721,2.46902902 11.5869141,2.34556362 11.4404297,2.34556362 Z" id="形状结合" fill="#FFFFFF" fill-rule="nonzero"></path>
                <rect id="矩形" x="0" y="0" width="18" height="18"></rect>
            </g>
        </g>
    </g>
</svg>