<?xml version="1.0" encoding="UTF-8"?>
<svg width="18px" height="18px" viewBox="0 0 18 18" version="1.1" xmlns="http://www.w3.org/2000/svg" xmlns:xlink="http://www.w3.org/1999/xlink">
    <title>园区运维</title>
    <g id="页面-1" stroke="none" stroke-width="1" fill="none" fill-rule="evenodd">
        <g id="图标2" transform="translate(-7.000000, -127.000000)" fill="#FFFFFF" fill-rule="nonzero">
            <g id="园区运维" transform="translate(7.000000, 127.000000)">
                <path d="M7.81357024,1.3384998 C8.51379907,0.669807335 9.64773854,0.669807335 10.3479674,1.3384998 L10.3479674,1.3384998 L17.1274648,7.82451278 C17.466141,8.14795625 17.6525107,8.57883323 17.6525107,9.03714005 C17.6543271,9.61442751 17.3506312,10.1533731 16.8455332,10.469206 L16.8455332,10.469206 L16.8455332,11.4846813 C16.8455332,11.8002872 16.5781073,12.0561362 16.2482207,12.0561362 C15.9183341,12.0561362 15.6509082,11.8002872 15.6509082,11.4846813 L15.6509082,11.4846813 L15.6509082,10.1177612 C15.6511049,9.87358203 15.8132901,9.65644384 16.0546914,9.57716492 C16.2964532,9.49879225 16.4587957,9.28135166 16.4578774,9.03714005 C16.4578774,8.88399014 16.3957569,8.74055497 16.2828648,8.63312145 L16.2828648,8.63312145 L9.50336743,2.14653701 C9.26977604,1.92370048 8.89176157,1.92370048 8.65817018,2.14653701 L8.65817018,2.14653701 L1.87867279,8.63254999 C1.73295295,8.77199901 1.67267352,8.97346904 1.71919596,9.16556439 C1.7657184,9.35765974 1.91246911,9.51323748 2.10744349,9.57716492 C2.34875776,9.65659715 2.51062946,9.87375001 2.51062946,10.1177612 L2.51062946,10.1177612 L2.51062946,16.2654729 C2.51062946,16.580916 2.77882279,16.8369278 3.10794201,16.8369278 L3.10794201,16.8369278 L9.08106746,16.8369278 C9.41095407,16.8369278 9.67838001,17.0927769 9.67838001,17.4083827 C9.67838001,17.7239885 9.41095407,17.9798376 9.08106746,17.9798376 L9.08106746,17.9798376 L3.10794201,17.9798376 C2.11998705,17.9798376 1.31600437,17.2106593 1.31600437,16.2654729 L1.31600437,16.2654729 L1.31600437,10.4686345 C0.866255474,10.1851492 0.573575741,9.72321778 0.518918225,9.21060703 C0.464260708,8.69799628 0.653418829,8.18904038 1.03407285,7.82451278 L1.03407285,7.82451278 Z M11.2383723,7.68632514 C12.2246978,8.48137596 12.7374127,9.71717926 12.6126129,10.9672103 L12.5839382,11.1878649 L14.7832038,13.3850977 C15.3398,13.9411795 15.5571756,14.7516864 15.3534473,15.5113083 C15.1497189,16.2709301 14.5558378,16.8642624 13.7955131,17.0678024 C13.093675,17.2556856 12.3484391,17.0850899 11.8001623,16.6203592 L11.6673355,16.498086 L9.46080683,14.2935968 C8.1345042,14.4996022 6.79933067,13.9803072 5.96153851,12.9326108 C5.12374635,11.8849144 4.91161525,10.469236 5.40557808,9.22235263 C5.46559715,9.070856 5.59791663,8.9597214 5.75761116,8.92668144 C5.88536679,8.90024948 6.01691097,8.92663905 6.12345414,8.99724643 L6.19822399,9.05835837 L7.68328507,10.5420468 C7.77402411,10.6328563 7.89718538,10.6838855 8.02561901,10.6838855 C8.12194422,10.6838855 8.21530374,10.6551816 8.29424371,10.6025193 L8.36795294,10.5420468 L8.84199103,10.0684469 C8.93288449,9.97779172 8.98396091,9.85474428 8.98396091,9.72642937 C8.98396091,9.63019318 8.95523043,9.53691996 8.9025195,9.45805295 L8.84199103,9.38441185 L7.36177201,7.90556099 C7.24585967,7.79014502 7.1962165,7.62400217 7.22983152,7.46399026 C7.26344654,7.30397836 7.37576125,7.17179647 7.52833902,7.11268021 C8.77853149,6.62564276 10.1940278,6.84450664 11.2383723,7.68632514 Z M8.85026238,7.82582792 L8.66089783,7.8349322 L9.52714311,8.70037681 C9.79961528,8.97255103 9.95269243,9.34172617 9.95269243,9.72667125 C9.95269243,10.0634982 9.83549274,10.3882513 9.62365775,10.6465121 L9.52714311,10.7529657 L9.05310502,11.2265656 C8.780679,11.4987859 8.41116232,11.6517216 8.02586111,11.6517216 C7.68872255,11.6517216 7.36366902,11.5346302 7.10516928,11.322991 L6.9986172,11.2265656 L6.1236562,10.3524133 C6.04449586,11.2375199 6.3948794,12.1068853 7.06586891,12.6902148 C7.6889306,13.2318779 8.51828466,13.4659239 9.32734298,13.3359531 L9.51358533,13.2994724 L9.77505679,13.2390025 L12.3524876,15.814051 C12.8346646,16.295717 13.6163588,16.295717 14.0985359,15.814051 C14.5482023,15.3643487 14.57818,14.6542165 14.1888628,14.1697903 L14.0990201,14.0696165 L11.5264314,11.4994056 L11.5884098,11.2367246 C11.7932962,10.3729813 11.5717418,9.46344942 10.9924961,8.79036127 C10.4959998,8.21342858 9.78819245,7.87003285 9.03846858,7.82958759 L8.85026238,7.82582792 Z M11.8776607,12.9411057 L11.9409123,12.9940763 L13.5773523,14.6305162 C13.6954503,14.7486143 13.7415728,14.9207459 13.6983459,15.0820708 C13.6551191,15.2433957 13.52911,15.3694048 13.3677851,15.4126317 C13.2333477,15.4486541 13.0914056,15.4226283 12.9794822,15.3446086 L12.9162305,15.291638 L11.2797906,13.655198 C11.1616926,13.5371 11.11557,13.3649684 11.1587969,13.2036435 C11.2020238,13.0423186 11.3280329,12.9163095 11.4893578,12.8730826 C11.6237952,12.8370602 11.7657373,12.863086 11.8776607,12.9411057 Z" id="形状结合"></path>
            </g>
        </g>
    </g>
</svg>