<?xml version="1.0" encoding="UTF-8"?>
<svg width="18px" height="18px" viewBox="0 0 18 18" version="1.1" xmlns="http://www.w3.org/2000/svg" xmlns:xlink="http://www.w3.org/1999/xlink">
    <title>峰谷分时</title>
    <g id="页面-1" stroke="none" stroke-width="1" fill="none" fill-rule="evenodd">
        <g id="图标组1" transform="translate(-1538.000000, -461.000000)">
            <g id="峰谷分时" transform="translate(1538.000000, 461.000000)">
                <path d="M6.99138689,1.09960553 L7.07551264,1.167084 L10.005015,3.96585845 L11.6335228,3.96615461 C11.7306975,3.96615461 11.8255409,3.98985773 11.9105501,4.03415313 L11.9920032,4.08519741 L12.0652327,4.14927859 L13.265015,5.39485845 L14.3856063,4.16380789 C14.4536325,4.08862102 14.538973,4.03322232 14.6328846,4.00093326 L14.7293295,3.97647043 L14.8295455,3.96815213 L16.301465,3.96815213 C17.1339904,3.96815213 17.8195763,4.60748659 17.893183,5.42111581 L17.899725,5.56641207 L17.899725,15.1404977 C17.899725,15.9714703 17.2600753,16.6566546 16.446709,16.7302215 L16.301465,16.7367601 L1.59826,16.7367601 C0.765734647,16.7367601 0.0801486851,16.0974256 0.006542,15.2837964 L0,15.1385001 L0,5.56441456 C0,4.7318892 0.639334779,4.04630333 1.452964,3.97269665 L1.59826,3.96615461 L3.567015,3.96585845 L6.22707051,1.18594201 C6.4301563,0.972167492 6.75376604,0.941806471 6.99138689,1.09960553 Z M6.680015,2.44885845 L4.25612775,4.98288488 C4.16485162,5.07656301 4.04695571,5.13829081 3.9199403,5.1592348 L3.82324227,5.16715781 L1.578015,5.16685845 L1.518189,5.17332788 C1.36280762,5.20544701 1.23929213,5.32896262 1.207173,5.48434399 L1.199006,5.56441456 L1.199006,15.1385001 C1.199006,15.3302414 1.33691073,15.4921145 1.518189,15.5295868 L1.59826,15.5377544 L16.303462,15.5377544 C16.4952033,15.5377544 16.6570767,15.399849 16.694549,15.2185707 L16.702717,15.1385001 L16.702717,5.56441456 C16.702717,5.37267328 16.5648113,5.21080019 16.383533,5.17332788 L16.303462,5.1651603 L15.097015,5.16485845 L13.7255828,6.67519191 C13.6136828,6.79918911 13.4538405,6.87103743 13.2911003,6.87100438 C13.1588789,6.8734084 13.0307191,6.83167724 12.924885,6.75349322 L12.849981,6.68814033 L11.378015,5.16485845 L9.76584703,5.1651603 C9.64351348,5.1651603 9.52363745,5.12709807 9.42335773,5.05774218 L9.35209004,4.99996347 L6.680015,2.44885845 Z M8.93687864,7.02284851 C10.8099533,7.02284851 12.3324042,8.54529942 12.3324042,10.4183741 C12.3324042,12.2914487 10.8099533,13.8138996 8.93687864,13.8138996 C7.06380398,13.8138996 5.54135307,12.2914487 5.54135307,10.4183741 C5.54135307,8.54529942 7.06380398,7.02284851 8.93687864,7.02284851 Z M8.93687864,7.82185419 C7.50525462,7.82185419 6.34035875,8.98675006 6.34035875,10.4183741 C6.34035875,11.8499981 7.50525462,13.014894 8.93687864,13.014894 C10.3685027,13.014894 11.5333985,11.8499981 11.5333985,10.4183741 C11.5333985,8.98675006 10.3685027,7.82185419 8.93687864,7.82185419 Z M9.28702068,8.78985845 L9.28702068,10.4597803 L10.2638051,11.4225822 L9.70050612,11.9898762 L8.60586834,10.909221 C8.5299628,10.8333155 8.488015,10.7314423 8.488015,10.625574 L8.488015,8.78985845 L9.28702068,8.78985845 Z" id="形状结合" fill="#FFFFFF" fill-rule="nonzero"></path>
                <rect id="矩形" x="0" y="0" width="18" height="18"></rect>
            </g>
        </g>
    </g>
</svg>
