<?xml version="1.0" encoding="UTF-8"?>
<svg width="18px" height="18px" viewBox="0 0 18 18" version="1.1" xmlns="http://www.w3.org/2000/svg" xmlns:xlink="http://www.w3.org/1999/xlink">
    <title>carbon</title>
    <g id="页面-1" stroke="none" stroke-width="1" fill="none" fill-rule="evenodd">
        <g id="图标4" transform="translate(-408.000000, -480.000000)">
            <g id="carbon" transform="translate(408.000000, 480.000000)">
                <path d="M9,2.1 C11.4397851,2.1 13.5689225,3.65423756 14.2290124,5.92783466 L14.2290124,5.92783466 L14.3015779,5.99716016 L14.5116427,6.05300185 C16.5208409,6.63685813 17.9,8.48701311 17.9,10.6249531 C17.9,13.2697247 15.7697247,15.4 13.1249531,15.4 L13.1249531,15.4 L4.87504687,15.4 L4.6617653,15.3953637 C2.11668141,15.2844742 0.1,13.1982443 0.1,10.6249531 C0.1,8.41329104 1.57591337,6.50960343 3.69842209,5.99716016 L3.69842209,5.99716016 L3.7709876,5.92783466 L3.84185051,5.70290374 C4.57336514,3.55234865 6.64154104,2.1 9,2.1 Z M9,3.40004688 C7.06825267,3.40004688 5.31107463,4.79207145 4.8527614,6.70166215 C4.78992458,6.96177139 4.58672451,7.16497145 4.32647081,7.22784306 C2.64868098,7.4561196 1.39998731,8.91287985 1.39998731,10.6249531 C1.39617885,11.5474642 1.76110158,12.4336967 2.41370246,13.0862975 C3.06630333,13.7388984 3.95253576,14.1038211 4.87546286,14.1000118 L4.87546286,14.1000118 L13.1249531,14.1000118 L13.3371065,14.0943594 C14.1824253,14.045977 14.9838967,13.6886984 15.5862975,13.0862975 C16.2388984,12.4336967 16.6038211,11.5474642 16.6000118,10.6245371 C16.6000118,8.91287985 15.351319,7.4561196 13.6635586,7.22596391 C13.4132755,7.16497145 13.2100754,6.96177139 13.1472038,6.70151768 C12.6889254,4.79207145 10.9317473,3.40004688 9,3.40004688 Z M10.40625,7.625 C10.7062031,7.625 11.0062969,7.77504688 11.0062969,8.14995313 C11.0062969,8.525 10.7062031,8.75 10.40625,8.75 L10.40625,8.75 L9.35620312,8.75 C8.68120312,8.75 8.15625,9.2 8.15625,9.875 C8.15625,10.55 8.68120312,11.0749531 9.35620312,11.0749531 L9.35620312,11.0749531 L10.40625,11.0749531 C10.7812969,11.0749531 11.0062969,11.2999531 11.0062969,11.675 C11.0062969,12.0500469 10.7062031,12.2750469 10.40625,12.2750469 L10.40625,12.2750469 L9.35620312,12.2750469 C8.08129687,12.2750469 7.03125,11.225 7.03125,9.94995313 C7.03125,8.67504688 8.08129687,7.625 9.35620312,7.625 L9.35620312,7.625 Z" id="形状结合" fill="#FFFFFF" fill-rule="nonzero"></path>
                <rect id="矩形" x="0" y="0" width="18" height="18"></rect>
            </g>
        </g>
    </g>
</svg>