<?xml version="1.0" encoding="UTF-8"?>
<svg width="18px" height="18px" viewBox="0 0 18 18" version="1.1" xmlns="http://www.w3.org/2000/svg" xmlns:xlink="http://www.w3.org/1999/xlink">
    <title>circuitBreaker</title>
    <g id="页面-1" stroke="none" stroke-width="1" fill="none" fill-rule="evenodd">
        <g id="图标4" transform="translate(-407.000000, -408.000000)">
            <g id="circuitBreaker" transform="translate(407.000000, 408.000000)">
                <path d="M9.45627765,0 C10.1177271,0 10.668935,0.551207894 10.668935,1.21265737 L10.668935,2.86628105 L10.7791766,2.97652263 L12.2123171,4.07893841 C12.6532834,4.29942157 12.8737666,4.74038789 12.8737666,5.29159578 L12.8735935,5.87210874 C13.6046265,5.96989279 14.2615476,6.30587462 14.795131,6.7816027 L14.9683566,6.94521946 L17.0629466,4.85062947 C17.2834297,4.63014631 17.6141545,4.63014631 17.8346376,4.85062947 C18.0306227,5.04661449 18.0523988,5.32970398 17.899966,5.54504556 L17.8346376,5.62232052 L15.5195645,7.93739367 C15.6298061,8.26811841 15.7400476,8.70908472 15.7400476,9.15005104 C15.7400476,10.8740626 14.5272721,12.2249124 12.8740911,12.4302305 L12.8737666,13.4494726 L12.9840082,13.4494726 L12.8737666,14.1109221 C12.763525,14.8826131 11.991834,15.5440626 11.1099013,15.5440626 L10.8894182,15.5440626 C10.8894182,15.5440626 10.7791766,15.5440626 10.7791766,15.6543042 L10.7791766,16.5362368 C10.7791766,17.0874447 10.2279687,17.6386526 9.56651922,17.6386526 L1.21265737,17.6386526 C0.551207894,17.6386526 0,17.0874447 0,16.4259952 L0,1.21265737 C0,0.551207894 0.551207894,0 1.21265737,0 L9.45627765,0 Z M9.50272201,1.10292617 L1.21265737,1.10241579 L1.10241579,16.4259952 C1.10241579,16.5362368 1.21265737,16.5362368 1.21265737,16.5362368 L9.56651922,16.5362368 C9.56651922,16.5362368 9.6767608,16.5362368 9.6767608,16.4259952 L9.6767608,15.5440626 C9.6767608,14.8826131 10.2279687,14.3314052 10.8894182,14.3314052 L11.2201429,14.3314052 C11.4406261,14.3314052 11.7713508,14.2211637 11.7713508,13.8904389 L11.7713508,5.1813542 C11.7713508,5.07111262 11.7713508,4.96087104 11.5508676,4.85062947 L10.1177271,3.85845526 C9.78700238,3.52773052 9.56651922,3.19700578 9.56651922,2.86628105 L9.56651922,1.21265737 C9.56651922,1.12078938 9.56651922,1.10547805 9.50272201,1.10292617 Z M6.79133296,6.85947601 C7.04535064,6.85947601 7.15517791,6.96256541 7.27915472,7.14516168 C7.32227709,7.20849766 7.36472566,7.28530937 7.41054317,7.37963954 L7.45433932,7.47127455 L7.55001707,7.68823395 L7.72924439,8.13023819 L7.95496303,8.70295709 L8.22313023,8.70699982 L8.6017985,8.70363089 L9.44066324,8.68341728 L9.84897813,8.66994153 C10.1280698,8.66026636 10.3621616,8.8786716 10.3718368,9.15776328 C10.381512,9.43685497 10.1631067,9.67094676 9.88401504,9.68062195 L8.74666268,9.71565887 L8.19280981,9.72239675 L7.94350864,9.7190278 L7.80807746,9.71228994 L7.69218612,9.70218314 L7.5951608,9.68870739 C7.58073669,9.68628603 7.56635996,9.68359039 7.55203843,9.68062195 L7.47792187,9.66175592 C7.4563861,9.65508388 7.43524098,9.64721069 7.41458589,9.63817337 L7.36068294,9.6112219 L7.31351785,9.57888013 C7.30595744,9.57323196 7.29854334,9.56739054 7.29128288,9.56136166 L7.23468478,9.51015386 C7.2005071,9.47650426 7.17225977,9.43732248 7.15113519,9.3942625 L7.10599148,9.29723718 L6.81154657,8.55741911 L6.09733242,10.4979255 L5.99087407,10.7768733 L5.91069343,10.9695764 L5.8554429,11.0841202 L5.81232054,11.1528464 L5.79614966,11.185862 C5.78388988,11.2072685 5.76561596,11.2246053 5.74359427,11.2357222 L5.68834374,11.2626737 L5.54280576,11.318598 L5.3905299,11.372501 C5.17222293,11.372501 5.07519761,11.2943417 4.97210821,11.163627 C4.94456432,11.1278316 4.91978713,11.0899901 4.89799165,11.0504308 L4.86430231,10.9891162 L4.7874906,10.8327976 L4.71809054,10.6791742 L4.28417175,9.65164912 L3.96614431,9.65299669 L3.55513427,9.6624297 L3.04036105,9.67994817 C2.76799941,9.6811712 2.54366759,9.46632478 2.53313,9.19416432 C2.52259241,8.92200385 2.72964057,8.69045514 3.0012814,8.67061532 L3.82667041,8.6409687 L4.20668625,8.63423083 L4.35491938,8.63557839 L4.47889617,8.64029491 L4.58265936,8.64905414 L4.66890409,8.66118231 L4.7409993,8.67802697 L4.80164013,8.69891437 L4.85352171,8.72519206 L4.90068681,8.75618627 L4.97143444,8.81413194 L5.01186165,8.8525378 C5.02426889,8.86571153 5.03553889,8.87991174 5.04555099,8.89498637 L5.07924034,8.95293205 L5.14661904,9.09981761 L5.3548192,9.59100829 L5.74224669,8.53114142 L6.02523721,7.78728064 L6.10407028,7.59188243 L6.17818685,7.41939296 L6.24152282,7.28261422 L6.27251702,7.22197339 L6.33383164,7.1182102 L6.36280447,7.07778298 L6.42479288,7.00905671 L6.47397931,6.96323921 C6.50833556,6.93612492 6.54843739,6.91722636 6.59121824,6.90798867 L6.79133296,6.85947601 Z M12.8736014,6.98978825 L12.8736014,11.3103138 C13.8769357,11.1046418 14.6376318,10.2118682 14.6376318,9.15005104 C14.6376318,8.08823386 13.8769357,7.19546027 12.8736014,6.98978825 Z" id="形状结合" fill="#FFFFFF" fill-rule="nonzero"></path>
                <rect id="矩形" x="0" y="0" width="18" height="18"></rect>
            </g>
        </g>
    </g>
</svg>