<?xml version="1.0" encoding="UTF-8"?>
<svg width="18px" height="18px" viewBox="0 0 18 18" version="1.1" xmlns="http://www.w3.org/2000/svg" xmlns:xlink="http://www.w3.org/1999/xlink">
    <title>diskchart</title>
    <g id="页面-1" stroke="none" stroke-width="1" fill="none" fill-rule="evenodd">
        <g id="图标4" transform="translate(-408.000000, -157.000000)">
            <g id="diskchart" transform="translate(408.000000, 157.000000)">
                <path d="M16.5,-5.4534155e-13 C17.04,-5.4534155e-13 17.4,0.36 17.4,0.9 L17.4,0.9 L17.4,17.1 C17.4,17.64 17.04,18 16.5,18 L16.5,18 L2.4,18 C1.92,18 1.5,17.64 1.5,17.16 L1.5,17.16 L1.5,14.52 L0.9,14.52 C0.36,14.52 -2.17781349e-12,14.16 -2.17781349e-12,13.62 C-2.17781349e-12,13.08 0.36,12.72 0.9,12.72 L0.9,12.72 L1.5,12.72 L1.5,5.94 L0.9,5.94 C0.36,5.94 -2.17781349e-12,5.58 -2.17781349e-12,5.04 C-2.17781349e-12,4.56 0.48,4.2 0.9,4.2 L0.9,4.2 L1.5,4.2 L1.5,0.9 C1.5,0.36 1.86,-5.4534155e-13 2.4,-5.4534155e-13 L2.4,-5.4534155e-13 Z M16.2,13.92 L2.7,13.92 L2.7,16.8 L16.2,16.8 L16.2,13.92 Z M16.2,1.2 L2.7,1.2 L2.7,12.72 L16.2,12.72 L16.2,1.2 Z M7.86,3.36 C8.22,3.36 8.46,3.6 8.46,3.96 L8.46,3.96 L8.46,9.78 C8.46,10.14 8.22,10.38 7.86,10.38 L7.86,10.38 L4.86,10.38 C4.5,10.38 4.26,10.14 4.26,9.78 L4.26,9.78 L4.26,3.96 C4.26,3.6 4.5,3.36 4.86,3.36 L4.86,3.36 Z M13.92,3.36 C14.28,3.36 14.52,3.6 14.52,3.96 L14.52,3.96 L14.52,9.78 C14.52,10.14 14.28,10.38 13.92,10.38 L13.92,10.38 L10.92,10.38 C10.56,10.38 10.32,10.14 10.32,9.78 L10.32,9.78 L10.32,3.96 C10.32,3.6 10.56,3.36 10.92,3.36 L10.92,3.36 Z M7.26,4.56 L5.46,4.56 L5.46,9.18 L7.26,9.18 L7.26,4.56 Z M13.32,4.56 L11.52,4.56 L11.52,9.18 L13.32,9.18 L13.32,4.56 Z" id="形状结合" fill="#FFFFFF" fill-rule="nonzero"></path>
                <rect id="B" x="0" y="0" width="18" height="18"></rect>
            </g>
        </g>
    </g>
</svg>