<?xml version="1.0" encoding="UTF-8"?>
<svg width="18px" height="18px" viewBox="0 0 18 18" version="1.1" xmlns="http://www.w3.org/2000/svg" xmlns:xlink="http://www.w3.org/1999/xlink">
    <title>energyEfficiency</title>
    <g id="页面-1" stroke="none" stroke-width="1" fill="none" fill-rule="evenodd">
        <g id="图标4" transform="translate(-408.000000, -230.000000)" fill="#FFFFFF" fill-rule="nonzero">
            <g id="energyEfficiency" transform="translate(408.000000, 230.000000)">
                <path d="M13.2749344,7.63149221 L13.0814813,7.66910382 C11.3094977,8.06046842 10.0225004,9.65323655 10.0225004,11.4666667 C10.0225004,13.2799799 11.3085145,14.8591129 13.074824,15.2616507 L13.2730162,15.3014872 L13.3558337,15.4 L13.3558337,15.8 L13.2558337,15.9 L11.689,15.899 L11.689,17.033 L16.155,17.033 L16.155,15.911 L14.589167,15.9111111 L14.489167,15.8111111 L14.489167,15.4 L14.5700664,15.3018411 L14.7635195,15.2642295 C16.535503,14.8728649 17.8225004,13.2800968 17.8225004,11.4666667 C17.8225004,9.65335344 16.5364862,8.07422045 14.7701768,7.67168267 L14.5719846,7.63184609 L13.2749344,7.63149221 Z M11.4447226,0.0999383471 L3.09267798,0.0999383471 L2.89372981,0.106866792 C2.18191789,0.156768411 1.48577808,0.476961527 0.959877706,0.9929329 C0.450011926,1.50279868 0.143519445,2.20408563 0.104299798,2.93375222 L0.100168738,3.13333333 L0.100168738,13.3619903 L0.109404818,13.5604532 C0.166209913,14.269869 0.478417876,14.9367184 0.993211039,15.4515115 C1.49936995,15.9576705 2.1571516,16.2539533 2.87282274,16.3036398 L3.08916703,16.3111111 L10.53,16.3111111 L10.3326181,16.1566481 C10.0647105,15.9354478 9.82209881,15.6901132 9.62198374,15.4310127 L9.48013431,15.2342681 L9.35583369,15.0333333 L3.07310229,15.0332106 L2.91188229,15.025088 C2.53438692,14.9872746 2.18943212,14.8201269 1.89758064,14.5386987 C1.62115481,14.2725109 1.44837262,13.9151143 1.40148769,13.5247186 L1.38916703,13.3555556 L1.38928834,3.11729795 L1.39740128,2.9552268 C1.43576629,2.56785354 1.60688406,2.20752828 1.88642014,1.92801557 C2.1749109,1.64982805 2.53623189,1.4797276 2.91487942,1.44154917 L3.07805592,1.43333333 L11.4496469,1.43345465 L11.611718,1.44156759 C11.9990913,1.47993259 12.3594165,1.65105037 12.6363584,1.92801557 C12.9237339,2.20512774 13.0974186,2.56517181 13.1363495,2.95398469 L13.1447226,3.12222222 L13.144,6.277 L14.422,6.277 L14.42252,3.13531388 L14.4185249,2.93087675 C14.3795348,2.19418291 14.074436,1.49335704 13.5740119,0.9929329 C13.0561284,0.475049387 12.3602698,0.156307308 11.6412707,0.106780042 L11.4447226,0.0999383471 Z M13.9336115,8.68888889 C15.4908849,8.68888889 16.7113893,9.90235865 16.7113893,11.4555556 C16.7113893,13.010784 15.4888399,14.2333333 13.9336115,14.2333333 C12.3801495,14.2333333 11.1558337,13.0125458 11.1558337,11.4666667 C11.1558337,9.91143819 12.378383,8.68888889 13.9336115,8.68888889 Z M4.45296338,3.0329932 L4.35284546,3.0410965 C4.01608828,3.08911359 3.75344431,3.34590342 3.69120625,3.67623871 L3.67805592,3.78888889 L3.67750893,6.14511055 L3.68787784,6.24541375 C3.74325569,6.58424526 4.00077169,6.8451761 4.32358069,6.90047103 L4.43341423,6.91111131 L10.058704,6.90034013 L10.1588219,6.89223683 C10.4955791,6.84421975 10.7582231,6.58742992 10.8204611,6.25709462 L10.8336115,6.14444444 L10.8336312,3.80912603 L10.8359136,3.71109768 C10.826617,3.56170442 10.7576671,3.40186307 10.6493948,3.26823183 C10.536392,3.14715737 10.3742439,3.06474972 10.2098905,3.04064368 L10.1113893,3.03333333 L4.45296338,3.0329932 Z M8.30027814,8.11111111 C8.34472258,8.11111111 8.40027814,8.14444444 8.43361147,8.17777778 C8.54472258,8.3 8.50027814,8.5 8.46694481,8.57777778 L8.46694481,8.57777778 L7.95583369,10.3777778 L9.01138925,10.3777778 C9.05583369,10.3555556 9.12250036,10.3555556 9.18916703,10.3777778 C9.23361147,10.3888889 9.30027814,10.4333333 9.35583369,10.5444444 C9.38916703,10.5777778 9.42250036,10.6444444 9.42250036,10.7444444 C9.42250036,10.8333333 9.37805592,10.9222222 9.32250036,10.9777778 L9.32250036,10.9777778 L6.71138925,13.6444444 C6.70027814,13.6444444 6.68916703,13.6666667 6.67805592,13.6777778 C6.63361147,13.7222222 6.53361147,13.8333333 6.41138925,13.8333333 C6.37805592,13.8333333 6.32250036,13.8333333 6.27805592,13.8 C6.12250036,13.7 6.12250036,13.4888889 6.15583369,13.3777778 L6.15583369,13.3777778 L6.56694481,11.5666667 L5.45583369,11.5666667 C5.35583369,11.5666667 5.26694481,11.5 5.15583369,11.3777778 C5.02250036,11.2333333 5.17805592,11.0333333 5.28916703,10.9222222 L5.28916703,10.9222222 L7.95583369,8.3 C8.04472258,8.21111111 8.18916703,8.11111111 8.30027814,8.11111111 Z M13.9225004,10.2444444 C14.6002781,10.2444444 15.1447226,10.7888889 15.1447226,11.4666667 C15.1447226,12.1444444 14.6002781,12.6888889 13.9225004,12.6888889 C13.2447226,12.6888889 12.7002781,12.1444444 12.7002781,11.4666667 C12.7002781,10.7888889 13.2447226,10.2444444 13.9225004,10.2444444 Z M9.76694481,4 L9.86694278,4.09936307 L9.87805389,5.84380751 L9.77805592,5.94444444 L4.74472258,5.94444444 L4.64472258,5.84444444 L4.64472258,4.1 L4.74472258,4 L9.76694481,4 Z" id="形状结合"></path>
            </g>
        </g>
    </g>
</svg>