<?xml version="1.0" encoding="UTF-8"?>
<svg width="18px" height="18px" viewBox="0 0 18 18" version="1.1" xmlns="http://www.w3.org/2000/svg" xmlns:xlink="http://www.w3.org/1999/xlink">
    <title>meterReading</title>
    <g id="页面-1" stroke="none" stroke-width="1" fill="none" fill-rule="evenodd">
        <g id="图标4" transform="translate(-408.000000, -300.000000)" fill="#FFFFFF" fill-rule="nonzero">
            <g id="meterReading" transform="translate(408.000000, 300.000000)">
                <path d="M14.835538,8.91450639 L14.3607289,9.38931552 L9.25927734,14.490767 C9.24909002,14.5009544 9.24109996,14.51254 9.23510742,14.5247248 C9.14821555,14.5820534 9.0908869,14.6801314 9.0908869,14.7919922 L8.55415483,17.6999734 C8.55415483,17.8771529 8.5847168,17.9077148 8.76189631,17.9077148 L11.6698775,17.3709828 C11.7817383,17.3709828 11.8798162,17.3136541 11.9371449,17.2267623 C11.9493297,17.2207697 11.9609153,17.2127797 11.9711026,17.2025923 L16.2645597,12.9091353 L17.5473633,11.6263317 C18.0511364,11.1225586 18.0511364,10.3055753 17.5473633,9.8018022 L16.6600675,8.91450639 C16.1560946,8.41053356 15.3393111,8.41053356 14.835538,8.91450639 Z M10.4683727,14.9765625 L14.8321422,10.612793 C14.8521174,10.6357644 14.872492,10.6583363 14.8944647,10.6801092 L15.7817605,11.567405 C15.8035334,11.5891779 15.8261053,11.6097523 15.8490767,11.6297275 L11.4853072,15.993497 L10.4683727,14.9765625 Z M12.5002441,4.49540572 L3.62448952,4.49540572 C3.29350142,4.49540572 3.02523526,4.76367188 3.02523526,5.09465998 C3.02523526,5.42564808 3.29350142,5.69391424 3.62448952,5.69391424 L12.5002441,5.69391424 C12.8312322,5.69391424 13.0994984,5.42564808 13.0994984,5.09465998 C13.0994984,4.76367188 12.8312322,4.49540572 12.5002441,4.49540572 Z M12.5002441,7.85262784 L3.62448952,7.85262784 C3.29350142,7.85262784 3.02523526,8.120894 3.02523526,8.4518821 C3.02523526,8.78287021 3.29350142,9.05113636 3.62448952,9.05113636 L12.5002441,9.05113636 C12.8312322,9.05113636 13.0994984,8.78287021 13.0994984,8.4518821 C13.0994984,8.120894 12.8312322,7.85262784 12.5002441,7.85262784 Z M9.94342596,11.2100497 L3.57115589,11.2100497 C3.269731,11.2100497 3.02523526,11.4543457 3.02523526,11.7559703 L3.02523526,11.8628374 C3.02523526,12.1642623 3.26953125,12.408758 3.57115589,12.408758 L9.94362571,12.408758 C10.2450506,12.408758 10.4895463,12.164462 10.4895463,11.8628374 L10.4895463,11.7559703 C10.4893466,11.4543457 10.2448509,11.2100497 9.94342596,11.2100497 Z" id="形状"></path>
                <path d="M13.715332,0.00998757102 L2.40940163,0.00998757102 C1.08564897,0.00998757102 0.0123845881,1.08325195 0.0123845881,2.40700462 L0.0123845881,15.5106978 C0.0123845881,16.8344505 1.08564897,17.9077148 2.40940163,17.9077148 L7.02725497,17.9077148 C7.35824308,17.9077148 7.62650923,17.6394487 7.62650923,17.3084606 C7.62650923,16.9774725 7.35824308,16.7092063 7.02725497,16.7092063 L2.40940163,16.7092063 C1.74862393,16.7092063 1.21089311,16.1714755 1.21089311,15.5106978 L1.21089311,2.40700462 C1.21089311,1.74622692 1.74862393,1.20849609 2.40940163,1.20849609 L13.715332,1.20849609 C14.3761097,1.20849609 14.9138406,1.74622692 14.9138406,2.40700462 L14.9138406,7.46031605 C14.9138406,7.79130415 15.1821067,8.05957031 15.5130948,8.05957031 C15.8440829,8.05957031 16.1123491,7.79130415 16.1123491,7.46031605 L16.1123491,2.40700462 C16.1123491,1.08325195 15.0392844,0.00998757102 13.715332,0.00998757102 Z" id="路径"></path>
            </g>
        </g>
    </g>
</svg>