<?xml version="1.0" encoding="UTF-8"?>
<svg width="18px" height="18px" viewBox="0 0 18 18" version="1.1" xmlns="http://www.w3.org/2000/svg" xmlns:xlink="http://www.w3.org/1999/xlink">
    <title>onetimeGraph</title>
    <g id="页面-1" stroke="none" stroke-width="1" fill="none" fill-rule="evenodd">
        <g id="图标4" transform="translate(-408.000000, -193.000000)">
            <g id="onetimeGraph" transform="translate(408.000000, 193.000000)">
                <path d="M4.99457157,1.00058737 C5.14119002,1.00058737 5.28180337,1.05883133 5.38547827,1.16250623 C5.48915317,1.26618114 5.54739712,1.40679449 5.54739712,1.55341294 L5.54714158,2.93458737 L10.2461416,2.93458737 L10.2464143,2.65906403 C10.2464143,2.35374691 10.4939227,2.10623849 10.7992399,2.10623849 L17.4331465,2.10623849 C17.5797649,2.10623849 17.7203783,2.16448243 17.8240532,2.26815733 C17.9277281,2.37183223 17.9859721,2.51244558 17.9859721,2.65906403 L17.9859721,4.87036624 C17.9859721,5.0169847 17.9277281,5.15759804 17.8240532,5.26127294 C17.7203783,5.36494785 17.5797649,5.42319179 17.4331465,5.42319179 L10.7992399,5.42319179 C10.4939227,5.42319179 10.2464143,5.17568336 10.2464143,4.87036624 L10.2461416,4.04058737 L5.54714158,4.04058737 L5.54739712,5.97601736 C5.54739712,6.28133448 5.29988869,6.52884291 4.99457157,6.52884291 L4.71814158,6.52858737 L4.71815878,9.0165579 L10.2464143,9.0165579 L10.2464143,8.46373233 C10.2464143,8.15841521 10.4939227,7.91090678 10.7992399,7.91090678 L17.4331465,7.91090678 C17.5797649,7.91090678 17.7203783,7.96915073 17.8240532,8.07282563 C17.9277281,8.17650053 17.9859721,8.31711387 17.9859721,8.46373233 L17.9859721,10.6750346 C17.9859721,10.821653 17.9277281,10.9622664 17.8240532,11.0659413 C17.7203783,11.1696162 17.5797649,11.2278601 17.4331465,11.2278601 L10.7992399,11.2278601 C10.4939227,11.2278601 10.2464143,10.9803517 10.2464143,10.6750346 L10.2464143,10.122209 L10.2464143,10.122209 L4.16533324,10.122209 C4.01871478,10.122209 3.87810144,10.063965 3.77442653,9.96029015 C3.67075162,9.85661525 3.61250767,9.7160019 3.61250767,9.56938345 L3.61214158,6.52858737 L3.05914158,6.52858737 L3.05968212,14.5448134 L10.2464143,14.5448134 L10.2464143,13.9919879 C10.2464143,13.6866707 10.4939227,13.4391623 10.7992399,13.4391623 L17.4331465,13.4391623 C17.5797649,13.4391623 17.7203783,13.4974063 17.8240532,13.6010812 C17.9277281,13.7047561 17.9859721,13.8453694 17.9859721,13.9919879 L17.9859721,16.2032901 C17.9859721,16.3499085 17.9277281,16.4905219 17.8240532,16.5941968 C17.7203783,16.6978717 17.579765,16.7561156 17.4331465,16.7561156 L10.7992399,16.7561156 C10.6526214,16.7561156 10.5120081,16.6978717 10.4083332,16.5941968 C10.3046583,16.4905219 10.2464143,16.3499085 10.2464143,16.2032901 L10.2464143,15.6504645 L10.2464143,15.6504645 L2.50685657,15.6504645 C2.20153946,15.6504645 1.95403103,15.4029561 1.95403103,15.097639 L1.95314158,6.52858737 L0.571967127,6.52884291 C0.266650008,6.52884291 0.0191415805,6.28133448 0.0191415805,5.97601736 L0.0191415805,1.55341294 C0.0191415805,1.40679449 0.0773855242,1.26618114 0.181060426,1.16250623 C0.284735327,1.05883133 0.425348672,1.00058737 0.571967127,1.00058737 L4.99457157,1.00058737 Z M16.8803209,14.5448134 L11.3520654,14.5448134 L11.3520654,15.6504645 L16.8803209,15.6504645 L16.8803209,14.5448134 Z M16.8803209,9.0165579 L11.3520654,9.0165579 L11.3520654,10.122209 L16.8803209,10.122209 L16.8803209,9.0165579 Z M4.441746,2.10623849 L1.1247927,2.10623849 L1.1247927,5.42319179 L4.441746,5.42319179 L4.441746,2.10623849 Z M16.8803209,3.21188958 L11.3520654,3.21188958 L11.3520654,4.3175407 L16.8803209,4.3175407 L16.8803209,3.21188958 Z" id="形状结合" fill="#FFFFFF" fill-rule="nonzero"></path>
                <rect id="矩形" x="0" y="0" width="18" height="18"></rect>
            </g>
        </g>
    </g>
</svg>