<?xml version="1.0" encoding="UTF-8"?>
<svg width="18px" height="18px" viewBox="0 0 18 18" version="1.1" xmlns="http://www.w3.org/2000/svg" xmlns:xlink="http://www.w3.org/1999/xlink">
    <title>transformer</title>
    <g id="页面-1" stroke="none" stroke-width="1" fill="none" fill-rule="evenodd">
        <g id="图标4" transform="translate(-408.000000, -374.000000)">
            <g id="transformer" transform="translate(408.000000, 374.000000)">
                <path d="M13.5,0.8 C13.8063186,0.8 14.0706737,0.996985859 14.1658785,1.29079502 L14.1911741,1.39218006 L14.2,1.5 L14.2,1.8 L15,1.8 C15.5257204,1.8 15.9783427,2.14057103 16.1390027,2.62694191 L16.1729586,2.75145942 L16.192932,2.87193128 L16.2,3 L16.2,4.818 L16.2380208,4.82374934 C16.6582861,4.90879789 17.0023247,5.21505707 17.1384801,5.6253633 L17.1729586,5.75145942 L17.192932,5.87193128 L17.2,6 L17.2,12 C17.2,12.5695304 16.8003021,13.0532721 16.2485406,13.1729586 L16.2,13.18 L16.2,15 C16.2,15.5348883 15.8491849,15.9885665 15.3653127,16.1432768 L15.2416986,16.1755998 L15.184,16.184 L15.1762507,16.2380208 C15.0912021,16.6582861 14.7849429,17.0023247 14.3746367,17.1384801 L14.2485406,17.1729586 L14.1280687,17.192932 L14,17.2 L11,17.2 C10.4304696,17.2 9.9467279,16.8003021 9.82704144,16.2485406 L9.819,16.2 L9.181,16.2 L9.17625066,16.2380208 C9.09120211,16.6582861 8.78494293,17.0023247 8.3746367,17.1384801 L8.24854058,17.1729586 L8.12806872,17.192932 L8,17.2 L5,17.2 C4.4304696,17.2 3.9467279,16.8003021 3.82704144,16.2485406 L3.819,16.2 L3,16.2 C2.47427963,16.2 2.02165732,15.859429 1.86099725,15.3730581 L1.82704144,15.2485406 L1.80706802,15.1280687 L1.8,15 L1.8,13.182 L1.76197918,13.1762507 C1.34171391,13.0912021 0.997675291,12.7849429 0.8615199,12.3746367 L0.827041436,12.2485406 L0.807068019,12.1280687 L0.8,12 L0.8,6 C0.8,5.4304696 1.19969794,4.9467279 1.75145942,4.82704144 L1.8,4.819 L1.8,3 C1.8,2.47427963 2.14057103,2.02165732 2.62694191,1.86099725 L2.75145942,1.82704144 L2.87193128,1.80706802 L3,1.8 L3.8,1.8 L3.8,1.5 C3.8,1.1805248 4.01287046,0.911746181 4.30481793,0.827457591 L4.404879,0.806377889 L4.5,0.8 C4.80631865,0.8 5.07067371,0.996985859 5.16587846,1.29079502 L5.19117408,1.39218006 L5.2,1.5 L5.2,1.8 L6.8,1.8 L6.8,1.5 C6.8,1.1805248 7.01287046,0.911746181 7.30481793,0.827457591 L7.404879,0.806377889 L7.5,0.8 C7.80631865,0.8 8.07067371,0.996985859 8.16587846,1.29079502 L8.19117408,1.39218006 L8.2,1.5 L8.2,1.8 L9.8,1.8 L9.8,1.5 C9.8,1.1805248 10.0128705,0.911746181 10.3048179,0.827457591 L10.404879,0.806377889 L10.5,0.8 C10.8063186,0.8 11.0706737,0.996985859 11.1658785,1.29079502 L11.1911741,1.39218006 L11.2,1.5 L11.2,1.8 L12.8,1.8 L12.8,1.5 C12.8,1.1805248 13.0128705,0.911746181 13.3048179,0.827457591 L13.404879,0.806377889 L13.5,0.8 Z M14.9705882,3 L3.02941176,3 L3.02941176,6.0952381 L2,6.0952381 L2,11.8730159 L3.02941176,11.8730159 L3.02941176,14.968254 L5.08823529,14.968254 L5.08823529,16 L7.76470588,16 L7.76470588,14.968254 L11.2647059,14.968254 L11.2647059,16 L13.9411765,16 L13.9411765,14.968254 L14.9705882,14.968254 L14.9705882,11.8730159 L16,11.8730159 L16,6.0952381 L14.9705882,6.0952381 L14.9705882,3 Z M9.64487255,6.46720951 C9.96889943,6.46720951 10.1089959,6.59871114 10.2671417,6.83163233 C10.3221489,6.91242419 10.3762967,7.01040579 10.4347418,7.13073408 L10.4906085,7.2476244 L10.6126558,7.52437947 L10.8412795,8.08820344 L11.1292079,8.81876806 L11.4712841,8.82392498 L11.9543162,8.81962755 L13.0243785,8.79384292 L13.5452281,8.77665315 C13.9012396,8.76431143 14.1998488,9.04291082 14.2121906,9.39892231 C14.2245323,9.75493379 13.9459329,10.0535431 13.5899214,10.0658848 L12.1391061,10.1105782 L11.4326071,10.1191731 L11.1145966,10.1148756 L10.9418396,10.1062807 L10.7940077,10.0933884 L10.6702415,10.0761987 C10.651842,10.07311 10.6335029,10.0696714 10.6152343,10.0658848 L10.5206906,10.0418192 C10.4932194,10.0333083 10.4662465,10.0232652 10.4398987,10.0117371 L10.3711397,9.97735758 L10.3109756,9.93610217 C10.3013315,9.92889732 10.291874,9.92144597 10.2826125,9.91375547 L10.2104155,9.84843442 C10.1668182,9.80551073 10.1307857,9.75553015 10.103839,9.70060251 L10.0462534,9.57683627 L9.67065718,8.6331187 L8.75960015,11.1084435 L8.62380107,11.4642714 L8.52152203,11.7100849 L8.45104403,11.8561979 L8.39603683,11.9438656 L8.37540912,11.9859805 C8.35977046,12.0132868 8.33646011,12.0354018 8.30836907,12.0495826 L8.23789107,12.0839621 L8.05224171,12.1552996 L7.85799747,12.2240586 C7.57952343,12.2240586 7.45575719,12.124358 7.32425556,11.9576174 C7.28912036,11.9119565 7.25751438,11.8636856 7.22971191,11.8132235 L7.18673753,11.7350101 L7.08875592,11.5356089 L7.00022867,11.3396457 L7.00108817,11.3396457 L6.44671855,10.0289268 L6.04104032,10.0306458 L5.51675277,10.0426786 L4.86010412,10.0650253 C4.51267753,10.0665854 4.22651815,9.79252571 4.21307632,9.44535574 C4.19963449,9.09818578 4.4637467,8.80282047 4.81025382,8.77751264 L5.86312635,8.73969519 L6.34787745,8.7311003 L6.53696477,8.73281927 L6.69511051,8.73883569 L6.82747163,8.75000904 L6.93748606,8.76547982 L7.02945127,8.786967 L7.10680517,8.81361113 L7.17298572,8.84713115 L7.23314987,8.8866676 L7.32339608,8.96058354 L7.37496535,9.00957434 C7.39079212,9.02637886 7.40516822,9.04449275 7.41793973,9.06372207 L7.46091411,9.13763801 L7.5468629,9.32500636 L7.81244462,9.95157295 L8.30665008,8.59959867 L8.66763495,7.65072417 L8.76819502,7.40147272 L8.86273869,7.18144385 L8.94353052,7.00696784 L8.98306697,6.92961394 L9.06128036,6.79725281 L9.09823832,6.74568355 L9.17731121,6.65801579 L9.24005381,6.59957063 C9.2838789,6.56498344 9.3350331,6.54087629 9.38960468,6.52909263 L9.64487255,6.46720951 Z" id="形状结合" fill="#FFFFFF" fill-rule="nonzero"></path>
                <rect id="矩形" x="0" y="0" width="18" height="18"></rect>
            </g>
        </g>
    </g>
</svg>