<?xml version="1.0" encoding="UTF-8"?>
<svg width="211px" height="86px" viewBox="0 0 211 86" version="1.1" xmlns="http://www.w3.org/2000/svg" xmlns:xlink="http://www.w3.org/1999/xlink">
    <title>编组 30</title>
    <defs>
        <linearGradient x1="50%" y1="0%" x2="50%" y2="100%" id="linearGradient-1">
            <stop stop-color="#909399" offset="0%"></stop>
            <stop stop-color="#909399" stop-opacity="0" offset="100%"></stop>
        </linearGradient>
    </defs>
    <g id="页面-1" stroke="none" stroke-width="1" fill="none" fill-rule="evenodd">
        <g id="路灯管理-手动控制" transform="translate(-1445.000000, -526.000000)">
            <g id="编组-15备份-3" transform="translate(1445.000000, 458.000000)">
                <g id="编组-9备份-26">
                    <g id="编组-30" transform="translate(0.000000, 68.000000)">
                        <rect id="矩形" opacity="0.300000012" x="0" y="3.63797881e-12" width="211" height="86"></rect>
                        <g id="编组-23" transform="translate(70.000000, 0.000000)">
                            <path d="M13.9873235,84.7897946 L8.625,84.7897946 L8.7231834,72.8305688 C8.95890023,72.1213727 9.25450266,71.4332509 9.60683389,70.773552 L9.60683389,31.6097428 C9.60683389,23.3516458 10.2411681,25.968909 11.4647657,18.4042951 C12.0152297,13.1542323 14.8939582,8.42223262 19.3156604,5.49914182 C22.0912293,4.51943123 24.8970084,3.47215443 27.6234854,2.49619744 C29.9157349,1.31444231 32.3700269,0.473418504 34.9079375,4.63037016e-13 C35.3850789,0.300628036 35.707481,0.792292714 35.791588,1.34757126 L35.6027738,3.22441149 C31.3148988,4.28795618 27.2323181,6.0456396 23.5186646,8.42701253 C22.5491542,7.66470114 21.3979497,7.16430631 20.1766532,6.97433822 C17.6704922,8.00352547 15.6825481,9.98632825 14.6557257,12.4809874 C11.3741349,18.3930341 13.0168184,23.1564545 13.0168184,31.7035847 L13.0168184,70.7622909 C13.1754224,71.3703872 13.741865,72.0760791 13.8966927,72.8193078 C13.8966927,76.8057164 13.9306792,80.792125 13.9646658,84.7785335 L13.9873235,84.7897946 Z" id="路径备份" fill="#909399" fill-rule="nonzero"></path>
                            <path d="M35.6027738,3.22441149 L106.454271,83.9420433 L3.26849658e-13,83.9420433 L23.5186646,8.42701253 C24.9311459,7.38184316 26.713708,6.39586717 28.866351,5.46908455 C31.0189939,4.54230193 33.2644682,3.79407758 35.6027738,3.22441149 Z" id="矩形备份-18" fill="url(#linearGradient-1)" opacity="0.149999991"></path>
                        </g>
                    </g>
                </g>
            </g>
        </g>
    </g>
</svg>