<?xml version="1.0" encoding="UTF-8"?>
<svg width="211px" height="86px" viewBox="0 0 211 86" version="1.1" xmlns="http://www.w3.org/2000/svg" xmlns:xlink="http://www.w3.org/1999/xlink">
    <title>编组 27</title>
    <defs>
        <linearGradient x1="50%" y1="0%" x2="50%" y2="100%" id="linearGradient-1">
            <stop stop-color="#FFC800" offset="0%"></stop>
            <stop stop-color="#FFD10A" stop-opacity="0" offset="100%"></stop>
        </linearGradient>
        <linearGradient x1="50%" y1="0%" x2="50%" y2="100%" id="linearGradient-2">
            <stop stop-color="#FFC800" offset="0%"></stop>
            <stop stop-color="#FFD10A" stop-opacity="0" offset="100%"></stop>
        </linearGradient>
    </defs>
    <g id="页面-1" stroke="none" stroke-width="1" fill="none" fill-rule="evenodd">
        <g id="路灯管理-手动控制" transform="translate(-996.000000, -312.000000)">
            <g id="编组-9备份-25" transform="translate(994.000000, 244.000000)">
                <g id="编组-27" transform="translate(2.000000, 68.000000)">
                    <rect id="矩形" opacity="0.300000012" x="0" y="0" width="211" height="86"></rect>
                    <g id="集中控制器" transform="translate(30.000000, 0.000000)">
                        <path d="M78.3894295,84.9840469 L73.6895662,84.9840469 L73.7756201,74.5022612 C73.9822165,73.880679 74.2413003,73.2775676 74.5501046,72.6993678 L74.5501046,27.8073776 C74.5501046,20.5694841 75.9037975,16.9505374 73.3883778,11.7589938 C72.4355751,9.29405361 70.5068874,7.32577088 68.0530402,6.31412393 C67.0086205,6.41815843 65.9957571,6.72914795 65.0742536,7.22873045 C62.1186354,5.09684183 57.8622804,4.47833095 54.5723761,2.58002889 C54.4758746,1.88255185 54.4758746,1.17522686 54.5723761,0.477749819 C54.7320218,0.149270344 55.0856116,-0.0403925867 55.4494633,0.00728678802 C57.3823648,0.691596703 59.3450542,1.39893628 61.2812654,2.1095658 C67.1130675,4.33028311 71.0384462,4.98169353 74.0238523,10.3114151 C75.0293583,12.162233 75.7289247,14.1617253 76.0957638,16.2333279 L76.1785079,16.2333279 C76.6609677,11.6318568 79.1840587,7.48444725 83.0595048,4.92247444 C85.4921805,4.06379707 87.9513343,3.14590061 90.340983,2.29051313 C92.3500485,1.25475177 94.5011378,0.517627859 96.7255155,0.102695371 C97.143711,0.366183887 97.4262835,0.79710842 97.5,1.28378798 L97.3345119,2.92876379 C93.57636,3.8609184 89.9981404,5.401458 86.7432708,7.48863665 C85.8935335,6.82050104 84.8845485,6.38192488 83.8141308,6.2154254 C81.6175803,7.11746709 79.8752264,8.85531486 78.9752575,11.0417844 C76.0990736,16.2234581 77.5388204,20.3984066 77.5388204,27.8896263 L77.5388204,72.6894979 C77.6778304,73.2224701 78.1742949,73.8409809 78.3099951,74.4923914 C78.3099951,77.9863199 78.339783,81.4802485 78.3695709,84.974177 L78.3894295,84.9840469 Z" id="路径" fill="#FFFFFF" fill-rule="nonzero" opacity="0.600000024"></path>
                        <path d="M97.3345119,2.92876379 L152,84.2582212 L65.2120507,84.2582212 L86.7432708,7.48863665 C87.2866979,6.98757218 88.7245348,6.19890502 91.0567814,5.12263518 C93.3890281,4.04636533 95.4816049,3.31507487 97.3345119,2.92876379 Z" id="矩形" fill="url(#linearGradient-1)" opacity="0.900000036"></path>
                        <path d="M32.2155731,2.58002889 L86.7879493,84.2582212 L0,84.2582212 L21.7136957,7.22873045 C22.815857,6.4131815 24.3511348,5.61566231 26.319529,4.83617288 C28.2879232,4.05668344 30.2532712,3.30463545 32.2155731,2.58002889 Z" id="矩形备份-16" fill="url(#linearGradient-2)" opacity="0.900000036" transform="translate(43.393975, 43.419125) scale(-1, 1) translate(-43.393975, -43.419125) "></path>
                    </g>
                </g>
            </g>
        </g>
    </g>
</svg>