<?xml version="1.0" encoding="UTF-8"?>
<svg width="211px" height="86px" viewBox="0 0 211 86" version="1.1" xmlns="http://www.w3.org/2000/svg" xmlns:xlink="http://www.w3.org/1999/xlink">
    <title>编组 28备份</title>
    <defs>
        <linearGradient x1="50%" y1="0%" x2="50%" y2="100%" id="linearGradient-1">
            <stop stop-color="#909399" offset="0%"></stop>
            <stop stop-color="#909399" stop-opacity="0" offset="100%"></stop>
        </linearGradient>
    </defs>
    <g id="页面-1" stroke="none" stroke-width="1" fill="none" fill-rule="evenodd">
        <g id="路灯管理-手动控制" transform="translate(-1219.000000, -526.000000)">
            <g id="编组-22" transform="translate(1219.000000, 458.000000)">
                <g id="编组-28备份" transform="translate(0.000000, 68.000000)">
                    <rect id="矩形" opacity="0.300000012" x="0" y="0" width="211" height="86"></rect>
                    <g id="编组-18" transform="translate(63.000000, 0.000000)">
                        <g id="装机容量、灯杆-(2)" transform="translate(2.000000, 0.000000)" fill="#909399" fill-rule="nonzero">
                            <path d="M15.4969891,-8.44823865e-12 C16.0727832,-8.44823865e-12 16.7181608,0.401140115 16.9387124,0.896093587 L20.2966294,8.43533256 C20.5171809,8.93028603 20.2290804,9.33163324 19.6530829,9.33184033 L13.4035362,9.332 L13.4026181,14.5503958 C17.6058723,12.4617449 23.0210336,10.2639751 29.9266803,8.23477562 C30.1145014,7.63588114 30.5532737,7.16508735 31.1442149,7.01730779 L42.8664148,4.09004315 C43.8264024,3.85023676 44.8256634,4.55417608 45.0982364,5.66164082 C45.3700291,6.7696303 44.8113585,7.86213993 43.8513709,8.10194632 L32.1294311,11.0294733 C31.8047924,11.1105686 31.4756328,11.0837683 31.1716242,10.9699338 C24.891968,14.131529 16.9762622,19.1317882 13.8207037,25.3963222 C13.7329251,25.5701848 13.5822128,25.6986343 13.4048037,25.759322 L13.4044265,72.8612083 C14.295189,73.3027837 14.9219754,74.3544748 14.9219754,75.5819196 L14.9219754,82.6449262 C14.9265727,85.6821239 15.1472468,85.5960665 12.4665382,85.587933 C9.86665179,85.5889586 10.0030577,85.7285549 10.0106009,82.8506461 L10.0108821,75.5819196 C10.0108821,74.3437276 10.6488984,73.2841336 11.5524235,72.8495735 L11.5527934,25.7806553 C11.3163938,25.7274813 11.1173504,25.5576913 11.0291712,25.3225961 C10.9605077,25.143922 9.27305193,20.9412757 3.69856978,22.6220194 C2.10968761,23.9485632 1.37883823,24.7771284 1.35204909,24.8083505 C1.08889502,25.1159797 0.628352282,25.1501626 0.323398088,24.8847002 C0.0184438935,24.6192378 -0.015441805,24.1546552 0.247712262,23.847026 C0.495920938,23.5564695 3.36139206,19.8754167 11.5521499,15.5032499 L11.5525362,9.333 L6.73820511,9.33432546 C6.16241104,9.33432546 5.51723684,8.93318534 5.29648188,8.43823187 L1.93856482,0.898992896 C1.71801331,0.403832331 2.00652073,0.00289930903 2.58190787,0.00227802852 L15.4969891,-8.44823865e-12 Z M6.11089293,20.7492207 C8.95571883,20.7313435 10.6532581,22.2055967 11.5536348,23.3817504 L11.5522466,17.2306329 C9.42068901,18.439342 7.67520987,19.6134124 6.11089293,20.7492207 Z M30.0001636,9.77611378 L29.5163042,9.92132183 C22.3468957,12.1026526 17.2785246,14.2092974 13.4035163,16.2252061 L13.4026537,23.1697508 C17.1275099,17.1879936 23.6222397,13.1172917 30.0542376,9.90017046 C30.0350946,9.85981799 30.0170726,9.81835695 30.0001636,9.77611378 Z M17.6038257,5.92846571 L14.6166142,5.92929408 C14.4837543,5.92929408 14.4172226,6.02186488 14.4680878,6.13638758 L15.2446977,7.88011488 C15.2957664,7.99484468 15.4449032,8.08741548 15.5783734,8.08741548 L18.5653815,8.08679419 C18.6986483,8.08679419 18.76518,7.99401631 18.7141113,7.87970069 L17.937298,6.1357663 C17.8864328,6.02145069 17.7368891,5.92846571 17.6038257,5.92846571 Z M13.1276881,5.92846571 L10.1404766,5.92929408 C10.0076167,5.92929408 9.94088157,6.02186488 9.99195023,6.13638758 L10.7685601,7.88011488 C10.8198322,7.99484468 10.968969,8.08741548 11.1022358,8.08741548 L14.0892438,8.08679419 C14.2225107,8.08679419 14.2890423,7.99401631 14.2379737,7.87970069 L13.4611603,6.1357663 C13.4100917,6.02145069 13.2609549,5.92846571 13.1276881,5.92846571 Z M8.84748323,5.92846571 L5.86027175,5.92929408 C5.72720839,5.92929408 5.66047325,6.02186488 5.71133845,6.13638758 L6.48815179,7.88011488 C6.53901699,7.99484468 6.68835721,8.08741548 6.82162404,8.08741548 L9.80883551,8.08679419 C9.94210234,8.08679419 10.008634,7.99401631 9.95776882,7.87970069 L9.18095548,6.1357663 C9.12988682,6.02145069 8.98075005,5.92846571 8.84748323,5.92846571 Z M12.1305267,3.43112447 L9.14331523,3.43174644 C9.01025187,3.43174644 8.94372019,3.52431723 8.99478885,3.63883994 L9.77139873,5.38256723 C9.82246739,5.49729703 9.97160415,5.58986783 10.104871,5.58986783 L13.091879,5.58945364 C13.2251458,5.58945364 13.2916775,5.49646866 13.2408123,5.38215305 L12.463999,3.63821866 C12.4131338,3.52390305 12.2637935,3.43091806 12.1305267,3.43112447 Z M16.5678033,3.43112447 L13.5805918,3.43174644 C13.4475285,3.43174644 13.3809968,3.52431723 13.4320655,3.63883994 L14.2086753,5.38256723 C14.2595405,5.49750413 14.4088808,5.58986783 14.5421476,5.58986783 L17.5291556,5.58945364 C17.6624224,5.58945364 17.7289541,5.49646866 17.6780889,5.38215305 L16.9012756,3.63821866 C16.8504104,3.52390305 16.7008667,3.43091806 16.5678033,3.43112447 Z M7.74370839,3.43112447 L4.75629345,3.43174644 C4.62343355,3.43174644 4.55690187,3.52431723 4.60776707,3.63883994 L5.38437694,5.38256723 C5.43524214,5.49729703 5.58458237,5.58986783 5.71784919,5.58986783 L8.70506067,5.58945364 C8.83832749,5.58945364 8.90506264,5.49646866 8.85399398,5.38215305 L8.07718064,3.63821866 C8.02611198,3.52390305 7.87697521,3.43091806 7.74370839,3.43112447 Z M11.0989805,0.968368874 L8.11176898,0.968783407 C7.97870561,0.968783407 7.91197047,1.06176839 7.96303913,1.176084 L8.73964901,2.9198113 C8.79092113,3.034334 8.94005789,3.12711189 9.07332472,3.12711189 L12.0603327,3.12649061 C12.193803,3.12649061 12.2601312,3.03350563 12.209266,2.91919002 L11.4324527,1.17546272 C11.3815875,1.06094002 11.2322473,0.968162126 11.0989805,0.968368874 Z M15.4906818,0.968368874 L12.5034704,0.968783407 C12.3702035,0.968783407 12.3036719,1.06176839 12.3547405,1.176084 L13.1313504,2.9198113 C13.182419,3.034334 13.3315558,3.12711189 13.4648226,3.12711189 L16.4520341,3.12649061 C16.5855044,3.12649061 16.6520361,3.03350563 16.6009674,2.91919002 L15.8241541,1.17546272 C15.7732889,1.06094002 15.6237452,0.968162126 15.4906818,0.968368874 Z M6.70707561,0.968368874 L3.71986413,0.968783407 C3.58720769,0.968783407 3.52026909,1.06176839 3.57113429,1.176084 L4.34815108,2.9198113 C4.39901628,3.034334 4.54815305,3.12711189 4.68162334,3.12711189 L7.66863135,3.12649061 C7.80189818,3.12649061 7.86842986,3.03350563 7.8173612,2.91919002 L7.04054786,1.17546272 C6.98968266,1.06094002 6.84034243,0.968162126 6.70707561,0.968368874 Z" id="形状结合"></path>
                        </g>
                        <polygon id="矩形" fill="url(#linearGradient-1)" opacity="0.149999991" points="46.3404607 8.08741548 122.875332 85.1094106 0.582608696 85.1094106 33.6373757 11.0763596"></polygon>
                    </g>
                </g>
            </g>
        </g>
    </g>
</svg>