<?xml version="1.0" encoding="UTF-8"?>
<svg width="211px" height="86px" viewBox="0 0 211 86" version="1.1" xmlns="http://www.w3.org/2000/svg" xmlns:xlink="http://www.w3.org/1999/xlink">
    <title>编组 24</title>
    <defs>
        <linearGradient x1="50%" y1="0%" x2="50%" y2="100%" id="linearGradient-1">
            <stop stop-color="#909399" offset="0%"></stop>
            <stop stop-color="#909399" stop-opacity="0" offset="100%"></stop>
        </linearGradient>
    </defs>
    <g id="页面-1" stroke="none" stroke-width="1" fill="none" fill-rule="evenodd">
        <g id="路灯管理-手动控制" transform="translate(-542.000000, -526.000000)">
            <g id="编组-9备份-31" transform="translate(542.000000, 458.000000)">
                <g id="编组-24" transform="translate(0.000000, 68.000000)">
                    <rect id="矩形" opacity="0.300000012" x="0" y="0" width="211" height="86"></rect>
                    <g id="编组-25" transform="translate(106.000000, 42.500000) scale(1, -1) translate(-106.000000, -42.500000) translate(53.000000, 0.000000)">
                        <polygon id="矩形" fill="url(#linearGradient-1)" opacity="0.149999991" transform="translate(53.000000, 36.131566) scale(1, -1) translate(-53.000000, -36.131566) " points="43.2797653 7.10542736e-15 62.8895783 7.10542736e-15 106 72.2631314 0 72.2631314"></polygon>
                        <path d="M53.2216395,9.16600129e-13 C54.3271067,9.16397058e-13 55.4190052,0.243492523 56.4197341,0.713172671 L56.4197341,0.713172671 L58.868197,1.86232949 C59.3358411,2.08181265 59.6344617,2.55184146 59.6344617,3.06843013 C59.6344617,3.53591901 59.2554871,3.91489362 58.7879982,3.91489362 L58.7879982,3.91489362 L54.212766,3.91489362 L54.212,8 L55.0560376,8 C57.2330489,8 59.3892964,8.40875946 61.4130704,9.20357337 L61.8446679,9.37979136 L64.1885611,10.3736422 C64.7403585,10.6076137 65.0987615,11.1488735 65.0987615,11.7482257 C65.0987615,12.2942381 64.6561309,12.7368686 64.1101185,12.7368686 L64.1101185,12.7368686 L54.212,12.736 L54.212,62.51 L54.5773884,62.5106383 C55.1602451,62.5106383 55.6358031,62.59229 55.6778314,63.7738311 L55.6808511,63.9502149 L55.6808511,64.5576984 C55.6808511,65.0398281 55.5020291,65.4255319 55.2883149,65.4255319 L55.2883149,65.4255319 L54.212,65.425 L54.2132047,70.5581016 C54.9673497,70.9320587 55.5281265,71.7528594 55.6656535,72.7452861 C55.6870896,72.8999736 55.6982429,73.0588307 55.6982429,73.2208152 L56.6769663,79.1335451 C56.7752908,80.0365401 56.8784637,80.6580275 56.8748912,81.0853431 L57.0241969,81.0851064 C57.6348087,81.0851064 58.1276596,82.1747196 58.1276596,83.5246829 L58.1276596,83.5246829 L58.1276596,84.1321664 C58.1276596,84.6142962 57.9488376,85 57.7351234,85 L57.7351234,85 L48.7329617,85 C48.514886,85 48.3404255,84.6046536 48.3404255,84.1321664 L48.3404255,84.1321664 L48.3404255,83.5246829 C48.3404255,82.1747196 48.8332764,81.0851064 49.4438882,81.0851064 L49.4438882,81.0851064 L49.7123172,81.0861139 C49.7259804,80.6534723 49.8207648,80.0297605 49.9129175,79.1335451 L50.731389,73.2208152 C50.731389,72.9239996 50.8333518,72.6376701 50.9085336,72.3682466 C51.1254465,71.5909115 51.627616,70.9543073 52.2554341,70.6126234 L52.255,65.425 L51.1797702,65.4255319 C50.9815196,65.4255319 50.8193146,65.0987994 50.7914612,64.6844068 L50.787234,64.5576984 L50.787234,63.9502149 C50.787234,62.6002515 51.280085,62.5106383 51.8906967,62.5106383 L51.8906967,62.5106383 L52.255,62.51 L52.255,12.736 L42.2886429,12.7368686 C41.7816314,12.7368686 41.3637604,12.3552127 41.3066513,11.8635223 L41.3,11.7482257 C41.3,11.1489349 41.6585459,10.6077933 42.2104194,10.3741592 L42.2104194,10.3741592 L44.5592428,9.37979136 C46.7101456,8.46921265 49.0220544,8 51.3577634,8 L51.3577634,8 L52.255,8 L52.2553191,3.91489362 L47.6464635,3.91489362 C47.1789746,3.91489362 46.8,3.53591901 46.8,3.06843013 C46.8,2.55190513 47.0987784,2.08199926 47.5665217,1.86287764 L47.5665217,1.86287764 L50.0230353,0.712085667 C51.0241402,0.243102485 52.1161277,9.16803208e-13 53.2216395,9.16600129e-13 Z" id="形状结合备份" fill="#909399" fill-rule="nonzero" transform="translate(53.199381, 42.500000) scale(1, -1) translate(-53.199381, -42.500000) "></path>
                    </g>
                </g>
            </g>
        </g>
    </g>
</svg>