<?xml version="1.0" encoding="UTF-8"?>
<svg width="211px" height="86px" viewBox="0 0 211 86" version="1.1" xmlns="http://www.w3.org/2000/svg" xmlns:xlink="http://www.w3.org/1999/xlink">
    <title>编组 26</title>
    <defs>
        <linearGradient x1="50%" y1="0%" x2="50%" y2="100%" id="linearGradient-1">
            <stop stop-color="#909399" offset="0%"></stop>
            <stop stop-color="#909399" stop-opacity="0" offset="100%"></stop>
        </linearGradient>
    </defs>
    <g id="页面-1" stroke="none" stroke-width="1" fill="none" fill-rule="evenodd">
        <g id="路灯管理-手动控制" transform="translate(-769.000000, -526.000000)">
            <g id="编组-9备份-33" transform="translate(769.000000, 458.000000)">
                <g id="编组-26" transform="translate(0.000000, 68.000000)">
                    <rect id="矩形" opacity="0.300000012" x="0" y="0" width="211" height="86"></rect>
                    <g id="编组-19" transform="translate(54.000000, 2.000000)">
                        <g id="路灯-(6)" transform="translate(18.256454, 0.000000)" fill="#909399" fill-rule="nonzero">
                            <path d="M31.5334748,9.06831702e-08 L31.6278612,0.0139292491 C33.7002451,0.31159568 35.1950672,2.05803033 35.1645939,4.05484719 L35.7196737,4.05401834 C38.7517721,4.05784657 41.2096982,6.44602386 41.2168671,9.39521745 L41.2168671,9.40281517 C41.2150751,10.4860865 40.3126723,11.3638172 39.1989512,11.3655618 L37.4439849,11.3661872 C37.1083593,12.9920363 35.6331362,14.2169942 33.8631912,14.2191383 C32.0927394,14.2173001 30.6169947,12.9919088 30.2816022,11.3654893 L28.4916294,11.3655618 C27.381987,11.36693 26.4825627,10.4935106 26.4782701,9.41421175 L26.4782701,9.40281517 C26.481857,6.45020259 28.9418087,4.05750719 31.9774163,4.05401834 L32.5580001,4.05400009 L32.5609482,4.0318605 C32.580722,3.31365216 32.0655033,2.67467101 31.3277775,2.53257435 L13.3123862,2.53257435 C12.5293555,2.68410747 11.9974895,3.39546303 12.0905707,4.16671789 L12.099033,4.23699683 L12.0996816,64.2973911 C13.7153826,64.8450255 14.8749781,66.3388648 14.8772474,68.0964305 L14.8760001,80.4460001 L21.4491437,80.44685 C22.1681528,80.44685 22.7510249,81.013786 22.7510249,81.7131371 C22.7510249,82.4124882 22.1681528,82.9794242 21.4491437,82.9794242 L14.8760001,82.9790001 L14.8765965,82.9806905 L6.60965092,82.9806905 L6.60900009,82.9790001 L1.30188129,82.9794242 C0.582872155,82.9794242 9.05880695e-08,82.4124882 9.05880695e-08,81.7131371 C9.05880695e-08,81.013786 0.582872155,80.44685 1.30188129,80.44685 L6.60900009,80.4460001 L6.60965092,68.0964305 C6.61139185,66.30063 7.82175811,64.7801066 9.49228567,64.2629758 L9.49266682,4.37312269 C9.27924012,2.23900044 10.8289493,0.318920542 13.0110008,0.0139292491 L13.1053871,9.06831702e-08 L31.5334748,9.06831702e-08 Z M10.5311567,66.5807169 L10.4221582,66.5975746 C10.2635333,66.6306499 10.1090884,66.6885318 9.96509372,66.7712202 C9.48511139,67.046848 9.19715773,67.5545095 9.21341331,68.0964305 L9.21300009,80.4460001 L12.2720001,80.4460001 L12.2728341,68.0964305 C12.2890897,67.5545095 12.001136,67.046848 11.5211537,66.7712202 C11.3594596,66.678368 11.1845885,66.6167954 11.0054184,66.5865024 C10.9366379,66.6012262 10.8658894,66.6067845 10.794548,66.6066463 C10.7043124,66.6066463 10.6162209,66.5977168 10.5311567,66.5807169 Z M33.7408143,15.4151465 C34.1003189,15.4151465 34.3917549,15.6986145 34.3917549,16.04829 L34.3917549,17.4051167 C34.3917549,17.5730368 34.3231739,17.7340793 34.2010988,17.8528168 C34.0790238,17.9715542 33.9134545,18.0382602 33.7408143,18.0382602 C33.5681741,18.0382602 33.4026049,17.9715542 33.2805298,17.8528168 C33.1584548,17.7340793 33.0898737,17.5730368 33.0898737,17.4051167 L33.0898737,16.04829 C33.0898737,15.6986145 33.3813098,15.4151465 33.7408143,15.4151465 Z M39.1377628,13.7689732 L40.1245888,14.7281857 C40.3106978,14.9092611 40.3663624,15.1815397 40.2656333,15.4180935 C40.1649042,15.6546473 39.9276115,15.8089071 39.6643738,15.8089639 C39.4915221,15.8090939 39.3257139,15.7423516 39.2035078,15.6234507 L38.2173328,14.6642382 C37.9706444,14.415806 37.9741724,14.0209107 38.2252622,13.7766858 C38.476352,13.5324609 38.8823475,13.5290294 39.1377628,13.7689732 Z M29.278942,13.7642246 C29.5332915,14.0114452 29.5334372,14.4124107 29.2792675,14.6598062 L28.2898378,15.6190187 C28.1673131,15.7382308 28.0009725,15.8049988 27.8276699,15.8045346 C27.5652607,15.8026951 27.329645,15.6477821 27.2300808,15.4116258 C27.1305166,15.1754695 27.1864766,14.9042573 27.3720115,14.7237537 L28.3581865,13.7645412 C28.6123563,13.5171458 29.0245925,13.517004 29.278942,13.7642246 Z M36.1136085,11.3654757 L31.6121229,11.3654757 C31.7813052,11.9098682 32.1562222,12.3825056 32.6759916,12.6781408 C33.4091636,13.0951553 34.3165678,13.0951553 35.0497398,12.6781408 C35.5695092,12.3825056 35.9444262,11.9098682 36.1136085,11.3654757 Z M35.71707,5.9559816 L31.9774163,5.9559816 C30.0197277,5.95807524 28.4332444,7.50118332 28.4310919,9.40534774 C28.4310919,9.4403153 28.4602355,9.4686621 28.4961859,9.4686621 L39.1976494,9.4686621 C39.2335998,9.4686621 39.2627434,9.4403153 39.2627434,9.40534774 C39.2602339,7.50157452 37.6743559,5.95877201 35.71707,5.9559816 Z" id="形状结合"></path>
                        </g>
                        <polygon id="矩形" fill="url(#linearGradient-1)" opacity="0.149999991" points="46.1202974 11.3655618 58.2618189 11.3655634 104.789157 83 0.7891565 83"></polygon>
                    </g>
                </g>
            </g>
        </g>
    </g>
</svg>