<?xml version="1.0" standalone="no"?><!DOCTYPE svg PUBLIC "-//W3C//DTD SVG 1.1//EN" "http://www.w3.org/Graphics/SVG/1.1/DTD/svg11.dtd"><svg t="1752741380337" class="icon" viewBox="0 0 1024 1024" version="1.1" xmlns="http://www.w3.org/2000/svg" p-id="3946" xmlns:xlink="http://www.w3.org/1999/xlink" width="200" height="200"><path d="M638.77 928.24H329.26a20 20 0 0 1 0-40h309.51a20 20 0 0 1 0 40zM475.09 507.63a20 20 0 0 1-20-20V176.38a63.36 63.36 0 0 1 54.05-68.85l1.45-0.22h132.34l1.45 0.22a63.63 63.63 0 0 1 53.93 70.11 20 20 0 0 1-39.75-4.51 23.52 23.52 0 0 0-18.79-25.82h-126A23.52 23.52 0 0 0 495 173.12l0.13 1.11v313.4a20 20 0 0 1-20.04 20z" fill="#8a8a8a" p-id="3947"></path><path d="M678.72 331.89a56.18 56.18 0 0 1-56.12-56.12h20a36.12 36.12 0 1 0 72.23 0h20a56.18 56.18 0 0 1-56.11 56.12z" fill="#8a8a8a" p-id="3948"></path><path d="M537.8 928.26h-127v-397.1a63.59 63.59 0 0 1 63.52-63.53 63.61 63.61 0 0 1 63.49 63.53z m-87-40h47v-357.1a23.51 23.51 0 1 0-47 0z" fill="#8a8a8a" p-id="3949"></path><path d="M596.2 286.88A31 31 0 0 1 565.27 256v-0.18a84.58 84.58 0 0 1 84.48-84.48h57.49a84.56 84.56 0 0 1 84.45 84.36v0.12a31.05 31.05 0 0 1-31 31H596.2z m53.55-85.5a54.54 54.54 0 0 0-54.48 54.48 1 1 0 0 0 1 1h164.4a1 1 0 0 0 1-1 54.55 54.55 0 0 0-54.47-54.48h-57.45z" fill="#8a8a8a" p-id="3950"></path><path d="M676.84 392.21a10 10 0 0 1-10-10v-21.43a10 10 0 1 1 20 0v21.43a10 10 0 0 1-10 10zM586 356.93a10 10 0 0 1-7-17.07l15.15-15.15a10 10 0 0 1 14.15 14.14L593.1 354a10 10 0 0 1-7.1 2.93zM767.84 357a10 10 0 0 1-7.08-2.93l-15.15-15.15a10 10 0 0 1 14.14-14.14l15.16 15.15a10 10 0 0 1-7.07 17.07z" fill="#8a8a8a" p-id="3951"></path></svg>