<?xml version="1.0" standalone="no"?><!DOCTYPE svg PUBLIC "-//W3C//DTD SVG 1.1//EN" "http://www.w3.org/Graphics/SVG/1.1/DTD/svg11.dtd"><svg t="1752741262296" class="icon" viewBox="0 0 1024 1024" version="1.1" xmlns="http://www.w3.org/2000/svg" p-id="2569" xmlns:xlink="http://www.w3.org/1999/xlink" width="200" height="200"><path d="M899.8420064 249.51691413c-15.2845408-34.6278336-49.91237333-39.71411733-68.22813333-39.71411733-9.17072427 0-18.36713707 2.029376-27.51217387 4.08444053l-222.04969493 86.56958294c9.14503573-17.3139168 5.08628373-38.71227307-9.17072534-52.96928214l-161.9390656-151.76649706a43.13066133 43.13066133 0 0 0-30.543392-12.227632H180.74932587c-15.25885227 0-28.51401707 6.11381653-36.6572096 16.286384a44.4407648 44.4407648 0 0 0 4.08444053 61.13816213l161.9390656 151.76649813c8.14319253 8.14319253 19.3432928 12.227632 30.54339307 12.227632h9.17072426v618.2660896h63.1418496V461.36835413c20.37082453-23.42773333 74.34195093-74.3676384 175.16854187-94.738464a24.9176544 24.9176544 0 0 0 19.36898133-21.39835626l67.22629014-26.48464107c-2.05506453 2.029376-3.05690773 4.058752-4.08443947 6.11381547-3.05690773 7.11565973-3.05690773 15.2845408 0 21.39835733 3.08259627 7.14134827 8.16888 12.227632 15.28453973 14.257008a211.92850453 211.92850453 0 0 0 61.1381632 9.17072427c61.08678613 0 109.99731627-28.51401707 133.39936-52.96928107 22.42588907-22.374512 28.5397056-46.82977707 19.36898027-67.20060267z m-557.15361493 24.45526507L192.97695787 133.38009387h75.3951712l142.5957728 140.5663968h-68.2795104z m68.25382186 91.65586773v-40.74165013h105.93856427l-105.93856427 40.74165013z m59.08309867-91.65586773l-141.56824107-140.5663968h48.8848416l149.73712214 140.5663968h-57.05372267z m373.81619307 7.11565973c-18.34144853 18.31576-55.02434667 36.6572096-97.79537174 36.6572096a143.59761707 143.59761707 0 0 1-45.8279328-7.14134826c-1.02753173 0-3.05690773-1.02753173-4.08444053-1.02753174l123.25248-47.85730986c3.05690773 0 7.14134827-1.02753173 13.2551648-1.02753174 10.17256853 0 17.3139168 3.05690773 20.37082453 8.14319147-1.02753173 2.08075307-3.08259627 6.13950507-9.17072426 12.25332053z" fill="#ffffff" p-id="2570"></path><path d="M771.50324267 453.2251616a25.20022613 25.20022613 0 0 1-25.45710934-25.45710933v-36.65720854c0-14.257008 11.2257888-25.45710933 25.45710934-25.45710933s25.45710933 11.20010027 25.45710826 25.45710933v36.65720854a25.1745376 25.1745376 0 0 1-25.45710826 25.45710933z m0 0M665.5646784 435.9112448a25.50848533 25.50848533 0 0 1-14.257008-4.08444053c-12.227632-7.14134827-15.2845408-23.42773333-8.14319253-35.65536534l20.37082453-31.5709248a25.25160213 25.25160213 0 0 1 21.39835733-11.20010026c5.08628373 0 9.14503573 1.02753173 14.257008 4.08444053 12.25332053 7.11565973 15.2845408 23.42773333 8.14319254 35.6296768l-20.37082454 31.5709248a26.33051093 26.33051093 0 0 1-21.39835733 11.2257888z m0 0M878.44365013 422.65608a25.63692693 25.63692693 0 0 1-20.37082453-9.17072427l-23.42773333-28.51401706a24.403888 24.403888 0 0 1-5.08628374-18.34144854c1.02753173-7.11565973 4.08444053-13.22947627 9.17072427-17.3139168 4.058752-4.08444053 10.17256853-5.08628373 16.286384-5.08628373 8.14319253 0 15.2845408 3.05690773 20.3708256 9.17072427l23.42773227 28.51401706a24.30113493 24.30113493 0 0 1 5.08628373 18.34144854c-1.02753173 7.11565973-4.058752 13.22947627-9.14503573 17.3139168a28.18006933 28.18006933 0 0 1-16.31207254 5.08628373z m0 0" fill="#ffffff" p-id="2571"></path></svg>