<svg t="1716277785659" class="icon" viewBox="0 0 1152 1024" version="1.1" xmlns="http://www.w3.org/2000/svg" p-id="5478" width="256" height="256"><path d="M1152 953.536c0 38.912-37.376 70.464-83.392 70.464H83.392C37.312 1024 0 992.448 0 953.536c0-8.96 2.048-17.472 5.632-25.344l-0.896-0.768C120.192 696.384 384.704 272.192 498.624 44.16l0.192 2.24C509.952 19.392 540.288 0 576 0c34.24 0 63.488 17.792 75.712 42.944l0.128-1.92c113.6 227.392 379.456 654.336 495.36 886.4l-0.832 0.768a60.672 60.672 0 0 1 5.632 25.344z m-515.584-621.44a68.16 68.16 0 0 0-68.288-65.664c-37.76 0-68.416 30.464-68.416 67.968l30.272 367.488h80.448m18.432 89.28l-0.96-1.152a78.912 78.912 0 0 0-59.776-27.264c-43.584 0-78.912 35.136-78.912 78.4s35.328 78.336 78.912 78.336c43.52 0 78.912-35.072 78.912-78.336 0-19.008-6.848-36.48-18.176-49.984z" fill="#ffffff" p-id="5479"></path></svg>