<svg xmlns="http://www.w3.org/2000/svg" width="68" height="68" viewBox="0 0 68 68">
  <g id="组_9" data-name="组 9" transform="translate(-619 -114)">
    <g id="组_8" data-name="组 8">
      <g id="椭圆_6" data-name="椭圆 6" transform="translate(619 114)" fill="#fff" stroke="#237ae4" stroke-width="1">
        <circle cx="34" cy="34" r="34" stroke="none"/>
        <circle cx="34" cy="34" r="33.5" fill="none"/>
      </g>
      <path id="路径_10" data-name="路径 10" d="M79.862,38.512H67.272A2.065,2.065,0,0,1,65.5,36.3V3.991a2.065,2.065,0,0,1,1.838-2.216h20.9a2.065,2.065,0,0,1,1.775,2.216V20.143a.881.881,0,0,0,1.763,0V3.991A3.777,3.777,0,0,0,88.221,0H67.335a3.777,3.777,0,0,0-3.5,3.991V36.3a3.777,3.777,0,0,0,3.5,3.991h12.59a.888.888,0,1,0,0-1.775ZM90.89,32.494a.881.881,0,0,0-.881.881V36.4a.881.881,0,1,0,1.763,0V33.375A.881.881,0,0,0,90.89,32.494Zm6.257-3.626a6.295,6.295,0,0,0-12.5,0,2.027,2.027,0,0,0-2,1.8v7.793a2.145,2.145,0,0,0,2.379,1.825H96.745c1.335,0,2.379-.806,2.379-1.825V30.656a2.027,2.027,0,0,0-1.977-1.788Zm-6.295-4.432a4.482,4.482,0,0,1,4.457,4.406H86.371a4.482,4.482,0,0,1,4.52-4.394ZM96.719,38.5H85.036a3.575,3.575,0,0,1-.567-.076V30.756a.944.944,0,0,1,.642-.189H96.845c.378,0,.6.138.6,0v7.667a.944.944,0,0,1-.692.277ZM69.11,21.05m-1.939,0a1.939,1.939,0,1,0,1.939-1.939A1.939,1.939,0,0,0,67.172,21.05Z" transform="translate(573.171 128)" fill="#03afff"/>
    </g>
  </g>
</svg>
