<svg xmlns="http://www.w3.org/2000/svg" width="68" height="68" viewBox="0 0 68 68">
  <g id="组_7" data-name="组 7" transform="translate(-518 -114)">
    <g id="椭圆_5" data-name="椭圆 5" transform="translate(518 114)" fill="#fff" stroke="#237ae4" stroke-width="1">
      <circle cx="34" cy="34" r="34" stroke="none"/>
      <circle cx="34" cy="34" r="33.5" fill="none"/>
    </g>
    <path id="路径_12" data-name="路径 12" d="M152.3,14.512C152.139,9.446,150.63,3.8,144.988.843A15.311,15.311,0,0,0,143.065,0c-.1.566-.239,1.247-.434,2.021a44.281,44.281,0,0,1-10.814,19.453c-4.432,4.771-8.589,16.565,10.225,25.563a1.933,1.933,0,0,0,.446-.933,2.27,2.27,0,0,0-.174-1.209,12.279,12.279,0,0,0-1.718-2.618c-2.605-3.374-6.115-7.925,1.579-15.072.573-.532,1.207-1.08,1.91-1.642a8.628,8.628,0,0,0,.342,2.372,9.326,9.326,0,0,0,5.1,5.808c2.229,1.115.556,4.385-1.01,7.444-1.307,2.554-2.538,4.961-1.366,5.849,1.319,1,28.868-7.608,9.806-33.668q-.787-1.08-1.624-2.121c-.092-.112-.137-.051-.174.139-.022.121-.041.294-.065.507q-.064.66-.186,1.313c-.041.2-.088.417-.147.636a7.361,7.361,0,0,1-.4,1.137,5.256,5.256,0,0,1-2.094,2.4c.051-.92.07-1.884.039-2.871Zm3.906,1.337c3.579,5.211,5.074,9.512,5.352,12.99a13.165,13.165,0,0,1-3.072,9.775,20.083,20.083,0,0,1-7.2,5.291,18.7,18.7,0,0,1-2.207.832c.3-.742.734-1.591,1.231-2.565l.421-.824a18.942,18.942,0,0,0,1.794-4.548,5.19,5.19,0,0,0-.088-2.618,3.853,3.853,0,0,0-2-2.27c-3.738-1.867-4.311-4.832-4.311-6.35a2.045,2.045,0,0,0-3.323-1.6c-3.994,3.194-6.192,6.143-7,8.992a9.458,9.458,0,0,0,.988,7.395,19.917,19.917,0,0,0,1.491,2.264c-5.511-3.577-7.563-7.244-8.055-10.276a11.608,11.608,0,0,1,3.059-9.452A46.255,46.255,0,0,0,144.509,2.914,10.555,10.555,0,0,1,149.08,8.3a21.464,21.464,0,0,1,1.143,8.972,2.045,2.045,0,0,0,3.1,1.861,7.28,7.28,0,0,0,2.89-3.284Z" transform="translate(405.943 124)" fill="#03afff"/>
  </g>
</svg>
