<svg xmlns="http://www.w3.org/2000/svg" width="68" height="68" viewBox="0 0 68 68">
  <g id="组_4" data-name="组 4" transform="translate(-190 -114)">
    <g id="椭圆_2" data-name="椭圆 2" transform="translate(190 114)" fill="#fff" stroke="#237ae4" stroke-width="1">
      <circle cx="34" cy="34" r="34" stroke="none"/>
      <circle cx="34" cy="34" r="33.5" fill="none"/>
    </g>
    <path id="路径_11" data-name="路径 11" d="M13.212,48.5a1.564,1.564,0,0,1,.866,1.947,1.385,1.385,0,0,1-1.8.939C4.926,48.594,0,41.069,0,32.621c0-8.484,4.953-15.949,12.213-18.733a1.384,1.384,0,0,1,1.8.931,1.564,1.564,0,0,1-.859,1.95C6.947,19.151,2.8,25.519,2.817,32.655S7,46.141,13.212,48.5Zm18.746,0c6.215-2.354,10.382-8.7,10.4-15.84s-4.13-13.5-10.335-15.886a1.564,1.564,0,0,1-.859-1.95,1.384,1.384,0,0,1,1.8-.931C40.279,16.7,45.171,24.2,45.171,32.621c0,8.45-4.927,15.974-12.284,18.761a1.385,1.385,0,0,1-1.8-.94,1.564,1.564,0,0,1,.867-1.946Zm-1.3-23.036a1.568,1.568,0,0,1-.828-1.966,1.381,1.381,0,0,1,1.814-.9A10.712,10.712,0,0,1,38.062,32.7a10.679,10.679,0,0,1-6.563,10,1.384,1.384,0,0,1-1.8-.928,1.565,1.565,0,0,1,.856-1.952,7.88,7.88,0,0,0,.1-14.364Zm-16,14.4a1.49,1.49,0,0,1,.96,1.148,1.6,1.6,0,0,1-.459,1.468,1.326,1.326,0,0,1-1.407.277A10.663,10.663,0,0,1,7.049,32.7a10.694,10.694,0,0,1,6.56-10.159,1.383,1.383,0,0,1,1.8.927,1.565,1.565,0,0,1-.856,1.952,7.871,7.871,0,0,0,.1,14.44Zm3.675-4.182,7.048-21.394L23.26,29.565h4.934L20.44,52.487l2.819-16.81H18.326Z" transform="translate(201.415 114.857)" fill="#03afff"/>
  </g>
</svg>
