<svg xmlns="http://www.w3.org/2000/svg" width="68" height="68" viewBox="0 0 68 68">
  <g id="组_6" data-name="组 6" transform="translate(-412 -114)">
    <g id="椭圆_4" data-name="椭圆 4" transform="translate(412 114)" fill="#fff" stroke="#237ae4" stroke-width="1">
      <circle cx="34" cy="34" r="34" stroke="none"/>
      <circle cx="34" cy="34" r="33.5" fill="none"/>
    </g>
    <g id="组_2" data-name="组 2" transform="translate(312.6 -17.4)">
      <path id="路径_5" data-name="路径 5" d="M161.33,156H125.294a.894.894,0,1,0,0,1.788h2.645v6.7a.856.856,0,0,0,.076.533l3.558,5.023a.831.831,0,0,0,.685.362h.381v3.1a3.4,3.4,0,0,0,3.311,3.406h14.764a3.285,3.285,0,0,0,3.177-3.406v-3.082h.514a.9.9,0,0,0,.723-.361l3.615-5.023a.854.854,0,0,0,.19-.514v-6.716h2.4a.9.9,0,0,0,0-1.807Zm-9.247,17.5a1.486,1.486,0,0,1-1.389,1.6H135.949a1.607,1.607,0,0,1-1.522-1.6v-3.082h17.656Zm5.042-9.285-3.2,4.4H132.714l-2.968-4.4v-6.412h27.378Zm0,0" transform="translate(-9.524 -9.143)" fill="#03afff"/>
      <path id="路径_6" data-name="路径 6" d="M141.17,168.223H126.424a3.879,3.879,0,0,1-3.786-3.881v-2.607a1.285,1.285,0,0,1-.97-.552l-3.558-5.023a1.043,1.043,0,0,1-.171-.7V149.14H115.77a1.37,1.37,0,1,1,0-2.74h36.035a1.37,1.37,0,1,1,0,2.74h-1.922v6.222a1.483,1.483,0,0,1-.266.8l-3.634,5.023a1.345,1.345,0,0,1-1.123.571h-.038v2.607A3.752,3.752,0,0,1,141.17,168.223Zm-22.28-12.6,3.539,5a.345.345,0,0,0,.3.171h.856v3.558a2.925,2.925,0,0,0,2.835,2.93h14.764a2.816,2.816,0,0,0,2.7-2.93V160.8h.989a.384.384,0,0,0,.342-.171l3.615-5.023a.507.507,0,0,0,.1-.247v-7.173h2.873a.41.41,0,0,0,.419-.419.422.422,0,0,0-.419-.419H115.77a.41.41,0,0,0-.419.419.422.422,0,0,0,.419.419h3.12ZM118.871,155.609Zm22.3,10.826H126.424a2.064,2.064,0,0,1-2-2.074V160.8h18.608v3.558A1.957,1.957,0,0,1,141.17,166.434Zm-15.792-4.68v2.607a1.125,1.125,0,0,0,1.046,1.123h14.764a1.03,1.03,0,0,0,.913-1.123v-2.607Zm19.273-1.807H122.943l-3.2-4.737v-7.021h28.33v7.04l-3.425,4.718ZM123.437,159h20.719l2.968-4.072V149.14H120.7v5.784Z" transform="translate(0)" fill="#03afff"/>
      <path id="路径_7" data-name="路径 7" d="M262.42,271.788h3.6a.894.894,0,0,0,0-1.788h-3.6a.894.894,0,1,0,0,1.788Zm8.333,0h3.6a.894.894,0,0,0,0-1.788h-3.6a.894.894,0,0,0,0,1.788Zm8.333,0h3.6a.894.894,0,0,0,0-1.788h-3.6a.894.894,0,0,0,0,1.788ZM263.562,287.5c-3.729,2.911-2.53,5.327-1.636,7.1.875,1.731,1.446,2.854-1.332,4.871a.888.888,0,0,0-.19,1.256.875.875,0,0,0,.723.361.932.932,0,0,0,.533-.171c4-2.911,2.778-5.365,1.865-7.154-.856-1.712-1.427-2.854,1.142-4.852a.895.895,0,1,0-1.1-1.408Zm10.369,1.142a.9.9,0,0,0-1.389-1.161c-3.044,3.615-1.37,5.727-.133,7.268,1.2,1.5,2,2.492-.285,5.042a.887.887,0,0,0,.076,1.275.9.9,0,0,0,.609.228.847.847,0,0,0,.666-.3c3.31-3.672,1.6-5.822.361-7.382C272.618,292.127,271.819,291.138,273.931,288.646Zm10.274,4.852c-1.465-1.237-2.454-2.055-.875-4.909a.9.9,0,0,0-1.579-.856c-2.283,4.148-.228,5.879,1.294,7.154,1.484,1.237,2.454,2.055.7,5a.92.92,0,0,0,.3,1.237.842.842,0,0,0,.457.133.907.907,0,0,0,.78-.438C287.82,296.541,285.727,294.791,284.205,293.5Zm0,0" transform="translate(-138.888 -117.721)" fill="#03afff"/>
      <path id="路径_8" data-name="路径 8" d="M263.615,292.249a1.347,1.347,0,0,1-.913-.362,1.363,1.363,0,0,1-.1-1.941c2.017-2.245,1.427-2.968.266-4.433-1.256-1.579-3.158-3.957.133-7.877a1.378,1.378,0,1,1,2.112,1.769c-1.846,2.188-1.256,2.93-.1,4.376,1.275,1.6,3.215,4.014-.381,7.991A1.349,1.349,0,0,1,263.615,292.249Zm.457-14.136a.435.435,0,0,0-.323.152c-2.8,3.33-1.37,5.1-.133,6.659,1.218,1.522,2.245,2.816-.3,5.67a.427.427,0,0,0,.038.609.419.419,0,0,0,.59-.038c3.044-3.387,1.617-5.175.342-6.754-1.2-1.5-2.245-2.8.114-5.594a.426.426,0,0,0-.057-.609A.356.356,0,0,0,264.072,278.113Zm11.263,14.079a1.5,1.5,0,0,1-.7-.19,1.384,1.384,0,0,1-.476-1.884c1.541-2.607.837-3.2-.59-4.395-1.541-1.294-3.881-3.273-1.389-7.763a1.366,1.366,0,0,1,1.865-.552,1.354,1.354,0,0,1,.533,1.865c-1.389,2.512-.666,3.12.761,4.319l-.3.362.3-.362c1.56,1.313,3.919,3.311,1.18,7.915A1.35,1.35,0,0,1,275.335,292.192Zm-1.979-13.984a.241.241,0,0,0-.114.019.394.394,0,0,0-.247.209c-2.093,3.805-.362,5.27,1.18,6.564,1.484,1.256,2.759,2.321.8,5.613a.435.435,0,0,0,.152.59.453.453,0,0,0,.59-.152c2.321-3.9.571-5.384-.989-6.7l.3-.362-.3.362c-1.465-1.237-2.74-2.3-.97-5.5a.414.414,0,0,0-.171-.571A.366.366,0,0,0,273.357,278.208ZM251.971,292.04a1.379,1.379,0,0,1-.818-2.492c2.454-1.769,2.017-2.607,1.18-4.281-.913-1.807-2.283-4.528,1.769-7.668a1.318,1.318,0,0,1,1.027-.285,1.356,1.356,0,0,1,.913.514,1.4,1.4,0,0,1,.285,1.027,1.356,1.356,0,0,1-.514.913c-2.264,1.769-1.846,2.607-1.008,4.262.913,1.827,2.321,4.585-2.017,7.744A1.316,1.316,0,0,1,251.971,292.04Zm2.987-13.775a.454.454,0,0,0-.266.1c-3.425,2.664-2.4,4.7-1.5,6.507.875,1.731,1.617,3.215-1.465,5.48a.422.422,0,0,0,.495.685c3.691-2.683,2.645-4.737,1.731-6.545-.856-1.712-1.617-3.2,1.256-5.441a.361.361,0,0,0,.152-.285.41.41,0,0,0-.1-.323.428.428,0,0,0-.266-.152C255,278.265,254.977,278.265,254.958,278.265Zm18.55-15.525h-3.6a1.37,1.37,0,1,1,0-2.74h3.6a1.37,1.37,0,0,1,0,2.74Zm-3.6-1.807a.41.41,0,0,0-.419.419.422.422,0,0,0,.419.419h3.6a.41.41,0,0,0,.419-.419.422.422,0,0,0-.419-.419Zm-4.738,1.807h-3.6a1.37,1.37,0,1,1,0-2.74h3.6a1.37,1.37,0,0,1,0,2.74Zm-3.6-1.807a.41.41,0,0,0-.419.419.422.422,0,0,0,.419.419h3.6a.41.41,0,0,0,.419-.419.422.422,0,0,0-.419-.419Zm-4.737,1.807h-3.6a1.37,1.37,0,1,1,0-2.74h3.6a1.37,1.37,0,0,1,0,2.74Zm-3.6-1.807a.41.41,0,0,0-.419.419.422.422,0,0,0,.419.419h3.6a.41.41,0,0,0,.419-.419.422.422,0,0,0-.419-.419Z" transform="translate(-129.714 -108.197)" fill="#03afff"/>
    </g>
  </g>
</svg>
