<svg xmlns="http://www.w3.org/2000/svg" width="68" height="68" viewBox="0 0 68 68">
  <g id="组_3" data-name="组 3" transform="translate(-73 -114)">
    <g id="椭圆_1" data-name="椭圆 1" transform="translate(73 114)" fill="#fff" stroke="#237ae4" stroke-width="1">
      <circle cx="34" cy="34" r="34" stroke="none"/>
      <circle cx="34" cy="34" r="33.5" fill="none"/>
    </g>
    <g id="组_1" data-name="组 1" transform="translate(-268.983 -142.325)">
      <path id="路径_2" data-name="路径 2" d="M349.256,229.553l-.483-.217V211.013c0-.765-.966-1.417-2.109-1.417s-2.109.644-2.109,1.417v18.33l-.491.217a6.4,6.4,0,1,0,5.192-.008Zm6.577-3.9-.258-.25V205.7a6.506,6.506,0,0,0-2.721-5.12,10.666,10.666,0,0,0-12.381,0,6.53,6.53,0,0,0-2.721,5.12v19.715l-.258.25a13.659,13.659,0,0,0-.282,19.417,13.256,13.256,0,0,0,18.9,0,13.527,13.527,0,0,0,3.912-9.572A13.673,13.673,0,0,0,355.833,225.657Zm-9.169,21.172a11.355,11.355,0,0,1-7.124-20.053l.394-.33V205.7a4.426,4.426,0,0,1,2.117-3.55,8.57,8.57,0,0,1,9.242,0,4.415,4.415,0,0,1,2.117,3.55v20.746l.394.33a11.355,11.355,0,0,1-7.141,20.053Zm11.488-39.7h2.93a.714.714,0,1,0,0-1.4h-2.93a.714.714,0,1,0,0,1.4Zm2.93,1.658h-2.93a.714.714,0,1,0,0,1.4h2.93a.714.714,0,1,0,0-1.4Zm0,3.051h-2.93a.714.714,0,1,0,0,1.4h2.93a.714.714,0,1,0,0-1.4Zm0,3.051h-2.93a.714.714,0,1,0,0,1.4h2.93a.714.714,0,1,0,0-1.4Zm0,3.059h-2.93a.714.714,0,1,0,0,1.4h2.93a.714.714,0,1,0,0-1.4Zm0,3.051h-2.93a.714.714,0,1,0,0,1.4h2.93a.714.714,0,1,0,0-1.4Zm0,0" transform="translate(28.683 66.725)" fill="#03afff"/>
    </g>
  </g>
</svg>
