<svg xmlns="http://www.w3.org/2000/svg" width="68" height="68" viewBox="0 0 68 68">
  <g id="组_5" data-name="组 5" transform="translate(-301 -114)">
    <g id="椭圆_3" data-name="椭圆 3" transform="translate(301 114)" fill="#fff" stroke="#237ae4" stroke-width="1">
      <circle cx="34" cy="34" r="34" stroke="none"/>
      <circle cx="34" cy="34" r="33.5" fill="none"/>
    </g>
    <path id="路径_4" data-name="路径 4" d="M148.742,33.475H122.071a3.026,3.026,0,0,1-3.023-3.023V21.175a3.026,3.026,0,0,1,3.023-3.023h26.671a3.026,3.026,0,0,1,3.023,3.023v9.277A3.026,3.026,0,0,1,148.742,33.475ZM122.071,20.642a.541.541,0,0,0-.533.533v9.277a.541.541,0,0,0,.533.533h26.671a.541.541,0,0,0,.533-.533V21.175a.541.541,0,0,0-.533-.533Zm21.217,0a1.243,1.243,0,0,1-1.245-1.245v-5.3a1.245,1.245,0,0,1,2.489,0v5.3A1.243,1.243,0,0,1,143.288,20.642Zm7.943-13.66a1.067,1.067,0,0,1-.756-.311,10.01,10.01,0,0,0-14.14,0,1.066,1.066,0,0,1-1.507-1.507,12.144,12.144,0,0,1,17.158,0,1.069,1.069,0,0,1-.756,1.823Zm-2.609,2.609a1.067,1.067,0,0,1-.756-.311,6.31,6.31,0,0,0-8.926,0,1.066,1.066,0,0,1-1.507-1.507,8.446,8.446,0,0,1,11.94,0,1.065,1.065,0,0,1-.751,1.818Zm-2.694,2.694a1.067,1.067,0,0,1-.756-.311,2.5,2.5,0,0,0-3.534,0,1.066,1.066,0,1,1-1.507-1.507,4.636,4.636,0,0,1,6.552,0,1.062,1.062,0,0,1,0,1.507,1.078,1.078,0,0,1-.756.311Zm6.37,30.649a.882.882,0,0,1-.542-.187,9.781,9.781,0,0,0-5.441-1.725,7.732,7.732,0,0,0-3.489.849,10.413,10.413,0,0,1-4.619,1.062,7.963,7.963,0,0,1-4.245-1.08,5.793,5.793,0,0,0-3.156-.831,7.306,7.306,0,0,0-3.7.969,6.934,6.934,0,0,1-3.352.942,7.277,7.277,0,0,1-4.65-1.249c-.156-.093-.32-.2-.5-.3a.89.89,0,0,1,.9-1.538c.187.111.36.213.525.316a5.609,5.609,0,0,0,3.725.987,5.259,5.259,0,0,0,2.56-.756,8.991,8.991,0,0,1,4.49-1.156,7.526,7.526,0,0,1,3.983,1.036,6.2,6.2,0,0,0,3.418.876,8.666,8.666,0,0,0,3.912-.916,9.484,9.484,0,0,1,4.2-1,11.383,11.383,0,0,1,6.53,2.1.893.893,0,0,1-.547,1.6Zm0,4.054a.882.882,0,0,1-.542-.187,9.781,9.781,0,0,0-5.441-1.725,7.732,7.732,0,0,0-3.489.849,10.413,10.413,0,0,1-4.619,1.062,7.963,7.963,0,0,1-4.245-1.08,5.793,5.793,0,0,0-3.156-.831,7.306,7.306,0,0,0-3.7.969,6.934,6.934,0,0,1-3.352.942,7.277,7.277,0,0,1-4.65-1.249c-.156-.093-.32-.2-.5-.3a.89.89,0,0,1,.9-1.538c.187.111.36.213.525.316a5.609,5.609,0,0,0,3.725.987,5.259,5.259,0,0,0,2.56-.756,8.991,8.991,0,0,1,4.49-1.156,7.526,7.526,0,0,1,3.983,1.036,6.2,6.2,0,0,0,3.418.876,8.666,8.666,0,0,0,3.912-.916,9.484,9.484,0,0,1,4.2-1,11.383,11.383,0,0,1,6.53,2.1.893.893,0,0,1-.547,1.6Zm-6.934-6.045a.919.919,0,0,1-.156-.013.889.889,0,0,1-.72-1.031,2.2,2.2,0,0,0-.782-1.849c-.084-.071-.671-.445-3.836-.662-2.071-.142-4.538-.169-6.717-.2-2.2-.027-3.943-.049-4.81-.173-3.027-.431-3.907-1.951-4.476-4.605a.888.888,0,1,1,1.738-.369c.5,2.343,1.062,2.943,2.992,3.218.751.107,2.525.129,4.579.156,6.081.076,10.477.209,11.713,1.307a3.973,3.973,0,0,1,1.351,3.485.89.89,0,0,1-.876.733Z" transform="translate(198.833 123.388)" fill="#03afff"/>
  </g>
</svg>
