<?xml version="1.0" encoding="UTF-8"?>
<svg width="18px" height="18px" viewBox="0 0 18 18" version="1.1" xmlns="http://www.w3.org/2000/svg" xmlns:xlink="http://www.w3.org/1999/xlink">
    <title>空调点位设置</title>
    <g id="页面-1" stroke="none" stroke-width="1" fill="none" fill-rule="evenodd">
        <g id="图标组1" transform="translate(-3406.000000, -489.000000)">
            <g id="空调点位设置" transform="translate(3406.000000, 489.000000)">
                <path d="M15.4458123,10.0004389 C15.6253553,9.99326409 15.7949087,10.0744702 15.9021163,10.2141394 L15.9502822,10.2887073 L17.9249213,13.6758621 C18.0083421,13.8251479 18.0222455,14.0015921 17.9666317,14.1599307 L17.9249213,14.2523991 L15.9502822,17.6395539 C15.8612188,17.7938327 15.7068908,17.8967894 15.5337408,17.9219002 L15.4458123,17.9278456 L11.5397743,17.9278456 C11.3616403,17.9294203 11.194588,17.8487283 11.0850598,17.7122936 L11.0353044,17.6395539 L9.07507866,14.2523991 C8.99165793,14.1031133 8.97775447,13.9266691 9.03336829,13.7683305 L9.07507866,13.6758621 L11.0353044,10.2887073 C11.1202757,10.1303816 11.2763188,10.0255325 11.4510776,10.004078 L11.5397743,10.0004389 L15.4458123,10.0004389 Z M16.4418605,1 C16.7501124,1 17,1.24988758 17,1.55813953 L17,10.396 L15.8837209,8.71877891 L12.4186785,8.71877891 C12.1121375,8.71877891 11.8636369,8.47027831 11.8636369,8.16373728 C11.8636369,7.85719625 12.1121375,7.60869565 12.4186785,7.60869565 L15.883,7.608 L15.8837209,2.11627907 L8.81395348,2.11627907 L8.81395348,8.25581395 C8.81395348,8.5640659 8.5640659,8.81395348 8.25581395,8.81395348 L2.11627907,8.81395348 L2.11627907,15.8837209 L6.909,15.883 L6.91,12.4191037 C6.91,12.1125366 7.15852175,11.8640148 7.46508887,11.8640148 C7.77165599,11.8640148 8.02017774,12.1125366 8.02017774,12.4191037 L8.02,15.883 L9.03,15.883 L9.635,17 L1.55813953,17 C1.24988758,17 1,16.7501124 1,16.4418605 L1,8.25581395 C1,7.947562 1.24988758,7.69767441 1.55813953,7.69767441 L7.69767441,7.69767441 L7.69767441,1.55813953 C7.69767441,1.24988758 7.947562,1 8.25581395,1 L16.4418605,1 Z M15.1975724,11.079005 L11.8244306,11.079005 L10.1378598,14.030504 L11.8244306,16.982003 L15.1975724,16.982003 L16.8841432,14.030504 L15.1975724,11.079005 Z" id="形状结合" fill="#FFFFFF" fill-rule="nonzero"></path>
                <rect id="矩形" x="0" y="0" width="18" height="18"></rect>
            </g>
        </g>
    </g>
</svg>