<?xml version="1.0" encoding="UTF-8"?>
<svg width="19px" height="19px" viewBox="0 0 19 19" version="1.1" xmlns="http://www.w3.org/2000/svg" xmlns:xlink="http://www.w3.org/1999/xlink">
    <title>airConditioningInfo</title>
    <g id="页面-1" stroke="none" stroke-width="1" fill="none" fill-rule="evenodd">
        <g id="画板" transform="translate(-3827.000000, -261.000000)">
            <g id="airConditioningInfo" transform="translate(3827.147368, 261.147368)">
                <path d="M13.0508982,0.852631579 C14.3737359,0.852631579 15.4557411,1.88375836 15.5370154,3.18611365 L15.5419162,3.34364954 L15.5419162,8.58745218 C15.5419162,8.90493323 15.2845469,9.16230248 14.9670659,9.16230248 C14.6813329,9.16230248 14.4442905,8.95383328 14.3997394,8.68069577 L14.3922156,8.58745218 L14.3922156,3.34364954 C14.3922156,2.64643625 13.8602598,2.07346789 13.180076,2.00847235 L13.0508982,2.00233218 L2.99101796,2.00233218 C2.29380467,2.00233218 1.72083631,2.53428799 1.65584077,3.21447173 L1.6497006,3.34364954 L1.6497006,14.3616136 C1.6497006,15.0588269 2.18165641,15.6317953 2.86184015,15.6967908 L2.99101796,15.702931 L9.37877519,15.702931 C9.69625625,15.702931 9.95362549,15.9603002 9.95362549,16.2777813 C9.95362549,16.5635142 9.74515641,16.8005566 9.4720189,16.8451078 L9.37877519,16.8526316 L2.99101796,16.8526316 C1.66818024,16.8526316 0.586175081,15.8215048 0.504900775,14.5191495 L0.5,14.3616136 L0.5,3.34364954 C0.5,2.02081182 1.53112679,0.93880666 2.83348207,0.857532354 L2.99101796,0.852631579 L13.0508982,0.852631579 Z M8.54889687,9.17250061 C8.88618572,9.17250061 9.15964164,9.44609955 9.15964164,9.78361317 C9.15964164,10.1162842 8.89395029,10.3868794 8.56332262,10.3945418 L8.54889687,10.3947053 L3.83630202,10.3947053 C3.49899272,10.3947053 3.22555724,10.1211064 3.22555724,9.78361317 C3.22555724,9.45092176 3.49124859,9.18032648 3.82187626,9.17266407 L3.83630202,9.17250061 L8.54889687,9.17250061 Z M11.6899313,4.40243885 C12.0272406,4.40243885 12.3006761,4.6760378 12.3006761,5.01355142 C12.3006761,5.3462224 12.0349847,5.61681769 11.704357,5.62450052 L11.6899313,5.62466399 L3.83630202,5.62466399 C3.49899272,5.62466399 3.22555724,5.35106504 3.22555724,5.01355142 C3.22555724,4.68088044 3.49124859,4.41028515 3.82187626,4.40260232 L11.6899313,4.40243885 Z" id="形状结合" fill="#FFFFFF" fill-rule="nonzero"></path>
                <rect id="矩形" x="0" y="0" width="18" height="18"></rect>
                <path d="M13.7414765,16.3210245 C13.67043,16.3210245 13.5993834,16.3210245 13.5283368,16.2855012 C13.0310109,16.0013149 12.7823479,15.3263726 12.7113013,14.8290466 L12.7113013,14.758 C12.7468246,14.6514302 12.7823479,14.509337 12.8533945,14.3672439 C12.9599643,14.0830576 13.0310109,13.7988714 13.173104,13.5502084 C13.5283368,12.8042194 13.4928136,12.6621263 12.924441,12.129277 C12.8178712,12.0227072 12.7468246,11.7029976 12.8178712,11.5609045 C12.8889177,11.4543347 13.0665341,11.3832881 13.2086273,11.3832881 C13.2441506,11.3832881 13.3151971,11.3832881 13.3507204,11.4188114 C14.0256628,11.6319511 14.4164189,12.4489866 14.2388025,13.1594523 C14.1677559,13.4436385 14.0256628,13.7278248 13.919093,14.0120111 L13.8480464,14.1541042 C13.5638601,14.7935233 13.5993834,15.1132329 14.0967094,15.6460821 C14.1677559,15.7526519 14.1677559,15.8947451 14.1677559,16.0368382 L14.1677559,16.2855012 L13.919093,16.2855012 C13.8835697,16.3210245 13.8125231,16.3210245 13.7414765,16.3210245 L13.7414765,16.3210245 Z M11.539033,15.6105588 C11.4679864,15.6105588 11.3969398,15.6105588 11.3614165,15.5750355 C10.8996139,15.3263726 10.6509509,14.7224767 10.5799043,14.1896275 L10.5799043,14.1185809 C10.6154276,14.0120111 10.6509509,13.8699179 10.7219974,13.7633481 C10.8285673,13.5146851 10.8996139,13.2304988 11.041707,12.9463126 C11.3258933,12.3068935 11.3258933,12.1648003 10.793044,11.7029976 C10.6864742,11.6319511 10.6864742,11.4898579 10.6864742,11.3477648 C10.6864742,11.3122415 10.6864742,11.2411949 10.6509509,11.2056717 L10.6154276,11.0991018 L10.7219974,11.0635785 C10.7575207,11.0635785 10.8285673,11.0280552 10.8640906,11.0280552 C10.9351371,10.992532 11.041707,10.9570087 11.1482768,10.9570087 C11.1838001,10.9570087 11.2193234,10.9570087 11.2548467,10.992532 C11.8942658,11.2411949 12.2139754,11.9516606 12.0008357,12.6976496 C11.9297891,12.9463126 11.8232192,13.1594523 11.7521727,13.372592 C11.7166494,13.5146851 11.6811261,13.5857317 11.6456028,13.6567782 C11.4324631,14.1896275 11.4679864,14.4738138 11.8587425,14.9356164 C11.9297891,15.0421863 11.9653124,15.1842794 11.9653124,15.2908493 L11.9653124,15.4329424 L12.0008357,15.5395123 L11.8942658,15.5395123 C11.8587425,15.5395123 11.7876959,15.5395123 11.7521727,15.5750355 C11.6811261,15.6105588 11.6100795,15.6105588 11.539033,15.6105588 Z M15.9083968,15.6460821 C15.8373503,15.6460821 15.801827,15.6460821 15.7663037,15.6105588 C15.304501,15.3618958 15.0203148,14.9356164 15.055838,14.4738137 C15.0913613,13.9764878 15.1624079,13.4791618 15.3400243,13.0528824 C15.6242106,12.3424167 15.6242106,12.2713702 15.0913613,11.7385209 C14.9847915,11.6319511 14.9137449,11.3122415 15.0203147,11.1701484 C15.0913613,11.0635785 15.2689777,11.0280552 15.4110709,11.0280552 C15.4821174,11.0280552 15.5176407,11.0280552 15.5886873,11.0635785 C16.1215365,11.241195 16.4412461,11.8450908 16.4412461,12.5910797 L16.4412461,12.626603 C16.4412461,12.626603 16.4057228,12.7331729 16.3701995,12.8042194 C16.299153,12.9818358 16.2281064,13.2660221 16.0860132,13.5146851 C15.801827,14.1185809 15.7307804,14.5803836 16.2636297,15.006663 C16.3701995,15.0777096 16.3701995,15.2908493 16.3701995,15.3263726 C16.3701995,15.4329424 16.3346762,15.503989 16.299153,15.5395123 C16.1925831,15.6105588 16.05049,15.6460821 15.9083968,15.6460821 L15.9083968,15.6460821 Z" id="形状结合" fill="#FFFFFF" fill-rule="nonzero"></path>
            </g>
        </g>
    </g>
</svg>