<?xml version="1.0" encoding="UTF-8"?>
<svg width="18px" height="18px" viewBox="0 0 18 18" version="1.1" xmlns="http://www.w3.org/2000/svg" xmlns:xlink="http://www.w3.org/1999/xlink">
    <title>area</title>
    <g id="页面-1" stroke="none" stroke-width="1" fill="none" fill-rule="evenodd">
        <g id="画板" transform="translate(-1673.000000, -412.000000)">
            <g id="area" transform="translate(1673.000000, 412.000000)">
                <path d="M15.6666667,1 C16.4030463,1 17,1.59695367 17,2.33333333 L17,2.33333333 L17,15.6666667 C17,16.4030463 16.4030463,17 15.6666667,17 L15.6666667,17 L2.33333333,17 C1.59695367,17 1,16.4030463 1,15.6666667 L1,15.6666667 L1,2.33333333 C1,1.59695367 1.59695367,1 2.33333333,1 L2.33333333,1 Z M15.6666667,2 L2.33333333,2 C2.14923842,2 2,2.14923842 2,2.33333333 L2,2.33333333 L2,15.6666667 C2,15.8507616 2.14923842,16 2.33333333,16 L2.33333333,16 L3.9,15.999 L3.90079365,5.30555555 C3.89867925,5.07190963 3.98947184,4.8469943 4.15319611,4.68029323 C4.31692038,4.51359215 4.54016344,4.4187621 4.77380953,4.41666667 L9.71031746,4.41666667 C9.94534217,4.41666667 10.1706271,4.51056015 10.3360677,4.67749127 C10.5015084,4.8444224 10.5933872,5.07054038 10.5912698,5.30555555 L10.5912698,6.79761905 L13.2261905,6.79761905 C13.712727,6.79761905 14.1071429,7.19203486 14.1071429,7.67857142 L14.107,15.999 L15.6666667,16 C15.8277497,16 15.9621458,15.8857393 15.9932279,15.733845 L16,15.6666667 L16,2.33333333 C16,2.14923842 15.8507616,2 15.6666667,2 L15.6666667,2 Z M9.71031746,5.30555555 L4.77380953,5.30555555 L4.773,15.999 L9.71,15.999 L9.71031746,5.30555555 Z M13.2261905,7.69444445 L10.5912698,7.69444445 L10.591,15.999 L13.226,15.999 L13.2261905,7.69444445 Z M11.9087302,12.234127 L11.9087302,12.2420635 C12.0244993,12.2420635 12.1355268,12.2880526 12.2173879,12.3699137 C12.299249,12.4517748 12.3452381,12.5628023 12.3452381,12.6785714 L12.3452381,13.5595238 C12.3452381,13.6752929 12.299249,13.7863204 12.2173879,13.8681815 C12.1355268,13.9500427 12.0244993,13.9960318 11.9087302,13.9960318 C11.6663366,13.9960704 11.4686142,13.8018788 11.4642857,13.5595238 L11.4642857,12.6785714 C11.4642857,12.5606974 11.511111,12.4476513 11.5944605,12.3643018 C11.67781,12.2809522 11.7908562,12.234127 11.9087302,12.234127 Z M8.46428572,13.0912694 C8.58144312,13.0912505 8.69369053,13.1383274 8.77578366,13.2219132 C8.85787679,13.3054989 8.90292379,13.4185762 8.90079365,13.5357143 C8.884125,13.7643125 8.69349003,13.9410831 8.46428572,13.9404778 L5.92460318,13.9404778 C5.80883408,13.9404778 5.69780657,13.8944871 5.61594545,13.812626 C5.53408433,13.7307649 5.48809524,13.6197374 5.48809524,13.5039683 C5.50075371,13.272237 5.69252667,13.0909244 5.92460318,13.0912694 L8.46428572,13.0912694 Z M8.46428572,10.234127 C8.58144312,10.2341076 8.69369053,10.2811846 8.77578366,10.3647703 C8.85787679,10.448356 8.90292379,10.5614334 8.90079365,10.6785714 C8.90079365,10.7943405 8.85480456,10.905368 8.77294344,10.9872292 C8.69108232,11.0690903 8.58005482,11.1150794 8.46428572,11.1150794 L5.92460318,11.1150794 C5.80883408,11.1150794 5.69780657,11.0690903 5.61594545,10.9872292 C5.53408433,10.905368 5.48809523,10.7943405 5.48809524,10.6785714 C5.4859651,10.5614334 5.5310121,10.448356 5.61310523,10.3647703 C5.69519837,10.2811846 5.80744578,10.2341076 5.92460318,10.234127 L8.46428572,10.234127 Z M11.9246032,9.30555555 L11.9087302,9.31349206 C12.1498068,9.31349206 12.3452381,9.50892332 12.3452381,9.75 L12.3452381,10.6309524 C12.3452381,10.8720291 12.1498068,11.0674603 11.9087302,11.0674603 C11.6725346,11.0590545 11.4842297,10.8672624 11.4801587,10.6309524 L11.4801587,9.75 C11.4801587,9.50454011 11.6791433,9.30555555 11.9246032,9.30555555 Z M8.46428572,7.37698412 C8.58144312,7.37696476 8.69369053,7.42404171 8.77578366,7.50762745 C8.85787679,7.59121318 8.90292379,7.70429053 8.90079365,7.82142857 C8.90079365,7.93719767 8.85480456,8.04822518 8.77294344,8.13008629 C8.69108232,8.21194741 8.58005482,8.25793651 8.46428572,8.25793651 L5.92460318,8.25793651 C5.80883408,8.25793651 5.69780657,8.21194742 5.61594545,8.1300863 C5.53408433,8.04822518 5.48809523,7.93719767 5.48809524,7.82142857 C5.4859651,7.70429053 5.5310121,7.59121318 5.61310523,7.50762744 C5.69519837,7.42404171 5.80744578,7.37696476 5.92460318,7.37698412 L8.46428572,7.37698412 Z" id="形状结合" fill="#FFFFFF" fill-rule="nonzero"></path>
                <rect id="矩形" x="0" y="0" width="18" height="18"></rect>
            </g>
        </g>
    </g>
</svg>