<?xml version="1.0" encoding="UTF-8"?>
<svg width="18px" height="18px" viewBox="0 0 18 18" version="1.1" xmlns="http://www.w3.org/2000/svg" xmlns:xlink="http://www.w3.org/1999/xlink">
    <title>area</title>
    <g id="页面-1" stroke="none" stroke-width="1" fill="none" fill-rule="evenodd">
        <g id="画板" transform="translate(-133.000000, -229.000000)">
            <g id="area" transform="translate(133.000000, 229.000000)">
                <path d="M16.4615468,2 L1.57204419,2 C0.976464085,2 0.5,2.47646408 0.5,3.07204419 L0.5,14.7794474 C0.5,15.3750275 0.976464085,15.834475 1.55502762,15.834475 L16.4445303,15.834475 C17.0401104,15.834475 17.4995579,15.358011 17.4995579,14.7794474 L17.4995579,3.07204419 C17.5165745,2.47646408 17.0401104,2 16.4615468,2 L16.4615468,2 Z M16.4615468,4.16110496 L11.8670717,6.52640881 L10.33558,3.07204419 L16.4785634,3.07204419 L16.4785634,4.16110496 L16.4615468,4.16110496 Z M6.45580106,9.30011044 L3.68209942,3.07204419 L9.14441983,3.07204419 L10.897127,7.00287289 L6.45580106,9.30011044 Z M11.3395579,7.98983421 L14.3685082,14.7794474 L8.88917121,14.7794474 L6.88121542,10.2700552 L11.3395579,7.98983421 Z M2.52497236,3.07204419 L5.50287289,9.77657453 L1.57204419,11.8015469 L1.57204419,3.07204419 L2.52497236,3.07204419 Z M1.57204419,12.9927071 L5.94530383,10.7465193 L7.73204415,14.7624308 L1.57204419,14.7624308 L1.57204419,12.9927071 Z M15.5256353,14.7624308 L12.2924861,7.47933698 L16.4615468,5.33524859 L16.4615468,14.7454143 L15.5256353,14.7454143 L15.5256353,14.7624308 Z" id="形状" fill="#FFFFFF" fill-rule="nonzero"></path>
                <rect id="矩形" x="0" y="0" width="18" height="18"></rect>
            </g>
        </g>
    </g>
</svg>