<?xml version="1.0" encoding="UTF-8"?>
<svg width="18px" height="18px" viewBox="0 0 18 18" version="1.1" xmlns="http://www.w3.org/2000/svg" xmlns:xlink="http://www.w3.org/1999/xlink">
    <title>assorting</title>
    <g id="页面-1" stroke="none" stroke-width="1" fill="none" fill-rule="evenodd">
        <g id="画板" transform="translate(-1549.000000, -137.000000)">
            <g id="assorting" transform="translate(1549.000000, 137.000000)">
                <path d="M3.18147383,1.00236742 L6.08694904,1.00236742 C7.29043627,1.00236742 8.26605543,1.9779866 8.26605543,3.18147383 L8.26605543,6.08694904 C8.26605543,7.29043627 7.29043627,8.26605543 6.08694904,8.26605543 L3.18147383,8.26605543 C1.9779866,8.26605543 1.00236742,7.29043627 1.00236742,6.08694904 L1.00236742,3.18147383 C1.00236742,1.9779866 1.9779866,1.00236742 3.18147383,1.00236742 Z M3.18147383,2.1645575 C2.91177085,2.1645575 2.6531142,2.27169659 2.4624054,2.4624054 C2.27169659,2.6531142 2.1645575,2.91177085 2.1645575,3.18147383 L2.1645575,6.08694904 C2.1645575,6.35665202 2.27169659,6.61530866 2.4624054,6.80601747 C2.65311421,6.99672627 2.91177086,7.10386536 3.18147383,7.10386536 L6.08694904,7.10386536 C6.64857641,7.10386536 7.10386536,6.64857641 7.10386536,6.08694904 L7.10386536,3.18147383 C7.10386536,2.91177086 6.99672627,2.65311421 6.80601747,2.4624054 C6.61530866,2.27169659 6.35665202,2.1645575 6.08694904,2.1645575 L3.18147383,2.1645575 Z M3.18147383,9.71879305 L6.08694904,9.71879305 C7.29043627,9.71879305 8.26605543,10.6944122 8.26605543,11.8978994 L8.26605543,14.8033747 C8.26605543,16.0068619 7.29043627,16.9824811 6.08694904,16.9824811 L3.18147383,16.9824811 C2.60353888,16.9824811 2.04927464,16.7528973 1.64061291,16.3442356 C1.23195119,15.9355738 1.00236742,15.3813096 1.00236742,14.8033747 L1.00236742,11.8978994 C1.00236742,10.6944122 1.9779866,9.71879305 3.18147383,9.71879305 L3.18147383,9.71879305 Z M3.18147383,10.8809831 C2.91177086,10.8809831 2.65311421,10.9881222 2.4624054,11.178831 C2.27169659,11.3695398 2.1645575,11.6281965 2.1645575,11.8978994 L2.1645575,14.8033747 C2.1645575,15.0730776 2.27169659,15.3317343 2.4624054,15.5224431 C2.6531142,15.7131519 2.91177085,15.820291 3.18147383,15.820291 L6.08694904,15.820291 C6.35665202,15.820291 6.61530866,15.7131519 6.80601747,15.5224431 C6.99672627,15.3317343 7.10386536,15.0730776 7.10386536,14.8033747 L7.10386536,11.8978994 C7.10386536,11.3362721 6.64857641,10.8809831 6.08694904,10.8809831 L3.18147383,10.8809831 L3.18147383,10.8809831 Z M11.8978994,1.00236742 L14.8033746,1.00236742 C16.0068619,1.00236742 16.9824811,1.9779866 16.9824811,3.18147383 L16.9824811,6.08694904 C16.9824811,7.29043627 16.0068619,8.26605543 14.8033746,8.26605543 L11.8978994,8.26605543 C10.6944122,8.26605543 9.71879305,7.29043627 9.71879305,6.08694904 L9.71879305,3.18147383 C9.71879305,1.9779866 10.6944122,1.00236742 11.8978994,1.00236742 L11.8978994,1.00236742 Z M11.8978994,2.1645575 C11.6281965,2.1645575 11.3695398,2.27169659 11.178831,2.4624054 C10.9881222,2.65311421 10.8809831,2.91177086 10.8809831,3.18147383 L10.8809831,6.08694904 C10.8809831,6.64857641 11.3362721,7.10386536 11.8978994,7.10386536 L14.8033746,7.10386536 C15.0730776,7.10386536 15.3317343,6.99672627 15.5224431,6.80601747 C15.7131519,6.61530866 15.820291,6.35665202 15.820291,6.08694904 L15.820291,3.18147383 C15.820291,2.91177085 15.7131519,2.6531142 15.5224431,2.4624054 C15.3317343,2.27169659 15.0730776,2.1645575 14.8033746,2.1645575 L11.8978994,2.1645575 L11.8978994,2.1645575 Z M10.8083462,11.3894413 L15.8929279,11.3894413 C16.1005559,11.3894754 16.2924267,11.2787268 16.3962506,11.0989214 C16.5000744,10.9191159 16.5000744,10.6975766 16.3962506,10.5177711 C16.2924267,10.3379657 16.1005559,10.2272171 15.8929279,10.2272512 L10.8083462,10.2272512 C10.6007182,10.2272171 10.4088474,10.3379657 10.3050235,10.5177711 C10.2011997,10.6975766 10.2011997,10.9191159 10.3050235,11.0989214 C10.4088474,11.2787268 10.6007182,11.3894754 10.8083462,11.3894413 L10.8083462,11.3894413 Z M10.8083462,13.9317321 L14.4401903,13.9317321 C14.6478181,13.931766 14.8396887,13.8210174 14.9435125,13.641212 C15.0473362,13.4614066 15.0473362,13.2398675 14.9435125,13.0600621 C14.8396887,12.8802567 14.6478181,12.7695081 14.4401903,12.769542 L10.8083462,12.769542 C10.6007184,12.7695081 10.4088477,12.8802567 10.305024,13.0600621 C10.2012003,13.2398675 10.2012003,13.4614066 10.305024,13.641212 C10.4088477,13.8210174 10.6007184,13.931766 10.8083462,13.9317321 L10.8083462,13.9317321 Z M10.8083462,16.4740229 L12.9874527,16.4740229 C13.1950805,16.4740568 13.3869511,16.3633082 13.4907749,16.1835028 C13.5945986,16.0036974 13.5945986,15.7821583 13.4907749,15.6023529 C13.3869511,15.4225475 13.1950805,15.3117989 12.9874527,15.3118328 L10.8083462,15.3118328 C10.6007185,15.3117991 10.4088481,15.4225478 10.3050245,15.6023531 C10.2012009,15.7821584 10.2012009,16.0036974 10.3050245,16.1835026 C10.4088481,16.3633079 10.6007185,16.4740566 10.8083462,16.4740229 L10.8083462,16.4740229 Z" id="形状" fill="#FFFFFF" fill-rule="nonzero"></path>
                <rect id="矩形" x="0" y="0" width="18" height="18"></rect>
            </g>
        </g>
    </g>
</svg>