<?xml version="1.0" encoding="UTF-8"?>
<svg width="19px" height="18px" viewBox="0 0 19 18" version="1.1" xmlns="http://www.w3.org/2000/svg" xmlns:xlink="http://www.w3.org/1999/xlink">
    <title>base</title>
    <g id="页面-1" stroke="none" stroke-width="1" fill="none" fill-rule="evenodd">
        <g id="画板" transform="translate(-132.000000, -122.000000)">
            <g id="base" transform="translate(132.000000, 122.000000)">
                <path d="M9.31007668,1 L9.49271008,1.01279452 C10.6386031,1.12360172 11.5760318,1.80374559 12.1028591,3.25879245 L12.1028591,3.25879245 L12.1987819,3.52524533 L12.339915,3.62443741 L17.2848399,3.62443741 L17.3997869,3.63077525 C18.230117,3.63077525 18.9938023,4.23528261 18.9938023,5.21587451 L18.9938023,5.21587451 L18.9938023,15.2368019 L18.9876047,15.3401731 C18.9876047,16.0166166 18.2480636,16.6174497 17.5386961,16.6174497 L17.5386961,16.6174497 L2.95375473,16.6174497 L2.83414968,16.6121805 C1.68242636,16.6121805 0.993408569,15.7029021 0.993408569,15.100261 L0.993408569,15.100261 L0.993408569,2.49544181 L1,2.38574691 C0.993408569,1.68424431 1.7319804,1 2.46354926,1 L2.46354926,1 L9.31007668,1 Z M16.3619187,4.754009 L2.0780541,4.754009 L2.07622937,4.904009 L2.07622937,13.9508501 L2.0780541,14.1013603 C2.1064502,15.2158874 2.47578777,15.4344057 3.84783297,15.4344057 L3.84783297,15.4344057 L16.2571732,15.4340037 L16.4237238,15.4310744 C17.4994596,15.3992386 17.888148,15.1137105 17.888148,14.1215453 L17.888148,14.1215453 L17.8810013,6.77717022 L17.8700125,6.14023339 C17.8175596,5.14102571 17.4734893,4.754009 16.3619187,4.754009 L16.3619187,4.754009 Z M5.20272545,11.571787 L5.20272545,12.9693532 L3.80515919,12.9693532 L3.80515919,11.571787 L5.20272545,11.571787 Z M15.7431489,11.5931239 C15.9671862,11.5931239 16.1698866,12.0305301 16.1805551,12.2652359 C16.1805551,12.4999417 15.9778546,12.8840057 15.7431489,12.8840057 L15.7431489,12.8840057 L7.84849975,12.8840057 C7.61379397,12.8840057 7.41109352,12.4999417 7.41109352,12.2652359 C7.41109352,12.0305301 7.61379397,11.5931239 7.84849975,11.5931239 L7.84849975,11.5931239 Z M5.20272545,7.88050508 L5.20272545,9.27807135 L3.80515919,9.27807135 L3.80515919,7.88050508 L5.20272545,7.88050508 Z M15.7431489,7.97652109 C15.9671862,7.97652109 16.1698866,8.38192199 16.1805551,8.64863311 C16.1805551,8.88333889 15.9778546,9.22472912 15.7431489,9.22472912 L15.7431489,9.22472912 L7.84849975,9.22472912 C7.61379397,9.22472912 7.41109352,8.88333889 7.41109352,8.64863311 C7.41109352,8.41392732 7.61379397,7.97652109 7.84849975,7.97652109 L7.84849975,7.97652109 Z M3.23237803,1.92282808 C2.48346979,1.93089796 2.3021596,2.03105921 2.06035914,2.4985136 L2.06035914,2.4985136 L2.01573142,2.58930208 L2.00155026,3.44243207 L2.00155026,3.59243207 L10.9374701,3.59243207 L10.5756412,2.85369816 L10.5029796,2.75499965 C10.0330068,2.15013906 9.36465182,1.92687115 7.78448908,1.92687115 L7.78448908,1.92687115 L3.77292307,1.92611988 Z" id="形状结合" fill="#FFFFFF" fill-rule="nonzero"></path>
                <rect id="矩形" x="1" y="0" width="18" height="18"></rect>
            </g>
        </g>
    </g>
</svg>