<?xml version="1.0" encoding="UTF-8"?>
<svg width="18px" height="18px" viewBox="0 0 18 18" version="1.1" xmlns="http://www.w3.org/2000/svg" xmlns:xlink="http://www.w3.org/1999/xlink">
    <title>category</title>
    <g id="页面-1" stroke="none" stroke-width="1" fill="none" fill-rule="evenodd">
        <g id="画板" transform="translate(-641.000000, -123.000000)" fill="#FFFFFF" fill-rule="nonzero">
            <g id="category" transform="translate(641.000000, 123.000000)">
                <path d="M5.33039195,16.8792518 L2.44400976,16.8792518 C1.64674428,16.8792518 1,16.2325075 1,15.4352232 L1,12.548841 C1,11.7515756 1.64674428,11.1048313 2.44400976,11.1048313 L5.33041077,11.1048313 C6.12767624,11.1048313 6.77442052,11.7515756 6.77442052,12.548841 L6.77442052,15.4352421 C6.77442052,16.2325075 6.12767624,16.8792518 5.33039195,16.8792518 Z M5.13041077,12.548841 L2.64400976,12.548841 C2.53355281,12.548841 2.44400976,12.6383841 2.44400976,12.748841 L2.44400976,15.2352421 C2.44400976,15.345699 2.53355281,15.4352421 2.64400976,15.4352421 L5.13041077,15.4352421 C5.24086772,15.4352421 5.33041077,15.345699 5.33041077,15.2352421 L5.33041077,12.748841 C5.33041077,12.6383841 5.24086772,12.548841 5.13041077,12.548841 Z M5.33039195,6.77442052 L2.44400976,6.77442052 C1.64674428,6.77442052 1,6.12767624 1,5.33041077 L1,2.44400976 C1,1.64674428 1.64674428,1 2.44400976,1 L5.33041077,1 C6.12767624,1 6.77442052,1.64674428 6.77442052,2.44402858 L6.77442052,5.33041077 C6.77442052,6.12767624 6.12767624,6.77442052 5.33039195,6.77442052 Z M5.13041077,2.44400976 L2.64400976,2.44400976 C2.53355281,2.44400976 2.44400976,2.53355281 2.44400976,2.64400976 L2.44400976,5.13041077 C2.44400976,5.24086772 2.53355281,5.33041077 2.64400976,5.33041077 L5.13041077,5.33041077 C5.24086772,5.33041077 5.33041077,5.24086772 5.33041077,5.13041077 L5.33041077,2.64400976 C5.33041077,2.53355281 5.24086772,2.44400976 5.13041077,2.44400976 Z" id="形状"></path>
                <path d="M8.94043516,2.44402858 L16.2779951,2.44402858 C16.6767474,2.44402858 17,2.76728117 17,3.16603346 C17,3.56478574 16.6767474,3.88803834 16.2779951,3.88803834 L8.94043516,3.88803834 C8.54168288,3.88803834 8.21843028,3.56478574 8.21843028,3.16603346 C8.21843028,2.76728117 8.54168288,2.44402858 8.94043516,2.44402858 Z" id="路径"></path>
                <path d="M8.94043516,8.2184491 L16.2779951,8.2184491 C16.6767474,8.2184491 17,8.5417017 17,8.94045398 C17,9.33920627 16.6767474,9.66245886 16.2779951,9.66245886 L8.94043516,9.66245886 C8.54168288,9.66245886 8.21843028,9.33920627 8.21843028,8.94045398 C8.21843028,8.5417017 8.54168288,8.2184491 8.94043516,8.2184491 Z" id="路径"></path>
                <path d="M8.94043516,13.9928696 L16.2779951,13.9928696 C16.6767474,13.9928696 17,14.3161222 17,14.7148745 C17,15.1136268 16.6767474,15.4368794 16.2779951,15.4368794 L8.94043516,15.4368794 C8.54168288,15.4368794 8.21843028,15.1136268 8.21843028,14.7148745 C8.21843028,14.3161222 8.54168288,13.9928696 8.94043516,13.9928696 Z" id="路径"></path>
            </g>
        </g>
    </g>
</svg>