<?xml version="1.0" encoding="UTF-8"?>
<svg width="18px" height="18px" viewBox="0 0 18 18" version="1.1" xmlns="http://www.w3.org/2000/svg" xmlns:xlink="http://www.w3.org/1999/xlink">
    <title>chart</title>
    <g id="页面-1" stroke="none" stroke-width="1" fill="none" fill-rule="evenodd">
        <g id="画板" transform="translate(-1778.000000, -209.000000)" fill="#FFFFFF" fill-rule="nonzero">
            <g id="chart" transform="translate(1778.000000, 209.000000)">
                <path d="M13.1204819,13.8361446 L13.1204819,16.3518072 L16.6987952,16.3518072 L16.6987952,17.6096386 L11.9277108,17.6096386 L11.9277108,13.8361446 L9.54216867,13.8361446 L9.54216867,16.9807229 C9.54216867,17.3277108 9.27108434,17.6096386 8.94578313,17.6096386 C8.62048193,17.6096386 8.34939759,17.3277108 8.34939759,16.9807229 L8.34939759,13.8361446 L5.96385542,13.8361446 L5.96385542,17.6096386 L1.19277108,17.6096386 L1.19277108,16.3518072 L4.77108434,16.3518072 L4.77108434,13.8361446 L1.11686747,13.8361446 C0.498795181,13.8361446 -2.50466314e-13,13.2180723 -2.50466314e-13,12.4481928 L-2.50466314e-13,1.38795181 C-2.50466314e-13,0.618072289 0.498795181,1.77635684e-15 1.11686747,1.77635684e-15 L16.7746988,1.77635684e-15 C17.3927711,1.77635684e-15 17.8915663,0.618072289 17.8915663,1.38795181 L17.8915663,12.4590361 C17.8915663,13.2289157 17.3927711,13.846988 16.7746988,13.846988 L13.1204819,13.846988 L13.1204819,13.8361446 Z M1.19277108,1.25783133 L1.19277108,12.5783133 L16.6987952,12.5783133 L16.6987952,1.25783133 L1.19277108,1.25783133 Z M5.92048193,6.28915663 L6.51686747,6.28915663 C6.84216867,6.28915663 7.11325301,6.57108434 7.11325301,6.91807229 C7.11325301,7.26506024 6.84216867,7.54698795 6.51686747,7.54698795 L4.1313253,7.54698795 C3.8060241,7.54698795 3.53493976,7.26506024 3.53493976,6.91807229 C3.53493976,6.57108434 3.8060241,6.28915663 4.1313253,6.28915663 L4.72771084,6.28915663 L4.72771084,4.40240964 C4.72771084,4.05542169 4.99879518,3.77349398 5.32409639,3.77349398 C5.64939759,3.77349398 5.92048193,4.05542169 5.92048193,4.40240964 L5.92048193,6.28915663 L5.92048193,6.28915663 Z M12.8277108,6.28915663 L13.4240964,6.28915663 C13.7493976,6.28915663 14.0204819,6.57108434 14.0204819,6.91807229 C14.0204819,7.26506024 13.7493976,7.54698795 13.4240964,7.54698795 L11.0385542,7.54698795 C10.713253,7.54698795 10.4421687,7.26506024 10.4421687,6.91807229 C10.4421687,6.57108434 10.713253,6.28915663 11.0385542,6.28915663 L11.6349398,6.28915663 L11.6349398,4.40240964 C11.6349398,4.05542169 11.9060241,3.77349398 12.2313253,3.77349398 C12.5566265,3.77349398 12.8277108,4.05542169 12.8277108,4.40240964 L12.8277108,6.28915663 L12.8277108,6.28915663 Z M2.98192771,8.80481928 L14.9096386,8.80481928 C15.2349398,8.80481928 15.5060241,9.08674699 15.5060241,9.43373494 C15.5060241,9.78072289 15.2349398,10.0626506 14.9096386,10.0626506 L2.98192771,10.0626506 C2.65662651,10.0626506 2.38554217,9.78072289 2.38554217,9.43373494 C2.38554217,9.08674699 2.65662651,8.80481928 2.98192771,8.80481928 Z" id="形状"></path>
            </g>
        </g>
    </g>
</svg>