<?xml version="1.0" encoding="UTF-8"?>
<svg width="18px" height="18px" viewBox="0 0 18 18" version="1.1" xmlns="http://www.w3.org/2000/svg" xmlns:xlink="http://www.w3.org/1999/xlink">
    <title>contactManager</title>
    <g id="页面-1" stroke="none" stroke-width="1" fill="none" fill-rule="evenodd">
        <g id="画板" transform="translate(-1102.000000, -394.000000)">
            <g id="contactManager" transform="translate(1102.000000, 394.000000)">
                <path d="M7.06382181,-4.61852778e-14 C8.54441263,-4.61852778e-14 9.74466865,1.20025601 9.74466865,2.68084684 L9.74466865,8.16963251 C9.74466865,8.32273866 9.72441336,8.47107885 9.69939212,8.61763181 C11.1530069,9.50767296 12.1276436,11.1054577 12.1276436,12.9355824 C12.1276436,15.7328498 9.86049337,18 7.06382181,18 C4.26715025,18 2,15.7328498 2,12.9361782 C2,11.1054577 2.97404102,9.50767296 4.42825149,8.61763181 C4.40047303,8.4698542 4.38532616,8.3199799 4.38297497,8.16963251 L4.38297497,2.68084684 C4.38297497,1.20025601 5.58323098,-4.61852778e-14 7.06382181,-4.61852778e-14 Z M7.06382181,1.19208323 C6.24127135,1.19208323 5.57446245,1.85889212 5.57446245,2.68144258 L5.574,4.189 L7.68743482,4.18934611 L7.68743482,5.19036592 L5.574,5.19 L5.574,6.178 L6.68641501,6.17803879 L6.68641501,7.1790586 L5.574,7.179 L5.57446245,9.36171574 C3.87058404,10.0716651 2.90468105,11.8855827 3.2666856,13.6956054 C3.62869015,15.5056282 5.21795353,16.8085125 7.06382181,16.8085125 C8.90969008,16.8085125 10.4989535,15.5056282 10.860958,13.6956054 C11.2229626,11.8855827 10.2570596,10.0716651 8.55318116,9.36171574 L8.55318116,2.68144258 C8.55318116,1.85889212 7.88637227,1.19208323 7.06382181,1.19208323 Z M6.99339441,11.8138026 C7.64206937,11.8138026 8.16792433,12.3396575 8.16792433,12.9883325 C8.16792433,13.6370074 7.64206937,14.1628624 6.99339441,14.1628624 C6.34471945,14.1628624 5.81886449,13.6370074 5.81886449,12.9883325 C5.81886449,12.3396575 6.34471945,11.8138026 6.99339441,11.8138026 Z M16.2978498,6.55318116 L16.2978498,7.74466865 L11.5318999,7.74466865 L11.5318999,6.55318116 L16.2978498,6.55318116 Z M16.2978498,2.97871871 L16.2978498,4.17020619 L11.5318999,4.17020619 L11.5318999,2.97871871 L16.2978498,2.97871871 Z" id="形状结合" fill="#FFFFFF" fill-rule="nonzero"></path>
                <rect id="矩形" x="0" y="0" width="18" height="18"></rect>
            </g>
        </g>
    </g>
</svg>