<?xml version="1.0" encoding="UTF-8"?>
<svg width="18px" height="18px" viewBox="0 0 18 18" version="1.1" xmlns="http://www.w3.org/2000/svg" xmlns:xlink="http://www.w3.org/1999/xlink">
    <title>自定义报表</title>
    <g id="页面-1" stroke="none" stroke-width="1" fill="none" fill-rule="evenodd">
        <g id="图标组1" transform="translate(-4456.000000, -172.000000)">
            <g id="自定义报表" transform="translate(4456.000000, 172.000000)">
                <path d="M15.6395004,1 L2.35091435,1 C1.59734308,1 1,1.59734308 1,2.35091435 L1,15.6486903 C1,16.3930717 1.59734308,16.9996046 2.35091435,16.9996046 L15.6486903,16.9996046 C16.3930717,16.9996046 16.9996046,16.4022616 16.9996046,15.6486903 L16.9996046,2.35091435 C17.0179844,1.59734308 16.3930717,1 15.6395004,1 L15.6395004,1 Z M6.35770793,9.17900524 L6.35770793,2.4244335 L15.8232983,2.4244335 L15.8232983,9.17900524 L6.35770793,9.17900524 Z M10.5207297,10.3736914 L10.5207297,15.8232983 L6.35770793,15.8232983 L6.35770793,10.3736914 L10.5207297,10.3736914 Z M5.16302177,2.4244335 L5.16302177,9.17900524 L2.19468616,9.17900524 L2.19468616,2.4244335 L5.16302177,2.4244335 Z M2.19468616,15.6395004 L2.19468616,10.3736914 L5.16302177,10.3736914 L5.16302177,15.8232983 L2.35091435,15.8232983 C2.25901541,15.8232983 2.19468616,15.7313993 2.19468616,15.6395004 Z M15.6395004,15.8232983 L11.7154159,15.8232983 L11.7154159,10.3736914 L15.7957286,10.3736914 L15.7957286,15.6395004 C15.8232983,15.7313993 15.7313993,15.8232983 15.6395004,15.8232983 Z" id="形状" fill="#FFFFFF" fill-rule="nonzero"></path>
                <rect id="矩形" x="0" y="0" width="18" height="18"></rect>
            </g>
        </g>
    </g>
</svg>