<?xml version="1.0" encoding="UTF-8"?>
<svg width="18px" height="18px" viewBox="0 0 18 18" version="1.1" xmlns="http://www.w3.org/2000/svg" xmlns:xlink="http://www.w3.org/1999/xlink">
    <title>dataScreen</title>
    <g id="页面-1" stroke="none" stroke-width="1" fill="none" fill-rule="evenodd">
        <g id="画板" transform="translate(-132.000000, -300.000000)">
            <g id="dataScreen" transform="translate(132.000000, 300.000000)">
                <path d="M15.7497227,14.7558592 L2.26493058,14.7554131 L2.19177731,14.7593595 C1.92908213,14.790605 1.73618764,15.02107 1.75169129,15.2851621 C1.76547232,15.5199107 1.93967371,15.7090057 2.16381982,15.7483346 L2.25,15.7558594 L15.7350694,15.7563056 L15.8082227,15.7523592 C16.0709179,15.7211138 16.2638124,15.4906488 16.2483087,15.2265566 C16.2345277,14.991808 16.0603263,14.8027131 15.8359854,14.763384 L15.7497227,14.7558592 Z M8.95439371,1.25858179 L2.06866663,1.8848297 C1.0905208,1.97388155 0.330016684,2.75723008 0.25592593,3.72165225 L0.249999993,3.87535937 L0.249999993,11.6362981 C0.25024067,12.6189539 0.962266061,13.4474138 1.91674288,13.6079199 L2.06939616,13.6276372 L8.93174999,14.2528594 L9.04560629,14.253887 L15.9313333,13.6276391 C16.9097209,13.5385651 17.6703184,12.7548655 17.7441225,11.7901177 L17.75,11.6363594 L17.75,3.87541303 C17.7497891,2.89297912 17.0381005,2.0646116 16.0839591,1.90384364 L15.9313587,1.88408202 L9.066,1.259 L8.95439371,1.25858179 Z M9.02267838,2.25914012 L15.8399999,2.88012393 C16.3153386,2.92307852 16.6880986,3.29398113 16.7430167,3.75764656 L16.75,3.87535937 L16.7495538,11.6512899 L16.7430052,11.7535944 C16.6919156,12.1837546 16.3711922,12.5273057 15.9556889,12.6143339 L15.8401512,12.6315811 L8.97734877,13.2518311 L2.16000011,12.6315948 C1.68466145,12.5886402 1.3119014,12.2177376 1.25698325,11.7540722 L1.24999999,11.6363594 L1.24999999,3.87512392 C1.25044961,3.39784859 1.58667973,2.99353669 2.04328668,2.89757135 L2.15982161,2.88014012 L8.97732161,2.25914012 L9.02267838,2.25914012 Z M13,6.75585938 L13,11.7558594 L11,11.7558594 L11,6.75585938 L13,6.75585938 Z M16,3.75585938 L16,11.7558594 L14,11.7558594 L14,3.75585938 L16,3.75585938 Z M12.5,7.255 L11.5,7.255 L11.5,11.255 L12.5,11.255 L12.5,7.255 Z M6.00000002,4.25585938 C4.06700338,4.25585938 2.50000002,5.82286276 2.50000002,7.75585938 C2.50000002,9.688856 4.0670034,11.2558594 6.00000002,11.2558594 C7.86856341,11.2558594 9.39512647,9.79158177 9.49522425,7.96138134 L9.50044626,7.77078999 L9.49646702,7.69735937 C9.47010433,7.47358476 9.2985987,7.2988186 9.08280265,7.26272084 L9.00000002,7.25585938 L6.50000002,7.25585938 L6.50000002,4.75585938 C6.50000002,4.47971701 6.27614238,4.25585938 6.00000002,4.25585938 Z M15.5,4.255 L14.5,4.255 L14.5,11.255 L15.5,11.255 L15.5,4.255 Z M5.02121893,5.45471789 L5.50000001,5.26634501 L5.49955377,7.74092884 L5.50353297,7.81435937 C5.52989566,8.03813399 5.70140129,8.21290015 5.91719734,8.24899791 L5.99999999,8.25585937 L8.49749977,8.25585937 L8.2875383,8.76572584 C7.85567548,9.74352232 6.84255083,10.3455297 5.76518666,10.2434093 C4.62796891,10.1356155 3.70845597,9.27070437 3.53133322,8.14220482 C3.36353272,7.07309999 3.90247036,6.02506342 4.85813299,5.53171511 L5.02121893,5.45471789 Z M7.75,4.272 L7.75,6.005 L9.484,6.005 L9.48233973,5.98913576 C9.37131375,5.15840301 8.75444072,4.49554795 7.95853037,4.30872105 L7.79705797,4.27779401 L7.75,4.272 Z" id="形状" fill="#FFFFFF" fill-rule="nonzero"></path>
                <rect id="矩形" x="0" y="0" width="18" height="18"></rect>
            </g>
        </g>
    </g>
</svg>