<?xml version="1.0" encoding="UTF-8"?>
<svg width="18px" height="18px" viewBox="0 0 18 18" version="1.1" xmlns="http://www.w3.org/2000/svg" xmlns:xlink="http://www.w3.org/1999/xlink">
    <title>designWarningSetting</title>
    <g id="页面-1" stroke="none" stroke-width="1" fill="none" fill-rule="evenodd">
        <g id="画板" transform="translate(-2241.000000, -282.000000)">
            <g id="designWarningSetting" transform="translate(2241.000000, 282.000000)">
                <path d="M15.7886029,4.08522728 L14.8902072,3.18683155 L13.0934158,4.98362299 L13.9918115,5.88201872 L15.7886029,4.08522728 Z M2.56935161,9.34725936 L0.00250667823,9.34725936 L0.00250667823,10.6306818 L2.56935161,10.6306818 L2.56935161,9.34725936 Z M9.62817513,1.00501338 L8.34475268,1.00501338 L8.34475268,3.57185829 L9.62817513,3.57185829 L9.62817513,1.00501338 Z M4.87951204,4.98362299 L3.08272058,3.18683155 L2.18432487,4.08522728 L3.98111631,5.88201872 L4.87951204,4.98362299 Z M10.2057152,8.38469251 L9.11480616,7.74298129 L6.74047459,11.7215909 L9.30731952,12.3633021 L7.83138369,14.8018048 L8.92229279,15.443516 L11.2966243,11.4649064 L8.72977942,10.8231952 L10.2057152,8.38469251 Z M15.4035762,9.34725936 L15.4035762,10.6306818 L17.9704211,10.6306818 L17.9704211,9.34725936 L15.4035762,9.34725936 Z M14.1201537,9.98897058 C14.1201537,7.15371197 11.8217225,4.85528074 8.9864639,4.85528074 C6.15120529,4.85528074 3.85277406,7.15371197 3.85277406,9.98897058 L3.85277406,16.4060829 L1.92764037,16.4060829 L1.92764037,17.6895053 L16.0452874,17.6895053 L16.0452874,16.4060829 L14.1201537,16.4060829 L14.1201537,9.98897058 Z M12.8367313,16.4060829 L5.13619652,16.4060829 L5.13619652,9.98897058 C5.13619652,7.86252663 6.86001995,6.1387032 8.9864639,6.1387032 C11.1129079,6.1387032 12.8367313,7.86252663 12.8367313,9.98897058 L12.8367313,16.4060829 Z" id="形状" fill="#FFFFFF" fill-rule="nonzero"></path>
                <rect id="矩形" x="0" y="0" width="18" height="18"></rect>
            </g>
        </g>
    </g>
</svg>