<?xml version="1.0" encoding="UTF-8"?>
<svg width="18px" height="18px" viewBox="0 0 18 18" version="1.1" xmlns="http://www.w3.org/2000/svg" xmlns:xlink="http://www.w3.org/1999/xlink">
    <title>designEmissionBound</title>
    <g id="页面-1" stroke="none" stroke-width="1" fill="none" fill-rule="evenodd">
        <g id="画板" transform="translate(-2240.000000, -178.000000)">
            <g id="designEmissionBound" transform="translate(2240.000000, 178.000000)">
                <path d="M13.7397691,8.96224135 C13.6552197,9.03358077 11.7001326,10.6716267 9.09246389,8.89619111 C8.36855583,8.40214305 7.62879313,8.09566735 6.89431961,7.9820661 C6.30515663,7.89222745 5.71862533,7.92393673 5.15059326,8.07981272 C4.16248424,8.35194745 3.58124212,8.90148029 3.57330835,8.90676947 C3.48877178,8.98602976 3.44120787,9.09434183 3.44120787,9.21060058 C3.43856328,9.32683352 3.48083801,9.4351714 3.56274289,9.51970796 C3.64200318,9.60425743 3.75031525,9.65180845 3.866574,9.65180845 C3.98281984,9.65445304 4.09114482,9.6121783 4.17569429,9.53028632 C4.18098346,9.52499714 4.63540138,9.09963101 5.42271509,8.89619111 C6.43724421,8.63727933 7.53896738,8.88298106 8.60898128,9.60953371 C9.54160552,10.243616 10.505939,10.5659464 11.4782063,10.5738672 L11.507271,10.5738672 C13.1823025,10.5738672 14.302512,9.62274376 14.3130775,9.6121783 C14.4927419,9.45630231 14.5112282,9.18153589 14.3553522,9.0018715 C14.1941871,8.82750918 13.9194206,8.80636536 13.7397691,8.96224135 L13.7397691,8.96224135 Z M4.68824157,12.1273637 C4.87845853,12.0269725 5.11888398,11.9239367 5.40158417,11.8526102 C6.10963759,11.6703012 7.24041256,11.6438811 8.59048206,12.5632953 C9.51255374,13.1921013 10.4715981,13.5144317 11.433287,13.5276417 L11.4887718,13.5276417 C13.1479487,13.5276417 14.2470273,12.605583 14.2945912,12.5659528 C14.4742427,12.4100639 14.4927419,12.1352975 14.336853,11.9556331 C14.180977,11.7759816 13.9062106,11.7548507 13.7265591,11.9107396 C13.6446413,11.9820661 11.6895671,13.6174675 9.07925384,11.8446893 C7.01585464,10.4417667 5.32232388,10.8512782 4.3764767,11.3189191 L4.33421486,10.4523451 L3,12.6795541 L5.60765576,12.7720244 L4.68824157,12.1273766 L4.68824157,12.1273637 Z M13.2430636,6.37044022 C12.4874463,6.76937336 10.9603699,7.23172504 9.10567393,5.97149419 C8.38176588,5.47743323 7.63935859,5.17095753 6.90752966,5.05735628 C6.31836668,4.96753053 5.73183538,4.99922691 5.16380331,5.1551158 C4.18361515,5.42460594 3.59180758,5.97677047 3.5865184,5.98205965 C3.41478777,6.14586941 3.40951149,6.42063583 3.57330835,6.59236645 C3.73710521,6.76409708 4.01188453,6.77201795 4.18625974,6.60822109 C4.23645535,6.56330177 4.68824157,6.15115859 5.45442437,5.96092873 C6.47159807,5.70729323 7.53632279,5.95035037 8.61954674,6.68483679 C9.54953929,7.3189191 10.5165174,7.64123654 11.4887718,7.64917031 L11.5178365,7.64917031 C12.4029097,7.64917031 13.1268178,7.38761393 13.6182341,7.13662302 L13.6657851,8.08510189 L15,5.86052463 L12.3923442,5.76805429 L13.2430636,6.37044022 Z" id="形状" fill="#FFFFFF" fill-rule="nonzero"></path>
                <path d="M15.8166667,1 C16.5876995,1 17.2213326,1.58827822 17.2932097,2.34047843 L17.3,2.48333333 L17.3,15.8166667 C17.3,16.5876995 16.7117218,17.2213326 15.9595216,17.2932097 L15.8166667,17.3 L2.48333333,17.3 C1.71230051,17.3 1.07866742,16.7117218 1.00679028,15.9595216 L1,15.8166667 L1,2.48333333 C1,1.71230051 1.58827822,1.07866742 2.34047843,1.00679028 L2.48333333,1 L15.8166667,1 Z M15.8166667,2.3 L2.48333333,2.3 C2.40233157,2.3 2.33359929,2.35253192 2.30934646,2.42538582 L2.3,2.48333333 L2.3,15.8166667 C2.3,15.8976684 2.35253192,15.9664007 2.42538582,15.9906535 L2.48333333,16 L15.8166667,16 C15.8976684,16 15.9664007,15.9474681 15.9906535,15.8746142 L16,15.8166667 L16,2.48333333 C16,2.38208113 15.9179189,2.3 15.8166667,2.3 Z" id="矩形" fill="#FFFFFF" fill-rule="nonzero"></path>
                <rect id="矩形" x="0" y="0" width="18" height="18"></rect>
            </g>
        </g>
    </g>
</svg>