<?xml version="1.0" encoding="UTF-8"?>
<svg width="18px" height="18px" viewBox="0 0 18 18" version="1.1" xmlns="http://www.w3.org/2000/svg" xmlns:xlink="http://www.w3.org/1999/xlink">
    <title>designEnterpriseSettting</title>
    <g id="页面-1" stroke="none" stroke-width="1" fill="none" fill-rule="evenodd">
        <g id="画板" transform="translate(-2240.000000, -143.000000)">
            <g id="designEnterpriseSettting" transform="translate(2240.000000, 143.000000)">
                <path d="M10.6738188,2.09996052 L7.29453758,2.09996052 C6.84521988,2.09713156 6.41332473,2.27359693 6.09460069,2.59027787 C5.81571625,2.86737458 5.64363529,3.23180467 5.60497261,3.61959662 L5.59664896,3.78703699 L5.59600131,15.4309656 L5.49601515,15.53096 L2.80142429,15.5313005 C2.65322673,15.5351017 2.50977772,15.4788767 2.40363335,15.375386 C2.31871785,15.2925933 2.26343843,15.1851677 2.24474823,15.0696239 L2.23769971,14.9817019 L2.23769971,10.4969163 C2.23769971,10.217988 2.44120419,9.98659067 2.70783704,9.94310049 L2.79886019,9.93575584 L3.95176137,9.93575584 C4.26583615,9.93575584 4.52044406,9.68114793 4.52044406,9.36707316 C4.52044406,9.08440586 4.31421165,8.84990672 4.04400466,8.80583356 L3.95176137,8.79839047 L2.79884169,8.79839046 C2.3426477,8.7983061 1.90559617,8.98173428 1.58610496,9.30736956 C1.30655015,9.59230043 1.13756717,9.96514842 1.10557906,10.3607545 L1.10033435,10.5315034 L1.10033435,14.9701729 C1.10033435,15.8588708 1.78284882,16.5881589 2.65230488,16.6624643 L2.79886019,16.668699 L15.1349357,16.668699 C16.0077669,16.6689858 16.7300491,16.0099992 16.8237194,15.1596972 L16.8334308,15.016289 L16.8334308,7.15414391 C16.8277598,6.26948349 16.1465236,5.54635509 15.280812,5.4726869 L15.1349029,5.46650605 L13.9820017,5.46650605 C13.6679269,5.46650605 13.413319,5.72111396 13.413319,6.03518874 C13.413319,6.31785604 13.6195514,6.55235518 13.8897584,6.59642833 L13.9820017,6.60387143 L15.1373724,6.60390192 C15.4032025,6.61046861 15.6229101,6.80136912 15.673662,7.05548343 L15.6845343,7.15350288 L15.6845343,14.9817019 C15.6845343,15.2548997 15.4852108,15.481543 15.2240458,15.5241396 L15.1348889,15.5313334 L12.4599874,15.53096 L12.3600013,15.4309582 L12.3602119,3.7863879 C12.363096,3.33823661 12.1863562,2.90760961 11.8694766,2.59073008 C11.592207,2.31346049 11.2278495,2.14348539 10.8408662,2.10725603 L10.6738188,2.09996052 Z M10.6756448,3.23739996 C10.9414749,3.24399715 11.1611825,3.43489767 11.2119345,3.68901683 L11.2228067,3.78703834 L11.2220013,15.430967 L11.1220013,15.53096 L6.84500131,15.53096 L6.74500131,15.4309554 L6.74554334,3.78703142 C6.74554334,3.6412601 6.80345078,3.50145918 6.90652667,3.39838329 C6.98898739,3.31592257 7.09495212,3.26236967 7.2086745,3.24424694 L7.29517481,3.23739996 L10.6756448,3.23739996 Z" id="形状结合" fill="#FFFFFF" fill-rule="nonzero"></path>
                <rect id="矩形" x="0" y="0" width="18" height="18"></rect>
            </g>
        </g>
    </g>
</svg>