<?xml version="1.0" encoding="UTF-8"?>
<svg width="18px" height="18px" viewBox="0 0 18 18" version="1.1" xmlns="http://www.w3.org/2000/svg" xmlns:xlink="http://www.w3.org/1999/xlink">
    <title>designDataInput</title>
    <g id="页面-1" stroke="none" stroke-width="1" fill="none" fill-rule="evenodd">
        <g id="画板" transform="translate(-2240.000000, -216.000000)">
            <g id="designDataInput" transform="translate(2240.000000, 216.000000)">
                <path d="M12.3195165,1 C15.4565595,1 18,3.54353297 18,6.68077213 C18,9.52018538 15.907759,11.9021116 13.1401023,12.301856 L13.0927826,12.3076005 L13.0935448,16.2061882 C13.0935448,16.5980485 12.8023514,16.921897 12.4245476,16.9731505 L12.3195165,16.9802164 C11.9276562,16.9802164 11.6038077,16.689023 11.5525542,16.3112192 L11.5454883,16.2061882 L11.5448223,12.3076005 L11.4989308,12.301856 C8.80607558,11.9129155 6.75262054,9.64749022 6.64359,6.9099622 L6.63903307,6.68077213 C6.63903307,3.54353298 9.18247356,1 12.3195165,1 Z M8.85572887,12.5459589 C9.28291374,12.5459589 9.62975712,12.8925629 9.62975712,13.3196985 C9.62975712,13.7112394 9.33831232,14.0351115 8.96069708,14.0863711 L8.85572887,14.0934381 L0.773882644,14.0934381 C0.497418043,14.0934892 0.24193235,13.9460264 0.103685294,13.7066096 C-0.0345617646,13.4671927 -0.0345617646,13.1722042 0.103685294,12.9327874 C0.224651468,12.7232976 0.435378473,12.5842102 0.671379812,12.5527459 L0.773882644,12.5459589 L8.85572887,12.5459589 Z M12.3195165,2.54747921 L12.1132215,2.55253736 C9.92628532,2.66002356 8.18622363,4.46708651 8.18622363,6.68077213 C8.18622363,8.96344847 10.0368402,10.814065 12.3195165,10.814065 C14.6021929,10.814065 16.4528094,8.96344846 16.4528094,6.68077213 C16.4528094,4.46708653 14.7127477,2.66002356 12.5258115,2.55253736 L12.3195165,2.54747921 Z M3.66004739,7.63892634 C3.93647793,7.63892634 4.19191029,7.78640027 4.33012556,8.02579614 C4.46834083,8.26519201 4.46834083,8.56013989 4.33012556,8.79953576 C4.2091872,9.00900714 3.9985045,9.14810079 3.76253662,9.17960121 L3.66004739,9.18640555 L0.773846336,9.18640555 C0.497415791,9.18640555 0.241983434,9.03893163 0.103768162,8.79953576 C-0.0344471139,8.56013989 -0.0344471139,8.26519201 0.103768162,8.02579614 C0.224706525,7.81632475 0.435389219,7.6772311 0.671357099,7.64573068 L0.773846336,7.63892634 L3.66004739,7.63892634 Z M5.39190491,2.44324485 C5.66836951,2.44319377 5.92385521,2.59065652 6.06210226,2.83007337 C6.20034932,3.06949023 6.20034932,3.36447871 6.06210226,3.60389557 C5.94113609,3.81338531 5.73040908,3.9524727 5.49440774,3.98393704 L5.39190491,3.99072409 L0.773882644,3.99072409 C0.497418043,3.99077517 0.24193235,3.84331242 0.103685294,3.60389557 C-0.0345617646,3.36447871 -0.0345617646,3.06949023 0.103685294,2.83007337 C0.224651468,2.62058363 0.435378473,2.48149624 0.671355488,2.4500319 L0.773846336,2.44324485 L5.39190491,2.44324485 Z" id="形状" fill="#FFFFFF" fill-rule="nonzero"></path>
                <rect id="矩形" x="0" y="0" width="18" height="18"></rect>
            </g>
        </g>
    </g>
</svg>