<?xml version="1.0" encoding="UTF-8"?>
<svg width="18px" height="18px" viewBox="0 0 18 18" version="1.1" xmlns="http://www.w3.org/2000/svg" xmlns:xlink="http://www.w3.org/1999/xlink">
    <title>device</title>
    <g id="页面-1" stroke="none" stroke-width="1" fill="none" fill-rule="evenodd">
        <g id="画板" transform="translate(-1106.000000, -249.000000)">
            <g id="device" transform="translate(1106.000000, 249.000000)">
                <path d="M14.8961379,9.97431458 L2.72739156,9.97431458 C1.97626422,9.97431458 1.35898943,10.5474054 1.28896792,11.2801863 L1.28235294,11.4193532 L1.28235294,14.8961379 C1.28235294,15.6472652 1.85544378,16.26454 2.58822469,16.3345615 L2.72739156,16.3411765 L14.8961379,16.3411765 C15.6472652,16.3411765 16.26454,15.7680856 16.3345615,15.0353047 L16.3411765,14.8961379 L16.3411765,11.4193532 C16.3411765,11.0361051 16.1889318,10.6685539 15.9179345,10.3975566 C15.6808118,10.1604339 15.3697651,10.0142313 15.0389622,9.98138564 L14.8961379,9.97431458 Z M15.1894916,11.1259995 L15.1894916,15.1894916 L2.43403785,15.1894916 L2.43403785,11.1259995 L15.1894916,11.1259995 Z M12.8639572,12.5813598 L9.97344538,12.5813598 L9.97344538,13.733262 L12.8639572,13.733262 L12.8639572,12.5813598 Z M14.8961379,1.28235294 L2.72739156,1.28235294 C1.97626422,1.28235294 1.35898943,1.85544378 1.28896792,2.58822469 L1.28235294,2.72739156 L1.28235294,6.20417622 C1.28235294,6.95530355 1.85544378,7.57257834 2.58822469,7.64259985 L2.72739156,7.64921483 L14.8961379,7.64921483 C15.6472652,7.64921483 16.26454,7.076124 16.3345615,6.34334308 L16.3411765,6.20417622 L16.3411765,2.72739156 C16.3411765,1.97626422 15.7680856,1.35898943 15.0353047,1.28896792 L14.8961379,1.28235294 Z M15.1894916,2.43403785 L15.1894916,6.49752992 L2.43403785,6.49752992 L2.43403785,2.43403785 L15.1894916,2.43403785 Z M12.8639572,3.88928953 L9.97344538,3.88928953 L9.97344538,5.04119175 L12.8639572,5.04119175 L12.8639572,3.88928953 Z" id="形状" fill="#FFFFFF" fill-rule="nonzero"></path>
                <rect id="矩形" x="0" y="0" width="18" height="18"></rect>
            </g>
        </g>
    </g>
</svg>