<?xml version="1.0" encoding="UTF-8"?>
<svg width="18px" height="18px" viewBox="0 0 18 18" version="1.1" xmlns="http://www.w3.org/2000/svg" xmlns:xlink="http://www.w3.org/1999/xlink">
    <title>runtimeCabinets</title>
    <g id="页面-1" stroke="none" stroke-width="1" fill="none" fill-rule="evenodd">
        <g id="画板" transform="translate(-3855.000000, -122.000000)">
            <g id="runtimeCabinets" transform="translate(3855.000000, 122.000000)">
                <path d="M15.8021587,9.25015296 C16.0715413,9.25038167 16.3201353,9.3949777 16.4535189,9.62902017 L16.4535189,9.62902017 L17.8990431,12.1499444 C18.0336523,12.3845878 18.0336523,12.6730354 17.8990431,12.9076788 L17.8990431,12.9076788 L16.4535189,15.4286031 C16.3194582,15.6632093 16.0710087,15.8074703 15.8021587,15.8074703 L15.8021587,15.8074703 L12.9111103,15.8074703 C12.6422603,15.8074703 12.3945395,15.6632093 12.2597502,15.4286031 L12.2597502,15.4286031 L10.814226,12.9076788 C10.6796167,12.6730354 10.6796167,12.3845878 10.814226,12.1499444 L10.814226,12.1499444 L12.2597502,9.62902017 C12.3938109,9.39441394 12.6422603,9.25015296 12.9111103,9.25015296 L12.9111103,9.25015296 Z M15.0839633,3 C15.5911223,3 16.0151754,3.36474248 16.0597693,3.84235396 L16.0631894,3.95446094 L16.0627074,8.11754416 L15.0815319,8.11754416 L15.0819553,5.96913655 L11.1436326,7.87805843 L11.5176024,8.67121489 L10.887815,9.69618349 L10.2413445,8.33129651 L6.02930163,10.3626019 L7.92751426,14.3752199 L10.4175598,14.3747533 L10.8627903,15.3152637 L0.996628558,15.315625 C0.488848085,15.315625 0.0647506011,14.9630021 0.00675596299,14.4881938 L6.32383035e-13,14.3765586 L6.32383035e-13,3.95446094 C6.32383035e-13,3.46221842 0.388404564,3.0611615 0.894047789,3.0063791 L1.01269242,3 L15.0839633,3 Z M15.6025248,10.3430392 L13.1107442,10.3430392 L11.857568,12.5288116 L13.1107442,14.7145841 L15.6025248,14.7145841 L16.855701,12.5288116 L15.6025248,10.3430392 Z M5.14512006,10.7862862 L1.01269242,12.7855673 L1.01269242,14.3611641 L6.83316388,14.3611641 L5.14512006,10.7862862 Z M14.3566345,11.4359254 C14.9602189,11.4359254 15.4495207,11.9252272 15.4495207,12.5288116 C15.4495207,13.132396 14.9602189,13.6216978 14.3566345,13.6216978 C13.7530501,13.6216978 13.2637483,13.132396 13.2637483,12.5288116 C13.2637483,11.9252272 13.7530501,11.4359254 14.3566345,11.4359254 Z M1.91293783,3.95446094 L1.01269242,3.95446094 L1.01269242,11.7253526 L4.72745974,9.92285377 L1.91293783,3.95446094 Z M8.16780281,3.95446094 L3.00728821,3.95446094 L5.62770515,9.49850017 L9.82438825,7.45370482 L8.16780281,3.95446094 Z M15.0980192,3.95446094 L9.29361157,3.95446094 L10.7406975,7.02935123 L15.0819553,4.92431641 L15.0980192,4.92431641 L15.0980192,3.95446094 Z" id="形状结合" fill="#FFFFFF" fill-rule="nonzero"></path>
                <rect id="矩形" x="0" y="0" width="18" height="18"></rect>
            </g>
        </g>
    </g>
</svg>