<?xml version="1.0" encoding="UTF-8"?>
<svg width="18px" height="18px" viewBox="0 0 18 18" version="1.1" xmlns="http://www.w3.org/2000/svg" xmlns:xlink="http://www.w3.org/1999/xlink">
    <title>driver</title>
    <g id="页面-1" stroke="none" stroke-width="1" fill="none" fill-rule="evenodd">
        <g id="画板" transform="translate(-132.000000, -267.000000)">
            <g id="driver" transform="translate(132.000000, 267.000000)">
                <path d="M11.5244361,14.0338346 L11.5244361,16.5432331 L16.0357143,16.5432331 L16.0357143,17.5582707 L1.9943609,17.5582707 L1.9943609,16.5432331 L6.5056391,16.5432331 L6.5056391,14.0338346 L11.5244361,14.0338346 Z M16.1484962,0.5 C16.8815789,0.5 17.5582707,1.09210526 17.5018797,1.90977444 L17.5018797,1.90977444 L17.5018797,11.1860902 C17.5018797,12.0037594 16.8815789,12.5958647 16.0921053,12.5958647 L16.0921053,12.5958647 L1.90977444,12.5958647 C1.14849624,12.5958647 0.5,11.9473684 0.5,11.1860902 L0.5,11.1860902 L0.5,1.90977444 C0.5,1.09210526 1.14849624,0.5 1.90977444,0.5 L1.90977444,0.5 Z M16.0921053,1.45864662 L1.90977444,1.45864662 C1.65601504,1.45864662 1.45864662,1.65601504 1.45864662,1.90977444 L1.45864662,1.90977444 L1.45864662,11.1296992 C1.45864662,11.3834586 1.65601504,11.5808271 1.90977444,11.5808271 L1.90977444,11.5808271 L16.1484962,11.5808271 C16.4022556,11.5808271 16.5996241,11.3834586 16.5996241,11.1296992 L16.5996241,11.1296992 L16.5432331,11.1296992 L16.5432331,1.90977444 C16.5432331,1.65601504 16.3458647,1.45864662 16.0921053,1.45864662 L16.0921053,1.45864662 Z M5.37781955,2.5018797 L7.32330827,4.44736842 C7.77443609,3.9962406 8.36654135,3.7424812 9.01503759,3.7424812 L9.01503759,3.7424812 L9.01503759,4.7575188 C8.16917293,4.7575188 7.52067669,5.40601504 7.52067669,6.2518797 C7.52067669,7.09774436 8.16917293,7.7462406 9.01503759,7.7462406 C9.86090226,7.7462406 10.5093985,7.09774436 10.5093985,6.2518797 L10.5093985,6.2518797 L11.5244361,6.2518797 C11.5244361,6.90037594 11.2706767,7.46428571 10.8759398,7.91541353 L10.8759398,7.91541353 L12.5958647,9.52255639 L15.2462406,9.52255639 L15.2462406,10.537594 L12.1447368,10.537594 L10.1428571,8.53571429 C9.86090226,8.67669173 9.4943609,8.78947368 9.09962406,8.78947368 C7.68984962,8.78947368 6.59022556,7.68984962 6.59022556,6.28007519 C6.59022556,5.96992481 6.64661654,5.63157895 6.78759398,5.32142857 L6.78759398,5.32142857 L4.98308271,3.51691729 L2.67105263,3.51691729 L2.67105263,2.5018797 L5.37781955,2.5018797 Z M5.68796992,9.52255639 L5.68796992,10.537594 L2.67105263,10.537594 L2.67105263,9.52255639 L5.68796992,9.52255639 Z M5.18045113,5.9981203 L5.18045113,7.01315789 L2.67105263,7.01315789 L2.67105263,5.9981203 L5.18045113,5.9981203 Z M15.1898496,2.47368421 L15.1898496,3.4887218 L12.1447368,3.4887218 L11.3834586,4.25 C11.4398496,4.36278195 11.4398496,4.39097744 11.4398496,4.5037594 C11.4398496,5.06766917 10.9887218,5.51879699 10.424812,5.51879699 C9.86090226,5.51879699 9.40977444,5.06766917 9.40977444,4.5037594 C9.40977444,3.93984962 9.86090226,3.4887218 10.424812,3.4887218 C10.481203,3.4887218 10.5657895,3.4887218 10.6785714,3.54511278 L10.6785714,3.54511278 L11.7218045,2.47368421 L15.1898496,2.47368421 Z" id="形状结合" fill="#FFFFFF" fill-rule="nonzero"></path>
                <rect id="矩形" x="0" y="0" width="18" height="18"></rect>
            </g>
        </g>
    </g>
</svg>