<?xml version="1.0" encoding="UTF-8"?>
<svg width="18px" height="18px" viewBox="0 0 18 18" version="1.1" xmlns="http://www.w3.org/2000/svg" xmlns:xlink="http://www.w3.org/1999/xlink">
    <title>KPI分析</title>
    <g id="页面-1" stroke="none" stroke-width="1" fill="none" fill-rule="evenodd">
        <g id="图标组1" transform="translate(-3966.000000, -152.000000)">
            <g id="KPI分析" transform="translate(3966.000000, 152.000000)">
                <path d="M15.8928571,1 C16.5040297,1.00068887 16.9993111,1.49597031 17,2.10714286 L17,15.8928571 C16.9993111,16.5040297 16.5040297,16.9993111 15.8928571,17 L2.10714286,17 C1.49597031,16.9993111 1.00068887,16.5040297 1,15.8928571 L1,2.10714286 C1.00068887,1.49597031 1.49597031,1.00068887 2.10714286,1 L15.8928571,1 Z M15.8571429,2.14285714 L2.14285714,2.14285714 L2.14285714,15.8571429 L15.8571429,15.8571429 L15.8571429,2.14285714 Z M13.7536302,9.75981591 C13.9674598,9.98115172 13.9675917,10.3320749 13.7539286,10.5535714 L10.2003571,13.9821429 C10.0901553,14.0884738 9.9418859,14.146123 9.78880082,14.1421616 C9.63571574,14.1382002 9.49062642,14.0729597 9.38607143,13.9610714 L7.4575,11.8978571 L5.01607143,14.0041071 C4.91244871,14.0938156 4.77991632,14.1430872 4.64285714,14.1428579 C4.40403476,14.1429144 4.19036557,13.9944442 4.10712488,13.770598 C4.02388419,13.5467518 4.08863095,13.2947482 4.26946429,13.13875 L7.12660714,10.6744643 C7.35886677,10.4741147 7.70787499,10.4928735 7.91732143,10.7169643 L9.82464286,12.7571429 L12.9603571,9.73214286 C13.1890907,9.52624571 13.5398005,9.53848011 13.7536302,9.75981591 Z M7.56303571,3.65178571 C7.87910714,3.70761905 8.05583333,3.88434524 8.09321429,4.18196429 C8.09321429,4.34934524 7.97232143,4.53535714 7.73053571,4.74 L6.39125,6.07928571 L8.03732143,7.78125 C8.03863564,7.80292943 8.04876627,7.82312617 8.06535714,7.83714286 C8.25107143,8.04202381 8.34404762,8.20940476 8.34428571,8.33928571 C8.32559524,8.63690476 8.13958333,8.78571429 7.78625,8.78571429 C7.60017857,8.78571429 7.41416667,8.6927381 7.22821429,8.50678571 L5.38678571,6.49785714 L5.38678571,8.31142857 C5.34928571,8.62761905 5.1727381,8.78571429 4.85714286,8.78571429 C4.50321429,8.78571429 4.32630952,8.62761905 4.32642851,8.31142857 L4.32642851,4.18196429 C4.3447619,3.86589286 4.5214881,3.68916667 4.85660714,3.65178571 C5.1914881,3.67059524 5.36821429,3.84732143 5.38678571,4.18196429 L5.38678571,5.71660714 L7.14446429,3.84714286 C7.25693665,3.73520354 7.40499913,3.6660993 7.56303571,3.65178571 Z M10.4921429,3.70767857 C11.6265476,3.78220238 12.231131,4.34952381 12.3058929,5.40964286 C12.23125,6.46988095 11.6360119,7.03720238 10.5201786,7.11160714 L9.73946429,7.11160714 L9.73946429,8.28357143 C9.72077381,8.61833333 9.54404762,8.78571429 9.20928571,8.78571429 C8.85547619,8.78571429 8.67857143,8.61833333 8.67857143,8.28357143 L8.67857143,4.26571429 C8.67857143,3.9125 8.85529762,3.7264881 9.20875,3.70767857 L10.4921429,3.70767857 Z M13.17125,3.65178571 C13.506131,3.67059524 13.6828571,3.85660714 13.7014286,4.20982143 L13.7014286,8.28357143 C13.6827381,8.61833333 13.5060119,8.78571429 13.17125,8.78571429 C12.8176786,8.78571429 12.6410119,8.61833333 12.6412498,8.28357143 L12.6412498,4.20982143 C12.6412498,3.85660714 12.8179167,3.67059524 13.17125,3.65178571 Z M10.4642857,4.65625 L9.73892857,4.65625 L9.73892857,6.16303571 L10.4642857,6.16303571 C10.9107143,6.14470238 11.1525595,5.89357143 11.1898214,5.40964286 C11.1523214,4.94535714 10.9104762,4.69422619 10.4642857,4.65625 Z" id="形状结合" fill="#FFFFFF" fill-rule="nonzero"></path>
                <rect id="矩形" x="0" y="0" width="18" height="18"></rect>
            </g>
        </g>
    </g>
</svg>