<?xml version="1.0" encoding="UTF-8"?>
<svg width="18px" height="18px" viewBox="0 0 18 18" version="1.1" xmlns="http://www.w3.org/2000/svg" xmlns:xlink="http://www.w3.org/1999/xlink">
    <title>energyRank</title>
    <g id="页面-1" stroke="none" stroke-width="1" fill="none" fill-rule="evenodd">
        <g id="画板" transform="translate(-1530.000000, -428.000000)">
            <g id="energyRank" transform="translate(1530.000000, 428.000000)">
                <path d="M2.49063402,1.14966308 C2.59414549,1.11257952 2.70564372,1.1067784 2.81146362,1.13201656 L2.88955034,1.15676125 L2.94512386,1.18309787 L3.00146973,1.21841569 L3.07372913,1.27811412 L4.38535794,2.58974843 C4.45081042,2.65399377 4.49868845,2.73395502 4.52391156,2.82032592 C4.55418308,2.91695096 4.55666365,3.02014275 4.53115464,3.11778357 C4.4655928,3.37265057 4.2307709,3.54698805 3.9683354,3.5360247 C3.89448229,3.53335084 3.82200879,3.51523246 3.75713055,3.48357256 C3.7186335,3.46569468 3.68247582,3.44332127 3.64951003,3.41708782 L3.60256183,3.37492206 L3.2346,3.0072 L3.2346,15.0186 L3.62040425,14.6345454 L3.66607437,14.5982323 L3.71863415,14.5632324 L3.80015469,14.5258207 C3.8316694,14.5133754 3.86445708,14.5044333 3.89436189,14.4997914 C3.92699207,14.4932912 3.96022612,14.490315 3.99397495,14.4909241 C4.04053388,14.4920125 4.08684628,14.4980332 4.13551163,14.5097634 L4.21398126,14.5376461 L4.28986222,14.5767693 L4.31474567,14.5934406 L4.38516038,14.6512782 C4.420245,14.6855049 4.45012319,14.7246894 4.47351183,14.7669901 C4.51666791,14.8436628 4.54178603,14.929161 4.54695996,15.0170109 C4.55076568,15.0818561 4.54245911,15.1468428 4.52312341,15.2065223 C4.512354,15.2428526 4.49782846,15.2779063 4.47831064,15.3131093 L4.44513517,15.3662039 L4.38595299,15.4366452 L3.06708092,16.7548856 L2.99741693,16.8116953 C2.96806624,16.8330432 2.93632687,16.8508966 2.90576976,16.8636083 C2.86037439,16.8845087 2.8120403,16.8983184 2.7665599,16.9039426 C2.69652009,16.9160548 2.62473518,16.9135964 2.55681224,16.896988 L2.45948273,16.8646619 L2.41069881,16.8404894 L2.36140445,16.8085675 L2.28914505,16.748869 L0.978256767,15.4379533 C0.958118455,15.4186347 0.939914136,15.3973963 0.925981635,15.3773875 C0.820751321,15.239037 0.7873863,15.0589718 0.835651371,14.8935542 C0.846237927,14.8548619 0.861293061,14.8176071 0.879787119,14.7835348 L0.925590763,14.7123546 L0.947572796,14.6853002 C1.02032216,14.6015756 1.11563229,14.5415432 1.22015037,14.511928 L1.30005677,14.4955249 L1.32925004,14.4920925 L1.41664485,14.4925102 C1.4761411,14.4982627 1.53442988,14.5129533 1.59015383,14.5363448 L1.64000106,14.5608971 L1.6914909,14.5934406 L1.7626982,14.6520611 L2.1285,15.0177 L2.1285,2.9973 L1.69905859,3.40008952 L1.76193222,3.37329929 C1.65834507,3.47829052 1.51674256,3.5369912 1.37083524,3.53607779 C1.29677135,3.53692181 1.22335232,3.522238 1.15687624,3.49362888 C1.00304823,3.43087831 0.885985113,3.30174142 0.83874624,3.14304049 C0.787626925,2.97508556 0.819321764,2.79469957 0.920565182,2.65522569 L0.976921191,2.58914505 L2.28875277,1.27731591 C2.34563664,1.21972418 2.4149787,1.17595507 2.49063402,1.14966308 Z M12.4239836,12.6335063 C12.6151224,12.6345213 12.8051476,12.6626888 12.9892331,12.7174293 C13.3252088,12.8210391 13.6273353,13.0126736 13.8641585,13.2723356 C14.0806093,13.5088702 14.2342542,13.7959321 14.3111034,14.1075665 C14.3409511,14.2306378 14.3597133,14.3561357 14.3672372,14.4839734 C14.3754766,14.6750367 14.3565602,14.8663025 14.3108609,15.0528226 C14.2161602,15.4250921 14.0145042,15.7614751 13.7302,16.0209723 C13.587853,16.1486014 13.4281092,16.2553776 13.2547808,16.338563 C13.0816206,16.4191535 12.8978608,16.4746599 12.7090389,16.5034091 L12.5666489,16.5195391 L12.4235063,16.524742 L6.85658928,16.5247407 C6.66499998,16.5257858 6.47440213,16.4974634 6.29218484,16.4409798 C6.0164554,16.35812 5.76284338,16.2144208 5.5503851,16.0207812 C4.88713868,15.4223011 4.71826386,14.4483013 5.14138175,13.6613635 C5.27775608,13.4085779 5.46753667,13.1885177 5.69802901,13.0161084 C5.90327457,12.8647544 6.1358005,12.7544319 6.38277182,12.6912129 C6.48601787,12.6646829 6.59127909,12.6472181 6.69710864,12.6389632 L6.85609835,12.6335063 L12.4239836,12.6335063 Z M12.423878,13.7415977 L6.85823113,13.7415732 C6.81727802,13.742544 6.77641872,13.7455174 6.73905497,13.750026 C6.67342621,13.7604962 6.60904822,13.777688 6.54706789,13.8012803 C6.48611456,13.8245904 6.42845939,13.8557457 6.37573996,13.893828 C6.31090201,13.9409096 6.25238714,13.996133 6.20186574,14.0578564 C6.14388396,14.1292857 6.09898158,14.2103997 6.06895784,14.2982409 C5.96099276,14.6048849 6.03900292,14.9462842 6.2708741,15.1770675 C6.3064417,15.2141149 6.34623193,15.2468627 6.3907603,15.2755121 C6.47331869,15.3306866 6.56477717,15.3706479 6.65839344,15.3935869 L6.75247925,15.4107847 L6.85609835,15.4166161 L12.4228713,15.4166161 C12.5334071,15.4158361 12.6428002,15.3941777 12.7436574,15.3534606 C12.8323547,15.3155876 12.9143405,15.2636144 12.9870825,15.1989877 C13.0382221,15.1544158 13.0829061,15.1029399 13.1208652,15.0445094 C13.1668968,14.9766894 13.2018937,14.9020053 13.2250315,14.8216327 C13.2945343,14.5958937 13.2643908,14.3512223 13.1414523,14.1478848 C13.1001115,14.0770195 13.0477954,14.0131577 12.985578,13.9578913 C12.8320793,13.8179351 12.6316069,13.7407398 12.423878,13.7415977 Z M14.2800536,7.06609835 C14.7296177,7.06783259 15.1649113,7.22411445 15.5132277,7.50898623 C15.7846186,7.73299499 15.9909698,8.02568559 16.1108038,8.35662569 C16.2416359,8.71880635 16.2612431,9.11182292 16.167088,9.48530891 C15.9910872,10.1806981 15.448106,10.7236792 14.752735,10.8996755 C14.6496417,10.9257909 14.5446464,10.9432785 14.4388542,10.9520034 L14.2797066,10.9585043 L6.85625218,10.9585043 C6.47111004,10.9591598 6.09458392,10.8445452 5.77556866,10.6296996 C5.42793119,10.3985141 5.16453936,10.0609336 5.02477702,9.66734385 C4.95056022,9.45702873 4.91213091,9.23575349 4.91107787,9.01253802 C4.91006068,8.62752511 5.02423704,8.25101048 5.2389598,7.93137659 C5.43535506,7.63938668 5.70646052,7.40540713 6.02449979,7.25359387 C6.2325837,7.15574112 6.45576512,7.09521614 6.68406738,7.07431185 L6.85609835,7.06609835 L14.2800536,7.06609835 Z M14.2776,8.1741 L6.85706722,8.17419328 C6.72445572,8.17562096 6.593935,8.20741921 6.47654618,8.26662412 C6.39400365,8.30958649 6.31867321,8.36517011 6.25469162,8.42990113 C6.17253763,8.51691703 6.10923894,8.61996141 6.06901389,8.73186623 C6.01644999,8.88205988 6.00673088,9.04392031 6.04063349,9.19796123 C6.07121531,9.32726577 6.13111668,9.44780803 6.21496488,9.54938385 C6.3180483,9.6710212 6.45301433,9.76149704 6.60453167,9.8105901 L6.67985325,9.83092461 L6.75347476,9.84343699 L6.85609835,9.85042722 L14.2802071,9.85042722 C14.4174915,9.85117815 14.5527288,9.81718072 14.6742168,9.75110429 C14.8329797,9.66707245 14.9598723,9.53338211 15.0354086,9.3706778 C15.0643175,9.30795846 15.0862227,9.24224278 15.1001608,9.17758388 C15.110126,9.12256516 15.1156491,9.06673468 15.1167224,9.01131429 C15.1172728,8.95691722 15.1119083,8.90269032 15.1005522,8.84904131 C15.053091,8.61744341 14.911195,8.41613094 14.7097671,8.29401832 C14.611838,8.23592359 14.5035547,8.19835463 14.391485,8.18311756 L14.2776,8.1741 Z M15.2067622,1.49988232 C16.0279887,1.50123634 16.7604458,2.01670644 17.0389382,2.78931279 C17.1693562,3.15161942 17.1885276,3.54463408 17.0940174,3.91781326 C16.8881286,4.73474205 16.183435,5.32131779 15.3541714,5.38529119 L15.2066138,5.39110135 L6.85631129,5.39110135 C6.43885055,5.39208367 6.03231561,5.25774133 5.69813032,5.0085635 C5.38772292,4.7803294 5.1528026,4.46434195 5.02361805,4.10122485 C4.91680691,3.79963195 4.88505772,3.47656255 4.93121908,3.15925211 C4.97481407,2.87514554 5.07971809,2.60393027 5.23896078,2.36396717 C5.41738311,2.0987097 5.65760502,1.88079411 5.93929511,1.728795 C6.17440291,1.60328231 6.43230381,1.52775887 6.69676457,1.50626371 L6.85609835,1.49988232 L15.2067622,1.49988232 Z M15.206886,2.60797493 L6.85587899,2.60797493 C6.62164892,2.60740802 6.39796142,2.70529603 6.23944691,2.87773688 C6.08093176,3.05017843 6.00218279,3.28129846 6.0223819,3.51408279 C6.03222627,3.61975251 6.06118428,3.72275507 6.10807494,3.81854597 C6.15384772,3.91344668 6.217971,3.99833716 6.29708945,4.06862506 C6.39995813,4.16097167 6.52359752,4.22615766 6.65381271,4.25883397 L6.75248526,4.27716206 L6.85609835,4.28300527 L15.2069689,4.28300527 C15.4291637,4.28387548 15.6423998,4.19547769 15.7997594,4.03669676 C15.8582031,3.97947057 15.9072922,3.91341686 15.9459959,3.8395224 C15.985315,3.76760459 16.0131195,3.68996864 16.0284527,3.60915115 C16.0572865,3.45984187 16.0461068,3.30556197 15.9961439,3.16224257 C15.9504739,3.03258113 15.8728561,2.91652404 15.7708791,2.82516705 C15.7188155,2.77910267 15.6618303,2.73892082 15.6021297,2.70598564 C15.4804798,2.64123003 15.3447016,2.60756197 15.206886,2.60797493 Z" id="形状" fill="#FFFFFF" fill-rule="nonzero"></path>
                <rect id="矩形" x="0" y="0" width="18" height="18"></rect>
            </g>
        </g>
    </g>
</svg>