<?xml version="1.0" encoding="UTF-8"?>
<svg width="18px" height="18px" viewBox="0 0 18 18" version="1.1" xmlns="http://www.w3.org/2000/svg" xmlns:xlink="http://www.w3.org/1999/xlink">
    <title>icon_控制</title>
    <g id="页面-1" stroke="none" stroke-width="1" fill="none" fill-rule="evenodd">
        <g id="画板" transform="translate(-1976.000000, -264.000000)">
            <g id="icon_控制" transform="translate(1976.000000, 264.000000)">
                <path d="M11.7935199,6.93884202 C10.794862,6.93884202 9.94957822,7.60870399 9.68347393,8.5226227 L1.19497699,8.5226227 C1.0883819,8.5226227 1.0021089,8.60889571 1.0021089,8.7154908 L1.0021089,9.55674847 C1.0021089,9.66334356 1.0883819,9.74961656 1.19497699,9.74961656 L9.68347393,9.74961656 C9.94957822,10.6635353 10.7946702,11.3333972 11.7935199,11.3333972 C12.7923696,11.3333972 13.6374617,10.6635353 13.903566,9.74961656 L16.7218175,9.74961656 C16.8284126,9.74961656 16.9146856,9.66334356 16.9146856,9.55674847 L16.9146856,8.7154908 C16.9146856,8.60889571 16.8284126,8.5226227 16.7218175,8.5226227 L13.903566,8.5226227 C13.6372699,7.60870399 12.7921779,6.93884202 11.7935199,6.93884202 L11.7935199,6.93884202 Z M11.7935199,10.1064034 C11.2584356,10.1064034 10.8232362,9.67120399 10.8232362,9.13611963 C10.8232362,8.60103528 11.2584356,8.16583589 11.7935199,8.16583589 C12.3286043,8.16583589 12.7638037,8.60103528 12.7638037,9.13611963 C12.7638037,9.67120399 12.3284126,10.1064034 11.7935199,10.1064034 Z M5.24290644,11.8245782 C4.24424847,11.8245782 3.39896472,12.4944402 3.13286043,13.4083589 L1.19497699,13.4083589 C1.0883819,13.4083589 1.0021089,13.4946319 1.0021089,13.601227 L1.0021089,14.4424847 C1.0021089,14.5490798 1.0883819,14.6353528 1.19497699,14.6353528 L3.13286043,14.6353528 C3.39896472,15.5492715 4.24405675,16.2191334 5.24290644,16.2191334 C6.24175613,16.2191334 7.08684816,15.5492715 7.35295245,14.6353528 L16.7218175,14.6353528 C16.8284126,14.6353528 16.9146856,14.5490798 16.9146856,14.4424847 L16.9146856,13.601227 C16.9146856,13.4946319 16.8284126,13.4083589 16.7218175,13.4083589 L7.35295245,13.4083589 C7.08665644,12.4944402 6.24156442,11.8245782 5.24290644,11.8245782 Z M5.24290644,14.9921396 C4.70782209,14.9921396 4.2726227,14.5569402 4.2726227,14.0218558 C4.2726227,13.4867715 4.70782209,13.0515721 5.24290644,13.0515721 C5.7779908,13.0515721 6.21319018,13.4867715 6.21319018,14.0218558 C6.21319018,14.5569402 5.77779908,14.9921396 5.24290644,14.9921396 Z M7.35295245,3.59528374 C7.08684816,2.68136503 6.24175613,2.01150307 5.24290644,2.01150307 C4.24405675,2.01150307 3.39896472,2.68136503 3.13286043,3.59528374 L1.19497699,3.59528374 C1.0883819,3.59528374 1.0021089,3.68155675 1.0021089,3.78815184 L1.0021089,4.62940951 C1.0021089,4.7360046 1.0883819,4.82227761 1.19497699,4.82227761 L3.13286043,4.82227761 C3.39896472,5.73619632 4.24405675,6.40605828 5.24290644,6.40605828 C6.24175613,6.40605828 7.08684816,5.73619632 7.35295245,4.82227761 L16.7218175,4.82227761 C16.8284126,4.82227761 16.9146856,4.7360046 16.9146856,4.62940951 L16.9146856,3.78815184 C16.9146856,3.68155675 16.8284126,3.59528374 16.7218175,3.59528374 L7.35295245,3.59528374 Z M5.24290644,5.17906442 C4.70782209,5.17906442 4.2726227,4.74386503 4.2726227,4.20878067 C4.2726227,3.67369632 4.70782209,3.23849693 5.24290644,3.23849693 C5.7779908,3.23849693 6.21319018,3.67369632 6.21319018,4.20878067 C6.21319018,4.74386503 5.77779908,5.17906442 5.24290644,5.17906442 Z" id="形状" fill="#FFFFFF" fill-rule="nonzero"></path>
                <rect id="矩形" x="0" y="0" width="18" height="18"></rect>
            </g>
        </g>
    </g>
</svg>