<?xml version="1.0" encoding="UTF-8"?>
<svg width="18px" height="18px" viewBox="0 0 18 18" version="1.1" xmlns="http://www.w3.org/2000/svg" xmlns:xlink="http://www.w3.org/1999/xlink">
    <title>inspectionPlan</title>
    <g id="页面-1" stroke="none" stroke-width="1" fill="none" fill-rule="evenodd">
        <g id="画板" transform="translate(-2494.000000, -252.000000)">
            <g id="inspectionPlan" transform="translate(2494.000000, 252.000000)">
                <path d="M3.04491018,12.3762475 C4.23253494,12.3762475 5.20808385,13.1821357 5.50499003,14.2849302 L5.50499003,14.2849302 L8.04990021,14.2849302 C8.21956088,14.751497 8.4740519,15.1756487 8.72854292,15.5573852 L8.72854292,15.5573852 L5.50499003,15.5573852 C5.20808383,16.6601797 4.23253492,17.4660679 3.04491018,17.4660679 C1.64520958,17.4660679 0.5,16.3208583 0.5,14.9211577 C0.5,13.5214571 1.64520958,12.3762475 3.04491018,12.3762475 Z M13.2245509,8.13473054 C15.5573852,8.13473054 17.4660679,10.0434132 17.4660679,12.3762475 C17.4660679,14.7090818 15.5573852,16.6177645 13.2245509,16.6177645 C10.8917166,16.6177645 8.98303394,14.7090819 8.98303394,12.3762475 C8.98303394,10.0434132 10.8917166,8.13473054 13.2245509,8.13473054 Z M3.04491018,13.6487026 C2.32385229,13.6487026 1.77245509,14.2000998 1.77245509,14.9211577 C1.77245509,15.6422156 2.32385229,16.1936128 3.04491018,16.1936128 C3.76596807,16.1936128 4.31736527,15.6422156 4.31736527,14.9211577 C4.31736527,14.2000998 3.76596807,13.6487026 3.04491018,13.6487026 Z M13.2245509,9.40718563 C11.5703593,9.40718563 10.255489,10.7220559 10.255489,12.3762475 C10.255489,14.0304391 11.5703593,15.3453094 13.2245509,15.3453094 C14.8787425,15.3453094 16.1936128,14.0304392 16.1936128,12.3762475 C16.1936128,10.7220559 14.8787425,9.40718563 13.2245509,9.40718563 Z M13.6487026,10.255489 L13.6487026,11.9520958 L15.3453094,11.9520958 L15.3453094,13.2245509 L12.3762475,13.2245509 L12.3762475,10.255489 L13.6487026,10.255489 Z M14.9211577,0.5 C16.3208583,0.5 17.4660679,1.64520958 17.4660679,3.04491018 C17.4660679,4.44461078 16.3208583,5.58982036 14.9211577,5.58982036 C13.7335329,5.58982036 12.757984,4.78393214 12.4610778,3.68113772 L12.4610778,3.68113772 L4.31736527,3.68113772 C3.04491018,3.68113774 1.98453094,4.74151698 1.98453094,6.01397207 C1.98453094,7.28642716 3.04491018,8.34680639 4.31736527,8.34680639 L4.31736527,8.34680639 L9.49201597,8.34680639 C9.11027945,8.72854292 8.77095808,9.15269461 8.4740519,9.61926148 L8.4740519,9.61926148 L4.31736527,9.61926148 C2.32385231,9.61926148 0.712075855,8.00748505 0.712075855,6.01397207 C0.712075855,4.02045909 2.32385229,2.40868263 4.31736527,2.40868263 L4.31736527,2.40868263 L12.4610778,2.40868263 C12.757984,1.30588822 13.733533,0.5 14.9211577,0.5 Z M14.9211577,1.77245509 C14.2000998,1.77245509 13.6487026,2.32385229 13.6487026,3.04491018 C13.6487026,3.76596807 14.2000998,4.31736527 14.9211577,4.31736527 C15.6422156,4.31736527 16.1936128,3.76596807 16.1936128,3.04491018 C16.1936128,2.32385229 15.6422156,1.77245509 14.9211577,1.77245509 Z" id="形状结合" fill="#FFFFFF" fill-rule="nonzero"></path>
                <rect id="矩形" x="0" y="0" width="18" height="18"></rect>
            </g>
        </g>
    </g>
</svg>