<?xml version="1.0" encoding="UTF-8"?>
<svg width="18px" height="18px" viewBox="0 0 18 18" version="1.1" xmlns="http://www.w3.org/2000/svg" xmlns:xlink="http://www.w3.org/1999/xlink">
    <title>inspectionClass</title>
    <g id="页面-1" stroke="none" stroke-width="1" fill="none" fill-rule="evenodd">
        <g id="画板" transform="translate(-2470.000000, -290.000000)" fill="#FFFFFF" fill-rule="nonzero">
            <g id="inspectionClass" transform="translate(2470.000000, 290.000000)">
                <path d="M8.49897933,10.468498 L9.74419103,10.468498 C10.0929183,10.468498 10.3667969,10.1946195 10.3667969,9.84589214 C10.3667969,9.49716482 10.0929183,9.22328629 9.74419103,9.22328629 L8.49897933,9.22328629 C8.15025202,9.22328629 7.87637349,9.49716482 7.87637349,9.84589214 C7.87637349,10.1929183 8.15025202,10.468498 8.49897933,10.468498 L8.49897933,10.468498 Z M8.49897933,12.9589214 L9.74419103,12.9589214 C10.0929183,12.9589214 10.3667969,12.6850428 10.3667969,12.3363155 C10.3667969,11.9875882 10.0929183,11.7137097 9.74419103,11.7137097 L8.49897933,11.7137097 C8.15025202,11.7137097 7.87637349,11.9875882 7.87637349,12.3363155 C7.87637349,12.6850428 8.15025202,12.9589214 8.49897933,12.9589214 L8.49897933,12.9589214 Z M15.3510459,1.7469128 L12.8589214,1.7469128 L12.8589214,1.12260585 C12.8589214,0.773878528 12.5850428,0.5 12.2363155,0.5 C11.8875882,0.5 11.6137097,0.773878528 11.6137097,1.12260585 L11.6137097,1.74521169 L6.62946069,1.74521169 L6.62946069,1.12260585 C6.62946069,0.773878528 6.35558216,0.5 6.00685484,0.5 C5.65812752,0.5 5.38424899,0.773878528 5.38424899,1.12260585 L5.38424899,1.74521169 L2.8921245,1.74521169 C1.52103075,1.7469128 0.4,2.86794355 0.4,4.23733619 L0.4,14.2041331 C0.4,15.5752268 1.52103075,16.6962576 2.8921245,16.6962576 L15.3510459,16.6962576 C16.7221396,16.6962576 17.8431704,15.5752268 17.8431704,14.2041331 L17.8431704,4.23733619 C17.8431704,2.86794355 16.7221396,1.7469128 15.3510459,1.7469128 Z M16.5962576,14.2058342 C16.5962576,14.891381 16.0348916,15.4510459 15.3510459,15.4510459 L2.8921245,15.4510459 C2.20657762,15.4510459 1.6469128,14.8896799 1.6469128,14.2058342 L1.6469128,6.72946069 L16.5979587,6.72946069 L16.5979587,14.2058342 L16.5962576,14.2058342 Z M16.5962576,5.48424899 L1.64521169,5.48424899 L1.64521169,4.2390373 C1.64521169,3.55349042 2.20657762,2.9938256 2.89042339,2.9938256 L5.38424899,2.9938256 L5.38424899,3.61643145 C5.38424899,3.96515877 5.65812752,4.2390373 6.00685484,4.2390373 C6.35558216,4.2390373 6.62946069,3.96515877 6.62946069,3.61643145 L6.62946069,2.9938256 L11.6137097,2.9938256 L11.6137097,3.61643145 C11.6137097,3.96515877 11.8875882,4.2390373 12.2363155,4.2390373 C12.5850428,4.2390373 12.8589214,3.96515877 12.8589214,3.61643145 L12.8589214,2.9938256 L15.3510459,2.9938256 C16.0365927,2.9938256 16.5962576,3.55519153 16.5962576,4.2390373 L16.5962576,5.48424899 L16.5962576,5.48424899 Z M4.75994204,12.9589214 L6.00515373,12.9589214 C6.35388105,12.9589214 6.62775958,12.6850428 6.62775958,12.3363155 C6.62775958,11.9875882 6.35388105,11.7137097 6.00515373,11.7137097 L4.75994204,11.7137097 C4.41121472,11.7137097 4.13733619,11.9875882 4.13733619,12.3363155 C4.13733619,12.6850428 4.41121472,12.9589214 4.75994204,12.9589214 Z M12.2363155,10.468498 L13.4815272,10.468498 C13.8302545,10.468498 14.1041331,10.1946195 14.1041331,9.84589214 C14.1041331,9.49716482 13.8302545,9.22328629 13.4815272,9.22328629 L12.2363155,9.22328629 C11.8875882,9.22328629 11.6137097,9.49716482 11.6137097,9.84589214 C11.6137097,10.1929183 11.8875882,10.468498 12.2363155,10.468498 Z M4.75994204,10.468498 L6.00515373,10.468498 C6.35388105,10.468498 6.62775958,10.1946195 6.62775958,9.84589214 C6.62775958,9.49716482 6.35388105,9.22328629 6.00515373,9.22328629 L4.75994204,9.22328629 C4.41121472,9.22328629 4.13733619,9.49716482 4.13733619,9.84589214 C4.13733619,10.1929183 4.41121472,10.468498 4.75994204,10.468498 Z M12.2363155,12.9589214 L13.4815272,12.9589214 C13.8302545,12.9589214 14.1041331,12.6850428 14.1041331,12.3363155 C14.1041331,11.9875882 13.8302545,11.7137097 13.4815272,11.7137097 L12.2363155,11.7137097 C11.8875882,11.7137097 11.6137097,11.9875882 11.6137097,12.3363155 C11.6137097,12.6850428 11.8875882,12.9589214 12.2363155,12.9589214 Z" id="形状"></path>
            </g>
        </g>
    </g>
</svg>