<?xml version="1.0" encoding="UTF-8"?>
<svg width="18px" height="18px" viewBox="0 0 18 18" version="1.1" xmlns="http://www.w3.org/2000/svg" xmlns:xlink="http://www.w3.org/1999/xlink">
    <title>inspectionManagement</title>
    <g id="页面-1" stroke="none" stroke-width="1" fill="none" fill-rule="evenodd">
        <g id="画板" transform="translate(-2485.000000, -179.000000)">
            <g id="inspectionManagement" transform="translate(2485.000000, 179.000000)">
                <path d="M10.959,10.484 L0.25,10.484 L0.25,15.107 L10.959,15.107 L10.959,10.484 Z M9.69196429,11.7522321 L9.69196429,13.8392857 L1.51785714,13.8392857 L1.51785714,11.7522321 L9.69196429,11.7522321 Z M10.959,2.75 L0.25,2.75 L0.25,7.372 L10.959,7.372 L10.959,2.75 Z M12.0462058,12.7625509 C12.0204449,12.7416012 12.0040613,12.711276 12.0006593,12.6782466 C11.9972572,12.6452172 12.0071154,12.6121891 12.0280652,12.5864282 L12.6599938,11.8092942 C12.7036206,11.7556411 12.7824804,11.7475105 12.8361366,11.7911335 L14.3873107,13.0524996 L16.7175674,10.1868032 C16.7611943,10.1331501 16.8400541,10.1250194 16.8937103,10.1686425 L17.6708442,10.8005911 C17.6966051,10.8215408 17.7129887,10.851866 17.7163908,10.8848954 C17.7197928,10.9179249 17.7099346,10.950953 17.6889848,10.9767139 L14.7267996,14.6195442 C14.6395518,14.7268411 14.4818509,14.7430933 14.3745339,14.6558456 L12.0462058,12.7625509 Z M13.9871924,5.05608036 L12.3446121,3.42922991 L13.2493732,2.51572991 L14.8919536,4.14258036 L16.518804,2.5 L17.432304,3.40476116 L15.8054536,5.04734152 L17.4480339,6.67421205 L16.5432728,7.58771205 L14.9006924,5.96084152 L13.2738219,7.60342188 L12.3603219,6.69866071 L13.9871924,5.05608036 L13.9871924,5.05608036 Z M9.69196429,4.01785714 L9.69196429,6.10491071 L1.51785714,6.10491071 L1.51785714,4.01785714 L9.69196429,4.01785714 Z" id="形状" fill="#FFFFFF" fill-rule="nonzero"></path>
                <rect id="矩形" x="0" y="0" width="18" height="18"></rect>
            </g>
        </g>
    </g>
</svg>