<?xml version="1.0" encoding="UTF-8"?>
<svg width="18px" height="18px" viewBox="0 0 18 18" version="1.1" xmlns="http://www.w3.org/2000/svg" xmlns:xlink="http://www.w3.org/1999/xlink">
    <title>inspectionContent</title>
    <g id="页面-1" stroke="none" stroke-width="1" fill="none" fill-rule="evenodd">
        <g id="画板" transform="translate(-2479.000000, -321.000000)">
            <g id="inspectionContent" transform="translate(2479.000000, 321.000000)">
                <path d="M3.66083807,11.8489742 C4.79004841,11.8489742 5.78004103,12.5605314 6.15128827,13.6278672 L6.2131628,13.8289595 L10.5443805,13.8289595 L10.5443805,15.1437934 L6.2131628,15.1437934 C5.93472738,16.2265978 4.99114066,17.0154982 3.87739896,17.10831 L3.66083807,17.10831 C2.20678641,17.10831 1.03117017,15.9326938 1.03117017,14.4786421 C1.03117017,13.0245905 2.20678641,11.8489742 3.66083807,11.8489742 Z M3.66083807,13.1638082 C2.93381224,13.1638082 2.34600412,13.7516163 2.34600412,14.4786421 C2.34600412,15.205668 2.93381224,15.7934761 3.66083807,15.7934761 C4.3878639,15.7934761 4.97567203,15.205668 4.97567203,14.4786421 C4.97567203,13.7516163 4.3878639,13.1638082 3.66083807,13.1638082 Z M16.8937103,12.0280625 L17.6708442,12.6600111 C17.6966051,12.6809608 17.7129887,12.711286 17.7163908,12.7443154 C17.7197928,12.7773449 17.7099346,12.810373 17.6889848,12.8361339 L14.7267996,16.4789642 C14.6395518,16.5862611 14.4818509,16.6025133 14.3745339,16.5152656 L12.0462058,14.6219709 C12.0204449,14.6010212 12.0040613,14.570696 12.0006593,14.5376666 C11.9972572,14.5046372 12.0071154,14.4716091 12.0280652,14.4458482 L12.6599938,13.6687142 C12.7036206,13.6150611 12.7824804,13.6069305 12.8361366,13.6505535 L14.3873107,14.9119196 L16.7175674,12.0462232 C16.7611943,11.9925701 16.8400541,11.9844394 16.8937103,12.0280625 Z M14.1949783,0 C15.64903,0 16.8246462,1.17561624 16.8246462,2.62966791 C16.8246462,4.08371957 15.64903,5.25933581 14.1949783,5.25933581 C13.065768,5.25933581 12.0757754,4.54777862 11.7045281,3.48044282 L11.6426536,3.27935057 L4.6508307,3.27935057 C3.38240265,3.27935057 2.34600412,4.31574909 2.34600412,5.58417714 C2.34600412,6.79073065 3.2741222,7.78072328 4.46520708,7.87353509 L13.2049857,7.87353509 C15.014816,7.87353509 16.5462108,9.21930631 16.793709,11.0136679 L15.4634064,11.0136679 C15.2468455,10.0236753 14.4115392,9.29664948 13.406078,9.20383767 L4.6508307,9.20383767 C2.65537681,9.21930631 1.01570153,7.61056829 1.00011557,5.61511441 C0.984764261,3.68153507 2.50069047,2.07279706 4.43426981,1.97998525 L11.6426536,1.97998525 C11.9520263,0.819837642 13.0038935,0 14.1949783,0 Z M14.1949783,1.31483395 C13.5452957,1.31483395 13.0038935,1.778893 12.895613,2.41310702 L12.8801444,2.56779337 L12.8801444,2.69154245 C12.9265503,3.38763101 13.4988898,3.94450186 14.1949783,3.94450186 C14.9220042,3.94450186 15.5098123,3.35669374 15.5098123,2.62966791 C15.5098123,1.90264207 14.9220042,1.31483395 14.1949783,1.31483395 Z" id="形状" fill="#FFFFFF" fill-rule="nonzero"></path>
                <rect id="矩形" x="0" y="0" width="18" height="18"></rect>
            </g>
        </g>
    </g>
</svg>