<?xml version="1.0" encoding="UTF-8"?>
<svg width="18px" height="18px" viewBox="0 0 18 18" version="1.1" xmlns="http://www.w3.org/2000/svg" xmlns:xlink="http://www.w3.org/1999/xlink">
    <title>ledger</title>
    <g id="页面-1" stroke="none" stroke-width="1" fill="none" fill-rule="evenodd">
        <g id="画板" transform="translate(-2907.000000, -91.000000)" fill="#FFFFFF" fill-rule="nonzero">
            <g id="ledger" transform="translate(2907.000000, 91.000000)">
                <path d="M16.8743672,11.2220859 L16.8743672,3.3467168 C16.8743672,2.72807227 16.4387988,2.25024609 15.8060742,2.25024609 L12.3728555,2.25024609 L12.3728555,1.09645313 C12.3728555,0.477808594 11.9393086,0 11.3066016,0 L2.30660156,0 C1.68795703,0 1.12464844,0.477808594 1.12464844,1.09645313 L1.12464844,11.2220859 C0.512561794,11.2433698 0.0212934355,11.7346305 0,12.3467168 L0,16.8461895 C0,17.4648691 0.562324219,18 1.18095117,18 L16.9307227,18 C17.5493672,18 18.0000176,17.4648516 18.0000176,16.846207 L18.0000176,12.3466992 C18.0000176,11.7280547 17.5775273,11.2220684 16.8743848,11.2220684 L16.8743672,11.2220859 Z M15.7497539,3.37587891 L15.7497539,11.2512656 L14.625123,11.2512656 L14.625123,3.37485937 L15.7497539,3.37587891 Z M13.4149922,3.37587891 L13.4994902,3.37587891 L13.4994902,11.2512656 L12.3728555,11.2512656 L12.3728555,3.37485937 L13.4149922,3.37587891 Z M2.24924414,1.12563281 L11.2492441,1.12563281 L11.2492441,11.2502461 L11.1225059,11.2502461 C10.9256906,11.2434325 10.7528654,11.380077 10.7140957,11.5731563 C10.5453815,12.3548923 9.85405118,12.9129371 9.05431641,12.9129371 C8.25458163,12.9129371 7.56325127,12.3548923 7.39453711,11.5731563 C7.35972229,11.3840078 7.19353371,11.247566 7.00122656,11.2502461 L2.25024609,11.2502461 L2.24924414,1.12563281 Z M16.8743672,16.8743672 L1.12464844,16.8743672 L1.12464844,12.3728555 L6.48316406,12.3728555 C6.92836314,13.3975342 7.93909679,14.0604043 9.05631152,14.0604043 C10.1735263,14.0604043 11.1842599,13.3975342 11.629459,12.3728555 L16.8743672,12.3728555 L16.8743672,16.8743672 Z" id="形状"></path>
                <path d="M3.99352148,7.26275391 L9.61864453,7.26275391 C9.92746301,7.26031204 10.1765225,7.0092754 10.1765225,6.70044727 C10.1765225,6.39161913 9.92746301,6.14058249 9.61864453,6.13814062 L3.99352148,6.13814062 C3.68419032,6.13987013 3.43434123,6.39112006 3.43434123,6.70045605 C3.43434123,7.00979205 3.68419032,7.26104198 3.99352148,7.26277148 L3.99352148,7.26275391 Z M10.1809512,8.95271484 C10.1803922,8.64222386 9.92911648,8.39050829 9.61862695,8.38940625 L3.99353906,8.38940625 C3.69185356,8.40202587 3.45377329,8.65027332 3.45377329,8.95222266 C3.45377329,9.25417199 3.69185356,9.50241944 3.99353906,9.51503906 L9.61866211,9.51503906 C9.768378,9.51695197 9.91252149,9.45832174 10.0183953,9.35244798 C10.124269,9.24657423 10.1828992,9.10243073 10.1810317,8.95271484 L10.1809512,8.95271484 Z M4.02973242,5.02962891 L9.65687695,5.02962891 C9.96744004,5.02962891 10.2192012,4.77786777 10.2192012,4.46730469 C10.2192012,4.1567416 9.96744004,3.90498047 9.65687695,3.90498047 L4.02973242,3.90498047 C3.71916934,3.90498047 3.46740822,4.1567416 3.46740822,4.46730469 C3.46740822,4.77786777 3.71916934,5.02962891 4.02973242,5.02962891 Z" id="形状"></path>
            </g>
        </g>
    </g>
</svg>