<?xml version="1.0" encoding="UTF-8"?>
<svg width="18px" height="18px" viewBox="0 0 18 18" version="1.1" xmlns="http://www.w3.org/2000/svg" xmlns:xlink="http://www.w3.org/1999/xlink">
    <title>light</title>
    <g id="页面-1" stroke="none" stroke-width="1" fill="none" fill-rule="evenodd">
        <g id="画板" transform="translate(-641.000000, -229.000000)">
            <g id="light" transform="translate(641.000000, 229.000000)">
                <path d="M9.01512789,0.128571429 C8.74555663,0.128571429 8.52238588,0.327235693 8.48403724,0.586151001 L8.47821574,0.665494711 L8.47798545,3.32658255 L8.34946855,3.45514285 L6.35752343,3.45591642 L6.22517798,3.46030231 C5.29312291,3.52332428 4.55515662,4.26748774 4.48999449,5.19087926 L4.45639181,6.50202105 L1.01225668,10.8080232 L0.924397701,10.9267023 C0.549578624,11.4763399 0.495155363,12.1857249 0.784146777,12.7874098 C1.07421147,13.3913292 1.66333315,13.7902417 2.32415963,13.8410717 L2.46677997,13.8465839 L4.54924041,13.8467548 L4.67243825,13.9385797 C5.254354,15.8897018 7.06678053,17.2134084 9.10304093,17.1736176 C11.0099044,17.1363555 12.6799762,15.9104253 13.2966712,14.1250861 L13.3566762,13.9384261 L13.4798986,13.8465591 L15.5585633,13.8466781 L15.7061429,13.8411167 C16.3221893,13.793934 16.8731283,13.4449034 17.1785598,12.917068 L17.2446038,12.7921418 L17.3035387,12.6567264 C17.5266245,12.0844783 17.453002,11.4409664 17.1123612,10.9353274 L17.0216553,10.811911 L13.5445569,6.42081206 L13.5450145,5.32819855 L13.5406286,5.1958531 C13.4776066,4.26379803 12.7334432,3.52583174 11.8100814,3.46066962 L11.6770077,3.45598934 L9.68050237,3.45514285 L9.55198546,3.32656879 L9.55226955,0.673162162 L9.54826471,0.602664861 C9.51641531,0.332317387 9.28729977,0.128571429 9.01512789,0.128571429 Z M12.2623092,13.8468796 L12.1837626,14.0268859 C11.625334,15.306645 10.3459724,16.1291745 8.94162339,16.0991584 C7.6516005,16.0715858 6.494147,15.3292464 5.92467933,14.1924097 L5.84737589,14.0273554 L5.76878572,13.8473529 L12.2623092,13.8468796 Z M12.6885973,7.191748 L12.7889947,7.2400015 L16.1883928,11.4897651 L16.2472495,11.575653 C16.3813224,11.8031562 16.3937499,12.0834144 16.2787576,12.3226748 C16.161183,12.5673083 15.9281765,12.7327508 15.6634266,12.7664153 L15.5628209,12.7727596 L2.45813922,12.7724697 L2.35918334,12.7655175 C2.00044531,12.7168505 1.72256908,12.4310792 1.67901819,12.0695598 L1.6730657,11.9692067 L1.68200103,11.8629834 L1.70213619,11.7664623 C1.72123928,11.6975159 1.74953914,11.6315864 1.78617685,11.5704252 L1.84727944,11.4824786 L5.23991476,7.24002071 L5.34032754,7.191748 L12.6885973,7.191748 Z M6.35319356,4.52981366 L11.6770622,4.52981366 L11.7785597,4.53666326 L11.8763008,4.5552453 C12.1933401,4.63717488 12.4255281,4.90538414 12.465124,5.22618452 L12.4711172,5.32386868 L12.4711172,5.98935226 L12.3425458,6.11792369 L5.68770997,6.11792369 L5.55913854,5.98935226 L5.55942851,5.31523854 L5.56638066,5.2162826 C5.61504766,4.85754456 5.90081893,4.57966833 6.25502261,4.53584687 L6.35319356,4.52981366 Z" id="形状" fill="#FFFFFF" fill-rule="nonzero"></path>
                <rect id="矩形" x="0" y="0" width="18" height="18"></rect>
            </g>
        </g>
    </g>
</svg>