<?xml version="1.0" encoding="UTF-8"?>
<svg width="18px" height="18px" viewBox="0 0 18 18" version="1.1" xmlns="http://www.w3.org/2000/svg" xmlns:xlink="http://www.w3.org/1999/xlink">
    <title>line</title>
    <g id="页面-1" stroke="none" stroke-width="1" fill="none" fill-rule="evenodd">
        <g id="画板" transform="translate(-641.000000, -268.000000)">
            <g id="line" transform="translate(641.000000, 268.000000)">
                <path d="M4.57142857,0 C5.99158936,0 7.14285714,1.15126779 7.14285714,2.57142857 C7.14285714,3.76946164 6.32356473,4.77613872 5.21470062,5.06173908 L5.21428571,10.7344286 C5.71121429,10.2481071 6.32482143,9.98517857 7.05382143,9.96557143 L7.14285714,9.96428571 L11.9642857,9.96428571 C12.7105712,9.96428571 13.0991718,9.66483924 13.2135514,8.90947554 C12.1223968,8.61061479 11.3214286,7.61313118 11.3214286,6.42857143 C11.3214286,5.00841064 12.4726964,3.85714286 13.8928571,3.85714286 C15.3130179,3.85714286 16.4642857,5.00841064 16.4642857,6.42857143 C16.4642857,7.63840371 15.6287757,8.65309217 14.5032824,8.92711007 C14.3334499,10.379095 13.4837561,11.2155861 12.0542857,11.2490357 L7.14285714,11.25 C6.34442857,11.25 5.75814286,11.7819643 5.37371429,12.98475 C6.58898197,13.3837414 7.32623599,14.6152941 7.10387142,15.8749066 C6.88150685,17.1345191 5.76713532,18.0391967 4.48871061,17.9979663 C3.21028589,17.956736 2.1565228,16.9821342 2.01578315,15.7108112 C1.8750435,14.4394883 2.69012025,13.2579997 3.92857143,12.9381429 L3.92815652,5.06173908 C2.81929242,4.77613872 2,3.76946164 2,2.57142857 C2,1.15126779 3.15126779,0 4.57142857,0 Z M4.57142857,14.1428571 C3.86134818,14.1428571 3.28571429,14.718491 3.28571429,15.4285714 C3.28571429,16.1386518 3.86134818,16.7142857 4.57142857,16.7142857 C5.28150896,16.7142857 5.85714286,16.1386518 5.85714286,15.4285714 C5.85714286,14.718491 5.28150896,14.1428571 4.57142857,14.1428571 Z M13.8928571,5.14285714 C13.1827768,5.14285714 12.6071429,5.71849104 12.6071429,6.42857143 C12.6071429,7.13865182 13.1827768,7.71428571 13.8928571,7.71428571 C14.6029375,7.71428571 15.1785714,7.13865182 15.1785714,6.42857143 C15.1785714,5.71849104 14.6029375,5.14285714 13.8928571,5.14285714 Z M4.57142857,1.28571429 C3.86134818,1.28571429 3.28571429,1.86134818 3.28571429,2.57142857 C3.28571429,3.28150896 3.86134818,3.85714286 4.57142857,3.85714286 C5.28150896,3.85714286 5.85714286,3.28150896 5.85714286,2.57142857 C5.85714286,1.86134818 5.28150896,1.28571429 4.57142857,1.28571429 Z" id="形状结合" fill="#FFFFFF" fill-rule="nonzero"></path>
                <rect id="矩形" x="0" y="0" width="18" height="18"></rect>
            </g>
        </g>
    </g>
</svg>