<?xml version="1.0" encoding="UTF-8"?>
<svg width="18px" height="18px" viewBox="0 0 18 18" version="1.1" xmlns="http://www.w3.org/2000/svg" xmlns:xlink="http://www.w3.org/1999/xlink">
    <title>line</title>
    <g id="页面-1" stroke="none" stroke-width="1" fill="none" fill-rule="evenodd">
        <g id="画板" transform="translate(-1071.000000, -499.000000)">
            <g id="line" transform="translate(1071.000000, 499.000000)">
                <path d="M17.4504359,2.93345221 L13.9449558,2.93345221 L13.9449558,6.51130547 L14.9535609,6.51130547 L14.9535609,9.20066236 C14.9535665,9.20467927 14.95192,9.20852174 14.9490078,9.21128838 C14.9460955,9.21405503 14.9421737,9.21550241 14.9381624,9.21529099 L9.6125736,9.21529099 L9.6125736,2.90958447 L10.8082711,2.90958447 L9.90514606,1.7108073 L9.00048121,0.512030124 L8.09581634,1.7108073 L7.19269134,2.90958447 L8.3514323,2.90958447 L8.3514323,11.2917856 L3.04278193,11.2917856 C3.03486847,11.2913989 3.02854,11.2850704 3.0281533,11.2771569 L3.0281533,8.71637795 C3.80129676,8.36338722 4.21009312,7.50686149 3.998262,6.68376925 C3.7821999,5.85990347 3.01002248,5.30673071 2.16044497,5.36719317 C1.31103642,5.42340068 0.622700187,6.07774101 0.523579037,6.92321671 C0.428837856,7.76841072 0.952803353,8.56019522 1.76778193,8.80337976 L1.76778193,11.2779269 C1.77159868,11.9788846 2.34181592,12.5446255 3.04278193,12.5429178 L8.3514323,12.5429178 L8.3514323,13.943416 C7.52611583,14.2518127 7.04253327,15.1094567 7.20578012,15.9752548 C7.37409621,16.8412827 8.13834964,17.4625425 9.02049932,17.4504359 C9.90288587,17.4432999 10.6533937,16.8050115 10.8021116,15.9352185 C10.9456593,15.0662015 10.4433797,14.2198637 9.61180367,13.9295573 L9.61180367,10.4656533 L14.9389323,10.4656533 C15.6398983,10.467361 16.2101155,9.90162006 16.2139323,9.20066236 L16.2139323,6.51130547 L17.4504359,6.51130547 L17.4504359,2.93345221 Z" id="形状" fill="#FFFFFF" fill-rule="nonzero"></path>
                <rect id="B" x="0" y="0" width="18" height="18"></rect>
            </g>
        </g>
    </g>
</svg>