<?xml version="1.0" encoding="UTF-8"?>
<svg width="18px" height="18px" viewBox="0 0 18 18" version="1.1" xmlns="http://www.w3.org/2000/svg" xmlns:xlink="http://www.w3.org/1999/xlink">
    <title>monitor</title>
    <g id="页面-1" stroke="none" stroke-width="1" fill="none" fill-rule="evenodd">
        <g id="画板" transform="translate(-1106.000000, -323.000000)">
            <g id="monitor" transform="translate(1106.000000, 323.000000)">
                <path d="M8.79679144,2.72026655e-07 C11.8794302,-0.000853959525 14.6016387,2.01023142 15.5066382,4.95703286 C16.4116376,7.90383431 15.2874706,11.0961895 12.7357305,12.8257227 L13.895893,16.0941185 L16.5935829,16.0941185 L16.5935829,17.6534768 L1,17.6534768 L1,16.0941185 L3.29615508,16.0941185 L4.52025134,12.5809035 C2.13738247,10.7495752 1.18525813,7.60414574 2.15247636,4.75874312 C3.1196946,1.91334049 5.7914916,-0.000234234444 8.79679144,2.72026655e-07 Z M4.91087059,16.0941185 L12.2803979,16.0941185 L11.3206128,13.5664179 C10.5153647,13.8765824 9.65970834,14.0351841 8.79679144,14.0342254 C7.80210008,14.0354134 6.8186029,13.8243603 5.91197861,13.4151602 L4.91087059,16.0941185 Z M4.07023773,4.28823608 C3.09530385,5.97687106 3.09530385,8.05735517 4.07023773,9.74599015 C5.04517161,11.4346251 6.84692371,12.4748671 8.79679144,12.4748671 C11.8110257,12.4748671 14.2545454,10.0313474 14.2545454,7.01711312 C14.2545454,4.00287884 11.8110257,1.55935911 8.79679144,1.55935911 C6.84692371,1.55935911 5.04517161,2.59960109 4.07023773,4.28823608 Z M8.79679144,4.67807568 C10.519211,4.67807568 11.915508,6.07437266 11.915508,7.79679226 C11.915508,9.51921187 10.519211,10.9155088 8.79679144,10.9155088 C7.07437184,10.9155088 5.67807487,9.51921187 5.67807487,7.79679226 C5.67807487,6.07437266 7.07437184,4.67807568 8.79679144,4.67807568 Z M8.79679144,6.23743397 C7.93558164,6.23743397 7.23743316,6.93558246 7.23743316,7.79679226 C7.23743316,8.65800206 7.93558164,9.35615055 8.79679144,9.35615055 C9.65800125,9.35615055 10.3561497,8.65800206 10.3561497,7.79679226 C10.3561497,6.93558246 9.65800125,6.23743397 8.79679144,6.23743397 Z M8.79679144,2.33903825 C9.22739635,2.33903825 9.57647059,2.68811249 9.57647059,3.11871739 C9.57647059,3.5493223 9.22739635,3.89839654 8.79679144,3.89839654 C8.36618654,3.89839654 8.0171123,3.5493223 8.0171123,3.11871739 C8.0171123,2.68811249 8.36618654,2.33903825 8.79679144,2.33903825 Z" id="形状" fill="#FFFFFF" fill-rule="nonzero"></path>
                <rect id="矩形" x="0" y="0" width="18" height="18"></rect>
            </g>
        </g>
    </g>
</svg>