<?xml version="1.0" encoding="UTF-8"?>
<svg width="18px" height="18px" viewBox="0 0 18 18" version="1.1" xmlns="http://www.w3.org/2000/svg" xmlns:xlink="http://www.w3.org/1999/xlink">
    <title>price</title>
    <g id="页面-1" stroke="none" stroke-width="1" fill="none" fill-rule="evenodd">
        <g id="画板" transform="translate(-1541.000000, -174.000000)">
            <g id="price" transform="translate(1541.000000, 174.000000)">
                <path d="M13.8571429,13.36575 L13.8571429,14.5014643 L15.7857143,14.5014643 C16.1407643,14.5014643 16.4285714,14.7892714 16.4285714,15.1443214 C16.4285714,15.49935 16.1407643,15.7871786 15.7857143,15.7871786 L13.8571429,15.7871786 L13.8571429,17.3514643 C13.8571429,17.7064928 13.5693357,17.9943214 13.2142857,17.9943214 C12.8592357,17.9943214 12.5714286,17.7064928 12.5714286,17.3514643 L12.5714286,15.7871786 L10.6428571,15.7871786 C10.2878071,15.7871786 10,15.49935 10,15.1443214 C10,14.7892714 10.2878071,14.5014643 10.6428571,14.5014643 L12.5714286,14.5014643 L12.5714286,13.36575 L10.6428571,13.36575 C10.2878071,13.36575 10,13.0779214 10,12.7228929 C10,12.3678429 10.2878071,12.0800357 10.6428571,12.0800357 L12.1980143,12.0800357 L11.1403,11.0223214 C10.8892214,10.7712429 10.8892214,10.3642071 11.1403,10.1131714 C11.3913357,9.86211428 11.7983714,9.86211428 12.0494286,10.1131714 L13.19305,11.2567929 L14.3366714,10.11315 C14.5877286,9.86211428 14.9947429,9.86211428 15.2458,10.11315 C15.4968572,10.3642071 15.4968572,10.7712429 15.2458,11.0223 L14.1880857,12.0800143 L15.7857143,12.0800143 C16.1407643,12.0800143 16.4285714,12.3678429 16.4285714,12.7228714 C16.4285714,13.0779429 16.1407643,13.3657286 15.7857143,13.3657286 L13.8571429,13.3657286 L13.8571429,13.36575 Z M15.0259643,7.07730001 L15.0259643,2.35714285 C15.0259643,1.76541429 14.5026786,1.28571429 13.8571429,1.28571429 L3.57142857,1.28571429 C2.92589286,1.28571429 2.40260715,1.76541429 2.40260715,2.35714285 L2.40260715,15.6428571 C2.40260715,16.2345857 2.92589286,16.7142857 3.57142857,16.7142857 L7.42557144,16.7142857 C7.7806,16.7142857 8.06842858,17.0020929 8.06842858,17.3571429 C8.06842858,17.7121929 7.7806,18 7.42557144,18 L3.33764286,18 C2.04663571,18 1,17.0406 1,15.8571429 L1,2.14285715 C1,0.9594 2.04661428,0 3.33764286,0 L14.0909286,0 C15.3819357,0 16.4285714,0.9594 16.4285714,2.14285715 L16.4285714,7.07730001 C16.4285714,7.46462144 16.1146,7.77857143 15.7272786,7.77857143 C15.3399571,7.77857143 15.0259643,7.4646 15.0259643,7.07727857 L15.0259643,7.07730001 Z M4.21428571,3.85714286 L10.6428571,3.85714286 C10.9979071,3.85714286 11.2857143,4.14495 11.2857143,4.5 C11.2857143,4.85505 10.9979071,5.14285714 10.6428571,5.14285714 L4.21428571,5.14285714 C3.85923571,5.14285714 3.57142857,4.85505 3.57142857,4.5 C3.57142857,4.14495 3.85923571,3.85714286 4.21428571,3.85714286 Z M4.21428571,7.71428571 L8.07142857,7.71428571 C8.42647857,7.71428571 8.71428571,8.00209286 8.71428571,8.35714286 C8.71428571,8.71219286 8.42647857,9 8.07142857,9 L4.21428571,9 C3.85923571,9 3.57142857,8.71219286 3.57142857,8.35714286 C3.57142857,8.00209286 3.85923571,7.71428571 4.21428571,7.71428571 Z" id="形状" fill="#FFFFFF" fill-rule="nonzero"></path>
                <rect id="矩形" x="0" y="0" width="18" height="18"></rect>
            </g>
        </g>
    </g>
</svg>