<?xml version="1.0" encoding="UTF-8"?>
<svg width="18px" height="18px" viewBox="0 0 18 18" version="1.1" xmlns="http://www.w3.org/2000/svg" xmlns:xlink="http://www.w3.org/1999/xlink">
    <title>project</title>
    <g id="页面-1" stroke="none" stroke-width="1" fill="none" fill-rule="evenodd">
        <g id="画板" transform="translate(-133.000000, -155.000000)">
            <g id="project" transform="translate(133.000000, 155.000000)">
                <path d="M11.4294505,8.21086636 L11.1761304,8.2152715 C10.9187504,8.22452231 10.6494168,8.24963858 10.3701634,8.30257645 C9.95044101,8.38214291 9.64028285,8.51027627 9.51713485,8.63448337 C9.49417689,8.70396738 9.49417689,8.77899316 9.5162568,8.84590266 C9.59240058,9.06235803 9.71342676,9.25953628 9.87501301,9.42884684 L10.0037402,9.55047034 L10.3153357,9.86207648 L10.5321326,10.0744717 C10.7267654,10.266444 10.9016821,10.4427797 11.0575436,10.6047572 L11.3440556,10.9099468 L11.3395296,11.1061744 L10.5153191,11.9303849 L10.3155785,11.9315967 L10.0660049,11.688001 C9.94722378,11.570218 9.8330676,11.4542016 9.724254,11.3404795 L9.56513026,11.1716831 L8.97856245,10.5756481 L8.82814578,10.4244789 L8.74913254,10.330166 C8.67019968,10.2453334 8.57882153,10.1729173 8.48687113,10.1200431 C8.34921716,10.0537638 8.18887495,10.0537638 8.10636623,10.0729578 C7.61287542,10.7849506 7.39891406,11.6537634 7.5053871,12.5138971 C7.60139088,13.3079486 7.94314706,14.0521467 8.48374284,14.6433963 C9.03722367,15.259984 9.77839278,15.6770922 10.5913282,15.829997 C11.2129697,15.9406969 11.8508228,15.9031037 12.453338,15.7217394 L12.6775241,15.6469974 L12.8268981,15.679944 L13.4120294,16.2651241 L13.6894337,16.5306394 L14.1982525,17.0423731 L14.3378759,17.2044827 C14.5747122,17.4586467 14.8584991,17.6648442 15.1590736,17.805733 C15.3252132,17.8615969 15.4990844,17.8910666 15.6755559,17.8930873 C16.3118453,17.9057419 16.8922829,17.5313769 17.1432271,16.9464161 C17.2511675,16.6952929 17.2900819,16.4198986 17.2553975,16.1435797 C17.2323588,15.885301 17.1400066,15.6380355 16.9983921,15.4405409 C16.8689172,15.2989671 16.7345695,15.1619681 16.5942715,15.0285608 L16.3792271,14.8310207 L16.0903018,14.5515058 L15.7901414,14.2324902 L15.2349405,13.6769425 L15.0890888,13.5124902 L15.0417204,13.4651218 L15.0042158,13.3306797 L15.0868705,12.994982 C15.1608456,12.6606769 15.211138,12.321532 15.2369478,11.9923668 C15.2281098,11.1034485 14.9046929,10.2463938 14.3216646,9.57037784 C13.6570232,8.75749254 12.6810102,8.26743622 11.6387197,8.21539934 L11.4294505,8.21086636 Z M13.3476198,9.6965151 C14.0198589,10.2694461 14.4088006,11.1070667 14.4111576,12.0120373 C14.3649777,12.3198523 14.2970286,12.6240051 14.2137829,12.8814803 C14.2137829,12.9311201 14.2079439,12.9724435 14.1947778,13.022019 L14.1440832,13.1870441 L14.118691,13.2419516 C14.0522123,13.3298274 14.0322853,13.4444074 14.0527246,13.5211022 C14.1202016,13.6383015 14.2043772,13.7447574 14.3068859,13.841042 L14.4155662,13.9339573 L14.5887907,14.0976266 L14.8681822,14.3758549 L15.1574244,14.6567861 L15.8791351,15.3928707 L15.9922285,15.6810766 L16.13288,15.824999 C16.2257468,15.925538 16.3128294,16.0312878 16.4156168,16.1864183 C16.5007658,16.4825256 16.3932533,16.8003885 16.1523115,16.9789139 C15.9165338,17.1760794 15.5824678,17.2043103 15.300756,17.0385085 C15.232339,16.9847839 15.168965,16.9249307 15.1045834,16.8513184 L15.0551422,16.7899197 L15.0009968,16.730632 L14.1993324,15.8816753 L12.9363158,14.6392632 L12.7608055,14.7421798 C11.9931606,15.156036 11.0815018,15.2136552 10.2665432,14.897836 C9.44518445,14.5795366 8.8095427,13.9161069 8.52584588,13.0950791 L8.4705012,12.9168007 C8.34510473,12.5392723 8.30198881,12.1400704 8.34310354,11.7459114 L8.37068916,11.5493759 L8.41818179,11.2807015 L9.76061187,12.623236 L9.9053639,12.7777175 L10.0010396,12.8859764 C10.0651676,12.9501705 10.1367186,13.0065515 10.2036501,13.0480617 C10.3433922,13.1179327 10.4671053,13.1001082 10.632185,12.9897491 L10.7669734,12.8889963 L10.9861565,12.6965674 L11.5600709,12.1133797 L11.782692,11.9103046 L11.9446555,11.7751739 C12.1481461,11.5916385 12.3225876,11.3781235 12.4491039,11.170369 C12.5053179,10.9966167 12.4442361,10.8640777 12.2264196,10.6274855 L12.1373144,10.5336023 L11.999073,10.4508698 L10.6349342,9.04236868 L11.1155525,8.98387695 C11.9241552,8.91270476 12.7286232,9.16896114 13.3476198,9.6965151 Z M6.84269393,1.16253178 L1.57359567,1.16235133 L1.43888573,1.16902506 C0.761855204,1.23374685 0.229573954,1.77084057 0.162048952,2.43886284 L0.154708131,2.57411183 L0.154708131,14.3533593 L0.160014448,14.4816351 C0.218150671,15.1646618 0.757246072,15.704612 1.43015201,15.7731111 L1.56641448,15.7804276 L6.93792852,15.7807481 L7.02863463,15.7749718 C7.32240942,15.7351178 7.5443092,15.4830318 7.5443092,15.1835855 C7.5443092,14.8839248 7.3234701,14.6358438 7.03566405,14.5932147 L6.9474671,14.5867434 L1.52483371,14.5805239 L1.47014422,14.5612025 C1.41412362,14.5317666 1.37342354,14.4806258 1.35679724,14.4211432 L1.34851973,14.359375 L1.35080137,5.80769662 L1.36357771,5.75111903 C1.38775365,5.68809466 1.43849836,5.6394861 1.50948141,5.61724294 L1.56641448,5.6056908 L6.85102547,5.60613115 L6.94762392,5.59889521 C7.06146418,5.58141103 7.16720647,5.53089994 7.25269574,5.45352749 L7.31282532,5.39055799 L8.59177269,3.8842422 L8.70153948,3.83411915 L16.2025589,3.91263182 L16.2864138,3.94034063 L16.3356093,3.97649598 C16.3640359,4.00492254 16.384158,4.0401012 16.3944142,4.07826234 L16.402204,4.13726973 L16.402078,12.9443037 L16.3977073,13.0394606 C16.403509,13.2377176 16.507752,13.4209316 16.6765867,13.5271029 C16.8707973,13.6492319 17.1178211,13.6492319 17.3120317,13.5271029 C17.478498,13.422421 17.5809044,13.2438953 17.5898602,13.0413601 L17.5864145,12.9383224 L17.586548,4.17184961 L17.5803629,4.02525676 C17.5501576,3.70088752 17.4085622,3.39646489 17.1790692,3.16415598 C16.9488481,2.93111016 16.6458712,2.7864416 16.3224197,2.75238681 L16.1826965,2.744629 L8.67006495,2.65936584 L8.57230426,2.61885141 L7.27175245,1.34615162 L7.19215299,1.27724336 C7.11615249,1.2217828 7.02837937,1.18526813 6.93614483,1.17026685 L6.84269393,1.16253178 Z M6.54957236,2.37516447 L6.64946662,2.41620024 L7.46420348,3.2214634 L7.47131866,3.41603629 L6.61868708,4.39182577 L6.51167764,4.44042764 L1.49062499,4.44042764 L1.34851973,4.29832238 L1.36842883,2.50157216 L1.40215218,2.45019325 C1.42884488,2.42057847 1.46269745,2.39865977 1.5024702,2.38630061 L1.56641448,2.37516447 L6.54957236,2.37516447 Z" id="形状结合" fill="#FFFFFF" fill-rule="nonzero"></path>
                <rect id="矩形" x="0" y="0" width="18" height="18"></rect>
            </g>
        </g>
    </g>
</svg>