<?xml version="1.0" encoding="UTF-8"?>
<svg width="18px" height="18px" viewBox="0 0 18 18" version="1.1" xmlns="http://www.w3.org/2000/svg" xmlns:xlink="http://www.w3.org/1999/xlink">
    <title>quotaManagement</title>
    <g id="页面-1" stroke="none" stroke-width="1" fill="none" fill-rule="evenodd">
        <g id="画板" transform="translate(-2694.000000, -143.000000)">
            <g id="quotaManagement" transform="translate(2694.000000, 143.000000)">
                <path d="M9.00426204,1.00004702 C7.80327694,0.996126326 6.61412745,1.23741347 5.50967119,1.7091733 C4.43806856,2.15936108 3.46241716,2.81027431 2.63525908,3.62685913 C1.8172238,4.45364443 1.16613072,5.43028404 0.717573247,6.50338788 C-0.239191082,8.75032228 -0.239191082,11.2900849 0.717573247,13.5370193 C1.1905842,14.6329357 1.87701759,15.623731 2.73685834,16.4516477 L15.2716657,16.4516477 C16.1277738,15.623643 16.8105949,14.6335884 17.2803676,13.5391359 C18.2386055,11.2925024 18.2386055,8.75213803 17.2803676,6.50550453 C16.386924,4.33358684 14.6645584,2.60741239 12.4946196,1.7091733 C11.3916336,1.23746453 10.2038752,0.99616734 9.00426204,1.00004702 Z M14.7319197,15.1626073 L3.278721,15.1626073 C1.97546284,13.7613354 1.26280027,11.9114454 1.28906902,9.99797874 C1.28466335,7.24273136 2.75189597,4.69484722 5.1371406,3.31571142 C6.31018041,2.63072932 7.64590095,2.27395229 9.00426204,2.28278572 C10.3626231,2.27395229 11.6983437,2.63072932 12.8713835,3.31571142 C14.0403706,3.98936988 15.0107542,4.95975353 15.6844127,6.12874065 C16.3739496,7.30114569 16.7344501,8.63784931 16.7279217,9.99797874 C16.7530161,11.9108416 16.0413678,13.7600662 14.7403863,15.1626073 L14.7319197,15.1626073 Z M3.57928545,9.63603141 L1.95369745,9.33546696 L2.12302954,8.43165697 L3.75073419,8.73222142 L3.57928545,9.63603141 Z M14.2683732,8.73222142 L15.8960778,8.42954032 L16.0548266,9.33335031 L14.4292386,9.63603141 L14.2683732,8.73222142 Z M5.14772386,6.14144055 L4.08939834,4.87144994 L4.79212649,4.2893709 L5.850452,5.55936153 L5.14772386,6.14144055 Z M12.8629169,6.14144055 L12.1580721,5.55724488 L13.2163976,4.28725425 L13.9212424,4.86933329 L12.8629169,6.14144055 Z M8.54283212,2.92413099 L9.46780861,2.92413099 L9.46780861,4.57300215 L8.54283212,4.57300215 L8.54283212,2.92413099 Z M9.04447841,10.0381951 L6.27166556,6.94365129 L7.81893746,10.7218734 C7.59673781,11.100712 7.56875807,11.5628698 7.74363139,11.9657478 C7.91850471,12.3686258 8.27521444,12.6638053 8.70369759,12.7602083 C9.06002043,12.8487475 9.43714951,12.7834604 9.74297325,12.580293 C10.0546533,12.3853601 10.2750361,12.0734689 10.3546854,11.7145827 C10.4456087,11.361076 10.3841882,10.9856429 10.1853533,10.6795404 C9.94070468,10.2824554 9.50663725,10.0417526 9.04024511,10.0445451 L9.04447841,10.0381951 Z" id="形状" fill="#FFFFFF" fill-rule="nonzero"></path>
                <rect id="矩形" x="0" y="0" width="18" height="18"></rect>
            </g>
        </g>
    </g>
</svg>