<?xml version="1.0" encoding="UTF-8"?>
<svg width="18px" height="18px" viewBox="0 0 18 18" version="1.1" xmlns="http://www.w3.org/2000/svg" xmlns:xlink="http://www.w3.org/1999/xlink">
    <title>quota</title>
    <g id="页面-1" stroke="none" stroke-width="1" fill="none" fill-rule="evenodd">
        <g id="画板" transform="translate(-1313.000000, -142.000000)">
            <g id="quota" transform="translate(1313.000000, 142.000000)">
                <path d="M12.455478,7.91008613 C12.6479978,7.91008613 12.8424428,7.92163732 13.0349625,7.94473969 C13.2987146,7.97554286 13.535514,8.13148388 13.6683526,8.36058241 L13.6683526,8.36058241 L14.344097,9.53110264 L15.6955858,9.53110264 C15.9593379,9.53110264 16.2115388,9.65816569 16.3713302,9.86993744 C16.6062044,10.1818195 16.8006493,10.5206543 16.9546652,10.8787411 C17.0586258,11.121316 17.0412991,11.4023949 16.9084604,11.6314934 L16.9084604,11.6314934 L16.232716,12.8039388 L16.9065352,13.9783094 C17.0393739,14.207408 17.0567006,14.4884868 16.95274,14.7310618 C16.7987241,15.0891485 16.602354,15.4279833 16.369405,15.7398654 C16.2115388,15.9516371 15.9574127,16.0787002 15.6936606,16.0787002 L15.6936606,16.0787002 L14.3421718,16.0787002 L13.6664274,17.2492204 C13.5335888,17.4783189 13.2967894,17.63426 13.0330373,17.6650631 C12.8405176,17.6881655 12.6460726,17.6997167 12.4535528,17.6997167 C12.261033,17.6997167 12.0665881,17.6881655 11.8740683,17.6650631 C11.6103162,17.63426 11.3735169,17.4783189 11.2406782,17.2492204 L11.2406782,17.2492204 L10.5649338,16.0787002 L9.21344501,16.0787002 C8.94969292,16.0787002 8.69749201,15.9516371 8.5377006,15.7398654 C8.30282648,15.4279833 8.10645631,15.0891485 7.95436568,14.7310618 C7.850405,14.4884868 7.86773178,14.207408 8.00057043,13.9783094 L8.00057043,13.9783094 L8.67631484,12.805864 L8.00057043,11.6334186 C7.86773178,11.40432 7.850405,11.1232412 7.95436568,10.8806663 C8.1083815,10.5225795 8.30475167,10.1837447 8.5377006,9.87186264 C8.69556682,9.66009089 8.94969292,9.53302784 9.21344501,9.53302784 L9.21344501,9.53302784 L10.5649338,9.53302784 L11.2426034,8.36058241 C11.3754421,8.13148388 11.6122414,7.97554286 11.8759935,7.94473969 C12.0685133,7.92163732 12.2629582,7.91008613 12.455478,7.91008613 Z M12.4535528,9.25916846 L12.2764346,9.26350015 L11.589139,10.459048 C11.4389736,10.7189497 11.1578947,10.8806663 10.8575639,10.8806663 L10.8575639,10.8806663 L9.4771971,10.8806663 C9.41366558,10.9788513 9.35398445,11.082812 9.30007891,11.1867727 L9.30007891,11.1867727 L9.9912249,12.3823205 C10.1413903,12.6422222 10.1413903,12.9656554 9.9912249,13.2255571 L9.9912249,13.2255571 L9.30007891,14.4211049 C9.35398445,14.5250656 9.41366558,14.6290263 9.4771971,14.7272114 L9.4771971,14.7272114 L10.8575639,14.7272114 C11.1578947,14.7272114 11.4389736,14.888928 11.589139,15.1488297 L11.589139,15.1488297 L12.2783598,16.3443775 C12.3977221,16.3501531 12.5151591,16.3501531 12.6325962,16.3443775 L12.6325962,16.3443775 L13.321817,15.1488297 C13.4719824,14.888928 13.7530613,14.7272114 14.0533922,14.7272114 L14.0533922,14.7272114 L15.4337589,14.7272114 C15.4972905,14.6290263 15.5569716,14.5250656 15.6108771,14.4211049 L15.6108771,14.4211049 L14.9197311,13.2255571 C14.7695657,12.9656554 14.7695657,12.6422222 14.9197311,12.3823205 L14.9197311,12.3823205 L15.6108771,11.1867727 C15.5569716,11.082812 15.4972905,10.9788513 15.4337589,10.8806663 L15.4337589,10.8806663 L14.051467,10.8806663 C13.7511361,10.8806663 13.4700572,10.7189497 13.3198918,10.459048 L13.3198918,10.459048 L12.630671,9.26350015 C12.5113088,9.25772456 12.3957969,9.25772456 12.2764346,9.26350015 Z M12.1450868,11.6550961 C12.5556664,11.5450741 12.9937536,11.6624511 13.2943252,11.9630124 C13.5948968,12.2635737 13.7122889,12.7016569 13.602281,13.1122402 C13.4922731,13.5228235 13.171578,13.8435296 12.7609984,13.9535516 C12.3504189,14.0635736 11.9123317,13.9461966 11.6117601,13.6456353 C11.3111885,13.345074 11.1937964,12.9069908 11.3038043,12.4964075 C11.4138122,12.0858242 11.7345073,11.7651181 12.1450868,11.6550961 Z M16.2923971,0.5 C16.95274,0.5 17.4917953,1.03713017 17.4917953,1.6993982 L17.4917953,1.6993982 L17.4917953,8.39138557 L16.1441569,8.39138557 L16.1441569,5.2071085 L1.84956362,5.2071085 L1.84956362,12.3572929 L6.47388861,12.3572929 L6.47388861,13.7049314 L1.6993982,13.7049314 C1.03713017,13.7049314 0.5,13.165876 0.5,12.5055332 L0.5,12.5055332 L0.5,1.6993982 C0.5,1.03713017 1.03905537,0.5 1.6993982,0.5 L1.6993982,0.5 Z M16.1441569,1.84763842 L1.84956362,1.84763842 L1.84956362,3.85947007 L16.1441569,3.85947007 L16.1441569,1.84763842 Z" id="形状结合" fill="#FFFFFF" fill-rule="nonzero"></path>
                <rect id="矩形" x="0" y="0" width="18" height="18"></rect>
            </g>
        </g>
    </g>
</svg>