<?xml version="1.0" encoding="UTF-8"?>
<svg width="18px" height="18px" viewBox="0 0 18 18" version="1.1" xmlns="http://www.w3.org/2000/svg" xmlns:xlink="http://www.w3.org/1999/xlink">
    <title>room</title>
    <g id="页面-1" stroke="none" stroke-width="1" fill="none" fill-rule="evenodd">
        <g id="画板" transform="translate(-1084.000000, -141.000000)">
            <g id="room" transform="translate(1084.000000, 141.000000)">
                <path d="M15.3725229,1.5 C15.5658225,1.5 15.7225229,1.65670034 15.7225229,1.85 L15.7225229,1.85 L15.7225229,3.06774009 L16.5705793,3.06774009 C16.7638789,3.06774009 16.9205793,3.22444043 16.9205793,3.41774009 L16.9205793,3.41774009 L16.9205793,16.3691311 C16.9205793,16.5624308 16.7638789,16.7191311 16.5705793,16.7191311 L16.5705793,16.7191311 L1.35931784,16.7191311 C1.16601817,16.7191311 1.00931784,16.5624308 1.00931784,16.3691311 L1.00931784,16.3691311 L1.00931784,3.41774009 C1.00931784,3.22444043 1.16601817,3.06774009 1.35931784,3.06774009 L1.35931784,3.06774009 L2.25360137,3.06774009 L2.25360137,1.85 C2.25360137,1.65670034 2.41030171,1.5 2.60360137,1.5 L2.60360137,1.5 Z M15.7702744,3.86804497 L2.15962271,3.86804497 C1.96632305,3.86804497 1.80962271,4.02474531 1.80962271,4.21804497 L1.80962271,4.21804497 L1.80962271,15.5688072 C1.80962271,15.7621068 1.96632305,15.9188072 2.15962271,15.9188072 L2.15962271,15.9188072 L2.71977896,15.9188072 L2.71977896,15.9188072 L2.79032746,15.9117056 C2.94981532,15.8790642 3.0697831,15.7379444 3.06976742,15.5688072 L3.06976742,15.5688072 L3.06974085,6.17044588 C3.06974085,5.97714622 3.22644119,5.82044588 3.41974085,5.82044588 L3.41974085,5.82044588 L7.9461128,5.82044588 C8.13941215,5.82044669 8.29611236,5.97714654 8.29611361,6.17044588 L8.29611361,6.17044588 L8.29613186,15.5688072 C8.29613186,15.7621068 8.4528322,15.9188072 8.64613186,15.9188072 L8.64613186,15.9188072 L15.7702744,15.9188072 C15.9635741,15.9188072 16.1202744,15.7621068 16.1202744,15.5688072 L16.1202744,15.5688072 L16.1202744,4.21804497 C16.1202744,4.02474531 15.9635741,3.86804497 15.7702744,3.86804497 L15.7702744,3.86804497 Z M7.14582698,14.8761052 L4.22006479,14.8761052 C4.02676512,14.8761052 3.87006479,15.0328055 3.87006479,15.2261052 L3.87006479,15.2261052 L3.87006479,15.522218 C3.87006479,15.7155177 4.02676512,15.872218 4.22006479,15.872218 L4.22006479,15.872218 L7.14582698,15.872218 C7.33912664,15.872218 7.49582698,15.7155177 7.49582698,15.522218 L7.49582698,15.522218 L7.49582698,15.2261052 C7.49582698,15.0328055 7.33912664,14.8761052 7.14582698,14.8761052 L7.14582698,14.8761052 Z M14.9137005,14.3068216 C15.1346989,14.3068216 15.3138529,14.4859756 15.3138529,14.7069741 C15.3138529,14.9279726 15.1346989,15.1071265 14.9137005,15.1071265 L14.9137005,15.1071265 L10.2859756,15.1071265 C10.0649771,15.1071265 9.88582317,14.9279726 9.88582317,14.7069741 C9.88582317,14.4859756 10.0649771,14.3068216 10.2859756,14.3068216 L10.2859756,14.3068216 Z M7.14580793,6.62075076 L4.22002668,6.62075076 C4.02672701,6.62075076 3.87002668,6.7774511 3.87002668,6.97075076 L3.87002668,6.97075076 L3.87002668,13.613205 C3.87002668,13.8065047 4.02672701,13.963205 4.22002668,13.963205 L4.22002668,13.963205 L7.14580793,13.963205 C7.33910759,13.963205 7.49580793,13.8065047 7.49580793,13.613205 L7.49580793,13.613205 L7.49580793,6.97075076 C7.49580793,6.7774511 7.33910759,6.62075076 7.14580793,6.62075076 L7.14580793,6.62075076 Z M14.9137005,12.5912538 C15.1346989,12.5912538 15.3138529,12.7704078 15.3138529,12.9914063 C15.3138529,13.2124047 15.1346989,13.3915587 14.9137005,13.3915587 L14.9137005,13.3915587 L10.2859756,13.3915587 C10.0649771,13.3915587 9.88582317,13.2124047 9.88582317,12.9914063 C9.88582317,12.7704078 10.0649771,12.5912538 10.2859756,12.5912538 L10.2859756,12.5912538 Z M14.3766768,6.13509909 L13.3271532,7.84447409 L14.7810595,7.84249238 L11.3269245,11.5264101 L12.6595274,8.83405107 L11.36492,8.85849848 L12.7550686,6.1449314 L14.3766768,6.13509909 Z M14.572218,2.30028582 L3.40390625,2.30028582 C3.21060659,2.30028582 3.05390625,2.45698616 3.05390625,2.65028582 L3.05390625,2.65028582 L3.05390625,3.02261814 L14.922218,3.02261814 L14.922218,2.65028582 C14.922218,2.45698616 14.7655177,2.30028582 14.572218,2.30028582 L14.572218,2.30028582 Z" id="形状结合" fill="#FFFFFF" fill-rule="nonzero"></path>
                <rect id="矩形" x="0" y="0" width="18" height="18"></rect>
            </g>
        </g>
    </g>
</svg>