<?xml version="1.0" encoding="UTF-8"?>
<svg width="18px" height="18px" viewBox="0 0 18 18" version="1.1" xmlns="http://www.w3.org/2000/svg" xmlns:xlink="http://www.w3.org/1999/xlink">
    <title>sensor</title>
    <g id="页面-1" stroke="none" stroke-width="1" fill="none" fill-rule="evenodd">
        <g id="画板" transform="translate(-1098.000000, -356.000000)">
            <g id="sensor" transform="translate(1098.000000, 356.000000)">
                <path d="M8.99512298,6.03924201 C7.39149269,6.03924201 6.0918957,7.38590652 6.0918957,9.04651327 C6.0918957,10.70712 7.39149269,12.0536893 8.99512298,12.0536893 C10.5987533,12.0536893 11.8988266,10.7067389 11.8988266,9.04651327 C11.8988266,7.38628763 10.5988485,6.03924201 8.99512298,6.03924201 Z M4.57525457,4.31870516 C2.32153995,6.99869522 2.32458886,11.0219198 4.57430178,13.7248719 L5.47125238,12.7951455 C3.71489087,10.6132708 3.71555781,7.42077841 5.47935104,5.255101 L4.57525457,4.31870516 Z M3.40495032,3.10647843 L2.52934208,2.2 C-0.83627114,5.79313797 -0.842750069,12.2590141 2.50780917,15.8647289 L3.40342587,14.9372892 C0.512965889,11.5627198 0.510393373,6.45665656 3.40495032,3.10647843 Z M13.4248051,4.31870516 L12.5196605,5.255101 C14.2841207,7.42077841 14.2848829,10.6128897 12.5285214,12.7951455 L13.4250909,13.7249672 C15.675566,11.0219198 15.6783291,6.99869522 13.4248051,4.31870516 Z M15.4709081,2.2 L14.5952046,3.10647843 C17.4891899,6.45675184 17.4868079,11.5627198 14.5962526,14.9372892 L15.4918693,15.8648241 C18.8430002,12.2590141 18.8360449,5.79313797 15.4709081,2.2 Z" id="形状" fill="#FFFFFF" fill-rule="nonzero"></path>
                <rect id="矩形" x="0" y="0" width="18" height="18"></rect>
            </g>
        </g>
    </g>
</svg>