<?xml version="1.0" encoding="UTF-8"?>
<svg width="18px" height="18px" viewBox="0 0 18 18" version="1.1" xmlns="http://www.w3.org/2000/svg" xmlns:xlink="http://www.w3.org/1999/xlink">
    <title>shift</title>
    <g id="页面-1" stroke="none" stroke-width="1" fill="none" fill-rule="evenodd">
        <g id="画板" transform="translate(-1534.000000, -357.000000)">
            <g id="shift" transform="translate(1534.000000, 357.000000)">
                <path d="M15.2206041,1 C16.0360667,1 16.9938518,1.85300561 16.9938518,2.82628776 C16.9979506,3.00223373 17,3.19079354 17,3.39196719 L17,3.39196719 L17,11.1803214 C17,11.3142109 16.9979506,11.4211646 16.9938518,11.5011825 C16.9938518,12.2006594 16.2003119,13.271968 15.2789066,13.271968 C15.1190165,13.2760432 14.9600369,13.2780808 14.8019678,13.2780808 L14.8019678,13.2780808 L11.417139,13.2780808 L11.417139,15.8875349 L14.2085408,15.8870793 L14.2085408,16.9995555 L3.79112266,16.9995555 L3.79112266,15.8870793 L6.58282557,15.8875349 L6.58282557,13.2780808 L2.63495083,13.2780808 L2.5002642,13.271968 C1.6693197,13.1882017 1,12.4135499 1,11.6578032 L1,11.6578032 L1,2.7466451 L1.00611278,2.61195847 C1,1.83479939 1.92000038,1 2.84368896,1 L2.84368896,1 Z M10.0519591,13.2755789 L7.94676866,13.2755789 L7.94676866,15.870492 L10.0519591,15.870492 L10.0519591,13.2755789 Z M14.5828078,2.11242969 L3.4171567,2.11242969 L3.28456254,2.1179686 C2.59054603,2.17670886 2.11242969,2.69717695 2.11242969,3.4171567 L2.11242969,3.4171567 L2.11242969,10.8609241 L2.1179686,10.9935183 C2.17670886,11.6875348 2.69717695,12.1656511 3.4171567,12.1656511 L3.4171567,12.1656511 L14.5828078,12.1656511 L14.715402,12.1601122 C15.4094185,12.101372 15.8875349,11.5809039 15.8875349,10.8609241 L15.8875349,10.8609241 L15.8875349,3.4171567 L15.8819959,3.28456254 C15.8232557,2.59054603 15.3027876,2.11242969 14.5828078,2.11242969 L14.5828078,2.11242969 Z M5.83362524,8.44312579 L4.72114903,8.44312579 L4.72114903,9.555602 L5.83362524,9.555602 L5.83362524,8.44312579 Z M9.555602,8.44312579 L8.44312579,8.44312579 L8.44312579,9.555602 L9.555602,9.555602 L9.555602,8.44312579 Z M13.2775788,8.44312579 L12.1651025,8.44312579 L12.1651025,9.555602 L13.2775788,9.555602 L13.2775788,8.44312579 Z M13.2775788,4.72114903 L4.72114903,4.72114903 L4.72114903,5.83362524 L13.2775788,5.83362524 L13.2775788,4.72114903 Z" id="形状" fill="#FFFFFF" fill-rule="nonzero"></path>
                <rect id="矩形" x="0" y="0" width="18" height="18"></rect>
            </g>
        </g>
    </g>
</svg>