<?xml version="1.0" encoding="UTF-8"?>
<svg width="18px" height="18px" viewBox="0 0 18 18" version="1.1" xmlns="http://www.w3.org/2000/svg" xmlns:xlink="http://www.w3.org/1999/xlink">
    <title>sitesettings</title>
    <g id="页面-1" stroke="none" stroke-width="1" fill="none" fill-rule="evenodd">
        <g id="画板" transform="translate(-3154.000000, -143.000000)">
            <g id="sitesettings" transform="translate(3154.000000, 143.000000)">
                <rect id="0" x="0" y="0" width="18" height="18"></rect>
                <path d="M8.96817301,-5.32907052e-14 C9.51180092,-5.32907052e-14 10.0034535,0.164285537 10.3822217,0.477016932 L10.5188494,0.601218667 L17.6069655,7.68933482 C18.0112848,8.09365408 18.1159911,8.7518079 17.8634385,9.25579159 C17.7174034,9.69389668 17.2631833,10.0187026 16.7290692,10.0660804 L16.5940083,10.0720501 L15.7640062,10.0221482 L15.763963,15.1569994 C15.7165245,16.2955231 14.8082238,17.2229423 13.7135878,17.3014352 L13.5632276,17.306817 L4.42200196,17.306817 C3.27344362,17.306817 2.35328573,16.4365964 2.27544319,15.3100702 L2.27010691,15.1549219 L2.32000888,10.0720501 L1.44010481,10.0720501 C0.877266189,10.0720501 0.324276889,9.71335436 0.124498585,9.21344449 C-0.103291807,8.75786372 -0.00886959657,8.16547546 0.329113836,7.74924365 L0.427270752,7.64032853 L7.46411117,0.652527566 C7.82185201,0.243680891 8.37690293,-5.32907052e-14 8.96817301,-5.32907052e-14 Z M8.91928946,1.07747513 C8.68734406,1.07747513 8.44728242,1.1760116 8.29166516,1.32598755 L8.22132207,1.40504411 L1.23097303,8.39539315 C1.1441963,8.48216987 1.10343521,8.65880125 1.13944083,8.77237853 C1.21283167,8.88246479 1.31258185,8.95861877 1.41348688,8.98467691 L1.48898836,8.99457499 L2.85772804,8.99457499 C3.14650334,8.99457499 3.35186053,9.17105464 3.39004421,9.44025857 L3.3964656,9.53331255 L3.3964656,15.1549219 C3.39646562,15.676695 3.8454165,16.1604308 4.35979897,16.2226099 L4.47088552,16.2293418 L13.5632276,16.2293418 C14.1152312,16.2293418 14.57331,15.7956726 14.6711714,15.2293207 L14.6865311,15.1060384 L14.6865311,9.53331255 C14.6865311,9.24453725 14.8630107,9.03918007 15.1322147,9.00099639 L15.2252687,8.99457499 L16.5940083,8.99457499 C16.7410768,8.99457499 16.8862913,8.92196774 16.8915596,8.87550944 C16.9529053,8.75281803 16.9292494,8.61378875 16.8541236,8.5053174 L16.8031401,8.44427671 L9.71502395,1.35616054 C9.53293448,1.17407106 9.25522118,1.07747513 8.91928946,1.07747513 Z M10.942979,8.01626729 C11.0063838,8.01626729 11.0521762,8.04562139 11.0838786,8.10785208 C11.1108844,8.16421195 11.1050136,8.22996513 11.0686145,8.27928001 L11.0686145,8.27928001 L9.55746552,10.1966897 L11.56646,10.1966897 C11.6298649,10.1966897 11.6920956,10.227218 11.7073597,10.2882745 C11.7390621,10.3516794 11.7226238,10.4150842 11.6756573,10.4608766 L11.6756573,10.4608766 L7.93829345,14.5093939 C7.91011352,14.5399221 7.87019195,14.5563604 7.82909621,14.5552451 C7.79856795,14.5552451 7.78330382,14.5552451 7.75160139,14.5399221 C7.69054486,14.5058714 7.65884244,14.4365957 7.67410657,14.3684942 L7.67410657,14.3684942 L8.4056107,11.5974673 L6.42831863,11.5974673 C6.36961044,11.5998156 6.3155989,11.5692874 6.2862448,11.5199725 C6.25454237,11.4730059 6.25454237,11.4119494 6.2862448,11.3649828 L6.2862448,11.3649828 L7.99934998,8.09493628 C8.02870408,8.04562139 8.08271562,8.01626729 8.14024965,8.01626729 L8.14024965,8.01626729 Z" id="形状结合" fill="#FFFFFF" fill-rule="nonzero"></path>
            </g>
        </g>
    </g>
</svg>