<?xml version="1.0" encoding="UTF-8"?>
<svg width="18px" height="18px" viewBox="0 0 18 18" version="1.1" xmlns="http://www.w3.org/2000/svg" xmlns:xlink="http://www.w3.org/1999/xlink">
    <title>编组 39</title>
    <g id="页面-1" stroke="none" stroke-width="1" fill="none" fill-rule="evenodd">
        <g id="画板" transform="translate(-2907.000000, -125.000000)">
            <g id="编组-39" transform="translate(2907.000000, 125.000000)">
                <path d="M3.76126019,2.58750001 C3.83806822,2.48401723 3.95928977,2.422953 4.08816236,2.42282609 L12.2289232,2.42282609 C12.3577958,2.422953 12.4790174,2.48401723 12.5558254,2.58750001 L14.6982167,5.4798913 L1.61886889,5.4798913 L3.76126019,2.58750001 L3.76126019,2.58750001 Z M1.22919497,6.70271739 L15.0878906,6.70271739 L15.0878906,8.53695652 L15.8052819,8.53695652 C15.9862602,8.53695652 16.1599015,8.58586957 16.3107167,8.67554347 L16.3107167,6.14021739 C16.3107167,5.79087556 16.1983012,5.45080486 15.9903363,5.1701087 L13.5389776,1.86032609 C13.2314056,1.44485793 12.7450358,1.19999994 12.228108,1.19999994 L4.08897758,1.19999994 C3.57233692,1.19999994 3.08632443,1.44508869 2.77892324,1.86032609 L0.326749314,5.1701087 C0.118784429,5.45080486 0.0063688795,5.79087556 0.0063688795,6.14021739 L0.0063688795,14.2434783 C0.0063688795,14.6758965 0.178146339,15.0906039 0.483912176,15.3963698 C0.789678013,15.7021356 1.20438548,15.873913 1.63680367,15.873913 L10.4232167,15.873913 L9.73517323,14.651087 L1.63680367,14.651087 C1.52869913,14.651087 1.42502226,14.6081426 1.34858079,14.5317011 C1.27213933,14.4552597 1.22919497,14.3515828 1.22919497,14.2434783 L1.22919497,6.70271739 Z M12.4710428,15.4663044 L11.0688689,13.0206522 L12.4710428,10.575 L15.2590863,10.575 L16.6612602,13.0206522 L15.2590863,15.4663044 L12.4710428,15.4663044 Z M17.8286515,13.4445652 C17.9792653,13.1820236 17.9792653,12.8592808 17.8286515,12.5967391 L16.2112602,9.77608695 C16.0620178,9.51421774 15.783867,9.35242983 15.4824558,9.35217392 L12.2476732,9.35217392 C11.946858,9.35217392 11.6688689,9.51358696 11.5188689,9.77608695 L9.90147758,12.5967391 C9.7508638,12.8592808 9.7508638,13.1820236 9.90147758,13.4445652 L11.5188689,16.2652174 C11.6696841,16.5277174 11.946858,16.6891304 12.2476732,16.6891304 L15.4824558,16.6891304 C15.7832711,16.6891304 16.0612602,16.5277174 16.2112602,16.2652174 L17.8286515,13.4445652 Z M13.8650645,14.2434783 C14.5404127,14.2434783 15.0878906,13.6960004 15.0878906,13.0206522 C15.0878906,12.345304 14.5404127,11.7978261 13.8650645,11.7978261 C13.1897163,11.7978261 12.6422385,12.345304 12.6422385,13.0206522 C12.6422385,13.6960004 13.1897163,14.2434783 13.8650645,14.2434783 Z M3.47104281,9.55597825 L6.32430367,9.55597825 L6.32430367,8.74076088 L3.47104281,8.74076088 L3.47104281,9.55597825 L3.47104281,9.55597825 Z M2.45202105,8.12934783 C2.45202105,8.02124328 2.49496541,7.91756641 2.57140687,7.84112495 C2.64784834,7.76468348 2.75152521,7.72173912 2.85962976,7.72173912 L6.93571671,7.72173912 C7.04382126,7.72173912 7.14749813,7.76468349 7.22393959,7.84112495 C7.30038104,7.91756641 7.3433254,8.02124328 7.3433254,8.12934783 L7.3433254,10.1673913 C7.3433254,10.2754958 7.30038104,10.3791727 7.22393959,10.4556142 C7.14749813,10.5320556 7.04382126,10.575 6.93571671,10.575 L2.85962976,10.575 C2.75152521,10.575 2.64784834,10.5320556 2.57140687,10.4556142 C2.49496541,10.3791727 2.45202105,10.2754959 2.45202105,10.1673913 L2.45202105,8.12934783 Z" id="形状" fill="#FFFFFF" fill-rule="nonzero"></path>
                <rect id="矩形" x="0" y="0" width="18" height="18"></rect>
            </g>
        </g>
    </g>
</svg>