<?xml version="1.0" encoding="UTF-8"?>
<svg width="18px" height="18px" viewBox="0 0 18 18" version="1.1" xmlns="http://www.w3.org/2000/svg" xmlns:xlink="http://www.w3.org/1999/xlink">
    <title>statistics</title>
    <g id="页面-1" stroke="none" stroke-width="1" fill="none" fill-rule="evenodd">
        <g id="画板" transform="translate(-1539.000000, -318.000000)">
            <g id="statistics" transform="translate(1539.000000, 318.000000)">
                <path d="M8.32470251,2.0710413 L8.3253309,9.17979033 L8.46018399,9.31464343 L15.5733262,9.31427084 L15.5738493,9.86193382 L15.5685993,10.1546199 C15.4580673,13.1690255 13.6112939,15.8601082 10.8160211,17.0395899 C8.87910392,17.8556513 6.6947721,17.8556513 4.75778778,17.0395616 C1.87241345,15.822061 -0.00235109526,12.9938357 9.5355836e-06,9.86203588 C-0.00322645429,7.79676965 0.81727942,5.81581023 2.27967193,4.35792815 C3.73699161,2.89299947 5.71807043,2.07034739 7.78386062,2.0720562 L7.78386062,2.0720562 L8.32470251,2.0710413 Z M7.24156243,3.20297092 L7.09364236,3.20297092 C3.68447628,3.56185431 1.09459143,6.43370242 1.0886783,9.86170121 C1.08883207,13.4240784 3.87810772,16.3624208 7.43541608,16.5478653 C10.9927244,16.7333097 14.0724055,14.1009193 14.4429446,10.558105 L14.4429446,10.558105 L14.4429446,10.4092242 L14.3088231,10.4092242 L7.24156243,10.4081992 L7.24261345,3.33708296 L7.24156243,3.20297092 Z M14.9316497,1 C15.1004885,1.00642807 15.2545661,1.09798142 15.3409358,1.24319899 L15.3409358,1.24319899 L17.001807,4.13192842 C17.0695731,4.28491542 17.0695731,4.45940771 17.001807,4.61239471 L17.001807,4.61239471 L15.3409358,7.50705583 C15.2602994,7.65712761 15.1019513,7.74892362 14.9316497,7.74432313 L14.9316497,7.74432313 L11.580249,7.74432313 C11.4122705,7.74025876 11.2579643,7.65080587 11.1709629,7.50705583 L11.1709629,7.50705583 L9.51009181,4.61239471 C9.41465841,4.46645599 9.41465841,4.27786714 9.51009181,4.13192842 L9.51009181,4.13192842 L11.1709629,1.24319899 C11.2529825,1.09370461 11.4097338,1.00056252 11.580249,1 L11.580249,1 Z M14.6172705,1.96686428 L11.8471748,1.96686428 L10.4472977,4.37512741 L11.8471748,6.78339055 L14.6291339,6.78339055 L16.0171476,4.37512741 L14.6172705,1.96686428 Z M13.2411202,2.68458722 C13.6854369,2.69157802 14.1092767,2.87261513 14.421525,3.18879088 C15.0665702,3.84815832 15.0665702,4.90209651 14.421525,5.56146394 C13.7621576,6.20650911 12.7082194,6.20650911 12.048852,5.56146394 C11.7328485,5.24766794 11.5555591,4.82046461 11.5565223,4.37512741 C11.5533513,3.92683553 11.7296254,3.4958999 12.046066,3.17834512 C12.3625065,2.86079033 12.7928199,2.68300254 13.2411202,2.68458722 Z M13.6246707,3.69417166 C13.3914399,3.54995832 13.0967321,3.54995832 12.8635013,3.69417166 C12.6302705,3.838385 12.4985857,4.10203582 12.5233866,4.37512741 C12.5190367,4.56831162 12.594074,4.75483288 12.7309955,4.8911838 C13.016562,5.16920748 13.47161,5.16920748 13.7571766,4.8911838 C13.894098,4.75483288 13.9691353,4.56831161 13.9647855,4.37512741 C13.9895863,4.10203582 13.8579015,3.838385 13.6246707,3.69417166 Z" id="形状结合" fill="#FFFFFF" fill-rule="nonzero"></path>
                <rect id="矩形" x="0" y="0" width="18" height="18"></rect>
            </g>
        </g>
    </g>
</svg>