<?xml version="1.0" encoding="UTF-8"?>
<svg width="18px" height="18px" viewBox="0 0 18 18" version="1.1" xmlns="http://www.w3.org/2000/svg" xmlns:xlink="http://www.w3.org/1999/xlink">
    <title>storageEnvironment</title>
    <g id="页面-1" stroke="none" stroke-width="1" fill="none" fill-rule="evenodd">
        <g id="画板" transform="translate(-431.000000, -235.000000)">
            <g id="storageEnvironment" transform="translate(431.000000, 235.000000)">
                <path d="M15.7625,15.75 C16.1490993,15.75 16.4625,16.0634007 16.4625,16.45 L16.4625,16.4578212 C16.4625,16.8444206 16.1490993,17.1578212 15.7625,17.1578212 L2.1625,17.1578212 C1.77590068,17.1578212 1.4625,16.8444206 1.4625,16.4578212 L1.4625,16.45 C1.4625,16.0634007 1.77590068,15.75 2.1625,15.75 L15.7625,15.75 Z M16.7932961,1 C17.4597403,1 18,1.54025974 18,2.20670391 L18,2.20670391 L18,12.2681564 C18,12.9346006 17.4597403,13.4748603 16.7932961,13.4748603 L16.7932961,13.4748603 L1.20670391,13.4748603 C0.540259743,13.4748603 0,12.9346006 0,12.2681564 L0,12.2681564 L0,2.20670391 C0,1.54025974 0.540259743,1 1.20670391,1 L1.20670391,1 Z M16.5921788,2.40782123 L1.40782123,2.40782123 L1.40782123,12.0670391 L16.5921788,12.0670391 L16.5921788,2.40782123 Z M7.75500885,4.0417964 C8.83024949,3.78411639 10.1959985,3.6296433 12.0910483,3.76545371 L12.0910483,3.76545371 L12.5783018,3.76545371 C12.7680766,3.76545371 12.9506562,3.84729971 13.0772476,3.99030537 L13.0772476,3.99030537 L13.0889399,4.00424617 C13.2155314,4.1566956 13.269271,4.3534408 13.2371172,4.5436653 L13.2371172,4.5436653 C12.9839342,6.00295258 12.5857219,7.20455985 12.0516992,8.12060552 C11.5783865,8.93569278 10.9906242,9.54009405 10.3041521,9.91717028 C9.75349041,10.2193709 9.15381103,10.3715955 8.51680627,10.3715955 C8.39965856,10.3715955 8.28003748,10.3646251 8.16761165,10.3551813 C7.64280787,10.3106607 7.21424061,10.1723769 6.94711683,10.064673 C6.81580346,10.0131819 6.68943683,9.94999862 6.56756723,9.87737154 C6.48796974,9.83285091 6.49021826,9.8654544 6.43872723,9.79305217 C6.25367431,10.1582113 6.06165099,10.5074059 6.06165099,11.0625646 C6.06389951,11.2383986 5.99374579,11.4068125 5.86715431,11.533404 C5.73808945,11.657747 5.57192408,11.7279007 5.39384156,11.7279007 C5.0262091,11.7279007 4.72625698,11.430422 4.72625698,11.0625646 C4.72625698,10.0716434 4.99787779,9.58911171 5.49457511,8.79740901 C5.39609008,8.6262969 5.31874111,8.44596587 5.26027968,8.25843958 C5.03070613,7.50878415 5.08691905,6.74518791 5.20631528,6.32111768 C5.38439779,5.68163956 5.69356883,5.18269372 6.14799403,4.79617372 C6.55789861,4.44697909 7.0849509,4.20121622 7.75500885,4.0417964 Z M11.760966,5.10039801 C10.0907679,4.94345156 8.89590617,5.13322636 8.02460599,5.34863425 C7.14138867,5.56876402 6.74317638,5.95303551 6.53946077,6.68155489 C6.49966203,6.82680906 6.43175683,7.12203929 6.48324786,7.49214513 C6.53721226,7.43593221 6.56756723,7.40310387 6.62378015,7.34689095 C7.12519935,6.84794512 7.69677227,6.42634826 8.27531559,6.12414762 C8.87274645,5.81272807 9.44431937,5.64858636 9.93157292,5.64858636 C10.2994302,5.64858636 10.5991575,5.94853848 10.5991575,6.31392243 C10.5991575,6.67930637 10.2290517,7.02602763 9.86119435,7.02602763 C9.5963191,7.02602763 9.28962143,7.09618135 8.89365766,7.30237032 C8.43451057,7.54363616 7.97536348,7.88338701 7.56770742,8.28856971 C7.49980221,8.35422639 7.43167216,8.41988308 7.35926993,8.48778828 L7.35926993,8.48778828 L7.34510427,8.50195393 C7.28192095,8.56064022 7.21873764,8.62157502 7.15060759,8.68206011 C7.18343593,8.6937524 7.21401575,8.71016657 7.24437073,8.72658074 L7.24437073,8.72658074 C7.31250078,8.76885285 7.38040598,8.8016812 7.44831118,8.82978765 C7.6403345,8.90938514 8.03382491,9.04047366 8.50938617,9.04047366 C8.91704223,9.04047366 9.30356223,8.94198863 9.65500538,8.74996531 C10.6200687,8.2206645 11.3276769,6.99319929 11.760966,5.10039801 Z" id="形状结合" fill="#FFFFFF" fill-rule="nonzero"></path>
                <rect id="矩形" x="0" y="0" width="18" height="18"></rect>
            </g>
        </g>
    </g>
</svg>