<?xml version="1.0" encoding="UTF-8"?>
<svg width="18px" height="18px" viewBox="0 0 18 18" version="1.1" xmlns="http://www.w3.org/2000/svg" xmlns:xlink="http://www.w3.org/1999/xlink">
    <title>storageDevice</title>
    <g id="页面-1" stroke="none" stroke-width="1" fill="none" fill-rule="evenodd">
        <g id="画板" transform="translate(-418.000000, -192.000000)">
            <g id="storageDevice" transform="translate(418.000000, 192.000000)">
                <path d="M15.4646465,10.2352092 L2.53535353,10.2352092 C1.73728074,10.2352092 1.08142627,10.8441183 1.00702842,11.622698 L1,11.7705628 L1,15.4646465 C1,16.2627193 1.60890901,16.9185737 2.38748874,16.9929716 L2.53535353,17 L15.4646465,17 C16.2627193,17 16.9185737,16.391091 16.9929716,15.6125113 L17,15.4646465 L17,11.7705628 C17,11.3633617 16.83824,10.9728385 16.5503054,10.6849039 C16.2983626,10.4329611 15.9678754,10.2776207 15.6163973,10.2427222 L15.4646465,10.2352092 Z M15.7763348,11.4588745 L15.7763348,15.7763348 L2.22366522,15.7763348 L2.22366522,11.4588745 L15.7763348,11.4588745 Z M13.3054545,13.0051948 L10.2342857,13.0051948 L10.2342857,14.2290909 L13.3054545,14.2290909 L13.3054545,13.0051948 Z M15.4646465,1 L2.53535353,1 C1.73728074,1 1.08142627,1.60890901 1.00702842,2.38748874 L1,2.53535353 L1,6.22943723 C1,7.02751002 1.60890901,7.68336449 2.38748874,7.75776234 L2.53535353,7.76479076 L15.4646465,7.76479076 C16.2627193,7.76479076 16.9185737,7.15588175 16.9929716,6.37730202 L17,6.22943723 L17,2.53535353 C17,1.73728074 16.391091,1.08142627 15.6125113,1.00702842 L15.4646465,1 Z M15.7763348,2.22366522 L15.7763348,6.54112554 L2.22366522,6.54112554 L2.22366522,2.22366522 L15.7763348,2.22366522 Z M13.3054545,3.76987013 L10.2342857,3.76987013 L10.2342857,4.99376623 L13.3054545,4.99376623 L13.3054545,3.76987013 Z" id="形状" fill="#FFFFFF" fill-rule="nonzero"></path>
                <rect id="矩形" x="0" y="0" width="18" height="18"></rect>
            </g>
        </g>
    </g>
</svg>