<?xml version="1.0" encoding="UTF-8"?>
<svg width="18px" height="18px" viewBox="0 0 18 18" version="1.1" xmlns="http://www.w3.org/2000/svg" xmlns:xlink="http://www.w3.org/1999/xlink">
    <title>strategy</title>
    <g id="页面-1" stroke="none" stroke-width="1" fill="none" fill-rule="evenodd">
        <g id="画板" transform="translate(-406.000000, -305.000000)">
            <g id="strategy" transform="translate(406.000000, 305.000000)">
                <path d="M15.7625,15.75 C16.1168827,15.75 16.4097582,16.0133436 16.4561098,16.3550141 L16.4625,16.4578212 C16.4625,16.8444206 16.1490993,17.1578212 15.7625,17.1578212 L2.1625,17.1578212 C1.80811729,17.1578212 1.51524177,16.8944776 1.46889017,16.5528071 L1.4625,16.45 C1.4625,16.0634007 1.77590068,15.75 2.1625,15.75 L15.7625,15.75 Z M16.7932961,1 C17.4180875,1 17.9319746,1.47483766 17.9937699,2.08332545 L18,2.20670391 L18,12.2681564 C18,12.8929478 17.5251623,13.406835 16.9166746,13.4686303 L16.7932961,13.4748603 L1.20670391,13.4748603 C0.581912504,13.4748603 0.0680253758,13.0000227 0.00623007626,12.3915349 L0,12.2681564 L0,2.20670391 C0,1.5819125 0.474837665,1.06802538 1.08332545,1.00623008 L1.20670391,1 L16.7932961,1 Z M16.5921788,2.40782123 L1.40782123,2.40782123 L1.40782123,12.0670391 L16.5921788,12.0670391 L16.5921788,2.40782123 Z M6.50982143,7.82714286 L7.21892857,8.73 L4.65,10.7473214 L3.6,9.41625 L4.50142857,8.70517857 L4.84196429,9.13678571 L6.50982143,7.82714286 Z M14.6789286,8.48678571 L14.6789286,9.63482143 L8.16928571,9.63482143 L8.16928571,8.48678571 L14.6789286,8.48678571 Z M6.50982143,4.5 L7.21892857,5.40285714 L4.65,7.42017857 L3.6,6.08928571 L4.50142857,5.37821429 L4.84196429,5.80964286 L6.50982143,4.5 Z M14.6789286,5.31303571 L14.6789286,6.46107143 L8.16928571,6.46107143 L8.16928571,5.31303571 L14.6789286,5.31303571 Z" id="形状" fill="#FFFFFF" fill-rule="nonzero"></path>
                <rect id="矩形" x="0" y="0" width="18" height="18"></rect>
            </g>
        </g>
    </g>
</svg>