<?xml version="1.0" encoding="UTF-8"?>
<svg width="18px" height="18px" viewBox="0 0 18 18" version="1.1" xmlns="http://www.w3.org/2000/svg" xmlns:xlink="http://www.w3.org/1999/xlink">
    <title>线路设置</title>
    <g id="页面-1" stroke="none" stroke-width="1" fill="none" fill-rule="evenodd">
        <g id="画板" transform="translate(-2904.000000, -474.000000)">
            <g id="线路设置" transform="translate(2904.000000, 474.000000)">
                <path d="M15.8514286,1.05 L2.14285714,1.05 C1.5795267,1.05 1.11574642,1.47622492 1.05641274,2.02377832 L1.05,2.14285714 L1.05,15.8571429 C1.05,16.4204733 1.47622492,16.8842536 2.02377832,16.9435873 L2.14285714,16.95 L15.8514286,16.95 C16.414759,16.95 16.8785393,16.5237751 16.937873,15.9762217 L16.9442857,15.8571429 L16.9442857,2.14285714 C16.9442857,1.5795267 16.5180608,1.11574642 15.9705074,1.05641274 L15.8514286,1.05 Z M15.1371429,2.23571429 C15.4491479,2.23571429 15.7074484,2.46565069 15.7518335,2.7653127 L15.7585714,2.85714286 L15.7585714,15.1428571 C15.7585714,15.4548622 15.528635,15.7131627 15.228973,15.7575478 L15.1371429,15.7642857 L2.85714286,15.7642857 C2.54513784,15.7642857 2.28683734,15.5343493 2.24245217,15.2346873 L2.23571429,15.1428571 L2.23571429,2.85714286 C2.23571429,2.54513784 2.46565069,2.28683734 2.7653127,2.24245217 L2.85714286,2.23571429 L15.1371429,2.23571429 Z M12.4099585,3.02759811 L12.384908,3.03233712 L12.3636673,3.04643974 L12.3497587,3.06726735 L12.3448565,3.09232753 L12.2994286,4.07971429 L6.24228571,4.07971429 C4.3437426,4.07971429 3.33571429,5.20306787 3.33571429,6.85714286 C3.33571429,8.40308204 4.25005264,9.40091182 6.03274001,9.47270451 L6.24228571,9.47685714 L11.8971429,9.47685714 C12.8245297,9.47685714 13.4557143,10.172708 13.4557143,11.1428571 C13.4557143,12.0241651 12.9258455,12.5657459 12.0544293,12.6232014 L11.8971429,12.6282857 L5.36028571,12.5782857 L5.3602921,11.6129152 C5.36070881,11.5868452 5.34533771,11.5631056 5.32137991,11.5528178 C5.30540804,11.5459593 5.28772899,11.5459851 5.27206731,11.5523031 L5.25055337,11.5664252 L3.55812727,13.1845714 C3.54555608,13.1966882 3.53845418,13.2133972 3.53845418,13.2308571 L3.54354877,13.2559771 L3.55790522,13.2769301 L5.2504594,14.8883423 C5.26917618,14.9061151 5.29671264,14.9110786 5.32035121,14.9008679 C5.33613774,14.8940488 5.34818791,14.8813794 5.35441955,14.8659561 L5.35914286,14.8411429 L5.40914286,13.8357143 L12.0914947,13.8358275 C13.793909,13.7210814 14.6642857,12.7112439 14.6642857,11.1428571 C14.6642857,9.55270705 13.8027216,8.39127793 12.2741766,8.30742742 L12.0948571,8.30257143 L6.24228571,8.30257143 C5.26182156,8.30257143 4.60371429,7.7271443 4.60371429,6.80571429 C4.60371429,5.94165809 5.18255428,5.40513044 6.0805548,5.3481831 L6.24228571,5.34314286 L12.3437141,5.39299026 L12.3471415,6.5169426 C12.3469437,6.54358948 12.3632061,6.56759596 12.3880257,6.57729558 C12.4045721,6.58376199 12.4226346,6.58297598 12.4382618,6.57576683 L12.4593824,6.56023942 L14.0938424,4.8023386 C14.1096623,4.78549719 14.1146829,4.76231623 14.1089644,4.74138893 L14.09234,4.71276236 L12.4554277,3.04726918 C12.443266,3.03465073 12.4267994,3.02781627 12.4099585,3.02759811 Z" id="形状" fill="#FFFFFF" fill-rule="nonzero"></path>
                <rect id="矩形" x="0" y="0" width="18" height="18"></rect>
            </g>
        </g>
    </g>
</svg>