<?xml version="1.0" encoding="UTF-8"?>
<svg width="18px" height="18px" viewBox="0 0 18 18" version="1.1" xmlns="http://www.w3.org/2000/svg" xmlns:xlink="http://www.w3.org/1999/xlink">
    <title>区域设置</title>
    <g id="页面-1" stroke="none" stroke-width="1" fill="none" fill-rule="evenodd">
        <g id="画板" transform="translate(-2903.000000, -503.000000)">
            <g id="区域设置" transform="translate(2903.000000, 503.000000)">
                <path d="M5.4041008,12.3553457 C5.295178,12.0422436 4.99699521,11.8489085 4.69270131,11.8950826 L4.60141295,11.9162398 C2.22885364,12.419916 1,13.2844215 1,14.4581461 C1,16.2672842 4.39709571,17.4467148 8.74817184,17.4982405 L9.04628571,17.5 C13.5393076,17.5 17.0925714,16.308401 17.0925714,14.4581461 C17.0925714,13.4491284 16.1952677,12.5616108 14.0145165,12.0409258 C13.5694835,11.9349277 13.2075935,12.124206 13.0830607,12.4821771 C12.9744039,12.7904747 13.1834529,13.1230135 13.5370549,13.2370116 C14.8478541,13.5492181 15.8474286,14.1566454 15.8474286,14.459374 C15.8474286,15.1673111 12.647991,16.1855698 9.04628571,16.1855698 C5.32615283,16.1855698 2.24514286,15.2471457 2.24514286,14.4581461 C2.24514286,14.0663839 3.19807572,13.5566542 4.94161283,13.1125682 C5.30314574,12.9978483 5.51202553,12.6655787 5.4041008,12.3553457 Z M9.04628571,0.5 C5.63943789,0.5 2.83985714,3.13562979 2.83985714,6.42748796 C2.83985714,8.34907827 4.80960847,11.1544394 7.67990398,13.8986793 C8.04498198,14.3643298 8.53594191,14.614366 9.04628571,14.614366 C9.52419351,14.614366 10.0264667,14.3901724 10.4187119,14.0168388 L10.9987665,13.4212212 C13.7208246,10.5818009 15.2527143,8.31227525 15.2527143,6.55273676 C15.2527143,3.23700679 12.4271983,0.5 9.04628571,0.5 Z M9.04623677,1.68918139 C11.7295142,1.68918139 14.0075714,3.86485402 14.0075714,6.42748796 C14.0075714,7.84505687 12.411892,10.2499893 9.64461249,13.0185146 C9.50583515,13.1579077 9.31325566,13.2368205 9.11185714,13.2368205 C8.91045862,13.2368205 8.71787914,13.1579077 8.58252079,13.0217864 C5.80590791,10.4902879 4.08628571,7.91806426 4.08628571,6.42748796 C4.08628571,3.86547578 6.36368091,1.69043543 9.04623677,1.68918139 Z M9.04628571,4.01433387 C7.3927999,4.01433387 6.12485714,5.22529044 6.12485714,6.80446228 C6.12485714,8.38284054 7.39325456,9.59459069 9.04628571,9.59459069 C10.6984858,9.59459069 11.9677143,8.38240619 11.9677143,6.80446228 C11.9677143,5.22572466 10.6989406,4.01433387 9.04628571,4.01433387 Z M9.04628571,5.32876404 C9.89008557,5.32876404 10.5914286,5.99817634 10.5914286,6.80446228 C10.5914286,7.63153452 9.87146238,8.40540931 9.04628571,8.40540931 C8.18222598,8.40540931 7.50114286,7.71435672 7.50114286,6.80446228 C7.50114286,5.99858602 8.20205691,5.32876404 9.04628571,5.32876404 Z" id="形状结合" fill="#FFFFFF" fill-rule="nonzero"></path>
                <rect id="矩形" opacity="0.200000003" x="0" y="0" width="18" height="18"></rect>
            </g>
        </g>
    </g>
</svg>