<?xml version="1.0" encoding="UTF-8"?>
<svg width="19px" height="19px" viewBox="0 0 19 19" version="1.1" xmlns="http://www.w3.org/2000/svg" xmlns:xlink="http://www.w3.org/1999/xlink">
    <title>streetLightInfo</title>
    <g id="页面-1" stroke="none" stroke-width="1" fill="none" fill-rule="evenodd">
        <g id="画板" transform="translate(-2904.000000, -389.000000)">
            <g id="streetLightInfo" transform="translate(2904.000000, 389.000000)">
                <path d="M13.7956894,11.7466396 C15.121782,11.7466396 16.1968011,12.8214758 16.1968011,14.1473684 C16.1968011,14.9509445 15.7975452,15.6920717 15.1408862,16.1363215 L15.0297368,16.2053684 L15.0300835,16.7813455 L15.0271433,16.819927 C15.0064959,16.9720965 14.8919117,17.0920853 14.7458428,17.1232623 L14.6704737,17.1311877 L12.9108381,17.1308495 L12.872255,17.1279103 C12.7200757,17.1072685 12.6000663,16.9927012 12.5688836,16.8466408 L12.5609568,16.7712751 L12.5607368,16.2063684 L12.522342,16.1830911 C11.9218974,15.8071072 11.5222248,15.1906679 11.4202867,14.4988152 L11.401061,14.3243764 L11.3945777,14.1473684 C11.3945777,12.8214758 12.4695968,11.7466396 13.7956894,11.7466396 Z M13.1982666,1 C14.5211043,1 15.6031095,2.03112679 15.6843838,3.33348207 L15.6892846,3.49101796 L15.6892846,8.7348206 C15.6892846,9.05230165 15.4319153,9.3096709 15.1144343,9.3096709 C14.8287013,9.3096709 14.591659,9.1012017 14.5471078,8.82806419 L14.539584,8.7348206 L14.539584,3.49101796 C14.539584,2.79380467 14.0076282,2.22083631 13.3274444,2.15584077 L13.1982666,2.1497006 L3.13838639,2.1497006 C2.44117309,2.1497006 1.86820473,2.68165641 1.80320919,3.36184015 L1.79706902,3.49101796 L1.79706902,14.508982 C1.79706902,15.2061953 2.32902483,15.7791637 3.00920857,15.8441592 L3.13838639,15.8502994 L9.52614362,15.8502994 C9.84362467,15.8502994 10.1009939,16.1076686 10.1009939,16.4251497 C10.1009939,16.7108826 9.89252483,16.947925 9.61938732,16.9924762 L9.52614362,17 L3.13838639,17 C1.81554866,17 0.733543502,15.9688732 0.652269196,14.6665179 L0.647368421,14.508982 L0.647368421,3.49101796 C0.647368421,2.16818024 1.67849521,1.08617508 2.98085049,1.00490078 L3.13838639,1 L13.1982666,1 Z M13.7956894,12.4664646 C12.9160405,12.4664646 12.1941925,13.1419005 12.120622,13.9999049 L12.114447,14.1445116 L12.11571,14.2122515 C12.1357717,14.7382057 12.399549,15.218532 12.8236238,15.5191487 L12.9555718,15.6038083 L13.2059447,15.7486964 L13.2808144,15.8785163 L13.2807368,16.4103684 L14.3097368,16.4103684 L14.3102922,15.8785761 L14.385223,15.748661 L14.690506,15.5707874 C15.1795135,15.2628949 15.4769046,14.7281354 15.4769046,14.1473684 C15.4769046,13.2190336 14.7242076,12.4664646 13.7956894,12.4664646 Z M17.0013143,13.7868702 L17.5848849,13.7871867 C17.7837327,13.7874441 17.944722,13.9488509 17.9444649,14.1476987 C17.9442392,14.3217508 17.820652,14.4668396 17.6565,14.5003199 L17.583907,14.5075946 L16.9805757,14.5059238 L16.9047318,14.4942795 C16.7496843,14.4514147 16.6405455,14.3098553 16.6407564,14.1467661 C16.640982,13.972714 16.7645693,13.8276252 16.9287213,13.7941448 L17.0013143,13.7868702 Z M10.5879687,13.7873004 C10.7867536,13.7873004 10.9479006,13.9484474 10.9479006,14.1472324 C10.9479006,14.3211692 10.8245224,14.4662895 10.6605075,14.4998518 L10.5879687,14.5071643 L10.0046688,14.5071643 C9.80588388,14.5071643 9.64473684,14.3460173 9.64473684,14.1472324 C9.64473684,13.9732955 9.76811504,13.8281752 9.93212997,13.7946129 L10.0046688,13.7873004 L10.5879687,13.7873004 Z M13.8049453,12.9128819 L13.867342,12.9149047 L13.9253063,12.9195597 C14.458603,12.9753797 14.8915452,13.3699184 15.0030516,13.8901408 L15.0229773,14.0123263 L15.0264343,14.0534398 L14.8768565,14.2160078 L14.4578584,14.2157139 L14.3090711,14.0839085 C14.2893895,13.9228461 14.1958634,13.7810636 14.0559749,13.6997611 C13.944051,13.6347198 13.8130727,13.6145599 13.6880755,13.6410817 L13.5958402,13.6697539 L13.4079823,13.6053928 L13.2010222,13.2416901 L13.2701321,13.0305843 L13.3270441,13.005202 C13.4398134,12.9589439 13.5586398,12.9297053 13.6796281,12.9182786 L13.8049453,12.9128819 Z M16.7436481,11.2530523 C16.8640367,11.3738617 16.8810175,11.5586941 16.7947333,11.6975659 L16.7429864,11.7626626 L16.3120048,12.1901988 L16.2366179,12.2421113 C16.0989522,12.3107902 15.9311964,12.2847253 15.8208697,12.1741141 C15.7004542,12.053388 15.6834152,11.8685999 15.7696455,11.7297429 L15.821366,11.6646512 L16.2524413,11.2368678 L16.3279773,11.1848727 C16.465659,11.1162643 16.6333842,11.142403 16.7436481,11.2530523 Z M11.2902445,11.2012277 L11.3553269,11.252858 L11.783187,11.6833546 L11.8350954,11.758563 C11.9038953,11.896057 11.8780489,12.0637355 11.7676419,12.1741237 C11.6471506,12.2945946 11.462509,12.3118047 11.3236891,12.2257541 L11.2586067,12.1741237 L10.8307466,11.7436272 L10.7788383,11.6684188 C10.721505,11.5538404 10.7298983,11.4183006 10.7981816,11.3124213 L10.8462917,11.252858 C10.966783,11.1323872 11.1514246,11.1151771 11.2902445,11.2012277 Z M13.7955533,9.99736842 C13.9695074,9.99736842 14.1146421,10.1207589 14.1482077,10.2847901 L14.155521,10.3573361 L14.155521,10.9401218 C14.155521,11.1389265 13.994358,11.3000895 13.7955533,11.3000895 C13.6215992,11.3000895 13.4764645,11.1766991 13.4428989,11.0126679 L13.4355856,10.9401218 L13.4355856,10.3573361 C13.4355856,10.1585314 13.5967486,9.99736842 13.7955533,9.99736842 Z M8.69626529,9.31986903 C9.03355415,9.31986903 9.30701006,9.59346797 9.30701006,9.9309816 C9.30701006,10.2636526 9.04131872,10.5342479 8.71069104,10.5419103 L8.69626529,10.5420737 L3.98367044,10.5420737 C3.64636115,10.5420737 3.37292566,10.2684748 3.37292566,9.9309816 C3.37292566,9.59829018 3.63861701,9.3276949 3.96924468,9.32003249 L3.98367044,9.31986903 L8.69626529,9.31986903 Z M11.8372997,4.54980727 C12.174609,4.54980727 12.4480445,4.82340622 12.4480445,5.16091984 C12.4480445,5.49359082 12.1823531,5.76418611 11.8517255,5.77186895 L11.8372997,5.77203241 L3.98367044,5.77203241 C3.64636115,5.77203241 3.37292566,5.49843346 3.37292566,5.16091984 C3.37292566,4.82824886 3.63861701,4.55765358 3.96924468,4.54997074 L11.8372997,4.54980727 Z" id="形状结合" fill="#FFFFFF" fill-rule="nonzero"></path>
                <rect id="矩形" x="0.147368421" y="0.147368421" width="18" height="18"></rect>
            </g>
        </g>
    </g>
</svg>