<?xml version="1.0" encoding="UTF-8"?>
<svg width="18px" height="18px" viewBox="0 0 18 18" version="1.1" xmlns="http://www.w3.org/2000/svg" xmlns:xlink="http://www.w3.org/1999/xlink">
    <title>user</title>
    <g id="页面-1" stroke="none" stroke-width="1" fill="none" fill-rule="evenodd">
        <g id="画板" transform="translate(-132.000000, -193.000000)">
            <g id="user" transform="translate(132.000000, 193.000000)">
                <path d="M7.1230976,2.5598381 C4.95476518,2.5598381 3.1929467,4.32165659 3.1929467,6.48998901 C3.1929467,7.75308207 3.79372027,8.91806039 4.7788958,9.73825814 C2.33132263,10.6729613 0.654975547,12.9824913 0.509294336,15.5853758 L0.5,15.8381473 L1.77504219,15.8848576 L1.77907657,15.6756671 C1.88957609,12.8095641 4.24559512,10.5377097 7.1230976,10.5377097 C10.0084731,10.5377097 12.3569227,12.8174599 12.4228129,15.6313267 L12.4235352,15.8381473 L13.6986147,15.8865166 L13.6946419,15.6312086 C13.6026397,12.9799845 11.9197299,10.6711435 9.45596031,9.65548122 C10.4524749,8.91806039 11.0532485,7.75308207 11.0532485,6.48998901 C11.0532485,4.32165659 9.29143003,2.5598381 7.1230976,2.5598381 Z M10.9595261,2.061 L10.9160956,3.16022579 L11.0811121,3.16500342 C12.5741151,3.25133867 13.7448344,4.48775743 13.7448344,5.99031744 C13.7448344,7.41240027 12.6906876,8.60535013 11.3075716,8.7929898 L11.1400651,8.8106314 L10.9623497,8.76300475 L10.9156393,10.0380469 L11.1248298,10.0420813 C13.9192803,10.1498184 16.1488231,12.3922024 16.2144105,15.1271512 L16.2151606,15.3384757 L17.5,15.3870049 L17.4951697,15.1316925 C17.3944306,12.4787561 15.7097025,10.1708432 13.2475857,9.15580965 C14.2441003,8.41838883 14.8448739,7.2534105 14.8448739,5.99031744 C14.8448739,3.88769206 13.1882145,2.1673167 11.1106866,2.06498231 L10.9595261,2.061 Z M7.1230976,3.65987757 C8.6876057,3.65987757 9.95320904,4.92548092 9.95320904,6.48998901 C9.95320904,7.908775 8.90235624,9.09524631 7.51632632,9.29154807 L7.34843968,9.31030296 L6.89246223,9.3100079 L6.72741645,9.29152935 C5.3384006,9.0946471 4.29298617,7.90367619 4.29298617,6.48998901 C4.29298617,4.92548092 5.55858951,3.65987757 7.1230976,3.65987757 Z" id="形状结合" fill="#FFFFFF" fill-rule="nonzero"></path>
                <rect id="矩形" x="0" y="0" width="18" height="18"></rect>
            </g>
        </g>
    </g>
</svg>