<?xml version="1.0" encoding="UTF-8"?>
<svg width="19px" height="19px" viewBox="0 0 19 19" version="1.1" xmlns="http://www.w3.org/2000/svg" xmlns:xlink="http://www.w3.org/1999/xlink">
    <title>WebsiteDesign</title>
    <g id="页面-1" stroke="none" stroke-width="1" fill="none" fill-rule="evenodd">
        <g id="画板" transform="translate(-131.000000, -373.000000)">
            <g id="WebsiteDesign" transform="translate(131.000000, 373.000000)">
                <path d="M16.3847625,2 C17.1935544,2.00182666 17.8487553,2.65702755 17.8505819,3.46581944 L17.8505819,3.46581944 L17.8505819,12.9703932 C17.8505819,13.7362189 17.1753507,14.3866876 16.3847625,14.3866876 L16.3847625,14.3866876 L9.8701101,14.3866876 L9.8701101,15.7951306 L11.9619377,15.7951306 C12.2750928,15.7951306 12.6042529,16.0421516 12.6042529,16.4374457 C12.6042529,16.8327399 12.2669393,17.0797609 11.9619377,17.0797609 L11.9619377,17.0797609 L6.75698019,17.0797609 C6.4438251,17.0797609 6.11436301,16.8330418 6.11436301,16.4374457 C6.11436301,16.0584586 6.37799309,15.7951306 6.75698019,15.7951306 L6.75698019,15.7951306 L8.59333125,15.7951306 L8.59333125,14.3866876 L2.46612143,14.3866876 C1.65721161,14.385027 1.00182728,13.7297777 1,12.9208682 L1,12.9208682 L1,3.46612143 C1.00166125,2.65709403 1.65709403,2.00166125 2.46612143,2 L2.46612143,2 Z M16.3847625,3.23510538 L2.46612143,3.23540737 C2.35076441,3.23540737 2.23540658,3.36707142 2.23540658,3.50719095 L2.23540658,3.50719095 L2.23540658,13.0030072 C2.23524643,13.0642456 2.25950205,13.1230222 2.30280427,13.1663244 C2.34610648,13.2096266 2.40488306,13.2338822 2.46612143,13.2337221 L2.46612143,13.2337221 L16.3844605,13.2337221 C16.4456989,13.2338822 16.5044755,13.2096266 16.5477777,13.1663244 C16.5910799,13.1230222 16.6153355,13.0642456 16.6151754,13.0030072 L16.6151754,13.0030072 L16.6151754,3.46612143 C16.6151754,3.35076439 16.5245801,3.23510538 16.3847625,3.23510538 L16.3847625,3.23510538 Z M6.82817956,5.76470588 L6.82817956,9.2277944 C6.82817956,9.60737133 6.92718222,9.89836697 7.12478667,10.1015829 C7.32279196,10.2991874 7.60056052,10.3981901 7.95849318,10.3981901 C8.32203731,10.3981901 8.6026116,10.2991874 8.80021608,10.1015829 C8.99822136,9.89836699 9.09682319,9.60737136 9.09682319,9.2277944 L9.09682319,5.76470588 L10.2271368,5.76470588 L10.2271368,9.21977799 C10.2271368,9.69555184 10.1229235,10.0987772 9.91449687,10.4302557 C9.71699813,10.7512862 9.43001194,11.0076234 9.08880679,11.1677653 C8.74690695,11.3333041 8.36492509,11.4162739 7.94246035,11.4162739 C7.52560711,11.4162739 7.14643098,11.3333041 6.80413034,11.1677653 C6.47083238,11.0051895 6.19222842,10.7488739 6.00248946,10.4302557 C5.80488498,10.0987772 5.70588235,9.69555184 5.70588235,9.21977799 L5.70588235,5.76470588 L6.82817956,5.76470588 Z M13.2352941,5.76470588 L13.2352941,11.3601591 L12.1129969,11.3601591 L12.1129969,5.76470588 L13.2352941,5.76470588 Z" id="形状结合" fill="#FFFFFF" fill-rule="nonzero"></path>
                <rect id="矩形" x="0.5" y="0.5" width="18" height="18"></rect>
            </g>
        </g>
    </g>
</svg>