<?xml version="1.0" encoding="UTF-8"?>
<svg width="18px" height="18px" viewBox="0 0 18 18" version="1.1" xmlns="http://www.w3.org/2000/svg" xmlns:xlink="http://www.w3.org/1999/xlink">
    <title>YinShiYunConfig</title>
    <g id="页面-1" stroke="none" stroke-width="1" fill="none" fill-rule="evenodd">
        <g id="画板" transform="translate(-132.000000, -337.000000)">
            <g id="YinShiYunConfig" transform="translate(132.000000, 337.000000)">
                <path d="M8.48270852,3 C10.4968805,3.02582543 12.276281,4.29403333 12.966186,6.17024533 L13.0110736,6.30282823 L13.2010918,6.28577723 L13.292071,6.28079028 L13.4753515,6.27681261 C15.9480634,6.32612214 17.9289263,8.31099947 17.9980547,10.7554028 L17.9992651,10.9660141 C18.0412665,13.3421707 16.2781508,15.3504691 13.9352564,15.6374369 L13.7207029,15.6587453 L3.76896435,15.6587453 C1.71667454,15.5925444 0.0682044556,13.9440743 0.00205498487,11.8917801 C-0.0649731018,9.80935168 1.51572308,8.05633511 3.5688439,7.88589436 L3.6727993,7.8797295 L3.67420845,7.75738611 C3.74297473,5.30359385 5.62217713,3.28849561 8.04063225,3.02768826 L8.26194198,3.00884787 L8.48270852,3 Z M8.4814354,4.08920205 C6.57649918,4.08920205 4.83159528,5.82695318 4.72439907,7.78339749 L4.71918736,7.97336253 L4.71918736,8.86397056 L4.61988627,8.96327165 L3.77243307,8.96327165 C2.38416347,8.96327165 1.06181456,10.3303794 1.06181456,11.7680217 C1.06181456,13.151753 2.28740225,14.4678569 3.61844674,14.563448 L3.77243307,14.5689956 L13.4733717,14.5689956 C15.2895047,14.5689956 16.9491795,12.8637296 16.9491795,10.9871888 C16.9491795,9.1077116 15.2790771,7.38191644 13.46683,7.38190819 C13.1862156,7.38552608 12.9079006,7.42900284 12.6401704,7.51074424 L12.4414868,7.57919999 L12.3077448,7.50202167 C12.2748254,7.29370324 12.2092438,7.09170412 12.1080971,6.89113921 C12.0702296,6.78188635 12.0225084,6.67548096 11.9605769,6.56281278 C11.3890657,5.16431965 9.90239257,4.08920205 8.4814354,4.08920205 Z M7.08052138,12.6826346 C7.16912855,12.5571727 7.33698894,12.5167939 7.47296071,12.5882334 C7.87572674,12.839989 8.34012633,12.9757811 8.81507628,12.9806727 C9.29230531,12.9920933 9.76129383,12.8549594 10.1571918,12.5882334 L10.1571918,12.5882334 L10.1375024,12.5882334 C10.258844,12.551287 10.390598,12.5881192 10.4751891,12.6826346 C10.5191531,12.8042773 10.4795046,12.9407545 10.3770118,13.0200515 C9.916572,13.339602 9.36765605,13.507012 8.80725446,13.4988005 C8.23143231,13.4869949 7.6692101,13.3216245 7.17869864,13.0197818 C7.06154721,12.9513704 7.01841347,12.8032463 7.08052138,12.6826346 Z M11.1656665,10.9793669 C11.3365229,10.9768981 11.5039207,11.0276076 11.6446853,11.1244751 C12.0071261,11.3463187 12.1799904,11.7805016 12.0692096,12.1907522 C11.9584289,12.6010029 11.5905105,12.8891572 11.1656665,12.8984088 C10.9944974,12.9034736 10.8263683,12.8524192 10.6869175,12.7530309 C10.2584105,12.4722231 10.112519,11.9123306 10.3495006,11.458116 C10.508001,11.1559511 10.8245758,10.9702538 11.1656665,10.9793669 Z M6.3700848,10.9321663 C6.70546571,10.9441511 7.01230867,11.1240805 7.18652046,11.4109154 C7.32164868,11.6164966 7.3686462,11.8676977 7.31698121,12.1082263 C7.26531623,12.3487549 7.1193088,12.558499 6.91167805,12.6904564 C6.766425,12.7917953 6.5943617,12.8477417 6.4172854,12.8512082 C6.08200148,12.839134 5.77527927,12.6592159 5.60111947,12.3724592 C5.46561554,12.1628872 5.42002798,11.9076478 5.47460611,11.6641259 C5.52918425,11.4206039 5.67934777,11.2092363 5.89133578,11.0775442 C6.03384487,10.9845396 6.19992331,10.9341079 6.3700848,10.9321663 Z M11.2959402,11.458036 L11.1406671,11.4589125 C11.0705742,11.461302 11.0088257,11.4708601 10.9736275,11.5090926 C10.8962185,11.558451 10.8306771,11.6242621 10.7813187,11.7014014 C10.7077541,11.7997753 10.6814392,11.9256373 10.7094289,12.045244 C10.7374186,12.1648506 10.8168497,12.2659665 10.9264269,12.3214825 C10.9986749,12.3636224 11.0824966,12.3815774 11.1656665,12.3727289 C11.2600677,12.3727289 11.3107747,12.3686831 11.4051759,12.3214825 C11.4993074,12.2742819 11.5462383,12.1801504 11.5974847,12.1332195 C11.7199365,11.9193333 11.6565528,11.6469184 11.4523765,11.5093623 C11.3800921,11.4670166 11.2962099,11.4492153 11.2128671,11.458116 Z M6.5002386,11.458036 L6.34679214,11.4589125 C6.27726818,11.461302 6.21324393,11.4708601 6.17804576,11.5090926 C5.96971269,11.6165791 5.86870024,11.8581899 5.93853639,12.0819731 C5.985737,12.1801504 6.08364454,12.227351 6.13084515,12.2742819 C6.20439577,12.3126876 6.28745889,12.3290755 6.3700848,12.3214825 C6.45315786,12.3336198 6.53757953,12.317167 6.60959417,12.2742819 C6.81792723,12.1667954 6.91893968,11.9251846 6.84910354,11.7014014 C6.80190293,11.6032241 6.70372567,11.5562932 6.65679478,11.5093623 C6.58451041,11.4670166 6.50035847,11.4492153 6.4172854,11.458116 Z M7.57480522,7.76884461 L7.62517195,7.77672811 C7.69155551,7.79551085 7.74464769,7.84542081 7.76749251,7.91051829 C7.81954803,8.03108212 7.78016924,8.17187479 7.67309129,8.2479352 C6.81706057,8.67164111 6.27667082,9.54547174 6.27999907,10.5006179 L6.27999907,10.5006179 L6.27999907,10.6457261 C6.27230771,10.7746833 6.16944696,10.8775441 6.0404897,10.8852354 L6.0404897,10.8852354 L6.0404897,10.8733679 C5.92243121,10.8826318 5.81758028,10.7983491 5.80125005,10.6810591 L5.80125005,10.6810591 L5.80125005,10.4890201 C5.79292635,9.93537986 5.94262734,9.39084247 6.23279846,8.91926271 C6.52142089,8.44589861 6.93771029,8.06354432 7.43385163,7.81611708 C7.48741701,7.77263929 7.55878839,7.75794537 7.62517195,7.77672811 Z M10.006012,7.75752703 C10.0696795,7.7305571 10.1418155,7.73195245 10.2043924,7.76136437 C10.6766282,8.02464543 11.0737966,8.40417427 11.358245,8.86397056 C11.6429856,9.33789321 11.7922521,9.88085015 11.7897934,10.4337279 L11.7897934,10.4337279 L11.7897934,10.6260367 C11.774541,10.7477506 11.6710619,10.8390716 11.548396,10.8390716 C11.4257302,10.8390716 11.3222511,10.7477506 11.3069986,10.6260367 L11.3069986,10.6260367 L11.3069986,10.5006179 C11.3312999,9.55378197 10.8091126,8.67731318 9.96488308,8.2479352 L9.965,8.248 C9.88963182,8.17236029 9.85087878,8.07474404 9.85731748,7.97626469 L9.87075158,7.90269648 C9.89316044,7.83728409 9.94234439,7.78449697 10.006012,7.75752703 Z M8.34678486,6.90621182 C8.64035269,6.74729081 8.99640391,6.75705831 9.28081746,6.931835 C9.56523101,7.1066117 9.73479771,7.41984484 9.72564343,7.75354255 C9.7254945,8.25632957 9.31786332,8.66383998 8.81507628,8.66383998 C8.29249909,8.64548059 7.87373406,8.22494613 7.85757823,7.70229618 C7.86673252,7.36859848 8.05321703,7.06513283 8.34678486,6.90621182 Z M8.821,7.274 L8.74450336,7.2760103 C8.65530767,7.2864368 8.57065317,7.32404805 8.502612,7.38484428 C8.41189044,7.46590591 8.35881555,7.58093713 8.35601666,7.7025659 C8.35601666,7.96763408 8.5697068,8.18313944 8.83476567,8.18536068 C9.08309024,8.16274818 9.27159182,7.95186203 9.26631408,7.7025659 C9.26649121,7.58492844 9.21821578,7.47240976 9.13284328,7.39147683 C9.04747078,7.3105439 8.93253674,7.26834039 8.81507628,7.27479353 L8.821,7.274 Z" id="形状结合" fill="#FFFFFF" fill-rule="nonzero"></path>
                <rect id="矩形" x="0" y="0" width="18" height="18"></rect>
            </g>
        </g>
    </g>
</svg>