<?xml version="1.0" encoding="UTF-8"?>
<svg width="18px" height="18px" viewBox="0 0 18 18" version="1.1" xmlns="http://www.w3.org/2000/svg" xmlns:xlink="http://www.w3.org/1999/xlink">
    <title>任务下发备份</title>
    <g id="页面-1" stroke="none" stroke-width="1" fill="none" fill-rule="evenodd">
        <g id="画板" transform="translate(-641.000000, -197.000000)" fill="#FFFFFF" fill-rule="nonzero">
            <g id="任务下发备份" transform="translate(641.000000, 197.000000)">
                <path d="M17.9068252,13.4984698 C17.9068252,15.5494607 16.2452071,17.2121004 14.195483,17.2121004 C12.145759,17.2121004 10.4841,15.5494607 10.4841,13.4984698 C10.4841,11.4474993 12.1457181,9.78485959 14.1954626,9.78485959 C16.2452071,9.78485959 17.9068252,11.4474993 17.9068252,13.4984698 Z M14.195483,10.7250061 C12.6646775,10.7250061 11.4237152,11.9667244 11.4237152,13.4984698 C11.4237152,15.0302152 12.6646775,16.2719335 14.1954626,16.2719335 C15.7262885,16.2719335 16.9672508,15.0302152 16.9672508,13.4984698 C16.9672508,11.9667244 15.7262885,10.7250061 14.195483,10.7250061 Z M14.5906792,11.8530347 L14.5906588,14.5123388 L15.2805,13.8060081 L15.2856696,13.8008385 C15.3985624,13.6907859 15.5792725,13.6903568 15.6926966,13.801145 C15.6943312,13.8027388 15.6959659,13.804353 15.6975596,13.8060081 C15.8135174,13.9247243 15.8135174,14.114282 15.6975596,14.2330186 L14.5665682,15.3910634 C14.5531223,15.4134175 14.5368759,15.4339623 14.5182235,15.4521992 C14.4623942,15.5068647 14.3869031,15.5367445 14.3087845,15.5350962 C14.2282836,15.5367926 14.1506872,15.5050126 14.0945027,15.4473361 C14.0778551,15.4303135 14.063249,15.4114078 14.0509803,15.3910021 L12.9200297,14.2330186 C12.804072,14.1143024 12.804072,13.9247243 12.9200297,13.8060081 C12.9216439,13.8043734 12.9232581,13.8027388 12.9248928,13.801145 C13.0400536,13.6886609 13.2246052,13.6908268 13.3370893,13.8060081 L14.0269101,14.5123388 L14.0269101,11.8530347 C14.0269101,11.6973346 14.1531253,11.5711399 14.3088049,11.5711399 C14.4644641,11.5711399 14.5906792,11.6973551 14.5906792,11.8530347 Z M8.90152844,9.17250061 C9.2388173,9.17250061 9.51227322,9.44609955 9.51227322,9.78361317 C9.51227322,10.1162842 9.24658187,10.3868794 8.9159542,10.3945418 L8.90152844,10.3947053 L4.1889336,10.3947053 C3.8516243,10.3947053 3.57818882,10.1211064 3.57818882,9.78361317 C3.57818882,9.45092176 3.84388017,9.18032648 4.17450784,9.17266407 L4.1889336,9.17250061 L8.90152844,9.17250061 Z M12.0425629,4.40243885 C12.3798722,4.40243885 12.6533076,4.6760378 12.6533076,5.01355142 C12.6533076,5.3462224 12.3876163,5.61681769 12.0569886,5.62450052 L12.0425629,5.62466399 L4.1889336,5.62466399 C3.8516243,5.62466399 3.57818882,5.35106504 3.57818882,5.01355142 C3.57818882,4.68088044 3.84388017,4.41028515 4.17450784,4.40260232 L4.1889336,4.40243885 L12.0425629,4.40243885 Z" id="形状"></path>
                <path d="M3.34364954,16.8526316 C2.02081182,16.8526316 0.93880666,15.8215048 0.857532354,14.5191495 L0.852631579,14.3616136 L0.852631579,3.34364954 C0.852631579,2.02081182 1.88375836,0.93880666 3.18611365,0.857532354 L3.34364954,0.852631579 L13.4035298,0.852631579 C14.7263675,0.852631579 15.8083727,1.88375836 15.889647,3.18611365 L15.8945477,3.34364954 L15.8945477,8.58745218 C15.8945477,8.90493323 15.6371785,9.16230248 15.3196974,9.16230248 C15.0339645,9.16230248 14.7969221,8.95383328 14.752371,8.68069577 L14.7448471,8.58745218 L14.7448471,3.34364954 C14.7448471,2.64643625 14.2128913,2.07346789 13.5327076,2.00847235 L13.4035298,2.00233218 L3.34364954,2.00233218 C2.64643625,2.00233218 2.07346789,2.53428799 2.00847235,3.21447173 L2.00233218,3.34364954 L2.00233218,14.3616136 C2.00233218,15.0588269 2.53428799,15.6317953 3.21447173,15.6967908 L3.34364954,15.702931 L9.73140677,15.702931 C10.0488878,15.702931 10.3062571,15.9603002 10.3062571,16.2777813 C10.3062571,16.5635142 10.097788,16.8005566 9.82465048,16.8451078 L9.73140677,16.8526316 L3.34364954,16.8526316 Z" id="路径"></path>
            </g>
        </g>
    </g>
</svg>