<?xml version="1.0" encoding="UTF-8"?>
<svg width="18px" height="18px" viewBox="0 0 18 18" version="1.1" xmlns="http://www.w3.org/2000/svg" xmlns:xlink="http://www.w3.org/1999/xlink">
    <title>储能柜 (4)</title>
    <g id="页面-1" stroke="none" stroke-width="1" fill="none" fill-rule="evenodd">
        <g id="画板" transform="translate(-1976.000000, -158.000000)">
            <g id="储能柜-(4)" transform="translate(1976.000000, 158.000000)">
                <path d="M14.1571429,-2.84217094e-14 C15.5773036,-2.84217094e-14 16.7285714,1.15126779 16.7285714,2.57142857 L16.7285714,15.4285714 C16.7285714,16.8487322 15.5773036,18 14.1571429,18 L3.87142857,18 C2.45126779,18 1.3,16.8487322 1.3,15.4285714 L1.3,2.57142857 C1.3,1.15126779 2.45126779,-2.84217094e-14 3.87142857,-2.84217094e-14 L14.1571429,-2.84217094e-14 Z M6.585,1.285 L3.87142857,1.28556892 C3.52942845,1.28047987 3.20046835,1.41680987 2.96242857,1.66242857 C2.71680987,1.90046835 2.58047987,2.22942845 2.58571429,2.57142857 L2.58571429,15.4285714 C2.58571429,15.7834286 2.71171429,16.0868571 2.96242857,16.3375714 C3.20038014,16.5833199 3.52939902,16.7196742 3.87142857,16.7144396 L6.585,16.714 L6.58573053,14.5401429 L5.79758767,14.1467143 C5.64761541,14.0723168 5.52187407,13.956831 5.43501625,13.8137143 C5.34611132,13.6719697 5.29929475,13.5078888 5.30000803,13.3405714 L5.30000803,4.65942857 C5.30000803,4.48842857 5.34501625,4.33028571 5.43501625,4.18628571 C5.52206263,4.04364388 5.64778605,3.92862033 5.79758767,3.85457143 L6.58573053,3.45857143 L6.585,1.285 Z M14.1571429,1.28556892 L7.871,1.285 L7.87145303,3.69771429 C7.87216631,3.86503162 7.82534974,4.02911256 7.73644482,4.17085714 C7.64939843,4.31349898 7.52367501,4.42852253 7.37387339,4.50257143 L6.58573053,4.89857143 L6.58573053,13.104 L7.37387339,13.4974286 C7.52687339,13.5745714 7.64773053,13.6851429 7.73644482,13.8304286 C7.82644482,13.9744286 7.87145303,14.1325714 7.87145303,14.3035714 L7.871,16.714 L14.1571429,16.7144396 C14.4991724,16.7196742 14.8281913,16.5833199 15.0661429,16.3375714 C15.3118913,16.0996199 15.4482457,15.770601 15.4428571,15.4285714 L15.4428571,2.57142857 C15.4482457,2.22939902 15.3118913,1.90038014 15.0661429,1.66242857 C14.8281031,1.41680987 14.499143,1.28047987 14.1571429,1.28556892 Z M12.231516,5 C12.3631649,5 12.5067819,5.0837766 12.5666223,5.19148936 C12.6384309,5.31117021 12.6384309,5.45478723 12.5666223,5.58643617 L11.7288564,7.08244681 L13.4283245,7.08244681 C13.5839096,7.08244681 13.7155585,7.1662234 13.787367,7.30984043 C13.8591755,7.44148936 13.8352394,7.60904255 13.7275266,7.7287234 L10.0413564,12.1569149 C9.95620106,12.243174 9.83940905,12.2907559 9.71821809,12.2885638 C9.59411033,12.2909088 9.47656332,12.232958 9.40284849,12.1330862 C9.32913366,12.0332145 9.3083947,11.9038102 9.34720745,11.7859043 L10.2208777,9.04521277 L8.68896277,9.04521277 C8.55731383,9.04521277 8.42566489,8.96143617 8.35385638,8.8537234 C8.28204787,8.73186654 8.28204787,8.58063346 8.35385638,8.4587766 L10.125133,5.20345745 C10.1969415,5.0837766 10.3285904,5 10.4602394,5 L12.231516,5 Z" id="形状结合" fill="#FFFFFF" fill-rule="nonzero"></path>
                <rect id="矩形" x="0" y="0" width="18" height="18"></rect>
            </g>
        </g>
    </g>
</svg>