<?xml version="1.0" encoding="UTF-8"?>
<svg width="18px" height="18px" viewBox="0 0 18 18" version="1.1" xmlns="http://www.w3.org/2000/svg" xmlns:xlink="http://www.w3.org/1999/xlink">
    <title>电价参数</title>
    <g id="页面-1" stroke="none" stroke-width="1" fill="none" fill-rule="evenodd">
        <g id="画板" transform="translate(-1964.000000, -378.000000)">
            <g id="电价参数" transform="translate(1964.000000, 378.000000)">
                <path d="M5.53316298,1.00000252 L5.78412544,1.00222747 C8.59139023,1.00222747 11.3981596,1.7549909 11.5608352,3.16980154 L11.5682663,3.30024199 L11.5682663,5.79780139 C11.8675218,5.74817814 12.1662668,5.69802895 12.4655222,5.69802895 C15.5568282,5.69802895 18,8.14596509 18,11.2441391 C18,14.3417717 15.5066945,16.8398416 12.415373,16.8398416 C11.168728,16.8398416 9.97220122,16.3901541 9.02481163,15.6406851 C8.07740657,15.8903328 6.93050304,16.0402235 5.78359951,16.0402235 C2.97686019,16.0402235 0.170106309,15.2874601 0.00743111492,13.8726353 L0,13.7421935 L0.0496077852,13.7421935 C0.0124019463,13.7045816 0.00310048657,13.6390741 0.000775121643,13.5875143 L0,3.25012374 C0,1.7952423 2.77143077,0.999688238 5.53316298,1.00000252 L5.53316298,1.00000252 Z M12.4655222,6.69767145 C12.1667927,6.69767145 11.8675218,6.74729471 11.5682663,6.79744389 C11.5181172,6.84757761 11.4679834,6.84757761 11.4183757,6.84757761 C9.37421626,7.29673921 7.87843403,9.14562307 7.87843403,11.2937469 C7.87843403,13.8419505 9.92259343,15.8903328 12.4655222,15.8903328 C15.0084355,15.8903328 17.0526104,13.7918168 17.0526104,11.2937469 C17.0526104,8.74606925 15.008451,6.69767145 12.4655222,6.69767145 Z M0.996997374,11.5930023 L0.996997374,13.741683 C0.996997374,14.2248286 2.72122198,15.0344879 5.49313981,15.0426427 L5.78359951,15.040581 C6.68138131,15.040581 7.47889568,14.9904318 8.17716354,14.8405411 C7.62878637,14.1908292 7.22977395,13.391737 7.03026001,12.4923774 C6.7310007,12.5299777 6.40383701,12.5393778 6.09061898,12.5417278 L5.78359951,12.5425111 C4.05424439,12.5425111 2.32441343,12.2790314 1.21122937,11.7107375 L0.996997374,11.5930023 Z M11.3534871,8.58583836 C11.4747501,8.55446933 11.6043601,8.59482179 11.6863855,8.68948207 L11.729443,8.75265586 L12.5652792,10.3442381 L13.4084262,8.73947189 C13.5007575,8.5815512 13.7036268,8.52838047 13.8615475,8.62071175 C14.0049027,8.70452703 14.0697405,8.87246184 14.0281894,9.0265218 L13.998419,9.10194186 L13.3131548,10.3943873 L14.2344412,10.3943873 C14.4966408,10.3943873 14.7091956,10.6069421 14.7091956,10.8691417 C14.7091956,11.102208 14.541251,11.2960488 14.3197789,11.3362472 L14.2344412,11.3438961 L13.0635226,11.3438961 L13.0635226,11.7434499 L14.3093942,11.7434499 C14.5301984,11.7434499 14.7091956,11.922447 14.7091956,12.1432512 C14.7091956,12.3364549 14.5721509,12.49765 14.3899682,12.53493 L14.3093942,12.5430525 L13.0635226,12.5430525 L13.0635226,13.4434872 C13.0635226,13.6912576 12.8626651,13.8921151 12.6148947,13.8921151 C12.3946544,13.8921151 12.211481,13.7334129 12.1734948,13.5241286 L12.1662668,13.4434872 L12.1662668,12.5430525 L10.7710149,12.5430525 C10.5502108,12.5430525 10.3712136,12.3640554 10.3712136,12.1432512 C10.3712136,11.9500476 10.5082583,11.7888524 10.690441,11.7515724 L10.7710149,11.7434499 L12.1662668,11.7434499 L12.1662668,11.3438961 L10.845968,11.3438961 C10.5837684,11.3438961 10.3712136,11.1313413 10.3712136,10.8691417 C10.3712136,10.6360754 10.5391582,10.4422346 10.7606303,10.4020362 L10.845968,10.3943873 L11.8173881,10.3943873 L11.132127,9.10194776 C11.0543375,8.95523245 11.0875848,8.77830939 11.2039962,8.66917576 L11.2690032,8.62071175 L11.3534871,8.58583836 Z M0.996997374,8.09632637 L0.996997374,10.2444966 C0.996997374,10.6791796 2.67437481,11.4872234 5.4884551,11.5406101 L5.78359951,11.5433946 C6.08246437,11.5433946 6.35372069,11.5433946 6.617853,11.5224663 L6.88036932,11.4937868 L6.88036932,11.2441236 C6.88036932,10.4450469 7.07988326,9.64544432 7.37913871,8.94610912 C6.88036932,8.99571691 6.33199215,9.04585063 5.78359951,9.04585063 C4.05424439,9.04585063 2.32441343,8.7823709 1.21122937,8.2140643 L0.996997374,8.09632637 Z M10.5702016,4.59915541 C9.47343183,5.19873363 7.62878637,5.54866419 5.78359951,5.54866419 C4.05424439,5.54866419 2.32441343,5.28518447 1.21122937,4.71689061 L0.996997374,4.59915541 L0.996997374,6.79744389 C0.996997374,7.24711596 2.79205052,8.09634184 5.78359951,8.09634184 C6.63124759,8.09634184 7.37913871,7.99607441 8.02727285,7.89630197 C8.62139582,7.11784491 9.42529216,6.50747691 10.3231028,6.14161923 L10.5702016,6.04795951 L10.5702016,4.59915541 Z M5.78359951,1.95119486 C2.84218423,1.95119486 0.996997374,2.80042074 0.996997374,3.25012374 C0.996997374,3.69979581 2.79205052,4.54902169 5.78359951,4.54902169 C8.77516397,4.54902169 10.5702016,3.69979581 10.5702016,3.25010827 C10.5702016,2.80042074 8.77516397,1.95119486 5.78359951,1.95119486 Z" id="形状" fill="#FFFFFF" fill-rule="nonzero"></path>
                <rect id="矩形" x="0" y="0" width="18" height="18"></rect>
            </g>
        </g>
    </g>
</svg>