<?xml version="1.0" encoding="UTF-8"?>
<svg width="18px" height="18px" viewBox="0 0 18 18" version="1.1" xmlns="http://www.w3.org/2000/svg" xmlns:xlink="http://www.w3.org/1999/xlink">
    <title>自动模式</title>
    <g id="页面-1" stroke="none" stroke-width="1" fill="none" fill-rule="evenodd">
        <g id="画板" transform="translate(-1991.000000, -349.000000)" fill="#FFFFFF" fill-rule="nonzero">
            <g id="自动模式" transform="translate(1991.000000, 349.000000)">
                <path d="M16.524,4.344 L13.6634293,5.48493272 L14.1254293,6.61993272 L15.6655048,6.01656566 L15.7295286,6.00062606 L15.8487134,5.9654392 C15.8916564,6.04495081 15.9144323,6.08651691 15.9170409,6.09013752 L15.9932867,6.33589894 L16.0164226,6.41836032 C16.0760272,6.63364664 16.1415306,6.8900952 16.2020497,7.15054906 C16.3713423,7.87912735 16.4749097,8.51247449 16.4749097,8.94991385 C16.4749097,9.93038859 16.29131,10.8734484 15.9243714,11.7776238 C15.5447538,12.7138654 14.9942775,13.5428288 14.2738867,14.2632196 C13.5531372,14.9839692 12.723994,15.5346272 11.7877406,15.9142495 C10.8835237,16.280834 9.94030615,16.4642426 8.9594973,16.4642426 C8.55335909,16.4642426 8.1536407,16.432771 7.76044227,16.3698446 C7.46886729,16.3231817 6.98838654,16.1949002 6.319,15.985 L5.858,17.121 C6.67758783,17.3788676 7.2701276,17.5355104 7.63561932,17.5909284 C7.82452106,17.6195708 8.01471306,17.6419872 8.20620235,17.6581789 L8.58146875,17.6818721 L8.96003912,17.6897694 C10.1003486,17.6897694 11.1958984,17.4765546 12.2481381,17.0498659 C13.3383808,16.6080474 14.3019977,15.9684599 15.1402915,15.1301662 C15.9785919,14.2918657 16.6181819,13.3284216 17.0600294,12.2384603 C17.4870473,11.1862798 17.7004365,10.0903879 17.7004365,8.94937202 C17.7004365,7.93549249 17.5317379,6.95727863 17.1940613,6.01366192 L17.0595111,5.66142531 L16.524,4.344 Z M8.96003912,0.208974669 C7.81938061,0.208974669 6.72348076,0.422365377 5.67087736,0.849411508 C4.58098955,1.29122929 3.6175454,1.93081925 2.77924497,2.76911969 C1.94095124,3.60741342 1.30136371,4.57103037 0.859528651,5.66131398 C0.432856557,6.71351278 0.219641774,7.80906257 0.219641774,8.94937202 C0.219641774,9.96488833 0.388527286,10.9434186 0.726840431,11.8856725 L0.861650839,12.2373187 L1.396,13.554 L4.28404379,12.4372524 L3.82204379,11.3012524 L2.06806534,11.9577387 L1.9929419,11.7720677 C1.62783649,10.8696934 1.44516857,9.92850808 1.44516857,8.94991385 C1.44516857,7.969105 1.62857715,7.0258874 1.99516503,6.12166206 C2.37478979,5.18540275 2.92546005,4.35642678 3.64619153,3.63606625 C4.36693288,2.9153249 5.19588595,2.36466985 6.1317305,1.98506281 C7.03596274,1.6181011 7.97902255,1.43450146 8.9594973,1.43450144 C9.33384922,1.43450144 9.70268419,1.46123639 10.0659529,1.51469742 C10.3790515,1.56077508 10.8904005,1.69387594 11.6,1.914 L12.061,0.777 C11.4182104,0.566514225 10.9605471,0.433879788 10.68801,0.379096689 C10.3670048,0.314570918 10.0422291,0.26840432 9.7136476,0.240590692 L9.33848852,0.216878337 L8.96003912,0.208974669 Z M9.732,4.363 L8.275,4.363 L5.238,13.445 L6.357,13.445 L7.16597161,10.7363076 L10.7909234,10.7363076 L11.599,13.445 L12.768,13.445 L9.732,4.363 Z M8.79964469,5.16129255 L9.15501166,5.16129255 L9.80364329,7.45155794 L10.5462298,9.94262908 L7.41069373,9.94262908 L8.14775551,7.47523059 C8.28281073,7.01726659 8.40854108,6.58075863 8.52808356,6.15386517 L8.79964469,5.16129255 Z" id="形状"></path>
            </g>
        </g>
    </g>
</svg>