<svg t="1732002085574" class="icon" viewBox="0 0 1024 1024" version="1.1" xmlns="http://www.w3.org/2000/svg" p-id="21389" width="48" height="48"><path d="M622.7 951.3c-30.6 0-55.5-24.9-55.5-55.5s24.9-55.5 55.5-55.5 55.5 24.9 55.5 55.5-24.9 55.5-55.5 55.5z m0-69c-7.5 0-13.5 6.1-13.5 13.5s6.1 13.5 13.5 13.5c7.5 0 13.5-6.1 13.5-13.5s-6.1-13.5-13.5-13.5z" fill="#237AE4" p-id="21390"></path><path d="M861.8 916.8h-194c-11.6 0-21-9.4-21-21s9.4-21 21-21h178.7V114.7h-669v760.1h177c11.6 0 21 9.4 21 21s-9.4 21-21 21H162.2c-14.7 0-26.7-12-26.7-26.7V99.3c0-14.7 12-26.7 26.7-26.7h699.6c14.7 0 26.7 12 26.7 26.7v790.8c0 14.7-12 26.7-26.7 26.7z" fill="#237AE4" p-id="21391"></path><path d="M391.6 951.3c-30.6 0-55.5-24.9-55.5-55.5s24.9-55.5 55.5-55.5 55.5 24.9 55.5 55.5-24.9 55.5-55.5 55.5z m0-69c-7.5 0-13.5 6.1-13.5 13.5s6.1 13.5 13.5 13.5 13.5-6.1 13.5-13.5-6-13.5-13.5-13.5z" fill="#237AE4" p-id="21392"></path><path d="M418.7 892.7c-5.3 0-10.5-2-14.6-5.9-8.3-8.1-8.6-21.4-0.5-29.7l152.6-158c8.1-8.3 21.4-8.6 29.7-0.5s8.6 21.4 0.5 29.7l-152.6 158c-4.2 4.2-9.6 6.4-15.1 6.4z" fill="#237AE4" p-id="21393"></path><path d="M393.7 763.3c-2.6 0-5.3-0.5-8.1-1.5-5.9-2.2-10.6-6.7-13.2-12.5-4.8-10.7-2.8-23.9 8.1-52.5l0.5-1.3 61.6-164.2H413c-4.4 0-8.6-0.8-12.7-2.4-17.5-7-26-26.9-19-44.4L476 247.8c5.2-13 17.7-21.5 31.7-21.5h126.2c6.2 0 12.3 1.7 17.6 4.9 16.1 9.7 21.4 30.7 11.7 46.9L599.5 384h50.1c13.1 0 25.2 7.6 30.8 19.5 5.6 11.9 3.9 26.1-4.4 36.3L439.4 729.1c-2.1 2.6-8.9 10.3-16 17.3-6.7 6.6-17.3 16.9-29.7 16.9z m30.9-274.1h78.6L437 665.7 633.1 426H525.4L620 268.2H513l-88.4 221z m-11.6 0zM649.7 426z m-15.8-157.8z" fill="#237AE4" p-id="21394"></path></svg>