<svg t="1732002031575" class="icon" viewBox="0 0 1024 1024" version="1.1" xmlns="http://www.w3.org/2000/svg" p-id="19134" width="48" height="48"><path d="M654.821053 350.315789c91.621053 0 167.073684 75.452632 167.073684 167.073685s-75.452632 167.073684-167.073684 167.073684" fill="#237AE4" opacity=".4" p-id="19135"></path><path d="M881.178947 296.421053c-8.084211-8.084211-18.863158-8.084211-26.947368 0l-80.842105 80.842105c-26.947368-24.252632-61.978947-37.726316-99.705263-43.11579v-24.252631c0-18.863158-8.084211-37.726316-24.252632-48.505263l-80.842105-64.673685c-8.084211-8.084211-13.473684-18.863158-13.473685-29.642105V70.063158c0-18.863158-16.168421-35.031579-35.031578-35.031579H172.463158c-18.863158 0-35.031579 16.168421-35.031579 35.031579v883.873684c0 18.863158 16.168421 35.031579 35.031579 35.031579h347.621053c18.863158 0 35.031579-16.168421 35.031578-35.031579v-51.2c0-21.557895 16.168421-37.726316 37.726316-37.726316h18.863158c35.031579 0 64.673684-29.642105 64.673684-64.673684V700.631579c91.621053-10.778947 164.378947-88.926316 164.378948-183.242105 0-43.115789-13.473684-83.536842-40.421053-113.178948l83.536842-83.536842c5.389474-5.389474 5.389474-18.863158-2.694737-24.252631z m-245.221052 506.610526c0 13.473684-10.778947 26.947368-26.947369 26.947368h-18.863158c-40.421053 0-75.452632 35.031579-75.452631 75.452632v48.505263H175.157895V296.421053h183.242105v336.842105c0 10.778947 8.084211 18.863158 18.863158 18.863158s18.863158-8.084211 18.863158-18.863158V277.557895c0-10.778947-8.084211-18.863158-18.863158-18.863158H175.157895V72.757895h342.231579v94.315789c0 24.252632 10.778947 45.810526 29.642105 59.284211l80.842105 64.673684c5.389474 5.389474 10.778947 13.473684 10.778948 18.863158v493.136842z m37.726316-140.126316V371.873684c72.757895 8.084211 126.652632 70.063158 126.652631 145.51579 0 75.452632-56.589474 137.431579-126.652631 145.515789z" fill="#237AE4" p-id="19136"></path></svg>