<svg t="1732002130668" class="icon" viewBox="0 0 1024 1024" version="1.1" xmlns="http://www.w3.org/2000/svg" p-id="24161" width="48" height="48"><path d="M823.68 520.96a32 32 0 1 1-45.312 45.184 376.704 376.704 0 0 0-532.736 0 32 32 0 0 1-45.248-45.248 440.704 440.704 0 0 1 623.232 0z m123.2-141.696a32 32 0 1 1-44.032 46.4 568.64 568.64 0 0 0-781.696 0 32 32 0 1 1-44.032-46.4 632.64 632.64 0 0 1 869.76 0z m-512.64 252.544l4.416 3.712L512 708.864 585.344 635.52a32 32 0 0 1 48.96 40.832l-3.648 4.416-73.408 73.344 73.408 73.408a32 32 0 0 1-40.832 48.96l-4.48-3.712L512 799.36l-73.344 73.408a32 32 0 0 1-48.96-40.832l3.648-4.48 73.408-73.344-73.408-73.344a32 32 0 0 1 40.832-48.96z" fill="#237AE4" p-id="24162"></path></svg>