<svg t="1732002164576" class="icon" viewBox="0 0 1024 1024" version="1.1" xmlns="http://www.w3.org/2000/svg" p-id="27433" width="48" height="48"><path d="M530.285714 859.428571m-54.857143 0a54.857143 54.857143 0 1 0 109.714286 0 54.857143 54.857143 0 1 0-109.714286 0Z" fill="#237AE4" p-id="27434" data-spm-anchor-id="a313x.search_index.0.i15.af3c3a81vFj0KL" class="selected"></path><path d="M585.142857 603.940571a285.403429 285.403429 0 0 0-192.036571 16.420572 27.428571 27.428571 0 1 0 23.04 49.773714 230.546286 230.546286 0 0 1 160.438857-11.629714c13.494857 3.913143 27.684571-49.517714 8.557714-54.564572zM788.918857 440.868571A606.171429 606.171429 0 0 0 512 374.857143c-97.097143 0-193.755429 23.296-279.588571 67.364571a27.428571 27.428571 0 1 0 25.051428 48.786286 551.826286 551.826286 0 0 1 254.500572-61.293714c88.758857 0 173.531429 20.224 252.086857 60.086857a27.428571 27.428571 0 0 0 24.868571-48.932572zM887.478857 244.772571A823.222857 823.222857 0 0 0 512 155.428571c-130.450286 0-255.378286 29.366857-371.309714 87.259429a27.428571 27.428571 0 1 0 24.502857 49.078857A769.426286 769.426286 0 0 1 512 210.285714c123.428571 0 241.408 28.086857 350.683429 83.419429a27.318857 27.318857 0 0 0 36.864-12.068572 27.428571 27.428571 0 0 0-12.068572-36.864z" fill="#237AE4" p-id="27435" data-spm-anchor-id="a313x.search_index.0.i14.af3c3a81vFj0KL" class="selected"></path><path d="M731.428571 402.285714a182.857143 182.857143 0 1 0 0 365.714286 182.857143 182.857143 0 0 0 0-365.714286z m86.454858 237.677715a27.428571 27.428571 0 0 1-38.765715 38.802285l-51.017143-51.017143-51.017142 51.017143a27.355429 27.355429 0 0 1-38.765715 0 27.428571 27.428571 0 0 1 0-38.802285l51.017143-51.017143-51.017143-51.017143a27.428571 27.428571 0 1 1 38.802286-38.802286l51.017143 51.017143 51.017143-51.017143a27.428571 27.428571 0 1 1 38.802285 38.802286l-51.017142 51.017143 50.944 51.017143z" fill="#E65046" p-id="27436"></path></svg>