<?xml version="1.0" encoding="UTF-8"?>
<svg width="24px" height="24px" viewBox="0 0 24 24" version="1.1" xmlns="http://www.w3.org/2000/svg" xmlns:xlink="http://www.w3.org/1999/xlink">
    <title>编组 11</title>
    <g id="页面-1" stroke="none" stroke-width="1" fill="none" fill-rule="evenodd">
        <g id="空调控制" transform="translate(-254.000000, -213.000000)">
            <g id="编组-9" transform="translate(139.000000, 203.000000)">
                <g id="编组-4" transform="translate(88.000000, 0.000000)">
                    <g id="编组-11" transform="translate(27.000000, 10.000000)">
                        <polygon id="路径" fill="#909399" fill-rule="nonzero" points="14.4133731 2 15.3185883 3.36423374 12.8129568 5.03896387 12.8129568 10.7696568 17.7602872 7.90183624 17.9553803 4.89258583 19.5798955 4.99323653 19.3935799 7.89855935 21.992948 9.18787063 21.2685194 10.6585249 18.5734047 9.31734178 13.6356191 12.1938669 18.5811766 15.0606598 21.2762125 13.7190756 22 15.1897298 19.4011124 16.4795614 19.5875886 19.3837228 17.9630734 19.4850146 17.7691036 16.4721913 12.8129568 13.618364 12.8129568 19.3516276 15.3153829 21.0255473 14.4095266 22.3897811 12.0011795 20.7711518 9.58726801 22.3865756 8.68141167 21.0217008 11.1889397 19.3479725 11.1889397 13.6172978 6.24031174 16.4850827 6.04590185 19.4939898 4.42138667 19.392698 4.60831658 16.4883493 2.00833413 15.1980639 2.73276277 13.7280508 5.42849181 15.0695668 10.3662774 12.1930418 5.42071989 9.32624882 2.72506972 10.666859 2 9.19299933 4.59947632 7.90360699 4.41369362 4.99836523 6.0382088 4.89771452 6.232788 7.9108748 11.1889397 10.7687818 11.1889397 5.03893609 8.68141167 3.36423374 9.58662692 2 12.0009755 3.61562031"></polygon>
                        <rect id="矩形备份-3" x="0" y="0" width="24" height="24"></rect>
                    </g>
                </g>
            </g>
        </g>
    </g>
</svg>