<?xml version="1.0" encoding="UTF-8"?>
<svg width="24px" height="24px" viewBox="0 0 24 24" version="1.1" xmlns="http://www.w3.org/2000/svg" xmlns:xlink="http://www.w3.org/1999/xlink">
    <title>编组 12</title>
    <g id="页面-1" stroke="none" stroke-width="1" fill="none" fill-rule="evenodd">
        <g id="空调控制" transform="translate(-167.000000, -213.000000)">
            <g id="编组-9" transform="translate(139.000000, 203.000000)">
                <g id="编组-4备份">
                    <g id="编组-12" transform="translate(28.000000, 10.000000)">
                        <path d="M12.0000244,19.1298419 C11.4921922,19.1298419 11.0833598,19.536841 11.0833598,20.0373399 L11.0833598,22.092502 C11.0833598,22.5957509 11.4940256,23 12.0000244,23 C12.5078566,23 12.9166891,22.5930009 12.9166891,22.092502 L12.9166891,20.0373399 C12.9166891,19.536841 12.50419,19.1298419 12.0000244,19.1298419 Z M7.82828371,11.9551079 C7.83080751,9.67768757 9.67585559,7.83181947 11.9532745,7.82828371 C14.2284362,7.82828371 16.0782654,9.67719627 16.0782654,11.9532745 C16.0762455,14.2309038 14.2309027,16.0770668 11.9532745,16.0800987 C9.67719627,16.0800987 7.82828371,14.2284362 7.82828371,11.9551079 Z M6.01237108,11.9734412 C6.0159085,15.263022 8.68202654,17.9287299 11.9716078,17.9317613 C15.2611882,17.9277179 17.926486,15.2611897 17.9290113,11.9716078 C17.9259791,8.68268158 15.2605341,6.01723661 11.9716078,6.01420441 C8.68265366,6.01966415 6.01742011,8.68448772 6.01237108,11.9734412 Z M20.0382566,11.0833598 C19.7961217,11.0840862 19.5642338,11.1811604 19.3937935,11.3531486 C19.2233532,11.5251368 19.1283793,11.7578929 19.129809,12.0000244 C19.129809,12.5078566 19.536841,12.9166918 20.0373399,12.9166918 L22.092502,12.9166918 C22.5948342,12.9166918 23,12.5060233 23,12.0000244 C23,11.4958589 22.5930009,11.0833598 22.092502,11.0833598 L20.0382566,11.0833598 Z M3.96362564,11.0833598 L1.90754687,11.0833598 C1.66557111,11.0843291 1.43391883,11.1815105 1.26367672,11.3534722 C1.09343462,11.5254339 0.998586317,11.7580512 1.00001593,12.0000244 C1.00001593,12.5078566 1.40704798,12.9166918 1.90754687,12.9166918 L3.96179231,12.9166918 C4.46320786,12.9166918 4.8702085,12.5078566 4.8702085,12.0000244 C4.87112362,11.4921922 4.46412452,11.0833598 3.96362564,11.0833598 Z M12.9166918,3.96270897 L12.9166918,1.90754687 C12.9157197,1.66557111 12.8185384,1.43391883 12.6465767,1.26367672 C12.474615,1.09343462 12.2419977,0.998586317 12.0000244,1.00001593 C11.4921922,1.00001593 11.0833598,1.40704798 11.0833598,1.90754687 L11.0833598,3.96270897 C11.0833598,4.46320786 11.4921922,4.87020696 12.0000244,4.87020696 C12.5078566,4.87020696 12.9166918,4.46320786 12.9166918,3.96270897 Z M7.22906171,6.31482607 C7.23024303,6.07288348 7.13517141,5.84039598 6.96478563,5.66862185 L5.5118722,4.21570841 C5.34009806,4.04532263 5.10761056,3.95025101 4.86566797,3.95143233 C4.62372538,3.9526584 4.39219535,4.05003857 4.22212506,4.22212506 C4.05003857,4.39219535 3.9526584,4.62372538 3.95143233,4.86566797 C3.95025101,5.10761056 4.04532263,5.34009806 4.21570841,5.5118722 L5.66862185,6.96478563 C6.02697809,7.31811188 6.60354608,7.31524338 6.95836898,6.95836898 C7.13045548,6.78829869 7.22783564,6.55676866 7.22906171,6.31482607 Z M5.5118722,19.7843405 L6.96478563,18.331427 C7.13517141,18.1596529 7.23024303,17.9271654 7.22905063,17.6852228 C7.22783564,17.4432802 7.13045548,17.2117502 6.95836898,17.0416799 C6.78829869,16.8695934 6.55676866,16.7722132 6.31482607,16.7709983 C6.07288348,16.7698059 5.84039598,16.8648775 5.66862185,17.0352633 L4.21570841,18.4881767 C4.04532263,18.6599508 3.95025101,18.8924383 3.95144342,19.1343809 C3.9526584,19.3763235 4.05003857,19.6078535 4.22212506,19.7779238 C4.57694796,20.1347982 5.15351596,20.1376667 5.5118722,19.7843405 Z M17.0416799,6.95836898 C17.2117502,7.13045548 17.4432802,7.22783564 17.6852228,7.22905063 C17.9271654,7.23024303 18.1596529,7.13517141 18.331427,6.96478563 L19.7843405,5.5118722 C19.9547263,5.34009806 20.0497979,5.10761056 20.0486055,4.86566797 C20.0473905,4.62372538 19.9500103,4.39219535 19.7779238,4.22212506 C19.6078535,4.05003857 19.3763235,3.9526584 19.1343809,3.95144342 C18.8924383,3.95025101 18.6599508,4.04532263 18.4881767,4.21570841 L17.0352633,5.66862185 C16.8648775,5.84039598 16.7698059,6.07288348 16.7709983,6.31482607 C16.7722132,6.55676866 16.8695934,6.78829869 17.0416799,6.95836898 Z M17.0416799,17.0416799 C16.8695934,17.2117502 16.7722132,17.4432802 16.7709983,17.6852228 C16.7698059,17.9271654 16.8648775,18.1596529 17.0352633,18.331427 L18.4881767,19.7843405 C18.6599508,19.9547263 18.8924383,20.0497979 19.1343809,20.0486055 C19.3763235,20.0473905 19.6078535,19.9500103 19.7779238,19.7779238 C19.9500103,19.6078535 20.0473905,19.3763235 20.0486055,19.1343809 C20.0497979,18.8924383 19.9547263,18.6599508 19.7843405,18.4881767 L18.331427,17.0352633 C18.1596529,16.8648775 17.9271654,16.7698059 17.6852228,16.7709983 C17.4432802,16.7722132 17.2117502,16.8695934 17.0416799,17.0416799 Z" id="形状" fill="#909399" fill-rule="nonzero"></path>
                        <rect id="矩形" x="0" y="0" width="24" height="24"></rect>
                    </g>
                </g>
            </g>
        </g>
    </g>
</svg>