<?xml version="1.0" encoding="UTF-8"?>
<svg width="24px" height="24px" viewBox="0 0 24 24" version="1.1" xmlns="http://www.w3.org/2000/svg" xmlns:xlink="http://www.w3.org/1999/xlink">
    <title>编组 10</title>
    <g id="页面-1" stroke="none" stroke-width="1" fill="none" fill-rule="evenodd">
        <g id="空调控制" transform="translate(-344.000000, -213.000000)">
            <g id="编组-9" transform="translate(139.000000, 203.000000)">
                <g id="编组-4备份-2" transform="translate(176.000000, 0.000000)">
                    <g id="编组-10" transform="translate(29.000000, 10.000000)">
                        <path d="M15.0967,15.2624737 C17.2256063,15.2624737 18.6031339,16.3895418 18.9788233,18.2053736 C19.2973971,19.861455 18.369811,21.5046075 16.7873021,22.0874969 L15.5350042,22.2127267 C14.2675608,22.2375609 13.0889502,21.5640691 12.4668745,20.4595097 C12.3416448,20.2090502 11.9659554,19.5829013 12.5921043,19.2072119 L13.0304086,19.0819821 C13.3783573,19.1335332 13.6683364,19.3751825 13.7817873,19.708131 C14.1175545,20.2896973 14.7382397,20.647785 15.4097744,20.6473544 L15.7854638,20.6473544 C16.5789585,20.5618858 17.231821,19.9843536 17.413451,19.2072119 C17.5664804,18.6654197 17.450016,18.083098 17.1003765,17.6418396 C16.7919384,17.1719235 16.2832624,16.8713422 15.7228489,16.827846 L1.94757273,16.827846 L1.57188339,16.7026162 C1.31972783,16.5792458 1.13597439,16.3495541 1.07096426,16.0764673 C1.11971659,15.7977503 1.27743167,15.5499123 1.50926849,15.3877035 C1.63887712,15.30158 1.79202847,15.2578225 1.94757273,15.2624737 L15.0967,15.2624737 Z M22.9235615,7.8739165 C23.3488574,10.0478248 21.9575066,12.162678 19.7928169,12.6326483 C19.3398284,12.7261762 18.8777174,12.7681863 18.4152893,12.7578781 L1.88495784,12.7578781 L1.88495784,12.820493 L1.57188339,12.820493 C1.25073079,12.78822 1.00673185,12.5171101 1.00834936,12.194344 C0.957800233,11.8716389 1.14086792,11.5578085 1.4466536,11.4429653 L1.94757273,11.3177356 L18.6031339,11.3177356 C19.9806615,11.3177356 20.9824998,10.6915866 21.3581892,9.5019037 C21.7461696,8.22643161 21.0932755,6.86623557 19.8554318,6.37115911 C19.554716,6.25767443 19.2374402,6.19421928 18.9162084,6.18331444 C17.9273448,6.16381479 17.0196139,6.72807994 16.5994574,7.62345695 C16.5324195,7.71582747 16.4893868,7.82340938 16.4742276,7.93653139 L16.3489978,8.18699096 C16.2751071,8.48517391 16.0271409,8.70834349 15.7228489,8.75052499 L15.3471596,8.6252952 C15.0651928,8.39566138 14.9037347,8.04967975 14.9088553,7.68607183 C15.3151193,6.11112119 16.6200688,4.92928015 18.2274446,4.68055703 L18.7909786,4.68055703 C20.7517893,4.62938309 22.4784386,5.96361205 22.9235615,7.8739165 Z M10.4005831,1.80027201 C12.2880005,1.93404346 13.728869,3.54116599 13.6565575,5.43193573 C13.5919386,7.2718927 12.1153103,8.74852097 10.2753533,8.81313987 L6.26800027,8.87575477 L2.01018763,8.87575477 C1.72459554,8.92667491 1.43059271,8.8588281 1.19619403,8.6879101 C1.05883302,8.53384064 0.99090222,8.33004824 1.00834936,8.12437606 C1.00834936,7.35826444 1.6184654,7.31319905 2.05566084,7.31054816 L10.1501236,7.31038248 C11.2221423,7.44870748 12.2033198,6.69179914 12.3416448,5.6197804 C12.4799698,4.54776165 11.7230614,3.56658419 10.6510427,3.42825919 L10.2127384,3.42825919 C9.59065531,3.43306581 9.00856792,3.73575126 8.64736615,4.24225279 L8.52213636,4.43009746 L8.39690658,4.61794213 C8.24740712,4.82250124 8.02160369,4.9579833 7.77075767,4.9936315 C7.62172636,4.99900594 7.48018754,4.92823653 7.39506831,4.8057868 C7.14433727,4.53741244 7.04966929,4.15874054 7.14460874,3.80394855 C7.69455473,2.57089675 8.92532892,1.78320127 10.2753533,1.80027201 L10.4005831,1.80027201 Z" id="形状结合" fill="#909399" fill-rule="nonzero"></path>
                        <rect id="矩形备份-4" x="0" y="0" width="24" height="24"></rect>
                    </g>
                </g>
            </g>
        </g>
    </g>
</svg>