<?xml version="1.0" encoding="UTF-8"?>
<svg width="24px" height="24px" viewBox="0 0 24 24" version="1.1" xmlns="http://www.w3.org/2000/svg" xmlns:xlink="http://www.w3.org/1999/xlink">
    <title>编组 7</title>
    <g id="页面-1" stroke="none" stroke-width="1" fill="none" fill-rule="evenodd">
        <g id="空调控制" transform="translate(-431.000000, -213.000000)">
            <g id="编组-9" transform="translate(139.000000, 203.000000)">
                <g id="编组-4备份-3" transform="translate(264.000000, 0.000000)">
                    <g id="编组-7" transform="translate(28.000000, 10.000000)">
                        <path d="M7.60103922,7.43852186 C4.91233179,9.02730353 3.69019204,11.8382249 3.87351301,13.7936485 C4.17904794,17.3989608 10.2286397,16.421249 8.70096499,12.2659739 C8.08989512,10.6771922 6.98996935,8.90508955 7.60103922,7.43852186 Z M13.345096,15.9323931 C13.650631,19.7210263 20.0668646,18.6822075 18.416976,14.2825044 C17.8059061,12.5715088 16.5837663,10.7382992 17.2559432,9.21062449 C14.4450218,10.9216201 13.1617751,13.8547555 13.345096,15.9323931 Z M18.9058319,19.7821333 L5.03454576,19.7821333 C3.69019204,19.7821333 2.77358724,18.6211005 2.65137326,17.3378538 C2.52915929,16.299035 1.00148461,16.115714 1.00148461,17.3378538 C0.94037762,19.6599193 2.77358724,21.5542359 5.03454576,21.5542359 L18.9058319,21.5542359 C21.1667904,21.5542359 23,19.6599193 23,17.3378538 C22.877786,16.0546071 21.3501113,16.237928 21.2890044,17.3378538 C21.1667904,18.6822075 20.1890786,19.7821333 18.9058319,19.7821333 Z M14.5061288,5.97195417 C14.0172729,4.68870744 13.1006681,3.22213974 13.589524,2 C11.3896724,3.34435372 10.4119606,5.60531224 10.5341746,7.19409391 C10.7786026,10.1883363 15.7893755,9.33283846 14.5061288,5.97195417 Z" id="形状" fill="#909399" fill-rule="nonzero"></path>
                        <rect id="矩形备份-6" x="0" y="0" width="24" height="24"></rect>
                    </g>
                </g>
            </g>
        </g>
    </g>
</svg>