<svg xmlns="http://www.w3.org/2000/svg" width="64" height="64" viewBox="0 0 64 64">
  <g id="组_8" data-name="组 8" transform="translate(-78 -257)">
    <rect id="矩形_3" data-name="矩形 3" width="64" height="64" transform="translate(78 257)" fill="none"/>
    <g id="组_4" data-name="组 4" transform="translate(-39.735 260.342)">
      <path id="减去_1" data-name="减去 1" d="M57.754-217.814h0L44.928-230.269a17.374,17.374,0,0,1-5.193-12.416,17.366,17.366,0,0,1,5.275-12.488,18.092,18.092,0,0,1,12.745-5.169,18.238,18.238,0,0,1,7.118,1.429,17.935,17.935,0,0,1,5.774,3.888,17.236,17.236,0,0,1,5.087,12.3,17.374,17.374,0,0,1-5.193,12.416L57.755-217.815Zm.039-41.077a16.216,16.216,0,0,0-16.362,16.028,16.216,16.216,0,0,0,16.362,16.028,16.216,16.216,0,0,0,16.362-16.028A16.216,16.216,0,0,0,57.793-258.891Z" transform="translate(92 265)" fill="#2379e4"/>
      <path id="路径_14" data-name="路径 14" d="M240.216,858.975c-6.518,0-13.542-1.334-13.542-4.255,0-2.053,3.359-3.117,6.134-3.641a.858.858,0,0,1,.992.669.84.84,0,0,1-.67.979c-3.589.659-4.785,1.633-4.785,1.978,0,.764,4.018,2.577,11.809,2.577s11.809-1.8,11.809-2.577c0-.36-1.257-1.349-4.969-2.023a.84.84,0,0,1-.69-.974.873.873,0,0,1,1-.674c2.914.524,6.38,1.573,6.38,3.671.061,2.937-6.947,4.27-13.465,4.27Zm0,0" transform="translate(-90.443 -806.317)" fill="#2379e4"/>
    </g>
    <g id="组_5" data-name="组 5" transform="translate(-15.2 272.474)">
      <path id="路径_15" data-name="路径 15" d="M342.937,14.079a4.972,4.972,0,0,0-1.971-1.83V2.816a2.678,2.678,0,1,0-5.35,0v9.574a4.551,4.551,0,0,0-1.971,1.689,5.2,5.2,0,0,0-.845,2.957,5.439,5.439,0,0,0,1.549,3.8,5.919,5.919,0,0,0,3.942,1.689,5.289,5.289,0,0,0,5.35-5.35A4.821,4.821,0,0,0,342.937,14.079Zm-4.646,7.462a4.536,4.536,0,0,1-4.505-4.505,4.7,4.7,0,0,1,2.534-4.083l.282-.141v-10a1.83,1.83,0,1,1,3.66,0V12.952l.282.141a4.7,4.7,0,0,1,2.534,4.083,4.77,4.77,0,0,1-4.787,4.364Z" transform="translate(-212.813)" fill="#2379e4"/>
      <path id="路径_16" data-name="路径 16" d="M126.322,121.049v-8.87a.845.845,0,0,0-1.689,0v8.87a2.284,2.284,0,0,0-1.549,2.253,2.393,2.393,0,0,0,4.787,0A2.284,2.284,0,0,0,126.322,121.049Zm-5.913-10.559h-4.364a.747.747,0,0,1-.845-.845.811.811,0,0,1,.845-.845h4.505a.908.908,0,0,1,.845.845A.931.931,0,0,1,120.409,110.489Zm0,2.675h-2.816a.845.845,0,1,1,0-1.689h2.816a.908.908,0,0,1,.845.845A.747.747,0,0,1,120.409,113.164Zm0,2.816h-.845a.845.845,0,1,1,0-1.689h.986a.908.908,0,0,1,.845.845A1.054,1.054,0,0,1,120.409,115.98Z" transform="translate(0 -106.407)" fill="#2379e4"/>
    </g>
  </g>
</svg>
