<svg xmlns="http://www.w3.org/2000/svg" width="64" height="64" viewBox="0 0 64 64">
  <g id="组_78" data-name="组 78" transform="translate(-72 -719)">
    <g id="组_73" data-name="组 73" transform="translate(0 -80)">
      <g id="组_76" data-name="组 76">
        <g id="组_27" data-name="组 27" transform="translate(-6 450)">
          <g id="组_9" data-name="组 9">
            <rect id="矩形_4" data-name="矩形 4" width="64" height="64" transform="translate(78 349)" fill="none"/>
          </g>
        </g>
        <path id="路径_29" data-name="路径 29" d="M43.853,39.367H1.994C.894,39.367,0,40,0,40.773s.894,1.406,1.994,1.406H43.853c1.1,0,1.994-.63,1.994-1.406S44.959,39.367,43.853,39.367ZM45.847,22.6a23.577,23.577,0,0,0-7.1-16.973l-1.5,3.689a19.829,19.829,0,0,1,5.043,13.278,20.119,20.119,0,0,1-1.086,6.487,1.913,1.913,0,0,0,1.977,1.853c.974,0,1.49-.855,1.777-1.853A24.1,24.1,0,0,0,45.847,22.6ZM4.977,29.118a18.239,18.239,0,0,1-1.166-6.369c0-10.551,8.963-19.1,20.015-19.1a20.927,20.927,0,0,1,5.075.641L31.52,1.22A24.738,24.738,0,0,0,23.826,0C10.668,0,0,10.182,0,22.743a21.814,21.814,0,0,0,.954,6.369c.413,1.128.854,1.819,1.906,1.819a2.057,2.057,0,0,0,2.12-1.814Zm12.215-6.9a6.057,6.057,0,0,0,6.207,5.9,6.056,6.056,0,0,0,6.2-5.9,5.653,5.653,0,0,0-.725-2.759l8.04-18.224c.65-1.476.315-1.659-.754-.4L23,16.346a6.026,6.026,0,0,0-5.8,5.877Zm8.6.276a2.867,2.867,0,1,1-2.865-2.815A2.841,2.841,0,0,1,25.789,22.5Z" transform="translate(81.076 809.91)" fill="#2379e4" stroke="#fff" stroke-width="0.4"/>
      </g>
    </g>
  </g>
</svg>
