<svg t="1723084518081" class="icon" viewBox="0 0 1024 1024" version="1.1" xmlns="http://www.w3.org/2000/svg" p-id="7592" width="64" height="64"><path d="M643.9 533.4l-124.05-47.95 56.5-191.05L376.5 509.25l105.45 60.45-57 170.95L643.9 533.4z" fill="#338AFD" p-id="7593"></path><path d="M753 877.7H280.95c-29.489 0-55.032-10.591-75.921-31.479-20.855-20.855-31.429-46.382-31.429-75.871V492c0-13.255 10.745-24 24-24s24 10.745 24 24v278.35c0 16.525 5.682 30.241 17.371 41.93 11.722 11.723 25.454 17.421 41.979 17.421H753c16.516 0 30.226-5.692 41.912-17.403 11.745-11.721 17.438-25.431 17.438-41.947V492c0-13.255 10.745-24 24-24s24 10.745 24 24v278.35c0 29.499-10.597 55.031-31.496 75.889C808.031 867.104 782.498 877.7 753 877.7z m193.679-423.248a23.89 23.89 0 0 1-13.653-4.278L515.027 160.373 106.111 444.998c-10.877 7.572-25.836 4.893-33.409-5.987-7.572-10.879-4.892-25.837 5.987-33.409l422.6-294.15a24.001 24.001 0 0 1 27.386-0.025l431.7 299.3c10.893 7.552 13.601 22.505 6.049 33.398-4.661 6.722-12.141 10.327-19.745 10.327z" fill="#338AFD" p-id="7594"></path></svg>