<svg xmlns="http://www.w3.org/2000/svg" width="64" height="64" viewBox="0 0 64 64">
  <g id="组_6" data-name="组 6" transform="translate(-78 -74)">
    <rect id="矩形_1" data-name="矩形 1" width="64" height="64" transform="translate(78 74)" fill="none"/>
    <g id="组_1" data-name="组 1" transform="translate(86 82)">
      <path id="路径_1" data-name="路径 1" d="M312.8,96.615h4.1V98.49h-4.1Zm7.266,0h4.1V98.49h-4.1Zm7.254,0h4.1V98.49h-4.1ZM312.8,100.9h4.1v1.874h-4.1Zm7.266,0h4.1v1.874h-4.1Zm7.254,0h4.1v1.874h-4.1ZM317.108,82.011l1.4,1.217a5.72,5.72,0,0,1,3.542-1.753A5.051,5.051,0,0,1,325.7,83.24l1.327-1.327a6.791,6.791,0,0,0-5.039-2.337,7.424,7.424,0,0,0-4.88,2.434Z" transform="translate(-298.133 -75.876)" fill="#2379e4"/>
      <path id="路径_2" data-name="路径 2" d="M335.691,2.837a10.029,10.029,0,0,1,7.424,3.5l1.327-1.326C341.691,2.174,338.77.848,335.63.946A12.822,12.822,0,0,0,327.2,5.133l1.4,1.228a11.027,11.027,0,0,1,7.1-3.524Zm.28,42.312a7.413,7.413,0,0,0,4.868-2.456l-1.412-1.228a5.653,5.653,0,0,1-3.53,1.768,5.07,5.07,0,0,1-3.651-1.78l-1.327,1.338a6.877,6.877,0,0,0,4.868,2.333Z" transform="translate(-311.86 -0.897)" fill="#2379e4"/>
      <path id="路径_3" data-name="路径 3" d="M101.61,432.05c-2.544.085-5.039-1.083-7.412-3.469L92.872,429.9a11.964,11.964,0,0,0,8.519,4.028h.329a12.852,12.852,0,0,0,8.446-4.15l-1.412-1.217a11.051,11.051,0,0,1-7.144,3.493ZM83.72,405.2a6.816,6.816,0,0,0-2.312,5.1,7.436,7.436,0,0,0,2.434,4.868l1.217-1.412a5.55,5.55,0,0,1-1.753-3.542,5,5,0,0,1,1.753-3.651Z" transform="translate(-77.622 -385.973)" fill="#2379e4"/>
      <path id="路径_4" data-name="路径 4" d="M1.774,335.748a12.838,12.838,0,0,0,4.161,8.446l1.224-1.412a11.065,11.065,0,0,1-3.525-7.1c-.086-2.556,1.089-5.051,3.5-7.424l-1.31-1.327C3.035,329.687,1.7,332.657,1.774,335.748Zm41.783,4.759a6.775,6.775,0,0,0,2.325-5.087,7.422,7.422,0,0,0-2.448-4.868l-1.224,1.412a5.538,5.538,0,0,1,1.762,3.554,5.016,5.016,0,0,1-1.762,3.651Z" transform="translate(-1.688 -311.541)" fill="#2379e4"/>
      <path id="路径_5" data-name="路径 5" d="M913.652,334.336a12.864,12.864,0,0,0-4.138-8.446L908.3,327.3a11.148,11.148,0,0,1,3.505,7.108,10.065,10.065,0,0,1-3.493,7.412l1.327,1.327c2.763-2.751,4.126-5.72,4.016-8.811Z" transform="translate(-865.819 -310.543)" fill="#2379e4"/>
      <path id="路径_6" data-name="路径 6" d="M44.712,41.46a3.2,3.2,0,0,0-1.957.663l-4.171-4.761V10.638l5.1-4.258a3.111,3.111,0,0,0,1.028.172A3.276,3.276,0,1,0,42.119,5.24L37.226,9.362H10.8L6.129,4.724A3.251,3.251,0,0,0,3.254.05,3.25,3.25,0,1,0,4.906,6.184l4.465,4.4V37.424L4.282,41.669a3.255,3.255,0,1,0,2.2,3.08,3.2,3.2,0,0,0-.636-1.926l4.979-4.159h26.4l4.4,5.031a3.457,3.457,0,0,0-.159,1.006,3.24,3.24,0,1,0,3.242-3.239Zm0-39.521A1.375,1.375,0,1,1,43.354,3.3,1.37,1.37,0,0,1,44.712,1.939Zm-8,9.3v3.239h-3.23V11.24Zm-25.457,0h3.217v3.239H11.255ZM1.9,3.35A1.358,1.358,0,1,1,3.254,4.712,1.36,1.36,0,0,1,1.9,3.35Zm1.358,42.76a1.362,1.362,0,1,1,1.358-1.362A1.36,1.36,0,0,1,3.254,46.111Zm8.123-9.337V33.546h3.23v3.227Zm5.1,0V31.657H11.255V16.368h5.1V11.24H31.6v5.129h5.113V31.657H31.6v5.117Zm17-3.227h3.23v3.227h-3.23Zm11.23,12.528a1.36,1.36,0,1,1,.965-.4A1.356,1.356,0,0,1,44.712,46.074Z" transform="translate(0 0)" fill="#2379e4"/>
    </g>
  </g>
</svg>
