<svg xmlns="http://www.w3.org/2000/svg" width="64" height="64" viewBox="0 0 64 64">
  <g id="组_12" data-name="组 12" transform="translate(-78 -161)">
    <rect id="矩形_2" data-name="矩形 2" width="64" height="64" transform="translate(78 161)" fill="none"/>
    <g id="组_11" data-name="组 11" transform="translate(-46.042 129.969)">
      <path id="路径_17" data-name="路径 17" d="M178.851,85.02H178v-21.2a4.4,4.4,0,0,0-4.085-4.271v-3.8h.851a.656.656,0,0,0,.511-.158h.17a.159.159,0,0,0,.17-.158.159.159,0,0,1,.17-.158l.17-.158v-.949l-1.872-3.8h.681a.656.656,0,0,0,.511-.158h.17a.159.159,0,0,0,.17-.158.159.159,0,0,1,.17-.158l.17-.158v-.949l-1.872-3.955h.681a.656.656,0,0,0,.511-.158h.17a.159.159,0,0,0,.17-.158.159.159,0,0,1,.17-.158l.17-.158v-.949l-2.723-5.379v-.158c-.17-.158-.17-.158-.17-.316l-.17-.158-.17-.158h-1.532v-.949A1.125,1.125,0,0,0,170,35.031a1.286,1.286,0,0,0-1.362,1.107v.949h-1.532s-.17,0-.17.158c0,0-.17,0-.17.158l-.17.158v.158L163.872,43.1v.949a3555.472,3555.472,0,0,0,.34.316l.17.158h.17c.17,0,.34.158.511.158h.851l-2.043,4.113v.949a1851.866,1851.866,0,0,0,.34.316l.17.158h.17c.17,0,.34.158.511.158h.851l-1.872,3.955v.949a2599.062,2599.062,0,0,1,.34.316l.17.158h.17c.17,0,.34.158.511.158h.681v3.8H160.3v-3.8h.851a.656.656,0,0,0,.511-.158h.17A.159.159,0,0,0,162,55.6a.159.159,0,0,1,.17-.158l.17-.158v-.949l-2.213-3.955h.851a.656.656,0,0,0,.511-.158h.17a.159.159,0,0,0,.17-.158A.159.159,0,0,1,162,49.9l.17-.158v-.949L160.3,44.839h.851a.656.656,0,0,0,.511-.158h.17a.159.159,0,0,0,.17-.158.159.159,0,0,1,.17-.158l.17-.158v-.949l-2.894-5.379v-.158c0-.158-.17-.158-.17-.158s-.17,0-.17-.158l-.17-.158H157.4V36.139a1.125,1.125,0,0,0-1.191-1.107,1.286,1.286,0,0,0-1.362,1.107v.949h-1.532s-.17,0-.17.158c0,0-.17,0-.17.158l-.17.158-.17.158L149.915,43.1v.949a9662.932,9662.932,0,0,1,.34.316l.17.158h.17c.17,0,.34.158.511.158h.851l-1.872,4.113v.949a4357.13,4357.13,0,0,1,.34.316l.17.158h.17c.17,0,.34.158.511.158h.851l-1.872,3.955v.949a2599.062,2599.062,0,0,0,.34.316l.17.158h.17c.17,0,.34.158.511.158h.681v3.8H146.51v-3.8h.851a.656.656,0,0,0,.511-.158h.17a.159.159,0,0,0,.17-.158.159.159,0,0,1,.17-.158l.17-.158v-.949l-2.213-3.955h.851a.656.656,0,0,0,.511-.158h.17a.159.159,0,0,0,.17-.158.159.159,0,0,1,.17-.158l.17-.158v-.949l-1.872-3.955h.851a.656.656,0,0,0,.511-.158h.17a.159.159,0,0,0,.17-.158.159.159,0,0,1,.17-.158l.17-.158v-.949l-2.723-5.379v-.158c0-.158-.17-.158-.17-.158l-.17-.158-.17-.158h-1.532V36.139a1.125,1.125,0,0,0-1.191-1.107c-.681,0-1.532.475-1.532,1.107v.949h-1.532s-.17,0-.17.158c0,0-.17,0-.17.158l-.34.316v.158l-2.723,5.379v.949a19324.485,19324.485,0,0,0,.34.316l.17.158h.17c.17,0,.34.158.511.158h.851l-2.043,3.955v.949a6441.495,6441.495,0,0,0,.34.316l.17.158h.17c.17,0,.34.158.511.158h.851L136.3,54.331v.949a2940232292791.1,2940232292791.1,0,0,0,.34.316l.17.158h.17c.17,0,.34.158.511.158h.681v3.8a4.386,4.386,0,0,0-3.915,4.271v21.2h-1.021a1.125,1.125,0,0,0-1.191,1.107v3.638a1.125,1.125,0,0,0,1.191,1.107h45.617a1.125,1.125,0,0,0,1.192-1.107v-3.8a1.125,1.125,0,0,0-1.192-1.107ZM166.766,53.54l1.532-3.322h3.064l1.532,3.322h-6.128Zm.851-5.379h-.851l1.532-3.322h3.064l1.532,3.322h-5.277Zm0-5.537h-.851l1.7-3.322h2.894l1.532,3.322h-5.277Zm.511,13.13H171.7v3.8h-3.574ZM152.978,53.54l1.532-3.322H157.4l1.532,3.322Zm.851-5.379h-.851l1.532-3.322H157.4l1.532,3.322Zm0-5.537h-.851L154.51,39.3H157.4l1.532,3.322Zm.34,13.13h3.574v3.8H154.17v-3.8ZM139.191,53.54l1.532-3.164h2.894l1.532,3.322h-5.957Zm.681-5.379h-.681l1.532-3.322h2.894l1.532,3.322h-5.277Zm0-5.537h-.681l1.532-3.322h2.894l1.532,3.322h-5.277Zm4.085,13.13v3.8h-3.574v-3.8Zm-7.489,8.068a2.178,2.178,0,0,1,2.213-2.057H173.4a2.178,2.178,0,0,1,2.213,2.057v21.2H136.468v-21.2Zm41.191,24.994H134.425V87.235h43.234v1.582Z" transform="translate(0 0)" fill="#2379e4"/>
      <path id="路径_18" data-name="路径 18" d="M482.078,630.44V630.1a672.139,672.139,0,0,0-.341-.341l-.17-.17-.17-.17h-1.533l.852-2.044a1.074,1.074,0,0,0-.511-1.533,1.122,1.122,0,0,0-1.533.511l-1.7,3.747v.852a1059533549744.5,1059533549744.5,0,0,0,.341.341l.17.17.17.17c.17,0,.341.17.511.17h1.192l-.852,2.044a1.074,1.074,0,0,0,.511,1.533c.17,0,.341.17.511.17a1.15,1.15,0,0,0,1.022-.681l1.7-3.747v-.341Z" transform="translate(-323.141 -556.517)" fill="#2379e4"/>
      <path id="路径_19" data-name="路径 19" d="M361.076,537.956a3.505,3.505,0,0,0-3.236-1.7,3.469,3.469,0,0,0-2.725,1.533v.17l-6.983,12.263a3.094,3.094,0,0,0,0,3.406,3.513,3.513,0,0,0,2.9,1.7h14.136a3.335,3.335,0,0,0,2.9-5.11l-6.983-12.263Zm5.11,14.477a1.062,1.062,0,0,1-.852.511H351.2c-.511,0-.852-.341-.852-.511s-.17-.341-.17-.511a.626.626,0,0,1,.17-.511l6.983-12.263a.927.927,0,0,1,.852-.511.809.809,0,0,1,.852.511l6.983,12.263a.626.626,0,0,1,.17.511c.17.341,0,.511,0,.511Z" transform="translate(-201.968 -472.841)" fill="#2379e4"/>
    </g>
  </g>
</svg>
