<svg xmlns="http://www.w3.org/2000/svg" width="64" height="64" viewBox="0 0 64 64">
  <g id="组_52" data-name="组 52" transform="translate(-72 -431)">
    <g id="组_29" data-name="组 29" transform="translate(-6 270)">
      <rect id="矩形_2" data-name="矩形 2" width="64" height="64" transform="translate(78 161)" fill="none"/>
    </g>
    <g id="组_30" data-name="组 30" transform="translate(75.407 438.08)">
      <path id="路径_20" data-name="路径 20" d="M240.587,11.035v-.582H240.4a1.261,1.261,0,0,1-1.207-1.281A1.247,1.247,0,0,1,240.4,7.961h.186v-.3H240.4a1.261,1.261,0,0,1-1.207-1.281A1.247,1.247,0,0,1,240.4,5.167h.186v-.3H240.4a1.261,1.261,0,0,1-1.207-1.281A1.247,1.247,0,0,1,240.4,2.372h.186a.449.449,0,0,1,.093-.279L242,.23a.485.485,0,0,1,.673-.116.28.28,0,0,1,.116.116l1.3,1.863a.5.5,0,0,1,.093.279h.116a1.261,1.261,0,0,1,1.207,1.281A1.247,1.247,0,0,1,244.3,4.864h-.116v.3h.116a1.261,1.261,0,0,1,1.207,1.281A1.247,1.247,0,0,1,244.3,7.658h-.116v.3h.116a1.246,1.246,0,0,1,.07,2.492h-.209v.582Zm2.6-.279v-.3h-1.648v.3h1.648ZM240.4,8.939a.283.283,0,0,0-.093.559h3.946a.283.283,0,0,0,.093-.559Zm2.786-.978v-.3h-1.648v.3h1.648ZM240.4,6.168a.283.283,0,0,0-.093.559h3.946a.283.283,0,0,0,.093-.559Zm2.786-.978v-.3h-1.648v.3ZM240.4,3.374a.283.283,0,0,0-.093.559h3.946a.273.273,0,0,0,.232-.326.3.3,0,0,0-.232-.233Zm2.693-.978-.7-1-.72,1.025,1.416-.023ZM230.42,11.012v-.582h-.186a1.261,1.261,0,0,1-1.207-1.281,1.247,1.247,0,0,1,1.207-1.211h.186v-.3h-.186a1.261,1.261,0,0,1-1.207-1.281,1.247,1.247,0,0,1,1.207-1.211h.186v-.3h-.186a1.261,1.261,0,0,1-1.207-1.281,1.247,1.247,0,0,1,1.207-1.211h.186a.449.449,0,0,1,.093-.279L231.836.206a.485.485,0,0,1,.673-.116.28.28,0,0,1,.116.116l1.3,1.863a.5.5,0,0,1,.093.279h.116a1.261,1.261,0,0,1,1.207,1.281,1.247,1.247,0,0,1-1.207,1.211h-.116v.3h.116a1.261,1.261,0,0,1,1.207,1.281,1.247,1.247,0,0,1-1.207,1.211h-.116v.3h.116a1.261,1.261,0,0,1,1.207,1.281,1.247,1.247,0,0,1-1.207,1.211h-.116v.582h-3.6Zm2.623-.279v-.3h-1.648v.3Zm-2.809-1.793a.283.283,0,0,0-.093.559h3.969a.283.283,0,0,0,.093-.559Zm2.809-.978v-.3h-1.648v.3h1.648Zm-2.809-1.816a.283.283,0,0,0-.093.559h3.969a.283.283,0,0,0,.093-.559Zm2.809-.978v-.3h-1.648V5.19ZM230.234,3.35a.283.283,0,0,0-.093.559h3.969a.273.273,0,0,0,.232-.326.3.3,0,0,0-.232-.233Zm2.693-.955-.7-1-.72,1.025,1.416-.023Zm-12.651,8.616v-.582h-.186a1.261,1.261,0,0,1-1.207-1.281,1.247,1.247,0,0,1,1.207-1.211h.186v-.3h-.186a1.261,1.261,0,0,1-1.207-1.281,1.247,1.247,0,0,1,1.207-1.211h.186v-.3h-.186a1.261,1.261,0,0,1-1.207-1.281,1.247,1.247,0,0,1,1.207-1.211h.186a.448.448,0,0,1,.093-.279L221.692.206a.485.485,0,0,1,.673-.116.281.281,0,0,1,.116.116l1.277,1.933a.5.5,0,0,1,.093.279h.116A1.261,1.261,0,0,1,225.173,3.7a1.247,1.247,0,0,1-1.207,1.211h-.116v.3h.116a1.261,1.261,0,0,1,1.207,1.281A1.247,1.247,0,0,1,223.966,7.7h-.116v.3h.116a1.261,1.261,0,0,1,1.207,1.281,1.247,1.247,0,0,1-1.207,1.211h-.116v.582Zm2.6-.279v-.3h-1.648v.3ZM220.09,8.916a.283.283,0,0,0-.093.559h3.946a.283.283,0,0,0,.093-.559Zm2.786-.978v-.3h-1.648v.3ZM220.09,6.145A.283.283,0,0,0,220,6.7h3.946a.283.283,0,0,0,.093-.559Zm2.786-.978v-.3h-1.648V5.19ZM220.09,3.35a.283.283,0,0,0-.093.559h3.946a.273.273,0,0,0,.232-.326.3.3,0,0,0-.232-.233H220.09Zm2.67-.978-.7-1-.72,1.048,1.416-.047Z" transform="translate(-203.579 0)" fill="#237ae4"/>
      <path id="路径_21" data-name="路径 21" d="M109.247,267.319H73.926a2.343,2.343,0,0,1-2.347-2.352V239.118a2.343,2.343,0,0,1,2.347-2.352h35.321a2.343,2.343,0,0,1,2.347,2.352v25.848A2.4,2.4,0,0,1,109.247,267.319ZM73.926,238.164a.958.958,0,0,0-.953.955v25.825a.958.958,0,0,0,.953.955h35.321a.958.958,0,0,0,.953-.955V239.1a.958.958,0,0,0-.953-.955Z" transform="translate(-62.982 -226.073)" fill="#237ae4"/>
      <path id="路径_22" data-name="路径 22" d="M9.265,323.49h-1.3a2.38,2.38,0,0,1-2.371-2.369V301.634a2.38,2.38,0,0,1,2.371-2.369h1.3l.7.7v22.832l-.7.7Zm-1.3-22.832a.982.982,0,0,0-.976.975v19.51a.982.982,0,0,0,.976.976h.6V300.658h-.6ZM49.222,323.49h-1.3l-.7-.7V299.985l.7-.7h1.3a2.38,2.38,0,0,1,2.371,2.369v19.487A2.375,2.375,0,0,1,49.222,323.49Zm-.6-1.394h.6a.982.982,0,0,0,.976-.976V301.634a.982.982,0,0,0-.976-.976h-.6V322.1Zm-6.485,9.5H15.053a2.4,2.4,0,0,1-2.371-2.369V325.7l.7-.7h30.4l.7.7v3.53a2.345,2.345,0,0,1-2.348,2.369Zm-28.056-5.2v2.834a.982.982,0,0,0,.976.975H42.109a.982.982,0,0,0,.976-.975v-2.834Zm12.831-19.255.279-.186v-7.8a.491.491,0,0,0-.488-.488h-.558a.491.491,0,0,0-.488.488v8.872l.279-.186m-3.37,9.012.279-.395v-5.133a1.01,1.01,0,0,1,0-1.231V299.172a.491.491,0,0,0-.488-.488h-.558a.491.491,0,0,0-.488.488v19.487l.279-.395m-7.926-19.6H13.1a.491.491,0,0,0-.488.488v23.668a.491.491,0,0,0,.488.488h.558a.491.491,0,0,0,.488-.488V299.149A.476.476,0,0,0,13.658,298.661ZM35.6,300.983l.279-.186v-1.649a.491.491,0,0,0-.488-.488h-.558a.491.491,0,0,0-.488.488v2.718l.279-.186m-16.619-3.019h-.558a.491.491,0,0,0-.488.488v23.668a.491.491,0,0,0,.488.488h.558a.491.491,0,0,0,.488-.488V299.149a.476.476,0,0,0-.488-.488Zm13.249,5.388.279-.186v-4.715a.491.491,0,0,0-.488-.488h-.558a.491.491,0,0,0-.488.488v5.783l.279-.186m13.807-6.085h-.558a.491.491,0,0,0-.488.488v23.668a.491.491,0,0,0,.488.488h.558a.491.491,0,0,0,.488-.488V299.149A.491.491,0,0,0,44.085,298.661ZM31.533,310.553v0Zm-9.948,11.242-.279.186v.836a.491.491,0,0,0,.488.488h.558a.491.491,0,0,0,.488-.488v-1.881l-.279.186m7.717-5.342-.279.186v6.829a.491.491,0,0,0,.488.488h.558a.491.491,0,0,0,.488-.488v-7.874l-.279.186m8.484-16.444H39.18a.491.491,0,0,0-.488.488v23.668a.491.491,0,0,0,.488.488h.558a.491.491,0,0,0,.488-.488V299.149A.491.491,0,0,0,39.738,298.661Zm-5.114,7.316-.279.418v5.319a.976.976,0,0,1,0,1.208v9.895a.491.491,0,0,0,.488.488h.558a.491.491,0,0,0,.488-.488V304.142l-.279.418M25.931,318.8l-.279.186v3.832a.491.491,0,0,0,.488.488H26.7a.491.491,0,0,0,.488-.488v-4.878l-.279.186" transform="translate(0 -285.064)" fill="#237ae4"/>
    </g>
    <g id="组_33" data-name="组 33" transform="translate(-6 270)">
      <rect id="矩形_2-2" data-name="矩形 2" width="64" height="64" transform="translate(78 161)" fill="none"/>
    </g>
    <g id="组_34" data-name="组 34" transform="translate(75.407 438.08)">
      <path id="路径_20-2" data-name="路径 20" d="M240.587,11.035v-.582H240.4a1.261,1.261,0,0,1-1.207-1.281A1.247,1.247,0,0,1,240.4,7.961h.186v-.3H240.4a1.261,1.261,0,0,1-1.207-1.281A1.247,1.247,0,0,1,240.4,5.167h.186v-.3H240.4a1.261,1.261,0,0,1-1.207-1.281A1.247,1.247,0,0,1,240.4,2.372h.186a.449.449,0,0,1,.093-.279L242,.23a.485.485,0,0,1,.673-.116.28.28,0,0,1,.116.116l1.3,1.863a.5.5,0,0,1,.093.279h.116a1.261,1.261,0,0,1,1.207,1.281A1.247,1.247,0,0,1,244.3,4.864h-.116v.3h.116a1.261,1.261,0,0,1,1.207,1.281A1.247,1.247,0,0,1,244.3,7.658h-.116v.3h.116a1.246,1.246,0,0,1,.07,2.492h-.209v.582Zm2.6-.279v-.3h-1.648v.3h1.648ZM240.4,8.939a.283.283,0,0,0-.093.559h3.946a.283.283,0,0,0,.093-.559Zm2.786-.978v-.3h-1.648v.3h1.648ZM240.4,6.168a.283.283,0,0,0-.093.559h3.946a.283.283,0,0,0,.093-.559Zm2.786-.978v-.3h-1.648v.3ZM240.4,3.374a.283.283,0,0,0-.093.559h3.946a.273.273,0,0,0,.232-.326.3.3,0,0,0-.232-.233Zm2.693-.978-.7-1-.72,1.025,1.416-.023ZM230.42,11.012v-.582h-.186a1.261,1.261,0,0,1-1.207-1.281,1.247,1.247,0,0,1,1.207-1.211h.186v-.3h-.186a1.261,1.261,0,0,1-1.207-1.281,1.247,1.247,0,0,1,1.207-1.211h.186v-.3h-.186a1.261,1.261,0,0,1-1.207-1.281,1.247,1.247,0,0,1,1.207-1.211h.186a.449.449,0,0,1,.093-.279L231.836.206a.485.485,0,0,1,.673-.116.28.28,0,0,1,.116.116l1.3,1.863a.5.5,0,0,1,.093.279h.116a1.261,1.261,0,0,1,1.207,1.281,1.247,1.247,0,0,1-1.207,1.211h-.116v.3h.116a1.261,1.261,0,0,1,1.207,1.281,1.247,1.247,0,0,1-1.207,1.211h-.116v.3h.116a1.261,1.261,0,0,1,1.207,1.281,1.247,1.247,0,0,1-1.207,1.211h-.116v.582h-3.6Zm2.623-.279v-.3h-1.648v.3Zm-2.809-1.793a.283.283,0,0,0-.093.559h3.969a.283.283,0,0,0,.093-.559Zm2.809-.978v-.3h-1.648v.3h1.648Zm-2.809-1.816a.283.283,0,0,0-.093.559h3.969a.283.283,0,0,0,.093-.559Zm2.809-.978v-.3h-1.648V5.19ZM230.234,3.35a.283.283,0,0,0-.093.559h3.969a.273.273,0,0,0,.232-.326.3.3,0,0,0-.232-.233Zm2.693-.955-.7-1-.72,1.025,1.416-.023Zm-12.651,8.616v-.582h-.186a1.261,1.261,0,0,1-1.207-1.281,1.247,1.247,0,0,1,1.207-1.211h.186v-.3h-.186a1.261,1.261,0,0,1-1.207-1.281,1.247,1.247,0,0,1,1.207-1.211h.186v-.3h-.186a1.261,1.261,0,0,1-1.207-1.281,1.247,1.247,0,0,1,1.207-1.211h.186a.448.448,0,0,1,.093-.279L221.692.206a.485.485,0,0,1,.673-.116.281.281,0,0,1,.116.116l1.277,1.933a.5.5,0,0,1,.093.279h.116A1.261,1.261,0,0,1,225.173,3.7a1.247,1.247,0,0,1-1.207,1.211h-.116v.3h.116a1.261,1.261,0,0,1,1.207,1.281A1.247,1.247,0,0,1,223.966,7.7h-.116v.3h.116a1.261,1.261,0,0,1,1.207,1.281,1.247,1.247,0,0,1-1.207,1.211h-.116v.582Zm2.6-.279v-.3h-1.648v.3ZM220.09,8.916a.283.283,0,0,0-.093.559h3.946a.283.283,0,0,0,.093-.559Zm2.786-.978v-.3h-1.648v.3ZM220.09,6.145A.283.283,0,0,0,220,6.7h3.946a.283.283,0,0,0,.093-.559Zm2.786-.978v-.3h-1.648V5.19ZM220.09,3.35a.283.283,0,0,0-.093.559h3.946a.273.273,0,0,0,.232-.326.3.3,0,0,0-.232-.233H220.09Zm2.67-.978-.7-1-.72,1.048,1.416-.047Z" transform="translate(-203.579 0)" fill="#237ae4"/>
      <path id="路径_21-2" data-name="路径 21" d="M109.247,267.319H73.926a2.343,2.343,0,0,1-2.347-2.352V239.118a2.343,2.343,0,0,1,2.347-2.352h35.321a2.343,2.343,0,0,1,2.347,2.352v25.848A2.4,2.4,0,0,1,109.247,267.319ZM73.926,238.164a.958.958,0,0,0-.953.955v25.825a.958.958,0,0,0,.953.955h35.321a.958.958,0,0,0,.953-.955V239.1a.958.958,0,0,0-.953-.955Z" transform="translate(-62.982 -226.073)" fill="#237ae4"/>
      <path id="路径_22-2" data-name="路径 22" d="M9.265,323.49h-1.3a2.38,2.38,0,0,1-2.371-2.369V301.634a2.38,2.38,0,0,1,2.371-2.369h1.3l.7.7v22.832l-.7.7Zm-1.3-22.832a.982.982,0,0,0-.976.975v19.51a.982.982,0,0,0,.976.976h.6V300.658h-.6ZM49.222,323.49h-1.3l-.7-.7V299.985l.7-.7h1.3a2.38,2.38,0,0,1,2.371,2.369v19.487A2.375,2.375,0,0,1,49.222,323.49Zm-.6-1.394h.6a.982.982,0,0,0,.976-.976V301.634a.982.982,0,0,0-.976-.976h-.6V322.1Zm-6.485,9.5H15.053a2.4,2.4,0,0,1-2.371-2.369V325.7l.7-.7h30.4l.7.7v3.53a2.345,2.345,0,0,1-2.348,2.369Zm-28.056-5.2v2.834a.982.982,0,0,0,.976.975H42.109a.982.982,0,0,0,.976-.975v-2.834Zm13.11-8.454v-18.79a.491.491,0,0,0-.488-.488h-.558a.491.491,0,0,0-.488.488v19.835m-2.813,2.137v-9.8c-.279-.348-.279.372,0,0V299.172a.491.491,0,0,0-.488-.488h-.558a.491.491,0,0,0-.488.488V321.98m-7.647-23.319H13.1a.491.491,0,0,0-.488.488v23.668a.491.491,0,0,0,.488.488h.558a.491.491,0,0,0,.488-.488V299.149A.476.476,0,0,0,13.658,298.661Zm22.221,5.481v-4.994a.491.491,0,0,0-.488-.488h-.558a.491.491,0,0,0-.488.488V306.4m-16.341-7.734h-.558a.491.491,0,0,0-.488.488v23.668a.491.491,0,0,0,.488.488h.558a.491.491,0,0,0,.488-.488V299.149a.476.476,0,0,0-.488-.488Zm13.528,16.259V299.149a.491.491,0,0,0-.488-.488h-.558a.491.491,0,0,0-.488.488v16.816m14.086-17.3h-.558a.491.491,0,0,0-.488.488v23.668a.491.491,0,0,0,.488.488h.558a.491.491,0,0,0,.488-.488V299.149A.491.491,0,0,0,44.085,298.661ZM31.533,310.553v0Zm-9.948,11.242-.279.186v.836a.491.491,0,0,0,.488.488h.558a.491.491,0,0,0,.488-.488v-1.881l-.279.186m7.717-5.342-.279.186v6.829a.491.491,0,0,0,.488.488h.558a.491.491,0,0,0,.488-.488v-7.874l-.279.186m8.484-16.444H39.18a.491.491,0,0,0-.488.488v23.668a.491.491,0,0,0,.488.488h.558a.491.491,0,0,0,.488-.488V299.149A.491.491,0,0,0,39.738,298.661Zm-5.114,7.316-.279.418v6.527c.279.348.279-.348,0,0v9.895a.491.491,0,0,0,.488.488h.558a.491.491,0,0,0,.488-.488V304.142l-.279.418M25.931,318.8l-.279.186v3.832a.491.491,0,0,0,.488.488H26.7a.491.491,0,0,0,.488-.488v-4.878l-.279.186" transform="translate(0 -285.064)" fill="#237ae4"/>
    </g>
  </g>
</svg>
