<?xml version="1.0" encoding="UTF-8"?>
<svg width="54px" height="54px" viewBox="0 0 54 54" version="1.1" xmlns="http://www.w3.org/2000/svg" xmlns:xlink="http://www.w3.org/1999/xlink">
    <title>编组 5</title>
    <defs>
        <linearGradient x1="3.45787667%" y1="95.3392565%" x2="100%" y2="0%" id="linearGradient-1">
            <stop stop-color="#1355FD" offset="0%"></stop>
            <stop stop-color="#03A0FF" offset="100%"></stop>
        </linearGradient>
    </defs>
    <g id="页面-1" stroke="none" stroke-width="1" fill="none" fill-rule="evenodd">
        <g id="园区概述-能源管理" transform="translate(-1613.000000, -435.000000)">
            <g id="编组" transform="translate(1592.000000, 119.000000)">
                <g id="编组-6备份-4" transform="translate(7.000000, 298.000000)">
                    <g id="编组-5" transform="translate(14.000000, 18.000000)">
                        <g id="编组-2" transform="translate(0.000000, 0.000000)">
                            <circle id="椭圆形备份-2" fill-opacity="0.9" fill="url(#linearGradient-1)" cx="27" cy="27" r="27"></circle>
                            <path d="M33.1764217,12 C33.6663901,12 33.9930358,12.1656837 34.1563586,12.497051 C34.3196814,12.8284184 34.4830043,13.3254694 34.3196814,13.6568367 L30.3999335,22.7694387 L37.7494609,22.7694387 C38.2394294,22.7694387 38.7293979,23.100806 38.8927207,23.4321733 C39.0560435,23.9292243 39.0560435,24.4262754 38.7293979,24.7576427 L20.7638866,43.9769486 C20.4372409,44.4739996 19.7839496,44.4739996 19.2939811,44.3083159 C18.8040126,44.1426323 18.477367,43.6455813 18.6406898,42.9828466 L21.9071464,31.0536222 L15.2109103,31.0536222 C14.7209418,31.0536222 14.3942962,30.8879386 14.2309734,30.5565712 C14.0676505,30.2252039 13.9043277,29.7281529 14.0676505,29.3967855 L20.7638866,12.8284184 C20.9272094,12.3313674 21.4171779,12 21.9071464,12 L33.1764217,12 Z M33.029,32.197 L34.433,32.457 C34.316,32.873 34.186,33.263 34.043,33.627 L34.043,33.627 L41.882,33.627 L41.882,34.94 L37.93,34.94 L37.93,36.617 L41.427,36.617 L41.427,37.891 L37.93,37.891 L37.93,40.296 L42.272,40.296 L42.272,41.622 L37.93,41.622 L37.93,44.391 L36.565,44.391 L36.565,41.622 L30.715,41.622 L30.715,40.296 L32.717,40.296 L32.717,36.617 L36.565,36.617 L36.565,34.94 L33.393,34.94 C32.847,35.85 32.158,36.604 31.339,37.228 L31.339,37.228 L30.429,36.071 C31.716,35.109 32.587,33.822 33.029,32.197 L33.029,32.197 Z M36.565,37.891 L34.082,37.891 L34.082,40.296 L36.565,40.296 L36.565,37.891 Z" id="形状结合" fill="#FFFFFF" fill-rule="nonzero"></path>
                        </g>
                    </g>
                </g>
            </g>
        </g>
    </g>
</svg>