<?xml version="1.0" encoding="UTF-8"?>
<svg width="55px" height="54px" viewBox="0 0 55 54" version="1.1" xmlns="http://www.w3.org/2000/svg" xmlns:xlink="http://www.w3.org/1999/xlink">
    <title>编组 5</title>
    <defs>
        <linearGradient x1="3.45787667%" y1="95.3392565%" x2="100%" y2="0%" id="linearGradient-1">
            <stop stop-color="#1355FD" offset="0%"></stop>
            <stop stop-color="#03A0FF" offset="100%"></stop>
        </linearGradient>
    </defs>
    <g id="页面-1" stroke="none" stroke-width="1" fill="none" fill-rule="evenodd">
        <g id="能耗强度计算" transform="translate(-1464, -171)">
            <g id="编组-3" transform="translate(1450.66, 152)">
                <g id="编组-5" transform="translate(14, 19)">
                    <circle id="椭圆形备份-2" fill-opacity="0.9" fill="url(#linearGradient-1)" cx="27" cy="27" r="27"></circle>
                    <path d="M19.1031224,13.9172585 L34.6719796,13.9166666 C37.0458367,13.9166666 37.9069591,14.1640544 38.7751836,14.6280544 C39.6330285,15.0821312 40.3345354,15.7836381 40.7886122,16.641483 L40.8756122,16.8095646 C41.2697755,17.5990748 41.4846122,18.4619727 41.4994081,20.5203809 L41.5,28.6877278 C41.4998823,31.3757856 41.4997658,34.1178834 41.4996505,36.914021 C41.4995139,40.228315 38.815091,42.9166666 35.5007971,42.9166666 L27.2722449,42.9166666 L19.3280204,42.9166666 L18.8871021,42.9137074 C16.842898,42.8841156 16.0368163,42.639687 15.2248163,42.2052789 C14.3669714,41.751202 13.6654646,41.0496952 13.2113877,40.1918503 L13.1243877,40.0231768 C12.7166122,39.2064421 12.5,38.3098095 12.5,36.0886462 L12.5,20.744687 L12.5029592,20.3037687 C12.532551,18.2595646 12.7769796,17.453483 13.2113877,16.641483 C13.6654646,15.7836381 14.3669714,15.0821312 15.2248163,14.6280544 L15.3934898,14.5410544 C16.1824082,14.1468911 17.0453061,13.9320544 19.1031224,13.9172585 Z M32.9705882,35.9166666 L21.0882353,35.9166666 C20.7633619,35.9166666 20.5,36.1800285 20.5,36.5049019 C20.5,36.9272373 20.8423705,37.2696078 21.2647059,37.2696078 L32.7941176,37.2696078 C33.216453,37.2696078 33.5588235,36.9272373 33.5588235,36.5049019 C33.5588235,36.1800285 33.2954616,35.9166666 32.9705882,35.9166666 Z M26.9981467,19.4972314 C25.3825977,19.4972314 24.0705784,20.869029 24.0705784,22.5581929 L24.0705784,22.5916514 C21.9415179,23.7129995 20.4777303,26.0196777 20.4777303,28.6799201 C20.4777303,28.8135584 20.4803502,28.9442616 20.4883971,29.0749649 C20.4803502,29.0804435 20.4724904,29.0833785 20.4644435,29.088857 C19.7858838,29.4979896 19.3013855,30.1601153 19.0990901,30.9476613 C18.8967947,31.7379466 19.0006559,32.5644297 19.3917728,33.2711666 C19.7830768,33.9779035 20.4137293,34.4844766 21.1695767,34.6987283 C21.4223991,34.7683845 21.6778415,34.8016473 21.9306639,34.8016473 C22.4389287,34.8016473 22.9393337,34.6625305 23.3918316,34.3925147 C23.3998785,34.3870361 23.4105453,34.3813619 23.4184051,34.3758833 C24.4456015,35.0826203 25.6752804,35.4972314 26.9979665,35.4972314 C28.3206526,35.4972314 29.5503315,35.0826203 30.5775279,34.3758833 C30.5855748,34.3813619 30.5962416,34.3870361 30.6041014,34.3925147 C31.0565993,34.6625305 31.5568172,34.8016473 32.0652691,34.8016473 C32.3180915,34.8016473 32.5735339,34.7681889 32.8263563,34.6987283 C33.5822037,34.4844766 34.2128562,33.9780992 34.6041602,33.2711666 C34.9956514,32.5646253 35.0995125,31.7381423 34.8972172,30.947857 C34.6949218,30.1603109 34.2106106,29.4981853 33.5318637,29.0890527 C33.5238168,29.0835741 33.5159571,29.0806392 33.5079102,29.0751606 C33.5159571,28.9444573 33.518577,28.8135584 33.518577,28.6801158 C33.518577,26.0198734 32.0547894,23.7129995 29.9257288,22.5916514 L29.9257288,22.5581929 C29.9257288,20.869029 28.6137096,19.4972314 26.9981467,19.4972314 Z M21.9256112,30.349322 C22.0401392,30.349322 22.1571,30.3632141 22.271628,30.3966726 C22.3036285,30.4050861 22.3382488,30.4162389 22.3674423,30.4301311 C22.6681718,30.5387244 22.9183743,30.752976 23.0806223,31.0451018 C23.2456774,31.3456411 23.2909646,31.6823781 23.2376305,31.9968095 C23.1657698,32.3808972 22.9421408,32.7342657 22.5935041,32.945778 C22.4302125,33.0463825 22.2473455,33.1072397 22.0584787,33.1238319 C21.9014705,33.1433983 21.7392225,33.1295062 21.5822143,33.0848949 C21.2388175,32.9874544 20.9541817,32.7593106 20.7758399,32.4364657 C20.6560721,32.2165398 20.5974981,31.9772432 20.5974981,31.7436208 C20.5974981,31.4542344 20.6852655,31.1703265 20.8450807,30.9337692 C20.9515618,30.775086 21.0926633,30.6389041 21.2629582,30.5357894 C21.4678735,30.413304 21.6941224,30.349322 21.9256112,30.349322 Z M32.0705089,30.3497133 C32.3019977,30.3497133 32.5282466,30.4136953 32.7331619,30.5361807 C32.9034568,30.6390998 33.0445583,30.7754773 33.1510394,30.9341605 C33.4440964,31.3652074 33.4893836,31.9496546 33.2204674,32.4366613 C33.0421255,32.7595063 32.7573026,32.98765 32.4140929,33.0850905 C32.2995649,33.118549 32.1826041,33.1324411 32.0680761,33.1324411 C32.0254088,33.1324411 31.9803088,33.1297018 31.9376415,33.1240276 C31.7487747,33.1074354 31.5659076,33.0465781 31.4026161,32.9459737 C31.0539794,32.7344613 30.8303503,32.3810929 30.7584896,31.9970052 C30.7051555,31.6798345 30.7504427,31.3430974 30.9154978,31.0452974 C31.0779329,30.7531717 31.3279483,30.53892 31.6286779,30.4303267 C31.6578713,30.4164346 31.6924917,30.4052818 31.7244921,30.3970639 C31.838833,30.3636054 31.9559809,30.3497133 32.0705089,30.3497133 Z M26.9981536,21.166829 C27.535799,21.166829 27.9987765,21.5008268 28.2091188,21.9821592 C28.2862194,22.1574738 28.3288866,22.3523548 28.3288866,22.5581929 C28.3288866,22.9812176 28.1479249,23.359631 27.863102,23.6128197 C27.6316132,23.8243321 27.3280766,23.9495568 26.9981536,23.9495568 C26.6682306,23.9495568 26.364694,23.8243321 26.1332052,23.6128197 C25.8483823,23.359631 25.6674206,22.9812176 25.6674206,22.5581929 C25.6674206,22.3523548 25.7099008,22.1574738 25.7871885,21.9821592 C25.9975307,21.5006311 26.4605083,21.166829 26.9981536,21.166829 Z" id="形状结合" fill="#FFFFFF" fill-rule="nonzero"></path>
                </g>
            </g>
        </g>
    </g>
</svg>