<?xml version="1.0" encoding="UTF-8"?>
<svg width="54px" height="54px" viewBox="0 0 54 54" version="1.1" xmlns="http://www.w3.org/2000/svg" xmlns:xlink="http://www.w3.org/1999/xlink">
    <title>编组 5</title>
    <defs>
        <linearGradient x1="3.45787667%" y1="95.3392565%" x2="100%" y2="0%" id="linearGradient-1">
            <stop stop-color="#1355FD" offset="0%"></stop>
            <stop stop-color="#03A0FF" offset="100%"></stop>
        </linearGradient>
    </defs>
    <g id="页面-1" stroke="none" stroke-width="1" fill="none" fill-rule="evenodd">
        <g id="能耗强度计算" transform="translate(-526, -171)">
            <g id="编组" transform="translate(512, 152)">
                <g id="编组-5" transform="translate(14, 19)">
                    <circle id="椭圆形备份-2" fill-opacity="0.9" fill="url(#linearGradient-1)" cx="27" cy="27" r="27"></circle>
                    <path d="M43.7855248,33.4909987 C43.3556471,31.8903903 42.3264858,30.5446863 40.8841488,29.7131653 C40.8670491,29.7020307 40.8503471,29.6960657 40.8332474,29.684931 C40.8503471,29.4192897 40.8559144,29.1532507 40.8559144,28.882042 C40.8559144,23.475366 37.7453658,18.786876 33.2211121,16.5078483 L33.2211121,16.4398473 C33.2211121,13.006791 30.4330711,10.21875 27.0000148,10.21875 C23.5669585,10.21875 20.7789175,13.006791 20.7789175,16.4398473 L20.7789175,16.5078483 C16.2546638,18.786876 13.1441151,23.4749683 13.1441151,28.8816443 C13.1441151,29.1532507 13.1496825,29.418892 13.1667821,29.6845333 C13.1496825,29.695668 13.1329805,29.701633 13.1158808,29.7127677 C11.6739415,30.5442887 10.6443825,31.8899927 10.2145048,33.490601 C9.78462713,35.0967767 10.0053321,36.7765207 10.8364555,38.2128927 C11.6679765,39.6492647 13.0081131,40.6788237 14.6142888,41.1142687 C15.1515365,41.255838 15.6943515,41.3234413 16.2315991,41.3234413 C17.3116618,41.3234413 18.3750225,41.0407003 19.3365805,40.4919203 C19.3536801,40.4807857 19.3763471,40.4692533 19.3930491,40.4581187 C21.5758415,41.8944907 24.1889091,42.7371463 26.9996171,42.7371463 C29.8103251,42.7371463 32.4233928,41.8944907 34.6061851,40.4581187 C34.6232848,40.4692533 34.6459518,40.4807857 34.6626538,40.4919203 C35.6242118,41.0407003 36.6871748,41.3234413 37.7676351,41.3234413 C38.3048828,41.3234413 38.8476978,41.2554403 39.3849454,41.1142687 C40.9911211,40.6788237 42.3312578,39.6496623 43.1627788,38.2128927 C43.9946974,36.7769183 44.2154024,35.0971743 43.7855248,33.4909987 Z M27.0058655,12.6675952 C28.6219532,12.6675952 30.0136,13.6277977 30.6458599,15.0115693 C30.8776135,15.5155772 31.0058655,16.075836 31.0058655,16.6675952 C31.0058655,17.8837392 30.4619195,18.9716312 29.6057811,19.6995176 C28.9099577,20.3075896 27.9975685,20.6675952 27.0058655,20.6675952 C26.0141625,20.6675952 25.1017732,20.3075896 24.4059499,19.6995176 C23.5498115,18.9716312 23.0058655,17.8837392 23.0058655,16.6675952 C23.0058655,16.075836 23.133555,15.5155772 23.3658711,15.0115693 C23.998131,13.6272352 25.3897777,12.6675952 27.0058655,12.6675952 Z M15.1923216,38.993302 C14.1600783,38.7132163 13.3044695,38.0574332 12.7683781,37.1294383 C12.4083586,36.4972769 12.2322866,35.8094359 12.2322866,35.137905 C12.2322866,34.3060841 12.4961133,33.490011 12.9765143,32.8100439 C13.2965941,32.3539203 13.720742,31.9624752 14.2326447,31.6660792 C14.8486155,31.3140036 15.5287148,31.1300919 16.2245649,31.1300919 C16.5688336,31.1300919 16.9204151,31.1700238 17.2646837,31.2661978 C17.3608764,31.2903819 17.4649445,31.3224399 17.5526993,31.3623718 C18.4566856,31.6745156 19.2087888,32.2903667 19.6965027,33.1300615 C20.1926545,33.9939404 20.3287869,34.9618672 20.1684657,35.865678 C19.952454,36.9697107 19.2802302,37.9854433 18.232236,38.5934206 C17.7413852,38.8826008 17.191691,39.0575308 16.6239615,39.1052238 C16.1519985,39.1614659 15.6642846,39.121534 15.1923216,38.993302 L15.1923216,38.993302 Z M37.7869079,31.1308872 C38.4827428,31.1308872 39.1628273,31.3148276 39.7787847,31.6669581 C40.2906763,31.9628377 40.714815,32.3549063 41.0348878,32.811101 C41.9157913,34.0503078 42.0519207,35.7305216 41.2435821,37.130606 C40.7075023,38.0587455 39.8513496,38.7146307 38.8196912,38.9947601 C38.4754301,39.0909491 38.1238562,39.1308872 37.7795951,39.1308872 C37.651341,39.1308872 37.5157741,39.1230121 37.3875199,39.1066993 C36.8198029,39.0589988 36.2701205,38.8840417 35.7792734,38.5948163 C34.7313091,37.9867443 34.0590998,36.9708535 33.8430929,35.8666487 C33.6827752,34.954822 33.8189046,33.9867443 34.3150456,33.130606 C34.8033114,32.2907803 35.5548357,31.6748332 36.4588024,31.3626408 C36.5465553,31.3227027 36.6506211,31.2906397 36.7468117,31.2670143 C37.0905103,31.1708253 37.4426467,31.1308872 37.7869079,31.1308872 Z M32.5959856,24.1310948 C32.8002483,23.908068 33.0975117,23.8214661 33.3757996,23.9039111 C33.6540874,23.9863561 33.8711212,24.2253227 33.9451464,24.5307946 C34.0191716,24.8362664 33.9389419,25.161835 33.7346792,25.3848619 L29.1846891,30.3432743 C28.8750698,30.6804033 28.3772061,30.6869074 28.0603487,30.3579628 L25.737031,27.9385597 L22.3228638,31.6432051 C22.0025947,31.9621958 21.5099419,31.9477656 21.2056625,31.6104813 C20.901383,31.273197 20.8935934,30.7329025 21.1879977,30.3852414 L25.1590722,26.077319 C25.4685095,25.7412922 25.9653453,25.7352549 26.2814988,26.0636796 L28.6029028,28.4830828 Z" id="形状" fill="#FFFFFF" fill-rule="nonzero"></path>
                </g>
            </g>
        </g>
    </g>
</svg>