<?xml version="1.0" encoding="UTF-8"?>
<svg width="55px" height="54px" viewBox="0 0 55 54" version="1.1" xmlns="http://www.w3.org/2000/svg" xmlns:xlink="http://www.w3.org/1999/xlink">
    <title>编组 5</title>
    <defs>
        <linearGradient x1="3.45787667%" y1="95.3392565%" x2="100%" y2="0%" id="linearGradient-1">
            <stop stop-color="#1355FD" offset="0%"></stop>
            <stop stop-color="#03A0FF" offset="100%"></stop>
        </linearGradient>
    </defs>
    <g id="页面-1" stroke="none" stroke-width="1" fill="none" fill-rule="evenodd">
        <g id="能耗强度计算" transform="translate(-995, -171)">
            <g id="编组-2" transform="translate(981.33, 152)">
                <g id="编组-5" transform="translate(14, 19)">
                    <circle id="椭圆形备份-2" fill-opacity="0.9" fill="url(#linearGradient-1)" cx="27" cy="27" r="27"></circle>
                    <path d="M44.5936345,39.4300781 C44.3825017,38.6439453 43.8770329,37.9830078 43.1686345,37.5746094 C43.160236,37.5691406 43.1520329,37.5662109 43.1436345,37.5607422 C43.1520329,37.4302734 43.1547673,37.2996094 43.1547673,37.1664062 C43.1547673,34.5109375 41.6270329,32.2082031 39.4049626,31.0888672 L39.4049626,31.0554687 C39.4049626,29.3693359 38.0356267,28 36.3494939,28 C34.663361,28 33.2940251,29.3693359 33.2940251,31.0554687 L33.2940251,31.0888672 C31.0719548,32.2082031 29.5442204,34.5107422 29.5442204,37.1662109 C29.5442204,37.2996094 29.5469548,37.4300781 29.5553532,37.5605469 C29.5469548,37.5660156 29.5387517,37.5689453 29.5303532,37.5744141 C28.8221501,37.9828125 28.316486,38.64375 28.1053532,39.4298828 C27.8942204,40.21875 28.0026189,41.04375 28.410822,41.7492187 C28.8192204,42.4546875 29.4774235,42.9603516 30.2662907,43.1742187 C30.5301579,43.24375 30.7967595,43.2769531 31.0606267,43.2769531 C31.5910954,43.2769531 32.113361,43.1380859 32.5856267,42.8685547 C32.5940251,42.8630859 32.6051579,42.8574219 32.613361,42.8519531 C33.6854314,43.5574219 34.9688298,43.9712891 36.3492985,43.9712891 C37.7297673,43.9712891 39.0131657,43.5574219 40.085236,42.8519531 C40.0936345,42.8574219 40.1047673,42.8630859 40.1129704,42.8685547 C40.585236,43.1380859 41.1073064,43.2769531 41.6379704,43.2769531 C41.9018376,43.2769531 42.1684392,43.2435547 42.4323064,43.1742187 C43.2211735,42.9603516 43.8793767,42.4548828 44.2877751,41.7492187 C44.6963689,41.0439453 44.8047673,40.2189453 44.5936345,39.4300781 Z M36.3494939,29.6666016 C36.9106267,29.6666016 37.3938298,30 37.613361,30.4804687 C37.6938298,30.6554687 37.738361,30.85 37.738361,31.0554687 C37.738361,31.4777344 37.5494939,31.8554687 37.2522282,32.1082031 C37.0106267,32.3193359 36.6938298,32.4443359 36.3494939,32.4443359 C36.0051579,32.4443359 35.688361,32.3193359 35.4467595,32.1082031 C35.1494939,31.8554687 34.9606267,31.4777344 34.9606267,31.0554687 C34.9606267,30.85 35.0049626,30.6554687 35.0856267,30.4804687 C35.3051579,29.9998047 35.788361,29.6666016 36.3494939,29.6666016 Z M29.8553532,40.9160156 C29.7303532,40.6964844 29.6692204,40.4576172 29.6692204,40.2244141 C29.6692204,39.9355469 29.760822,39.6521484 29.9276189,39.4160156 C30.0387517,39.2576172 30.1860173,39.1216797 30.3637517,39.01875 C30.5776189,38.8964844 30.8137517,38.8326172 31.0553532,38.8326172 C31.1748845,38.8326172 31.2969548,38.8464844 31.416486,38.8798828 C31.4498845,38.8882812 31.4860173,38.8994141 31.516486,38.9132812 C31.8303532,39.0216797 32.091486,39.2355469 32.260822,39.5271484 C32.4330876,39.8271484 32.4803532,40.1632812 32.4246892,40.4771484 C32.3496892,40.8605469 32.1162907,41.2132812 31.7524235,41.4244141 C31.5819985,41.524838 31.3911427,41.585586 31.1940251,41.6021484 C31.0301579,41.6216797 30.860822,41.6078125 30.6969548,41.5632812 C30.3385564,41.4660156 30.041486,41.2382812 29.8553532,40.9160156 Z M42.8436345,40.9162109 C42.6575017,41.2384766 42.360236,41.4662109 42.0020329,41.5634766 C41.8825017,41.596875 41.7604314,41.6107422 41.6409001,41.6107422 C41.5963689,41.6107422 41.5492985,41.6080078 41.5047673,41.6023437 C41.3076497,41.5857813 41.1167939,41.5250333 40.9463689,41.4246094 C40.5825017,41.2134766 40.3491032,40.8607422 40.2741032,40.4773437 C40.2184392,40.1607422 40.2657048,39.8246094 40.4379704,39.5273437 C40.6075017,39.2357422 40.8684392,39.021875 41.1823064,38.9134766 C41.2127751,38.8996094 41.2489079,38.8884766 41.2823064,38.8802734 C41.4016423,38.846875 41.5239079,38.8330078 41.6434392,38.8330078 C41.8850407,38.8330078 42.1211735,38.896875 42.3350407,39.0191406 C42.5127751,39.121875 42.6600407,39.2580078 42.7711735,39.4164062 L42.7711735,39.4191406 C43.0770329,39.8466797 43.1242985,40.4300781 42.8436345,40.9162109 Z" id="形状" fill="#FFFFFF" fill-rule="nonzero"></path>
                    <path d="M14.234386,37.0635088 L25.0080351,37.0630526 L24.9180074,37.1173438 C23.8906458,37.7623618 23.1571922,38.7401553 22.838577,39.8886599 C22.5457741,40.9477905 22.6330543,42.0485306 23.0802913,43.0371267 L14.2380702,43.0368421 C13.1991228,43.0368421 12.345614,42.2398246 12.2535088,41.2254386 L12.2449123,41.0449123 L12.2449123,39.0517544 C12.2451108,38.0237745 13.0288978,37.1654425 14.0526316,37.0721052 L14.234386,37.0635088 Z M15.2303508,29.104386 L28.1060429,29.1047226 C26.5628634,30.7123637 25.5258304,32.7815929 25.2430094,35.0731555 L15.2340351,35.0740351 C14.1950877,35.0740351 13.3415789,34.2782456 13.2494737,33.2638596 L13.2408772,33.0821052 L13.2408772,31.0901755 C13.2408772,30.0438596 14.0391228,29.1915789 15.0584211,29.1105263 L15.2303508,29.104386 Z M13.2408772,21.1342105 L32.1624562,21.1342105 C33.0235313,21.1348205 33.7658011,21.683508 34.0413514,22.4627153 C32.3770897,23.2346003 31.2279635,24.878671 31.2279635,26.7801155 L31.2279635,26.8323944 C31.048324,26.9199997 30.8714911,27.0122352 30.6976333,27.1089385 L13.2408772,27.1087719 C12.2031579,27.1087719 11.3484211,26.3117544 11.2575438,25.2973684 L11.2489169,25.1168421 L11.2489169,23.1273684 C11.2485186,22.0968895 12.0341125,21.2361981 13.0603508,21.142807 L13.2408772,21.1342105 Z M15.2303508,13.1640351 L33.155614,13.1640351 C34.1856437,13.1647647 35.0456717,13.9497531 35.1401755,14.9754386 L35.1475438,15.157193 L35.1475438,17.1491228 C35.1468143,18.1791524 34.3618258,19.0391805 33.3361404,19.1336842 L33.155614,19.1422807 L15.2303508,19.1422807 C14.1926315,19.1422807 13.3403508,18.3452632 13.2470175,17.3308772 L13.2371925,17.1491228 L13.2371925,15.157193 C13.2367642,14.1267141 14.0223582,13.2660227 15.0485965,13.1726316 L15.2303508,13.1640351 Z" id="形状结合" fill="#FFFFFF" fill-rule="nonzero"></path>
                </g>
            </g>
        </g>
    </g>
</svg>