<svg xmlns="http://www.w3.org/2000/svg" width="88.871" height="66.654" viewBox="0 0 88.871 66.654">
  <path id="路径_2" data-name="路径 2" d="M46.906,0c13.442,0,24.25,10.265,24.25,22.8v.667c10.258,2.4,17.6,11.2,17.743,21.329,0,12.131-10.535,21.863-23.424,21.863h-38.8C13.09,66.654,1.724,57.056.2,44.392-1.463,30.661,9.072,18.4,23.625,16.8,26.393,6.932,35.956,0,46.906,0ZM51.2,4.4C40.25,2.266,29.719,8.8,27.5,19.063a2.029,2.029,0,0,1-1.936,1.6C13.642,21.2,4.355,30.528,4.355,41.726c0,11.6,9.979,21.063,22.453,21.063h1.111c.136-.133.413,0,.552,0H65.338l.794-.016c8.948-.349,16.581-6.624,18.333-14.781,1.8-9.865-5.269-19.2-15.661-20.93a1.953,1.953,0,0,1-1.663-2.133,9.859,9.859,0,0,0,.136-2c0-9.065-6.792-16.8-16.076-18.53Zm15,40.037a5.624,5.624,0,0,1,3.314,1.006,3.309,3.309,0,0,1,1.3,2.765,5.06,5.06,0,0,1-.721,2.39,9.224,9.224,0,0,1-2.447,2.638l-.863.755h4.031v3.142H61.158V54.619l3.888-3.4a15.031,15.031,0,0,0,1.73-1.882,2.133,2.133,0,0,0,.286-1.006.988.988,0,0,0-.286-.755,1.332,1.332,0,0,0-.867-.254,3.753,3.753,0,0,0-2.3,1.009l-1.873,1.508V45.82l.432-.254a7.106,7.106,0,0,1,4.034-1.13ZM28.983,28.566A10.544,10.544,0,0,1,35,29.937l.419.14v4.666l-.978-.549a10.233,10.233,0,0,0-5.316-1.371,7.688,7.688,0,0,0-6.015,2.333,9.294,9.294,0,0,0-2.381,6.586,8.73,8.73,0,0,0,2.1,6.177,7.14,7.14,0,0,0,5.6,2.2A11.649,11.649,0,0,0,34.3,48.607l.984-.549v4.39l-.422.14A16.389,16.389,0,0,1,28,53.958a11.6,11.6,0,0,1-8.671-3.431,12.721,12.721,0,0,1-3.218-8.919,13.156,13.156,0,0,1,3.637-9.474A12.922,12.922,0,0,1,28.983,28.566Zm19.679,0c3.764,0,6.926,1.1,9.182,3.431a12.326,12.326,0,0,1,3.311,8.919c0,3.983-1.054,7.142-3.46,9.474a13.116,13.116,0,0,1-9.487,3.568c-3.917,0-7.075-1.1-9.332-3.431a11.989,11.989,0,0,1-3.46-8.919q0-5.975,3.609-9.474A13.25,13.25,0,0,1,48.662,28.566Zm-.3,3.98a7.476,7.476,0,0,0-5.872,2.333,9.279,9.279,0,0,0-2.257,6.453,8.7,8.7,0,0,0,2.257,6.313,7.638,7.638,0,0,0,5.72,2.333c2.558,0,4.517-.686,5.872-2.2a9.454,9.454,0,0,0,2.1-6.45,9.591,9.591,0,0,0-2.1-6.589,7.319,7.319,0,0,0-5.72-2.2Z" transform="translate(-0.028)" fill="#237ae4"/>
</svg>
