<?xml version="1.0" encoding="UTF-8"?>
<svg width="18px" height="18px" viewBox="0 0 18 18" version="1.1" xmlns="http://www.w3.org/2000/svg" xmlns:xlink="http://www.w3.org/1999/xlink">
    <title>综合能耗管理</title>
    <g id="页面-1" stroke="none" stroke-width="1" fill="none" fill-rule="evenodd">
        <g id="储能管理-图标" transform="translate(-124.000000, -328.000000)">
            <g id="综合能耗管理" transform="translate(124.000000, 328.000000)">
                <path d="M3.16535228,13.4551724 C3.97047773,13.4551724 4.62316087,14.1078556 4.62316087,14.912981 C4.62316087,15.0260546 4.61027817,15.1374341 4.58504537,15.2455544 L4.57150662,15.2961859 L4.5790386,15.3017169 C5.16099333,15.7402512 5.79681251,16.086939 6.47092894,16.3347081 L6.6402469,16.3945855 L6.81110652,16.4503167 C8.33177269,16.9257115 9.97518914,16.8919775 11.4810322,16.3563795 C11.7974095,16.2438504 12.1451068,16.4091021 12.2576359,16.7254794 C12.3701649,17.0418567 12.2049132,17.389554 11.8885359,17.5020831 C10.1345683,18.125934 8.22081415,18.1650773 6.44826945,17.6109395 C5.51457207,17.3190445 4.63749222,16.8683824 3.84722163,16.2728708 L3.80850123,16.2411515 L3.79443741,16.2275408 L3.74491391,16.2509458 C3.61570488,16.3070831 3.47857886,16.3441691 3.33705925,16.3607784 L3.25164843,16.3682754 L3.16535228,16.3707896 C2.36022682,16.3707896 1.70754368,15.7181065 1.70754368,14.912981 C1.70754368,14.1078556 2.36022682,13.4551724 3.16535228,13.4551724 Z M12.4838338,1.58379826 C15.5780731,2.95746349 17.5826164,6.02319177 17.5826164,9.424687 C17.5826164,10.8710566 17.2233391,12.2751673 16.5377584,13.5299773 L16.4422474,13.6992152 C16.4273162,13.7225907 16.3950994,13.7704905 16.3354304,13.8581805 L16.1120792,14.1853286 L16.1418753,14.2378617 C16.2231725,14.3921313 16.2759217,14.5602977 16.2972152,14.7355791 L16.3052272,14.8237813 L16.3079159,14.912981 C16.3079159,15.7181065 15.6552327,16.3707896 14.8501073,16.3707896 C14.0449818,16.3707896 13.3922987,15.7181065 13.3922987,14.912981 C13.3922987,14.1078556 14.0449818,13.4551724 14.8501073,13.4551724 C14.9265571,13.4551724 15.0022615,13.4610608 15.0767493,13.4726909 L15.1233234,13.480923 L15.3969241,13.0786151 C16.0329963,11.9691032 16.3665999,10.7176898 16.3665999,9.424687 C16.3665999,6.50520852 14.6463208,3.87427932 11.9904283,2.69521498 C11.6835191,2.55896484 11.5451725,2.19971316 11.6814227,1.89280391 C11.8176728,1.58589465 12.1769245,1.44754812 12.4838338,1.58379826 Z M9.9999,4 L9.5001,8.44433333 L12,8.44433333 L8.0001,14 L8.4999,9.55566667 L6,9.55566667 L9.9999,4 Z M8.47660455,-5.05728792e-12 C9.28173,-5.05728792e-12 9.93441314,0.652683141 9.93441314,1.4578086 C9.93441314,2.26293405 9.28173,2.91561719 8.47660455,2.91561719 C8.00200099,2.91561719 7.56637985,2.68700937 7.29495674,2.31177696 L7.26802302,2.2721477 L7.17703855,2.29498434 C4.02508513,3.09975955 1.7628679,5.90688075 1.65304179,9.17549625 L1.64988171,9.30143655 L1.6488596,9.424687 C1.6488596,10.2141917 1.77300644,10.9894812 2.01685702,11.7295565 C2.12194173,12.0484838 1.9485881,12.3922134 1.62966084,12.4972981 C1.31073358,12.6023828 0.967003965,12.4290292 0.861919255,12.1101019 C0.577634,11.2473092 0.432843137,10.3435692 0.432843137,9.424687 C0.432843137,5.45745706 3.15536556,2.02157178 6.96966323,1.09343416 L7.07159904,1.0693826 L7.08397239,1.02612132 C7.25649098,0.46755731 7.75019688,0.0636374543 8.33469877,0.0068622988 L8.40526007,0.00172789473 L8.47660455,-5.05728792e-12 Z" id="形状结合" fill="#FFFFFF" fill-rule="nonzero"></path>
                <rect id="矩形备份-63" x="0" y="0" width="18" height="18"></rect>
            </g>
        </g>
    </g>
</svg>