<svg xmlns="http://www.w3.org/2000/svg" width="64" height="63.995" viewBox="0 0 64 63.995">
  <g id="组_4" data-name="组 4" transform="translate(-1076 -473.346)">
    <g id="组_1" data-name="组 1" transform="translate(1076 473.346)">
      <path id="路径_1" data-name="路径 1" d="M188.873,139.435a32.034,32.034,0,0,1,32,32,1.1,1.1,0,1,1-2.207,0,29.793,29.793,0,1,0-29.794,29.79,1.1,1.1,0,0,1,0,2.207,32,32,0,1,1,0-64h0Zm3.767,9.477a1.1,1.1,0,0,1,.618,1.249L189.3,167.571h10.6a1.1,1.1,0,0,1,.891,1.751L183.144,193.6a1.1,1.1,0,0,1-1.969-.893l3.959-17.409H174.526a1.1,1.1,0,0,1-.891-1.753l17.655-24.275a1.1,1.1,0,0,1,1.349-.356h0Z" transform="translate(-156.872 -139.435)" fill="#237ae4"/>
      <text id="日" transform="translate(40.832 57.995)" fill="#237ae4" font-size="21" font-family="CTZhongYuanSJ, 微软简中圆"><tspan x="0" y="0">日</tspan></text>
    </g>
  </g>
</svg>
