<?xml version="1.0" encoding="utf-8"?>
<svg version="1.1" xmlns:xlink="http://www.w3.org/1999/xlink" width="25px" height="28px" xmlns="http://www.w3.org/2000/svg">
  <g transform="matrix(1 0 0 1 -1347 -424 )">
    <path d="M 8.93110795454546 23.1692708333333  C 9.03764204545455 23.0598958333333  9.09090909090909 22.9201388888889  9 22.75  L 9 9.91666666666667  C 9.09090909090909 9.74652777777778  9.03764204545455 9.60677083333333  8.93110795454546 9.49739583333333  C 8.82457386363636 9.38802083333333  8.68844696969697 9.33333333333333  8.52272727272727 9.33333333333333  L 7.38636363636364 9.33333333333333  C 7.22064393939394 9.33333333333333  7.08451704545455 9.38802083333333  6.97798295454545 9.49739583333333  C 6.87144886363636 9.60677083333333  6.81818181818182 9.74652777777778  7 9.91666666666667  L 7 22.75  C 6.81818181818182 22.9201388888889  6.87144886363636 23.0598958333333  6.97798295454545 23.1692708333333  C 7.08451704545455 23.2786458333333  7.22064393939394 23.3333333333333  7.38636363636364 23.3333333333333  L 8.52272727272727 23.3333333333333  C 8.68844696969697 23.3333333333333  8.82457386363636 23.2786458333333  8.93110795454546 23.1692708333333  Z M 13.4765625 23.1692708333333  C 13.5830965909091 23.0598958333333  13.6363636363636 22.9201388888889  13.6363636363636 22.75  L 13.6363636363636 9.91666666666667  C 13.6363636363636 9.74652777777778  13.5830965909091 9.60677083333333  13.4765625 9.49739583333333  C 13.3700284090909 9.38802083333333  13.2339015151515 9.33333333333333  13.0681818181818 9.33333333333333  L 11.9318181818182 9.33333333333333  C 11.7660984848485 9.33333333333333  11.6299715909091 9.38802083333333  11.5234375 9.49739583333333  C 11.4169034090909 9.60677083333333  11.3636363636364 9.74652777777778  11.3636363636364 9.91666666666667  L 11.3636363636364 22.75  C 11.3636363636364 22.9201388888889  11.4169034090909 23.0598958333333  11.5234375 23.1692708333333  C 11.6299715909091 23.2786458333333  11.7660984848485 23.3333333333333  11.9318181818182 23.3333333333333  L 13.0681818181818 23.3333333333333  C 13.2339015151515 23.3333333333333  13.3700284090909 23.2786458333333  13.4765625 23.1692708333333  Z M 18.0220170454545 23.1692708333333  C 18.1285511363636 23.0598958333333  18.1818181818182 22.9201388888889  18 22.75  L 18 9.91666666666667  C 18.1818181818182 9.74652777777778  18.1285511363636 9.60677083333333  18.0220170454545 9.49739583333333  C 17.9154829545455 9.38802083333333  17.7793560606061 9.33333333333333  17.6136363636364 9.33333333333333  L 16.4772727272727 9.33333333333333  C 16.311553030303 9.33333333333333  16.1754261363636 9.38802083333333  16.0688920454545 9.49739583333333  C 15.9623579545455 9.60677083333333  15.9090909090909 9.74652777777778  16 9.91666666666667  L 16 22.75  C 15.9090909090909 22.9201388888889  15.9623579545455 23.0598958333333  16.0688920454545 23.1692708333333  C 16.1754261363636 23.2786458333333  16.311553030303 23.3333333333333  16.4772727272727 23.3333333333333  L 17.6136363636364 23.3333333333333  C 17.7793560606061 23.3333333333333  17.9154829545455 23.2786458333333  18.0220170454545 23.1692708333333  Z M 9.39275568181818 2.53385416666667  L 8.52272727272727 4.66666666666667  L 16.4772727272727 4.66666666666667  L 15.625 2.53385416666667  C 15.5421401515152 2.42447916666667  15.4415246212121 2.35763888888889  15.3231534090909 2.33333333333333  L 9.69460227272727 2.33333333333333  C 9.57623106060606 2.35763888888889  9.47561553030303 2.42447916666667  9.39275568181818 2.53385416666667  Z M 24.8401988636364 4.83072916666667  C 24.9467329545455 4.94010416666667  25 5.07986111111111  25 5.25  L 25 6.41666666666667  C 25 6.58680555555555  24.9467329545455 6.7265625  24.8401988636364 6.8359375  C 24.7336647727273 6.9453125  24.5975378787879 7  24.4318181818182 7  L 22.7272727272727 7  L 22.7272727272727 24.28125  C 22.7272727272727 25.2899305555556  22.4491003787879 26.1618923611111  21.8927556818182 26.8971354166667  C 21.3364109848485 27.6323784722222  20.6676136363636 28  19.8863636363636 28  L 5.11363636363636 28  C 4.33238636363636 28  3.66358901515152 27.64453125  3.10724431818182 26.93359375  C 2.55089962121212 26.22265625  2.27272727272727 25.3628472222222  2.27272727272727 24.3541666666667  L 2.27272727272727 7  L 0.568181818181818 7  C 0.402462121212121 7  0.266335227272727 6.9453125  0.159801136363636 6.8359375  C 0.0532670454545454 6.7265625  0 6.58680555555555  0 6.41666666666667  L 0 5.25  C 0 5.07986111111111  0.0532670454545454 4.94010416666667  0.159801136363636 4.83072916666667  C 0.266335227272727 4.72135416666667  0.402462121212121 4.66666666666667  0.568181818181818 4.66666666666667  L 6.0546875 4.66666666666667  L 7.29758522727273 1.62239583333333  C 7.47514204545455 1.17274305555555  7.79474431818182 0.789930555555553  8.25639204545455 0.473958333333334  C 8.71803977272727 0.157986111111109  9.18560606060606 0  9.65909090909091 0  L 15.3409090909091 0  C 15.8143939393939 0  16.2819602272727 0.157986111111109  16.7436079545455 0.473958333333334  C 17.2052556818182 0.789930555555553  17.5248579545455 1.17274305555555  17.7024147727273 1.62239583333333  L 18.9453125 4.66666666666667  L 24.4318181818182 4.66666666666667  C 24.5975378787879 4.66666666666667  24.7336647727273 4.72135416666667  24.8401988636364 4.83072916666667  Z " fill-rule="nonzero" fill="#f40404" stroke="none" transform="matrix(1 0 0 1 1347 424 )" />
  </g>
</svg>