<svg t="1723685121488" class="icon" viewBox="0 0 1072 1024" version="1.1" xmlns="http://www.w3.org/2000/svg" p-id="20677" width="46" height="46"><path d="M965.624703 116.750594v-24.323041c0-51.078385-41.349169-92.427553-89.995249-92.427553h-780.769597c-51.078385 0-89.995249 41.349169-89.995249 92.427553v189.719715c0 51.078385 41.349169 92.427553 89.995249 92.427554h780.769597c51.078385 0 89.995249-41.349169 89.995249-92.427554v-136.209026c43.781473 9.729216 72.969121 38.916865 72.969121 75.401425v447.543943c0 34.052257-29.187648 63.239905-68.104513 72.969122-9.729216-136.209026-121.615202-245.662708-260.256532-245.662708-121.615202 0-226.204276 85.130641-252.95962 201.881235h-179.990499v-29.187649c0-24.32304-19.458432-41.349169-41.349168-41.349168s-41.349169 19.458432-41.349169 41.349168v29.187649h-14.593824v-29.187649c0-24.32304-19.458432-41.349169-41.349169-41.349168-24.32304 0-41.349169 19.458432-41.349168 41.349168v29.187649h-14.593825v-29.187649c0-24.32304-19.458432-41.349169-41.349168-41.349168-24.32304 0-41.349169 19.458432-41.349169 41.349168v172.693587c0 21.890736 17.026128 41.349169 41.349169 41.349169h442.679335c21.890736 41.349169 51.078385 75.401425 89.995249 99.724465 41.349169 26.755344 89.995249 41.349169 141.073634 41.349169 70.536817 0 136.209026-26.755344 184.855107-77.833729 46.213777-46.213777 72.969121-109.453682 75.401425-175.125891 55.942993-12.16152 94.859857-53.510689 94.859858-102.15677v-449.976247c-2.432304-48.646081-46.213777-92.427553-104.589074-102.156769z m-26.755344 165.396674c0 36.484561-29.187648 63.239905-63.239905 63.239905h-780.769597c-34.052257 0-63.239905-29.187648-63.239905-63.239905v-189.719715c0-36.484561 29.187648-63.239905 63.239905-63.239905h780.769597c34.052257 0 63.239905 29.187648 63.239905 63.239905v189.719715z m-60.807601 642.128266c-43.781473 43.781473-102.15677 68.104513-165.396675 68.104514-89.995249 0-172.693587-53.510689-211.610451-133.776723l-4.864608-7.296912h-459.705463c-7.296912 0-12.16152-4.864608-12.161521-12.16152v-172.693587c0-7.296912 7.296912-14.593824 14.593825-14.593824s14.593824 7.296912 14.593824 14.593824v58.375297h68.104513v-58.375297c0-7.296912 7.296912-14.593824 14.593824-14.593824s14.593824 7.296912 14.593824 14.593824v58.375297h68.104513v-58.375297c0-7.296912 7.296912-14.593824 14.593825-14.593824s14.593824 7.296912 14.593824 14.593824v58.375297h228.636579l2.432304-12.16152c21.890736-109.453682 116.750594-189.719715 228.63658-189.719715 124.047506 0 226.204276 97.292162 233.501188 221.339668h-65.672209c-7.296912-41.349169-41.349169-72.969121-85.130642-72.969122-48.646081 0-85.130641 38.916865-85.130641 87.562946s38.916865 87.562945 85.130641 87.562945c43.781473 0 80.266033-31.619952 85.130642-75.401425h68.104513c-2.432304 58.375297-26.755344 111.885986-65.672209 153.235154z m-85.130642-223.771971c31.619952 0 58.375297 26.755344 58.375297 58.375297 0 31.619952-26.755344 58.375297-58.375297 58.375297s-58.375297-26.755344-58.375297-58.375297c0-31.619952 24.32304-58.375297 58.375297-58.375297z" fill="#339966" p-id="20678"></path><path d="M437.814727 153.235154h-321.064133c-7.296912 0-14.593824 4.864608-14.593824 14.593825 0 7.296912 4.864608 14.593824 14.593824 14.593824h321.064133c7.296912 0 14.593824-4.864608 14.593824-14.593824s-4.864608-14.593824-14.593824-14.593825z" fill="#339966" p-id="20679"></path></svg>