<svg t="1723599035823" class="icon" viewBox="0 0 1024 1024" version="1.1" xmlns="http://www.w3.org/2000/svg" p-id="10741" width="32" height="32"><path d="M836.266667 102.4H187.733333c-46.933333 0-85.333333 38.4-85.333333 85.333333v648.533334c0 46.933333 38.4 85.333333 85.333333 85.333333h648.533334c46.933333 0 85.333333-38.4 85.333333-85.333333V187.733333c0-46.933333-38.4-85.333333-85.333333-85.333333zM347.306667 722.773333l135.68-320 0.853333-1.706666c5.973333-10.24 16.213333-16.213333 27.306667-16.213334 11.093333 0 22.186667 5.973333 27.306666 16.213334l0.853334 1.706666 0.853333 1.706667 135.68 319.146667c5.12 12.8-0.853333 28.16-13.653333 34.133333-3.413333 1.706667-6.826667 1.706667-10.24 1.706667-10.24 0-19.626667-5.973333-23.893334-15.36l-42.666666-100.693334H436.906667l-42.666667 100.693334c-5.12 12.8-20.48 18.773333-33.28 13.653333-12.8-6.826667-18.773333-22.186667-13.653333-34.986667z m399.36-301.226666c-7.68 5.12-18.773333 2.56-23.893334-5.973334C679.253333 345.6 600.746667 298.666667 512 298.666667c-88.746667 0-166.4 46.933333-209.92 116.906666-5.12 8.533333-16.213333 10.24-23.893333 5.12-1.706667-0.853333-3.413333-2.56-4.266667-4.266666v-20.48c47.786667-75.946667 130.56-127.146667 225.28-131.413334h25.6c95.573333 4.266667 178.346667 55.466667 226.133333 132.266667V418.133333c-1.706667 0.853333-2.56 2.56-4.266666 3.413334z" fill="#2379e4" p-id="10742"></path><path d="M511.146667 467.626667l-52.053334 122.88h104.96z" fill="#2379e4" p-id="10743"></path></svg>