<?xml version="1.0" encoding="UTF-8"?>
<svg width="115px" height="200px" viewBox="0 0 115 200" version="1.1" xmlns="http://www.w3.org/2000/svg" xmlns:xlink="http://www.w3.org/1999/xlink">
    <title>已过期</title>
    <g id="页面-1" stroke="none" stroke-width="1" fill="none" fill-rule="evenodd">
        <g id="顶部菜单图标" transform="translate(-907.000000, -447.000000)" fill-rule="nonzero">
            <g id="已过期" transform="translate(907.000000, 447.000000)">
                <path d="M3.71941973,34.6547619 L110.600372,34.6547619 C113.024182,34.6547619 114.236086,35.8630953 114.236086,38.2809523 L114.236086,172.509524 C114.236086,174.927381 113.024182,176.136905 110.600372,176.136905 L3.71941973,176.136905 C1.29561016,176.136905 0.0837052734,174.927381 0.0837052734,172.509524 L0.0837052734,38.2809523 C0.0837052734,35.8630953 1.29561016,34.6547619 3.71941973,34.6547619 Z" id="路径" fill="#DAE4FE"></path>
                <path d="M14.4646578,47.6190477 L99.9884672,47.6190477 C103.226562,47.6190477 104.84561,49.2357143 104.84561,52.4702381 L104.84561,160.625 C104.84561,163.859524 103.226562,165.47619 99.9884672,165.47619 L14.4646578,165.47619 C11.2265625,165.47619 9.60751484,163.859524 9.60751484,160.62381 L9.60751484,52.4702381 C9.60751484,49.2357143 11.2265625,47.6190477 14.4646578,47.6190477 Z" id="路径" fill="#FFFFFF"></path>
                <polygon id="路径" fill="#4678F8" opacity="0.200000003" points="14.3694197 98.8095238 98.8932291 98.8095238 98.8932291 53.5714285 14.3694197 53.5714285"></polygon>
                <path d="M42.9408482,75 C42.9408482,82.8892857 49.3372768,89.2857143 57.2265625,89.2857143 C65.1158482,89.2857143 71.5122768,82.8892857 71.5122768,75 C71.5122768,67.1095238 65.1158482,60.7142857 57.2265625,60.7142857 C49.3372768,60.7142857 42.9408482,67.1095238 42.9408482,75 Z" id="路径" fill="#4678F8"></path>
                <path d="M56.0360863,66.6666666 L59.6075148,66.6666666 L59.0932291,78.5714285 L56.4110863,78.5714285 L56.0360863,66.6666666 Z M56.0360863,81.5476191 C56.0360863,82.5338419 56.8355778,83.3333334 57.8218006,83.3333334 C58.8080233,83.3333334 59.6075148,82.5338419 59.6075148,81.5476191 C59.6075148,80.5613964 58.8080233,79.7619049 57.8218006,79.7619049 C56.8355778,79.7619049 56.0360863,80.5613964 56.0360863,81.5476191 L56.0360863,81.5476191 Z" id="形状" fill="#FFFFFF"></path>
                <path d="M15.5598959,133.02381 L64.5706102,133.02381 L64.5706102,103.571429 L15.5598959,103.571429 L15.5598959,133.02381 Z M15.5598959,153.571429 L97.7027529,153.571429 L97.7027529,138.503571 L15.5598959,138.503571 L15.5598959,153.571429 Z" id="形状" fill="#4678F8" opacity="0.200000003"></path>
                <polygon id="路径" fill="#DCE6F5" points="66.7503721 20.2380953 70.9289434 20.2380953 77.4646578 35.7142857 66.7503721 35.7142857"></polygon>
                <polygon id="路径" fill="#F6F8FB" points="52.4646578 15.4761904 56.0360863 15.4761904 56.0360863 0 52.4646578 0"></polygon>
                <path d="M68.1313244,13.0988096 C64.530134,14.0940477 62.730134,16.432143 62.730134,20.1154762 C62.730134,25.6404762 58.7777531,39.5797619 62.1777529,41.8380953 C65.5777529,44.0976191 66.7277529,44.1916668 68.1313244,43.9630953 C69.0670387,43.8083334 70.0944197,43.0226191 71.2122768,41.5988096 C67.105134,36.5773811 66.8194195,30.5583334 70.3491816,23.5416666 C70.5991816,22.0642857 73.730134,26.8976189 73.730134,35.1607143 C74.9608494,35.1265598 76.1922756,35.1265598 77.422991,35.1607143 C77.7753719,27.3845238 75.8872768,22.6261904 71.7587053,20.8880953 C71.8098957,20.1214287 72.3777529,17.5928572 71.2110863,14.6535715 C70.780134,13.5619049 69.7527529,13.0440477 68.1313244,13.0988096 L68.1313244,13.0988096 Z" id="路径" fill="#F1F4FB"></path>
                <path d="M41.2348959,13.1773809 C38.830134,15.6535713 38.830134,18.3702381 41.2348959,21.3261904 C37.9098959,24.7488096 31.9396578,32.7273809 39.3444197,44.0023809 C45.1813244,44.0619047 54.7134674,44.0619047 67.9408482,44.0023809 C62.8218006,35.7261904 62.547991,28.1690475 67.1170387,21.3273809 C65.7682291,18.8869047 65.997991,18.0809523 65.997991,16.9380953 C65.997991,14.807143 66.4920387,13.5511906 67.9408482,13.1761904 C63.1908482,13.067857 54.2896578,13.067857 41.2360863,13.1761904 L41.2348959,13.1773809 Z" id="路径" fill="#F6F8FB"></path>
                <path d="M82.6908482,148.809524 C82.0682291,149.753571 81.6087055,151.892857 81.3134672,155.225 C81.0170387,158.558333 81.4777529,172.088095 82.6908482,195.815476 C80.4741816,196.265476 78.7194197,196.815476 77.4265625,197.466667 C75.4884672,198.444047 76.0087053,199.522619 78.8896578,199.522619 C80.5003721,199.522619 82.532515,199.669048 84.9837053,199.963095 C85.4539434,200.020238 85.9194195,200.05 86.1860863,199.745238 C86.4563244,199.441667 86.4420387,198.888095 86.4420387,198.311905 L86.4420387,192.977381 C86.4420387,190.948809 91.047991,165.770238 91.2872768,166.580952 C91.5265625,167.392857 91.5789434,168.604762 91.5789434,171.82619 C91.5789434,175.047619 93.2527529,183.297619 93.3634672,189.405952 C93.4741814,195.515476 94.4253719,196.325 93.3634672,196.745238 C92.3015625,197.166667 89.3634672,197.633333 88.7634672,198.417857 C88.1634672,199.203571 89.2932291,199.522619 90.7718006,199.522619 C91.5527529,199.522619 93.0968006,199.653571 95.4039434,199.914286 C96.0134672,199.983333 96.6860861,199.99881 97.0075148,199.745238 C97.3277529,199.492857 97.4622768,198.885714 97.497991,198.263095 C99.2218006,167.67619 100.083705,151.611905 100.083705,150.071429 C100.083705,147.711905 97.2027529,150.071429 95.6765625,150.071429 C94.6598959,150.071429 90.3313244,149.652381 82.6908482,148.810714 L82.6908482,148.809524 Z" id="路径" fill="#C7D7FF"></path>
                <path d="M78.655134,144.9 C78.8920387,145.997619 79.0860863,146.740476 79.2348959,147.129762 C79.4598959,147.711905 80.607515,148.5 81.0682291,148.728571 C82.1991814,149.288095 81.1848957,146.796429 81.1848959,145.522619 C81.1848959,145.201191 82.0182293,145.953571 82.1313244,145.722619 C82.3610863,145.253571 82.1920387,145.22381 81.4218006,144.625 C80.9075148,144.22381 80.4277529,144.030952 79.980134,144.04881 L78.655134,144.9 L78.655134,144.9 Z" id="路径" fill="#F8DADA"></path>
                <path d="M87.9753721,120.507143 C85.1837055,121.3 83.2777529,121.890476 82.2587053,122.277381 C80.7277529,122.860714 79.8170387,123.855952 79.0372768,124.905952 C78.2598959,125.955952 75.0837053,132.017857 75.0837053,135.604762 C75.0837053,139.192857 77.6622768,145.765476 79.4313244,145.765476 C80.355134,145.765476 81.3158482,145.52619 81.2956102,144.105952 C81.2813244,143.046429 81.0182293,142.252381 80.7277529,141.519048 C80.0503721,139.805952 79.4313244,138.972619 79.4313244,137.4 C79.4313244,135.82619 80.1039436,130.232143 81.5015625,130.232143 C82.897991,130.232143 82.2587053,136.47619 82.2587053,137.4 C82.2587053,138.32381 80.9122768,149.334524 82.7218006,150.072619 C84.5313244,150.810714 98.4432291,152.009524 99.3813244,150.369048 C100.32061,148.729762 99.8003721,136.871429 100.239658,134.204762 C100.403944,133.203571 99.9039436,130.416667 100.76942,129.621429 C102.112232,128.377825 103.304509,126.980975 104.321801,125.459524 C105.636086,123.454762 104.443229,117.555952 101.126563,114.561905 C97.8098959,111.567857 97.2741816,111.657143 96.8241816,112.20119 C96.3718008,112.741667 95.7360863,114.110714 95.9337053,115.119048 C96.1313244,116.12619 96.7194195,116.103571 97.6539434,117.10119 C98.5884672,118.097619 100.412277,122.279762 99.1110863,122.279762 C97.8098959,122.279762 93.6063244,120.505952 92.5027529,120.505952 L87.9753721,120.505952 L87.9753721,120.507143 Z" id="路径" fill="#4678F8"></path>
                <path d="M86.6610863,109.52381 C86.0515625,111.932143 85.6765625,113.507143 85.530134,114.24881 C85.4753721,114.535714 84.6444197,115.616667 84.6087053,115.82381 C84.57061,116.052381 85.2991814,116.115476 85.2694197,116.325 C85.0134674,118.029762 85.0289436,118.795238 85.2694197,119.175 C85.4039436,119.389286 87.4337055,119.272619 87.9837053,120.827381 C88.3372768,121.833333 88.0253719,121.95 88.4753721,122.160714 C89.5741816,122.670238 92.4122768,123.003571 92.8087053,121.769048 C93.072991,120.946429 92.9408922,119.319048 92.4134672,116.888095 L91.580134,110.15119 L86.6610863,109.52381 Z" id="路径" fill="#F8DADA"></path>
                <path d="M89.4718006,106.372619 C88.9872768,106.372619 85.797991,105.090476 85.797991,107.003571 C85.797991,108.916667 86.9039434,110.536905 87.9682291,110.536905 C89.0313244,110.536905 89.272991,111.566667 88.7896578,113.415476 C88.3087055,115.266667 88.3087055,115.266667 88.7896578,116.371429 C89.2729912,117.475 89.4718006,118.019048 89.4718006,118.980952 C89.4718006,119.944048 90.2134672,120.238095 91.2218006,120.238095 C92.2337053,120.238095 93.5337053,119.652381 93.5337053,117.969048 C93.5337053,116.285714 94.7313244,115.877381 94.9825148,114.62381 C95.2348957,113.369048 98.1491814,110.825 95.2075148,108.463095 C92.2670387,106.101191 89.9575148,106.372619 89.4706102,106.372619 L89.4718006,106.372619 Z" id="路径" fill="#5B3628"></path>
                <path d="M92.7265625,111.842857 C93.2444197,112.519048 93.2741816,112.717857 93.3325148,112.916667 C93.3908482,113.114286 92.5694195,112.702381 92.1765625,112.715476 C91.8265625,112.727381 91.7360863,112.905952 91.7515625,112.953571 C91.8468006,113.244048 92.5456102,113.490476 92.7277529,113.57381 C93.2718006,113.825 93.8491814,114.17619 94.3741816,114.236905 C94.382515,114.236905 95.0170389,114.344047 95.5503721,114.240476 C95.6813244,114.215476 95.9075148,113.138095 96.2396578,112.784524 C96.5670387,112.433333 96.6170387,112.403571 96.2944197,112.213095 C95.9706102,112.021429 95.8456102,111.986905 95.0622768,111.494048 C94.6331449,111.214889 94.1792494,110.975787 93.7063244,110.779762 C93.2253721,110.691667 92.897991,110.691667 92.7265625,110.779762 C92.4694197,110.914286 92.2098959,111.164286 92.7265625,111.842857 L92.7265625,111.842857 Z" id="路径" fill="#F8DADA"></path>
            </g>
        </g>
    </g>
</svg>