<svg t="1723686289318" class="icon" viewBox="0 0 1024 1024" version="1.1" xmlns="http://www.w3.org/2000/svg" p-id="60830" width="46" height="46"><path d="M846.848 666.112c-8.704 112.64-74.24 225.792-234.496 273.92-74.24 23.552-65.024-31.232-46.08-40.96 123.904-68.096 59.904-196.096 24.576-226.304-35.328-29.696-56.832-102.912-56.832-102.912-119.296 46.08-134.144 162.816-137.216 187.904 0 0-13.312 83.456 65.536 141.312 33.792 5.12 25.6 61.952-20.48 40.96-137.216-34.304-238.592-149.504-238.592-287.232 0-4.608 0.512-8.704 0.512-12.8h-0.512S186.88 499.712 332.8 380.928c77.824-62.976 115.2-219.648 103.424-249.856-12.288-32.256 31.232-41.984 51.712-26.112 152.064 119.808 360.448 286.208 358.4 508.928 0.512 0.512 3.072 24.064 0.512 52.224z m-47.616-62.464c-1.536-95.744-56.32-246.272-320-453.12 0 0-1.536 181.248-131.072 279.552-33.792 34.304-97.28 85.504-97.28 187.904-0.512 6.656-1.024 33.792-1.024 40.96 0 72.192 46.592 180.736 169.984 237.056-75.776-36.352-69.12-139.264-69.12-139.264 16.896-175.616 138.24-215.552 160.768-223.232 63.488-22.016 60.416 5.632 73.216 44.032 10.24 29.184 45.056 61.44 69.12 99.328 50.688 80.384 41.984 151.552-19.456 207.872 48.64-20.992 164.864-82.432 164.864-228.864v-52.224z" fill="#FF6633" p-id="60831"></path></svg>