<svg t="1723599110203" class="icon" viewBox="0 0 1024 1024" version="1.1" xmlns="http://www.w3.org/2000/svg" p-id="14412" width="32" height="32"><path d="M783.575579 602.920421h-127.461053l-24.414315-70.602105a24.037053 24.037053 0 0 0-31.205053-15.36 24.468211 24.468211 0 0 0-11.37179 9.000421l-86.662736 124.119579-86.339369-199.841684a24.468211 24.468211 0 0 0-22.204631-15.036632 23.875368 23.875368 0 0 0-19.078737 9.647158l-80.842106 106.280421H159.528421a25.007158 25.007158 0 0 0-24.360421 25.653895c0 14.120421 10.886737 25.6 24.360421 25.6h146.324211a23.875368 23.875368 0 0 0 18.970947-9.701053l63.38021-83.267368 87.093895 201.674105c3.988211 9.162105 12.665263 14.982737 22.204632 14.982737 7.760842 0 15.090526-3.880421 19.725473-10.455579l84.291369-120.778105 14.713263 42.469052a24.576 24.576 0 0 0 22.905263 16.815158h144.437895c6.467368 0 12.665263-2.694737 17.246316-7.545263a26.570105 26.570105 0 0 0-0.161684-36.217263 23.821474 23.821474 0 0 0-17.084632-7.437474zM450.236632 356.729263h71.141052l-23.821473 149.234526 142.389894-186.475789h-71.194947l11.856842-149.450105-130.425263 186.691368zM512 1018.610526c-267.856842 0-485.052632-228.028632-485.052632-509.305263C26.947368 228.028632 244.143158 0 512 0s485.052632 228.028632 485.052632 509.305263c0 281.276632-217.195789 509.305263-485.052632 509.305263z" fill="#2379e4" p-id="14413"></path></svg>