<svg t="1723685834220" class="icon" viewBox="0 0 1024 1024" version="1.1" xmlns="http://www.w3.org/2000/svg" p-id="28148" width="46" height="46"><path d="M107 393.66a30 30 0 0 0-30 30v176.68a30 30 0 0 0 60 0V423.66a30 30 0 0 0-30-30zM647 393.66a30 30 0 0 0-30 30v176.68a30 30 0 1 0 60 0V423.66a30 30 0 0 0-30-30zM917 393.66a30 30 0 0 0-30 30v176.68a30 30 0 1 0 60 0V423.66a30 30 0 0 0-30-30zM782 303.45a30 30 0 0 0-30 30v357.1a30 30 0 0 0 60 0v-357.1a30 30 0 0 0-30-30zM512 261.16a30 30 0 0 0-30 30v441.68a30 30 0 1 0 60 0V291.16a30 30 0 0 0-30-30zM242 261.16a30 30 0 0 0-30 30v441.68a30 30 0 0 0 60 0V291.16a30 30 0 0 0-30-30zM377 92a30 30 0 0 0-30 30v780a30 30 0 0 0 60 0V122a30 30 0 0 0-30-30z" fill="#00CC66" p-id="28149"></path></svg>