<?xml version="1.0" encoding="UTF-8"?>
<svg width="18px" height="18px" viewBox="0 0 18 18" version="1.1" xmlns="http://www.w3.org/2000/svg" xmlns:xlink="http://www.w3.org/1999/xlink">
    <title>形状</title>
    <g id="页面-1" stroke="none" stroke-width="1" fill="none" fill-rule="evenodd">
        <g id="能耗强度计算" transform="translate(-1733, -600)" fill="#606266">
            <g id="能源-卡片备份-4" transform="translate(512, 589)">
                <g id="编组-16备份-2" transform="translate(0, -0)">
                    <g id="卡片备份-2" transform="translate(0, -0)">
                        <g id="编组-29" transform="translate(0, -0)">
                            <path d="M1230,11 C1225.03614,11 1221,15.0387971 1221,20 C1221,24.9612029 1225.0388,29 1230,29 C1234.9612,29 1239,24.9612029 1239,20 C1239,15.0387971 1234.9612,11 1230,11 Z M1231.38554,24.1555594 C1231.38554,24.9195167 1230.76182,25.5418038 1229.99929,25.5418038 C1229.23677,25.5418038 1228.61305,24.9180876 1228.61305,24.1555594 L1228.61305,20.0007424 C1228.61305,19.2367851 1229.23677,18.614498 1229.99929,18.614498 C1230.76182,18.614498 1231.38554,19.2382143 1231.38554,20.0007424 L1231.38554,24.1555594 Z M1230,17.2291816 C1229.23604,17.2291816 1228.61376,16.6054654 1228.61376,15.8429372 C1228.61376,15.0804091 1229.23747,14.4566928 1230,14.4566928 C1230.76253,14.4566928 1231.38624,15.0804091 1231.38624,15.8429372 C1231.38624,16.6054654 1230.76253,17.2291816 1230,17.2291816 L1230,17.2291816 Z" id="形状"></path>
                        </g>
                    </g>
                </g>
            </g>
        </g>
    </g>
</svg>