<?xml version="1.0" encoding="UTF-8"?>
<svg width="18px" height="18px" viewBox="0 0 18 18" version="1.1" xmlns="http://www.w3.org/2000/svg" xmlns:xlink="http://www.w3.org/1999/xlink">
    <title>操作日志</title>
    <g id="页面-1" stroke="none" stroke-width="1" fill="none" fill-rule="evenodd">
        <g id="储能管理-图标" transform="translate(-127.000000, -578.000000)" fill="#FFFFFF" fill-rule="nonzero">
            <g id="操作日志" transform="translate(127.000000, 578.000000)">
                <path d="M17.7656163,8.56651663 C18.0264543,8.832964 18.0460873,9.24525624 17.8282548,9.53414128 L17.7562673,9.61641274 L9.88718836,17.3480609 C9.76752078,17.4761427 9.36083795,17.5069945 8.66713988,17.4415512 C8.66713988,16.875 8.7036011,16.5188019 8.77465374,16.3710873 L8.84757618,16.2888158 L16.7157202,8.55716759 C16.8561714,8.41915659 17.0457026,8.3426046 17.2426049,8.34432849 C17.4395072,8.34611132 17.6276451,8.42602635 17.7656163,8.56651663 Z M14.6037742,0 C15.5125,0 16.2576177,0.699307487 16.3296053,1.58933517 L16.3352147,1.73144045 L16.3352147,7.16229224 C16.332619,7.55087535 16.0307777,7.87169448 15.6430739,7.89795037 C15.2553702,7.92420626 14.9130305,7.64701205 14.8580679,7.26232688 L14.8515235,7.16229224 L14.8515235,1.73050554 C14.8511414,1.61595526 14.7722782,1.51660315 14.6608033,1.49023546 L14.6037742,1.48369114 L2.73050554,1.48369114 C2.61595525,1.48407328 2.51660313,1.56293643 2.49023544,1.67441136 L2.48369114,1.73050554 L2.48369114,15.3352147 C2.48369114,15.4520775 2.5650277,15.5502424 2.67441136,15.5754848 L2.73050554,15.5820291 L6.00827562,15.5820291 C6.39685878,15.5846247 6.71767799,15.886466 6.74393388,16.2741699 C6.77018976,16.6618737 6.49299547,17.0042133 6.10831023,17.0591759 L6.00827562,17.0666551 L2.73144043,17.0666551 C1.83020019,17.0666551 1.0795773,16.3755197 1.00560942,15.47732 L1,15.3352147 L1,1.73144045 C1,0.822714689 1.69930749,0.0775969675 2.58933517,0.00560941828 L2.73144043,0 L14.6037742,0 Z M9.35335871,6.73971607 C9.62467543,6.73008292 9.87960858,6.86933322 10.0181243,7.10282617 C10.15664,7.33631911 10.15664,7.62680415 10.0181243,7.8602971 C9.87960858,8.09379005 9.62467543,8.23304035 9.35335871,8.2234072 L4.85647507,8.2234072 C4.45700953,8.20922411 4.14050141,7.88127888 4.14050141,7.48156163 C4.14050141,7.08184439 4.45700953,6.75389916 4.85647507,6.73971607 L9.35335871,6.73971607 L9.35335871,6.73971607 Z M12.2768005,3.27683519 C12.5481173,3.26720204 12.8030504,3.40645234 12.9415661,3.63994529 C13.0800818,3.87343824 13.0800818,4.16392328 12.9415661,4.39741622 C12.8030504,4.63090917 12.5481173,4.77015947 12.2768005,4.76052632 L4.85647507,4.76052632 C4.58515835,4.77015947 4.3302252,4.63090917 4.19170949,4.39741622 C4.05319378,4.16392328 4.05319378,3.87343824 4.19170949,3.63994529 C4.3302252,3.40645234 4.58515835,3.26720204 4.85647507,3.27683519 L12.2768005,3.27683519 L12.2768005,3.27683519 Z" id="形状"></path>
            </g>
        </g>
    </g>
</svg>