<svg t="1723601820757" class="icon" viewBox="0 0 1024 1024" version="1.1" xmlns="http://www.w3.org/2000/svg" p-id="20439" width="32" height="32"><path d="M0 0m93.090909 0l837.818182 0q93.090909 0 93.090909 93.090909l0 837.818182q0 93.090909-93.090909 93.090909l-837.818182 0q-93.090909 0-93.090909-93.090909l0-837.818182q0-93.090909 93.090909-93.090909Z" fill="#4983F3" p-id="20440"></path><path d="M274.013091 561.757091A241.780364 241.780364 0 0 0 511.348364 754.036364a241.570909 241.570909 0 0 0 236.637091-192.279273h61.160727C785.617455 704.930909 661.248 814.545455 511.348364 814.545455A302.336 302.336 0 0 1 212.829091 561.757091h61.184z m276.317091-266.24l63.185454 190.929454H814.545455v50.432h-162.048L597.410909 608.814545l-22.202182-71.936-26.205091-80.686545-26.903272 80.686545-62.533819 180.829091-53.061818-180.829091H209.454545v-50.432h155.322182l45.707637-114.967272 33.629091 114.967272 18.827636 65.908364 22.178909-65.908364 65.210182-190.929454zM511.348364 209.454545c149.876364 0 274.944 109.614545 298.472727 253.463273H747.985455c-22.877091-110.266182-120.343273-192.954182-236.637091-192.954182-116.992 0-214.481455 82.688-237.335273 192.954182H212.829091C235.682909 319.069091 360.750545 209.454545 511.348364 209.454545z" fill="#FFFFFF" p-id="20441"></path></svg>