<svg t="1723686080733" class="icon" viewBox="0 0 1024 1024" version="1.1" xmlns="http://www.w3.org/2000/svg" p-id="57408" width="46" height="46"><path d="M921.6 122.88H102.4v40.96h819.2z" p-id="57409" fill="#FF9900"></path><path d="M778.24 163.84V409.6c0 22.528-18.432 40.96-40.96 40.96H286.72c-22.528 0-40.96-18.432-40.96-40.96V163.84h532.48m40.96-40.96H204.8V409.6c0 45.056 36.864 81.92 81.92 81.92h450.56c45.056 0 81.92-36.864 81.92-81.92V122.88z" p-id="57410" fill="#FF9900"></path><path d="M419.84 296.96H286.72v40.96h133.12z m163.84 0H440.32v40.96h143.36z m153.6 0H604.16v40.96h133.12zM333.824 914.432c-1.024 0-3.072 0-4.096-1.024-34.816-10.24-88.064-92.16-89.088-136.192-1.024-27.648 25.6-48.128 51.2-68.608 19.456-15.36 40.96-32.768 41.984-46.08 2.048-22.528-35.84-64.512-63.488-87.04-6.144-5.12-7.168-15.36-2.048-21.504 5.12-6.144 15.36-7.168 21.504-2.048 8.192 6.144 77.824 65.536 73.728 113.664-2.048 26.624-27.648 48.128-53.248 67.584-17.408 14.336-39.936 31.744-39.936 44.032 1.024 34.816 48.128 102.4 66.56 107.52 8.192 2.048 12.288 11.264 10.24 19.456-1.024 6.144-7.168 10.24-13.312 10.24z m208.896 0c-1.024 0-3.072 0-4.096-1.024-33.792-10.24-86.016-92.16-88.064-136.192-1.024-27.648 25.6-48.128 51.2-68.608 19.456-15.36 40.96-32.768 41.984-46.08 2.048-22.528-35.84-64.512-63.488-87.04-6.144-5.12-7.168-15.36-2.048-21.504 5.12-6.144 15.36-7.168 21.504-2.048 8.192 6.144 77.824 65.536 73.728 113.664-2.048 26.624-27.648 48.128-53.248 67.584-17.408 14.336-38.912 31.744-38.912 44.032 1.024 34.816 47.104 102.4 65.536 107.52 8.192 2.048 12.288 11.264 10.24 19.456-2.048 6.144-8.192 10.24-14.336 10.24z m209.92 0c-1.024 0-3.072 0-4.096-1.024-34.816-10.24-88.064-92.16-89.088-136.192-1.024-27.648 25.6-48.128 51.2-68.608 19.456-15.36 40.96-32.768 41.984-46.08 2.048-22.528-35.84-64.512-63.488-87.04-6.144-5.12-7.168-15.36-2.048-21.504 5.12-6.144 15.36-7.168 21.504-2.048 8.192 6.144 77.824 65.536 73.728 113.664-2.048 26.624-27.648 48.128-53.248 67.584-17.408 14.336-39.936 31.744-39.936 44.032 1.024 34.816 48.128 102.4 66.56 107.52 8.192 2.048 12.288 11.264 10.24 19.456-1.024 6.144-7.168 10.24-13.312 10.24z" p-id="57411" fill="#FF9900"></path></svg>