<?xml version="1.0" encoding="UTF-8"?>
<svg width="18px" height="18px" viewBox="0 0 18 18" version="1.1" xmlns="http://www.w3.org/2000/svg" xmlns:xlink="http://www.w3.org/1999/xlink">
    <title>储能 (4)</title>
    <g id="页面-1" stroke="none" stroke-width="1" fill="none" fill-rule="evenodd">
        <g id="储能管理-图标" transform="translate(-124.000000, -134.000000)">
            <g id="储能-(4)" transform="translate(124.000000, 134.000000)">
                <path d="M6.5106383,1.01645612 C6.82129847,1.01645612 7.0731383,1.26829595 7.0731383,1.57895612 L7.0731383,1.57895612 L7.0731383,2.34491356 L10.9148936,2.34491356 L10.9148936,1.57895612 C10.9148936,1.26829595 11.1667334,1.01645612 11.4773936,1.01645612 L11.4773936,1.01645612 L13.5718085,1.01645612 C13.7209928,1.01645612 13.8640669,1.07571934 13.9695561,1.18120855 C14.0750453,1.28669777 14.1343085,1.42977184 14.1343085,1.57895612 L14.1343085,1.57895612 L14.1343085,2.35688165 L15.1875,2.35688165 C16.1210106,2.35688165 16.875,3.11087101 16.875,4.04438165 L16.875,4.04438165 L16.875,14.217254 L16.9587766,14.217254 C17.5212766,14.217254 17.9640957,14.6600731 17.9640957,15.2225731 L17.9640957,15.2225731 L17.9640957,16.5031582 C17.9640957,17.0656582 17.5212766,17.5084774 16.9587766,17.5084774 L16.9587766,17.5084774 L1.01728723,17.5084774 C0.466755319,17.5084774 0.0119680851,17.0656582 0.0119680851,16.5031582 L0.0119680851,16.5031582 L0.0119680851,15.2225731 C0.0119680851,14.6720412 0.454787234,14.217254 1.01728723,14.217254 L1.01728723,14.217254 L1.10106383,14.217254 L1.10106383,4.03241356 C1.10106383,3.09890293 1.85505319,2.34491356 2.78856383,2.34491356 L2.78856383,2.34491356 L3.84175532,2.34491356 L3.84175532,1.57895612 C3.84175532,1.26829595 4.09359515,1.01645612 4.40425532,1.01645612 L4.40425532,1.01645612 Z M16.8510638,15.342254 L1.13696809,15.342254 L1.13696809,16.3954455 L16.8390957,16.3954455 C16.8390957,16.3954455 16.8390957,15.342254 16.8510638,15.342254 L16.8510638,15.342254 Z M15.1994681,3.48188165 L2.80053191,3.48188165 C2.4893617,3.48188165 2.23803191,3.73321144 2.23803191,4.04438165 L2.23803191,4.04438165 L2.23803191,14.2292221 L15.7619681,14.2292221 L15.7619681,4.04438165 C15.7619681,3.73321144 15.5106383,3.48188165 15.1994681,3.48188165 L15.1994681,3.48188165 Z M10.1609043,5.62416888 C10.2925532,5.62416888 10.4361702,5.70794548 10.4960106,5.81565824 C10.5678191,5.9353391 10.5678191,6.07895612 10.4960106,6.21060505 L9.65824468,7.70661569 L11.3577128,7.70661569 C11.5132979,7.70661569 11.6449468,7.79039229 11.7167553,7.93400931 C11.7885638,8.06565824 11.7646277,8.23321144 11.6569149,8.35289229 L7.97074468,12.7810838 C7.88558935,12.8673428 7.76879735,12.9149248 7.64760638,12.9128052 C7.52349863,12.9150776 7.40595162,12.8571268 7.33223679,12.7572551 C7.25852196,12.6573834 7.237783,12.5279791 7.27659574,12.4100731 L8.15026596,9.66938165 L6.61835106,9.66938165 C6.48670213,9.66938165 6.35505319,9.58560505 6.28324468,9.47789229 C6.21143617,9.35603542 6.21143617,9.20480235 6.28324468,9.08294548 L8.05452128,5.82762633 C8.12632979,5.70794548 8.25797872,5.62416888 8.38962766,5.62416888 L10.1609043,5.62416888 Z" id="形状结合" fill="#FFFFFF" fill-rule="nonzero"></path>
                <rect id="矩形" x="0" y="0" width="18" height="18"></rect>
            </g>
        </g>
    </g>
</svg>