<svg t="1723683717222" class="icon" viewBox="0 0 1024 1024" version="1.1" xmlns="http://www.w3.org/2000/svg" p-id="11668" width="48" height="48"><path d="M418.936 1009.216c-4.994 0-9.154 0-14.147-0.832-110.683-6.657-200.561-99.033-206.386-209.715-3.329-70.737 26.63-137.314 81.556-182.253 11.651-9.154 18.308-22.47 18.308-36.618v-452.718c0-66.576 54.094-120.669 120.669-120.669s120.669 54.094 120.669 120.669v454.383c0 13.315 6.657 26.63 17.476 35.785 52.429 42.443 82.387 104.858 82.387 171.434 0 60.751-24.966 119.005-69.905 160.615-40.778 39.114-94.038 59.919-150.629 59.919zM418.936 48.021c-43.275 0-79.059 35.785-79.059 79.059v454.383c0 26.63-12.482 51.597-33.287 69.073-44.939 36.618-69.073 89.877-65.744 147.3 4.161 89.877 77.395 163.943 167.273 169.769 49.933 3.329 97.367-14.147 133.985-48.268 36.618-34.121 56.59-80.724 56.59-130.656 0-54.094-24.133-104.858-66.576-138.978-20.805-16.644-33.287-41.61-33.287-67.409v-455.215c-0.832-44.107-36.618-79.059-79.891-79.059z" fill="#2379e4" p-id="11669"></path><path d="M452.224 614.751v-253.822h-66.576v255.487c0 23.301-12.482 45.772-33.287 57.423-41.61 24.133-69.073 69.073-66.576 121.502 3.329 68.24 59.086 123.999 126.495 127.328 76.562 3.329 139.81-57.423 139.81-133.153 0-49.933-27.462-93.206-67.409-115.677-20.805-12.482-32.457-34.953-32.457-59.086z" fill="#2379e4" p-id="11670"></path><path d="M385.648 360.928c0 18.384 14.903 33.287 33.287 33.287s33.287-14.903 33.287-33.287c0 0 0 0 0 0 0-18.384-14.903-33.287-33.287-33.287-18.384 0-33.287 14.903-33.287 33.287 0 0 0 0 0 0z" fill="#2379e4" p-id="11671"></path><path d="M819.226 529.866h-99.863c-11.651 0-20.805-9.154-20.805-20.805s9.154-20.805 20.805-20.805h100.697c11.651 0 20.805 9.154 20.805 20.805s-9.986 20.805-21.637 20.805z" fill="#2379e4" p-id="11672"></path><path d="M819.226 433.33h-99.863c-11.651 0-20.805-9.154-20.805-20.805s9.154-20.805 20.805-20.805h100.697c11.651 0 20.805 9.154 20.805 20.805s-9.986 20.805-21.637 20.805z" fill="#2379e4" p-id="11673"></path><path d="M819.226 335.962h-99.863c-11.651 0-20.805-9.154-20.805-20.805s9.154-20.805 20.805-20.805h100.697c11.651 0 20.805 9.154 20.805 20.805s-9.986 20.805-21.637 20.805z" fill="#2379e4" p-id="11674"></path><path d="M819.226 239.427h-99.863c-11.651 0-20.805-9.154-20.805-20.805s9.154-20.805 20.805-20.805h100.697c11.651 0 20.805 9.154 20.805 20.805s-9.986 20.805-21.637 20.805z" fill="#2379e4" p-id="11675"></path><path d="M819.226 142.059h-99.863c-11.651 0-20.805-9.154-20.805-20.805s9.154-20.805 20.805-20.805h100.697c11.651 0 20.805 9.154 20.805 20.805s-9.986 20.805-21.637 20.805z" fill="#2379e4" p-id="11676"></path></svg>