<svg t="1723598966529" class="icon" viewBox="0 0 1024 1024" version="1.1" xmlns="http://www.w3.org/2000/svg" p-id="9580" width="32" height="32"><path d="M514.048 197.4272c-10.8544 0-19.8656 8.9088-19.8656 19.8656v92.0576c0 10.8544 8.9088 19.8656 19.8656 19.8656 10.8544 0 19.8656-8.9088 19.8656-19.8656v-92.0576c0.1024-10.8544-8.8064-19.8656-19.8656-19.8656zM363.6224 251.904a19.99872 19.99872 0 0 0-27.2384-7.2704c-9.4208 5.5296-12.8 17.7152-7.2704 27.2384l45.9776 79.6672c5.5296 9.4208 17.6128 12.8 27.2384 7.2704 9.4208-5.5296 12.8-17.6128 7.2704-27.2384l-45.9776-79.6672z m-50.4832 161.1776l-79.7696-45.9776c-9.4208-5.5296-21.7088-2.1504-27.2384 7.2704-5.5296 9.4208-2.1504 21.7088 7.2704 27.2384l79.6672 45.9776c9.4208 5.5296 21.7088 2.1504 27.2384-7.2704 5.5296-9.5232 2.2528-21.8112-7.168-27.2384z m377.1392-168.448c-9.4208-5.5296-21.7088-2.1504-27.2384 7.2704l-45.9776 79.6672c-5.5296 9.4208-2.1504 21.7088 7.2704 27.2384 9.4208 5.5296 21.7088 2.1504 27.2384-7.2704l45.9776-79.6672c5.4272-9.5232 2.2528-21.8112-7.2704-27.2384z m16.0768 195.584c5.5296 9.4208 17.6128 12.8 27.2384 7.2704l79.6672-45.9776c9.4208-5.5296 12.8-17.7152 7.2704-27.2384a20.0192 20.0192 0 0 0-27.2384-7.2704l-79.6672 45.9776c-9.4208 5.5296-12.6976 17.8176-7.2704 27.2384z" fill="#2379e4" p-id="9581"></path><path d="M792.9856 88.064H235.3152c-100.1472 0-181.9648 81.92-181.9648 181.9648V755.712c0 100.0448 81.8176 181.9648 181.9648 181.9648h557.6704c100.0448 0 181.9648-81.8176 181.9648-181.9648V270.0288c-0.1024-100.0448-81.92-181.9648-181.9648-181.9648z m63.2832 74.5472c22.016 0 39.936 17.8176 39.936 39.936s-17.8176 39.936-39.936 39.936-39.936-17.8176-39.936-39.936 17.92-39.936 39.936-39.936z m-678.912 0c22.016 0 39.936 17.8176 39.936 39.936s-17.8176 39.936-39.936 39.936-39.936-17.8176-39.936-39.936 17.92-39.936 39.936-39.936z m0 680.5504c-22.016 0-39.936-17.8176-39.936-39.936s17.8176-39.936 39.936-39.936 39.936 17.92 39.936 39.936c-0.1024 22.016-17.92 39.936-39.936 39.936z m377.344 28.0576h-87.04S371.8144 637.952 373.248 637.952h78.7456l61.2352 180.9408 60.1088-180.9408h78.7456l-97.3824 233.2672z m301.568-28.0576c-22.016 0-39.936-17.8176-39.936-39.936s17.8176-39.936 39.936-39.936c22.016 0 39.936 17.8176 39.936 39.936s-17.92 39.936-39.936 39.936z m39.8336-283.2384h-300.032c0.1024-1.536 0.3072-3.072 0.3072-4.608 0-11.9808-2.6624-23.2448-7.168-33.4848 0.3072-3.584 0.8192-10.4448 1.8432-16.896 1.4336-9.3184 77.2096-102.1952 88.4736-120.32 11.264-18.1248 0.4096-17.1008 0.4096-17.1008-45.4656 17.1008-128.7168 92.8768-136.9088 98.816-6.7584 4.8128-18.944 6.5536-23.2448 7.0656-1.8432-0.1024-3.6864-0.3072-5.632-0.3072-45.3632 0-82.2272 36.864-82.2272 82.2272 0 1.536 0.2048 3.072 0.3072 4.608H132.096c-0.4096-6.7584-0.512-13.5168-0.512-20.2752 0-211.2512 171.2128-382.464 382.464-382.464S896.6144 328.3968 896.6144 539.648c0 6.7584-0.2048 13.5168-0.512 20.2752z" fill="#2379e4" p-id="9582"></path></svg>