<svg t="1723686028818" class="icon" viewBox="0 0 1024 1024" version="1.1" xmlns="http://www.w3.org/2000/svg" p-id="53552" width="46" height="46"><path d="M633.941333 149.333333a21.333333 21.333333 0 0 1 18.346667 10.453334l190.08 321.322666a280.746667 280.746667 0 0 1 32.298667 131.328 280.746667 280.746667 0 0 1-31.872 130.389334 252.672 252.672 0 0 1-87.765334 96.256 225.877333 225.877333 0 0 1-121.130666 35.584c-42.666667 0-84.437333-12.373333-121.088-35.584a252.672 252.672 0 0 1-87.765334-96.256 280.746667 280.746667 0 0 1-31.914666-130.346667 280.832 280.832 0 0 1 32.298666-131.370667l190.165334-321.28a21.333333 21.333333 0 0 1 18.346666-10.496z m-171.52 353.024a238.122667 238.122667 0 0 0-26.624 110.08c0 38.912 9.386667 77.056 27.008 110.506667a210.048 210.048 0 0 0 72.832 80.085333 183.210667 183.210667 0 0 0 98.261334 28.970667c34.346667 0 68.266667-9.941333 98.261333-28.970667a210.048 210.048 0 0 0 72.874667-80.042666 238.08 238.08 0 0 0 26.965333-110.506667c0-38.741333-9.216-76.714667-26.624-110.08l-171.434667-289.834667-171.52 289.792zM170.666667 149.333333a21.333333 21.333333 0 0 1 21.333333 21.333334v107.989333h108.074667a21.333333 21.333333 0 0 1 0 42.666667H192v164.522666h108.074667a21.333333 21.333333 0 0 1 0 42.666667H192v164.565333h108.074667a21.333333 21.333333 0 1 1 0 42.666667H192V853.333333a21.333333 21.333333 0 0 1-42.666667 0V170.666667a21.333333 21.333333 0 0 1 21.333334-21.333334z" fill="#339933" p-id="53553"></path></svg>