<?xml version="1.0" standalone="no"?><!DOCTYPE svg PUBLIC "-//W3C//DTD SVG 1.1//EN" "http://www.w3.org/Graphics/SVG/1.1/DTD/svg11.dtd"><svg t="1702371980943" class="icon" viewBox="0 0 1024 1024" version="1.1" xmlns="http://www.w3.org/2000/svg" p-id="23113" xmlns:xlink="http://www.w3.org/1999/xlink" width="128" height="128"><path d="M845.123 287.555V860.18c0 15.78 10.89 86.441-15.258 86.441H247.757c-11.745 0-36.388 4.567-37.924-12.538-0.901-10.036 0-20.573 0-30.633V287.56c0-33.02-51.2-33.02-51.2 0v572.626c0 44.948-10.204 99.41 31.57 128.942 15.007 10.603 35.81 8.699 53.32 8.699h531.384c48.04 0 121.416 6.584 121.416-63.796V287.56c0-33.024-51.2-33.024-51.2-0.005z" fill="#8a8a8a" p-id="23114"></path><path d="M501.868 420.47v361.339c0 33.013 51.22 33.013 51.22 0v-361.34c0-33.018-51.22-33.018-51.22 0z m-176.512 0v361.339c0 33.013 51.2 33.013 51.2 0v-361.34c0-33.018-51.2-33.018-51.2 0z m350.648 0v361.339c0 33.013 51.2 33.013 51.2 0v-361.34c0-33.018-51.2-33.018-51.2 0zM102.502 217.523h849.956c33.014 0 33.014-51.2 0-51.2H102.502c-33.018 0-33.018 51.2 0 51.2z" fill="#8a8a8a" p-id="23115"></path><path d="M338.765 174.828V94.53c0-18.371 1.008-30.925 21.683-30.925h334.054c20.675 0 21.684 12.554 21.684 30.925v80.297c0 33.018 51.2 33.018 51.2 0 0-54.738 18.514-162.422-65.265-162.422H352.824c-83.773 0-65.26 107.684-65.26 162.422 0 33.018 51.2 33.018 51.2 0z" fill="#8a8a8a" p-id="23116"></path></svg>