<?xml version="1.0" encoding="UTF-8"?>
<svg width="18px" height="18px" viewBox="0 0 18 18" version="1.1" xmlns="http://www.w3.org/2000/svg" xmlns:xlink="http://www.w3.org/1999/xlink">
    <title>编组 3</title>
    <g id="页面-1" stroke="none" stroke-width="1" fill="none" fill-rule="evenodd">
        <g id="图标7-30" transform="translate(-93.000000, -141.000000)">
            <g id="编组-3" transform="translate(93.000000, 141.000000)">
                <path d="M8.99803311,9.9475983e-14 L9.43530889,0.499816391 L9.50649332,0.581678476 C9.56267817,0.647524081 9.62826953,0.724047327 9.70174205,0.810994042 C9.91097343,1.05861416 10.1441024,1.34030113 10.3947733,1.65046186 C11.1267748,2.55374555 11.8280036,3.48153827 12.4972563,4.43224767 C13.044868,5.21273409 13.5375659,5.97084828 13.9626386,6.69489562 C15.0288797,8.51238666 15.6260662,10.0342081 15.6260662,11.2176492 C15.6260662,14.9601706 12.6617432,18 8.99803311,18 C5.33406881,18 2.37,14.9601706 2.37,11.2176492 C2.37,10.0342081 2.96718652,8.51238664 4.03342759,6.69489562 C4.45824609,5.97084828 4.95119827,5.21273409 5.49880992,4.43224767 C6.16806263,3.48153827 6.86929146,2.55374555 7.60129291,1.65046186 C7.89242267,1.2901045 8.18854457,0.933808996 8.48957291,0.581678476 L8.56075733,0.499816391 L8.99803311,9.9475983e-14 Z M8.99778395,1.80901669 C8.84703645,1.99288553 8.68532547,2.19296321 8.51489358,2.40747685 C7.81379493,3.28677684 7.14214872,4.18992173 6.5011062,5.11536346 C5.98108959,5.86907375 5.51439524,6.59847082 5.11472747,7.29089151 C4.16489359,8.93608712 3.64089026,10.2933228 3.64089026,11.2103877 C3.64089026,14.3057665 6.04263444,16.8090167 8.99803311,16.8090167 C11.9531826,16.8090167 14.355176,14.3057665 14.355176,11.2103877 C14.355176,10.2935761 13.8311727,8.9360871 12.8813388,7.29089151 C12.481671,6.59847082 12.0149766,5.86907375 11.49496,5.11536346 C10.8539175,4.18992173 10.1822713,3.28677684 9.48117265,2.40747685 C9.32154403,2.20674249 9.16040977,2.00724996 8.99778395,1.80901669 Z M9.3541147,7.61538462 L9.3541147,8.65657715 L9.94810651,8.06258534 L10.4294447,8.50637233 L9.3541147,9.58511607 L9.3541147,10.8447883 L10.4226172,10.2064178 L10.8322667,8.75557579 L11.4638097,8.90578061 L11.2385025,9.72166591 L12.1363177,9.19594902 L12.4776923,9.75238962 L11.5867046,10.271279 L12.4060036,10.4965863 L12.2182476,11.1793355 L10.7708193,10.7730997 L9.6954893,11.4046427 L10.7571643,12.019117 L12.2045926,11.6128812 L12.3923487,12.2956304 L11.5730496,12.4799727 L12.4640373,12.9988621 L12.1363177,13.5928539 L11.24533,13.0739645 L11.4706372,13.8898498 L10.8390942,14.0400546 L10.4294447,12.5926263 L9.3541147,11.9610833 L9.3541147,13.2207556 L10.4294447,14.3097406 L9.94810651,14.7535275 L9.3541147,14.1595357 L9.3541147,15.1836595 L8.6713655,15.1836595 L8.6713655,14.1595357 L8.07737369,14.7432863 L7.5960355,14.2994993 L8.6713655,13.2207556 L8.6713655,11.9610833 L7.60969049,12.5926263 L7.20004096,14.0400546 L6.56849795,13.8898498 L6.79380519,13.0739645 L5.90281748,13.5928539 L5.56144288,12.9988621 L6.4387756,12.4936277 L5.61947656,12.3092854 L5.80723259,11.6265362 L7.2546609,12.032772 L8.3299909,11.4046427 L7.26148839,10.7799272 L5.81406008,11.1861629 L5.62630405,10.5034137 L6.4456031,10.3156577 L5.55461538,9.75921711 L5.89598999,9.20277651 L6.7869777,9.72166591 L6.55484297,8.91602185 L7.18638598,8.76581702 L7.5960355,10.2166591 L8.6713655,10.8447883 L8.6713655,9.58511607 L7.5960355,8.50637233 L8.07737369,8.06258534 L8.6713655,8.65657715 L8.6713655,7.61538462 L9.3541147,7.61538462 Z" id="形状结合" fill="#FFFFFF" fill-rule="nonzero"></path>
                <rect id="矩形" x="0" y="0" width="18" height="18"></rect>
            </g>
        </g>
    </g>
</svg>