<?xml version="1.0" encoding="UTF-8"?>
<svg width="18px" height="18px" viewBox="0 0 18 18" version="1.1" xmlns="http://www.w3.org/2000/svg" xmlns:xlink="http://www.w3.org/1999/xlink">
    <title>编组 5</title>
    <g id="页面-1" stroke="none" stroke-width="1" fill="none" fill-rule="evenodd">
        <g id="图标7-30" transform="translate(-95.000000, -80.000000)">
            <g id="编组-5" transform="translate(95.000000, 80.000000)">
                <path d="M9.56189603,0.378947368 L9.9761573,0.852457634 L10.0435952,0.930011187 C10.0968229,0.992391235 10.1589621,1.06488694 10.2285677,1.14725751 C10.4267869,1.38184499 10.6476459,1.64870633 10.8851236,1.94254281 C11.5785987,2.79828526 12.2429207,3.67724678 12.8769496,4.57791885 C13.3957396,5.31732704 13.862506,6.03554047 14.2652065,6.72148006 C15.2753296,8.44331368 15.8410853,9.88503923 15.8410853,11.006194 C15.8410853,14.5517406 13.0327793,17.4315789 9.56189603,17.4315789 C6.09077196,17.4315789 3.28270677,14.5517406 3.28270677,11.006194 C3.28270677,9.88503923 3.84846242,8.44331366 4.85858553,6.72148006 C5.26104517,6.03554047 5.72805249,5.31732704 6.24684248,4.57791885 C6.88087136,3.67724678 7.54519341,2.79828526 8.23866847,1.94254281 C8.51447561,1.60115163 8.79501215,1.26360852 9.08019689,0.930011187 L9.14763477,0.852457634 L9.56189603,0.378947368 Z M9.56165998,2.09275266 C9.41884656,2.26694419 9.26564669,2.45649146 9.10418489,2.65971491 C8.43998618,3.49273595 7.80368976,4.3483469 7.19638633,5.22508117 C6.70373901,5.9391225 6.26160752,6.63013025 5.8829749,7.28610775 C4.98313227,8.84471411 4.48670806,10.1305164 4.48670806,10.9993146 C4.48670806,13.9317788 6.76204466,16.303279 9.56189603,16.303279 C12.3615114,16.303279 14.637084,13.9317788 14.637084,10.9993146 C14.637084,10.1307563 14.1406598,8.8447141 13.2408172,7.28610775 C12.8621845,6.63013025 12.420053,5.9391225 11.9274057,5.22508117 C11.3201023,4.3483469 10.6838059,3.49273595 10.0196072,2.65971491 C9.86838006,2.46954552 9.71572654,2.28055259 9.56165998,2.09275266 Z M10.2563968,7.00526796 C10.3211116,7.06527119 10.3499037,7.15464778 10.3323824,7.24114284 C10.3306858,7.25471548 10.0751809,8.64116065 10.6146933,9.82231964 C10.6638941,9.92988281 10.7317573,10.0537331 10.8053889,10.1796194 C10.8259041,10.0002011 10.8608538,9.8227292 10.9098982,9.64892916 C11.1087374,8.94858095 11.6207652,8.70902385 11.6428208,8.69986231 C11.7282364,8.661612 11.8278202,8.67389661 11.9013796,8.73175801 C11.9760291,8.78944174 12.0106393,8.88512885 11.9940128,8.97878007 C11.9912983,8.9964245 11.9193633,9.47350279 12.3217921,10.1494203 C12.6851995,10.7595104 12.7886909,11.1551529 12.7886909,11.9152207 C12.7869943,13.749563 11.3985133,15.0813783 9.48239582,15.0813783 C7.58086897,15.0813783 6.23412377,13.748545 6.23412377,11.9135241 C6.23412377,10.9386693 6.8116396,9.88848625 6.8370883,9.84539312 C6.88759047,9.75552383 6.98715141,9.70480663 7.0895394,9.71679236 C7.19201283,9.730365 7.27378799,9.80501452 7.30195122,9.90409479 C7.30398711,9.90952385 7.46007247,10.4999337 7.66501934,10.826695 C7.80244232,11.0472504 7.94325846,11.2019785 8.10104039,11.3105596 C7.99415585,10.8433215 7.91305933,10.1399194 8.04573188,9.41955155 C8.40812137,7.44133928 9.94963395,6.96663619 10.0154613,6.94729518 C10.1003878,6.92329797 10.191682,6.94526474 10.2563968,7.00526796 Z M9.77274845,7.81917293 C9.38556573,8.0560155 8.78977445,8.58636641 8.59748893,9.66403402 C8.41140617,10.714217 8.77312493,11.8119043 8.776716,11.8220838 C8.80819364,11.9080071 8.79177041,12.0049539 8.73394961,12.0745349 C8.67698431,12.1438135 8.58728407,12.173753 8.50216232,12.1518989 C8.47343376,12.144434 7.76305467,11.9635785 7.33506432,11.2530508 C7.25631722,11.1153943 7.18830469,10.9714033 7.13167913,10.8224588 C6.99102297,11.1955134 6.9180795,11.5924245 6.91654135,11.993099 C6.91654135,13.3811009 7.83077373,14.4151809 9.16532774,14.5553327 C8.8094503,14.3710765 8.57581369,14.0305318 8.53264514,13.602902 L8.52540358,13.4572283 L8.52888015,13.3577413 L8.5356191,13.287043 L8.58976612,13.3479004 C8.62925979,13.3894338 8.67109773,13.4279169 8.7151407,13.4636605 C8.8968114,13.6110975 9.07189652,13.6864697 9.21426884,13.7220627 C9.33076548,13.7508395 9.45300415,13.7115854 9.53063341,13.6207529 C9.60714542,13.5321711 9.62905344,13.4077469 9.58706336,13.2974704 C9.57712368,13.2703394 9.56063981,13.2137261 9.54322757,13.1410586 L9.52571386,13.0635369 L9.50355644,12.9486835 C9.45823866,12.686267 9.44990244,12.4284111 9.49253187,12.1969407 C9.53212818,11.9834303 9.60394408,11.806307 9.69963682,11.6611691 L9.77575293,11.5582441 L9.80117128,11.5287449 L9.80480453,11.6094159 C9.82340231,11.9264438 9.88939567,12.2321913 10.0213059,12.5209281 C10.1083403,12.712281 10.3124997,13.0323598 10.3992439,13.1480187 C10.4764099,13.2603121 10.6273804,13.308747 10.7624297,13.2599487 C10.858655,13.224777 10.9298048,13.1474216 10.958892,13.0540981 L10.9725552,12.9815212 L10.9725646,12.9352766 L10.970483,12.8289733 L10.9720347,12.7589709 L10.9968778,12.802112 C11.1192948,13.0208799 11.1488854,13.158025 11.1488854,13.4570399 C11.1488854,13.7306768 11.0708937,13.9753613 10.9322662,14.1741331 C11.6478394,13.7292918 12.0932331,12.9442077 12.0932331,11.9927597 C12.0932331,11.3467021 12.0171677,11.0484433 11.7236793,10.5343796 C11.5278027,10.1916704 11.4298644,9.88357147 11.3854657,9.63756737 C11.3320743,9.72882942 11.2911988,9.82739005 11.2640222,9.93039708 C11.1207058,10.4563369 11.1575959,11.073892 11.1575959,11.0806783 C11.1640284,11.1904799 11.1002996,11.2916313 11.0008946,11.3293969 C10.9017938,11.3666158 10.7910098,11.3296741 10.7312379,11.2394782 C10.7126296,11.2136902 10.295086,10.5913846 10.110962,10.1706328 C9.72900267,9.30164453 9.73422605,8.36072127 9.77274845,7.81917293 Z M2.19880534,0.378947368 L2.93531559,2.79814163 L3.64494591,0.378947368 L4.3653282,0.378947368 L5.11796642,2.79814163 L5.81146877,0.378947368 L6.69313068,0.378947368 L5.45127763,4.31417004 L4.7470233,4.31417004 L3.98363311,1.96486361 L3.24174686,4.31417004 L2.54286852,4.31417004 L1.25263158,0.378947368 L2.19880534,0.378947368 Z" id="形状结合" fill="#FFFFFF" fill-rule="nonzero"></path>
                <rect id="矩形备份-16" x="0" y="0" width="18" height="18"></rect>
            </g>
        </g>
    </g>
</svg>