<?xml version="1.0" encoding="UTF-8"?>
<svg width="18px" height="18px" viewBox="0 0 18 18" version="1.1" xmlns="http://www.w3.org/2000/svg" xmlns:xlink="http://www.w3.org/1999/xlink">
    <title>编组 4</title>
    <g id="页面-1" stroke="none" stroke-width="1" fill="none" fill-rule="evenodd">
        <g id="图标7-30" transform="translate(-94.000000, -174.000000)">
            <g id="编组-4" transform="translate(94.000000, 174.000000)">
                <path d="M2.33323446,12.6761762 L2.36130671,12.6800991 L4.50049238,13.2061987 C4.74850827,13.21787 4.87301018,13.4947391 4.74653107,13.6847132 L4.69490093,13.7443366 L4.23568061,14.1630071 L4.3379123,14.2590583 C6.2603669,15.9868193 9.04749906,16.3938043 11.3805265,15.3119976 L11.637816,15.1856616 L11.8909661,15.047021 C12.3958791,14.7547939 12.8595148,14.3960334 13.2688787,13.9814438 C13.5066448,13.7413693 13.8936715,13.7385183 14.1320906,13.9769397 C14.3717271,14.214272 14.3752875,14.600931 14.1386213,14.8398943 C13.654002,15.3317467 13.1032091,15.757566 12.5011589,16.1054573 C11.3277208,16.7825771 10.006542,17.1310097 8.66450404,17.1310097 C6.76448393,17.1310097 4.92549958,16.4327881 3.51716885,15.1625836 L3.33045376,14.9862469 L2.85720957,15.4189909 C2.69515466,15.5679769 2.45316622,15.4994339 2.37020077,15.3390297 L2.34700964,15.2748176 L2.34152718,15.2034662 L2.01052959,12.9698257 C2.0187923,12.8238512 2.12478045,12.7076517 2.26220776,12.6814805 L2.33323446,12.6761762 Z M10.5099904,1.94698942 L10.538035,1.94851494 L10.6459287,1.96602303 C11.3156101,2.1397782 11.959976,2.40379554 12.5614545,2.75135648 C15.4624184,4.42633868 16.9406473,7.80644199 16.225835,11.056529 L16.178835,11.2496591 L16.7888203,11.4435136 C16.9579007,11.4963512 17.0357877,11.6714466 16.9843339,11.8320223 L16.9542522,11.8995526 L16.9076655,11.9629125 L15.0925936,13.4017727 C14.9978079,13.4512261 14.8862736,13.4466852 14.7893075,13.3867892 L14.7198038,13.3314668 L14.6659957,13.2439096 L14.0519679,11.1275921 C13.9567188,10.9419785 14.0666642,10.7287264 14.2674667,10.6851403 L14.3468033,10.677134 L14.4197128,10.6904298 L15.0096772,10.8779097 L15.0410267,10.7514419 C15.5830829,8.21381053 14.5355846,5.58461298 12.420738,4.10672192 L12.1900868,3.95283858 L11.9514099,3.80810596 C11.4428149,3.51475256 10.9015267,3.29274149 10.340433,3.14727066 C10.01329,3.06433301 9.81707448,2.73040983 9.90208102,2.40418066 C9.95428707,2.19825682 10.1082185,2.03944081 10.311854,1.97523121 L10.4175729,1.95123019 L10.5099904,1.94698942 Z M8.442781,6.4797557 L8.53802519,6.4995641 L8.70111788,6.56357179 C9.28650822,6.82075674 9.72948329,7.32143156 9.91002608,7.93686399 C10.0905689,8.55229642 9.98827463,9.21293102 9.63517054,9.74492103 L9.53267506,9.88668906 L9.44958695,9.98579245 C8.87057091,10.6525811 8.87669936,11.5430765 9.37544141,12.0291684 L9.47470577,12.1154182 C9.59067078,12.2050632 9.66618154,12.3371824 9.68456296,12.4825999 C9.70294438,12.6280173 9.66268434,12.7747705 9.57250512,12.8906677 C9.3841629,13.1316184 9.03648068,13.1749978 8.79457637,12.9876087 C7.77875871,12.1985098 7.60280054,10.6785071 8.41489438,9.51482359 L8.52643516,9.36514887 L8.61656926,9.25703881 C8.85159102,8.99754059 8.94352699,8.63883677 8.86229873,8.29828351 C8.78107047,7.95773025 8.53712799,7.67913966 8.21881524,7.55658054 C8.02988279,7.4994949 7.88579545,7.34589326 7.84089075,7.15370114 C7.79598605,6.96150903 7.85709526,6.75996428 8.00117474,6.625071 C8.12097376,6.51291405 8.28299908,6.46101019 8.442781,6.4797557 Z M5.42517497,6.40638894 L5.52210604,6.41832366 C6.18295388,6.64800269 6.69208004,7.18286938 6.88891225,7.85423322 C7.06934178,8.46965007 6.96696881,9.1302193 6.61384171,9.66212855 L6.51134136,9.80387421 L6.42825323,9.90297759 C5.84966873,10.5692693 5.85497119,11.4599473 6.3500901,11.9454456 L6.44864197,12.0315746 C6.60935382,12.152315 6.69211013,12.3505957 6.66491747,12.5497618 C6.63772481,12.7489278 6.50484464,12.9177671 6.31764819,12.9910067 C6.13045174,13.0642463 5.91827528,13.0304085 5.76626748,12.9050637 C4.74834383,12.1201445 4.57321766,10.6006532 5.3864425,9.43629792 L5.49813229,9.28652905 L5.58846003,9.17762085 C5.82345899,8.91805252 5.91532253,8.559286 5.83399029,8.21871986 C5.76450764,7.92777201 5.57564408,7.68023325 5.31490062,7.5362102 L5.1778169,7.46000578 L5.07479404,7.39679573 C5.06249715,7.38819153 5.05243696,7.38034965 5.04431332,7.37296545 C4.89911267,7.24098143 4.83332768,7.04102391 4.87452249,6.84666887 C4.929493,6.58732081 5.16007973,6.40296192 5.42517497,6.40638894 Z M11.4582167,6.40331599 L11.5501259,6.41832366 C12.2109738,6.64800269 12.7200999,7.18286938 12.9169321,7.85423322 C13.0973617,8.46965007 12.9949887,9.1302193 12.6418616,9.66212855 L12.5393612,9.80387421 L12.4562731,9.90297759 C11.8409922,10.6115284 11.8865211,11.5724951 12.4814465,12.0322122 C12.6395743,12.1531414 12.7205368,12.3497038 12.6934511,12.546921 C12.6663654,12.7441383 12.5354086,12.9115958 12.3505339,12.9854173 C12.1656592,13.0592388 11.9553777,13.0280396 11.8014744,12.9049581 C10.785691,12.1194189 10.6098119,10.5999017 11.4214362,9.43620773 L11.5329126,9.28652903 L11.6227797,9.17813244 C11.857101,8.91639194 11.9467324,8.55566529 11.8621706,8.21469046 C11.7961975,7.94866983 11.6301378,7.71928048 11.3998503,7.57344648 C11.3371756,7.53375652 11.2703652,7.50066358 11.1769608,7.4631557 C11.1082362,7.41945623 11.0566893,7.38022496 11.0209772,7.34317131 C10.8919427,7.20928967 10.8373893,7.01871585 10.87909,6.83473488 C10.9395608,6.56794165 11.1852771,6.38489591 11.4582167,6.40331599 Z M6.72403422,1 L6.79666244,1.01048702 L6.81772072,1.01798451 L6.86019757,1.03720767 L8.95977509,1.86771085 C9.04877441,1.9263695 9.09984264,2.02467457 9.0967937,2.13776328 L9.08410712,2.22496327 L9.03534049,2.31596534 L7.50969563,3.90640118 C7.40115793,4.07392676 7.17502645,4.09081458 7.0330455,3.95266843 L6.97793677,3.88395825 L6.94807905,3.80506261 L6.81546485,3.19695869 L6.69885747,3.23291312 C4.2198501,4.03246861 2.461115,6.26389723 2.24449989,8.84607787 L2.22762615,9.11440687 L2.22195664,9.3849723 C2.22195664,9.97204567 2.30017362,10.5532109 2.45438648,11.1111496 C2.54416708,11.435741 2.3532993,11.7718962 2.03048099,11.8611722 C1.97651962,11.8769109 1.92097041,11.8845124 1.86532709,11.8845124 C1.59137199,11.8845124 1.34858295,11.7025878 1.27619356,11.4356495 C1.09313629,10.7686685 1,10.0790057 1,9.3849723 C1,6.03227018 3.19265205,3.0603515 6.37052029,2.05745354 L6.55378016,2.0030925 L6.41664889,1.37816897 C6.37577922,1.19963306 6.49545774,1.0407035 6.65404213,1.00664462 L6.72403422,1 Z" id="形状结合" fill="#FFFFFF" fill-rule="nonzero"></path>
                <rect id="矩形备份" x="0" y="0" width="18" height="18"></rect>
            </g>
        </g>
    </g>
</svg>