<?xml version="1.0" encoding="UTF-8"?>
<svg width="18px" height="18px" viewBox="0 0 18 18" version="1.1" xmlns="http://www.w3.org/2000/svg" xmlns:xlink="http://www.w3.org/1999/xlink">
    <title>编组 2</title>
    <g id="页面-1" stroke="none" stroke-width="1" fill="none" fill-rule="evenodd">
        <g id="图标7-30" transform="translate(-95.000000, -111.000000)">
            <g id="编组-2" transform="translate(95.000000, 111.000000)">
                <path d="M8.12803311,-1.59872116e-14 L8.56530889,0.499816391 L8.63649332,0.581678476 C8.69267817,0.647524081 8.75826953,0.724047327 8.83174205,0.810994042 C9.04097343,1.05861416 9.27410244,1.34030113 9.52477332,1.65046186 C10.2567748,2.55374555 10.9580036,3.48153827 11.6272563,4.43224767 C12.174868,5.21273409 12.6675659,5.97084828 13.0926386,6.69489562 C14.1588797,8.51238666 14.7560662,10.0342081 14.7560662,11.2176492 C14.7560662,14.9601706 11.7917432,18 8.12803311,18 C4.46406881,18 1.5,14.9601706 1.5,11.2176492 C1.5,10.0342081 2.09718652,8.51238664 3.16342759,6.69489562 C3.58824609,5.97084828 4.08119827,5.21273409 4.62880992,4.43224767 C5.29806263,3.48153827 5.99929146,2.55374555 6.73129291,1.65046186 C7.02242267,1.2901045 7.31854457,0.933808996 7.61957291,0.581678476 L7.69075733,0.499816391 L8.12803311,-1.59872116e-14 Z M8.12778395,1.80901669 C7.97703645,1.99288553 7.81532547,2.19296321 7.64489358,2.40747685 C6.94379493,3.28677684 6.27214872,4.18992173 5.6311062,5.11536346 C5.11108959,5.86907375 4.64439524,6.59847082 4.24472747,7.29089151 C3.29489359,8.93608712 2.77089026,10.2933228 2.77089026,11.2103877 C2.77089026,14.3057665 5.17263444,16.8090167 8.12803311,16.8090167 C11.0831826,16.8090167 13.485176,14.3057665 13.485176,11.2103877 C13.485176,10.2935761 12.9611727,8.9360871 12.0113388,7.29089151 C11.611671,6.59847082 11.1449766,5.86907375 10.62496,5.11536346 C9.98391751,4.18992173 9.31227129,3.28677684 8.61117265,2.40747685 C8.45154403,2.20674249 8.29040977,2.00724996 8.12778395,1.80901669 Z M8.86111724,6.99444952 C8.9294273,7.05778625 8.95981897,7.15212821 8.94132427,7.24342855 C8.93953344,7.25775523 8.66983377,8.72122513 9.23931913,9.96800406 C9.29125333,10.081543 9.36288671,10.2122739 9.44060892,10.3451538 C9.46226389,10.1557678 9.49915524,9.96843638 9.55092432,9.78498079 C9.76081011,9.04572433 10.3012839,8.79285851 10.3245648,8.783188 C10.4147258,8.74281266 10.519842,8.75577976 10.597488,8.81685568 C10.6762847,8.87774406 10.7128177,8.97874711 10.6952675,9.07760118 C10.6924022,9.09622586 10.6164708,9.5998085 11.0412567,10.3132769 C11.4248535,10.957261 11.5340944,11.3748836 11.5340944,12.1771774 C11.5323035,14.1134276 10.0666846,15.5192326 8.04411622,15.5192326 C6.03694899,15.5192326 4.61538462,14.1123531 4.61538462,12.1753866 C4.61538462,11.1463731 5.22498466,10.0378466 5.25184718,9.99235941 C5.30515502,9.89749738 5.41024712,9.84396255 5.51832334,9.85661416 C5.62648974,9.87094083 5.71280796,9.94973754 5.74253581,10.0543223 C5.74468481,10.060053 5.90944157,10.6832633 6.12577438,11.028178 C6.27083198,11.2609865 6.41947123,11.4243106 6.58601883,11.538924 C6.47319626,11.0457282 6.38759437,10.3032483 6.52763762,9.54285997 C6.91015986,7.45474702 8.53731203,6.95367154 8.60679641,6.93325603 C8.69644113,6.90792563 8.79280718,6.93111278 8.86111724,6.99444952 Z M8.35059956,7.85357143 C7.94190668,8.10357191 7.31301589,8.66338676 7.11004784,9.80092479 C6.91362715,10.9094513 7.2954414,12.0681212 7.29923197,12.0788662 C7.33245836,12.1695631 7.31512273,12.2718958 7.25408967,12.3453424 C7.19395963,12.4184699 7.09927604,12.4500726 7.00942531,12.4270044 C6.97910071,12.4191247 6.22925612,12.2282218 5.77748853,11.4782203 C5.69436659,11.3329163 5.62257558,11.1809257 5.56280417,11.0237065 C5.41433377,11.4174864 5.33733789,11.8364481 5.33571429,12.2593823 C5.33571429,13.7253736 6.30189456,14.8173326 7.71196684,14.9642273 C7.33457969,14.7703762 7.08730205,14.4106782 7.04162039,13.9587936 L7.03395775,13.8048521 L7.03762746,13.699838 L7.0447408,13.6252121 L7.10189599,13.6894504 C7.14358375,13.7332912 7.18774602,13.7739122 7.23423582,13.8116416 C7.42599933,13.9672696 7.6108114,14.0468291 7.7610933,14.0843995 C7.88406197,14.1147751 8.01309169,14.0733402 8.09503368,13.9774614 C8.17579635,13.8839584 8.19892149,13.7526217 8.15459863,13.6362188 C8.14410674,13.6075805 8.12670711,13.547822 8.10832751,13.4711174 L8.08984082,13.389289 L8.06645243,13.2680548 C8.018617,12.9910596 8.00981765,12.7188784 8.05481539,12.4745486 C8.09661149,12.2491764 8.17241716,12.062213 8.27342617,11.9090118 L8.35377095,11.8003687 L8.38060143,11.7692308 L8.38443653,11.8543834 C8.40406751,12.189024 8.47372717,12.5117575 8.61296573,12.8165352 C8.70483536,13.0185188 8.92033701,13.3563798 9.01190031,13.4784642 C9.09335329,13.5969961 9.25271104,13.6481218 9.39526311,13.5966125 C9.49683427,13.5594868 9.57193682,13.4778339 9.60263993,13.3793258 L9.6170622,13.3027168 L9.61707218,13.2539031 L9.61487493,13.141694 L9.61651278,13.0678026 L9.64273612,13.1133405 C9.77195409,13.3442621 9.80318852,13.4890264 9.80318852,13.8046532 C9.80318852,14.094901 9.72005899,14.354289 9.57238922,14.5646516 C10.328159,14.0950291 10.8,13.2651479 10.8,12.2590241 C10.8,11.5770744 10.7197087,11.2622457 10.4099154,10.7196229 C10.2031568,10.3578743 10.0997775,10.0326588 10.0529122,9.77298778 C9.99655458,9.86931995 9.95340827,9.97335617 9.92472185,10.0820858 C9.77344346,10.6372445 9.812383,11.2891082 9.812383,11.2962715 C9.81917286,11.4121733 9.75190353,11.5189442 9.6469761,11.5588079 C9.54236963,11.5980944 9.42543095,11.5591005 9.3623384,11.4638937 C9.34269633,11.436673 8.90195587,10.7797949 8.70760277,10.335668 C8.30442346,9.41840256 8.30993702,8.42520579 8.35059956,7.85357143 Z M16.8787925,-5.06261699e-13 L16.8787925,1.01363776 L14.6791296,1.01363776 L14.6791296,2.00658903 L16.6512412,2.00658903 L16.6512412,3.01333129 L14.6791296,3.01333129 L14.6791296,4.02696905 L16.9615385,4.02696905 L16.9615385,5.0475023 L13.5,5.0475023 L13.5,-5.06261699e-13 L16.8787925,-5.06261699e-13 Z" id="形状结合" fill="#FFFFFF" fill-rule="nonzero"></path>
                <rect id="矩形备份-15" x="0" y="0" width="18" height="18"></rect>
            </g>
        </g>
    </g>
</svg>