<?xml version="1.0" encoding="UTF-8"?>
<svg width="18px" height="18px" viewBox="0 0 18 18" version="1.1" xmlns="http://www.w3.org/2000/svg" xmlns:xlink="http://www.w3.org/1999/xlink">
    <title>air</title>
    <g id="页面-1" stroke="none" stroke-width="1" fill="none" fill-rule="evenodd">
        <g id="图标3" transform="translate(-305.000000, -491.000000)">
            <g id="air" transform="translate(305.000000, 491.000000)">
                <path d="M5.8090909,11.4318182 C5.85,11.4318182 5.93181817,11.4318182 5.97272727,11.4727273 C6.75,11.7181818 7.2,12.6590909 6.99545454,13.4772727 C6.91363637,13.8045455 6.75,14.1318182 6.62727273,14.4590909 L6.54545454,14.6227273 C6.21818181,15.3590909 6.2590909,15.7272727 6.83181817,16.3409091 C6.91363635,16.4636363 6.91363635,16.6272727 6.91363637,16.7909091 L6.91363637,17.0772727 L6.62727273,17.0772727 C6.58636363,17.1181818 6.50454546,17.1181818 6.42272727,17.1181818 C6.3409091,17.1181818 6.2590909,17.1181818 6.17727273,17.0772727 C5.60454546,16.75 5.31818183,15.9727273 5.23636363,15.4 L5.23636363,15.3181818 C5.27727273,15.1954545 5.31818181,15.0318182 5.4,14.8681818 C5.52272727,14.5409091 5.60454546,14.2136363 5.76818183,13.9272727 C6.17727273,13.0681818 6.13636365,12.9045455 5.48181817,12.2909091 C5.3590909,12.1681818 5.27727271,11.8 5.3590909,11.6363636 C5.44090908,11.5136364 5.64545454,11.4318182 5.8090909,11.4318182 Z M8.34545454,11.0227273 C8.42727271,11.0227273 8.46818181,11.0227273 8.55,11.0636364 C9.16363637,11.2681818 9.53181817,11.9636364 9.53181817,12.8227273 L9.53181817,12.8636364 C9.53181817,12.8636364 9.49090908,12.9863636 9.45,13.0681818 C9.36818183,13.2727273 9.28636363,13.6 9.12272727,13.8863636 C8.79545454,14.5818182 8.71363637,15.1136364 9.32727273,15.6045454 C9.45,15.6863636 9.45,15.9318182 9.45,15.9727273 C9.45,16.0954545 9.4090909,16.1772727 9.36818183,16.2181818 C9.24545456,16.3 9.08181819,16.3409091 8.91818183,16.3409091 C8.83636365,16.3409091 8.79545456,16.3409091 8.75454546,16.3 C8.22272729,16.0136364 7.89545456,15.5227273 7.93636363,14.9909091 C7.97727273,14.4181818 8.0590909,13.8454545 8.26363637,13.3545454 C8.5909091,12.5363636 8.5909091,12.4545454 7.97727273,11.8409091 C7.85454546,11.7181818 7.77272727,11.35 7.89545454,11.1863636 C7.97727271,11.0636364 8.18181817,11.0227273 8.34545454,11.0227273 Z M3.43636363,10.9409091 C3.47727273,10.9409091 3.51818181,10.9409091 3.5590909,10.9818182 C4.29545454,11.2681818 4.66363637,12.0863636 4.41818183,12.9454545 C4.33636365,13.2318182 4.21363637,13.4772727 4.13181817,13.7227273 C4.09090908,13.8863636 4.05,13.9681818 4.0090909,14.05 C3.76363637,14.6636364 3.80454544,14.9909091 4.25454546,15.5227273 C4.33636363,15.6454545 4.37727273,15.8090909 4.37727273,15.9318182 L4.37727273,16.0954545 L4.41818183,16.2181818 L4.29545454,16.2181818 C4.25454544,16.2181818 4.17272727,16.2181818 4.13181817,16.2590909 C4.05,16.3 3.96818181,16.3 3.88636363,16.3 C3.80454546,16.3 3.72272727,16.3 3.68181817,16.2590909 C3.15,15.9727273 2.86363635,15.2772727 2.78181817,14.6636364 L2.78181817,14.5818182 C2.82272727,14.4590909 2.86363635,14.2954545 2.94545454,14.1727273 C3.06818181,13.8863636 3.15,13.5590909 3.31363637,13.2318182 C3.6409091,12.4954545 3.6409091,12.3318182 3.02727273,11.8 C2.90454546,11.7181818 2.90454546,11.5545455 2.90454546,11.3909091 C2.90454546,11.35 2.90454546,11.2681818 2.86363637,11.2272727 L2.82272727,11.1045454 L2.94545454,11.0636364 C2.98636363,11.0636364 3.06818181,11.0227273 3.1090909,11.0227273 C3.19090908,10.9818182 3.31363637,10.9409091 3.43636363,10.9409091 Z M13.2954545,11.0636364 C13.4181818,11.0636364 13.5,11.1045455 13.5818182,11.1454545 C13.7454545,11.2272727 13.7863636,11.5545454 13.7863636,11.7181818 C13.7454545,11.9227273 13.7045455,12.1272727 13.6227273,12.3318182 C13.6227273,12.3727273 13.5818182,12.4545454 13.5818182,12.4954545 L13.6227273,12.4954545 C13.6636364,12.4545454 13.7045454,12.4545454 13.7045455,12.4136364 C13.8272727,12.2909091 13.95,12.1681818 14.1136364,12.0454545 C14.2772727,11.9227273 14.4818182,11.8409091 14.6454545,11.8409091 L14.7272727,11.8409091 C14.85,11.8818182 14.9318182,12.0045454 14.9727273,12.0863636 C15.0136364,12.1681818 15.0954545,12.3318182 15.0545455,12.4545454 C14.9727273,12.6590909 14.7272727,12.7818182 14.5636364,12.8636364 C14.4,12.9454545 14.2363636,12.9863636 14.0318182,13.0681818 C13.9909091,13.0681818 13.95,13.1090909 13.9090909,13.1090909 C13.95,13.1090909 13.9909091,13.15 14.0318182,13.15 C14.2363636,13.1909091 14.4409091,13.2727273 14.6045455,13.3545454 C14.7681818,13.4363636 15.0136364,13.6 15.0545455,13.7636364 C15.0954546,13.9272727 14.9318182,14.2545455 14.7272727,14.3363636 L14.6045455,14.3363636 C14.4409091,14.3363636 14.2363636,14.2545455 14.1136364,14.1727273 C13.95,14.05 13.8272727,13.9272727 13.6636364,13.8045454 C13.6227273,13.7636363 13.5818182,13.7227273 13.5409091,13.7227273 C13.5409091,13.7636364 13.5818182,13.8045454 13.5818182,13.8863636 C13.6227273,14.0909091 13.7045454,14.2545455 13.7045455,14.4590909 C13.7045455,14.6227273 13.7045455,14.95 13.5409091,15.0727273 C13.3772727,14.9909091 13.2545455,14.9909091 13.1727273,14.9909091 C13.05,14.9909091 12.8863636,14.95 12.8045455,14.8681818 C12.6409091,14.7045454 12.6818182,14.3772727 12.7227273,14.2545454 C12.7636364,14.05 12.8045454,13.8454545 12.8863636,13.6818182 C12.8863636,13.6409091 12.9272727,13.6 12.9272727,13.5181818 L12.8045455,13.6409091 C12.6409091,13.7636363 12.4772727,13.9272727 12.3136364,14.05 C12.1909091,14.1318182 11.9863636,14.2545455 11.7818182,14.2545454 L11.7409091,14.2545454 C11.6181818,14.2545454 11.5363636,14.1318182 11.4954545,14.05 C11.4545454,13.9681818 11.3727273,13.8045455 11.4136364,13.6818182 C11.4954545,13.4363636 11.7818182,13.2727273 11.9045455,13.2318182 C12.0681818,13.15 12.2727273,13.1090909 12.4772727,13.0681818 C12.5181818,13.0681818 12.5590909,13.0272727 12.6,13.0272727 C12.5590909,13.0272727 12.5181818,12.9863636 12.4772727,12.9863636 C12.3136364,12.9454545 12.1090909,12.8636364 11.9454545,12.7818182 C11.8227273,12.7409091 11.5772727,12.5772727 11.4954545,12.3318182 C11.4545454,12.25 11.4954545,12.1272727 11.5363636,12.0454545 C11.5772727,12.0045454 11.6590909,11.8 11.8227273,11.8 L11.9045455,11.8 C12.1090909,11.8 12.3545455,11.9636364 12.3954545,12.0045454 C12.5590909,12.1272727 12.7227273,12.2909091 12.8863636,12.4136364 L13.0090909,12.5363636 L13.05,12.4954545 C13.05,12.4545454 13.0090909,12.3727273 13.0090909,12.3318182 C12.9272727,12.1272727 12.8454545,11.9227273 12.8045455,11.7181818 C12.7636364,11.5545454 12.8045455,11.2272727 12.9272727,11.1454545 C13.0090909,11.0636364 13.1318182,11.0636364 13.2954545,11.0636364 Z M15.5863636,1 C17.1409091,1 18,1.8590909 18,3.45454544 L18,7.87272727 C18,9.42727273 17.1,10.2863636 15.5863636,10.2863636 L12.9272727,10.2863636 L2.53636363,10.3272727 C0.859090904,10.3272727 0,9.46818181 0,7.79090908 L0,3.49545454 C0,1.9 0.859090904,1.04090908 2.41363637,1 L15.5863636,1 Z M15.7090909,2.18636363 L2.2909091,2.18636363 C1.47272727,2.18636363 1.14545454,2.51363637 1.14545454,3.33181817 L1.14545454,8.03636363 C1.14545454,8.89545454 1.47272727,9.22272727 2.2909091,9.22272727 L15.7909091,9.22272727 C16.5272727,9.22272727 16.8545455,8.89545454 16.8545455,8.1590909 L16.8545455,3.29090908 C16.8545455,2.51363635 16.5272727,2.18636363 15.7090909,2.18636363 Z M15.6681818,7.54545454 C15.6681818,7.7090909 15.6272727,7.83181817 15.5454545,7.91363637 C15.4227273,8.03636363 15.2590909,8.03636363 15.0954545,8.03636363 L2.57727273,8.03636363 C2.61818183,8.07727273 2.57727273,8.07727273 2.53636363,8.07727273 C2.45454546,8.07727273 2.37272727,8.07727273 2.33181817,8.03636363 C2.33181817,8.03636363 1.88181817,7.7909091 1.92272727,7.58636363 C1.96363637,7.38181817 2.12727273,7.21818181 2.2909091,7.09545454 C2.37272727,7.05454544 2.45454546,7.05454544 2.53636363,7.05454544 L15.0545455,7.05454544 C15.2181818,7.05454544 15.6681818,7.05454544 15.6681818,7.54545454 Z M15.0954545,5.54090908 C15.3409091,5.54090908 15.5045454,5.58181817 15.5863636,5.70454544 C15.6681818,5.78636362 15.7090909,5.9090909 15.7090909,6.03181817 C15.7090909,6.44431817 15.2965909,6.47869317 15.1017992,6.48155776 L2.7409091,6.48181817 L2.57727273,6.52272727 C2.49545456,6.52272727 2.37272727,6.52272727 2.2909091,6.48181817 C2.16818183,6.44090908 1.96363637,6.23636363 1.96363637,6.07272727 C1.96363637,5.9090909 2.12727273,5.70454544 2.25,5.62272727 C2.33181817,5.54090908 2.45454546,5.54090908 2.57727273,5.54090908 L15.0954545,5.54090908 Z" id="形状结合" fill="#FFFFFF" fill-rule="nonzero"></path>
                <rect id="矩形" x="0" y="0" width="18" height="18"></rect>
            </g>
        </g>
    </g>
</svg>