<?xml version="1.0" encoding="UTF-8"?>
<svg width="18px" height="18px" viewBox="0 0 18 18" version="1.1" xmlns="http://www.w3.org/2000/svg" xmlns:xlink="http://www.w3.org/1999/xlink">
    <title>analysis</title>
    <g id="页面-1" stroke="none" stroke-width="1" fill="none" fill-rule="evenodd">
        <g id="图标3" transform="translate(-305.000000, -416.000000)" fill="#FFFFFF" fill-rule="nonzero">
            <g id="analysis" transform="translate(305.000000, 416.000000)">
                <path d="M11.1658096,15.048855 C11.4574528,15.048855 11.6657694,15.2571716 11.6657694,15.5488148 L11.6657694,15.5488148 L11.6657694,15.8821214 L14.9155083,15.8821214 C15.2488148,15.8821214 15.4987947,16.1321013 15.4987947,16.4654079 C15.4987947,16.7987144 15.2488148,17.0486943 14.9155083,17.0486943 L14.9155083,17.0486943 L2.79148254,17.0486943 C2.45817598,17.0486943 2.20819607,16.7987144 2.20819607,16.4654079 C2.20819607,16.1321013 2.45817598,15.8821214 2.79148254,15.8821214 L2.79148254,15.8821214 L5.99955808,15.8821214 L5.99955808,15.5488148 C5.99955808,15.2571716 6.20787467,15.048855 6.4995179,15.048855 L6.4995179,15.048855 Z M15.4571314,0.8 C16.6237044,0.8 17.5402974,1.71659302 17.498634,2.84150262 L17.498634,12.0074328 C17.498634,13.1323423 16.582041,14.0489354 15.4571314,14.0489354 L15.4571314,14.0489354 L2.54150262,14.0489354 C1.41659301,14.0489354 0.5,13.1323423 0.5,12.0074328 L0.5,12.0074328 L0.5,2.84150262 C0.5,1.71659301 1.41659301,0.8 2.54150262,0.8 L2.54150262,0.8 Z M15.4987947,1.96657292 L2.58316594,1.96657292 C2.12486942,1.96657292 1.70823624,2.3415428 1.70823624,2.84150262 L1.70823624,2.84150262 L1.70823624,12.0074328 C1.70823624,12.4657293 2.08320612,12.8823624 2.58316594,12.8823624 L2.58316594,12.8823624 L15.4987947,12.8823624 C15.9570913,12.8823624 16.3737244,12.5073926 16.3737244,12.0074328 L16.3737244,12.0074328 L16.3737244,2.84150262 C16.3737244,2.3832061 15.9987546,1.96657292 15.4987947,1.96657292 L15.4987947,1.96657292 Z M5.99955808,2.92482925 C6.16621135,2.92482925 6.29120131,2.96649259 6.41619126,3.09148254 L6.41619126,3.09148254 L7.91607074,4.59136201 C8.2910406,4.42470873 8.7076738,4.29971878 9.12430698,4.29971878 C9.33262359,4.29971876 9.54094018,4.34138208 9.74925677,4.3830454 C9.45761354,4.63302532 9.24929694,5.00799519 9.24929694,5.42462838 L9.24929694,5.42462838 L9.24929694,5.50795502 L9.12430698,5.50795502 C8.37436724,5.50795502 7.79108077,6.13290481 7.79108077,6.84118123 C7.79108077,7.59112095 8.41603056,8.17440742 9.12430698,8.17440742 C9.87424672,8.17440743 10.4575332,7.54945764 10.4575332,6.84118123 L10.4575332,6.84118123 L10.4575332,6.75785458 L10.5825231,6.75785458 C10.9991563,6.75785458 11.3324629,6.59120131 11.5824428,6.29955808 C11.6241061,6.46621135 11.6241061,6.63286463 11.6241061,6.7995179 C11.6241061,7.38280436 11.4157895,7.9244275 11.082483,8.34106069 L11.082483,8.34106069 L12.3740458,9.63262357 L14.9155083,9.63262357 C15.2488148,9.63262357 15.4571314,9.8826035 15.4571314,10.21591 C15.4571314,10.5492166 15.2071515,10.7991965 14.873845,10.7991965 L14.873845,10.7991965 L12.0824026,10.7991965 C11.9157493,10.7991965 11.7907594,10.7575332 11.6657694,10.6325432 L11.6657694,10.6325432 L10.1242266,9.09100042 C9.79092008,9.21599039 9.45761352,9.29931703 9.08264366,9.29931703 C7.70775413,9.29931703 6.58284453,8.17440742 6.58284453,6.7995179 C6.58284455,6.29955806 6.74949782,5.84126156 6.99947773,5.42462838 L6.99947773,5.42462838 L5.70791485,4.13306549 L3.1664524,4.13306549 C2.87480916,4.13306549 2.58316594,3.84142227 2.58316594,3.50811572 C2.58316594,3.17480916 2.87480916,2.92482925 3.1664524,2.92482925 L3.1664524,2.92482925 Z M5.99955808,9.63262357 C6.33286462,9.63262357 6.58284453,9.8826035 6.58284453,10.21591 C6.58284453,10.5492166 6.33286463,10.7991965 5.99955808,10.7991965 L5.99955808,10.7991965 L3.1664524,10.7991965 C2.87480916,10.7991965 2.58316594,10.5492166 2.58316594,10.21591 C2.58316594,9.88260348 2.83314584,9.63262357 3.1664524,9.63262357 L3.1664524,9.63262357 Z M5.08296506,6.21623144 C5.41627161,6.21623144 5.66625152,6.46621137 5.66625152,6.7995179 C5.66625152,7.13282444 5.41627161,7.38280436 5.08296506,7.38280436 L5.08296506,7.38280436 L3.1664524,7.38280436 C2.87480918,7.38280436 2.58316594,7.13282446 2.58316594,6.7995179 C2.58316594,6.46621135 2.87480916,6.21623144 3.1664524,6.21623144 L3.1664524,6.21623144 Z M14.9155083,2.7998393 C15.2488148,2.7998393 15.4987947,3.04981923 15.4987947,3.38312577 C15.4987947,3.71643231 15.2488148,4.00807554 14.873845,3.96641222 L14.873845,3.96641222 L12.5823624,3.96641222 L11.4574528,5.09132184 C11.4991161,5.17464846 11.4991161,5.29963841 11.4991161,5.38296506 C11.4991161,5.92458822 11.082483,6.3412214 10.5408598,6.3412214 C9.99923667,6.3412214 9.58260348,5.9245882 9.58260348,5.38296506 C9.58260348,4.88300523 9.99923667,4.46637205 10.4991965,4.42470873 L10.4991965,4.42470873 L11.9574127,2.96649257 C12.0824026,2.84150262 12.2073926,2.7998393 12.3740458,2.7998393 L12.3740458,2.7998393 Z" id="形状结合"></path>
            </g>
        </g>
    </g>
</svg>