<?xml version="1.0" encoding="UTF-8"?>
<svg width="18px" height="18px" viewBox="0 0 18 18" version="1.1" xmlns="http://www.w3.org/2000/svg" xmlns:xlink="http://www.w3.org/1999/xlink">
    <title>area</title>
    <g id="页面-1" stroke="none" stroke-width="1" fill="none" fill-rule="evenodd">
        <g id="图标3" transform="translate(-305.000000, -163.000000)" fill="#FFFFFF" fill-rule="nonzero">
            <g id="area" transform="translate(305.000000, 163.000000)">
                <path d="M1.6529449,16.7004433 L1.6529449,1.27675744 C1.64990788,0.941159626 1.780318,0.618102013 2.01548371,0.378660569 C2.25064942,0.139219125 2.57130505,0.0030097872 2.90690311,0 L9.99746675,0 C10.335045,0 10.6586334,0.134864107 10.8962645,0.374635979 C11.1338955,0.614407851 11.2658658,0.939192896 11.2628246,1.27675744 L11.2628246,3.41988601 L15.0474984,3.41988601 C15.7463362,3.41988601 16.3128562,3.98640599 16.3128562,4.68524382 L16.3128562,16.7004433 L17.3274224,16.7004433 C17.6755295,16.7066605 17.9544015,16.9906595 17.9544015,17.338822 C17.9544015,17.5051072 17.888345,17.6645818 17.7707636,17.7821632 C17.6531822,17.8997446 17.4937076,17.9658011 17.3274224,17.9658011 L0.626979094,17.9658011 C0.460693896,17.9658011 0.301219308,17.8997446 0.183637919,17.7821632 C0.0660565296,17.6645818 0,17.5051072 0,17.338822 C0,16.9906595 0.278872047,16.7066605 0.626979094,16.7004433 L1.6529449,16.7004433 Z M2.90690311,16.7004433 L9.99746675,16.7004433 L9.99746675,1.27675744 L2.90690311,1.27675744 L2.90690311,16.7004433 Z M11.2628246,16.7004433 L15.0474984,16.7004433 L15.0474984,4.70804307 L11.2628246,4.70804307 L11.2628246,16.7004433 Z M4.55984801,4.25205825 L8.20772641,4.25205825 C8.3760057,4.25203044 8.53723249,4.31964953 8.65514714,4.43970807 C8.77306178,4.55976662 8.83776513,4.72218551 8.83470551,4.89043698 C8.83470551,5.05672218 8.76864898,5.21619677 8.65106759,5.33377816 C8.5334862,5.45135955 8.37401161,5.51741609 8.20772641,5.51741609 L4.55984801,5.51741609 C4.39356281,5.51741609 4.23408822,5.45135956 4.11650683,5.33377817 C3.99892543,5.21619677 3.9328689,5.05672218 3.9328689,4.89043698 C3.92980928,4.72218551 3.99451263,4.55976661 4.11242728,4.43970807 C4.23034193,4.31964952 4.39156873,4.25203044 4.55984801,4.25205825 L4.55984801,4.25205825 Z M4.55984801,8.35592146 L8.20772641,8.35592146 C8.3760057,8.35589365 8.53723249,8.42351273 8.65514714,8.54357128 C8.77306178,8.66362983 8.83776513,8.82604872 8.83470551,8.99430019 C8.83470551,9.16058538 8.76864898,9.32005998 8.65106759,9.43764137 C8.5334862,9.55522276 8.37401161,9.6212793 8.20772641,9.6212793 L4.55984801,9.6212793 C4.39356281,9.6212793 4.23408822,9.55522277 4.11650683,9.43764137 C3.99892543,9.32005998 3.9328689,9.16058539 3.9328689,8.99430019 C3.92980928,8.82604872 3.99451263,8.66362982 4.11242728,8.54357127 C4.23034193,8.42351273 4.39156873,8.35589365 4.55984801,8.35592146 L4.55984801,8.35592146 Z M4.55984801,12.459784 L8.20772641,12.459784 C8.3760057,12.4597569 8.53723249,12.5273759 8.65514714,12.6474345 C8.77306178,12.767493 8.83776513,12.9299119 8.83470551,13.0981634 C8.81076345,13.4265109 8.53694451,13.6804158 8.20772641,13.6795463 L4.55984801,13.6795463 C4.39356281,13.6795463 4.23408822,13.6134875 4.11650683,13.4959061 C3.99892543,13.3783247 3.9328689,13.2188501 3.9328689,13.0525649 C3.95105093,12.7197172 4.22650443,12.4592884 4.55984801,12.459784 L4.55984801,12.459784 Z M13.1551615,7.03356555 C13.5014325,7.03356555 13.7821406,7.31427365 13.7821406,7.66054464 L13.7821406,8.92590247 C13.7821406,9.27217346 13.5014325,9.55288157 13.1551615,9.55288157 C12.8159015,9.54080783 12.5454293,9.2653269 12.539582,8.92590247 L12.539582,7.66054464 C12.539582,7.30797781 12.8253939,7.02216592 13.1779607,7.02216592 L13.1551615,7.03356555 Z M13.1551615,11.2400253 C13.3214467,11.2400253 13.4809213,11.3060819 13.5985027,11.4236633 C13.7160841,11.5412447 13.7821406,11.7007192 13.7821406,11.8670044 L13.7821406,13.1323623 C13.7821406,13.2986474 13.7160841,13.458122 13.5985027,13.5757034 C13.4809213,13.6932848 13.3214467,13.7593414 13.1551615,13.7593414 C12.8069989,13.7593969 12.5229999,13.4804693 12.5167828,13.1323623 L12.5167828,11.8670044 C12.5167828,11.6976959 12.5840403,11.5353217 12.7037596,11.4156025 C12.8234788,11.2958833 12.9858529,11.2286257 13.1551615,11.2286257 L13.1551615,11.2400253 Z" id="形状"></path>
            </g>
        </g>
    </g>
</svg>