<?xml version="1.0" encoding="UTF-8"?>
<svg width="18px" height="18px" viewBox="0 0 18 18" version="1.1" xmlns="http://www.w3.org/2000/svg" xmlns:xlink="http://www.w3.org/1999/xlink">
    <title>assorting</title>
    <g id="页面-1" stroke="none" stroke-width="1" fill="none" fill-rule="evenodd">
        <g id="图标3" transform="translate(-305.000000, -269.000000)" fill="#FFFFFF" fill-rule="nonzero">
            <g id="assorting" transform="translate(305.000000, 269.000000)">
                <path d="M15.9671162,16.74404 C16.3020588,16.7431535 16.5787478,17.005293 16.595934,17.3397951 C16.6114016,17.6408474 16.4117711,17.9051366 16.1250417,17.9796376 L16.0264149,17.9972321 L15.9673795,17.9999978 L0.629658033,17.9999978 C0.294715476,18.0008843 0.0180264512,17.7387447 0.000840248253,17.4042426 C-0.0146273564,17.1031903 0.18500313,16.8389011 0.471732594,16.7644001 L0.570359388,16.7468056 L0.629394763,16.74404 L15.9671162,16.74404 Z M11.5570865,0 C14.8240945,0 17.4726543,2.64855987 17.4726543,5.91556785 C17.4726543,7.73236299 16.6477824,9.41182917 15.2654668,10.5247246 L15.1371334,10.622843 L16.8572791,13.3413462 C17.0018159,13.5669534 16.9843629,13.8515422 16.8318932,14.0557865 L16.7684408,14.1283398 L16.6926467,14.1917281 C16.447068,14.3665128 16.116934,14.3401621 15.9001028,14.1384846 L15.8322935,14.0648006 L15.7958597,14.0132624 L14.0616341,11.2736987 L13.874034,11.3601319 C13.3299956,11.5919763 12.7527953,11.7409937 12.15765,11.8010122 L11.8586523,11.8235763 L11.5570865,11.8311357 C8.29007851,11.8311357 5.64151863,9.18257584 5.64151863,5.91556785 C5.64151863,2.64855986 8.29007851,0 11.5570865,0 Z M11.5570865,1.25595017 C8.98350763,1.25595017 6.8974688,3.34198898 6.8974688,5.91556785 C6.8974688,8.48914672 8.98350763,10.5751855 11.5570865,10.5751855 C14.1306654,10.5751855 16.2167042,8.48914671 16.2167042,5.91556785 C16.2167042,3.34198899 14.1306654,1.25595017 11.5570865,1.25595017 Z M4.94733226,9.25328355 C5.28227481,9.25239704 5.55896382,9.51453659 5.57615002,9.84903869 C5.59161762,10.150091 5.39198713,10.4143802 5.10525768,10.4888812 L5.00663088,10.5064757 L4.94759552,10.5092413 L0.629658033,10.5092413 C0.294715476,10.5101279 0.0180264512,10.2479883 0.000840248253,9.9134862 C-0.0146273564,9.61243389 0.18500313,9.34814467 0.471732594,9.27364371 L0.570359388,9.25604916 L0.629394763,9.25328355 L4.94733226,9.25328355 Z M11.3794302,2.47856738 C11.5658602,2.19972302 11.9385177,2.1166179 12.2257593,2.28983034 C12.4842768,2.44572154 12.5914585,2.75969254 12.4921599,3.03911047 L12.4513372,3.1307058 L12.4185999,3.1843707 L10.9809834,5.29693869 L13.3195452,5.29772735 C13.455181,5.29762857 13.5852453,5.3413411 13.6918149,5.41962463 L13.7670568,5.48467496 L13.8318078,5.56182312 C13.9300503,5.70000367 13.9674331,5.87071115 13.937264,6.03796403 L13.9110027,6.13761335 L13.8895341,6.1893937 L12.4693662,9.26326622 C12.3294421,9.56596002 11.9773311,9.70650214 11.6674344,9.58335054 C11.3885273,9.4725141 11.2313618,9.18287694 11.2813438,8.89189191 L11.3057938,8.7950904 L11.3290965,8.73675553 L12.3362713,6.55301076 L9.79452596,6.55367748 C9.63636187,6.55363029 9.48656561,6.49408721 9.37264363,6.39070165 L9.3088154,6.32353445 L9.25491732,6.24659641 C9.16062553,6.08798224 9.14175373,5.89775495 9.20078573,5.72354062 L9.24557325,5.62131458 L9.27540198,5.57292846 L11.3794302,2.47856738 Z M4.94733226,1.7625271 C5.28227481,1.76164059 5.55896382,2.02378015 5.57615002,2.35828225 C5.59161762,2.65933456 5.39198713,2.92362377 5.10525768,2.99812473 L5.00663088,3.01571928 L4.94759552,3.01848489 L0.629658033,3.01848489 C0.294715476,3.01937142 0.0180264512,2.75723186 0.000840248253,2.42272976 C-0.0146273564,2.12167745 0.18500313,1.85738823 0.471732594,1.78288727 L0.570359388,1.76529272 L0.629394763,1.7625271 L4.94733226,1.7625271 Z" id="形状结合"></path>
            </g>
        </g>
    </g>
</svg>