<?xml version="1.0" encoding="UTF-8"?>
<svg width="18px" height="18px" viewBox="0 0 18 18" version="1.1" xmlns="http://www.w3.org/2000/svg" xmlns:xlink="http://www.w3.org/1999/xlink">
    <title>device</title>
    <g id="页面-1" stroke="none" stroke-width="1" fill="none" fill-rule="evenodd">
        <g id="图标3" transform="translate(-305.000000, -596.000000)">
            <g id="device" transform="translate(305.000000, 596.000000)">
                <path d="M16.5027286,9.86346969 C16.8902202,9.86346969 17.2618412,10.0174001 17.5358391,10.2913981 C17.8098371,10.565396 17.9637675,10.937017 17.9637675,11.3245086 L17.9637675,11.3245086 L17.9637675,15.081466 C17.9637675,15.8883755 17.3096381,16.5425049 16.5027286,16.5425049 L16.5027286,16.5425049 L1.47489927,16.5425049 C0.667989734,16.5425049 0.0138603116,15.8883755 0.0138603116,15.081466 L0.0138603116,15.081466 L0.0138603116,11.3245086 C0.0138603116,10.5175991 0.667989734,9.86346969 1.47489927,9.86346969 L1.47489927,9.86346969 Z M16.5027286,11.1157888 L1.47489927,11.1157888 C1.35962647,11.1157888 1.26617941,11.2092358 1.26617941,11.3245086 L1.26617941,11.3245086 L1.26617941,15.081466 C1.26617941,15.1368219 1.28816948,15.1899106 1.32731204,15.2290532 C1.36645461,15.2681958 1.41954332,15.2901858 1.47489927,15.2901858 L1.47489927,15.2901858 L16.5027286,15.2901858 C16.6180014,15.2901858 16.7114484,15.1967388 16.7114484,15.081466 L16.7114484,15.081466 L16.7114484,11.3245086 C16.7114484,11.2092358 16.6180014,11.1157888 16.5027286,11.1157888 L16.5027286,11.1157888 Z M14.8329698,12.159388 C15.2940609,12.159388 15.6678492,12.5331763 15.6678492,12.9942674 C15.6678492,13.4553586 15.2940609,13.8291469 14.8329698,13.8291469 C14.3718786,13.8291469 13.9980904,13.4553586 13.9980904,12.9942674 C13.9980904,12.5331763 14.3718786,12.159388 14.8329698,12.159388 Z M16.5027286,1.51467562 C16.8902202,1.51467562 17.2618412,1.66860607 17.5358391,1.94260402 C17.8098371,2.21660198 17.9637675,2.58822295 17.9637675,2.97571458 L17.9637675,2.97571458 L17.9637675,6.73267191 C17.9637675,7.53958145 17.3096381,8.19371087 16.5027286,8.19371087 L16.5027286,8.19371087 L1.47489927,8.19371087 C0.667989734,8.19371087 0.0138603116,7.53958145 0.0138603116,6.73267191 L0.0138603116,6.73267191 L0.0138603116,2.97571458 C0.0138603116,2.16880504 0.667989734,1.51467562 1.47489927,1.51467562 L1.47489927,1.51467562 Z M16.5027286,2.76699472 L1.47489927,2.76699472 C1.35962647,2.76699472 1.26617941,2.86044178 1.26617941,2.97571458 L1.26617941,2.97571458 L1.26617941,6.73267191 C1.26617941,6.8479447 1.35962648,6.94139175 1.47489927,6.94139175 L1.47489927,6.94139175 L16.5027286,6.94139175 C16.6180014,6.94139175 16.7114484,6.8479447 16.7114484,6.73267191 L16.7114484,6.73267191 L16.7114484,2.97571458 C16.7114484,2.86044178 16.6180014,2.76699472 16.5027286,2.76699472 L16.5027286,2.76699472 Z M3.14465808,3.81059398 C3.60574924,3.81059398 3.97953749,4.18438223 3.97953749,4.64547339 C3.97953749,5.10656456 3.60574924,5.4803528 3.14465808,5.4803528 C2.68356691,5.4803528 2.30977867,5.10656456 2.30977867,4.64547339 C2.30977867,4.18438223 2.68356691,3.81059398 3.14465808,3.81059398 Z" id="形状结合" fill="#FFFFFF" fill-rule="nonzero"></path>
                <rect id="矩形" x="0" y="0" width="18" height="18"></rect>
            </g>
        </g>
    </g>
</svg>