<?xml version="1.0" encoding="UTF-8"?>
<svg width="18px" height="18px" viewBox="0 0 18 18" version="1.1" xmlns="http://www.w3.org/2000/svg" xmlns:xlink="http://www.w3.org/1999/xlink">
    <title>direction</title>
    <g id="页面-1" stroke="none" stroke-width="1" fill="none" fill-rule="evenodd">
        <g id="图标3" transform="translate(-305.000000, -379.000000)">
            <g id="direction" transform="translate(305.000000, 379.000000)">
                <path d="M16.3333333,11.6666666 C16.6553231,11.6665593 16.9313752,11.8966027 16.9893333,12.2133333 L17.0000011,12.3333333 L17.0000011,16.3333333 C17.0006357,16.6786521 16.7374778,16.9672991 16.3935709,16.9985004 C16.0496641,17.0297016 15.7388551,16.7931282 15.6773333,16.4533333 L15.6666667,16.3333333 L15.6666667,12.3333333 C15.6666667,11.9651435 15.9651435,11.6666666 16.3333333,11.6666666 Z M1.66666667,0.999999962 C1.98865641,0.999999962 2.26470853,1.22993608 2.32266667,1.54666667 L2.33333448,1.66666667 L2.33333448,16.3333333 C2.33396903,16.6786521 2.07081115,16.9672991 1.72690427,16.9985004 C1.38299739,17.0297016 1.07218845,16.7931282 1.01066667,16.4533333 L1,16.3333333 L1,1.66666667 C1,1.29847683 1.29847683,0.999999962 1.66666667,0.999999962 Z M5.396,11.6666667 C6.76266667,11.6666667 8.08933333,12.1186667 9.16933333,12.9466667 L9.43333333,13.16 C10.236,13.848 11.2386667,14.2546667 12.288,14.3226667 L12.604,14.3333333 L13.6666667,14.3333333 C14.0119854,14.3326976 14.3006325,14.5958555 14.3318337,14.9397624 C14.3630349,15.2836693 14.1264615,15.5944782 13.7866667,15.656 L13.6666667,15.6666667 L12.604,15.6666667 C11.2397121,15.6663984 9.91353717,15.2165299 8.83066667,14.3866667 L8.56666667,14.1733333 C7.76601474,13.4870494 6.76430719,13.0790676 5.712,13.0106667 L5.396,13 L4.33333333,13 C3.98801456,13.0006357 3.69936753,12.7374778 3.6681663,12.3935709 C3.63696507,12.0496641 3.8735385,11.7388551 4.21333333,11.6773333 L4.33333333,11.6666667 L5.396,11.6666667 Z M13.6666667,6.33333218 C14.0119854,6.33269764 14.3006325,6.59585552 14.3318337,6.9397624 C14.3630349,7.28366928 14.1264615,7.59447821 13.7866667,7.656 L13.6666667,7.66666667 L12.604,7.66666667 C11.5466667,7.66666667 10.5213333,8.01066667 9.68,8.64133333 L9.43333333,8.84 C8.39750284,9.7276103 7.09805627,10.2491696 5.736,10.324 L5.396,10.3333322 L4.33333333,10.3333322 C3.98801456,10.333969 3.69936753,10.0708111 3.6681663,9.72690427 C3.63696507,9.38299739 3.8735385,9.07218845 4.21333333,9.01066667 L4.33333333,9 L5.396,9 C6.45333333,9 7.47866667,8.656 8.32,8.02533333 L8.56666667,7.82666667 C9.60249716,6.93905637 10.9019437,6.41749703 12.264,6.34266667 L12.604,6.33333218 L13.6666667,6.33333218 Z M16.3333333,0.999999962 C16.6553231,0.999892655 16.9313752,1.22993608 16.9893333,1.54666667 L17.0000011,1.66666667 L17.0000011,8.33333333 C17.0006357,8.67865211 16.7374778,8.96729914 16.3935709,8.99850036 C16.0496641,9.02970159 15.7388551,8.79312817 15.6773333,8.45333333 L15.6666667,8.33333333 L15.6666667,1.66666667 C15.6666667,1.29847683 15.9651435,0.999999962 16.3333333,0.999999962 Z M13.6666667,2.33333218 C14.0119854,2.33269764 14.3006325,2.59585552 14.3318337,2.9397624 C14.3630349,3.28366928 14.1264615,3.59447821 13.7866667,3.656 L13.6666667,3.66666667 L12.604,3.66666667 C11.5466667,3.66666667 10.5213333,4.01066667 9.68,4.64133333 L9.43333333,4.84 C8.39750284,5.7276103 7.09805627,6.24916963 5.736,6.324 L5.396,6.33333218 L4.33333333,6.33333218 C3.98801456,6.33396903 3.69936753,6.07081115 3.6681663,5.72690427 C3.63696507,5.38299739 3.8735385,5.07218845 4.21333333,5.01066667 L4.33333333,5 L5.396,5 C6.45333333,5 7.47866667,4.656 8.32,4.02533333 L8.56666667,3.82666667 C9.60249716,2.93905637 10.9019437,2.41749703 12.264,2.34266667 L12.604,2.33333218 L13.6666667,2.33333218 Z" id="形状" fill="#FFFFFF" fill-rule="nonzero"></path>
                <rect id="矩形" x="0" y="0" width="18" height="18"></rect>
            </g>
        </g>
    </g>
</svg>