<?xml version="1.0" encoding="UTF-8"?>
<svg width="18px" height="18px" viewBox="0 0 18 18" version="1.1" xmlns="http://www.w3.org/2000/svg" xmlns:xlink="http://www.w3.org/1999/xlink">
    <title>grading</title>
    <g id="页面-1" stroke="none" stroke-width="1" fill="none" fill-rule="evenodd">
        <g id="图标3" transform="translate(-305.000000, -529.000000)">
            <g id="grading" transform="translate(305.000000, 529.000000)">
                <path d="M5.03569277,17.9593373 C4.94212043,17.9593373 4.86626506,17.883482 4.86626506,17.7899096 L4.86626506,16.7733434 C4.86626506,16.679771 4.94212043,16.6039157 5.03569277,16.6039157 L6.365,16.603 L6.83922957,11.7935453 C6.86995529,11.4813324 7.10933187,11.2359364 7.41101207,11.1899794 L7.51367893,11.1822289 L8.3607116,11.1822289 L8.36,1.185 L4.86626506,1.18599398 C4.44519484,1.18599398 4.10384036,1.52734846 4.10384036,1.94841867 L4.10404841,2.34978132 C5.32709981,2.61653381 6.24286521,3.70566874 6.24286521,5.0087067 L6.24286521,5.0087067 L6.24235693,5.06167404 L5.565,5.061 L5.55996979,5.19853097 C5.48435641,6.27012371 4.59108868,7.11596386 3.50025414,7.11596386 C2.36320924,7.11596386 1.4408245,6.19694216 1.43537816,5.061177 L0.800508283,5.06167404 L0.800508283,5.06167404 L0.8,5.0087067 C0.8,3.71346924 1.70483396,2.62958146 2.91688497,2.35466027 L2.91784639,1.94841867 C2.91784639,0.872340926 3.79018731,5.82645043e-13 4.86626506,5.82645043e-13 L12.9987952,5.82645043e-13 C14.0748729,5.82645043e-13 14.9472139,0.872340926 14.9472139,1.94841867 L14.9481753,2.35466027 C16.1602263,2.62958146 17.0650602,3.71346924 17.0650602,5.0087067 C17.0650602,5.02639072 17.0648908,5.04405356 17.064552,5.06167404 L16.387,5.061 L16.3821648,5.19853097 C16.3065514,6.27012371 15.4132837,7.11596386 14.3224492,7.11596386 C13.1854043,7.11596386 12.2630195,6.19694216 12.2575732,5.061177 L11.6227033,5.06167404 L11.622195,5.0087067 L11.622195,5.0087067 C11.622195,3.70566874 12.5379604,2.61653381 13.7610118,2.34978132 L13.7612199,1.94841867 C13.7612199,1.52734846 13.4198654,1.18599398 12.9987952,1.18599398 L9.546,1.185 L9.54670557,11.1822289 L10.3523343,11.1822289 C10.7005083,11.1822289 10.992051,11.446049 11.026699,11.7925075 L11.026699,11.7925075 L11.507,16.603 L12.8717244,16.6039157 C12.9652967,16.6039157 13.0411521,16.679771 13.0411521,16.7733434 L13.0411521,17.7899096 C13.0411521,17.883482 12.9652967,17.9593373 12.8717244,17.9593373 L5.03569277,17.9593373 Z M9.89235928,12.3682229 L7.97437406,12.3682229 L7.557,16.603 L10.315,16.603 L9.89235928,12.3682229 Z M4.37910277,5.06123348 L2.622,5.061 L2.62819576,5.16131252 C2.68242959,5.59468347 3.05218301,5.92996988 3.50025414,5.92996988 C3.98227005,5.92996988 4.37365246,5.54195822 4.37910277,5.06123348 Z M15.2012978,5.06123348 L13.444,5.061 L13.4503908,5.16131252 C13.5046246,5.59468347 13.874378,5.92996988 14.3224492,5.92996988 C14.8044651,5.92996988 15.1958475,5.54195822 15.2012978,5.06123348 Z" id="形状结合" fill="#FFFFFF" fill-rule="nonzero"></path>
                <rect id="矩形" x="0" y="0" width="18" height="18"></rect>
            </g>
        </g>
    </g>
</svg>