<?xml version="1.0" encoding="UTF-8"?>
<svg width="18px" height="18px" viewBox="0 0 18 18" version="1.1" xmlns="http://www.w3.org/2000/svg" xmlns:xlink="http://www.w3.org/1999/xlink">
    <title>light</title>
    <g id="页面-1" stroke="none" stroke-width="1" fill="none" fill-rule="evenodd">
        <g id="图标3" transform="translate(-305.000000, -560.000000)">
            <g id="light" transform="translate(305.000000, 560.000000)">
                <path d="M15.8571429,10.7142857 L13.0285714,10.7142857 C12.4285714,12.3714286 10.8571429,13.5714286 9,13.5714286 C7.14285714,13.5714286 5.54285714,12.3714286 4.97142857,10.7142857 L2.14285714,10.7142857 C1.51428571,10.7142857 1,10.2 1,9.57142857 L1,9 C1,5.42857143 3.71428571,2.51428571 7.17142857,2.17142857 C7.48571429,1.48571429 8.2,1 9,1 C9.8,1 10.5142857,1.48571429 10.8285714,2.17142857 C14.2857143,2.51428571 17,5.42857143 17,9 L17,9.57142857 C17,10.2 16.4857143,10.7142857 15.8571429,10.7142857 Z M9,12.4285714 C10.2285714,12.4285714 11.2571429,11.7428571 11.8,10.7142857 L6.2,10.7142857 C6.74285714,11.7428571 7.77142857,12.4285714 9,12.4285714 Z M10.4,3.28571429 C10.2857143,2.62857143 9.68571429,2.14285714 9,2.14285714 C8.31428571,2.14285714 7.71428571,2.62857143 7.6,3.28571429 C4.57142857,3.42857143 2.14285714,5.94285714 2.14285714,9 C2.14285714,9.31428571 2.4,9.57142857 2.71428571,9.57142857 L15.2857143,9.57142857 C15.6,9.57142857 15.8571429,9.31428571 15.8571429,9 C15.8571429,5.94285714 13.4285714,3.42857143 10.4,3.28571429 Z M5.14285714,14.2285714 C5.31428571,13.9428571 5.65714286,13.8571429 5.91428571,14.0285714 C6.2,14.2 6.28571429,14.5428571 6.11428571,14.8 L5.4,16.0285714 C5.22857143,16.3142857 4.88571429,16.4 4.62857143,16.2285714 C4.34285714,16.0571429 4.25714286,15.7142857 4.42857143,15.4571429 L5.14285714,14.2285714 Z M9,14.4285714 C9.31428571,14.4285714 9.57142857,14.6857143 9.57142857,15 L9.57142857,16.4285714 C9.57142857,16.7428571 9.31428571,17 9,17 C8.68571429,17 8.42857143,16.7428571 8.42857143,16.4285714 L8.42857143,15 C8.42857143,14.6857143 8.68571429,14.4285714 9,14.4285714 Z M12.1142857,13.9142857 C12.3714286,13.7714286 12.6857143,13.8571429 12.8285714,14.1142857 L13.4857143,15.3142857 C13.6285714,15.5714286 13.5428571,15.9142857 13.2857143,16.0571429 C13.0285714,16.2 12.7142857,16.1142857 12.5714286,15.8571429 L11.9142857,14.6571429 C11.7714286,14.4285714 11.8571429,14.0857143 12.1142857,13.9142857 Z" id="形状" fill="#FFFFFF" fill-rule="nonzero"></path>
                <rect id="矩形" x="0" y="0" width="18" height="18"></rect>
            </g>
        </g>
    </g>
</svg>