<?xml version="1.0" encoding="UTF-8"?>
<svg width="18px" height="18px" viewBox="0 0 18 18" version="1.1" xmlns="http://www.w3.org/2000/svg" xmlns:xlink="http://www.w3.org/1999/xlink">
    <title>public</title>
    <g id="页面-1" stroke="none" stroke-width="1" fill="none" fill-rule="evenodd">
        <g id="图标3" transform="translate(-305.000000, -452.000000)">
            <g id="public" transform="translate(305.000000, 452.000000)">
                <path d="M9.10876718,0 C10.3417672,0 11.4667672,0.999 12.2767672,2.808 C12.335557,2.94063559 12.3922337,3.07664085 12.4467607,3.21581558 C12.595277,3.19313635 12.7430153,3.17422781 12.8887672,3.159 C14.8597672,2.952 16.2817672,3.429 16.9027672,4.5 C17.5237672,5.571 17.2177672,7.047 16.0567672,8.64 C15.970357,8.75908636 15.8798457,8.87799697 15.7853989,8.99659947 C15.8798457,9.11433813 15.970357,9.23263977 16.0567672,9.351 C17.2177672,10.953 17.5237672,12.42 16.9027672,13.491 C16.3807672,14.409 15.2827672,14.886 13.7617672,14.886 C13.4827672,14.886 13.1947672,14.868 12.8887672,14.841 C12.7430153,14.8257722 12.595277,14.8069221 12.4457641,14.7845203 C12.3922337,14.9233592 12.335557,15.0593644 12.2767672,15.192 C11.4667672,17.001 10.3417672,18 9.10876718,18 C7.87576718,18 6.75076718,17.001 5.94076718,15.192 C5.88197735,15.0593644 5.8253007,14.9233592 5.77077362,14.7841844 C5.6217386,14.8069883 5.47426316,14.8257989 5.32876718,14.841 C5.02276718,14.868 4.73476718,14.886 4.45576718,14.886 C2.93476718,14.886 1.83676718,14.409 1.31476718,13.5 C0.693767181,12.429 0.999767181,10.953 2.16076718,9.36 C2.24790764,9.23990727 2.33921872,9.11999329 2.43453075,9.00039378 C2.33972887,8.88067662 2.24815104,8.76042818 2.16076718,8.64 C0.999767181,7.047 0.693767181,5.571 1.31476718,4.5 C1.93576718,3.429 3.35776718,2.952 5.32876718,3.159 C5.47426316,3.17420107 5.6217386,3.19301174 5.77098278,3.21536178 C5.8253007,3.07664085 5.88197735,2.94063559 5.94076718,2.808 C6.75076718,0.999 7.87576718,0 9.10876718,0 Z M9.10884145,13.8124538 L8.82796718,13.92732 C8.17436186,14.1880668 7.52728497,14.3993841 6.90024655,14.5567685 C7.51458269,16.0197736 8.3354974,16.875 9.10876718,16.875 C9.88642343,16.875 10.7069332,16.0203098 11.3205035,14.5582736 C10.6033471,14.3778085 9.859108,14.1271165 9.10884145,13.8124538 Z M3.19331899,9.85934983 L3.06976718,10.026 L3.06976718,10.026 C2.19676718,11.232 1.90876718,12.294 2.28676718,12.942 C2.66476718,13.59 3.72676718,13.878 5.20276718,13.725 L5.40720423,13.6999619 C5.20397575,12.9858007 5.0491645,12.2137824 4.94642977,11.4040331 C4.29860085,10.9103904 3.70900121,10.3914832 3.19331899,9.85934983 Z M15.0220428,9.86014261 L14.8777474,10.0081494 C14.3976754,10.4883979 13.8580268,10.9567942 13.2706209,11.4038827 C13.1685595,12.2122876 13.01413,12.9829504 12.8114551,13.6960064 C14.3878868,13.8971514 15.5413677,13.6141777 15.9307672,12.942 C16.3206244,12.2690322 15.9876835,11.1269636 15.0220428,9.86014261 Z M6.22994132,12.2975818 L6.26052075,12.4474598 C6.33707467,12.814603 6.42496265,13.1633324 6.52241952,13.4919253 C6.90565484,13.3997881 7.29829339,13.2839964 7.69663703,13.1468095 C7.44615433,13.0163947 7.19671201,12.8788966 6.94876718,12.735 C6.70434095,12.5931455 6.46454519,12.4471897 6.22994132,12.2975818 Z M11.9888344,12.2972845 L11.6429989,12.512417 C11.5195367,12.5876602 11.3947672,12.661875 11.2687672,12.735 C11.0218155,12.8783202 10.7733782,13.0152932 10.5241999,13.1456708 C10.9296011,13.2842791 11.3216786,13.3982139 11.6976887,13.4887986 C11.8083047,13.1166814 11.9059771,12.7186391 11.9888344,12.2972845 Z M9.1094888,5.42540443 L8.92732718,5.50944 C8.46472718,5.72544 7.99276718,5.9706 7.51576718,6.246 C6.98721554,6.55200358 6.48211448,6.87790463 6.0072532,7.21831174 C5.95262488,7.78477135 5.92276718,8.37978444 5.92276718,9 C5.92276718,9.62493065 5.95324356,10.2242742 6.00965657,10.7936005 C6.4731307,11.1263342 6.9758907,11.4513934 7.51576718,11.763 C8.05469737,12.0740604 8.5866825,12.3463576 9.10572922,12.5815578 C9.63483534,12.3419457 10.166618,12.0676127 10.6927672,11.763 C11.2369691,11.4488969 11.7432927,11.1211247 12.2101786,10.7858988 C12.2646996,10.2194039 12.2947672,9.62239175 12.2947672,9 C12.2947672,8.37869634 12.2648046,7.78268366 12.209276,7.21631536 C11.7456732,6.88348669 11.2423253,6.558 10.7017672,6.246 C10.1739592,5.94042698 9.6404823,5.66603349 9.1094888,5.42540443 Z M4.81555936,8.15738832 L4.80602851,8.166576 C4.49141741,8.44104393 4.19768193,8.72106417 3.92777848,9.00428902 C4.19634436,9.28609191 4.4930744,9.57032039 4.8174947,9.85334424 C4.80389876,9.57158484 4.79776718,9.28681435 4.79776718,9 C4.79776718,8.71690174 4.8037409,8.43579472 4.81555936,8.15738832 Z M13.4019295,8.15730474 L13.4143885,8.53571733 C13.4179672,8.6898 13.4197672,8.8446 13.4197672,9 C13.4197672,9.28309826 13.4137935,9.56420528 13.401975,9.84261168 C13.7231798,9.56149634 14.0172766,9.27897992 14.2831208,8.99872581 C14.0174868,8.71941043 13.7233045,8.43776944 13.4019295,8.15730474 Z M4.45576718,4.239 C3.37576718,4.239 2.60176718,4.527 2.28676718,5.067 C1.89742105,5.73908559 2.22897918,6.87904281 3.19169712,8.14387578 C3.70719778,7.61010415 4.29761024,7.09036369 4.94627192,6.5966056 C5.04878521,5.78920711 5.20283337,5.01990022 5.40495533,4.30795024 C5.34007613,4.29866313 5.27570032,4.29094925 5.21176718,4.284 C4.94176718,4.248 4.68976718,4.239 4.45576718,4.239 Z M13.7527672,4.248 C13.4609131,4.248 13.1467041,4.2688445 12.8134609,4.31136371 C13.014937,5.02157079 13.1684284,5.78815184 13.2705953,6.59195606 C13.9175462,7.08383448 14.5065457,7.60250198 15.0218311,8.13329963 C15.9768592,6.87283673 16.3054304,5.7372551 15.9217672,5.067 C15.6247672,4.536 14.8417672,4.248 13.7527672,4.248 Z M6.51728026,4.51664222 L6.4985508,4.58176409 C6.39697895,4.93357601 6.30633607,5.30791229 6.22870001,5.70271547 C6.46386972,5.55322144 6.70399669,5.4070543 6.94876718,5.265 C7.19406373,5.12373547 7.44082596,4.98846687 7.6883243,4.85948603 C7.29127686,4.72404383 6.8995906,4.60922293 6.51728026,4.51664222 Z M11.7010133,4.52014217 L11.5560472,4.55472 C11.2267496,4.63842495 10.8857196,4.73972843 10.5352306,4.85919874 C10.7800385,4.98838016 11.0251258,5.12360099 11.2687672,5.265 C11.513214,5.4057752 11.7530297,5.55091702 11.9876525,5.69991202 C11.9060301,5.28225155 11.8095386,4.88858931 11.7010133,4.52014217 Z M9.10876718,1.125 C8.33086704,1.125 7.51008647,1.98022636 6.89645359,3.44310221 C7.61578239,3.62259129 8.36173361,3.87399784 9.11369384,4.18964447 C9.86276199,3.87547476 10.6056306,3.62413242 11.3222692,3.44348211 C10.7076886,1.98047718 9.88678139,1.125 9.10876718,1.125 Z" id="形状结合" fill="#FFFFFF" fill-rule="nonzero"></path>
                <rect id="矩形" x="0" y="0" width="18" height="18"></rect>
            </g>
        </g>
    </g>
</svg>