<?xml version="1.0" encoding="UTF-8"?>
<svg width="19px" height="19px" viewBox="0 0 19 19" version="1.1" xmlns="http://www.w3.org/2000/svg" xmlns:xlink="http://www.w3.org/1999/xlink">
    <title>编组</title>
    <g id="页面-1" stroke="none" stroke-width="1" fill="none" fill-rule="evenodd">
        <g id="图标组1" transform="translate(-1541, -499)">
            <g id="编组" transform="translate(1543.0417, 498.1667)">
                <path d="M12.7193713,1.54506935 C13.1702394,1.54506935 13.602641,1.72417598 13.9214529,2.04298782 C14.2402647,2.36179967 14.4193713,2.79420133 14.4193713,3.24506936 L14.4193713,8.15499581 L14.465815,8.18444953 C14.5941356,8.26582798 14.711572,8.36321429 14.8184579,8.47749908 C15.1410824,8.79296845 15.3250518,9.22375978 15.3298349,9.67496329 C15.334618,10.1261668 15.1598223,10.5607613 14.8439579,10.8829991 L14.4486606,11.2782893 L14.4151307,11.3118192 L14.4198726,11.359 C14.4234148,11.3942446 14.4234148,11.4297554 14.4198726,11.465 L14.4193713,11.475 L14.4193713,16.2 C14.4193713,16.650868 14.2402647,17.0832697 13.9214529,17.4020815 C13.602641,17.7208934 13.1702394,17.9 12.7193713,17.9 L1.60827404,17.9 C1.157406,17.9 0.72500434,17.7208934 0.406192497,17.4020815 C0.0873806537,17.0832697 -0.0917259726,16.650868 -0.0917259726,16.2 L-0.0917259726,3.24506936 C-0.0917259726,2.79420132 0.0873806537,2.36179966 0.406192497,2.04298782 C0.72500434,1.72417597 1.157406,1.54506935 1.60827404,1.54506935 L12.7193713,1.54506935 Z M1.05827403,7.10000001 L1.05827403,16.2 C1.05827403,16.3458691 1.11622029,16.4857637 1.21936529,16.5889087 C1.3225103,16.6920537 1.46240496,16.75 1.60827404,16.75 L12.7193713,16.75 C12.8652404,16.75 13.0051351,16.6920537 13.1082801,16.5889087 C13.2114251,16.4857637 13.2693713,16.3458691 13.2693713,16.2 L13.2693713,12.4469859 L13.1002534,12.6087317 L10.3908777,15.2 L7.98399998,15.2 L7.98399998,12.7952169 L12.4201179,8.47766184 C12.6352647,8.26708493 12.9021774,8.11749647 13.193819,8.04396551 L13.2693713,8.02491667 L13.2693713,7.10000001 L1.05827403,7.10000001 Z M13.2289016,9.29439273 L9.16434932,13.239245 L9.13399999,13.2687042 L9.13399999,14.05 L9.90455233,14.05 L9.93365067,14.021755 L14.004022,10.070755 C14.1567315,9.94207109 14.2265326,9.73154479 14.1796171,9.53033875 C14.1327016,9.32913271 13.9769843,9.17119086 13.7764639,9.12142625 C13.5759435,9.07166164 13.3644484,9.13846969 13.2289016,9.29439273 Z M3.375,12.7 L5.62500001,12.7 C5.94256373,12.7 6.2,12.9574363 6.2,13.275 C6.2,13.5925637 5.94256373,13.85 5.625,13.85 L3.375,13.85 C3.05743627,13.85 2.8,13.5925637 2.8,13.275 C2.8,12.9574363 3.05743627,12.7 3.375,12.7 Z M3.375,9.1 L8.325,9.1 C8.64256373,9.1 8.9,9.35743627 8.9,9.675 C8.9,9.99256373 8.64256373,10.25 8.325,10.25 L3.375,10.25 C3.05743627,10.25 2.8,9.99256373 2.8,9.675 C2.8,9.35743627 3.05743627,9.1 3.375,9.1 Z M1.60827404,2.69506935 C1.46240496,2.69506935 1.3225103,2.75301561 1.21936529,2.85616062 C1.11622029,2.95930562 1.05827403,3.09920028 1.05827403,3.24506936 L1.05827403,5.95 L13.2693713,5.95 L13.2693713,3.24506936 C13.2693713,3.09920029 13.2114251,2.95930563 13.1082801,2.85616062 C13.0051351,2.75301561 12.8652404,2.69506935 12.7193713,2.69506935 L1.60827404,2.69506935 Z" id="形状结合" fill="#FFFFFF" fill-rule="nonzero"></path>
                <rect id="矩形-2" x="-2" y="1" width="18" height="18"></rect>
            </g>
        </g>
    </g>
</svg>