<?xml version="1.0" encoding="UTF-8"?>
<svg width="18px" height="18px" viewBox="0 0 18 18" version="1.1" xmlns="http://www.w3.org/2000/svg" xmlns:xlink="http://www.w3.org/1999/xlink">
    <title>region</title>
    <g id="页面-1" stroke="none" stroke-width="1" fill="none" fill-rule="evenodd">
        <g id="图标3" transform="translate(-305.000000, -200.000000)" fill="#FFFFFF" fill-rule="nonzero">
            <g id="region" transform="translate(305.000000, 200.000000)">
                <path d="M6.56753511,0.0804564607 L6.54933287,0.0703441011 C6.53077927,0.0563013594 6.50875906,0.0475631804 6.485625,0.0450632022 L6.48360253,0.0450632022 C6.47537627,0.0409149659 6.46693767,0.0372019789 6.45832163,0.0339396067 C6.44155645,0.0273917909 6.42373531,0.0239646478 6.40573736,0.0238272472 L6.18528792,0.0238272472 C6.15581182,0.024236072 6.12705714,0.0330027426 6.10236657,0.0491081461 C6.07674066,0.0542575693 6.05338821,0.0673490926 6.035625,0.0865238764 L0.301917135,3.17483848 C0.118468567,3.25775602 0.000853102993,3.44071341 0.00157670551,3.64202949 L0.00157670551,17.3574228 C0.00157670551,17.5434902 0.10573736,17.7336025 0.272591292,17.8205688 C0.353490169,17.8731531 0.438433989,17.9004565 0.545625,17.9004565 C0.629701004,17.8987822 0.712581061,17.8802116 0.789332865,17.8458497 L0.792366573,17.8438272 L6.27326545,14.8839396 L10.0927037,17.0449508 L10.1554003,17.0874228 L10.1594452,17.0894452 L10.1624789,17.0914677 C10.3809059,17.2229284 10.6064115,17.3574228 10.8541643,17.4706812 L10.8966362,17.4909059 L10.9209059,17.5050632 L10.9229284,17.5060744 L10.9522542,17.5222542 C10.9771838,17.534962 11.0042869,17.5428528 11.0321419,17.5455126 C11.6396252,17.7762066 12.283466,17.8964131 12.9332654,17.9004565 C15.6735053,17.8921249 17.8926827,15.6724957 17.9004571,12.9322542 L17.9004571,0.545625 C17.9007463,0.353532313 17.7970533,0.17632563 17.6294452,0.0824789326 C17.4630232,-0.0244660964 17.2494026,-0.0240705025 17.0833778,0.0834901685 L11.8269733,3.01809691 L6.56753511,0.0804564607 Z M1.08764747,16.4574228 L1.08764747,3.96865871 L5.75247893,1.44461376 L5.75247893,13.9333778 L1.08764747,16.4574228 Z M6.83955758,13.9354003 L6.83955758,1.46989466 L11.2819171,3.96663624 L11.2819171,8.25933287 C9.29560654,8.95403187 7.96507792,10.8279644 7.96405197,12.9322542 C7.96405197,13.5946138 8.09854635,14.204389 8.32202949,14.7777598 L6.83955758,13.9354003 Z M12.931243,16.8133778 C12.3830645,16.8089415 11.8416442,16.6919148 11.3405688,16.4695576 L10.7287711,16.1206812 C9.67933259,15.3988198 9.05204002,14.2070017 9.05113062,12.9332654 C9.05779266,10.7925457 10.7915344,9.05880389 12.9322542,9.05214185 C15.0725791,9.05935861 16.8057076,10.7929388 16.8123666,12.9332654 C16.8051529,15.0731972 15.072186,16.8061642 12.9322542,16.8133778 L12.931243,16.8133778 Z M12.931243,7.9650632 C12.7431531,7.9650632 12.554052,7.98124298 12.3689958,7.99843399 L12.3689958,3.96663624 L16.8123666,1.46989466 L16.8123666,9.84191713 C15.8727997,8.65743578 14.4441339,7.96637411 12.9322542,7.9650632 L12.931243,7.9650632 Z" id="形状"></path>
                <path d="M11.1214747,13.6229925 L12.5697105,13.6229925 L12.0339321,15.6525868 C12.0227521,15.7024666 12.045972,15.7532065 12.0906919,15.7781464 C12.1139118,15.7893695 12.1250918,15.7893695 12.1474517,15.7893695 C12.1775517,15.7901864 12.2067916,15.7781464 12.2274315,15.7557865 L14.9648037,12.7905149 C14.9992036,12.756975 15.0112436,12.7105351 14.9880237,12.6640953 C14.9768437,12.6193754 14.9312638,12.5970155 14.8848239,12.5970155 L13.4133681,12.5970155 L14.520185,11.1926395 C14.5468449,11.1565196 14.5511449,11.1083597 14.531365,11.0670798 C14.508145,11.0214999 14.4746051,11 14.4281652,11 L12.3753511,11 C12.3332112,11 12.2936513,11.0214999 12.2721514,11.0576198 L11.017415,13.452713 C10.994195,13.4871129 10.994195,13.5318328 11.017415,13.5662327 C11.0389149,13.6023526 11.0784748,13.6247125 11.1206147,13.6238525 L11.1214747,13.6229925 Z" id="路径"></path>
            </g>
        </g>
    </g>
</svg>