<?xml version="1.0" encoding="UTF-8"?>
<svg width="18px" height="18px" viewBox="0 0 18 18" version="1.1" xmlns="http://www.w3.org/2000/svg" xmlns:xlink="http://www.w3.org/1999/xlink">
    <title>time</title>
    <g id="页面-1" stroke="none" stroke-width="1" fill="none" fill-rule="evenodd">
        <g id="图标3" transform="translate(-305.000000, -235.000000)" fill="#FFFFFF" fill-rule="nonzero">
            <g id="time" transform="translate(305.000000, 235.000000)">
                <path d="M13.3934105,8.85026171 C11.5574315,8.85110785 9.90278928,9.9579651 9.20119514,11.6546046 C8.49960101,13.3512441 8.88925612,15.3034589 10.1884286,16.6007525 C11.4876011,17.8980461 13.4403778,18.2848754 15.1360001,17.5808265 C16.8316224,16.8767776 17.9360838,15.2205352 17.934275,13.3845568 C17.9299925,10.8795459 15.898425,8.85091658 13.3934105,8.85026171 L13.3934105,8.85026171 Z M13.3934105,16.9128892 C11.4467261,16.9132181 9.86823656,15.3356185 9.86746751,13.3889341 C9.86669902,11.4422498 11.443942,9.86340391 13.3906261,9.86219465 C15.3373103,9.86098677 16.9165124,11.437873 16.9181608,13.3845568 C16.9181608,15.3318029 15.3406556,16.9109123 13.3934105,16.9128892 L13.3934105,16.9128892 Z M15.402948,13.9129112 L13.586842,13.9129112 L13.586842,11.6174056 C13.5913009,11.43398 13.4959936,11.2625469 13.3378439,11.1695227 C13.1796942,11.0764985 12.9835494,11.0764985 12.8253997,11.1695227 C12.6672499,11.2625469 12.5719426,11.43398 12.5764016,11.6174056 L12.5764016,14.4233552 C12.576731,14.702065 12.8027625,14.9278314 13.0814725,14.9278314 L15.4047391,14.9278314 C15.53923,14.9282317 15.6682938,14.8748197 15.7631691,14.7794958 C15.8580444,14.684172 15.910847,14.5548576 15.909825,14.4203701 C15.9088296,14.1407481 15.6825687,13.9142207 15.402948,13.9129112 L15.402948,13.9129112 Z M8.41374557,16.3666245 L1.40125968,16.3666245 C1.30512491,16.3670211 1.21277867,16.3291708 1.14457694,16.261417 C1.0763752,16.1936632 1.0379172,16.1015684 1.03768025,16.0054331 L1.03768025,8.00250673 C1.0379172,7.90637144 1.07637521,7.81427663 1.14457694,7.74652286 C1.21277868,7.67876909 1.30512492,7.64091879 1.40125968,7.64131536 L14.724147,7.64131536 C15.0023675,7.63805512 15.2264675,7.41209433 15.2274269,7.1338564 L15.2274269,1.82941768 C15.2317049,1.63665437 15.1570543,1.45050911 15.0207729,1.31411495 C14.8844915,1.17772079 14.698408,1.10291629 14.5056412,1.10703493 L11.5179019,1.10703493 L11.5179019,0.524949644 C11.5179356,0.343629579 11.4212218,0.176068526 11.2641996,0.0853987739 C11.1071775,-0.00527097772 10.9137084,-0.00527097772 10.7566863,0.0853987739 C10.5996641,0.176068526 10.5029503,0.343629579 10.502984,0.524949644 L10.502984,1.10703493 L4.33586502,1.10703493 L4.33586502,0.524949644 C4.33589868,0.343629579 4.23918491,0.176068526 4.08216274,0.0853987739 C3.92514056,-0.00527097772 3.73167155,-0.00527097772 3.57464937,0.0853987739 C3.4176272,0.176068526 3.32091343,0.343629579 3.32094709,0.524949644 L3.32094709,1.10703493 L0.883054513,1.10703493 C0.647113297,1.08233333 0.412666706,1.16572816 0.245325616,1.33388102 C0.077984525,1.50203389 -0.00427478363,1.7368813 0.0215683069,1.97270022 L0.0215683069,16.5188622 C0.00914003543,16.7517741 0.0964512463,16.9789637 0.261663728,17.1436065 C0.426876209,17.3082492 0.654366023,17.3947752 0.887233594,17.3815424 L8.40956649,17.3815424 C8.68982833,17.3828653 8.91796096,17.1564349 8.91911498,16.876173 C8.920269,16.5959112 8.69400741,16.3677785 8.41374557,16.3666245 Z M1.03768025,2.48314423 C1.03800775,2.28238382 1.20050008,2.11962468 1.40125968,2.11896779 L3.32333513,2.11896779 L3.32333513,3.40851059 C3.32330146,3.58983065 3.42001523,3.75739171 3.57703741,3.84806146 C3.73405958,3.93873121 3.9275286,3.93873121 4.08455077,3.84806146 C4.24157295,3.75739171 4.33828672,3.58983065 4.33825306,3.40851059 L4.33825306,2.11896779 L10.505372,2.11896779 L10.505372,3.40851059 C10.5053384,3.58983065 10.6020521,3.75739171 10.7590743,3.84806146 C10.9160965,3.93873121 11.1095655,3.93873121 11.2665877,3.84806146 C11.4236098,3.75739171 11.5203236,3.58983065 11.5202899,3.40851059 L11.5202899,2.11896779 L13.8525116,2.11896779 C14.0532713,2.11962468 14.2157636,2.28238382 14.2160911,2.48314423 L14.2160911,6.26222099 C14.2157636,6.4629814 14.0532713,6.62574054 13.8525116,6.62639743 L1.40484174,6.62639743 C1.20408213,6.62574054 1.04158981,6.4629814 1.04126231,6.26222099 L1.04126231,2.48314423 L1.03768025,2.48314423 Z" id="形状"></path>
            </g>
        </g>
    </g>
</svg>