<svg xmlns="http://www.w3.org/2000/svg" width="320" height="160" viewBox="0 0 320 160">
  <g id="组_835" data-name="组 835" transform="translate(-3988 -210)">
    <g id="矩形_1063" data-name="矩形 1063" transform="translate(3988 210)" fill="#e4e4e4" stroke="#707070" stroke-width="1">
      <rect width="320" height="160" stroke="none"/>
      <rect x="0.5" y="0.5" width="319" height="159" fill="none"/>
    </g>
    <g id="组_546" data-name="组 546" transform="translate(4288.5 283)">
      <g id="矩形_1012" data-name="矩形 1012" fill="#868688" stroke="#707070" stroke-width="0.2">
        <rect width="8" height="14" rx="2" stroke="none"/>
        <rect x="0.1" y="0.1" width="7.8" height="13.8" rx="1.9" fill="none"/>
      </g>
      <g id="椭圆_103" data-name="椭圆 103" transform="translate(1 4)" fill="#363636" stroke="#9b9b9b" stroke-width="0.6">
        <circle cx="3" cy="3" r="3" stroke="none"/>
        <circle cx="3" cy="3" r="2.7" fill="none"/>
      </g>
    </g>
    <g id="组_638" data-name="组 638" transform="translate(4174 260) rotate(90)">
      <g id="椭圆_1" data-name="椭圆 1" transform="translate(52 0) rotate(90)" fill="#f1f1f1" stroke="#707070" stroke-width="0.2">
        <circle cx="26" cy="26" r="26" stroke="none"/>
        <circle cx="26" cy="26" r="25.9" fill="none"/>
      </g>
      <circle id="椭圆_2" data-name="椭圆 2" cx="18" cy="18" r="18" transform="translate(44 8) rotate(90)" fill="#b9b9b9"/>
      <rect id="矩形_12" data-name="矩形 12" width="61" height="14" rx="6" transform="translate(0 19)" fill="#272727"/>
      <path id="多边形_1" data-name="多边形 1" d="M2.244,0,4.487,5.609H0Z" transform="translate(2.141 28.451) rotate(-90)" fill="#fff"/>
      <ellipse id="椭圆_3" data-name="椭圆 3" cx="2.332" cy="2.332" rx="2.332" ry="2.332" transform="translate(23.699 23.964)" fill="#fff"/>
    </g>
  </g>
</svg>
