<svg t="1733189859874" class="icon" viewBox="0 0 1031 1024" version="1.1" xmlns="http://www.w3.org/2000/svg" p-id="19311" width="32" height="32"><path d="M515.2 768c-6.4 0-19.2-6.4-25.6-12.8l-480-512c-12.8-12.8-12.8-32 0-44.8 12.8-12.8 32-12.8 44.8 0l480 512c12.8 12.8 12.8 32 0 44.8C534.4 768 528 768 515.2 768z" fill="#ffffff" p-id="19312"></path><path d="M515.2 768c-6.4 0-12.8 0-19.2-6.4-12.8-12.8-12.8-32 0-44.8l480-505.6c12.8-12.8 32-12.8 44.8 0 12.8 12.8 12.8 32 0 44.8l-480 505.6C534.4 761.6 528 768 515.2 768z" fill="#ffffff" p-id="19313"></path></svg>