<svg t="1741221643326" class="icon" viewBox="0 0 1024 1024" version="1.1" xmlns="http://www.w3.org/2000/svg" p-id="8099" width="58" height="58"><path d="M512 512m-512 0a512 512 0 1 0 1024 0 512 512 0 1 0-1024 0Z" fill="#ED4027" opacity=".8" p-id="8100"></path><path d="M712.045714 311.954286c11.922286 11.995429 11.922286 29.842286 0 38.765714L550.765714 512l161.206857 161.206857c11.922286 11.922286 11.922286 29.842286 0 38.765714-11.995429 11.995429-29.842286 11.995429-38.765714 0L512 550.912 350.793143 712.045714c-11.922286 11.922286-29.842286 11.922286-38.765714 0-11.995429-11.995429-11.995429-29.842286 0-38.765714L473.088 512 311.954286 350.793143c-11.922286-11.922286-11.922286-29.842286 0-38.765714 11.995429-8.996571 29.842286-11.995429 38.765714 0L512 473.088l161.206857-161.206857c8.996571-11.922286 29.842286-11.922286 38.765714 0z" fill="#FFFFFF" p-id="8101"></path></svg>