<svg xmlns="http://www.w3.org/2000/svg" xmlns:xlink="http://www.w3.org/1999/xlink" width="8.974" height="8.974" viewBox="0 0 8.974 8.974">
  <defs>
    <radialGradient id="radial-gradient" cx="0.5" cy="0.5" r="0.5" gradientUnits="objectBoundingBox">
      <stop offset="0" stop-color="#12ee27"/>
      <stop offset="1" stop-color="#005c09"/>
    </radialGradient>
  </defs>
  <g id="组_833" data-name="组 833" transform="translate(-3644.28 -1168.679)">
    <g id="路径_69" data-name="路径 69" transform="translate(3644.28 1168.679)" fill="#06a717">
      <path d="M 4.487046718597412 8.774096488952637 C 2.123156785964966 8.774096488952637 0.1999967247247696 6.850936889648438 0.1999967247247696 4.487046718597412 C 0.1999967247247696 2.123156785964966 2.123156785964966 0.1999967247247696 4.487046718597412 0.1999967247247696 C 6.850936889648438 0.1999967247247696 8.774096488952637 2.123156785964966 8.774096488952637 4.487046718597412 C 8.774096488952637 6.850936889648438 6.850936889648438 8.774096488952637 4.487046718597412 8.774096488952637 Z" stroke="none"/>
      <path d="M 4.487046718597412 0.3999967575073242 C 2.233436584472656 0.3999967575073242 0.3999967575073242 2.233436584472656 0.3999967575073242 4.487046718597412 C 0.3999967575073242 6.740656852722168 2.233436584472656 8.5740966796875 4.487046718597412 8.5740966796875 C 6.740656852722168 8.5740966796875 8.5740966796875 6.740656852722168 8.5740966796875 4.487046718597412 C 8.5740966796875 2.233436584472656 6.740656852722168 0.3999967575073242 4.487046718597412 0.3999967575073242 M 4.487046718597412 -2.86102294921875e-06 C 6.965176582336426 -2.86102294921875e-06 8.974096298217773 2.008916854858398 8.974096298217773 4.487046718597412 C 8.974096298217773 6.965176582336426 6.965176582336426 8.974096298217773 4.487046718597412 8.974096298217773 C 2.008916854858398 8.974096298217773 -2.86102294921875e-06 6.965176582336426 -2.86102294921875e-06 4.487046718597412 C -2.86102294921875e-06 2.008916854858398 2.008916854858398 -2.86102294921875e-06 4.487046718597412 -2.86102294921875e-06 Z" stroke="none" fill="#007710"/>
    </g>
    <circle id="椭圆_127" data-name="椭圆 127" cx="3.5" cy="3.5" r="3.5" transform="translate(3645.267 1169.666)" fill="url(#radial-gradient)"/>
  </g>
</svg>
