<svg t="1740986192567" class="icon" viewBox="0 0 1024 1024" version="1.1" xmlns="http://www.w3.org/2000/svg" p-id="22919" width="32" height="32"><path d="M511.89056469 992a486.66186 486.66186 0 0 1-96.69965907-9.73675219 480.79168781 480.79168781 0 0 1-242.7743775-130.81930125 41.13807094 41.13807094 0 0 1 58.16274188-58.16274187 396.48852 396.48852 0 0 0 201.12076125 108.45172031 404.09279437 404.09279437 0 0 0 160.3341975 0A396.79315969 396.79315969 0 0 0 909.48047375 512.07536281a406.57677938 406.57677938 0 0 0-8.01436594-80.17881562 399.39431344 399.39431344 0 0 0-23.17604812-74.4843975 393.98110125 393.98110125 0 0 0-36.70908-67.61828719 396.3479175 396.3479175 0 0 0-249.57018469-167.23545844 404.09279437 404.09279437 0 0 0-160.3341975 0 393.59444344 393.59444344 0 0 0-142.09096781 59.75624157 399.67551938 399.67551938 0 0 0-58.90090782 48.55487531 407.67816938 407.67816938 0 0 0-48.56659218 58.87747312A396.73457531 396.73457531 0 0 0 122.22128563 431.93169781a403.53038344 403.53038344 0 0 0-7.95578157 72.410505h127.06989l107.20972688-283.18600031a41.11463719 41.11463719 0 0 1 78.65561718 5.76472031l91.555935 421.96108219 112.04881125-278.33519906a41.14978781 41.14978781 0 0 1 74.2969275-4.35869063l75.52720219 138.63448031 61.75983281-0.52726031h0.33979032a41.12635406 41.12635406 0 0 1 0.28120593 82.25270813l-86.37706125 0.72644906h-0.33979031a41.00918531 41.00918531 0 0 1-36.08808281-21.40679531l-45.69594938-83.74075594L545.06113625 803.82642406c-6.72550594 16.75518188-23.00029406 26.94889312-41.61846375 25.67175a41.2669575 41.2669575 0 0 1-36.7559475-32.29180406l-90.45454594-416.92281094-68.05181344 179.83113563a41.12635406 41.12635406 0 0 1-38.43146531 26.58566906H75.62313406a41.16150469 41.16150469 0 0 1-41.00918531-37.9510725L32.012795 515.25064625a484.42393031 484.42393031 0 0 1 9.65473406-99.81635719 479.64343125 479.64343125 0 0 1 72.22303407-171.69960094A479.15132062 479.15132062 0 0 1 243.49130469 114.098795 479.33879156 479.33879156 0 0 1 415.09716969 41.82889438a480.83855625 480.83855625 0 0 1 283.61952562 27.97998093 479.52626156 479.52626156 0 0 1 81.49110938 44.28991969A480.65108531 480.65108531 0 0 1 909.86713156 243.75812281 480.00665531 480.00665531 0 0 1 608.59022281 982.31011531a491.21973844 491.21973844 0 0 1-96.69965812 9.68988469z" fill="#ffffff" p-id="22920"></path></svg>