<svg t="1740982995143" class="icon" viewBox="0 0 1024 1024" version="1.1" xmlns="http://www.w3.org/2000/svg" p-id="12551" width="32" height="32"><path d="M512 960C265 960 64 759 64 512S265 64 512 64s448 201 448 448-201 448-448 448z m0-853.3c-223.5 0-405.3 181.8-405.3 405.3S288.5 917.3 512 917.3 917.3 735.5 917.3 512 735.5 106.7 512 106.7z" fill="#ffffff" p-id="12552"></path><path d="M746 783.4c-4.3 0-8.6-1.8-11.8-5.2-6-6.5-5.5-16.6 1-22.6 68.1-62.5 107.1-151.3 107.1-243.6 0-8.8 7.2-16 16-16s16 7.2 16 16c0 101.3-42.8 198.6-117.4 267.2-3.2 2.8-7 4.2-10.9 4.2zM512.2 874.4c-39.9 0-79.1-6.4-116.6-19.2-8.4-2.8-12.9-11.9-10-20.3 2.8-8.4 11.9-12.9 20.3-10 74.4 25.3 157.8 22.9 230.7-6.9 8.1-3.3 17.5 0.6 20.9 8.8 3.3 8.2-0.6 17.5-8.8 20.9-43.4 17.8-89.3 26.7-136.5 26.7zM298.8 801c-3.4 0-6.9-1.1-9.8-3.4-88.5-69.3-139.2-173.4-139.2-285.6 0-8.8 7.2-16 16-16s16 7.2 16 16c0 102.3 46.3 197.2 126.9 260.4 7 5.5 8.2 15.5 2.8 22.5-3.2 4-7.9 6.1-12.7 6.1z" fill="#ffffff" p-id="12553"></path><path d="M344.4 739c-3.5 0-7-1.1-10-3.5-68.5-54.5-107.9-136-107.9-223.5 0-8.8 7.2-16 16-16s16 7.2 16 16c0 77.7 34.9 150.1 95.8 198.5 6.9 5.5 8.1 15.6 2.6 22.5-3.1 4-7.8 6-12.5 6zM512.2 797.6c-24.6 0-49.1-3.1-72.7-9.3-8.5-2.3-13.7-11-11.4-19.5 2.3-8.5 11.2-13.5 19.5-11.4 49.7 13 103.6 10.6 151.9-7.3 8.4-3 17.5 1.2 20.6 9.5 3 8.3-1.2 17.5-9.5 20.6-31.5 11.5-64.6 17.4-98.4 17.4zM702.4 718.7c-4.1 0-8.2-1.6-11.3-4.7-6.3-6.3-6.3-16.4 0-22.6 48-47.9 74.4-111.6 74.4-179.4 0-8.8 7.2-16 16-16s16 7.2 16 16c0 76.3-29.7 148.1-83.7 202.1-3.2 3.1-7.3 4.6-11.4 4.6zM386 671c-3.8 0-7.5-1.3-10.6-4-44.5-39.3-70-95.8-70-155 0-8.8 7.2-16 16-16s16 7.2 16 16c0 50.1 21.5 97.9 59.1 131 6.6 5.9 7.3 16 1.4 22.6-3 3.6-7.5 5.4-11.9 5.4zM512.2 718.7c-14.6 0-29.2-1.5-43.3-4.5-8.6-1.8-14.2-10.3-12.3-19 1.8-8.6 10.4-14.3 19-12.3 30.8 6.6 63.8 4.6 93.7-5.8 8.5-2.8 17.5 1.5 20.4 9.9 2.9 8.4-1.5 17.5-9.9 20.4-21.8 7.5-44.5 11.3-67.6 11.3zM656 652.8c-3.7 0-7.4-1.3-10.5-3.9-6.7-5.8-7.4-15.9-1.6-22.6 27.4-31.8 42.6-72.4 42.6-114.4 0-8.8 7.2-16 16-16s16 7.2 16 16c0 49.7-17.9 97.8-50.4 135.3-3.1 3.7-7.6 5.6-12.1 5.6z" fill="#ffffff" p-id="12554"></path><path d="M512 512m-48.5 0a48.5 48.5 0 1 0 97 0 48.5 48.5 0 1 0-97 0Z" fill="#ffffff" p-id="12555"></path></svg>