<svg class="icon" viewBox="0 0 1152 1024" version="1.1" xmlns="http://www.w3.org/2000/svg" p-id="4854" height="128" width="128"><path d="M1128.412737 850.821412L676.458861 71.517765c-55.294272-95.35702-145.659448-95.35702-200.953721 0L23.67926 850.821412C-31.67901 946.178432 13.567576 1024 123.964126 1024h904.035749c110.460548 0 155.643136-77.821568 100.412862-173.178588z" fill="#FF5B5B" p-id="4855"></path><path d="M639.980001 320.021999v319.990001c0 42.686666-21.311334 63.998-63.998 63.998s-63.998-21.311334-63.998001-63.998V320.021999c0-42.686666 21.311334-63.998 63.998001-63.998s63.998 21.311334 63.998 63.998z m-127.996001 511.984001a63.998 63.998 0 1 1 127.996001 0 63.998 63.998 0 0 1-127.996001 0z" fill="#FFFFFF" p-id="4856"></path></svg>