<?xml version="1.0" encoding="UTF-8"?>
<svg width="33px" height="33px" viewBox="0 0 33 33" version="1.1" xmlns="http://www.w3.org/2000/svg" xmlns:xlink="http://www.w3.org/1999/xlink">
    <title>光伏 (5)</title>
    <g id="页面-1" stroke="none" stroke-width="1" fill="none" fill-rule="evenodd">
        <g id="卡片样式二备份" transform="translate(-560.000000, -486.000000)">
            <g id="光伏-(5)" transform="translate(560.000000, 486.000000)">
                <path d="M25.5061172,2.00758241 C27.0667598,2.00758241 28.3944706,3.14894788 28.6254612,4.69406165 L30.9547785,20.2228435 C31.0909579,21.1309112 30.8246862,22.0532444 30.2254894,22.7490138 C29.6262925,23.4447831 28.7536566,23.8449151 27.8354344,23.8449318 L17.7126098,23.8449318 L17.7126098,29.1829506 L30.9936674,29.1829506 C31.6636915,29.1829506 32.2068534,29.7261125 32.2068534,30.3961366 C32.2068534,31.0661608 31.6636915,31.6093227 30.9936674,31.6093227 L2.0090623,31.6093227 C1.33903814,31.6093227 0.795876228,31.0661608 0.795876228,30.3961366 C0.795876228,29.7261125 1.33903814,29.1829506 2.0090623,29.1829506 L15.2862377,29.1829506 L15.2862377,29.1829506 L15.2862377,23.8449318 L5.16729523,23.8449318 C4.24907309,23.8449151 3.37643717,23.4447831 2.7772403,22.7490138 C2.17804342,22.0532444 1.91177176,21.1309112 2.04795117,20.2228435 L4.37726845,4.69406165 C4.60883268,3.14995144 5.93523541,2.00758241 7.49661248,2.00758241 L25.5061172,2.00758241 Z M15.2862377,14.1394432 L5.41381464,14.1394432 L4.44714797,20.5838876 C4.41609752,20.7933058 4.47775856,21.0058663 4.61605719,21.1661585 C4.75435581,21.3264507 4.95558765,21.4185597 5.16729523,21.4185597 L15.2862377,21.4185597 L15.2862377,14.1394432 Z M17.7126098,14.1394432 L17.7126098,21.4185597 L27.8354344,21.4185597 C28.0468029,21.4180273 28.2475021,21.3256449 28.3853659,21.1654248 C28.5232297,21.0052047 28.5846421,20.792971 28.5536406,20.5838876 L27.5869739,14.1394432 L17.7126098,14.1394432 Z M7.49661248,4.43395456 C7.13652751,4.43486191 6.83121782,4.69891355 6.77840635,5.05510585 L5.77679991,11.713071 L15.2881787,11.713071 L15.2881787,4.43395456 L7.49661248,4.43395456 Z M17.7126098,4.43395455 L17.7126098,11.713071 L27.2239887,11.713071 L26.2262644,5.05510585 C26.1733439,4.69818614 25.8669388,4.43395455 25.5061172,4.43395455 L17.7126098,4.43395455 Z" id="形状" fill="#FFFFFF" fill-rule="nonzero"></path>
                <rect id="矩形" x="0" y="0" width="33" height="33"></rect>
            </g>
        </g>
    </g>
</svg>