<svg xmlns="http://www.w3.org/2000/svg" width="22" height="22" viewBox="0 0 22 22">
  <path id="路径_113" data-name="路径 113" d="M84.91,86H65.09A1.091,1.091,0,0,1,64,84.91V65.09A1.091,1.091,0,0,1,65.09,64H84.91A1.091,1.091,0,0,1,86,65.09V84.91A1.091,1.091,0,0,1,84.91,86ZM65.09,64.594a.5.5,0,0,0-.5.5V84.91a.5.5,0,0,0,.5.5H84.91a.5.5,0,0,0,.5-.5V65.09a.5.5,0,0,0-.5-.5ZM82.928,77.676H67.072a1.091,1.091,0,0,1-1.09-1.09V67.072a1.091,1.091,0,0,1,1.09-1.09H82.928a1.091,1.091,0,0,1,1.09,1.09v9.514A1.091,1.091,0,0,1,82.928,77.676Zm-15.857-11.1a.5.5,0,0,0-.5.5v9.514a.5.5,0,0,0,.5.5H82.928a.5.5,0,0,0,.5-.5V67.072a.5.5,0,0,0-.5-.5Zm14.8,14.705a.992.992,0,1,0,.992-.992A.992.992,0,0,0,81.87,81.281Zm-3.931,0a.992.992,0,1,0,.992-.992A.992.992,0,0,0,77.939,81.281Zm-3.929,0A.992.992,0,1,0,75,80.289.992.992,0,0,0,74.01,81.281Zm-.646-11.764.263-.263-.26-.263H71.435l-.263.263.263.263Zm0,2.05h-1.93l-.263.26.263.263h1.932l.26-.263Zm0,2.573h-1.93l-.263.263.263.263h1.932l.26-.263Zm3.624-4.623.263-.263-.263-.263h-1.93l-.263.263.263.263ZM75,71.506v-1.93l-.263-.263-.263.263v1.93l.263.263Zm1.989.061h-1.93l-.263.26.263.263h1.93l.263-.263Zm.322.322-.26.26v1.932l.26.263.263-.263V72.149Zm-.322,2.252h-1.93L74.8,74.4l.263.263h1.93l.263-.263Zm-3.563-4.565v1.93l.263.263.26-.263v-1.93l-.26-.263Zm-2.05,4.506V72.149l-.263-.26-.263.26v1.932l.263.263Zm3.624,0V72.149l-.263-.26-.263.26v1.932l.263.263Zm3.58-5.09a.3.3,0,0,1,.277.233v.1a.281.281,0,0,1-.221.211h-.088c-.14-.015-.219-.108-.233-.277a.283.283,0,0,1,.255-.268Zm-.012.088a.188.188,0,0,0-.034.366l.066.012a.2.2,0,0,0,.167-.211v-.012a.235.235,0,0,0-.145-.155Zm1.333.189a.769.769,0,0,1,.766.5l.012.022-.211.088a.5.5,0,0,0-.444-.378l-.167-.012q-.633.033-.656.845a.724.724,0,0,0,.457.712.611.611,0,0,0,.29.034.706.706,0,0,0,.567-.489V70.58l.221.044v.012a.9.9,0,0,1-.81.656h-.155a.808.808,0,0,1-.722-.577,1.248,1.248,0,0,1-.056-.41,1.044,1.044,0,0,1,.444-.9.8.8,0,0,1,.422-.133H79.9Z" transform="translate(-64 -64)" fill="#fff"/>
</svg>
