<svg xmlns="http://www.w3.org/2000/svg" width="64" height="64" viewBox="0 0 64 64"><g transform="translate(-579 -586)"><rect width="64" height="64" transform="translate(579 586)" fill="none"/><path d="M48.222,70.763H18.258a4.6,4.6,0,0,1-4.6-4.6V43.806a4.6,4.6,0,0,1,4.6-4.6H48.222a4.6,4.6,0,0,1,4.6,4.6v22.36A4.6,4.6,0,0,1,48.222,70.763ZM18.258,41.46A2.348,2.348,0,0,0,15.914,43.8V66.166a2.348,2.348,0,0,0,2.345,2.345H48.222a2.348,2.348,0,0,0,2.345-2.345V43.806a2.348,2.348,0,0,0-2.345-2.345Zm-4.6,21.661h-1.1A2.324,2.324,0,0,1,10.24,60.8V49.218A2.324,2.324,0,0,1,12.561,46.9h1.1v2.251h-1.1a.074.074,0,0,0-.07.07V60.8a.074.074,0,0,0,.07.07h1.1Zm40.256,0h-1.1V60.871h1.1a.074.074,0,0,0,.07-.07V49.218a.074.074,0,0,0-.07-.07h-1.1V46.9h1.1a2.324,2.324,0,0,1,2.321,2.321V60.8A2.324,2.324,0,0,1,53.919,63.122ZM45.981,74.188H20.546a2.572,2.572,0,0,1-2.569-2.569V69.733h2.251v1.886a.322.322,0,0,0,.318.318H45.981a.322.322,0,0,0,.318-.318V69.733H48.55v1.886A2.572,2.572,0,0,1,45.981,74.188Zm-26.34-8.229h-.008a1.125,1.125,0,0,1-1.117-1.133l.141-19.6a1.125,1.125,0,0,1,2.251.016l-.141,19.6A1.125,1.125,0,0,1,19.642,65.959Zm5.416.023h-.008a1.125,1.125,0,0,1-1.117-1.133l.141-19.6A1.125,1.125,0,0,1,25.2,44.131h.008a1.125,1.125,0,0,1,1.117,1.133l-.141,19.6A1.125,1.125,0,0,1,25.058,65.982Zm5.416.023H30.45a1.125,1.125,0,0,1-1.1-1.149l.023-1.149a1.126,1.126,0,1,1,2.251.047L31.6,64.9a1.125,1.125,0,0,1-1.125,1.1Zm.117-15.122h-.006a1.125,1.125,0,0,1-1.119-1.131l.023-4.478a1.125,1.125,0,0,1,1.125-1.119h.006a1.125,1.125,0,0,1,1.119,1.131l-.023,4.478A1.125,1.125,0,0,1,30.591,50.883Zm5.3,15.146h-.01a1.125,1.125,0,0,1-1.115-1.135l.053-5.861a1.125,1.125,0,0,1,1.125-1.116h.01a1.125,1.125,0,0,1,1.116,1.135l-.053,5.861a1.125,1.125,0,0,1-1.126,1.116Zm.094-13.34h-.008a1.125,1.125,0,0,1-1.117-1.133L34.9,45.3a1.125,1.125,0,0,1,1.125-1.117h.008a1.125,1.125,0,0,1,1.117,1.133l-.047,6.26a1.125,1.125,0,0,1-1.125,1.117Zm5.322,13.364H41.3a1.125,1.125,0,0,1-1.117-1.133l.141-19.6A1.125,1.125,0,0,1,41.445,44.2h.008a1.125,1.125,0,0,1,1.117,1.133l-.141,19.6A1.125,1.125,0,0,1,41.305,66.052Zm5.416.023h-.008A1.125,1.125,0,0,1,45.6,64.942l.141-19.6a1.125,1.125,0,0,1,1.125-1.117h.008a1.125,1.125,0,0,1,1.117,1.133l-.141,19.6A1.125,1.125,0,0,1,46.721,66.076Zm-12.1-18.241-5.3,6.94,3.329,1.266-3.329,6.424,7.784-7.831-4.361-.75,1.876-6.049Zm-7.42-8.37H22.4A1.467,1.467,0,0,1,20.931,38v-.7A1.467,1.467,0,0,1,22.4,35.831H27.2A1.467,1.467,0,0,1,28.668,37.3V38A1.467,1.467,0,0,1,27.2,39.465ZM22.4,37.238a.061.061,0,0,0-.059.059V38a.061.061,0,0,0,.059.059H27.2A.061.061,0,0,0,27.261,38v-.7a.061.061,0,0,0-.059-.059ZM27.2,35.433H22.4a1.467,1.467,0,0,1-1.465-1.465v-.7A1.467,1.467,0,0,1,22.4,31.8H27.2a1.467,1.467,0,0,1,1.465,1.465v.7A1.467,1.467,0,0,1,27.2,35.433ZM22.4,33.205a.061.061,0,0,0-.059.059v.7a.061.061,0,0,0,.059.059H27.2a.061.061,0,0,0,.059-.059v-.7a.061.061,0,0,0-.059-.059Zm2.38,7.221a.7.7,0,0,1-.7-.7v-8.3a.7.7,0,1,1,1.407,0v8.3a.7.7,0,0,1-.7.7Zm19.307-.961H39.277A1.467,1.467,0,0,1,37.812,38v-.7a1.467,1.467,0,0,1,1.465-1.465h4.806A1.467,1.467,0,0,1,45.549,37.3V38A1.467,1.467,0,0,1,44.084,39.465Zm-4.806-2.227a.061.061,0,0,0-.059.059V38a.061.061,0,0,0,.059.059h4.806A.061.061,0,0,0,44.142,38v-.7a.061.061,0,0,0-.059-.059Zm4.806-1.805H39.277a1.467,1.467,0,0,1-1.465-1.465v-.7A1.467,1.467,0,0,1,39.277,31.8h4.806a1.467,1.467,0,0,1,1.465,1.465v.7A1.467,1.467,0,0,1,44.084,35.433Zm-4.806-2.227a.061.061,0,0,0-.059.059v.7a.061.061,0,0,0,.059.059h4.806a.061.061,0,0,0,.059-.059v-.7a.061.061,0,0,0-.059-.059Zm2.38,7.221a.7.7,0,0,1-.7-.7v-8.3a.7.7,0,1,1,1.407,0v8.3A.7.7,0,0,1,41.657,40.426Z" transform="translate(577.76 565.28)" fill="#fff"/></g></svg>