<svg xmlns="http://www.w3.org/2000/svg" width="64" height="64" viewBox="0 0 64 64"><g transform="translate(-960 -586)"><rect width="64" height="64" transform="translate(960 586)" fill="none"/><g transform="translate(838.965 561.968)"><path d="M170.352,46.6a.8.8,0,0,0-1.193,0l-3.578,3.578a8.241,8.241,0,0,0-4.413-1.908V47.2a2.55,2.55,0,0,0-1.074-2.147l-3.578-2.863a1.915,1.915,0,0,1-.6-1.312V36.582a1.579,1.579,0,0,0-1.551-1.551H138.982a1.579,1.579,0,0,0-1.551,1.551V75.706a1.579,1.579,0,0,0,1.551,1.551h15.387a1.579,1.579,0,0,0,1.551-1.551V73.439a1.631,1.631,0,0,1,1.67-1.67h.835a2.9,2.9,0,0,0,2.863-2.863V64.493a8.24,8.24,0,0,0,7.276-8.111,7.37,7.37,0,0,0-1.789-5.01l3.7-3.7a.766.766,0,0,0-.119-1.074ZM159.5,69.026a1.2,1.2,0,0,1-1.193,1.193h-.835a3.413,3.413,0,0,0-3.34,3.34v2.147H139.1V46.6h8.111v14.91a.835.835,0,1,0,1.67,0V45.767a.815.815,0,0,0-.835-.835H139.1V36.7H154.25v4.175a3.168,3.168,0,0,0,1.312,2.624l3.578,2.863a1.515,1.515,0,0,1,.477.835V69.026Zm1.67-6.2V49.941a6.362,6.362,0,0,1,5.606,6.441A6.46,6.46,0,0,1,161.168,62.824Z" fill="#fff"/></g></g></svg>