<svg xmlns="http://www.w3.org/2000/svg" width="64" height="64" viewBox="0 0 64 64"><g transform="translate(-490 -586)"><rect width="64" height="64" transform="translate(490 586)" fill="none"/><path d="M37.9.042A4.294,4.294,0,0,0,33.6,4.336a3.733,3.733,0,0,0,.7,2.175L31.255,9.425H11.138L8.09,6.51a3.994,3.994,0,0,0,.7-2.258A4.264,4.264,0,0,0,4.5,0a4.31,4.31,0,1,0,0,8.62A4.208,4.208,0,0,0,6.7,7.99L10.064,11.4V31.15l-3.07,3.112a4.24,4.24,0,0,0-2.5-.823,4.294,4.294,0,1,0,4.3,4.294,4.914,4.914,0,0,0-.531-2.195l3.019-3.213H31.114l3.019,3.216A4.566,4.566,0,0,0,33.6,37.65,4.334,4.334,0,0,0,37.9,41.985a4.279,4.279,0,1,0-2.516-7.729l-2.414-2.425V10.721L35.672,8A4.288,4.288,0,1,0,37.9.042ZM27.24,30.417V27.554h3.817v2.863Zm3.817-4.771H25.331v4.771H17.7V25.646H11.972V17.058H17.7V11.333h7.634v5.725h5.725ZM15.789,12.287V15.15H11.972V12.287Zm-3.817,18.13V27.554h3.817v2.863Zm19.084-18.13V15.15H27.24V12.287ZM2.113,4.336A2.386,2.386,0,1,1,4.5,6.721,2.386,2.386,0,0,1,2.113,4.336ZM4.5,40.118a2.386,2.386,0,1,1,2.386-2.386A2.386,2.386,0,0,1,4.5,40.118Zm33.4-4.771a2.386,2.386,0,1,1-2.386,2.386A2.386,2.386,0,0,1,37.9,35.347Zm0-28.626a2.386,2.386,0,1,1,2.386-2.386A2.386,2.386,0,0,1,37.9,6.721ZM21.4,3.765a3.408,3.408,0,0,0-3.162,2.173l1.781.684a1.479,1.479,0,0,1,2.8.112L24.644,6.2A3.4,3.4,0,0,0,21.4,3.765Zm5.426.266A6.36,6.36,0,0,0,21.4.956,6.283,6.283,0,0,0,16,3.986l1.628,1a4.414,4.414,0,0,1,7.556.033ZM21.4,38.961a3.406,3.406,0,0,0,3.244-2.43l-1.831-.538a1.478,1.478,0,0,1-2.8.111l-1.781.685A3.409,3.409,0,0,0,21.4,38.961ZM16,38.743a6.283,6.283,0,0,0,5.4,3.027,6.36,6.36,0,0,0,5.426-3.075l-1.637-.982a4.414,4.414,0,0,1-7.556.034ZM36.037,22.768l.538,1.831a3.387,3.387,0,0,0,.258-6.41l-.684,1.781a1.479,1.479,0,0,1-.112,2.8Zm5.777-1.416a6.284,6.284,0,0,0-3.026-5.4l-1,1.628a4.416,4.416,0,0,1-.034,7.557l.981,1.637a6.359,6.359,0,0,0,3.075-5.427ZM6.666,19.97l-.683-1.781A3.386,3.386,0,0,0,6.24,24.6l.539-1.831a1.478,1.478,0,0,1-.113-2.8ZM1,21.352a6.36,6.36,0,0,0,3.075,5.427l.981-1.637a4.415,4.415,0,0,1-.033-7.557l-1-1.628A6.283,6.283,0,0,0,1,21.352Zm12.882-3.34h2.863v1.908H13.881Zm5.725,0h3.817v1.908H19.606Zm6.679,0h2.863v1.908H26.285Zm-12.4,3.817h2.863v1.908H13.881Zm5.725,0h3.817v1.908H19.606Zm6.679,0h2.863v1.908H26.285Z" transform="translate(500.812 597)" fill="#fff"/></g></svg>