<svg xmlns="http://www.w3.org/2000/svg" width="64" height="64" viewBox="0 0 64 64"><g transform="translate(-86 -586)"><g transform="translate(-5)"><rect width="64" height="64" transform="translate(91 586)" fill="none"/></g><g transform="translate(87.464 478.264)"><path d="M20.852,460.962H5.306a1.88,1.88,0,0,1-1.893-1.893V447.674a1.88,1.88,0,0,1,1.893-1.893H20.815a1.88,1.88,0,0,1,1.893,1.893v11.359a1.9,1.9,0,0,1-1.857,1.93ZM5.306,446.728a.964.964,0,0,0-.947.947v11.359a.964.964,0,0,0,.947.947H20.815a.964.964,0,0,0,.947-.947V447.674a.964.964,0,0,0-.947-.947H5.306Zm0,0M31.446,448c.328,0,.473.146.473.473v15.4c0,.328-.146.473-.473.473s-.473-.146-.473-.473V448.512C30.972,448.184,31.118,448,31.446,448Zm0,0,0,22.244a2.184,2.184,0,1,1,2.184-2.184A2.191,2.191,0,0,1,31.446,470.246Zm0-3.6a1.417,1.417,0,0,0-1.019,2.4,1.4,1.4,0,0,0,1.529.291,1.4,1.4,0,0,0-.51-2.694Zm0,0" transform="translate(0 -309.559)" fill="#fff"/><path d="M91.556,468.535H77.576a.473.473,0,1,1,0-.946h13.98a.763.763,0,0,0,.4-.146.547.547,0,0,0,.146-.4v-.91a.473.473,0,0,1,.947,0v.91A1.476,1.476,0,0,1,91.556,468.535Zm-18.348,0H59.227a1.476,1.476,0,0,1-1.493-1.493v-.91a.473.473,0,0,1,.947,0v.91a.763.763,0,0,0,.146.4.547.547,0,0,0,.4.146h13.98a.482.482,0,0,1,.473.473.459.459,0,0,1-.473.473Zm0,0-10.74-4.624H51.582a.983.983,0,1,1,0-1.966H62.467a.979.979,0,0,1,.983.983A1,1,0,0,1,62.467,463.911ZM49.835,448.148v10.376H64.179V448.148ZM56.06,457.1l-3.677-3.641.91-.91,3.022,1.966,5.5-4.187.51.51Zm43.65,3.859H84.2a1.88,1.88,0,0,1-1.893-1.893V447.674a1.88,1.88,0,0,1,1.893-1.893H99.711a1.88,1.88,0,0,1,1.893,1.893v11.359A1.935,1.935,0,0,1,99.711,460.962ZM84.2,446.728a.964.964,0,0,0-.947.947v11.359a.964.964,0,0,0,.947.947H99.711a.964.964,0,0,0,.947-.947V447.674a.964.964,0,0,0-.947-.947Zm0,0,13.179,17.183H86.5a.983.983,0,1,1,0-1.966H97.381a.983.983,0,1,1,0,1.966Z" transform="translate(-43.946 -309.559)" fill="#fff"/><path d="M358.8,138.589v10.376h14.344V138.589Zm6.189,8.956-3.677-3.641.91-.91,3.022,1.966,5.5-4.187.51.51-6.262,6.262Zm-8.3-13.579H341.178a1.88,1.88,0,0,1-1.893-1.893V120.677a1.88,1.88,0,0,1,1.893-1.893h15.509a1.88,1.88,0,0,1,1.893,1.893v11.359a1.911,1.911,0,0,1-1.893,1.93Zm-15.509-14.235a.964.964,0,0,0-.947.947v11.359a.964.964,0,0,0,.947.947h15.509a.964.964,0,0,0,.947-.947V120.677a.964.964,0,0,0-.947-.947H341.178Zm0,0" transform="translate(-317.96)" fill="#fff"/><path d="M411.228,199.924H400.343a.983.983,0,1,1,0-1.966h10.885a.983.983,0,0,1,0,1.966Zm-2.985-6.771-6.225-6.225a.927.927,0,1,1,1.311-1.311l6.225,6.225a.927.927,0,1,1-1.311,1.311Z" transform="translate(-374.831 -63.01)" fill="#fff"/></g></g></svg>