<svg xmlns="http://www.w3.org/2000/svg" width="64" height="64" viewBox="0 0 64 64"><g transform="translate(-295 -586)"><rect width="64" height="64" transform="translate(295 586)" fill="none"/><path d="M26.527,13.458l-3.506,6.834,5.259,1.548L18.27,29.253l3.917-6.124-5.016-1.6Zm11.4-1.167a18.487,18.487,0,0,1-.071,21.918A1.016,1.016,0,0,1,36.217,33a16.637,16.637,0,0,0,2.046-3.661l-3.08-1a1.017,1.017,0,0,1,.628-1.935L38.9,27.41a16.437,16.437,0,0,0,.039-8.264l-3.08,1a1.017,1.017,0,0,1-.628-1.935l3.086-1A16.755,16.755,0,0,0,33.5,10.5l-1.9,2.615a1.016,1.016,0,0,1-1.643-1.2L31.865,9.3A16.563,16.563,0,0,0,24.147,6.72V9.939a1.017,1.017,0,0,1-2.033,0V6.691A16.367,16.367,0,0,0,13.981,9.3l2.033,2.8a1.017,1.017,0,0,1-1.646,1.2l-2.026-2.789a16.375,16.375,0,0,0-4.828,6.7l3.295,1.07a1.017,1.017,0,0,1-.629,1.935L6.9,19.149a16.56,16.56,0,0,0,.035,8.258l3.3-1.072a1.017,1.017,0,0,1,.628,1.935L7.574,29.338a16.612,16.612,0,0,0,1.978,3.568,1.017,1.017,0,0,1-1.646,1.2A18.428,18.428,0,0,1,4.593,20.293c2.588-16.335,23.691-21.275,33.332-8ZM31.769,33.013a1.017,1.017,0,0,1,0,2.034H14.48a1.017,1.017,0,0,1,0-2.034Zm-5.6,4.578a1.017,1.017,0,0,1,0,2.033h-6.1a1.017,1.017,0,0,1,0-2.033ZM23,2.034A20.967,20.967,0,1,0,43.969,23,20.99,20.99,0,0,0,23,2.034ZM23,0A23,23,0,1,1,0,23,23.029,23.029,0,0,1,23,0Z" transform="translate(304 595)" fill="#fff"/></g></svg>