<svg xmlns="http://www.w3.org/2000/svg" width="64" height="64" viewBox="0 0 64 64"><g transform="translate(-848 -586)"><rect width="64" height="64" transform="translate(848 586)" fill="none"/><path d="M266.415,221.877a1.628,1.628,0,0,0,1.623-1.623v-13.46a1.623,1.623,0,1,0-3.247,0v13.46A1.611,1.611,0,0,0,266.415,221.877Zm0,0M228.1,221.4a1.628,1.628,0,0,1-1.623-1.623V206.3a1.623,1.623,0,0,1,3.247,0v13.46A1.629,1.629,0,0,1,228.1,221.4Zm28.474-38.266a13.126,13.126,0,1,0,3.848,9.285,13.018,13.018,0,0,0-3.848-9.285Zm-9.285,20.615a11.33,11.33,0,1,1,11.321-11.33,11.346,11.346,0,0,1-11.321,11.33Zm-4.75-4.114a1.976,1.976,0,1,1,1.976-1.976A1.981,1.981,0,0,1,242.536,199.631Zm0-2.946a.971.971,0,1,0,.971.971A.975.975,0,0,0,242.536,196.684Zm4.827,2.946a2.065,2.065,0,0,1-.318-.026,1.97,1.97,0,0,1-.833-3.547,1.952,1.952,0,0,1,1.469-.344,1.971,1.971,0,0,1-.318,3.917Zm-.953-2.13a.969.969,0,1,0,.387-.627.978.978,0,0,0-.387.627Zm5.789,2.13a1.976,1.976,0,1,1,1.976-1.976A1.981,1.981,0,0,1,252.2,199.631Zm0-2.946a.971.971,0,1,0,.971.971A.975.975,0,0,0,252.2,196.684Zm1.744-2.852H240.681v-6.4h13.271v6.4Zm-11.759-1.5h10.264v-3.4H242.184Zm7.335,12.992v2.563h-4.613v-2.563m8.6,2.563h-12.5a1.006,1.006,0,0,0-1.005,1v10a1.006,1.006,0,0,0,1.005,1h12.5a1.006,1.006,0,0,0,1.005-1V208.881A1.01,1.01,0,0,0,253.505,207.885Zm-.85,9.869a.209.209,0,0,1-.206.206H242.064a.209.209,0,0,1-.206-.206v-7.739a.209.209,0,0,1,.206-.206h10.385a.209.209,0,0,1,.206.206v7.739ZM229.712,209.2v8.607h7.9V209.2Zm6.631,6.975a.209.209,0,0,1-.206.206h-6.219a.209.209,0,0,1-.206-.206v-5.351a.209.209,0,0,1,.206-.206h6.21a.209.209,0,0,1,.206.206v5.351Zm20.237-6.76v8.607h8.194l.017-8.607Zm8.194,6.983a.209.209,0,0,1-.206.206H258.35a.209.209,0,0,1-.206-.206v-5.351a.209.209,0,0,1,.206-.206h6.21a.209.209,0,0,1,.206.206V216.4Z" transform="translate(632.526 417.718)" fill="#fff"/></g></svg>