<svg xmlns="http://www.w3.org/2000/svg" width="64" height="64" viewBox="0 0 64 64"><g transform="translate(-193 -586)"><rect width="64" height="64" transform="translate(193 586)" fill="none"/><g transform="translate(157.696 509.438)" style="isolation:isolate"><path d="M290.545,216.938a12.16,12.16,0,0,0-9.469,4.619l.924.808a10.861,10.861,0,0,1,17.09,0l.924-.808a12.16,12.16,0,0,0-9.469-4.619m0,6.928a5.266,5.266,0,0,0-4.041,1.963l.924.693a3.988,3.988,0,0,1,6.235,0l.924-.693a4.926,4.926,0,0,0-4.041-1.963m0,3.349a1.732,1.732,0,1,1-1.732,1.732A1.776,1.776,0,0,1,290.545,227.215Zm0-6.813a8.533,8.533,0,0,1,6.813,3.349l-.924.693a7.45,7.45,0,0,0-11.778,0l-.924-.693a8.534,8.534,0,0,1,6.813-3.349Z" transform="translate(-223.917 -121.487)" fill="#fff"/><path d="M85.218,614.191H49.537a3.227,3.227,0,0,1-3.233-3.233V602.3a3.227,3.227,0,0,1,3.233-3.233h35.68a3.227,3.227,0,0,1,3.233,3.233v8.776a3.2,3.2,0,0,1-3.233,3.118Zm-35.68-13.164a1.4,1.4,0,0,0-1.386,1.386v8.66a1.4,1.4,0,0,0,1.386,1.386h35.68a1.4,1.4,0,0,0,1.386-1.386v-8.66a1.4,1.4,0,0,0-1.386-1.386Z" transform="translate(0 -485.946)" fill="#fff"/><path d="M199.819,115.081a.911.911,0,0,1-.924-.924V90.486a.911.911,0,0,1,.924-.924.85.85,0,0,1,.924.924v23.671a.993.993,0,0,1-.924.924Zm-27.713,0a.911.911,0,0,1-.924-.924V90.486a.924.924,0,1,1,1.848,0v23.671a.993.993,0,0,1-.924.924Z" transform="translate(-119.105)" fill="#fff"/><path d="M148.705,738.163a1.732,1.732,0,1,0,1.732-1.732A1.732,1.732,0,0,0,148.705,738.163Z" transform="translate(-97.666 -616.961)" fill="#fff"/><path d="M246.11,738.163a1.732,1.732,0,1,0,1.732-1.732A1.732,1.732,0,0,0,246.11,738.163Z" transform="translate(-190.568 -616.961)" fill="#fff"/><path d="M343.515,738.163a1.732,1.732,0,1,0,1.732-1.732A1.732,1.732,0,0,0,343.515,738.163Z" transform="translate(-283.47 -616.961)" fill="#fff"/></g></g></svg>