<svg xmlns="http://www.w3.org/2000/svg" width="64" height="64" viewBox="0 0 64 64"><g transform="translate(-666 -586)"><rect width="64" height="64" transform="translate(666 586)" fill="none"/><path d="M23,0A23,23,0,1,1,0,23,23,23,0,0,1,23,0ZM21.187,2.834l-.175.015a20.122,20.122,0,0,0-8.46,2.8,1.979,1.979,0,0,1,.506.485l1.156,1.592a1.966,1.966,0,0,1-3.183,2.309L9.874,8.445a1.962,1.962,0,0,1-.3-.605,20.305,20.305,0,0,0-5.25,7.318,1.962,1.962,0,0,1,.606.1L6.8,15.86A1.966,1.966,0,1,1,5.587,19.6L3.72,18.99a1.965,1.965,0,0,1-.518-.258,20.44,20.44,0,0,0,.077,8.877,1.92,1.92,0,0,1,.439-.206l1.869-.609A1.966,1.966,0,1,1,6.8,30.533l-1.871.609a1.957,1.957,0,0,1-.439.089,20.314,20.314,0,0,0,5.2,7.029,1.959,1.959,0,0,1,.188-.316l1.154-1.591a1.966,1.966,0,1,1,3.18,2.312l-1.156,1.59a1.965,1.965,0,0,1-.224.259,20.12,20.12,0,0,0,8.248,2.644,1.864,1.864,0,0,1-.025-.3V40.888a1.966,1.966,0,1,1,3.932,0v1.966a2.007,2.007,0,0,1-.023.3A20.113,20.113,0,0,0,33.195,40.5a1.906,1.906,0,0,1-.208-.242l-1.156-1.592a1.966,1.966,0,1,1,3.18-2.31l1.156,1.592a1.956,1.956,0,0,1,.173.286,20.3,20.3,0,0,0,5.168-7.006,1.953,1.953,0,0,1-.4-.086l-1.872-.607a1.966,1.966,0,1,1,1.217-3.739l1.868.609a1.961,1.961,0,0,1,.4.183,20.421,20.421,0,0,0,.076-8.827,1.906,1.906,0,0,1-.477.231l-1.869.609A1.966,1.966,0,1,1,39.24,15.86l1.871-.609a1.936,1.936,0,0,1,.561-.1,20.3,20.3,0,0,0-5.217-7.286,1.941,1.941,0,0,1-.29.58L35.012,10.04a1.966,1.966,0,1,1-3.181-2.312l1.156-1.592a1.993,1.993,0,0,1,.486-.469,20.133,20.133,0,0,0-8.615-2.831,1.934,1.934,0,0,1,.131.7V5.5a1.966,1.966,0,1,1-3.932,0V3.538a1.954,1.954,0,0,1,.131-.706ZM20.108,31.639a3.014,3.014,0,0,1,2.263,1.208.929.929,0,0,0,1.3.189l.086-.075.078-.085.05-.063a3.139,3.139,0,0,1,4.415-.456l.19.167.175.18.57.641a.751.751,0,0,0,.938.151l.123-.09.041-.04a.983.983,0,0,1,1.417,1.363l-.094.092a2.717,2.717,0,0,1-3.7.029l-.2-.2-.57-.643a1.174,1.174,0,0,0-1.639-.11l-.147.152-.052.063a2.892,2.892,0,0,1-4.374.134l-.189-.23a1.046,1.046,0,0,0-1.468-.209l-.14.128-.773.845a2.475,2.475,0,0,1-3.753-.118.984.984,0,0,1,1.532-1.235.513.513,0,0,0,.716.076l.055-.053.773-.845a3.017,3.017,0,0,1,2.372-.972Zm1.61-3.186.218.221.2.241.167.223a.983.983,0,0,0,1.375.2l.092-.079.083-.09.235-.287a3.446,3.446,0,0,1,4.848-.5l.205.185.193.2.664.747a.983.983,0,0,0,1.388.078l.055-.051a.983.983,0,1,1,1.539,1.211l-.11.138-.177.17a2.949,2.949,0,0,1-3.951-.025l-.213-.214-.664-.745a1.48,1.48,0,0,0-2.1-.109l-.149.159-.234.287a2.949,2.949,0,0,1-4.472.122l-.181-.221-.166-.221a1.334,1.334,0,0,0-1.9-.25l-.156.147-.885.963a2.686,2.686,0,0,1-4.073-.128.983.983,0,0,1,1.408-1.362l.121.127a.721.721,0,0,0,1.017.109l.078-.074.883-.962a3.3,3.3,0,0,1,4.663-.207Zm.463-14.22s2.16.648,3.031,4a1.8,1.8,0,0,0,.227-1.98c.758.534,5.154,5.52-.682,8.871a5.268,5.268,0,0,0-1.629-6.4,4.218,4.218,0,0,1-.871,3.045,2.041,2.041,0,0,0-.3-1.6A5.211,5.211,0,0,1,21.2,21.96a2.768,2.768,0,0,0-.227,3.2c-2.311-1.332-2.917-2.55-2.576-4.264.265-1.256,1.212-2.245,1.288-3.5a3.621,3.621,0,0,1,.454,1.827c1.137-1.409,2.311-3.274,2.046-4.986Z" transform="translate(675 595)" fill="#fff"/></g></svg>