<?xml version="1.0" encoding="UTF-8"?>
<svg width="18px" height="18px" viewBox="0 0 18 18" version="1.1" xmlns="http://www.w3.org/2000/svg" xmlns:xlink="http://www.w3.org/1999/xlink">
    <title>编组</title>
    <g id="页面-1" stroke="none" stroke-width="1" fill="none" fill-rule="evenodd">
        <g id="画板" transform="translate(-3608.000000, -343.000000)">
            <g id="编组" transform="translate(3608.000000, 343.000000)">
                <path d="M0.500840656,0.000591830554 L0.559118741,0.00921882841 L5.8490687,0.0103776639 C5.95445047,0.0103776639 6.05451,0.0447492318 6.13540575,0.105447732 L6.19226808,0.155782209 L11.2964254,5.26067822 L11.3360356,5.30649584 L11.3716504,5.36028859 L11.3993656,5.41822852 L11.424991,5.51160475 L11.4323426,5.57394005 L11.430453,5.64057295 L11.4181713,5.70909937 L11.4013026,5.76438619 L11.3728729,5.82505705 L11.3226313,5.89865306 L11.2822688,5.94180874 L11.2267051,5.98697628 L11.1587785,6.02609581 L11.0812969,6.05473636 L11.0390827,6.0639728 L10.9550618,6.07171516 L5.59325877,6.07192785 C5.54175579,6.07166287 5.49135031,6.06341745 5.44375673,6.04766176 C5.39676723,6.03223218 5.35240567,6.00942291 5.31241247,5.98024282 L5.25591651,5.93182068 L4.23867101,4.91447745 L4.23867101,6.73018375 L12.2247073,6.73098078 C12.4299405,6.73098078 12.6049507,6.86038313 12.6725981,7.04207225 L12.6947916,7.12291542 L12.7024894,7.20881209 L12.701053,8.07261579 L15.7295644,8.07381741 C15.7929221,8.07381741 15.8549823,8.08640179 15.9124033,8.11018634 L15.9946376,8.15409026 L16.0674067,8.21375627 C16.157008,8.30335762 16.2073455,8.42488313 16.2073455,8.55159857 C16.2073455,10.7472643 14.4211611,12.5333809 12.2253492,12.5333809 C10.0302814,12.5333809 8.24356696,10.7469383 8.24356696,8.55159857 C8.24356696,8.31704635 8.4125822,8.12196976 8.63544424,8.08151511 L8.72131664,8.07381742 L11.7455748,8.07261579 L11.746567,7.68566199 L4.23867101,7.68566199 L4.23994263,17.0716857 C4.23994263,17.2769189 4.11054034,17.4519285 3.9288748,17.5195756 L3.84804324,17.5417691 L3.76216147,17.5494668 C3.52760926,17.5494668 3.33253266,17.3804516 3.29207801,17.1575674 L3.28438032,17.0716857 L3.28438032,4.05421933 L3.29212248,3.96892111 L0.121491508,0.794685506 L0.0850535331,0.750278031 C0.00653050583,0.636951424 -0.0194613145,0.494734249 0.0147827715,0.360260623 C0.0579566507,0.190720455 0.190341697,0.0583354083 0.359881865,0.0151615291 C0.408281795,0.00283635122 0.457940818,-0.00175576187 0.500840656,0.000591830554 Z M12.2413991,12.9157332 C12.4759513,12.9157332 12.6710279,13.0847485 12.7114825,13.3076326 L12.7191802,13.3935144 L12.7191802,14.6676577 C12.7191802,14.7943731 12.6688427,14.9158986 12.5792414,15.0055 C12.48964,15.0951013 12.3681145,15.1454389 12.2413991,15.1454389 C12.0068469,15.1454389 11.8117703,14.9764236 11.7713156,14.7535395 L11.7636179,14.6676577 L11.7636179,13.3935144 C11.7636179,13.1296431 11.9775278,12.9157332 12.2413991,12.9157332 Z M9.40239036,12.5217251 C9.53432597,12.2932058 9.82653244,12.2149092 10.0550518,12.3468448 C10.2581801,12.4641209 10.3426138,12.7080308 10.2662056,12.9212832 L10.2299308,12.9995085 L9.59289283,14.1028231 C9.5075143,14.2509266 9.34948401,14.342098 9.1784685,14.3418774 C9.00791907,14.3415451 8.85046658,14.2503677 8.76528729,14.1026122 C8.6971438,13.9844078 8.68351491,13.8443209 8.72441784,13.7173336 L8.76532003,13.6250958 L9.40239036,12.5217251 Z M14.4191865,12.3151732 C14.6223148,12.1978971 14.8757638,12.2467303 15.0222406,12.4195265 L15.0718479,12.4900534 L15.7089518,13.5939103 C15.7941306,13.7416662 15.7941303,13.923613 15.708951,14.0713685 C15.6237716,14.2191241 15.466319,14.3103015 15.2953916,14.310633 C15.152968,14.3103673 15.0196128,14.2469785 14.9297803,14.1402728 L14.8813792,14.0712099 L14.2443062,12.9678345 C14.1123706,12.7393152 14.1906672,12.4471088 14.4191865,12.3151732 Z M7.79349143,10.5868193 C8.02201076,10.4548837 8.31421721,10.5331803 8.44615282,10.7616997 C8.56342891,10.9648279 8.51459563,11.2182769 8.34180113,11.3647528 L8.27127483,11.4143597 L7.16794599,12.0514059 C7.09536722,12.0933616 7.01298479,12.1153802 6.92931681,12.1152304 C6.71318204,12.115201 6.5239835,11.9700794 6.46793942,11.7613373 C6.4199016,11.5824154 6.4799476,11.394951 6.61593989,11.2768197 L6.6901161,11.2238923 L7.79349143,10.5868193 Z M16.1800677,10.530966 C16.2983285,10.462688 16.4385434,10.4490324 16.5655859,10.4899992 L16.6578491,10.5309659 L17.761533,11.1680936 C17.9485892,11.2763721 18.0396592,11.4967416 17.9836151,11.7054839 C17.9439736,11.8531328 17.8370045,11.9704951 17.6939746,12.0262209 L17.6040794,12.0520092 L17.5222245,12.0598036 C17.466306,12.0598036 17.4110474,12.0499319 17.3590011,12.0309034 L17.2836599,11.9955821 L16.180068,11.3585076 C16.0322418,11.2731602 15.9411771,11.1154317 15.9411771,10.9447369 C15.9411771,10.774042 16.0322417,10.6163135 16.1800677,10.530966 Z M15.212284,9.02908622 L9.23732038,9.02908622 L9.24685439,9.09067698 C9.49315988,10.4569577 10.6537324,11.4923263 12.0496791,11.5729698 L12.2253492,11.5780325 C13.698675,11.5780325 14.9470843,10.5140732 15.2038232,9.09068807 L15.212284,9.02908622 Z M2.97065316,0.965564291 L1.63814302,0.965564291 L5.75072464,5.11610229 L7.12098074,5.11589187 L2.97065316,0.965564291 Z M5.65154848,0.965564291 L4.31804615,0.965564291 L8.43161996,5.11610229 L9.80187606,5.11589187 L5.65154848,0.965564291 Z" id="形状结合" fill="#FFFFFF" fill-rule="nonzero"></path>
                <rect id="矩形" x="0" y="0" width="18" height="18"></rect>
            </g>
        </g>
    </g>
</svg>