<?xml version="1.0" standalone="no"?><!DOCTYPE svg PUBLIC "-//W3C//DTD SVG 1.1//EN" "http://www.w3.org/Graphics/SVG/1.1/DTD/svg11.dtd"><svg t="1745287629280" class="icon" viewBox="0 0 1024 1024" version="1.1" xmlns="http://www.w3.org/2000/svg" p-id="1830" xmlns:xlink="http://www.w3.org/1999/xlink" width="200" height="200"><path d="M79.689277 0v1024h864.621446V0z m215.29074 470.137912a21.615536 21.615536 0 1 1 21.615536-21.615537 21.615536 21.615536 0 0 1-21.615536 21.615537z m109.951027 353.486068l-75.077962-75.077963 75.077962-75.077962 27.091472 27.091472a93.667323 93.667323 0 0 0 0 95.756825z m-22.264002-375.31776a21.615536 21.615536 0 1 1 21.615536 21.615536 21.615536 21.615536 0 0 1-21.615536-21.543484z m129.693217 482.314664l-75.077962-75.077963 27.091472-27.091472a93.667323 93.667323 0 0 0 95.756825 0l27.091472 27.091472z m47.842387-261.980299a93.667323 93.667323 0 0 0-95.756826 0l-27.091472-27.091472 75.077963-75.077962 75.077962 75.077962z m-67.872784-220.334365a21.615536 21.615536 0 1 1 21.615536 21.615536 21.615536 21.615536 0 0 1-21.831691-21.543484z m127.099353 375.31776l-27.091472-27.091472a93.667323 93.667323 0 0 0 0-95.756825l27.091472-27.091472 75.077962 75.077962z m-17.652688-375.31776a21.615536 21.615536 0 1 1 21.615536 21.615536 21.615536 21.615536 0 0 1-22.19195-21.543484z m131.350408 21.615536a21.615536 21.615536 0 1 1 21.615536-21.615536 21.615536 21.615536 0 0 1-21.903743 21.831692z m64.198142-179.120743H231.070082V134.376583h566.110892V291.08922z" fill="#ffffff" p-id="1831"></path></svg>