<svg xmlns="http://www.w3.org/2000/svg" width="64" height="64" viewBox="0 0 64 64"><g transform="translate(-753 -586)"><rect width="64" height="64" transform="translate(753 586)" fill="none"/><path d="M32,98.035v17.892a1.136,1.136,0,0,0,1.18,1.18h1.671a4.452,4.452,0,0,0,1.573-.295,5.574,5.574,0,0,0,1.278-.786l.1-.1a6.268,6.268,0,0,0,.786-1.376,4.076,4.076,0,0,0,.295-1.573v-4.522H40.75c0,.1.1.1.1.2a9.74,9.74,0,0,0,1.081,1.671,5.332,5.332,0,0,0,3.637,1.475,3.99,3.99,0,0,0,1.868-.393h.1a4.492,4.492,0,0,0,1.573-1.081l.1-.1a5.187,5.187,0,0,0,1.081-5.6,5.281,5.281,0,0,0-.983-1.573l.786-1.376,13.665,7.865a1.586,1.586,0,0,0,.885.295,3.344,3.344,0,0,0,.983-.1,3.492,3.492,0,0,0,.885-.393,4.275,4.275,0,0,0,.59-.688l.1-.1.688-1.278,2.556,1.475a1.2,1.2,0,0,0,1.573-.393l4.621-8.061a1.083,1.083,0,0,0-.295-1.475l1.081-.688a1.254,1.254,0,0,0,.492-.688,1.132,1.132,0,0,0-.59-1.475L44.485,77.095A1.586,1.586,0,0,0,43.6,76.8a3.344,3.344,0,0,0-.983.1,3.492,3.492,0,0,0-.885.393,4.276,4.276,0,0,0-.59.688l-.1.1-4.621,7.963a1.586,1.586,0,0,0-.295.885,2.722,2.722,0,0,0,.1.885v.1a3.493,3.493,0,0,0,.393.885c.1.2.295.295.492.492l-.885,1.573a1.586,1.586,0,0,0-.295.885,3.345,3.345,0,0,0,.1.983,3.492,3.492,0,0,0,.393.885c.2.2.393.492.688.59l11.011,6.292-.688,1.278a5.567,5.567,0,0,0-1.77-.295,4.4,4.4,0,0,0-1.966.393,9.74,9.74,0,0,0-1.671,1.081,4.441,4.441,0,0,0-1.081,1.671A5.636,5.636,0,0,0,40.553,106H38.882v-5.21a3.945,3.945,0,0,0-.295-1.475v-.1a2.994,2.994,0,0,0-.885-1.278,3.741,3.741,0,0,0-1.278-.885h-.1a5.95,5.95,0,0,0-1.475-.2H33.18A1.136,1.136,0,0,0,32,98.035Zm37.063,7.373,1.376-2.359,3.343-2.261-3.244,5.505Zm-3.146-2.163C57.167,98.92,47.14,92.333,38.488,87.417v-.2c1.475-2.753,3.146-5.407,4.719-8.061h.1L74.765,97.347l-8.848,5.9ZM38.194,92.235a5.465,5.465,0,0,1,.885-1.671l25.56,14.746c.2.1.295.2.492.2h.1a1.673,1.673,0,0,0,.688.1h.295c-.59,1.081-1.081,1.966-1.18,2.064Zm4.621,14.452a3.534,3.534,0,0,1,.2-1.081,1.768,1.768,0,0,1,.59-.885,2.321,2.321,0,0,1,.885-.59,3.072,3.072,0,0,1,2.163,0,1.768,1.768,0,0,1,.885.59,2.321,2.321,0,0,1,.59.885,3.072,3.072,0,0,1,0,2.163,2.321,2.321,0,0,1-.59.885h-.1a3.431,3.431,0,0,1-.885.59,3.493,3.493,0,0,1-.983.2,3.534,3.534,0,0,1-1.081-.2,2.789,2.789,0,0,1-.885-.59,2.321,2.321,0,0,1-.59-.885c-.1-.2-.1-.393-.2-.59v-.492Zm-8.455-7.472h.492c.2,0,.492,0,.59.1a2.149,2.149,0,0,1,.492.295,1.311,1.311,0,0,1,.492.59,1.247,1.247,0,0,1,.1.59V112.88c0,.2,0,.492-.1.59a2.057,2.057,0,0,1-.393.59,1.311,1.311,0,0,1-.59.492,1.247,1.247,0,0,1-.59.1h-.492V99.215Z" transform="translate(730 521.2)" fill="#fff"/></g></svg>