<svg xmlns="http://www.w3.org/2000/svg" width="64" height="64" viewBox="0 0 64 64"><g transform="translate(-399 -586)"><rect width="64" height="64" transform="translate(399 586)" fill="none"/><path d="M23,0A23,23,0,1,1,0,23,23,23,0,0,1,23,0Zm1.9,2.84.016.063a1.974,1.974,0,0,1,.049.439V5.308a1.966,1.966,0,0,1-3.932,0V3.342a1.984,1.984,0,0,1,.064-.5,20.118,20.118,0,0,0-8.411,2.732,1.969,1.969,0,0,1,.348.369l1.156,1.592a1.965,1.965,0,0,1-3.182,2.308L9.853,8.249a1.969,1.969,0,0,1-.24-.439,20.3,20.3,0,0,0-5.2,7.153,1.963,1.963,0,0,1,.5.094l1.871.607A1.966,1.966,0,1,1,5.565,19.4L3.7,18.793a1.966,1.966,0,0,1-.46-.218,20.442,20.442,0,0,0,0,8.85,1.945,1.945,0,0,1,.459-.218L5.566,26.6a1.966,1.966,0,1,1,1.217,3.739l-1.871.61a1.966,1.966,0,0,1-.5.093,20.291,20.291,0,0,0,5.2,7.153,1.955,1.955,0,0,1,.243-.444l1.154-1.59a1.966,1.966,0,1,1,3.18,2.312l-1.156,1.59a1.966,1.966,0,0,1-.348.368A20.106,20.106,0,0,0,21.1,43.16a1.953,1.953,0,0,1-.065-.5V40.692a1.966,1.966,0,0,1,3.932,0v1.965a1.984,1.984,0,0,1-.064.5,20.118,20.118,0,0,0,8.411-2.732,1.98,1.98,0,0,1-.348-.369l-1.156-1.592a1.965,1.965,0,1,1,3.181-2.31l1.156,1.592a1.974,1.974,0,0,1,.241.442,20.3,20.3,0,0,0,5.2-7.154,1.964,1.964,0,0,1-.5-.094l-1.871-.607A1.966,1.966,0,1,1,40.435,26.6l1.868.609a1.965,1.965,0,0,1,.46.218,20.434,20.434,0,0,0,0-8.85,1.946,1.946,0,0,1-.459.218l-1.869.609a1.966,1.966,0,1,1-1.217-3.739l1.871-.61a1.966,1.966,0,0,1,.5-.093,20.291,20.291,0,0,0-5.2-7.153,1.955,1.955,0,0,1-.243.444l-1.154,1.59a1.966,1.966,0,1,1-3.18-2.312l1.156-1.59a1.965,1.965,0,0,1,.348-.368A20.106,20.106,0,0,0,24.9,2.84Zm-4.814,28.6a3.012,3.012,0,0,1,2.263,1.207.929.929,0,0,0,1.3.189l.086-.075.079-.084.049-.063a3.139,3.139,0,0,1,4.415-.456l.191.167.175.181.57.641a.75.75,0,0,0,.938.151l.124-.09.041-.039a.983.983,0,0,1,1.418,1.362l-.095.092a2.717,2.717,0,0,1-3.7.03l-.2-.2-.57-.643a1.173,1.173,0,0,0-1.639-.11l-.148.151-.051.063a2.892,2.892,0,0,1-4.374.134l-.189-.23a1.045,1.045,0,0,0-1.469-.208l-.139.128-.773.846a2.475,2.475,0,0,1-3.753-.118.984.984,0,1,1,1.531-1.235.513.513,0,0,0,.715.077l.055-.053.772-.846a3.016,3.016,0,0,1,2.373-.971Zm1.61-3.186.218.22.2.242.167.222a.983.983,0,0,0,1.376.2l.092-.079.083-.09.234-.287a3.446,3.446,0,0,1,4.847-.5l.207.185.192.2.665.747a.983.983,0,0,0,1.388.079l.055-.051a.983.983,0,1,1,1.539,1.211l-.11.138-.177.171a2.949,2.949,0,0,1-3.952-.026l-.212-.214-.664-.745a1.48,1.48,0,0,0-2.1-.108l-.149.159-.234.287a2.949,2.949,0,0,1-4.472.122l-.181-.22-.165-.222a1.335,1.335,0,0,0-1.9-.25l-.157.148-.884.963a2.687,2.687,0,0,1-4.073-.128.983.983,0,0,1,1.407-1.362l.122.128a.721.721,0,0,0,1.016.108l.079-.073.882-.963a3.3,3.3,0,0,1,4.663-.207Zm1.515-15.164q1.094,1.266,2.078,2.621.612.838,1.154,1.724a6.967,6.967,0,0,1,1.227,3.107,4.458,4.458,0,0,1-8.916,0,6.969,6.969,0,0,1,1.227-3.107q.542-.885,1.154-1.724.8-1.1,1.676-2.147.213-.255.4-.474ZM20.426,21.03a2.788,2.788,0,1,0,5.573,0c0-1.585-1.443.786-2.786,0l-.071-.041-.212-.123q-.175-.1-.353-.2l-.14-.075c-1.067-.566-2.011-.841-2.011.438Z" transform="translate(408 595)" fill="#fff"/></g></svg>