<?xml version="1.0" encoding="UTF-8"?>
<svg width="18px" height="18px" viewBox="0 0 18 18" version="1.1" xmlns="http://www.w3.org/2000/svg" xmlns:xlink="http://www.w3.org/1999/xlink">
    <title>runtimeCarbonReport</title>
    <g id="页面-1" stroke="none" stroke-width="1" fill="none" fill-rule="evenodd">
        <g id="图标4" transform="translate(-108.000000, -336.000000)">
            <g id="runtimeCarbonReport" transform="translate(108.000000, 336.000000)">
                <path d="M11.6213497,0 C12.6235088,0 13.4776422,0.641444945 13.7950492,1.53077535 L15.355215,1.53055215 C16.1701843,1.53055215 16.8460124,2.16662577 16.885767,2.98159509 L16.885767,16.4694479 C16.885767,17.2844172 16.2397543,17.9602454 15.424785,18 L2.530552,18 C1.71558267,18 1.0397546,17.3639264 1,16.5489571 L1,3.06110429 C1,2.24613497 1.64601267,1.57030675 2.460982,1.53055215 L4.08077906,1.53077535 C4.39818597,0.641444945 5.25231937,0 6.25447853,0 L6.25447853,0 Z M4.08110535,3.0617947 L2.530552,3.06110429 L2.530552,16.4694479 L15.355215,16.4694479 L15.355215,3.06110429 L13.7947229,3.0617947 C13.4770572,3.95065077 12.6231656,4.59165644 11.6213497,4.59165644 L11.6213497,4.59165644 L6.25447853,4.59165644 C5.25266258,4.59165644 4.39877101,3.95065077 4.08110535,3.0617947 Z M8.92236328,7 C10.012207,7 10.809082,7.35742188 11.3129883,8.07226562 C11.5913086,8.47363281 11.7407227,8.87646484 11.7612305,9.28076172 L11.7612305,9.28076172 L10.4077148,9.28076172 L10.3519922,9.10357422 C10.2737109,8.87951172 10.1794922,8.70419922 10.0693359,8.57763672 C9.82324219,8.29638672 9.45849609,8.15576172 8.97509766,8.15576172 C8.48291016,8.15576172 8.09472656,8.35424805 7.81054687,8.7512207 C7.52636719,9.14819336 7.38427734,9.70996094 7.38427734,10.4365234 C7.38427734,11.1630859 7.53442383,11.7072754 7.8347168,12.0690918 C8.13500977,12.4309082 8.51660156,12.6118164 8.97949219,12.6118164 C9.45410156,12.6118164 9.81591797,12.456543 10.0649414,12.1459961 C10.2026367,11.9790039 10.3168945,11.7285156 10.4077148,11.3945312 L10.4077148,11.3945312 L11.7480469,11.3945312 L11.7022298,11.625 C11.5620388,12.2265625 11.2777507,12.7239583 10.8493652,13.1171875 C10.3674316,13.5595703 9.75,13.7807617 8.99707031,13.7807617 C8.06542969,13.7807617 7.33300781,13.4819336 6.79980469,12.8842773 C6.26660156,12.2836914 6,11.4604492 6,10.4145508 C6,9.28369141 6.30322266,8.41210938 6.90966797,7.79980469 C7.43701172,7.26660156 8.10791016,7 8.92236328,7 Z M11.6213497,1.53055215 L6.25447853,1.53055215 C5.82711656,1.53055215 5.48920245,1.87840491 5.48920245,2.29582822 C5.48920245,2.71325153 5.83705521,3.06110429 6.25447853,3.06110429 L6.25447853,3.06110429 L11.6213497,3.06110429 C12.038773,3.06110429 12.3866258,2.71325153 12.3866258,2.29582822 C12.3866258,1.87840491 12.038773,1.53055215 11.6213497,1.53055215 L11.6213497,1.53055215 Z" id="形状结合" fill="#FFFFFF" fill-rule="nonzero"></path>
                <rect id="矩形" x="0" y="0" width="18" height="18"></rect>
            </g>
        </g>
    </g>
</svg>