<?xml version="1.0" encoding="UTF-8"?>
<svg width="18px" height="19px" viewBox="0 0 18 19" version="1.1" xmlns="http://www.w3.org/2000/svg" xmlns:xlink="http://www.w3.org/1999/xlink">
    <title>runtimeCarbonExamine</title>
    <g id="页面-1" stroke="none" stroke-width="1" fill="none" fill-rule="evenodd">
        <g id="图标4" transform="translate(-108.000000, -159.000000)">
            <g id="runtimeCarbonExamine" transform="translate(108.000000, 159.000000)">
                <path d="M14.0192593,6.92404942 C13.0236771,6.92404942 12.136856,6.48691356 11.5114799,5.80297371 L7.69856749,8.00538552 C7.79268766,8.3233025 7.85961756,8.65167729 7.85961756,8.9988761 C7.85961756,9.56359708 7.71320841,10.0864869 7.47686222,10.5570877 L11.1412739,12.6737456 C11.7499176,11.7137199 12.8082465,11.0737028 14.0192593,11.0737028 C15.9100288,11.0737028 17.4410501,12.6235481 17.4410501,14.5331417 C17.4410501,16.4427352 15.9079372,17.9925805 14.0192593,17.9925805 C12.1284898,17.9925805 10.5974685,16.4427352 10.5974685,14.5331417 C10.5974685,14.4055565 10.6204756,14.2842461 10.6351166,14.1587526 L6.48964629,11.7681005 L6.50219566,11.7409102 C5.92701689,12.1864123 5.21588677,12.4604065 4.4357352,12.4604065 C2.54496571,12.4604065 1.0139444,10.9105612 1.0139444,9.00096768 C1.0139444,7.08928261 2.54705726,5.54152882 4.4357352,5.54152882 C5.43131736,5.54152882 6.31813845,5.97866468 6.94351464,6.66260453 L10.756427,4.46019272 C10.6623068,4.14227573 10.5953769,3.81390095 10.5953769,3.46461056 C10.5953769,1.55292549 12.1284898,0.00517170921 14.0171677,0.00517170921 C15.9079372,0.00517170921 17.4389585,1.55501704 17.4389585,3.46461056 C17.4410501,5.37420408 15.9100288,6.92404942 14.0192593,6.92404942 Z M14.0192593,16.6121515 C15.1528844,16.6121515 16.0731704,15.6834992 16.0731704,14.5352332 C16.0731704,13.3890588 15.1528843,12.458315 14.0192593,12.458315 C12.8856342,12.458315 11.9653482,13.3869672 11.9653482,14.5352332 C11.9653482,15.6834992 12.8856342,16.6121515 14.0192593,16.6121515 Z M4.4357352,6.92404942 C3.30211013,6.92404942 2.38182411,7.85270168 2.38182411,9.00096768 C2.38182411,10.1471421 3.30211015,11.0778859 4.4357352,11.0778859 C5.56936026,11.0778859 6.48964629,10.1492337 6.48964629,9.00096768 C6.48964629,7.85479325 5.56936026,6.92404942 4.4357352,6.92404942 L4.4357352,6.92404942 Z M14.0192593,1.38769232 C12.8856342,1.38769232 11.9653482,2.31634459 11.9653482,3.46461056 C11.9653482,4.61078499 12.8856342,5.54152882 14.0192593,5.54152882 C15.1528843,5.54152882 16.0731704,4.61287656 16.0731704,3.46461056 C16.0731704,2.31843614 15.1528843,1.38769232 14.0192593,1.38769232 Z" id="形状" fill="#FFFFFF" fill-rule="nonzero"></path>
                <rect id="矩形" x="0" y="0" width="18" height="18"></rect>
            </g>
        </g>
    </g>
</svg>