<?xml version="1.0" encoding="UTF-8"?>
<svg width="18px" height="18px" viewBox="0 0 18 18" version="1.1" xmlns="http://www.w3.org/2000/svg" xmlns:xlink="http://www.w3.org/1999/xlink">
    <title>runtimeCarbonFlow</title>
    <g id="页面-1" stroke="none" stroke-width="1" fill="none" fill-rule="evenodd">
        <g id="图标4" transform="translate(-108.000000, -266.000000)">
            <g id="runtimeCarbonFlow" transform="translate(108.000000, 266.000000)">
                <path d="M16.0907838,8.92908225 C15.9641827,9.03590316 13.0367102,11.4886504 9.13208705,8.83018115 C8.04813487,8.09041252 6.94044257,7.63150755 5.84067007,7.46140539 C4.95848,7.32688444 4.08023051,7.3743647 3.22968106,7.60776743 C1.75012448,8.01525155 0.879794815,8.83810096 0.867915093,8.84602078 C0.741333276,8.96470209 0.670112895,9.12688444 0.670112895,9.30096583 C0.666152988,9.47500859 0.729453554,9.63722957 0.85209478,9.76381138 C0.970776099,9.89041252 1.13295845,9.96161358 1.30703984,9.96161358 C1.48110191,9.96557349 1.64330357,9.90227292 1.7699047,9.77965101 C1.77782452,9.7717312 2.45825249,9.13480426 3.63714586,8.83018115 C5.15626288,8.44249657 6.80594093,8.81040093 8.40813874,9.89831302 C9.80461453,10.8477636 11.2485706,11.3304087 12.7044063,11.3422691 L12.7479267,11.3422691 C15.2560547,11.3422691 16.9334135,9.91809323 16.9492338,9.90227292 C17.2182564,9.66887019 17.2459371,9.25744548 17.0125343,8.98842291 C16.7712118,8.72733946 16.3597871,8.69567952 16.0907838,8.92908225 L16.0907838,8.92908225 Z M2.53737337,13.6684152 C2.82219694,13.5180932 3.18220081,13.3638114 3.60550524,13.2570098 C4.66571729,12.9840273 6.35889638,12.9444669 8.3804387,14.3211624 C9.7611135,15.2627125 11.1971497,15.7453576 12.6371459,15.7651378 L12.7202266,15.7651378 C15.2046145,15.7651378 16.8503327,14.3844823 16.9215531,14.3251417 C17.1905563,14.0917196 17.2182564,13.6802949 16.9848343,13.4112723 C16.7514316,13.1422691 16.3400069,13.1106284 16.0710036,13.3440505 C15.9483431,13.4508521 13.0208899,15.8996394 9.11230683,13.2451494 C6.02265196,11.1444669 3.48682392,11.7576537 2.07054859,12.4578812 L2.00726734,11.1603065 L0.00946514423,14.4952438 L3.91406894,14.6337054 L2.53737337,13.6684345 L2.53737337,13.6684152 Z M15.347036,5.04821858 C14.2156035,5.64556576 11.9290179,6.33787345 9.15186727,4.45085208 C8.06791509,3.71106413 6.95626288,3.25215917 5.86045029,3.08205701 C4.97826022,2.94755537 4.10001073,2.99501631 3.24946128,3.22843836 C1.78176511,3.63196257 0.895615127,4.45875258 0.887695312,4.46667239 C0.630552455,4.71195484 0.622651957,5.12337955 0.867915093,5.38052241 C1.11317823,5.63766526 1.52462225,5.64952567 1.78572502,5.40426253 C1.86088599,5.33700206 2.53737337,4.71987466 3.68462612,4.43503177 C5.20770304,4.05524768 6.80198103,4.41919214 8.42395905,5.51898395 C9.81649425,6.4684345 11.2644102,6.95106027 12.7202266,6.96293999 L12.763747,6.96293999 C14.0890217,6.96293999 15.1729739,6.5712955 15.9088019,6.19547133 L15.980003,7.61568724 L17.9778052,4.2846905 L14.0732014,4.14622897 L15.347036,5.04821858 Z" id="形状" fill="#FFFFFF" fill-rule="nonzero"></path>
                <rect id="矩形" x="0" y="0" width="18" height="18"></rect>
            </g>
        </g>
    </g>
</svg>