<?xml version="1.0" encoding="UTF-8"?>
<svg width="18px" height="19px" viewBox="0 0 18 19" version="1.1" xmlns="http://www.w3.org/2000/svg" xmlns:xlink="http://www.w3.org/1999/xlink">
    <title>碳排查管理</title>
    <g id="页面-1" stroke="none" stroke-width="1" fill="none" fill-rule="evenodd">
        <g id="图标4" transform="translate(-108.000000, -231.000000)" fill="#FFFFFF" fill-rule="nonzero">
            <g id="碳排查管理" transform="translate(108.000000, 231.000000)">
                <path d="M4.01022625,14.9580056 C5.40449143,16.2221394 7.18851694,16.9105405 9.06810811,16.9105405 C10.706931,16.9105405 12.2667829,16.3889949 13.5672973,15.4043243 C13.8834287,15.1672258 14.3521954,15.243242 14.5437838,15.5521622 C14.6400333,15.6804949 14.6980204,15.8288293 14.7004688,15.9497679 L14.6916216,16.0345946 C14.6916216,16.248613 14.5829946,16.4224162 14.4130251,16.5498777 C13.6334793,17.1242798 12.8028117,17.5649388 11.9203991,17.8657284 C10.9732973,18.174566 10.0223555,18.3305405 9.04864865,18.3305405 C6.93146354,18.3305405 4.88818992,17.5805737 3.30524592,16.239363 L3.05918919,16.0227027 C2.8913501,15.8968234 2.80243243,15.6967586 2.80243243,15.4897297 C2.80243243,15.3500423 2.84059071,15.2294347 2.91098362,15.113273 L2.96972973,15.0267568 L3.00224236,14.9892694 C3.2707945,14.7207172 3.71319417,14.6980301 4.01022625,14.9580056 Z M16.2486486,11.1891892 C17.1632432,11.1891892 17.9027027,11.9286486 17.9027027,12.8237838 C17.9027027,13.7189189 17.1632432,14.4583784 16.2486486,14.4583784 C15.3340541,14.4583784 14.5945946,13.7383784 14.5945946,12.8237838 C14.5945946,11.9286486 15.3340541,11.1891892 16.2486486,11.1891892 Z M1.65405405,11.1891892 C2.56864865,11.1891892 3.30810811,11.9286486 3.30810811,12.8237838 C3.30810811,13.7189189 2.56864865,14.4583784 1.65405405,14.4583784 C0.739459459,14.4583784 -1.60871316e-12,13.7383784 -1.60871316e-12,12.8237838 C-1.60871316e-12,11.9286486 0.739459459,11.1891892 1.65405405,11.1891892 Z M9.12236328,6.2 C10.212207,6.2 11.009082,6.55742188 11.5129883,7.27226563 C11.7913086,7.67363281 11.9407227,8.07646484 11.9612305,8.48076172 L11.9612305,8.48076172 L10.6077148,8.48076172 L10.5519922,8.30357422 C10.4737109,8.07951172 10.3794922,7.90419922 10.2693359,7.77763672 C10.0232422,7.49638672 9.65849609,7.35576172 9.17509766,7.35576172 C8.68291016,7.35576172 8.29472656,7.55424805 8.01054687,7.9512207 C7.72636719,8.34819336 7.58427734,8.90996094 7.58427734,9.63652344 C7.58427734,10.3630859 7.73442383,10.9072754 8.0347168,11.2690918 C8.33500977,11.6309082 8.71660156,11.8118164 9.17949219,11.8118164 C9.65410156,11.8118164 10.015918,11.656543 10.2649414,11.3459961 C10.4026367,11.1790039 10.5168945,10.9285156 10.6077148,10.5945313 L10.6077148,10.5945313 L11.9480469,10.5945313 L11.9022298,10.825 C11.7620388,11.4265625 11.4777507,11.9239583 11.0493652,12.3171875 C10.5674316,12.7595703 9.95,12.9807617 9.19707031,12.9807617 C8.26542969,12.9807617 7.53300781,12.6819336 6.99980469,12.0842773 C6.46660156,11.4836914 6.2,10.6604492 6.2,9.61455078 C6.2,8.48369141 6.50322266,7.61210938 7.10966797,6.99980469 C7.63701172,6.46660156 8.30791016,6.2 9.12236328,6.2 Z M5.48926573,2.0229347 C5.56478778,2.17397879 5.59252072,2.34962078 5.54010198,2.58187863 C5.47779225,2.73765294 5.38023521,2.867729 5.22043195,2.98531257 C2.92939651,4.3636591 1.57683042,6.76093109 1.59540541,9.41837838 C1.59540541,9.82573209 1.28302939,10.1381081 0.875675676,10.1381081 C0.472018927,10.1381081 0.155945946,9.81032872 0.155945946,9.41837838 C0.155945946,7.87527342 0.572100006,6.3355034 1.3498814,4.96415286 C2.04179619,3.74862688 3.02694456,2.70536485 4.19564584,1.94569768 L4.48175676,1.76766892 L4.56416402,1.72135599 C4.89469758,1.56308989 5.30127318,1.68392457 5.48926573,2.0229347 Z M12.6942795,1.25672983 C14.2217352,1.9400653 15.5418207,3.06709479 16.5009473,4.49558466 C17.4638042,5.93986999 17.979269,7.63725898 17.9997297,9.39891892 C17.9997297,9.80627264 17.6873537,10.1186486 17.28,10.1186486 C16.8763433,10.1186486 16.5602703,9.79086926 16.5602703,9.39891892 C16.5602703,6.52408836 14.9265258,3.91740031 12.3788508,2.66070977 L12.1294727,2.54334522 C11.9432395,2.46885193 11.8143913,2.34000375 11.7518153,2.18030854 C11.6828553,2.04238853 11.6690633,1.88626872 11.7043377,1.73425576 L11.7450308,1.60920289 C11.9021907,1.25559309 12.3431378,1.10066573 12.6942795,1.25672983 Z M8.5427027,3.24185123e-13 C9.4572973,3.24185123e-13 10.1967568,0.72 10.1967568,1.63459459 C10.1967568,2.52972973 9.4572973,3.26918919 8.5427027,3.26918919 C7.62810811,3.26918919 6.88864865,2.54918919 6.88864865,1.63459459 C6.88864865,0.739459459 7.62810811,3.24185123e-13 8.5427027,3.24185123e-13 Z" id="形状结合"></path>
            </g>
        </g>
    </g>
</svg>