<?xml version="1.0" encoding="UTF-8"?>
<svg width="18px" height="18px" viewBox="0 0 18 18" version="1.1" xmlns="http://www.w3.org/2000/svg" xmlns:xlink="http://www.w3.org/1999/xlink">
    <title>runtimeCarbonMarket</title>
    <g id="页面-1" stroke="none" stroke-width="1" fill="none" fill-rule="evenodd">
        <g id="图标4" transform="translate(-108.000000, -302.000000)">
            <g id="runtimeCarbonMarket" transform="translate(108.000000, 302.000000)">
                <path d="M17.7898025,5.12182554 L16.2546255,1.41671257 C16.2031635,1.29334764 16.1163815,1.18794849 16.0051882,1.11376423 C15.8332787,0.998736554 15.8216917,1.0000003 9.01083154,1.0000003 C2.14730305,1.00105396 2.14730305,1.00105396 1.957697,1.15905901 C1.87481978,1.22830846 1.80979295,1.31645593 1.76809095,1.41608055 L0.203840998,5.15089847 C-0.127126903,6.13579658 -0.052548522,7.1666215 0.409247557,7.97729272 C0.729049768,8.54084404 1.19000315,8.97567393 1.72068943,9.28009698 L1.72068943,15.0923652 C1.72230991,16.2061366 2.6241184,17.1089811 3.73788718,17.1118804 L14.2654473,17.1118804 C15.3797102,17.1099088 16.2824751,16.2070497 16.2843305,15.0927866 L16.2843305,9.3234957 C16.6330809,9.13738334 16.9455574,8.89012799 17.2068692,8.59351239 C17.9846754,7.70383865 18.2138881,6.39071139 17.7898025,5.12182554 Z M10.0966422,15.7635707 L7.90753498,15.7635707 L7.90753498,12.8101404 L10.0966422,12.8101404 L10.0966422,15.7635707 Z M14.2654473,15.7635707 L11.4449519,15.7635707 L11.4449519,12.1359855 C11.4449519,11.7636601 11.1431225,11.4618306 10.7707971,11.4618306 L7.23338012,11.4618306 C6.86105467,11.4618306 6.55922526,11.7636601 6.55922526,12.1359855 L6.55922526,15.7635707 L3.73788718,15.7635707 C3.36769812,15.7629904 3.06777779,15.4629758 3.06731376,15.0927866 L3.06731376,9.70291848 C3.97573744,9.78508111 4.87910495,9.53627583 5.58317543,8.96556161 C5.81546086,8.77800053 6.02257702,8.56125435 6.19939511,8.32069035 C6.85856006,9.21111949 7.90032357,9.73695936 9.00818649,9.73845406 C10.1160494,9.73994876 11.159228,9.21692184 11.8207933,8.32827459 C12.0416976,8.6248124 12.3080377,8.88461138 12.6099758,9.09807517 C13.2898188,9.58051724 14.1078636,9.79329737 14.935178,9.72124707 L14.935178,15.0934186 C14.9343679,15.4630329 14.6350611,15.7625281 14.2654473,15.7635707 Z M16.1922662,7.70657741 C15.9607436,7.97452632 15.659723,8.17333555 15.3223957,8.28108375 C14.6366538,8.49470657 13.9502799,8.39526873 13.3911527,7.9987814 C12.8434019,7.60945697 12.5151728,7.00250692 12.4922094,6.35552893 C12.4920725,5.99560439 12.2116757,5.69803489 11.8523943,5.67652859 L11.8180545,5.67652859 C11.4526384,5.67865661 11.1538436,5.96843921 11.1405289,6.3336189 C11.1044788,7.48296685 10.1598925,8.39467518 9.00998885,8.39000189 C7.85486663,8.39000189 6.91905542,7.48621304 6.87965949,6.35595028 C6.88446747,5.98372348 6.58745527,5.67764727 6.21525211,5.67126698 C5.84304894,5.66488669 5.53572082,5.96060331 5.52776833,6.33277621 C5.50646458,6.95053196 5.21786855,7.52856966 4.73690041,7.91682945 C4.24877016,8.31184207 3.63170779,8.4675297 2.99694885,8.35397674 C2.41422624,8.24864005 1.89807643,7.86942794 1.58122365,7.31114345 C1.30903362,6.83354686 1.27300847,6.20236938 1.46429991,5.6257563 L2.83725842,2.34936368 C4.85361347,2.34746762 13.1533025,2.34493954 15.1810339,2.34746762 L16.5257622,5.59373394 C16.7846798,6.36564126 16.6565903,7.17546978 16.1922662,7.70615606 L16.1922662,7.70657741 Z" id="形状" fill="#FFFFFF" fill-rule="nonzero"></path>
                <rect id="矩形" x="0" y="0" width="18" height="18"></rect>
            </g>
        </g>
    </g>
</svg>