<svg xmlns="http://www.w3.org/2000/svg" width="64" height="64" viewBox="0 0 64 64">
  <g id="组_4" data-name="组 4" transform="translate(-402 -250)">
    <rect id="矩形_6" data-name="矩形 6" width="64" height="64" transform="translate(402 250)" fill="none"/>
    <path id="路径_7" data-name="路径 7" d="M65.143,56.713V51.945a1.5,1.5,0,0,0-1.5-1.5H55.192V46a1.432,1.432,0,0,0-2.864,0v4.438H41.49V46a1.432,1.432,0,0,0-2.864,0v4.438H27.788V46a1.432,1.432,0,0,0-2.864,0v4.438H14.086V46a1.432,1.432,0,0,0-2.864,0v4.438H2.646a1.5,1.5,0,0,0-1.5,1.5V97.6a1.5,1.5,0,0,0,1.5,1.5h8.075v2.434a1.5,1.5,0,0,0,1.5,1.5h9.822a1.5,1.5,0,0,0,1.5-1.5V99.1H42.728v2.434a1.5,1.5,0,0,0,1.5,1.5h9.815a1.5,1.5,0,0,0,1.5-1.5V99.1h8.089a1.5,1.5,0,0,0,1.5-1.5V62.282H62.279V96.237H52.686v3.937H45.592V96.237H20.686v3.937H13.592V96.237H4.006V53.305H62.279v3.408h2.864ZM30.473,86.751a1.734,1.734,0,0,1-.566-.093,1.8,1.8,0,0,1-1.238-1.711V76.858H24.6a1.792,1.792,0,0,1-1.432-2.878L33.558,60.249a1.8,1.8,0,0,1,3.221,1.281l-.845,7.646H40.76a1.8,1.8,0,0,1,1.446,2.864L31.919,86.021a1.794,1.794,0,0,1-1.446.73ZM26.75,74h2.985a1.8,1.8,0,0,1,1.8,1.8v5.913l7.123-9.672H34.746a1.776,1.776,0,0,1-1.339-.6,1.809,1.809,0,0,1-.451-1.4l.551-4.99L26.75,74Z" transform="translate(400.857 208.428)" fill="#bcbcbc"/>
  </g>
</svg>
