<svg xmlns="http://www.w3.org/2000/svg" width="64" height="64" viewBox="0 0 64 64">
  <g id="组_71" data-name="组 71" transform="translate(-259 -725)">
    <g id="组_63" data-name="组 63">
      <g id="组_62" data-name="组 62" transform="translate(187 110)">
        <g id="组_27" data-name="组 27" transform="translate(-6 266)">
          <rect id="矩形_4" data-name="矩形 4" width="64" height="64" transform="translate(78 349)" fill="none"/>
        </g>
        <g id="组_31" data-name="组 31" transform="translate(-6 266)">
          <rect id="矩形_4-2" data-name="矩形 4" width="64" height="64" transform="translate(78 349)" fill="none"/>
        </g>
      </g>
      <path id="路径_28" data-name="路径 28" d="M77.542,91.383H45.506a1.1,1.1,0,1,1,0-2.207H77.542a1.4,1.4,0,0,0,0-2.794H36.709a3.563,3.563,0,1,1,0-7.126h8.944a1.1,1.1,0,0,1,0,2.207H36.709a1.356,1.356,0,1,0,0,2.712H77.542a3.6,3.6,0,0,1,0,7.208Zm-20.227-8.8a2.3,2.3,0,0,0,1.958-1.156c1.544-2.668,4.331-7.444,5.641-9.457a55.268,55.268,0,0,0,3.62-6.24,17.554,17.554,0,0,0,2.025-7.439,13.725,13.725,0,0,0-3.91-9.653,13.151,13.151,0,0,0-9.469-4.011h-.234a13.152,13.152,0,0,0-9.469,4.011,13.725,13.725,0,0,0-3.91,9.653,17.552,17.552,0,0,0,2.025,7.439,55.351,55.351,0,0,0,3.62,6.24c1.325,2.037,4.388,6.851,6.1,9.539a2.3,2.3,0,0,0,1.955,1.075h.049Zm-.134-35.749A11.329,11.329,0,0,1,68.353,58.293c0,4.344-3.572,9.836-5.289,12.476-1.337,2.055-4.146,6.869-5.7,9.555a.1.1,0,0,1-.093.055h0a.1.1,0,0,1-.093-.051c-1.71-2.692-4.779-7.513-6.109-9.559-1.717-2.639-5.289-8.131-5.289-12.476A11.329,11.329,0,0,1,56.946,46.837h.234ZM63.989,71.37Zm.169-14.434a7.093,7.093,0,1,0-7.093,7.093,7.1,7.1,0,0,0,7.093-7.093Zm-2.207,0a4.886,4.886,0,1,1-4.886-4.886A4.892,4.892,0,0,1,61.95,56.937Z" transform="translate(233.854 689.37)" fill="#bcbcbc"/>
    </g>
  </g>
</svg>
