<svg xmlns="http://www.w3.org/2000/svg" width="64" height="64" viewBox="0 0 64 64">
  <g id="组_6" data-name="组 6" transform="translate(-559 -236)">
    <rect id="矩形_8" data-name="矩形 8" width="64" height="64" transform="translate(559 236)" fill="none"/>
    <path id="路径_9" data-name="路径 9" d="M99.77,185.466c-21.012,2.242-34.009,23.985-26.238,43.87,1.487,3.8-2.416,3.357,29.653,3.357,19.455,0,27.655-.07,27.981-.256.569-.3,1.777-2.846,2.613-5.517C140.655,205.014,122.606,183.027,99.77,185.466Zm9.757,3.055c17.759,4.112,27.818,22.87,21.186,39.526l-.7,1.742-26.726.058-26.738.058-.325-.639c-2.172-4.239-3.043-12.37-1.893-17.829C77.679,195.408,93.835,184.9,109.527,188.521Zm-11.569,2.718a29.371,29.371,0,0,0-4.936,1.51c-.314.186.778,3.02,1.162,3,.07,0,.755-.151,1.522-.337a28.2,28.2,0,0,1,3.543-.5l2.149-.151v-3.879l-.987.023A14.726,14.726,0,0,0,97.958,191.238Zm6.737,1.777.07,2.137,1.278.267a20.765,20.765,0,0,1,4.9,1.638l1.069.534,1.185-2.137c1.069-1.9,1.15-2.172.813-2.416-1-.767-6.481-2.16-8.467-2.16h-.918Zm-16.319,2.23a28.01,28.01,0,0,0-3.124,2.451L83.858,199l.743.7.755.685,2.23-1.487a21.68,21.68,0,0,1,3.02-1.777c.952-.348.941-.232.139-1.777l-.639-1.231Zm28.41-.36c-.116.163-.685,1.162-1.243,2.218l-1.022,1.928.7.488a41.094,41.094,0,0,1,3.055,2.869l2.358,2.393,2.114-1.289a9.478,9.478,0,0,0,2.114-1.522c0-.8-3.961-4.809-6.272-6.365C117.065,194.584,117.03,194.572,116.786,194.886ZM80.8,202.9c-1.069,1.649-2.207,4-2.056,4.251.337.534,1.034.174,1.615-.836A23.9,23.9,0,0,1,82.011,204l1.022-1.254-.674-.476C81.511,201.669,81.639,201.611,80.8,202.9Zm29.084,6.214c-5.482,5.227-6.028,5.691-6.783,5.691a2.4,2.4,0,0,0-1.928,3.5c1.115,2.091,4.646.906,4.332-1.452l-.128-.952,4.553-5.366c2.5-2.95,4.913-5.761,5.366-6.237C117.425,202.052,115.311,203.922,109.887,209.114Zm14.391-3.217c-1.15.72-2.126,1.336-2.16,1.371a3.387,3.387,0,0,0,.441,1.069,29.2,29.2,0,0,1,1.963,5.889l.163,1.045h2.52c2.95,0,2.788.221,2.184-2.973-.5-2.625-2.4-7.724-2.881-7.712C126.427,204.6,125.428,205.177,124.278,205.9ZM77.26,211.263c-.418,1.591-.662,4.03-.395,3.937a2.914,2.914,0,0,0,.5-1.336,20.936,20.936,0,0,1,.546-2.137c.279-.848.209-1.336-.209-1.336C77.586,210.392,77.388,210.787,77.26,211.263ZM125.08,218.7c-.023.86-.476,4.878-.581,5.215-.128.383.046.418,2.184.418h2.323l.267-1.22a27.57,27.57,0,0,0,.395-2.9l.139-1.684h-2.358A8.462,8.462,0,0,0,125.08,218.7Z" transform="translate(487.74 58.72)" fill="#bcbcbc"/>
  </g>
</svg>
