<svg xmlns="http://www.w3.org/2000/svg" width="64" height="64.096" viewBox="0 0 64 64.096">
  <g id="组_5" data-name="组 5" transform="translate(-462 -250)">
    <rect id="矩形_7" data-name="矩形 7" width="64" height="64" transform="translate(462 250)" fill="none"/>
    <path id="路径_8" data-name="路径 8" d="M62.649,21.187a38.146,38.146,0,0,0-1.777-3.914,2.756,2.756,0,0,0-4.449-.533l-7.29,7.292L40.6,32.569l-2.669,2.667c-1.777-1.956-4.98-5.156-11.2-11.2a1.719,1.719,0,0,0-2.491,0l-12.45,12.45a1.719,1.719,0,0,0,0,2.489,1.922,1.922,0,0,0,1.246.533,1.922,1.922,0,0,0,1.244-.533l11.206-11.2C29.923,32.036,35.792,37.905,36.5,38.793a1.616,1.616,0,0,0,1.423.711,2.185,2.185,0,0,0,1.423-.711L58.2,19.942c.535,1.066.89,2.134,1.423,3.379a27.6,27.6,0,0,1,1.423,11.561A28.451,28.451,0,0,1,4.311,30.613,28.737,28.737,0,0,1,31.344,3.935a28.79,28.79,0,0,1,12.45,2.311,1.765,1.765,0,0,0,2.313-.888,1.82,1.82,0,0,0-.89-2.491A30.558,30.558,0,0,0,29.035.554a32.025,32.025,0,0,0,6.936,63.672A32.318,32.318,0,0,0,64.426,35.771a33.033,33.033,0,0,0-1.777-14.584Z" transform="translate(461.399 249.687)" fill="#bcbcbc"/>
  </g>
</svg>
