<svg xmlns="http://www.w3.org/2000/svg" width="64" height="64" viewBox="0 0 64 64">
  <g id="组_3" data-name="组 3" transform="translate(-280 -255)">
    <rect id="矩形_5" data-name="矩形 5" width="64" height="64" transform="translate(280 255)" fill="none"/>
    <g id="组_2" data-name="组 2" transform="translate(216.001 173.7)">
      <path id="路径_1" data-name="路径 1" d="M96,143.312c-10.092,0-20.185-.029-30.27.036-1.394.007-1.723-.379-1.723-1.751q.075-25.646-.007-51.291c-.007-1.544.536-1.787,1.866-1.758,3.188.064,3.195.014,3.195-3.181,0-3.066,0-3.066,3-3.066H121c2.051,0,2.044.007,2.059,2.016.007,1.308-.407,2.9.193,3.838.686,1.058,2.409.357,3.667.393,1.165.029,1.044.715,1.044,1.451q-.011,11.761,0,23.53c0,9.356-.029,18.72.036,28.076.007,1.372-.336,1.758-1.723,1.744C116.184,143.284,106.091,143.312,96,143.312Zm.007-51.634H69.188c-2.051,0-2.051,0-2.051,1.994v43.279c0,3.252.007,3.159,3.3,3.288,1.6.064,2-.407,1.994-1.994-.064-12.287-.014-24.566-.071-36.853-.007-1.451.415-1.823,1.837-1.8q8.62.118,17.247,0c1.415-.021,1.844.343,1.837,1.8-.057,12.387-.014,24.774-.057,37.168-.007,1.3.35,1.68,1.665,1.673q14.2-.075,28.383,0c1.358.007,1.615-.45,1.615-1.7q-.064-22.579.007-45.159c.007-1.415-.415-1.73-1.765-1.723-9.042.057-18.083.029-27.125.029Zm-20.5,25.774c0,4.5.029,8.992-.021,13.488-.014,1.058.25,1.458,1.379,1.444q5.961-.1,11.915,0c1.136.021,1.387-.386,1.38-1.444q-.054-13.413,0-26.818c.007-1.065-.257-1.444-1.38-1.422q-5.961.1-11.915,0c-1.122-.021-1.394.357-1.387,1.422C75.535,108.568,75.507,113.013,75.507,117.452ZM96,88.368h5.482c5.7,0,11.386.007,17.083-.014.457,0,1.058.286,1.344-.422.579-1.444-.1-2.53-1.615-2.53q-22.258,0-44.508-.021c-1.1,0-1.687.122-1.68,1.487.007,1.308.486,1.522,1.637,1.515C81.161,88.347,88.58,88.368,96,88.368Zm-13.016,47.61H78.13c-2.666,0-2.609,0-2.659,2.623-.021,1.144.272,1.544,1.472,1.522,3.5-.079,6.99.007,10.478-.036,3.081-.043,2.645.665,2.723-2.88.021-.943-.257-1.279-1.229-1.251C86.95,136.029,84.97,135.979,82.983,135.979Z" fill="#bcbcbc"/>
      <path id="路径_2" data-name="路径 2" d="M584.606,349.425c-4.4,4.712-8.523,9.11-12.642,13.514-.107-.064-.207-.129-.315-.193q1.523-3.121,3.053-6.242c1.559-3.175,1.559-3.168-1.952-3.118-1.673.029-1.68.021-.937-1.437,1.423-2.789,2.889-5.556,4.262-8.366a1.538,1.538,0,0,1,1.673-1.023c1.616.064,3.239.021,5.213.021-1.409,2.331-2.7,4.469-4.133,6.85C580.81,349.425,582.49,349.425,584.606,349.425ZM575.94,371.62h-8.466c-1.1,0-2.245-.086-2.3-1.5s1.065-1.6,2.188-1.609q8.623-.011,17.239,0c1.065,0,2.1.157,2.124,1.5.029,1.444-1.044,1.609-2.174,1.609Zm.172,3.8h8.466c1.13,0,2.2.164,2.159,1.616-.036,1.337-1.065,1.494-2.131,1.494H567.367c-1.137,0-2.217-.2-2.181-1.616.029-1.323,1.087-1.487,2.152-1.494C570.256,375.41,573.18,375.417,576.112,375.417Z" transform="translate(-465.367 -241.672)" fill="#bcbcbc"/>
    </g>
  </g>
</svg>
