<svg t="1680078279237" class="icon" viewBox="0 0 1024 1024" version="1.1" xmlns="http://www.w3.org/2000/svg" p-id="58016" width="52" height="52"><path d="M453.2 758c-7.8 0-13.4-2.7-17.2-5.5-12-8.9-12.4-24-12.3-27v-1.7l40-162-56.8-8.8c-15.2-1.9-27.2-11.1-32.1-24.7-5.3-14.6-1.4-31.9 10-44.2l168.9-214.5 4.6-1.4c14.4-4.2 25.9-2.9 34.4 4.1 8.7 7.1 11 18.4 10.3 25.8l-0.1 1.3-0.3 1.2L563.2 449l59.7 18.4c12.6 4.1 21.8 13 26 24.9 4.7 13.4 2.7 29.3-5.3 41.7l-0.4 0.6-172.9 219.9-4.4 1.4c-4.8 1.5-9 2.1-12.7 2.1zM571 296.2L407.6 503.8l-0.5 0.5c-4.5 4.8-5.3 10.4-4 13.9 0.4 1.1 1.6 4.4 7.7 5.1l0.5 0.1 89.5 13.8L454 726.7l164.9-209.5c2.6-4.4 3.4-10.5 1.9-14.9-1.1-3.1-3.3-5.1-7-6.4l-86.9-26.8L572.7 296c-0.5 0-1 0.1-1.7 0.2zM82.3 403.8c-8.3 0-15-6.7-15-15V196.4c0-72.6 59-131.6 131.6-131.6h193c8.3 0 15 6.7 15 15s-6.7 15-15 15h-193c-56 0-101.6 45.6-101.6 101.6v192.3c0 8.3-6.7 15.1-15 15.1zM941.7 403.8c-8.3 0-15-6.7-15-15V196.4c0-56-45.6-101.6-101.6-101.6H633.5c-8.3 0-15-6.7-15-15s6.7-15 15-15h191.6c72.6 0 131.6 59 131.6 131.6v192.3c0 8.3-6.7 15.1-15 15.1zM825.1 954.2h-190c-8.3 0-15-6.7-15-15s6.7-15 15-15h190c56 0 101.6-45.6 101.6-101.6V634.8c0-8.3 6.7-15 15-15s15 6.7 15 15v187.8c0 72.5-59.1 131.6-131.6 131.6zM391.9 954.2h-193c-72.6 0-131.6-59-131.6-131.6V634.8c0-8.3 6.7-15 15-15s15 6.7 15 15v187.8c0 56 45.6 101.6 101.6 101.6h193c8.3 0 15 6.7 15 15s-6.7 15-15 15z" fill="#ffffff" p-id="58017"></path></svg>