<svg xmlns="http://www.w3.org/2000/svg" width="64" height="64" viewBox="0 0 64 64">
  <g id="组_64" data-name="组 64" transform="translate(-259 -75)">
    <g id="组_6" data-name="组 6" transform="translate(181 1)">
      <rect id="矩形_1" data-name="矩形 1" width="64" height="64" transform="translate(78 74)" fill="none"/>
    </g>
    <g id="组_20" data-name="组 20" transform="translate(181 1)">
      <rect id="矩形_1-2" data-name="矩形 1" width="64" height="64" transform="translate(78 74)" fill="none"/>
    </g>
    <path id="路径_23" data-name="路径 23" d="M95.878,76.251a41.857,41.857,0,0,1,6.249,7.921l1.187-1.808a43.337,43.337,0,0,0-6.035-7.514c-8.385-8.386-18.73-12.266-25.69-10.272l1.61,1.61C79.406,65.019,88.406,68.78,95.878,76.251Zm3.054-10.063,1.609-1.61c-3.5-1-7.862-.519-12.4,1.279l2.094,1.278A17.432,17.432,0,0,1,98.933,66.188ZM71.348,71.345a3.964,3.964,0,1,0-5.606,0A3.963,3.963,0,0,0,71.348,71.345Zm-4.2-4.206a1.982,1.982,0,1,1,0,2.8A1.983,1.983,0,0,1,67.143,67.14Zm22.3,36.372a43.212,43.212,0,0,0,7.836-6.235c8.386-8.385,12.265-18.73,10.272-25.69l-1.61,1.611C107.11,79.4,103.35,88.4,95.878,95.876a41.688,41.688,0,0,1-8.188,6.409Zm11.341-32.167a3.964,3.964,0,1,0,0-5.606A3.964,3.964,0,0,0,100.784,71.345Zm1.4-4.206a1.982,1.982,0,1,1,0,2.8A1.983,1.983,0,0,1,102.186,67.14Zm2.75,22.926a17.568,17.568,0,0,1,1,8.864l1.61,1.609c1.008-3.521.513-7.907-1.307-12.467ZM73.2,105.939l-1.61,1.609c3.478,1,7.8.527,12.3-1.238l-1.919-1.343A17.5,17.5,0,0,1,73.2,105.939Zm3.054-10.063a41.864,41.864,0,0,1-6.318-8.034l-1.113,1.929a43.308,43.308,0,0,0,6.03,7.506c8.385,8.386,18.73,12.265,25.689,10.271l-1.609-1.609C92.725,107.108,83.726,103.348,76.254,95.876ZM67.1,81.793a17.349,17.349,0,0,1-.913-8.6L64.58,71.586c-1,3.5-.521,7.849,1.27,12.377Zm33.681,18.989a3.965,3.965,0,1,0,5.607,0A3.964,3.964,0,0,0,100.784,100.782Zm4.2,4.2a1.982,1.982,0,1,1,0-2.8A1.981,1.981,0,0,1,104.989,104.986Zm-33.641-4.2a3.964,3.964,0,1,0,0,5.607A3.964,3.964,0,0,0,71.348,100.782Zm-1.4,4.2a1.982,1.982,0,1,1,0-2.8A1.981,1.981,0,0,1,69.946,104.986ZM66.191,98.93c-1.169-6.208,2.591-15.206,10.063-22.679a41.9,41.9,0,0,1,7.837-6.2l-1.872-1.144a43.455,43.455,0,0,0-7.366,5.941C66.466,83.236,62.586,93.58,64.58,100.54l1.611-1.609Zm17.018-5.223a.857.857,0,0,0,.855-.855V79.129a.853.853,0,0,0-.533-.791.844.844,0,0,0-.933.194l-4.876,5a.854.854,0,1,0,1.221,1.194l3.41-3.492V92.851A.857.857,0,0,0,83.209,93.707ZM88.922,78.42a.857.857,0,0,0-.855.855V93a.858.858,0,0,0,.855.855.844.844,0,0,0,.611-.258l4.876-5a.854.854,0,1,0-1.221-1.194L89.778,90.9V79.275a.857.857,0,0,0-.855-.855Z" transform="translate(204.934 20.937)" fill="#bcbcbc"/>
  </g>
</svg>
