<svg xmlns="http://www.w3.org/2000/svg" width="64" height="64" viewBox="0 0 64 64">
  <g id="组_70" data-name="组 70" transform="translate(-259 -615)">
    <g id="组_56" data-name="组 56" transform="translate(187)">
      <g id="组_27" data-name="组 27" transform="translate(-6 266)">
        <g id="组_9" data-name="组 9">
          <rect id="矩形_4" data-name="矩形 4" width="64" height="64" transform="translate(78 349)" fill="none"/>
          <g id="组_3" data-name="组 3" transform="translate(0.479 258.525)">
            <path id="路径_8" data-name="路径 8" d="M467.041,147.178h6.1V149.5h-6.1Zm0-3.871h5.089v2.323h-5.089Zm0,7.743h5.089v2.323h-5.089Zm0-11.614h7.321v2.323h-7.321Zm0,15.486h7.321v2.323h-7.321Zm-9.791,21.323a8.2,8.2,0,0,1-8.184-8.16,6.929,6.929,0,0,1,.208-1.757c-.714-.208-1.458-.417-2.172-.685a10.968,10.968,0,0,0-.3,2.442,10.418,10.418,0,0,0,20.683,1.787c-.685-.149-1.428-.3-2.2-.447A8.162,8.162,0,0,1,457.25,176.244Z" transform="translate(-342.838 -38.579)" fill="#bcbcbc"/>
            <path id="路径_9" data-name="路径 9" d="M525.772,229.564a5.124,5.124,0,0,0-.119,1.161,5.843,5.843,0,0,0,11.606.952c-.506-.089-1.042-.179-1.577-.268C532.557,230.933,529.194,230.4,525.772,229.564ZM532.706,224V207.364a1.365,1.365,0,0,0-1.369-1.369,1.385,1.385,0,0,0-1.369,1.369v16.725a5.816,5.816,0,0,0-3.184,2.232c3.214.774,6.368,1.28,9.315,1.726.357.06.744.119,1.1.179A5.958,5.958,0,0,0,532.706,224Z" transform="translate(-417.517 -101.271)" fill="#bcbcbc"/>
            <path id="路径_10" data-name="路径 10" d="M480.539,119.544V104.129a5.654,5.654,0,0,0-11.308,0v15.683a10.636,10.636,0,0,0-3.482,3.958c.744.238,1.458.476,2.2.684a7.937,7.937,0,0,1,1.28-1.7,8.091,8.091,0,0,1,2.321-1.667V104.129a3.333,3.333,0,1,1,6.666,0v16.784a8.5,8.5,0,0,1,2.321,1.458,8.179,8.179,0,0,1,2.649,5q1.205.223,2.321.446A10.4,10.4,0,0,0,480.539,119.544Z" transform="translate(-361.021)" fill="#bcbcbc"/>
            <path id="路径_11" data-name="路径 11" d="M133.518,391.554c-.091-2.74-1.706-4.706-4.936-5.987a25.232,25.232,0,0,0-4.3-1.221q-1.143-.223-2.377-.447c-.792-.149-1.645-.268-2.5-.417-.366-.06-.731-.119-1.127-.179-3.017-.477-6.246-.983-9.537-1.728-.792-.179-1.615-.387-2.407-.625-.762-.208-1.524-.447-2.255-.685a44.269,44.269,0,0,1-4.174-1.579c-4.266-1.876-4.3-2.889-4.3-2.919,0,0,.366-1.191,6-2.234,2.56-.477,5.119-.715,6.064-.8v-2.383c-.762.06-3.565.3-6.49.834-5.089.953-7.618,2.264-7.953,4.17-.457,2.472,3.017,4.319,5.7,5.51a40.623,40.623,0,0,0,4.357,1.638c.731.238,1.493.477,2.224.685.762.208,1.524.417,2.285.6,3.5.834,6.947,1.37,10.147,1.876.548.089,1.1.179,1.615.268.823.119,1.615.268,2.346.387.792.149,1.554.3,2.255.447,4.418.953,6.856,2.2,6.947,4.885.061,1.638-1.615,3.038-3.017,3.9-8.075,5.034-27.911,6.612-38.7,1.251l-1.1,2.115c5.058,2.532,11.792,3.634,18.557,3.634,8.806,0,17.582-1.876,22.579-4.974C132.878,395.367,133.579,393.1,133.518,391.554Zm-45.95,2.115c.3.208-.609-.089-.609-.149,0-.03-.122.149-.122.149a10.493,10.493,0,0,0,.7,1.191c.427.625.884,1.162.884,1.162l.183-.209a21.157,21.157,0,0,1-1.31-1.787c.03-.089.609.089.67-.149-.427-.625-1.676-2.5-1.584-2.83-.122-.119-.3.03-.3.03A18.542,18.542,0,0,0,87.568,393.669Zm-3.687-.953a7.255,7.255,0,0,0,1.066,1.251c.152.119,1.249,1.042,1.249,1.042l.183-.268a18.142,18.142,0,0,1-1.737-1.489c-.03-.179.335.03.366-.06a21.53,21.53,0,0,0-1.371-1.787l-.274.149.884.983c0,.03-.335.089-.366.179Zm0,3.425-.183-.179,1.493.715a.31.31,0,0,0,.152-.179,6.105,6.105,0,0,0-2.316-1.1c-.152.119-.091.119-.03.268a.893.893,0,0,0,.213.238,7.838,7.838,0,0,0-1.676-.238.89.89,0,0,0,0,.3,16.452,16.452,0,0,1,2.1.357C83.79,396.409,83.973,396.23,83.881,396.141Zm.7,1.489c-.4.03-.122.208-.091.3a1.988,1.988,0,0,0,.579.238,23.5,23.5,0,0,0-2.468.179c-.03.089.091.3.091.3l2.773-.208s.4-.089.274-.208a1.935,1.935,0,0,0-.335-.238l1.706.477.091-.3A16.046,16.046,0,0,0,84.582,397.63Zm1.371-.715c-.122.089-.03.179.03.179a4.525,4.525,0,0,1,1.8.447c.274.089.091-.119.091-.119A12.581,12.581,0,0,0,85.953,396.915Zm-.152-.953c-.335-.03,0,.179,0,.179a10.211,10.211,0,0,1,2.133,1.162c.152.089.213.06.122-.089A6.1,6.1,0,0,0,85.8,395.962Zm-.152-.6c-.213-.06-.213.03-.061.149a15.931,15.931,0,0,1,2.5,1.579c.091.03.122-.06.091-.089C88.147,397,86.288,395.426,85.649,395.367Zm2.712,1.37s-.975-1.221-.975-1.251-.183-.06-.183.03c.03.089.975,1.34,1.006,1.34.061,0,.152-.119.152-.119Z" transform="translate(0 -256.07)" fill="#bcbcbc"/>
          </g>
        </g>
      </g>
      <g id="组_31" data-name="组 31" transform="translate(-6 266)">
        <g id="组_9-2" data-name="组 9">
          <rect id="矩形_4-2" data-name="矩形 4" width="64" height="64" transform="translate(78 349)" fill="none"/>
        </g>
      </g>
    </g>
  </g>
</svg>
