<svg xmlns="http://www.w3.org/2000/svg" width="64" height="64" viewBox="0 0 64 64">
  <g id="组_65" data-name="组 65" transform="translate(-259 -166)">
    <g id="组_61" data-name="组 61" transform="translate(187)">
      <g id="组_12" data-name="组 12" transform="translate(-6 5)">
        <rect id="矩形_2" data-name="矩形 2" width="64" height="64" transform="translate(78 161)" fill="none"/>
      </g>
      <g id="组_23" data-name="组 23" transform="translate(-6 5)">
        <rect id="矩形_2-2" data-name="矩形 2" width="64" height="64" transform="translate(78 161)" fill="none"/>
      </g>
      <g id="组_46" data-name="组 46" transform="translate(44.968 138.968)">
        <path id="路径_24" data-name="路径 24" d="M412.2,579.319a5.364,5.364,0,0,0-5.34-5.34,5.282,5.282,0,0,0-5.34,5.34" transform="translate(-347.824 -511.688)" fill="#bcbcbc" opacity="0.4"/>
        <path id="路径_25" data-name="路径 25" d="M59.032,35.032a24,24,0,1,0,24,24A23.957,23.957,0,0,0,59.032,35.032Zm0,46.1a22.1,22.1,0,1,1,22.1-22.1A22.106,22.106,0,0,1,59.032,81.134Z" transform="translate(0 0)" fill="#bcbcbc"/>
        <path id="路径_26" data-name="路径 26" d="M200.079,183.242c-9.246,0-16.837,7.163-16.837,15.89a14.859,14.859,0,0,0,2.9,8.857c.138.13.138.26.276.26h.138c.138,0,.276.13.414.13H213.6s.138,0,.138-.13c0,0,.138,0,.138-.13l.138-.13a14.859,14.859,0,0,0,2.9-8.857C216.915,190.406,209.325,183.242,200.079,183.242Zm0,1.823c8.28,0,14.9,6.252,14.9,14.067a13.2,13.2,0,0,1-2.346,7.424h-6.072a6.633,6.633,0,0,0-10.074-4.3l-6.624-4.559a.977.977,0,0,0-1.38.261.862.862,0,0,0,.276,1.3l6.348,4.428a6.056,6.056,0,0,0-1.38,3h-6.21a13.941,13.941,0,0,1-2.346-7.554c0-7.815,6.624-14.067,14.9-14.067Zm0,18.1a4.533,4.533,0,0,1,4.554,3.517h-9.108A4.533,4.533,0,0,1,200.079,203.17Z" transform="translate(-141.047 -140.4)" fill="#bcbcbc"/>
        <path id="路径_27" data-name="路径 27" d="M332.911,288.678a8.521,8.521,0,0,1,7.294-3.907,8.652,8.652,0,0,1,8.466,6.643.98.98,0,0,0,.912.651h.261a.856.856,0,0,0,.651-1.042,10.462,10.462,0,0,0-10.289-8.075,10.316,10.316,0,0,0-8.727,4.689,1.01,1.01,0,0,0,.261,1.3.7.7,0,0,0,1.172-.26Z" transform="translate(-280.982 -235.319)" fill="#bcbcbc"/>
      </g>
    </g>
  </g>
</svg>
