<svg xmlns="http://www.w3.org/2000/svg" width="64" height="64" viewBox="0 0 64 64">
  <g id="组_67" data-name="组 67" transform="translate(-259 -340)">
    <g id="组_55" data-name="组 55" transform="translate(187)">
      <g id="组_25" data-name="组 25" transform="translate(-6 266)">
        <rect id="矩形_1" data-name="矩形 1" width="64" height="64" transform="translate(78 74)" fill="none"/>
        <g id="组_1" data-name="组 1" transform="translate(88 84)">
          <path id="路径_1" data-name="路径 1" d="M312.8,94.89h3.686v1.684H312.8Zm6.53,0h3.686v1.684H319.33Zm6.519,0h3.686v1.684h-3.686ZM312.8,98.74h3.686v1.684H312.8Zm6.53,0h3.686v1.684H319.33Zm6.519,0h3.686v1.684h-3.686Zm-9.177-16.976,1.258,1.094a5.141,5.141,0,0,1,3.183-1.575,4.539,4.539,0,0,1,3.281,1.586l1.192-1.192a6.1,6.1,0,0,0-4.528-2.1,6.672,6.672,0,0,0-4.386,2.188Z" transform="translate(-299.189 -76.251)" fill="#bcbcbc"/>
          <path id="路径_2" data-name="路径 2" d="M334.831,2.682A8.939,8.939,0,0,1,341.5,5.9L342.7,4.678c-2.472-2.6-5.1-3.822-7.919-3.732A11.437,11.437,0,0,0,327.2,4.79l1.258,1.127a9.835,9.835,0,0,1,6.377-3.236Zm.252,38.851a6.614,6.614,0,0,0,4.375-2.255l-1.269-1.127a5.043,5.043,0,0,1-3.172,1.623,4.522,4.522,0,0,1-3.281-1.635l-1.192,1.229a6.13,6.13,0,0,0,4.375,2.142Z" transform="translate(-312.984 -0.901)" fill="#bcbcbc"/>
          <path id="路径_3" data-name="路径 3" d="M99.565,429.332c-2.286.077-4.528-.973-6.661-3.117L91.711,427.4a10.752,10.752,0,0,0,7.657,3.621h.3a11.551,11.551,0,0,0,7.591-3.73l-1.269-1.094a9.932,9.932,0,0,1-6.421,3.139ZM83.485,405.2a6.125,6.125,0,0,0-2.078,4.583,6.683,6.683,0,0,0,2.188,4.375l1.094-1.269a4.988,4.988,0,0,1-1.575-3.183,4.5,4.5,0,0,1,1.575-3.281Z" transform="translate(-78.005 -387.06)" fill="#bcbcbc"/>
          <path id="路径_4" data-name="路径 4" d="M1.774,334.856a11.448,11.448,0,0,0,3.821,7.591l1.124-1.269A9.868,9.868,0,0,1,3.482,334.8c-.079-2.3,1-4.539,3.214-6.672l-1.2-1.192C2.931,329.409,1.706,332.078,1.774,334.856Zm38.367,4.277a6.035,6.035,0,0,0,2.135-4.572,6.621,6.621,0,0,0-2.248-4.375L38.9,331.454a4.939,4.939,0,0,1,1.618,3.194A4.472,4.472,0,0,1,38.9,337.93Z" transform="translate(-1.697 -312.669)" fill="#bcbcbc"/>
          <path id="路径_5" data-name="路径 5" d="M913.11,333.481a11.562,11.562,0,0,0-3.719-7.591l-1.094,1.269a10.019,10.019,0,0,1,3.15,6.388,9.046,9.046,0,0,1-3.139,6.661L909.5,341.4c2.483-2.472,3.708-5.141,3.61-7.919Z" transform="translate(-869.26 -311.668)" fill="#bcbcbc"/>
          <path id="路径_6" data-name="路径 6" d="M40.986,38.005a2.932,2.932,0,0,0-1.794.607l-3.824-4.364V9.752l4.676-3.9a2.852,2.852,0,0,0,.942.157,3,3,0,1,0-2.377-1.2L34.124,8.582H9.9L5.618,4.331A2.98,2.98,0,0,0,2.983.045,2.979,2.979,0,1,0,4.5,5.669L8.59,9.707V34.3L3.925,38.2A2.983,2.983,0,1,0,5.944,41.02a2.93,2.93,0,0,0-.583-1.766l4.564-3.813h24.2l4.037,4.611a3.169,3.169,0,0,0-.146.922,2.97,2.97,0,1,0,2.972-2.969Zm0-36.228a1.26,1.26,0,1,1-1.245,1.248A1.256,1.256,0,0,1,40.986,1.778ZM33.653,10.3v2.969h-2.96V10.3Zm-23.336,0h2.949v2.969H10.317ZM1.738,3.071A1.245,1.245,0,1,1,2.983,4.319,1.247,1.247,0,0,1,1.738,3.071Zm1.245,39.2A1.248,1.248,0,1,1,4.228,41.02,1.247,1.247,0,0,1,2.983,42.268Zm7.446-8.559V30.751h2.96v2.958Zm4.676,0v-4.69H10.317V15h4.676V10.3H28.965V15h4.687V29.019H28.965v4.69Zm15.587-2.958h2.96v2.958h-2.96ZM40.986,42.234a1.247,1.247,0,1,1,.884-.37A1.243,1.243,0,0,1,40.986,42.234Z" transform="translate(0 0)" fill="#bcbcbc"/>
        </g>
      </g>
      <rect id="矩形_1-2" data-name="矩形 1" width="64" height="64" transform="translate(72 340)" fill="none"/>
    </g>
  </g>
</svg>
