<?xml version="1.0" standalone="no"?><!DOCTYPE svg PUBLIC "-//W3C//DTD SVG 1.1//EN" "http://www.w3.org/Graphics/SVG/1.1/DTD/svg11.dtd"><svg t="1748482018756" class="icon" viewBox="0 0 1101 1024" version="1.1" xmlns="http://www.w3.org/2000/svg" p-id="38612" xmlns:xlink="http://www.w3.org/1999/xlink" width="215.0390625" height="200"><path d="M876.181063 0.103696H262.468051a74.68719 74.68719 0 0 0-74.635342 74.62238v76.385215H75.918582A74.842734 74.842734 0 0 0 1.296203 225.837367V830.088101c0 80.183089 15.813671 145.459848 96.009721 145.459848h689.709367c90.24162 0 163.697418-73.468759 163.697418-163.801114V74.829772a74.570532 74.570532 0 0 0-74.531646-74.726076z" fill="#E0E9F0" p-id="38613"></path><path d="M488.396152 176.503899h-75.866734V100.585316a80.792304 80.792304 0 0 1 52.405468 23.48719 80.779342 80.779342 0 0 1 23.461266 52.418431zM338.11443 238.954937a80.014582 80.014582 0 0 1-19.624506-52.366583 79.457215 79.457215 0 0 1 23.461266-56.618126 80.014582 80.014582 0 0 1 50.875949-23.163139v77.590683l-54.699747 54.570127z m60.493773 27.686886a79.93681 79.93681 0 0 0 79.755341-74.337215l-77.240709-0.233317-54.933063 54.958987a79.988658 79.988658 0 0 0 52.366582 19.611545h0.051849z" fill="#FFFFFF" p-id="38614"></path><path d="M94.065418 974.523949C8.490127 975.146127 0 878.566076 0 825.123646V173.043038c0-11.588051 7.03838-21.089215 15.709975-21.089215l172.42086-1.529519v673.143899c-0.077772 53.429468-8.490127 150.320608-94.065417 150.942784z" fill="#CFDAE2" p-id="38615"></path><path d="M301.833722 333.305519h516.627443v49.994532H301.833722zM301.833722 516.627443h516.627443v49.994532H301.833722zM301.833722 683.280203h316.649316v49.994531H301.833722z" fill="#FFFFFF" p-id="38616"></path><path d="M885.111899 799.93843m-216.647291 0a216.647291 216.647291 0 1 0 433.294582 0 216.647291 216.647291 0 1 0-433.294582 0Z" fill="#4678F8" p-id="38617"></path><path d="M883.660152 916.596658c-12.443544 0-22.553924-9.902987-22.553924-22.087291s10.084456-22.074329 22.553924-22.074329c12.430582 0 22.540962 9.902987 22.540962 22.074329 0 12.184304-10.084456 22.087291-22.553924 22.087291z m60.532658-124.953924c-4.433013 6.947646-13.804557 16.396962-28.205367 28.373874-7.440203 6.169924-12.067646 11.160304-13.869367 14.958177-1.788759 3.758987-2.631291 10.499241-2.462785 20.220759h-32.081013c-0.06481-4.601519-0.12962-7.414278-0.12962-8.425316 0-10.395544 1.710987-18.924557 5.145924-25.638886 3.447899-6.701367 10.330734-14.258228 20.609621-22.605772 10.291848-8.38643 16.461772-13.869367 18.470886-16.461773 3.097924-4.108962 4.666329-8.645671 4.666329-13.558278 0-6.843949-2.760911-12.702785-8.243848-17.628354-5.482937-4.873722-12.923139-7.336506-22.229874-7.336507-8.982684 0-16.500658 2.566481-22.540962 7.647595-6.027342 5.094076-11.225114 16.332152-12.456506 23.29276-1.166582 6.558785-32.793924 9.332658-32.405063-3.96638 0.388861-13.312 7.29762-27.738734 19.170835-38.199089 11.860253-10.473316 27.45357-15.697013 46.728101-15.697012 20.298532 0 36.410329 5.301468 48.413165 15.904405 12.002835 10.602937 17.978329 22.929823 17.978329 37.006582a40.441519 40.441519 0 0 1-6.571747 22.113215z" fill="#FFFFFF" p-id="38618"></path></svg>