<?xml version="1.0" encoding="UTF-8"?>
<svg width="12px" height="12px" viewBox="0 0 12 12" version="1.1" xmlns="http://www.w3.org/2000/svg" xmlns:xlink="http://www.w3.org/1999/xlink">
    <title>编组</title>
    <g id="页面-1" stroke="none" stroke-width="1" fill="none" fill-rule="evenodd">
        <g id="能源统计-统计配置" transform="translate(-534, -274)">
            <g id="编组-29" transform="translate(512, 82)">
                <g id="编组-3备份-12" transform="translate(0, 0)">
                    <g id="编组" transform="translate(12, 98)">
                        <g id="编组-59" transform="translate(0, 44)">
                            <g id="编组" transform="translate(10, 50)">
                                <rect id="矩形-2" x="0" y="0" width="12" height="12"></rect>
                                <path d="M6.21761905,0 C6.33596578,0 6.43190476,0.0959389807 6.43190476,0.214285711 L6.43190476,11.7857143 C6.43190476,11.904061 6.33596578,12 6.21761905,12 L5.78904763,12 C5.73221552,12 5.67771111,11.9774235 5.63752475,11.9372372 C5.59733838,11.8970508 5.57476192,11.8425464 5.57476192,11.7857143 L5.57476192,0.214285711 C5.57476192,0.0959389807 5.6707009,0 5.78904763,0 L6.21761905,0 Z M4.73571428,1.71428572 L4.73571428,10.2857143 L2.16428572,10.2857143 C1.21751187,10.2857143 0.45,9.51820243 0.45,8.57142858 L0.45,3.42857142 C0.45,2.48179757 1.21751187,1.71428572 2.16428572,1.71428572 L4.73571428,1.71428572 L4.73571428,1.71428572 Z" id="形状结合" fill="#46C7FF" fill-rule="nonzero"></path>
                                <path d="M9.84333332,1.71428572 C10.7901072,1.71428572 11.557619,2.48179757 11.557619,3.42857142 L11.557619,8.57142858 C11.557619,9.51820243 10.7901072,10.2857143 9.84333332,10.2857143 L7.27190476,10.2857143 L7.27190476,1.71428572 L9.84333332,1.71428572 L9.84333332,1.71428572 Z" id="-path" fill="#1E50E6"></path>
                            </g>
                        </g>
                    </g>
                </g>
            </g>
        </g>
    </g>
</svg>