<?xml version="1.0" encoding="UTF-8"?>
<svg width="20px" height="20px" viewBox="0 0 20 20" version="1.1" xmlns="http://www.w3.org/2000/svg" xmlns:xlink="http://www.w3.org/1999/xlink">
    <title>视频 (1)</title>
    <defs>
        <linearGradient x1="3.45787667%" y1="79.0326258%" x2="97.915979%" y2="19.3007638%" id="linearGradient-1">
            <stop stop-color="#369C56" offset="0%"></stop>
            <stop stop-color="#5CBBE4" offset="100%"></stop>
        </linearGradient>
    </defs>
    <g id="视频-(1)" stroke="none" fill="none" fill-opacity="0.9" fill-rule="evenodd" stroke-width="1">
        <g id="编组" transform="translate(0.4198, 2.8298)" fill="url(#linearGradient-1)">
            <path d="M0.000239979618,4.17023998 L19.17024,4.17023998 L19.17024,14.09024 C19.176835,14.4237386 19.0472578,14.7455273 18.8113925,14.9813925 C18.5755273,15.2172578 18.2537386,15.346835 17.92024,15.34024 L1.25023998,15.34024 C0.916741309,15.346835 0.594952694,15.2172578 0.359087417,14.9813925 C0.123222141,14.7455273 -0.0063550212,14.4237386 0.000239979618,14.09024 L0.000239979618,4.17023998 Z M8.06023998,6.80023998 C7.56023998,6.80023998 7.13023998,7.04023998 7.13023998,7.57023998 L7.13023998,11.91024 C7.13023998,12.43024 7.56023998,12.68024 8.06023998,12.68024 C8.23488265,12.6881347 8.40820347,12.6465377 8.56023998,12.56024 L12.09024,10.52024 C12.3766549,10.3677473 12.5556155,10.0697204 12.5556155,9.74523998 C12.5556155,9.42075961 12.3766549,9.12273264 12.09024,8.97023998 L8.56023998,6.92023998 C8.40610972,6.83937854 8.23428106,6.79813967 8.06023998,6.80023998 Z M10.66024,0.000239979618 L13.87024,0.000239979618 L16.701,3.33 L13.49024,3.33023998 L10.66024,0.000239979618 Z M6.52023998,0.000239979618 L9.71023998,0.000239979618 L12.532,3.33 L9.35023998,3.33023998 L6.52023998,0.000239979618 Z M1.25023998,0.000239979618 L2.35023998,0.000239979618 L6.52023998,0.000239979618 L9.342,3.33 L5.18523998,3.33023998 L0.000239979618,3.33023998 L0.000239979618,1.25023998 C-0.0063550212,0.916741309 0.123222141,0.594952694 0.359087417,0.359087417 C0.594952694,0.123222141 0.916741309,-0.0063550212 1.25023998,0.000239979618 Z M14.83024,0.000239979618 L17.91024,0.000239979618 C18.2437386,-0.0063550212 18.5655273,0.123222141 18.8013925,0.359087417 C19.0372578,0.594952694 19.166835,0.916741309 19.16024,1.25023998 L19.16024,3.33023998 L17.66024,3.33023998 L14.83024,0.000239979618 Z" id="形状结合"></path>
        </g>
    </g>
</svg>